  0
SECTION
  2
HEADER
  9
$ACADVER
  1
AC1009
  9
$EXTMIN
 10
0.0
 20
0.0
 30
0.0
  9
$EXTMAX
 10
1000.0
 20
1000.0
 30
0.0
  9
$FILLMODE
 70
 0
  9
$SPLFRAME
 70
 1
  0
ENDSEC
  0
SECTION
  2
TABLES
  0
TABLE
  2
LAYER
 70
1
  0
LAYER
  2
0
 70
     0
 62
     7
  6
CONTINUOUS
  0
ENDTAB
  0
ENDSEC
  0
SECTION
  2
ENTITIES
  0
POLYLINE
  8
0
 62
     0
 66
     1
 10
0
 20
0
 30
0.0
 70
     1
 40
0
 41
0
  0
VERTEX
  8
0
 10
0.244467
 20
0.436469
 30
0.0
 40
0
 41
0
  0
VERTEX
  8
0
 10
0.243218
 20
0.434625
 30
0.0
 40
0
 41
0
  0
VERTEX
  8
0
 10
0.242188
 20
0.433106
 30
0.0
 40
0
 41
0
  0
VERTEX
  8
0
 10
0.241211
 20
0.43164
 30
0.0
 40
0
 41
0
  0
VERTEX
  8
0
 10
0.240289
 20
0.430176
 30
0.0
 40
0
 41
0
  0
VERTEX
  8
0
 10
0.239421
 20
0.428711
 30
0.0
 40
0
 41
0
  0
VERTEX
  8
0
 10
0.238661
 20
0.427354
 30
0.0
 40
0
 41
0
  0
VERTEX
  8
0
 10
0.237901
 20
0.426053
 30
0.0
 40
0
 41
0
  0
VERTEX
  8
0
 10
0.23725
 20
0.42475
 30
0.0
 40
0
 41
0
  0
VERTEX
  8
0
 10
0.2366
 20
0.423503
 30
0.0
 40
0
 41
0
  0
VERTEX
  8
0
 10
0.236003
 20
0.422254
 30
0.0
 40
0
 41
0
  0
VERTEX
  8
0
 10
0.235514
 20
0.421115
 30
0.0
 40
0
 41
0
  0
VERTEX
  8
0
 10
0.235026
 20
0.420031
 30
0.0
 40
0
 41
0
  0
VERTEX
  8
0
 10
0.234592
 20
0.418946
 30
0.0
 40
0
 41
0
  0
VERTEX
  8
0
 10
0.234213
 20
0.417969
 30
0.0
 40
0
 41
0
  0
VERTEX
  8
0
 10
0.233832
 20
0.417046
 30
0.0
 40
0
 41
0
  0
VERTEX
  8
0
 10
0.233507
 20
0.416124
 30
0.0
 40
0
 41
0
  0
VERTEX
  8
0
 10
0.233236
 20
0.41531
 30
0.0
 40
0
 41
0
  0
VERTEX
  8
0
 10
0.233018
 20
0.414497
 30
0.0
 40
0
 41
0
  0
VERTEX
  8
0
 10
0.232801
 20
0.413792
 30
0.0
 40
0
 41
0
  0
VERTEX
  8
0
 10
0.232639
 20
0.41314
 30
0.0
 40
0
 41
0
  0
VERTEX
  8
0
 10
0.232476
 20
0.412543
 30
0.0
 40
0
 41
0
  0
VERTEX
  8
0
 10
0.232368
 20
0.412001
 30
0.0
 40
0
 41
0
  0
VERTEX
  8
0
 10
0.23226
 20
0.411513
 30
0.0
 40
0
 41
0
  0
VERTEX
  8
0
 10
0.23215
 20
0.411079
 30
0.0
 40
0
 41
0
  0
VERTEX
  8
0
 10
0.232042
 20
0.410428
 30
0.0
 40
0
 41
0
  0
VERTEX
  8
0
 10
0.231988
 20
0.410211
 30
0.0
 40
0
 41
0
  0
VERTEX
  8
0
 10
0.231988
 20
0.409939
 30
0.0
 40
0
 41
0
  0
VERTEX
  8
0
 10
0.23074
 20
0.392796
 30
0.0
 40
0
 41
0
  0
VERTEX
  8
0
 10
0.204861
 20
0.392632
 30
0.0
 40
0
 41
0
  0
VERTEX
  8
0
 10
0.20345
 20
0.409776
 30
0.0
 40
0
 41
0
  0
VERTEX
  8
0
 10
0.20345
 20
0.409885
 30
0.0
 40
0
 41
0
  0
VERTEX
  8
0
 10
0.203396
 20
0.410047
 30
0.0
 40
0
 41
0
  0
VERTEX
  8
0
 10
0.203342
 20
0.410319
 30
0.0
 40
0
 41
0
  0
VERTEX
  8
0
 10
0.203342
 20
0.41059
 30
0.0
 40
0
 41
0
  0
VERTEX
  8
0
 10
0.203287
 20
0.410915
 30
0.0
 40
0
 41
0
  0
VERTEX
  8
0
 10
0.203179
 20
0.41135
 30
0.0
 40
0
 41
0
  0
VERTEX
  8
0
 10
0.203071
 20
0.411838
 30
0.0
 40
0
 41
0
  0
VERTEX
  8
0
 10
0.202963
 20
0.412381
 30
0.0
 40
0
 41
0
  0
VERTEX
  8
0
 10
0.2028
 20
0.412978
 30
0.0
 40
0
 41
0
  0
VERTEX
  8
0
 10
0.202582
 20
0.413629
 30
0.0
 40
0
 41
0
  0
VERTEX
  8
0
 10
0.202365
 20
0.414333
 30
0.0
 40
0
 41
0
  0
VERTEX
  8
0
 10
0.202149
 20
0.415147
 30
0.0
 40
0
 41
0
  0
VERTEX
  8
0
 10
0.201824
 20
0.415961
 30
0.0
 40
0
 41
0
  0
VERTEX
  8
0
 10
0.201497
 20
0.416829
 30
0.0
 40
0
 41
0
  0
VERTEX
  8
0
 10
0.201172
 20
0.417806
 30
0.0
 40
0
 41
0
  0
VERTEX
  8
0
 10
0.200738
 20
0.418782
 30
0.0
 40
0
 41
0
  0
VERTEX
  8
0
 10
0.200304
 20
0.419868
 30
0.0
 40
0
 41
0
  0
VERTEX
  8
0
 10
0.199815
 20
0.420953
 30
0.0
 40
0
 41
0
  0
VERTEX
  8
0
 10
0.199274
 20
0.422092
 30
0.0
 40
0
 41
0
  0
VERTEX
  8
0
 10
0.198676
 20
0.423286
 30
0.0
 40
0
 41
0
  0
VERTEX
  8
0
 10
0.198025
 20
0.424533
 30
0.0
 40
0
 41
0
  0
VERTEX
  8
0
 10
0.197319
 20
0.425782
 30
0.0
 40
0
 41
0
  0
VERTEX
  8
0
 10
0.196615
 20
0.427138
 30
0.0
 40
0
 41
0
  0
VERTEX
  8
0
 10
0.195801
 20
0.428494
 30
0.0
 40
0
 41
0
  0
VERTEX
  8
0
 10
0.194933
 20
0.429904
 30
0.0
 40
0
 41
0
  0
VERTEX
  8
0
 10
0.194011
 20
0.431369
 30
0.0
 40
0
 41
0
  0
VERTEX
  8
0
 10
0.193033
 20
0.432835
 30
0.0
 40
0
 41
0
  0
VERTEX
  8
0
 10
0.191949
 20
0.434353
 30
0.0
 40
0
 41
0
  0
VERTEX
  8
0
 10
0.190647
 20
0.436143
 30
0.0
 40
0
 41
0
  0
VERTEX
  8
0
 10
0.189399
 20
0.436035
 30
0.0
 40
0
 41
0
  0
VERTEX
  8
0
 10
0.173611
 20
0.433322
 30
0.0
 40
0
 41
0
  0
VERTEX
  8
0
 10
0.172418
 20
0.432997
 30
0.0
 40
0
 41
0
  0
VERTEX
  8
0
 10
0.171767
 20
0.430881
 30
0.0
 40
0
 41
0
  0
VERTEX
  8
0
 10
0.171278
 20
0.42909
 30
0.0
 40
0
 41
0
  0
VERTEX
  8
0
 10
0.170844
 20
0.427354
 30
0.0
 40
0
 41
0
  0
VERTEX
  8
0
 10
0.170464
 20
0.425726
 30
0.0
 40
0
 41
0
  0
VERTEX
  8
0
 10
0.170139
 20
0.4241
 30
0.0
 40
0
 41
0
  0
VERTEX
  8
0
 10
0.169814
 20
0.422526
 30
0.0
 40
0
 41
0
  0
VERTEX
  8
0
 10
0.169596
 20
0.421007
 30
0.0
 40
0
 41
0
  0
VERTEX
  8
0
 10
0.169325
 20
0.419542
 30
0.0
 40
0
 41
0
  0
VERTEX
  8
0
 10
0.169
 20
0.416829
 30
0.0
 40
0
 41
0
  0
VERTEX
  8
0
 10
0.168892
 20
0.415582
 30
0.0
 40
0
 41
0
  0
VERTEX
  8
0
 10
0.168782
 20
0.414387
 30
0.0
 40
0
 41
0
  0
VERTEX
  8
0
 10
0.168728
 20
0.413249
 30
0.0
 40
0
 41
0
  0
VERTEX
  8
0
 10
0.168619
 20
0.411187
 30
0.0
 40
0
 41
0
  0
VERTEX
  8
0
 10
0.168619
 20
0.409343
 30
0.0
 40
0
 41
0
  0
VERTEX
  8
0
 10
0.168674
 20
0.408529
 30
0.0
 40
0
 41
0
  0
VERTEX
  8
0
 10
0.168674
 20
0.407769
 30
0.0
 40
0
 41
0
  0
VERTEX
  8
0
 10
0.168782
 20
0.407118
 30
0.0
 40
0
 41
0
  0
VERTEX
  8
0
 10
0.168782
 20
0.406467
 30
0.0
 40
0
 41
0
  0
VERTEX
  8
0
 10
0.168837
 20
0.405925
 30
0.0
 40
0
 41
0
  0
VERTEX
  8
0
 10
0.168946
 20
0.405436
 30
0.0
 40
0
 41
0
  0
VERTEX
  8
0
 10
0.169054
 20
0.404676
 30
0.0
 40
0
 41
0
  0
VERTEX
  8
0
 10
0.169108
 20
0.404406
 30
0.0
 40
0
 41
0
  0
VERTEX
  8
0
 10
0.169108
 20
0.404135
 30
0.0
 40
0
 41
0
  0
VERTEX
  8
0
 10
0.169162
 20
0.403971
 30
0.0
 40
0
 41
0
  0
VERTEX
  8
0
 10
0.169162
 20
0.403863
 30
0.0
 40
0
 41
0
  0
VERTEX
  8
0
 10
0.173611
 20
0.387261
 30
0.0
 40
0
 41
0
  0
VERTEX
  8
0
 10
0.149143
 20
0.378689
 30
0.0
 40
0
 41
0
  0
VERTEX
  8
0
 10
0.142253
 20
0.394476
 30
0.0
 40
0
 41
0
  0
VERTEX
  8
0
 10
0.142199
 20
0.394532
 30
0.0
 40
0
 41
0
  0
VERTEX
  8
0
 10
0.142144
 20
0.394694
 30
0.0
 40
0
 41
0
  0
VERTEX
  8
0
 10
0.141982
 20
0.394911
 30
0.0
 40
0
 41
0
  0
VERTEX
  8
0
 10
0.141872
 20
0.395182
 30
0.0
 40
0
 41
0
  0
VERTEX
  8
0
 10
0.14171
 20
0.395508
 30
0.0
 40
0
 41
0
  0
VERTEX
  8
0
 10
0.141493
 20
0.395833
 30
0.0
 40
0
 41
0
  0
VERTEX
  8
0
 10
0.141222
 20
0.396268
 30
0.0
 40
0
 41
0
  0
VERTEX
  8
0
 10
0.14095
 20
0.396756
 30
0.0
 40
0
 41
0
  0
VERTEX
  8
0
 10
0.140192
 20
0.39784
 30
0.0
 40
0
 41
0
  0
VERTEX
  8
0
 10
0.139757
 20
0.398438
 30
0.0
 40
0
 41
0
  0
VERTEX
  8
0
 10
0.139268
 20
0.399089
 30
0.0
 40
0
 41
0
  0
VERTEX
  8
0
 10
0.138726
 20
0.399794
 30
0.0
 40
0
 41
0
  0
VERTEX
  8
0
 10
0.138129
 20
0.400499
 30
0.0
 40
0
 41
0
  0
VERTEX
  8
0
 10
0.137478
 20
0.401258
 30
0.0
 40
0
 41
0
  0
VERTEX
  8
0
 10
0.136773
 20
0.402072
 30
0.0
 40
0
 41
0
  0
VERTEX
  8
0
 10
0.136013
 20
0.40294
 30
0.0
 40
0
 41
0
  0
VERTEX
  8
0
 10
0.1352
 20
0.403808
 30
0.0
 40
0
 41
0
  0
VERTEX
  8
0
 10
0.134332
 20
0.404731
 30
0.0
 40
0
 41
0
  0
VERTEX
  8
0
 10
0.133355
 20
0.405653
 30
0.0
 40
0
 41
0
  0
VERTEX
  8
0
 10
0.132378
 20
0.406629
 30
0.0
 40
0
 41
0
  0
VERTEX
  8
0
 10
0.131293
 20
0.407607
 30
0.0
 40
0
 41
0
  0
VERTEX
  8
0
 10
0.130154
 20
0.408638
 30
0.0
 40
0
 41
0
  0
VERTEX
  8
0
 10
0.127658
 20
0.410699
 30
0.0
 40
0
 41
0
  0
VERTEX
  8
0
 10
0.126302
 20
0.411783
 30
0.0
 40
0
 41
0
  0
VERTEX
  8
0
 10
0.124892
 20
0.412869
 30
0.0
 40
0
 41
0
  0
VERTEX
  8
0
 10
0.123372
 20
0.413954
 30
0.0
 40
0
 41
0
  0
VERTEX
  8
0
 10
0.121582
 20
0.415256
 30
0.0
 40
0
 41
0
  0
VERTEX
  8
0
 10
0.120443
 20
0.414768
 30
0.0
 40
0
 41
0
  0
VERTEX
  8
0
 10
0.106391
 20
0.407064
 30
0.0
 40
0
 41
0
  0
VERTEX
  8
0
 10
0.10536
 20
0.406358
 30
0.0
 40
0
 41
0
  0
VERTEX
  8
0
 10
0.105469
 20
0.404135
 30
0.0
 40
0
 41
0
  0
VERTEX
  8
0
 10
0.105577
 20
0.402289
 30
0.0
 40
0
 41
0
  0
VERTEX
  8
0
 10
0.10574
 20
0.400499
 30
0.0
 40
0
 41
0
  0
VERTEX
  8
0
 10
0.105903
 20
0.398817
 30
0.0
 40
0
 41
0
  0
VERTEX
  8
0
 10
0.10612
 20
0.397136
 30
0.0
 40
0
 41
0
  0
VERTEX
  8
0
 10
0.106337
 20
0.395562
 30
0.0
 40
0
 41
0
  0
VERTEX
  8
0
 10
0.106554
 20
0.394097
 30
0.0
 40
0
 41
0
  0
VERTEX
  8
0
 10
0.106825
 20
0.392632
 30
0.0
 40
0
 41
0
  0
VERTEX
  8
0
 10
0.107096
 20
0.391276
 30
0.0
 40
0
 41
0
  0
VERTEX
  8
0
 10
0.107368
 20
0.389974
 30
0.0
 40
0
 41
0
  0
VERTEX
  8
0
 10
0.107693
 20
0.388726
 30
0.0
 40
0
 41
0
  0
VERTEX
  8
0
 10
0.107964
 20
0.387587
 30
0.0
 40
0
 41
0
  0
VERTEX
  8
0
 10
0.10829
 20
0.386447
 30
0.0
 40
0
 41
0
  0
VERTEX
  8
0
 10
0.108561
 20
0.385417
 30
0.0
 40
0
 41
0
  0
VERTEX
  8
0
 10
0.108887
 20
0.384494
 30
0.0
 40
0
 41
0
  0
VERTEX
  8
0
 10
0.109158
 20
0.383572
 30
0.0
 40
0
 41
0
  0
VERTEX
  8
0
 10
0.109483
 20
0.382758
 30
0.0
 40
0
 41
0
  0
VERTEX
  8
0
 10
0.109755
 20
0.381999
 30
0.0
 40
0
 41
0
  0
VERTEX
  8
0
 10
0.110026
 20
0.381293
 30
0.0
 40
0
 41
0
  0
VERTEX
  8
0
 10
0.110569
 20
0.3801
 30
0.0
 40
0
 41
0
  0
VERTEX
  8
0
 10
0.111003
 20
0.379124
 30
0.0
 40
0
 41
0
  0
VERTEX
  8
0
 10
0.111165
 20
0.378797
 30
0.0
 40
0
 41
0
  0
VERTEX
  8
0
 10
0.111382
 20
0.378472
 30
0.0
 40
0
 41
0
  0
VERTEX
  8
0
 10
0.111491
 20
0.378201
 30
0.0
 40
0
 41
0
  0
VERTEX
  8
0
 10
0.111654
 20
0.377983
 30
0.0
 40
0
 41
0
  0
VERTEX
  8
0
 10
0.111708
 20
0.377821
 30
0.0
 40
0
 41
0
  0
VERTEX
  8
0
 10
0.111762
 20
0.377767
 30
0.0
 40
0
 41
0
  0
VERTEX
  8
0
 10
0.121365
 20
0.363444
 30
0.0
 40
0
 41
0
  0
VERTEX
  8
0
 10
0.10102
 20
0.347439
 30
0.0
 40
0
 41
0
  0
VERTEX
  8
0
 10
0.0893554
 20
0.360081
 30
0.0
 40
0
 41
0
  0
VERTEX
  8
0
 10
0.0887587
 20
0.360678
 30
0.0
 40
0
 41
0
  0
VERTEX
  8
0
 10
0.0884874
 20
0.360894
 30
0.0
 40
0
 41
0
  0
VERTEX
  8
0
 10
0.0881619
 20
0.361165
 30
0.0
 40
0
 41
0
  0
VERTEX
  8
0
 10
0.0877821
 20
0.36149
 30
0.0
 40
0
 41
0
  0
VERTEX
  8
0
 10
0.0873481
 20
0.361817
 30
0.0
 40
0
 41
0
  0
VERTEX
  8
0
 10
0.0868599
 20
0.362196
 30
0.0
 40
0
 41
0
  0
VERTEX
  8
0
 10
0.0863172
 20
0.362631
 30
0.0
 40
0
 41
0
  0
VERTEX
  8
0
 10
0.0857206
 20
0.363064
 30
0.0
 40
0
 41
0
  0
VERTEX
  8
0
 10
0.0850151
 20
0.363499
 30
0.0
 40
0
 41
0
  0
VERTEX
  8
0
 10
0.0834961
 20
0.364475
 30
0.0
 40
0
 41
0
  0
VERTEX
  8
0
 10
0.0826281
 20
0.365018
 30
0.0
 40
0
 41
0
  0
VERTEX
  8
0
 10
0.0817057
 20
0.36556
 30
0.0
 40
0
 41
0
  0
VERTEX
  8
0
 10
0.0806749
 20
0.366103
 30
0.0
 40
0
 41
0
  0
VERTEX
  8
0
 10
0.0796442
 20
0.366699
 30
0.0
 40
0
 41
0
  0
VERTEX
  8
0
 10
0.0785047
 20
0.367242
 30
0.0
 40
0
 41
0
  0
VERTEX
  8
0
 10
0.0773113
 20
0.367839
 30
0.0
 40
0
 41
0
  0
VERTEX
  8
0
 10
0.0760092
 20
0.368381
 30
0.0
 40
0
 41
0
  0
VERTEX
  8
0
 10
0.0747071
 20
0.368978
 30
0.0
 40
0
 41
0
  0
VERTEX
  8
0
 10
0.0732964
 20
0.369575
 30
0.0
 40
0
 41
0
  0
VERTEX
  8
0
 10
0.0702582
 20
0.370768
 30
0.0
 40
0
 41
0
  0
VERTEX
  8
0
 10
0.0686307
 20
0.371311
 30
0.0
 40
0
 41
0
  0
VERTEX
  8
0
 10
0.0669488
 20
0.371907
 30
0.0
 40
0
 41
0
  0
VERTEX
  8
0
 10
0.0652126
 20
0.37245
 30
0.0
 40
0
 41
0
  0
VERTEX
  8
0
 10
0.0630968
 20
0.373047
 30
0.0
 40
0
 41
0
  0
VERTEX
  8
0
 10
0.0621203
 20
0.372233
 30
0.0
 40
0
 41
0
  0
VERTEX
  8
0
 10
0.0513781
 20
0.360351
 30
0.0
 40
0
 41
0
  0
VERTEX
  8
0
 10
0.0505643
 20
0.359375
 30
0.0
 40
0
 41
0
  0
VERTEX
  8
0
 10
0.0513781
 20
0.357314
 30
0.0
 40
0
 41
0
  0
VERTEX
  8
0
 10
0.0520833
 20
0.355632
 30
0.0
 40
0
 41
0
  0
VERTEX
  8
0
 10
0.0528429
 20
0.35395
 30
0.0
 40
0
 41
0
  0
VERTEX
  8
0
 10
0.0535482
 20
0.352431
 30
0.0
 40
0
 41
0
  0
VERTEX
  8
0
 10
0.0550131
 20
0.349501
 30
0.0
 40
0
 41
0
  0
VERTEX
  8
0
 10
0.0557183
 20
0.348144
 30
0.0
 40
0
 41
0
  0
VERTEX
  8
0
 10
0.0571289
 20
0.345649
 30
0.0
 40
0
 41
0
  0
VERTEX
  8
0
 10
0.0578342
 20
0.34451
 30
0.0
 40
0
 41
0
  0
VERTEX
  8
0
 10
0.0591363
 20
0.342449
 30
0.0
 40
0
 41
0
  0
VERTEX
  8
0
 10
0.0597874
 20
0.341525
 30
0.0
 40
0
 41
0
  0
VERTEX
  8
0
 10
0.0604383
 20
0.340657
 30
0.0
 40
0
 41
0
  0
VERTEX
  8
0
 10
0.0610351
 20
0.339844
 30
0.0
 40
0
 41
0
  0
VERTEX
  8
0
 10
0.0615776
 20
0.339085
 30
0.0
 40
0
 41
0
  0
VERTEX
  8
0
 10
0.0621203
 20
0.338379
 30
0.0
 40
0
 41
0
  0
VERTEX
  8
0
 10
0.0626628
 20
0.337782
 30
0.0
 40
0
 41
0
  0
VERTEX
  8
0
 10
0.0631511
 20
0.337185
 30
0.0
 40
0
 41
0
  0
VERTEX
  8
0
 10
0.0640192
 20
0.336208
 30
0.0
 40
0
 41
0
  0
VERTEX
  8
0
 10
0.0650499
 20
0.335178
 30
0.0
 40
0
 41
0
  0
VERTEX
  8
0
 10
0.0653212
 20
0.334961
 30
0.0
 40
0
 41
0
  0
VERTEX
  8
0
 10
0.065701
 20
0.334581
 30
0.0
 40
0
 41
0
  0
VERTEX
  8
0
 10
0.0658637
 20
0.334472
 30
0.0
 40
0
 41
0
  0
VERTEX
  8
0
 10
0.0659179
 20
0.334418
 30
0.0
 40
0
 41
0
  0
VERTEX
  8
0
 10
0.0796442
 20
0.324001
 30
0.0
 40
0
 41
0
  0
VERTEX
  8
0
 10
0.0655925
 20
0.302246
 30
0.0
 40
0
 41
0
  0
VERTEX
  8
0
 10
0.0504557
 20
0.310439
 30
0.0
 40
0
 41
0
  0
VERTEX
  8
0
 10
0.0503472
 20
0.310439
 30
0.0
 40
0
 41
0
  0
VERTEX
  8
0
 10
0.0502387
 20
0.310547
 30
0.0
 40
0
 41
0
  0
VERTEX
  8
0
 10
0.0499675
 20
0.310656
 30
0.0
 40
0
 41
0
  0
VERTEX
  8
0
 10
0.0497504
 20
0.310764
 30
0.0
 40
0
 41
0
  0
VERTEX
  8
0
 10
0.0493707
 20
0.310872
 30
0.0
 40
0
 41
0
  0
VERTEX
  8
0
 10
0.0489908
 20
0.311035
 30
0.0
 40
0
 41
0
  0
VERTEX
  8
0
 10
0.0485026
 20
0.311253
 30
0.0
 40
0
 41
0
  0
VERTEX
  8
0
 10
0.0480143
 20
0.311415
 30
0.0
 40
0
 41
0
  0
VERTEX
  8
0
 10
0.0474175
 20
0.311578
 30
0.0
 40
0
 41
0
  0
VERTEX
  8
0
 10
0.0467665
 20
0.311794
 30
0.0
 40
0
 41
0
  0
VERTEX
  8
0
 10
0.0460613
 20
0.312011
 30
0.0
 40
0
 41
0
  0
VERTEX
  8
0
 10
0.0452474
 20
0.312229
 30
0.0
 40
0
 41
0
  0
VERTEX
  8
0
 10
0.0443793
 20
0.312446
 30
0.0
 40
0
 41
0
  0
VERTEX
  8
0
 10
0.0434571
 20
0.312662
 30
0.0
 40
0
 41
0
  0
VERTEX
  8
0
 10
0.0424804
 20
0.312879
 30
0.0
 40
0
 41
0
  0
VERTEX
  8
0
 10
0.0414497
 20
0.313097
 30
0.0
 40
0
 41
0
  0
VERTEX
  8
0
 10
0.0403103
 20
0.313314
 30
0.0
 40
0
 41
0
  0
VERTEX
  8
0
 10
0.039171
 20
0.313476
 30
0.0
 40
0
 41
0
  0
VERTEX
  8
0
 10
0.0365668
 20
0.313803
 30
0.0
 40
0
 41
0
  0
VERTEX
  8
0
 10
0.0351563
 20
0.313965
 30
0.0
 40
0
 41
0
  0
VERTEX
  8
0
 10
0.0336914
 20
0.314074
 30
0.0
 40
0
 41
0
  0
VERTEX
  8
0
 10
0.0321724
 20
0.314182
 30
0.0
 40
0
 41
0
  0
VERTEX
  8
0
 10
0.030599
 20
0.314236
 30
0.0
 40
0
 41
0
  0
VERTEX
  8
0
 10
0.0289714
 20
0.31429
 30
0.0
 40
0
 41
0
  0
VERTEX
  8
0
 10
0.0254449
 20
0.31429
 30
0.0
 40
0
 41
0
  0
VERTEX
  8
0
 10
0.0236003
 20
0.314236
 30
0.0
 40
0
 41
0
  0
VERTEX
  8
0
 10
0.0213758
 20
0.314128
 30
0.0
 40
0
 41
0
  0
VERTEX
  8
0
 10
0.020779
 20
0.313043
 30
0.0
 40
0
 41
0
  0
VERTEX
  8
0
 10
0.0144314
 20
0.29834
 30
0.0
 40
0
 41
0
  0
VERTEX
  8
0
 10
0.0140517
 20
0.297146
 30
0.0
 40
0
 41
0
  0
VERTEX
  8
0
 10
0.0154622
 20
0.295464
 30
0.0
 40
0
 41
0
  0
VERTEX
  8
0
 10
0.0167101
 20
0.294108
 30
0.0
 40
0
 41
0
  0
VERTEX
  8
0
 10
0.0179036
 20
0.292751
 30
0.0
 40
0
 41
0
  0
VERTEX
  8
0
 10
0.0190972
 20
0.291504
 30
0.0
 40
0
 41
0
  0
VERTEX
  8
0
 10
0.0202908
 20
0.290365
 30
0.0
 40
0
 41
0
  0
VERTEX
  8
0
 10
0.0214301
 20
0.289225
 30
0.0
 40
0
 41
0
  0
VERTEX
  8
0
 10
0.0225151
 20
0.288194
 30
0.0
 40
0
 41
0
  0
VERTEX
  8
0
 10
0.0236003
 20
0.287218
 30
0.0
 40
0
 41
0
  0
VERTEX
  8
0
 10
0.0246853
 20
0.286296
 30
0.0
 40
0
 41
0
  0
VERTEX
  8
0
 10
0.0257161
 20
0.285482
 30
0.0
 40
0
 41
0
  0
VERTEX
  8
0
 10
0.0266928
 20
0.284668
 30
0.0
 40
0
 41
0
  0
VERTEX
  8
0
 10
0.027615
 20
0.283908
 30
0.0
 40
0
 41
0
  0
VERTEX
  8
0
 10
0.0285374
 20
0.283257
 30
0.0
 40
0
 41
0
  0
VERTEX
  8
0
 10
0.0294054
 20
0.282607
 30
0.0
 40
0
 41
0
  0
VERTEX
  8
0
 10
0.0302735
 20
0.282064
 30
0.0
 40
0
 41
0
  0
VERTEX
  8
0
 10
0.0310331
 20
0.281521
 30
0.0
 40
0
 41
0
  0
VERTEX
  8
0
 10
0.0317925
 20
0.281088
 30
0.0
 40
0
 41
0
  0
VERTEX
  8
0
 10
0.0324978
 20
0.280653
 30
0.0
 40
0
 41
0
  0
VERTEX
  8
0
 10
0.0331489
 20
0.280274
 30
0.0
 40
0
 41
0
  0
VERTEX
  8
0
 10
0.0336914
 20
0.279893
 30
0.0
 40
0
 41
0
  0
VERTEX
  8
0
 10
0.0342882
 20
0.279622
 30
0.0
 40
0
 41
0
  0
VERTEX
  8
0
 10
0.0347765
 20
0.279351
 30
0.0
 40
0
 41
0
  0
VERTEX
  8
0
 10
0.0352106
 20
0.279135
 30
0.0
 40
0
 41
0
  0
VERTEX
  8
0
 10
0.0355903
 20
0.278971
 30
0.0
 40
0
 41
0
  0
VERTEX
  8
0
 10
0.0359158
 20
0.278808
 30
0.0
 40
0
 41
0
  0
VERTEX
  8
0
 10
0.0361871
 20
0.2787
 30
0.0
 40
0
 41
0
  0
VERTEX
  8
0
 10
0.036404
 20
0.278646
 30
0.0
 40
0
 41
0
  0
VERTEX
  8
0
 10
0.0365668
 20
0.278538
 30
0.0
 40
0
 41
0
  0
VERTEX
  8
0
 10
0.0366754
 20
0.278538
 30
0.0
 40
0
 41
0
  0
VERTEX
  8
0
 10
0.0530057
 20
0.273113
 30
0.0
 40
0
 41
0
  0
VERTEX
  8
0
 10
0.0467665
 20
0.247939
 30
0.0
 40
0
 41
0
  0
VERTEX
  8
0
 10
0.0297851
 20
0.250814
 30
0.0
 40
0
 41
0
  0
VERTEX
  8
0
 10
0.0295139
 20
0.250814
 30
0.0
 40
0
 41
0
  0
VERTEX
  8
0
 10
0.0292969
 20
0.250868
 30
0.0
 40
0
 41
0
  0
VERTEX
  8
0
 10
0.0289714
 20
0.250868
 30
0.0
 40
0
 41
0
  0
VERTEX
  8
0
 10
0.0286458
 20
0.250922
 30
0.0
 40
0
 41
0
  0
VERTEX
  8
0
 10
0.0282118
 20
0.250922
 30
0.0
 40
0
 41
0
  0
VERTEX
  8
0
 10
0.0277235
 20
0.250976
 30
0.0
 40
0
 41
0
  0
VERTEX
  8
0
 10
0.02653
 20
0.250976
 30
0.0
 40
0
 41
0
  0
VERTEX
  8
0
 10
0.0258789
 20
0.250922
 30
0.0
 40
0
 41
0
  0
VERTEX
  8
0
 10
0.0251193
 20
0.250868
 30
0.0
 40
0
 41
0
  0
VERTEX
  8
0
 10
0.0243056
 20
0.250868
 30
0.0
 40
0
 41
0
  0
VERTEX
  8
0
 10
0.0234375
 20
0.25076
 30
0.0
 40
0
 41
0
  0
VERTEX
  8
0
 10
0.0214844
 20
0.250543
 30
0.0
 40
0
 41
0
  0
VERTEX
  8
0
 10
0.0204536
 20
0.250379
 30
0.0
 40
0
 41
0
  0
VERTEX
  8
0
 10
0.0193143
 20
0.250217
 30
0.0
 40
0
 41
0
  0
VERTEX
  8
0
 10
0.0181207
 20
0.25
 30
0.0
 40
0
 41
0
  0
VERTEX
  8
0
 10
0.0168728
 20
0.249783
 30
0.0
 40
0
 41
0
  0
VERTEX
  8
0
 10
0.0155707
 20
0.249511
 30
0.0
 40
0
 41
0
  0
VERTEX
  8
0
 10
0.0142144
 20
0.249186
 30
0.0
 40
0
 41
0
  0
VERTEX
  8
0
 10
0.0128038
 20
0.248861
 30
0.0
 40
0
 41
0
  0
VERTEX
  8
0
 10
0.011339
 20
0.248426
 30
0.0
 40
0
 41
0
  0
VERTEX
  8
0
 10
0.00976563
 20
0.247993
 30
0.0
 40
0
 41
0
  0
VERTEX
  8
0
 10
0.00819228
 20
0.247504
 30
0.0
 40
0
 41
0
  0
VERTEX
  8
0
 10
0.00656467
 20
0.246962
 30
0.0
 40
0
 41
0
  0
VERTEX
  8
0
 10
0.00488282
 20
0.246365
 30
0.0
 40
0
 41
0
  0
VERTEX
  8
0
 10
0.00314671
 20
0.245714
 30
0.0
 40
0
 41
0
  0
VERTEX
  8
0
 10
0.00108507
 20
0.2449
 30
0.0
 40
0
 41
0
  0
VERTEX
  8
0
 10
0.00092231
 20
0.243653
 30
0.0
 40
0
 41
0
  0
VERTEX
  8
0
 10
-0.000325521
 20
0.227701
 30
0.0
 40
0
 41
0
  0
VERTEX
  8
0
 10
-0.000325521
 20
0.2264
 30
0.0
 40
0
 41
0
  0
VERTEX
  8
0
 10
0.00157335
 20
0.225315
 30
0.0
 40
0
 41
0
  0
VERTEX
  8
0
 10
0.00320096
 20
0.224393
 30
0.0
 40
0
 41
0
  0
VERTEX
  8
0
 10
0.00477431
 20
0.223525
 30
0.0
 40
0
 41
0
  0
VERTEX
  8
0
 10
0.0062934
 20
0.222765
 30
0.0
 40
0
 41
0
  0
VERTEX
  8
0
 10
0.00775825
 20
0.222006
 30
0.0
 40
0
 41
0
  0
VERTEX
  8
0
 10
0.0092231
 20
0.221354
 30
0.0
 40
0
 41
0
  0
VERTEX
  8
0
 10
0.0105794
 20
0.220703
 30
0.0
 40
0
 41
0
  0
VERTEX
  8
0
 10
0.01199
 20
0.220161
 30
0.0
 40
0
 41
0
  0
VERTEX
  8
0
 10
0.0132378
 20
0.219618
 30
0.0
 40
0
 41
0
  0
VERTEX
  8
0
 10
0.0144857
 20
0.219129
 30
0.0
 40
0
 41
0
  0
VERTEX
  8
0
 10
0.0156793
 20
0.21875
 30
0.0
 40
0
 41
0
  0
VERTEX
  8
0
 10
0.0168186
 20
0.218317
 30
0.0
 40
0
 41
0
  0
VERTEX
  8
0
 10
0.0179036
 20
0.21799
 30
0.0
 40
0
 41
0
  0
VERTEX
  8
0
 10
0.0189344
 20
0.217665
 30
0.0
 40
0
 41
0
  0
VERTEX
  8
0
 10
0.019911
 20
0.217393
 30
0.0
 40
0
 41
0
  0
VERTEX
  8
0
 10
0.0208333
 20
0.217176
 30
0.0
 40
0
 41
0
  0
VERTEX
  8
0
 10
0.0216471
 20
0.21696
 30
0.0
 40
0
 41
0
  0
VERTEX
  8
0
 10
0.022461
 20
0.216797
 30
0.0
 40
0
 41
0
  0
VERTEX
  8
0
 10
0.0232206
 20
0.216635
 30
0.0
 40
0
 41
0
  0
VERTEX
  8
0
 10
0.0245226
 20
0.216417
 30
0.0
 40
0
 41
0
  0
VERTEX
  8
0
 10
0.0250651
 20
0.216363
 30
0.0
 40
0
 41
0
  0
VERTEX
  8
0
 10
0.0255533
 20
0.216308
 30
0.0
 40
0
 41
0
  0
VERTEX
  8
0
 10
0.0259874
 20
0.2162
 30
0.0
 40
0
 41
0
  0
VERTEX
  8
0
 10
0.0266385
 20
0.2162
 30
0.0
 40
0
 41
0
  0
VERTEX
  8
0
 10
0.0268554
 20
0.216146
 30
0.0
 40
0
 41
0
  0
VERTEX
  8
0
 10
0.0271268
 20
0.216146
 30
0.0
 40
0
 41
0
  0
VERTEX
  8
0
 10
0.0443251
 20
0.216363
 30
0.0
 40
0
 41
0
  0
VERTEX
  8
0
 10
0.0466037
 20
0.190539
 30
0.0
 40
0
 41
0
  0
VERTEX
  8
0
 10
0.0296224
 20
0.187717
 30
0.0
 40
0
 41
0
  0
VERTEX
  8
0
 10
0.0295139
 20
0.187717
 30
0.0
 40
0
 41
0
  0
VERTEX
  8
0
 10
0.0293511
 20
0.187662
 30
0.0
 40
0
 41
0
  0
VERTEX
  8
0
 10
0.0291342
 20
0.187608
 30
0.0
 40
0
 41
0
  0
VERTEX
  8
0
 10
0.0288629
 20
0.187554
 30
0.0
 40
0
 41
0
  0
VERTEX
  8
0
 10
0.0281033
 20
0.187338
 30
0.0
 40
0
 41
0
  0
VERTEX
  8
0
 10
0.0271268
 20
0.187011
 30
0.0
 40
0
 41
0
  0
VERTEX
  8
0
 10
0.02653
 20
0.186794
 30
0.0
 40
0
 41
0
  0
VERTEX
  8
0
 10
0.0258789
 20
0.186578
 30
0.0
 40
0
 41
0
  0
VERTEX
  8
0
 10
0.0251736
 20
0.186253
 30
0.0
 40
0
 41
0
  0
VERTEX
  8
0
 10
0.024414
 20
0.185981
 30
0.0
 40
0
 41
0
  0
VERTEX
  8
0
 10
0.0236003
 20
0.185601
 30
0.0
 40
0
 41
0
  0
VERTEX
  8
0
 10
0.0227322
 20
0.185221
 30
0.0
 40
0
 41
0
  0
VERTEX
  8
0
 10
0.0208876
 20
0.184299
 30
0.0
 40
0
 41
0
  0
VERTEX
  8
0
 10
0.0198568
 20
0.183757
 30
0.0
 40
0
 41
0
  0
VERTEX
  8
0
 10
0.018826
 20
0.18316
 30
0.0
 40
0
 41
0
  0
VERTEX
  8
0
 10
0.0177408
 20
0.182562
 30
0.0
 40
0
 41
0
  0
VERTEX
  8
0
 10
0.0166015
 20
0.181858
 30
0.0
 40
0
 41
0
  0
VERTEX
  8
0
 10
0.0154081
 20
0.181153
 30
0.0
 40
0
 41
0
  0
VERTEX
  8
0
 10
0.0141601
 20
0.180339
 30
0.0
 40
0
 41
0
  0
VERTEX
  8
0
 10
0.0129123
 20
0.179471
 30
0.0
 40
0
 41
0
  0
VERTEX
  8
0
 10
0.0116102
 20
0.178549
 30
0.0
 40
0
 41
0
  0
VERTEX
  8
0
 10
0.0102539
 20
0.177572
 30
0.0
 40
0
 41
0
  0
VERTEX
  8
0
 10
0.00889757
 20
0.17654
 30
0.0
 40
0
 41
0
  0
VERTEX
  8
0
 10
0.00607639
 20
0.174262
 30
0.0
 40
0
 41
0
  0
VERTEX
  8
0
 10
0.00439453
 20
0.172797
 30
0.0
 40
0
 41
0
  0
VERTEX
  8
0
 10
0.00461154
 20
0.17155
 30
0.0
 40
0
 41
0
  0
VERTEX
  8
0
 10
0.00862631
 20
0.156088
 30
0.0
 40
0
 41
0
  0
VERTEX
  8
0
 10
0.00906033
 20
0.154839
 30
0.0
 40
0
 41
0
  0
VERTEX
  8
0
 10
0.0112305
 20
0.154406
 30
0.0
 40
0
 41
0
  0
VERTEX
  8
0
 10
0.0130208
 20
0.154081
 30
0.0
 40
0
 41
0
  0
VERTEX
  8
0
 10
0.0148112
 20
0.153808
 30
0.0
 40
0
 41
0
  0
VERTEX
  8
0
 10
0.0164931
 20
0.153537
 30
0.0
 40
0
 41
0
  0
VERTEX
  8
0
 10
0.0181749
 20
0.153321
 30
0.0
 40
0
 41
0
  0
VERTEX
  8
0
 10
0.019694
 20
0.153157
 30
0.0
 40
0
 41
0
  0
VERTEX
  8
0
 10
0.0212674
 20
0.153049
 30
0.0
 40
0
 41
0
  0
VERTEX
  8
0
 10
0.0227322
 20
0.15294
 30
0.0
 40
0
 41
0
  0
VERTEX
  8
0
 10
0.0240886
 20
0.152832
 30
0.0
 40
0
 41
0
  0
VERTEX
  8
0
 10
0.0254449
 20
0.152832
 30
0.0
 40
0
 41
0
  0
VERTEX
  8
0
 10
0.0266928
 20
0.152778
 30
0.0
 40
0
 41
0
  0
VERTEX
  8
0
 10
0.0278863
 20
0.152778
 30
0.0
 40
0
 41
0
  0
VERTEX
  8
0
 10
0.0290256
 20
0.152832
 30
0.0
 40
0
 41
0
  0
VERTEX
  8
0
 10
0.0301107
 20
0.152886
 30
0.0
 40
0
 41
0
  0
VERTEX
  8
0
 10
0.0310872
 20
0.152886
 30
0.0
 40
0
 41
0
  0
VERTEX
  8
0
 10
0.0320637
 20
0.152994
 30
0.0
 40
0
 41
0
  0
VERTEX
  8
0
 10
0.0329318
 20
0.153049
 30
0.0
 40
0
 41
0
  0
VERTEX
  8
0
 10
0.0337457
 20
0.153157
 30
0.0
 40
0
 41
0
  0
VERTEX
  8
0
 10
0.0345053
 20
0.153267
 30
0.0
 40
0
 41
0
  0
VERTEX
  8
0
 10
0.0351563
 20
0.153375
 30
0.0
 40
0
 41
0
  0
VERTEX
  8
0
 10
0.0357531
 20
0.153483
 30
0.0
 40
0
 41
0
  0
VERTEX
  8
0
 10
0.0362956
 20
0.153592
 30
0.0
 40
0
 41
0
  0
VERTEX
  8
0
 10
0.0367839
 20
0.153646
 30
0.0
 40
0
 41
0
  0
VERTEX
  8
0
 10
0.0372179
 20
0.153754
 30
0.0
 40
0
 41
0
  0
VERTEX
  8
0
 10
0.0375976
 20
0.153863
 30
0.0
 40
0
 41
0
  0
VERTEX
  8
0
 10
0.0378689
 20
0.153917
 30
0.0
 40
0
 41
0
  0
VERTEX
  8
0
 10
0.038086
 20
0.153971
 30
0.0
 40
0
 41
0
  0
VERTEX
  8
0
 10
0.0382488
 20
0.154025
 30
0.0
 40
0
 41
0
  0
VERTEX
  8
0
 10
0.0383572
 20
0.154081
 30
0.0
 40
0
 41
0
  0
VERTEX
  8
0
 10
0.054579
 20
0.159831
 30
0.0
 40
0
 41
0
  0
VERTEX
  8
0
 10
0.0651042
 20
0.136176
 30
0.0
 40
0
 41
0
  0
VERTEX
  8
0
 10
0.0499675
 20
0.127984
 30
0.0
 40
0
 41
0
  0
VERTEX
  8
0
 10
0.0498589
 20
0.12793
 30
0.0
 40
0
 41
0
  0
VERTEX
  8
0
 10
0.0497504
 20
0.127821
 30
0.0
 40
0
 41
0
  0
VERTEX
  8
0
 10
0.0495335
 20
0.127713
 30
0.0
 40
0
 41
0
  0
VERTEX
  8
0
 10
0.0492622
 20
0.12755
 30
0.0
 40
0
 41
0
  0
VERTEX
  8
0
 10
0.0489908
 20
0.127333
 30
0.0
 40
0
 41
0
  0
VERTEX
  8
0
 10
0.0486111
 20
0.127116
 30
0.0
 40
0
 41
0
  0
VERTEX
  8
0
 10
0.0482314
 20
0.126845
 30
0.0
 40
0
 41
0
  0
VERTEX
  8
0
 10
0.0477974
 20
0.126465
 30
0.0
 40
0
 41
0
  0
VERTEX
  8
0
 10
0.047309
 20
0.126085
 30
0.0
 40
0
 41
0
  0
VERTEX
  8
0
 10
0.0467665
 20
0.125651
 30
0.0
 40
0
 41
0
  0
VERTEX
  8
0
 10
0.046224
 20
0.125163
 30
0.0
 40
0
 41
0
  0
VERTEX
  8
0
 10
0.0455729
 20
0.12462
 30
0.0
 40
0
 41
0
  0
VERTEX
  8
0
 10
0.0449219
 20
0.124023
 30
0.0
 40
0
 41
0
  0
VERTEX
  8
0
 10
0.0419922
 20
0.121094
 30
0.0
 40
0
 41
0
  0
VERTEX
  8
0
 10
0.0403646
 20
0.119249
 30
0.0
 40
0
 41
0
  0
VERTEX
  8
0
 10
0.0394965
 20
0.118218
 30
0.0
 40
0
 41
0
  0
VERTEX
  8
0
 10
0.0386285
 20
0.117133
 30
0.0
 40
0
 41
0
  0
VERTEX
  8
0
 10
0.0377604
 20
0.115994
 30
0.0
 40
0
 41
0
  0
VERTEX
  8
0
 10
0.0368381
 20
0.114746
 30
0.0
 40
0
 41
0
  0
VERTEX
  8
0
 10
0.0359158
 20
0.113444
 30
0.0
 40
0
 41
0
  0
VERTEX
  8
0
 10
0.0349393
 20
0.112142
 30
0.0
 40
0
 41
0
  0
VERTEX
  8
0
 10
0.0340169
 20
0.110677
 30
0.0
 40
0
 41
0
  0
VERTEX
  8
0
 10
0.0330404
 20
0.109158
 30
0.0
 40
0
 41
0
  0
VERTEX
  8
0
 10
0.0320637
 20
0.107585
 30
0.0
 40
0
 41
0
  0
VERTEX
  8
0
 10
0.0309244
 20
0.105686
 30
0.0
 40
0
 41
0
  0
VERTEX
  8
0
 10
0.0315213
 20
0.104601
 30
0.0
 40
0
 41
0
  0
VERTEX
  8
0
 10
0.0403646
 20
0.0912001
 30
0.0
 40
0
 41
0
  0
VERTEX
  8
0
 10
0.0411783
 20
0.0902235
 30
0.0
 40
0
 41
0
  0
VERTEX
  8
0
 10
0.0433485
 20
0.0904949
 30
0.0
 40
0
 41
0
  0
VERTEX
  8
0
 10
0.0451932
 20
0.0908203
 30
0.0
 40
0
 41
0
  0
VERTEX
  8
0
 10
0.0469293
 20
0.0910915
 30
0.0
 40
0
 41
0
  0
VERTEX
  8
0
 10
0.0486111
 20
0.0914171
 30
0.0
 40
0
 41
0
  0
VERTEX
  8
0
 10
0.0502387
 20
0.0917426
 30
0.0
 40
0
 41
0
  0
VERTEX
  8
0
 10
0.0518121
 20
0.0921224
 30
0.0
 40
0
 41
0
  0
VERTEX
  8
0
 10
0.0532769
 20
0.0924479
 30
0.0
 40
0
 41
0
  0
VERTEX
  8
0
 10
0.0546875
 20
0.0928276
 30
0.0
 40
0
 41
0
  0
VERTEX
  8
0
 10
0.0560439
 20
0.0932075
 30
0.0
 40
0
 41
0
  0
VERTEX
  8
0
 10
0.0572917
 20
0.0935872
 30
0.0
 40
0
 41
0
  0
VERTEX
  8
0
 10
0.0585394
 20
0.0940212
 30
0.0
 40
0
 41
0
  0
VERTEX
  8
0
 10
0.0596789
 20
0.0944011
 30
0.0
 40
0
 41
0
  0
VERTEX
  8
0
 10
0.0617404
 20
0.0951606
 30
0.0
 40
0
 41
0
  0
VERTEX
  8
0
 10
0.0626628
 20
0.0955404
 30
0.0
 40
0
 41
0
  0
VERTEX
  8
0
 10
0.0635308
 20
0.0959201
 30
0.0
 40
0
 41
0
  0
VERTEX
  8
0
 10
0.0643446
 20
0.0962999
 30
0.0
 40
0
 41
0
  0
VERTEX
  8
0
 10
0.0650499
 20
0.0966797
 30
0.0
 40
0
 41
0
  0
VERTEX
  8
0
 10
0.0657553
 20
0.0970053
 30
0.0
 40
0
 41
0
  0
VERTEX
  8
0
 10
0.0663519
 20
0.0973307
 30
0.0
 40
0
 41
0
  0
VERTEX
  8
0
 10
0.0668946
 20
0.0976019
 30
0.0
 40
0
 41
0
  0
VERTEX
  8
0
 10
0.0673828
 20
0.0978733
 30
0.0
 40
0
 41
0
  0
VERTEX
  8
0
 10
0.0678168
 20
0.0981446
 30
0.0
 40
0
 41
0
  0
VERTEX
  8
0
 10
0.0681424
 20
0.0983615
 30
0.0
 40
0
 41
0
  0
VERTEX
  8
0
 10
0.0684679
 20
0.0985243
 30
0.0
 40
0
 41
0
  0
VERTEX
  8
0
 10
0.0689019
 20
0.0988499
 30
0.0
 40
0
 41
0
  0
VERTEX
  8
0
 10
0.0690104
 20
0.0989583
 30
0.0
 40
0
 41
0
  0
VERTEX
  8
0
 10
0.0691189
 20
0.0990126
 30
0.0
 40
0
 41
0
  0
VERTEX
  8
0
 10
0.0825738
 20
0.109701
 30
0.0
 40
0
 41
0
  0
VERTEX
  8
0
 10
0.100206
 20
0.0907661
 30
0.0
 40
0
 41
0
  0
VERTEX
  8
0
 10
0.0885417
 20
0.078125
 30
0.0
 40
0
 41
0
  0
VERTEX
  8
0
 10
0.0884874
 20
0.0780165
 30
0.0
 40
0
 41
0
  0
VERTEX
  8
0
 10
0.0883789
 20
0.0779081
 30
0.0
 40
0
 41
0
  0
VERTEX
  8
0
 10
0.0880533
 20
0.077474
 30
0.0
 40
0
 41
0
  0
VERTEX
  8
0
 10
0.0878364
 20
0.0772026
 30
0.0
 40
0
 41
0
  0
VERTEX
  8
0
 10
0.0875651
 20
0.0768229
 30
0.0
 40
0
 41
0
  0
VERTEX
  8
0
 10
0.0873481
 20
0.0764432
 30
0.0
 40
0
 41
0
  0
VERTEX
  8
0
 10
0.0866971
 20
0.0754665
 30
0.0
 40
0
 41
0
  0
VERTEX
  8
0
 10
0.0863172
 20
0.0748699
 30
0.0
 40
0
 41
0
  0
VERTEX
  8
0
 10
0.0859375
 20
0.0742188
 30
0.0
 40
0
 41
0
  0
VERTEX
  8
0
 10
0.0855578
 20
0.0735135
 30
0.0
 40
0
 41
0
  0
VERTEX
  8
0
 10
0.0851238
 20
0.0727539
 30
0.0
 40
0
 41
0
  0
VERTEX
  8
0
 10
0.0837674
 20
0.0700413
 30
0.0
 40
0
 41
0
  0
VERTEX
  8
0
 10
0.083279
 20
0.0690104
 30
0.0
 40
0
 41
0
  0
VERTEX
  8
0
 10
0.082845
 20
0.0678711
 30
0.0
 40
0
 41
0
  0
VERTEX
  8
0
 10
0.0823568
 20
0.0667318
 30
0.0
 40
0
 41
0
  0
VERTEX
  8
0
 10
0.0818685
 20
0.0654839
 30
0.0
 40
0
 41
0
  0
VERTEX
  8
0
 10
0.0813803
 20
0.0641818
 30
0.0
 40
0
 41
0
  0
VERTEX
  8
0
 10
0.0808919
 20
0.0627712
 30
0.0
 40
0
 41
0
  0
VERTEX
  8
0
 10
0.0804579
 20
0.0613064
 30
0.0
 40
0
 41
0
  0
VERTEX
  8
0
 10
0.0799696
 20
0.0597874
 30
0.0
 40
0
 41
0
  0
VERTEX
  8
0
 10
0.0795356
 20
0.058214
 30
0.0
 40
0
 41
0
  0
VERTEX
  8
0
 10
0.0791015
 20
0.0565321
 30
0.0
 40
0
 41
0
  0
VERTEX
  8
0
 10
0.0786675
 20
0.054796
 30
0.0
 40
0
 41
0
  0
VERTEX
  8
0
 10
0.0782878
 20
0.0530057
 30
0.0
 40
0
 41
0
  0
VERTEX
  8
0
 10
0.0777994
 20
0.0508356
 30
0.0
 40
0
 41
0
  0
VERTEX
  8
0
 10
0.0787761
 20
0.0499675
 30
0.0
 40
0
 41
0
  0
VERTEX
  8
0
 10
0.0914171
 20
0.0402018
 30
0.0
 40
0
 41
0
  0
VERTEX
  8
0
 10
0.0925022
 20
0.0395508
 30
0.0
 40
0
 41
0
  0
VERTEX
  8
0
 10
0.0945096
 20
0.0405274
 30
0.0
 40
0
 41
0
  0
VERTEX
  8
0
 10
0.0961372
 20
0.0413954
 30
0.0
 40
0
 41
0
  0
VERTEX
  8
0
 10
0.0977106
 20
0.0422092
 30
0.0
 40
0
 41
0
  0
VERTEX
  8
0
 10
0.0991754
 20
0.0430772
 30
0.0
 40
0
 41
0
  0
VERTEX
  8
0
 10
0.100586
 20
0.0439453
 30
0.0
 40
0
 41
0
  0
VERTEX
  8
0
 10
0.101997
 20
0.0447592
 30
0.0
 40
0
 41
0
  0
VERTEX
  8
0
 10
0.104492
 20
0.0463867
 30
0.0
 40
0
 41
0
  0
VERTEX
  8
0
 10
0.105632
 20
0.0472006
 30
0.0
 40
0
 41
0
  0
VERTEX
  8
0
 10
0.106717
 20
0.0479601
 30
0.0
 40
0
 41
0
  0
VERTEX
  8
0
 10
0.10867
 20
0.0494792
 30
0.0
 40
0
 41
0
  0
VERTEX
  8
0
 10
0.109538
 20
0.0501844
 30
0.0
 40
0
 41
0
  0
VERTEX
  8
0
 10
0.110352
 20
0.0508897
 30
0.0
 40
0
 41
0
  0
VERTEX
  8
0
 10
0.111111
 20
0.0515408
 30
0.0
 40
0
 41
0
  0
VERTEX
  8
0
 10
0.111816
 20
0.0521918
 30
0.0
 40
0
 41
0
  0
VERTEX
  8
0
 10
0.112468
 20
0.0527886
 30
0.0
 40
0
 41
0
  0
VERTEX
  8
0
 10
0.113553
 20
0.0538738
 30
0.0
 40
0
 41
0
  0
VERTEX
  8
0
 10
0.114041
 20
0.0544162
 30
0.0
 40
0
 41
0
  0
VERTEX
  8
0
 10
0.114421
 20
0.0548503
 30
0.0
 40
0
 41
0
  0
VERTEX
  8
0
 10
0.114855
 20
0.0552843
 30
0.0
 40
0
 41
0
  0
VERTEX
  8
0
 10
0.115126
 20
0.055664
 30
0.0
 40
0
 41
0
  0
VERTEX
  8
0
 10
0.115397
 20
0.0559896
 30
0.0
 40
0
 41
0
  0
VERTEX
  8
0
 10
0.115668
 20
0.0562608
 30
0.0
 40
0
 41
0
  0
VERTEX
  8
0
 10
0.115831
 20
0.0564779
 30
0.0
 40
0
 41
0
  0
VERTEX
  8
0
 10
0.11594
 20
0.0566949
 30
0.0
 40
0
 41
0
  0
VERTEX
  8
0
 10
0.116048
 20
0.0568033
 30
0.0
 40
0
 41
0
  0
VERTEX
  8
0
 10
0.116102
 20
0.0569119
 30
0.0
 40
0
 41
0
  0
VERTEX
  8
0
 10
0.12538
 20
0.0713976
 30
0.0
 40
0
 41
0
  0
VERTEX
  8
0
 10
0.148221
 20
0.0591906
 30
0.0
 40
0
 41
0
  0
VERTEX
  8
0
 10
0.141276
 20
0.0434571
 30
0.0
 40
0
 41
0
  0
VERTEX
  8
0
 10
0.141276
 20
0.0433485
 30
0.0
 40
0
 41
0
  0
VERTEX
  8
0
 10
0.141222
 20
0.0431858
 30
0.0
 40
0
 41
0
  0
VERTEX
  8
0
 10
0.141114
 20
0.0429688
 30
0.0
 40
0
 41
0
  0
VERTEX
  8
0
 10
0.141004
 20
0.0426975
 30
0.0
 40
0
 41
0
  0
VERTEX
  8
0
 10
0.140896
 20
0.0423719
 30
0.0
 40
0
 41
0
  0
VERTEX
  8
0
 10
0.140787
 20
0.0419379
 30
0.0
 40
0
 41
0
  0
VERTEX
  8
0
 10
0.140625
 20
0.0414497
 30
0.0
 40
0
 41
0
  0
VERTEX
  8
0
 10
0.140517
 20
0.0409071
 30
0.0
 40
0
 41
0
  0
VERTEX
  8
0
 10
0.140354
 20
0.0403103
 30
0.0
 40
0
 41
0
  0
VERTEX
  8
0
 10
0.140192
 20
0.0396593
 30
0.0
 40
0
 41
0
  0
VERTEX
  8
0
 10
0.140082
 20
0.0388997
 30
0.0
 40
0
 41
0
  0
VERTEX
  8
0
 10
0.139919
 20
0.0381401
 30
0.0
 40
0
 41
0
  0
VERTEX
  8
0
 10
0.139757
 20
0.0372721
 30
0.0
 40
0
 41
0
  0
VERTEX
  8
0
 10
0.139649
 20
0.0363499
 30
0.0
 40
0
 41
0
  0
VERTEX
  8
0
 10
0.139486
 20
0.035319
 30
0.0
 40
0
 41
0
  0
VERTEX
  8
0
 10
0.139378
 20
0.0342339
 30
0.0
 40
0
 41
0
  0
VERTEX
  8
0
 10
0.139268
 20
0.0330946
 30
0.0
 40
0
 41
0
  0
VERTEX
  8
0
 10
0.13916
 20
0.0319011
 30
0.0
 40
0
 41
0
  0
VERTEX
  8
0
 10
0.139106
 20
0.0306532
 30
0.0
 40
0
 41
0
  0
VERTEX
  8
0
 10
0.139051
 20
0.0293511
 30
0.0
 40
0
 41
0
  0
VERTEX
  8
0
 10
0.138997
 20
0.0279406
 30
0.0
 40
0
 41
0
  0
VERTEX
  8
0
 10
0.138997
 20
0.0264757
 30
0.0
 40
0
 41
0
  0
VERTEX
  8
0
 10
0.139051
 20
0.0249567
 30
0.0
 40
0
 41
0
  0
VERTEX
  8
0
 10
0.139106
 20
0.023329
 30
0.0
 40
0
 41
0
  0
VERTEX
  8
0
 10
0.139214
 20
0.0217014
 30
0.0
 40
0
 41
0
  0
VERTEX
  8
0
 10
0.139324
 20
0.0199653
 30
0.0
 40
0
 41
0
  0
VERTEX
  8
0
 10
0.139486
 20
0.0182292
 30
0.0
 40
0
 41
0
  0
VERTEX
  8
0
 10
0.139703
 20
0.0163846
 30
0.0
 40
0
 41
0
  0
VERTEX
  8
0
 10
0.139974
 20
0.0141601
 30
0.0
 40
0
 41
0
  0
VERTEX
  8
0
 10
0.141114
 20
0.0136719
 30
0.0
 40
0
 41
0
  0
VERTEX
  8
0
 10
0.156304
 20
0.00857206
 30
0.0
 40
0
 41
0
  0
VERTEX
  8
0
 10
0.157553
 20
0.00824653
 30
0.0
 40
0
 41
0
  0
VERTEX
  8
0
 10
0.159125
 20
0.00981988
 30
0.0
 40
0
 41
0
  0
VERTEX
  8
0
 10
0.160374
 20
0.0111762
 30
0.0
 40
0
 41
0
  0
VERTEX
  8
0
 10
0.161567
 20
0.0124783
 30
0.0
 40
0
 41
0
  0
VERTEX
  8
0
 10
0.162706
 20
0.0137804
 30
0.0
 40
0
 41
0
  0
VERTEX
  8
0
 10
0.163792
 20
0.0150282
 30
0.0
 40
0
 41
0
  0
VERTEX
  8
0
 10
0.164822
 20
0.0162761
 30
0.0
 40
0
 41
0
  0
VERTEX
  8
0
 10
0.165744
 20
0.0174696
 30
0.0
 40
0
 41
0
  0
VERTEX
  8
0
 10
0.166613
 20
0.0186089
 30
0.0
 40
0
 41
0
  0
VERTEX
  8
0
 10
0.167426
 20
0.0197483
 30
0.0
 40
0
 41
0
  0
VERTEX
  8
0
 10
0.16824
 20
0.0208333
 30
0.0
 40
0
 41
0
  0
VERTEX
  8
0
 10
0.168946
 20
0.0218642
 30
0.0
 40
0
 41
0
  0
VERTEX
  8
0
 10
0.169596
 20
0.022895
 30
0.0
 40
0
 41
0
  0
VERTEX
  8
0
 10
0.170193
 20
0.0238715
 30
0.0
 40
0
 41
0
  0
VERTEX
  8
0
 10
0.170736
 20
0.0247939
 30
0.0
 40
0
 41
0
  0
VERTEX
  8
0
 10
0.171224
 20
0.0256619
 30
0.0
 40
0
 41
0
  0
VERTEX
  8
0
 10
0.171713
 20
0.0264757
 30
0.0
 40
0
 41
0
  0
VERTEX
  8
0
 10
0.172797
 20
0.0286458
 30
0.0
 40
0
 41
0
  0
VERTEX
  8
0
 10
0.173068
 20
0.0292969
 30
0.0
 40
0
 41
0
  0
VERTEX
  8
0
 10
0.17334
 20
0.0298394
 30
0.0
 40
0
 41
0
  0
VERTEX
  8
0
 10
0.173503
 20
0.0303819
 30
0.0
 40
0
 41
0
  0
VERTEX
  8
0
 10
0.173719
 20
0.030816
 30
0.0
 40
0
 41
0
  0
VERTEX
  8
0
 10
0.173882
 20
0.03125
 30
0.0
 40
0
 41
0
  0
VERTEX
  8
0
 10
0.17399
 20
0.0315756
 30
0.0
 40
0
 41
0
  0
VERTEX
  8
0
 10
0.1741
 20
0.0318468
 30
0.0
 40
0
 41
0
  0
VERTEX
  8
0
 10
0.174154
 20
0.0320637
 30
0.0
 40
0
 41
0
  0
VERTEX
  8
0
 10
0.174208
 20
0.0322265
 30
0.0
 40
0
 41
0
  0
VERTEX
  8
0
 10
0.174208
 20
0.0323351
 30
0.0
 40
0
 41
0
  0
VERTEX
  8
0
 10
0.178276
 20
0.0490451
 30
0.0
 40
0
 41
0
  0
VERTEX
  8
0
 10
0.203831
 20
0.0449219
 30
0.0
 40
0
 41
0
  0
VERTEX
  8
0
 10
0.202419
 20
0.0277778
 30
0.0
 40
0
 41
0
  0
VERTEX
  8
0
 10
0.202419
 20
0.0257161
 30
0.0
 40
0
 41
0
  0
VERTEX
  8
0
 10
0.202474
 20
0.0251736
 30
0.0
 40
0
 41
0
  0
VERTEX
  8
0
 10
0.202528
 20
0.0245226
 30
0.0
 40
0
 41
0
  0
VERTEX
  8
0
 10
0.202636
 20
0.0238715
 30
0.0
 40
0
 41
0
  0
VERTEX
  8
0
 10
0.202692
 20
0.0231119
 30
0.0
 40
0
 41
0
  0
VERTEX
  8
0
 10
0.2028
 20
0.0222982
 30
0.0
 40
0
 41
0
  0
VERTEX
  8
0
 10
0.202963
 20
0.0214301
 30
0.0
 40
0
 41
0
  0
VERTEX
  8
0
 10
0.203125
 20
0.0205078
 30
0.0
 40
0
 41
0
  0
VERTEX
  8
0
 10
0.203342
 20
0.0195313
 30
0.0
 40
0
 41
0
  0
VERTEX
  8
0
 10
0.20356
 20
0.0184463
 30
0.0
 40
0
 41
0
  0
VERTEX
  8
0
 10
0.203831
 20
0.0173611
 30
0.0
 40
0
 41
0
  0
VERTEX
  8
0
 10
0.204156
 20
0.0162218
 30
0.0
 40
0
 41
0
  0
VERTEX
  8
0
 10
0.204482
 20
0.014974
 30
0.0
 40
0
 41
0
  0
VERTEX
  8
0
 10
0.204861
 20
0.0137261
 30
0.0
 40
0
 41
0
  0
VERTEX
  8
0
 10
0.205296
 20
0.0123698
 30
0.0
 40
0
 41
0
  0
VERTEX
  8
0
 10
0.205783
 20
0.0110135
 30
0.0
 40
0
 41
0
  0
VERTEX
  8
0
 10
0.206868
 20
0.00808376
 30
0.0
 40
0
 41
0
  0
VERTEX
  8
0
 10
0.207519
 20
0.00656467
 30
0.0
 40
0
 41
0
  0
VERTEX
  8
0
 10
0.208171
 20
0.00493707
 30
0.0
 40
0
 41
0
  0
VERTEX
  8
0
 10
0.20969
 20
0.00168186
 30
0.0
 40
0
 41
0
  0
VERTEX
  8
0
 10
0.210667
 20
-0.000325521
 30
0.0
 40
0
 41
0
  0
VERTEX
  8
0
 10
0.211914
 20
-0.000434028
 30
0.0
 40
0
 41
0
  0
VERTEX
  8
0
 10
0.227919
 20
-0.000325521
 30
0.0
 40
0
 41
0
  0
VERTEX
  8
0
 10
0.229221
 20
-0.000217014
 30
0.0
 40
0
 41
0
  0
VERTEX
  8
0
 10
0.230143
 20
0.00179036
 30
0.0
 40
0
 41
0
  0
VERTEX
  8
0
 10
0.230957
 20
0.00347222
 30
0.0
 40
0
 41
0
  0
VERTEX
  8
0
 10
0.231663
 20
0.00509983
 30
0.0
 40
0
 41
0
  0
VERTEX
  8
0
 10
0.232314
 20
0.00667318
 30
0.0
 40
0
 41
0
  0
VERTEX
  8
0
 10
0.23291
 20
0.00819228
 30
0.0
 40
0
 41
0
  0
VERTEX
  8
0
 10
0.233453
 20
0.00971137
 30
0.0
 40
0
 41
0
  0
VERTEX
  8
0
 10
0.233996
 20
0.011122
 30
0.0
 40
0
 41
0
  0
VERTEX
  8
0
 10
0.234429
 20
0.0125326
 30
0.0
 40
0
 41
0
  0
VERTEX
  8
0
 10
0.234864
 20
0.0138889
 30
0.0
 40
0
 41
0
  0
VERTEX
  8
0
 10
0.235514
 20
0.0163846
 30
0.0
 40
0
 41
0
  0
VERTEX
  8
0
 10
0.23584
 20
0.0175239
 30
0.0
 40
0
 41
0
  0
VERTEX
  8
0
 10
0.236111
 20
0.0186632
 30
0.0
 40
0
 41
0
  0
VERTEX
  8
0
 10
0.236328
 20
0.019694
 30
0.0
 40
0
 41
0
  0
VERTEX
  8
0
 10
0.236654
 20
0.0216471
 30
0.0
 40
0
 41
0
  0
VERTEX
  8
0
 10
0.236817
 20
0.0225151
 30
0.0
 40
0
 41
0
  0
VERTEX
  8
0
 10
0.236925
 20
0.0232747
 30
0.0
 40
0
 41
0
  0
VERTEX
  8
0
 10
0.236979
 20
0.0240343
 30
0.0
 40
0
 41
0
  0
VERTEX
  8
0
 10
0.237087
 20
0.0247396
 30
0.0
 40
0
 41
0
  0
VERTEX
  8
0
 10
0.237142
 20
0.0253364
 30
0.0
 40
0
 41
0
  0
VERTEX
  8
0
 10
0.237142
 20
0.0263672
 30
0.0
 40
0
 41
0
  0
VERTEX
  8
0
 10
0.237196
 20
0.0268013
 30
0.0
 40
0
 41
0
  0
VERTEX
  8
0
 10
0.237196
 20
0.0275065
 30
0.0
 40
0
 41
0
  0
VERTEX
  8
0
 10
0.237142
 20
0.0277235
 30
0.0
 40
0
 41
0
  0
VERTEX
  8
0
 10
0.237142
 20
0.0279949
 30
0.0
 40
0
 41
0
  0
VERTEX
  8
0
 10
0.235568
 20
0.0451389
 30
0.0
 40
0
 41
0
  0
VERTEX
  8
0
 10
0.261068
 20
0.0495335
 30
0.0
 40
0
 41
0
  0
VERTEX
  8
0
 10
0.2653
 20
0.0328233
 30
0.0
 40
0
 41
0
  0
VERTEX
  8
0
 10
0.2653
 20
0.0327149
 30
0.0
 40
0
 41
0
  0
VERTEX
  8
0
 10
0.265354
 20
0.0325521
 30
0.0
 40
0
 41
0
  0
VERTEX
  8
0
 10
0.265463
 20
0.0323351
 30
0.0
 40
0
 41
0
  0
VERTEX
  8
0
 10
0.265571
 20
0.0320637
 30
0.0
 40
0
 41
0
  0
VERTEX
  8
0
 10
0.265679
 20
0.0317383
 30
0.0
 40
0
 41
0
  0
VERTEX
  8
0
 10
0.265787
 20
0.0313043
 30
0.0
 40
0
 41
0
  0
VERTEX
  8
0
 10
0.266004
 20
0.0308703
 30
0.0
 40
0
 41
0
  0
VERTEX
  8
0
 10
0.266222
 20
0.0303819
 30
0.0
 40
0
 41
0
  0
VERTEX
  8
0
 10
0.266764
 20
0.0291883
 30
0.0
 40
0
 41
0
  0
VERTEX
  8
0
 10
0.26709
 20
0.0284831
 30
0.0
 40
0
 41
0
  0
VERTEX
  8
0
 10
0.267469
 20
0.0277778
 30
0.0
 40
0
 41
0
  0
VERTEX
  8
0
 10
0.267904
 20
0.0270182
 30
0.0
 40
0
 41
0
  0
VERTEX
  8
0
 10
0.268337
 20
0.0262044
 30
0.0
 40
0
 41
0
  0
VERTEX
  8
0
 10
0.268881
 20
0.0252821
 30
0.0
 40
0
 41
0
  0
VERTEX
  8
0
 10
0.269422
 20
0.024414
 30
0.0
 40
0
 41
0
  0
VERTEX
  8
0
 10
0.270019
 20
0.0234375
 30
0.0
 40
0
 41
0
  0
VERTEX
  8
0
 10
0.270725
 20
0.022461
 30
0.0
 40
0
 41
0
  0
VERTEX
  8
0
 10
0.271431
 20
0.0213758
 30
0.0
 40
0
 41
0
  0
VERTEX
  8
0
 10
0.27219
 20
0.020345
 30
0.0
 40
0
 41
0
  0
VERTEX
  8
0
 10
0.273926
 20
0.0180664
 30
0.0
 40
0
 41
0
  0
VERTEX
  8
0
 10
0.274903
 20
0.0168728
 30
0.0
 40
0
 41
0
  0
VERTEX
  8
0
 10
0.275933
 20
0.015625
 30
0.0
 40
0
 41
0
  0
VERTEX
  8
0
 10
0.277018
 20
0.0143772
 30
0.0
 40
0
 41
0
  0
VERTEX
  8
0
 10
0.278157
 20
0.0131293
 30
0.0
 40
0
 41
0
  0
VERTEX
  8
0
 10
0.279406
 20
0.0118273
 30
0.0
 40
0
 41
0
  0
VERTEX
  8
0
 10
0.280653
 20
0.0104709
 30
0.0
 40
0
 41
0
  0
VERTEX
  8
0
 10
0.282226
 20
0.00895182
 30
0.0
 40
0
 41
0
  0
VERTEX
  8
0
 10
0.283475
 20
0.0092231
 30
0.0
 40
0
 41
0
  0
VERTEX
  8
0
 10
0.298557
 20
0.01454
 30
0.0
 40
0
 41
0
  0
VERTEX
  8
0
 10
0.29975
 20
0.0150282
 30
0.0
 40
0
 41
0
  0
VERTEX
  8
0
 10
0.299968
 20
0.0172526
 30
0.0
 40
0
 41
0
  0
VERTEX
  8
0
 10
0.300185
 20
0.0190972
 30
0.0
 40
0
 41
0
  0
VERTEX
  8
0
 10
0.300401
 20
0.0225694
 30
0.0
 40
0
 41
0
  0
VERTEX
  8
0
 10
0.30051
 20
0.0242513
 30
0.0
 40
0
 41
0
  0
VERTEX
  8
0
 10
0.300564
 20
0.0258247
 30
0.0
 40
0
 41
0
  0
VERTEX
  8
0
 10
0.300564
 20
0.0288086
 30
0.0
 40
0
 41
0
  0
VERTEX
  8
0
 10
0.30051
 20
0.0302192
 30
0.0
 40
0
 41
0
  0
VERTEX
  8
0
 10
0.300401
 20
0.0315213
 30
0.0
 40
0
 41
0
  0
VERTEX
  8
0
 10
0.300347
 20
0.0328233
 30
0.0
 40
0
 41
0
  0
VERTEX
  8
0
 10
0.300239
 20
0.0340169
 30
0.0
 40
0
 41
0
  0
VERTEX
  8
0
 10
0.300131
 20
0.0351563
 30
0.0
 40
0
 41
0
  0
VERTEX
  8
0
 10
0.299968
 20
0.0361871
 30
0.0
 40
0
 41
0
  0
VERTEX
  8
0
 10
0.299858
 20
0.0371636
 30
0.0
 40
0
 41
0
  0
VERTEX
  8
0
 10
0.299696
 20
0.0381401
 30
0.0
 40
0
 41
0
  0
VERTEX
  8
0
 10
0.299371
 20
0.0397678
 30
0.0
 40
0
 41
0
  0
VERTEX
  8
0
 10
0.299262
 20
0.0405274
 30
0.0
 40
0
 41
0
  0
VERTEX
  8
0
 10
0.2991
 20
0.0411783
 30
0.0
 40
0
 41
0
  0
VERTEX
  8
0
 10
0.298936
 20
0.0417751
 30
0.0
 40
0
 41
0
  0
VERTEX
  8
0
 10
0.298774
 20
0.0423178
 30
0.0
 40
0
 41
0
  0
VERTEX
  8
0
 10
0.298611
 20
0.042806
 30
0.0
 40
0
 41
0
  0
VERTEX
  8
0
 10
0.298503
 20
0.0431858
 30
0.0
 40
0
 41
0
  0
VERTEX
  8
0
 10
0.298286
 20
0.0438368
 30
0.0
 40
0
 41
0
  0
VERTEX
  8
0
 10
0.298178
 20
0.0440539
 30
0.0
 40
0
 41
0
  0
VERTEX
  8
0
 10
0.298122
 20
0.0442165
 30
0.0
 40
0
 41
0
  0
VERTEX
  8
0
 10
0.298068
 20
0.0442708
 30
0.0
 40
0
 41
0
  0
VERTEX
  8
0
 10
0.291015
 20
0.0599501
 30
0.0
 40
0
 41
0
  0
VERTEX
  8
0
 10
0.313693
 20
0.0724283
 30
0.0
 40
0
 41
0
  0
VERTEX
  8
0
 10
0.323133
 20
0.0579969
 30
0.0
 40
0
 41
0
  0
VERTEX
  8
0
 10
0.323188
 20
0.0579428
 30
0.0
 40
0
 41
0
  0
VERTEX
  8
0
 10
0.323406
 20
0.0576172
 30
0.0
 40
0
 41
0
  0
VERTEX
  8
0
 10
0.323839
 20
0.0570747
 30
0.0
 40
0
 41
0
  0
VERTEX
  8
0
 10
0.32411
 20
0.0567492
 30
0.0
 40
0
 41
0
  0
VERTEX
  8
0
 10
0.324436
 20
0.0563693
 30
0.0
 40
0
 41
0
  0
VERTEX
  8
0
 10
0.32525
 20
0.0555556
 30
0.0
 40
0
 41
0
  0
VERTEX
  8
0
 10
0.325738
 20
0.0550131
 30
0.0
 40
0
 41
0
  0
VERTEX
  8
0
 10
0.326281
 20
0.0545247
 30
0.0
 40
0
 41
0
  0
VERTEX
  8
0
 10
0.326824
 20
0.0539279
 30
0.0
 40
0
 41
0
  0
VERTEX
  8
0
 10
0.327474
 20
0.0533311
 30
0.0
 40
0
 41
0
  0
VERTEX
  8
0
 10
0.328179
 20
0.0527344
 30
0.0
 40
0
 41
0
  0
VERTEX
  8
0
 10
0.328939
 20
0.0520833
 30
0.0
 40
0
 41
0
  0
VERTEX
  8
0
 10
0.329753
 20
0.0513781
 30
0.0
 40
0
 41
0
  0
VERTEX
  8
0
 10
0.330675
 20
0.0506728
 30
0.0
 40
0
 41
0
  0
VERTEX
  8
0
 10
0.331651
 20
0.0499675
 30
0.0
 40
0
 41
0
  0
VERTEX
  8
0
 10
0.332628
 20
0.0492079
 30
0.0
 40
0
 41
0
  0
VERTEX
  8
0
 10
0.333768
 20
0.0483942
 30
0.0
 40
0
 41
0
  0
VERTEX
  8
0
 10
0.334907
 20
0.0476346
 30
0.0
 40
0
 41
0
  0
VERTEX
  8
0
 10
0.3361
 20
0.0468207
 30
0.0
 40
0
 41
0
  0
VERTEX
  8
0
 10
0.337403
 20
0.0460069
 30
0.0
 40
0
 41
0
  0
VERTEX
  8
0
 10
0.338758
 20
0.0451932
 30
0.0
 40
0
 41
0
  0
VERTEX
  8
0
 10
0.340224
 20
0.0443793
 30
0.0
 40
0
 41
0
  0
VERTEX
  8
0
 10
0.341743
 20
0.0435113
 30
0.0
 40
0
 41
0
  0
VERTEX
  8
0
 10
0.343261
 20
0.0426975
 30
0.0
 40
0
 41
0
  0
VERTEX
  8
0
 10
0.344943
 20
0.0418838
 30
0.0
 40
0
 41
0
  0
VERTEX
  8
0
 10
0.346951
 20
0.0409071
 30
0.0
 40
0
 41
0
  0
VERTEX
  8
0
 10
0.347982
 20
0.0416124
 30
0.0
 40
0
 41
0
  0
VERTEX
  8
0
 10
0.360568
 20
0.0514865
 30
0.0
 40
0
 41
0
  0
VERTEX
  8
0
 10
0.36149
 20
0.0524089
 30
0.0
 40
0
 41
0
  0
VERTEX
  8
0
 10
0.361003
 20
0.0545247
 30
0.0
 40
0
 41
0
  0
VERTEX
  8
0
 10
0.360622
 20
0.0563151
 30
0.0
 40
0
 41
0
  0
VERTEX
  8
0
 10
0.360135
 20
0.0580512
 30
0.0
 40
0
 41
0
  0
VERTEX
  8
0
 10
0.3597
 20
0.0597331
 30
0.0
 40
0
 41
0
  0
VERTEX
  8
0
 10
0.359213
 20
0.0613064
 30
0.0
 40
0
 41
0
  0
VERTEX
  8
0
 10
0.358724
 20
0.0628256
 30
0.0
 40
0
 41
0
  0
VERTEX
  8
0
 10
0.358236
 20
0.0642904
 30
0.0
 40
0
 41
0
  0
VERTEX
  8
0
 10
0.357747
 20
0.0656467
 30
0.0
 40
0
 41
0
  0
VERTEX
  8
0
 10
0.35726
 20
0.0669488
 30
0.0
 40
0
 41
0
  0
VERTEX
  8
0
 10
0.356771
 20
0.0681967
 30
0.0
 40
0
 41
0
  0
VERTEX
  8
0
 10
0.355794
 20
0.0704753
 30
0.0
 40
0
 41
0
  0
VERTEX
  8
0
 10
0.355306
 20
0.0715061
 30
0.0
 40
0
 41
0
  0
VERTEX
  8
0
 10
0.354872
 20
0.0724826
 30
0.0
 40
0
 41
0
  0
VERTEX
  8
0
 10
0.354438
 20
0.0733507
 30
0.0
 40
0
 41
0
  0
VERTEX
  8
0
 10
0.35395
 20
0.0742188
 30
0.0
 40
0
 41
0
  0
VERTEX
  8
0
 10
0.353515
 20
0.0749783
 30
0.0
 40
0
 41
0
  0
VERTEX
  8
0
 10
0.353136
 20
0.0756836
 30
0.0
 40
0
 41
0
  0
VERTEX
  8
0
 10
0.352756
 20
0.0763346
 30
0.0
 40
0
 41
0
  0
VERTEX
  8
0
 10
0.352376
 20
0.0768772
 30
0.0
 40
0
 41
0
  0
VERTEX
  8
0
 10
0.352051
 20
0.0774197
 30
0.0
 40
0
 41
0
  0
VERTEX
  8
0
 10
0.351725
 20
0.0778538
 30
0.0
 40
0
 41
0
  0
VERTEX
  8
0
 10
0.351454
 20
0.0782878
 30
0.0
 40
0
 41
0
  0
VERTEX
  8
0
 10
0.351183
 20
0.0786133
 30
0.0
 40
0
 41
0
  0
VERTEX
  8
0
 10
0.350965
 20
0.0788846
 30
0.0
 40
0
 41
0
  0
VERTEX
  8
0
 10
0.350749
 20
0.0791015
 30
0.0
 40
0
 41
0
  0
VERTEX
  8
0
 10
0.35064
 20
0.0793186
 30
0.0
 40
0
 41
0
  0
VERTEX
  8
0
 10
0.350532
 20
0.0794271
 30
0.0
 40
0
 41
0
  0
VERTEX
  8
0
 10
0.350424
 20
0.0794814
 30
0.0
 40
0
 41
0
  0
VERTEX
  8
0
 10
0.33865
 20
0.0920139
 30
0.0
 40
0
 41
0
  0
VERTEX
  8
0
 10
0.356065
 20
0.111165
 30
0.0
 40
0
 41
0
  0
VERTEX
  8
0
 10
0.369683
 20
0.10064
 30
0.0
 40
0
 41
0
  0
VERTEX
  8
0
 10
0.369737
 20
0.100586
 30
0.0
 40
0
 41
0
  0
VERTEX
  8
0
 10
0.3699
 20
0.100477
 30
0.0
 40
0
 41
0
  0
VERTEX
  8
0
 10
0.370063
 20
0.100315
 30
0.0
 40
0
 41
0
  0
VERTEX
  8
0
 10
0.370335
 20
0.100152
 30
0.0
 40
0
 41
0
  0
VERTEX
  8
0
 10
0.37066
 20
0.0999892
 30
0.0
 40
0
 41
0
  0
VERTEX
  8
0
 10
0.371039
 20
0.0997721
 30
0.0
 40
0
 41
0
  0
VERTEX
  8
0
 10
0.371419
 20
0.0995008
 30
0.0
 40
0
 41
0
  0
VERTEX
  8
0
 10
0.371907
 20
0.0992296
 30
0.0
 40
0
 41
0
  0
VERTEX
  8
0
 10
0.37245
 20
0.0989583
 30
0.0
 40
0
 41
0
  0
VERTEX
  8
0
 10
0.373047
 20
0.0986328
 30
0.0
 40
0
 41
0
  0
VERTEX
  8
0
 10
0.373753
 20
0.0983074
 30
0.0
 40
0
 41
0
  0
VERTEX
  8
0
 10
0.374511
 20
0.0979818
 30
0.0
 40
0
 41
0
  0
VERTEX
  8
0
 10
0.375271
 20
0.0976019
 30
0.0
 40
0
 41
0
  0
VERTEX
  8
0
 10
0.376139
 20
0.0972222
 30
0.0
 40
0
 41
0
  0
VERTEX
  8
0
 10
0.377115
 20
0.0968967
 30
0.0
 40
0
 41
0
  0
VERTEX
  8
0
 10
0.378093
 20
0.0965169
 30
0.0
 40
0
 41
0
  0
VERTEX
  8
0
 10
0.379178
 20
0.0961372
 30
0.0
 40
0
 41
0
  0
VERTEX
  8
0
 10
0.380317
 20
0.0957574
 30
0.0
 40
0
 41
0
  0
VERTEX
  8
0
 10
0.381511
 20
0.0953776
 30
0.0
 40
0
 41
0
  0
VERTEX
  8
0
 10
0.382813
 20
0.0949978
 30
0.0
 40
0
 41
0
  0
VERTEX
  8
0
 10
0.384169
 20
0.0946181
 30
0.0
 40
0
 41
0
  0
VERTEX
  8
0
 10
0.385579
 20
0.0942383
 30
0.0
 40
0
 41
0
  0
VERTEX
  8
0
 10
0.387044
 20
0.0939128
 30
0.0
 40
0
 41
0
  0
VERTEX
  8
0
 10
0.388618
 20
0.0935872
 30
0.0
 40
0
 41
0
  0
VERTEX
  8
0
 10
0.390246
 20
0.0932617
 30
0.0
 40
0
 41
0
  0
VERTEX
  8
0
 10
0.391928
 20
0.0929363
 30
0.0
 40
0
 41
0
  0
VERTEX
  8
0
 10
0.393718
 20
0.092665
 30
0.0
 40
0
 41
0
  0
VERTEX
  8
0
 10
0.395508
 20
0.0924479
 30
0.0
 40
0
 41
0
  0
VERTEX
  8
0
 10
0.397732
 20
0.0921767
 30
0.0
 40
0
 41
0
  0
VERTEX
  8
0
 10
0.398492
 20
0.0931532
 30
0.0
 40
0
 41
0
  0
VERTEX
  8
0
 10
0.407172
 20
0.106608
 30
0.0
 40
0
 41
0
  0
VERTEX
  8
0
 10
0.407769
 20
0.107747
 30
0.0
 40
0
 41
0
  0
VERTEX
  8
0
 10
0.406629
 20
0.109592
 30
0.0
 40
0
 41
0
  0
VERTEX
  8
0
 10
0.405653
 20
0.111165
 30
0.0
 40
0
 41
0
  0
VERTEX
  8
0
 10
0.404676
 20
0.112684
 30
0.0
 40
0
 41
0
  0
VERTEX
  8
0
 10
0.4037
 20
0.114095
 30
0.0
 40
0
 41
0
  0
VERTEX
  8
0
 10
0.402724
 20
0.115451
 30
0.0
 40
0
 41
0
  0
VERTEX
  8
0
 10
0.401801
 20
0.116753
 30
0.0
 40
0
 41
0
  0
VERTEX
  8
0
 10
0.400879
 20
0.117947
 30
0.0
 40
0
 41
0
  0
VERTEX
  8
0
 10
0.399957
 20
0.119086
 30
0.0
 40
0
 41
0
  0
VERTEX
  8
0
 10
0.399089
 20
0.120171
 30
0.0
 40
0
 41
0
  0
VERTEX
  8
0
 10
0.397353
 20
0.122125
 30
0.0
 40
0
 41
0
  0
VERTEX
  8
0
 10
0.396539
 20
0.122993
 30
0.0
 40
0
 41
0
  0
VERTEX
  8
0
 10
0.395779
 20
0.123806
 30
0.0
 40
0
 41
0
  0
VERTEX
  8
0
 10
0.394965
 20
0.124566
 30
0.0
 40
0
 41
0
  0
VERTEX
  8
0
 10
0.39426
 20
0.125271
 30
0.0
 40
0
 41
0
  0
VERTEX
  8
0
 10
0.393554
 20
0.125922
 30
0.0
 40
0
 41
0
  0
VERTEX
  8
0
 10
0.392904
 20
0.126519
 30
0.0
 40
0
 41
0
  0
VERTEX
  8
0
 10
0.392307
 20
0.127062
 30
0.0
 40
0
 41
0
  0
VERTEX
  8
0
 10
0.39171
 20
0.127496
 30
0.0
 40
0
 41
0
  0
VERTEX
  8
0
 10
0.391222
 20
0.127984
 30
0.0
 40
0
 41
0
  0
VERTEX
  8
0
 10
0.390733
 20
0.128309
 30
0.0
 40
0
 41
0
  0
VERTEX
  8
0
 10
0.390246
 20
0.128689
 30
0.0
 40
0
 41
0
  0
VERTEX
  8
0
 10
0.389486
 20
0.129232
 30
0.0
 40
0
 41
0
  0
VERTEX
  8
0
 10
0.388943
 20
0.129557
 30
0.0
 40
0
 41
0
  0
VERTEX
  8
0
 10
0.388618
 20
0.129774
 30
0.0
 40
0
 41
0
  0
VERTEX
  8
0
 10
0.38851
 20
0.129829
 30
0.0
 40
0
 41
0
  0
VERTEX
  8
0
 10
0.373318
 20
0.137858
 30
0.0
 40
0
 41
0
  0
VERTEX
  8
0
 10
0.383572
 20
0.161621
 30
0.0
 40
0
 41
0
  0
VERTEX
  8
0
 10
0.399849
 20
0.156033
 30
0.0
 40
0
 41
0
  0
VERTEX
  8
0
 10
0.399957
 20
0.155979
 30
0.0
 40
0
 41
0
  0
VERTEX
  8
0
 10
0.400119
 20
0.155925
 30
0.0
 40
0
 41
0
  0
VERTEX
  8
0
 10
0.400336
 20
0.155871
 30
0.0
 40
0
 41
0
  0
VERTEX
  8
0
 10
0.400608
 20
0.155817
 30
0.0
 40
0
 41
0
  0
VERTEX
  8
0
 10
0.400987
 20
0.155761
 30
0.0
 40
0
 41
0
  0
VERTEX
  8
0
 10
0.401367
 20
0.155653
 30
0.0
 40
0
 41
0
  0
VERTEX
  8
0
 10
0.401856
 20
0.155544
 30
0.0
 40
0
 41
0
  0
VERTEX
  8
0
 10
0.403049
 20
0.155328
 30
0.0
 40
0
 41
0
  0
VERTEX
  8
0
 10
0.4037
 20
0.155274
 30
0.0
 40
0
 41
0
  0
VERTEX
  8
0
 10
0.40446
 20
0.155165
 30
0.0
 40
0
 41
0
  0
VERTEX
  8
0
 10
0.405274
 20
0.155111
 30
0.0
 40
0
 41
0
  0
VERTEX
  8
0
 10
0.406142
 20
0.155003
 30
0.0
 40
0
 41
0
  0
VERTEX
  8
0
 10
0.407064
 20
0.154949
 30
0.0
 40
0
 41
0
  0
VERTEX
  8
0
 10
0.408094
 20
0.154893
 30
0.0
 40
0
 41
0
  0
VERTEX
  8
0
 10
0.409179
 20
0.154839
 30
0.0
 40
0
 41
0
  0
VERTEX
  8
0
 10
0.411513
 20
0.154839
 30
0.0
 40
0
 41
0
  0
VERTEX
  8
0
 10
0.412761
 20
0.154893
 30
0.0
 40
0
 41
0
  0
VERTEX
  8
0
 10
0.414117
 20
0.154949
 30
0.0
 40
0
 41
0
  0
VERTEX
  8
0
 10
0.416938
 20
0.155165
 30
0.0
 40
0
 41
0
  0
VERTEX
  8
0
 10
0.418457
 20
0.155328
 30
0.0
 40
0
 41
0
  0
VERTEX
  8
0
 10
0.420031
 20
0.15549
 30
0.0
 40
0
 41
0
  0
VERTEX
  8
0
 10
0.421713
 20
0.155761
 30
0.0
 40
0
 41
0
  0
VERTEX
  8
0
 10
0.423394
 20
0.155979
 30
0.0
 40
0
 41
0
  0
VERTEX
  8
0
 10
0.425131
 20
0.156304
 30
0.0
 40
0
 41
0
  0
VERTEX
  8
0
 10
0.426975
 20
0.156685
 30
0.0
 40
0
 41
0
  0
VERTEX
  8
0
 10
0.429144
 20
0.157118
 30
0.0
 40
0
 41
0
  0
VERTEX
  8
0
 10
0.429525
 20
0.158365
 30
0.0
 40
0
 41
0
  0
VERTEX
  8
0
 10
0.433376
 20
0.173882
 30
0.0
 40
0
 41
0
  0
VERTEX
  8
0
 10
0.433594
 20
0.175131
 30
0.0
 40
0
 41
0
  0
VERTEX
  8
0
 10
0.431913
 20
0.17654
 30
0.0
 40
0
 41
0
  0
VERTEX
  8
0
 10
0.430447
 20
0.177735
 30
0.0
 40
0
 41
0
  0
VERTEX
  8
0
 10
0.429036
 20
0.178765
 30
0.0
 40
0
 41
0
  0
VERTEX
  8
0
 10
0.427681
 20
0.17985
 30
0.0
 40
0
 41
0
  0
VERTEX
  8
0
 10
0.426324
 20
0.180772
 30
0.0
 40
0
 41
0
  0
VERTEX
  8
0
 10
0.425022
 20
0.181694
 30
0.0
 40
0
 41
0
  0
VERTEX
  8
0
 10
0.423719
 20
0.182508
 30
0.0
 40
0
 41
0
  0
VERTEX
  8
0
 10
0.422472
 20
0.183322
 30
0.0
 40
0
 41
0
  0
VERTEX
  8
0
 10
0.421278
 20
0.184082
 30
0.0
 40
0
 41
0
  0
VERTEX
  8
0
 10
0.420139
 20
0.184733
 30
0.0
 40
0
 41
0
  0
VERTEX
  8
0
 10
0.417969
 20
0.185926
 30
0.0
 40
0
 41
0
  0
VERTEX
  8
0
 10
0.416015
 20
0.186903
 30
0.0
 40
0
 41
0
  0
VERTEX
  8
0
 10
0.415093
 20
0.187338
 30
0.0
 40
0
 41
0
  0
VERTEX
  8
0
 10
0.414225
 20
0.187717
 30
0.0
 40
0
 41
0
  0
VERTEX
  8
0
 10
0.413411
 20
0.188043
 30
0.0
 40
0
 41
0
  0
VERTEX
  8
0
 10
0.412651
 20
0.188368
 30
0.0
 40
0
 41
0
  0
VERTEX
  8
0
 10
0.411947
 20
0.188639
 30
0.0
 40
0
 41
0
  0
VERTEX
  8
0
 10
0.410753
 20
0.189074
 30
0.0
 40
0
 41
0
  0
VERTEX
  8
0
 10
0.410211
 20
0.189236
 30
0.0
 40
0
 41
0
  0
VERTEX
  8
0
 10
0.409722
 20
0.189399
 30
0.0
 40
0
 41
0
  0
VERTEX
  8
0
 10
0.408962
 20
0.189615
 30
0.0
 40
0
 41
0
  0
VERTEX
  8
0
 10
0.408692
 20
0.189671
 30
0.0
 40
0
 41
0
  0
VERTEX
  8
0
 10
0.408475
 20
0.189725
 30
0.0
 40
0
 41
0
  0
VERTEX
  8
0
 10
0.408311
 20
0.189725
 30
0.0
 40
0
 41
0
  0
VERTEX
  8
0
 10
0.408203
 20
0.189779
 30
0.0
 40
0
 41
0
  0
VERTEX
  8
0
 10
0.391168
 20
0.192383
 30
0.0
 40
0
 41
0
  0
VERTEX
  8
0
 10
0.393175
 20
0.218207
 30
0.0
 40
0
 41
0
  0
VERTEX
  8
0
 10
0.410374
 20
0.218207
 30
0.0
 40
0
 41
0
  0
VERTEX
  8
0
 10
0.410482
 20
0.218261
 30
0.0
 40
0
 41
0
  0
VERTEX
  8
0
 10
0.411187
 20
0.218261
 30
0.0
 40
0
 41
0
  0
VERTEX
  8
0
 10
0.411567
 20
0.218317
 30
0.0
 40
0
 41
0
  0
VERTEX
  8
0
 10
0.412001
 20
0.218371
 30
0.0
 40
0
 41
0
  0
VERTEX
  8
0
 10
0.412489
 20
0.218425
 30
0.0
 40
0
 41
0
  0
VERTEX
  8
0
 10
0.413032
 20
0.218533
 30
0.0
 40
0
 41
0
  0
VERTEX
  8
0
 10
0.413629
 20
0.218642
 30
0.0
 40
0
 41
0
  0
VERTEX
  8
0
 10
0.414333
 20
0.21875
 30
0.0
 40
0
 41
0
  0
VERTEX
  8
0
 10
0.415039
 20
0.218912
 30
0.0
 40
0
 41
0
  0
VERTEX
  8
0
 10
0.415853
 20
0.219075
 30
0.0
 40
0
 41
0
  0
VERTEX
  8
0
 10
0.416667
 20
0.219293
 30
0.0
 40
0
 41
0
  0
VERTEX
  8
0
 10
0.417589
 20
0.219564
 30
0.0
 40
0
 41
0
  0
VERTEX
  8
0
 10
0.418565
 20
0.219835
 30
0.0
 40
0
 41
0
  0
VERTEX
  8
0
 10
0.419596
 20
0.220161
 30
0.0
 40
0
 41
0
  0
VERTEX
  8
0
 10
0.421767
 20
0.220921
 30
0.0
 40
0
 41
0
  0
VERTEX
  8
0
 10
0.423014
 20
0.221354
 30
0.0
 40
0
 41
0
  0
VERTEX
  8
0
 10
0.424208
 20
0.221843
 30
0.0
 40
0
 41
0
  0
VERTEX
  8
0
 10
0.42551
 20
0.222385
 30
0.0
 40
0
 41
0
  0
VERTEX
  8
0
 10
0.426867
 20
0.222982
 30
0.0
 40
0
 41
0
  0
VERTEX
  8
0
 10
0.428222
 20
0.223633
 30
0.0
 40
0
 41
0
  0
VERTEX
  8
0
 10
0.429688
 20
0.224283
 30
0.0
 40
0
 41
0
  0
VERTEX
  8
0
 10
0.431153
 20
0.225043
 30
0.0
 40
0
 41
0
  0
VERTEX
  8
0
 10
0.432671
 20
0.225857
 30
0.0
 40
0
 41
0
  0
VERTEX
  8
0
 10
0.434244
 20
0.226725
 30
0.0
 40
0
 41
0
  0
VERTEX
  8
0
 10
0.435872
 20
0.227647
 30
0.0
 40
0
 41
0
  0
VERTEX
  8
0
 10
0.437717
 20
0.228788
 30
0.0
 40
0
 41
0
  0
VERTEX
  8
0
 10
0.437717
 20
0.230035
 30
0.0
 40
0
 41
0
  0
VERTEX
  8
0
 10
0.436307
 20
0.245985
 30
0.0
 40
0
 41
0
  0
VERTEX
  8
0
 10
0.436089
 20
0.247233
 30
0.0
 40
0
 41
0
  0
VERTEX
  8
0
 10
0.434028
 20
0.248047
 30
0.0
 40
0
 41
0
  0
VERTEX
  8
0
 10
0.432292
 20
0.248643
 30
0.0
 40
0
 41
0
  0
VERTEX
  8
0
 10
0.43061
 20
0.24924
 30
0.0
 40
0
 41
0
  0
VERTEX
  8
0
 10
0.428982
 20
0.249783
 30
0.0
 40
0
 41
0
  0
VERTEX
  8
0
 10
0.427408
 20
0.250271
 30
0.0
 40
0
 41
0
  0
VERTEX
  8
0
 10
0.425836
 20
0.250651
 30
0.0
 40
0
 41
0
  0
VERTEX
  8
0
 10
0.424371
 20
0.251085
 30
0.0
 40
0
 41
0
  0
VERTEX
  8
0
 10
0.42296
 20
0.251411
 30
0.0
 40
0
 41
0
  0
VERTEX
  8
0
 10
0.421604
 20
0.251736
 30
0.0
 40
0
 41
0
  0
VERTEX
  8
0
 10
0.420301
 20
0.251953
 30
0.0
 40
0
 41
0
  0
VERTEX
  8
0
 10
0.419054
 20
0.252225
 30
0.0
 40
0
 41
0
  0
VERTEX
  8
0
 10
0.41786
 20
0.252387
 30
0.0
 40
0
 41
0
  0
VERTEX
  8
0
 10
0.416721
 20
0.25255
 30
0.0
 40
0
 41
0
  0
VERTEX
  8
0
 10
0.41569
 20
0.252712
 30
0.0
 40
0
 41
0
  0
VERTEX
  8
0
 10
0.41466
 20
0.252767
 30
0.0
 40
0
 41
0
  0
VERTEX
  8
0
 10
0.413738
 20
0.252875
 30
0.0
 40
0
 41
0
  0
VERTEX
  8
0
 10
0.412869
 20
0.252929
 30
0.0
 40
0
 41
0
  0
VERTEX
  8
0
 10
0.412056
 20
0.252983
 30
0.0
 40
0
 41
0
  0
VERTEX
  8
0
 10
0.411296
 20
0.253039
 30
0.0
 40
0
 41
0
  0
VERTEX
  8
0
 10
0.409451
 20
0.253039
 30
0.0
 40
0
 41
0
  0
VERTEX
  8
0
 10
0.408962
 20
0.252983
 30
0.0
 40
0
 41
0
  0
VERTEX
  8
0
 10
0.408529
 20
0.252983
 30
0.0
 40
0
 41
0
  0
VERTEX
  8
0
 10
0.408149
 20
0.252929
 30
0.0
 40
0
 41
0
  0
VERTEX
  8
0
 10
0.407824
 20
0.252929
 30
0.0
 40
0
 41
0
  0
VERTEX
  8
0
 10
0.407607
 20
0.252875
 30
0.0
 40
0
 41
0
  0
VERTEX
  8
0
 10
0.407335
 20
0.252875
 30
0.0
 40
0
 41
0
  0
VERTEX
  8
0
 10
0.390408
 20
0.249838
 30
0.0
 40
0
 41
0
  0
VERTEX
  8
0
 10
0.383897
 20
0.274903
 30
0.0
 40
0
 41
0
  0
VERTEX
  8
0
 10
0.400174
 20
0.28049
 30
0.0
 40
0
 41
0
  0
VERTEX
  8
0
 10
0.400282
 20
0.280544
 30
0.0
 40
0
 41
0
  0
VERTEX
  8
0
 10
0.400444
 20
0.280599
 30
0.0
 40
0
 41
0
  0
VERTEX
  8
0
 10
0.400663
 20
0.280707
 30
0.0
 40
0
 41
0
  0
VERTEX
  8
0
 10
0.400933
 20
0.280817
 30
0.0
 40
0
 41
0
  0
VERTEX
  8
0
 10
0.401258
 20
0.280925
 30
0.0
 40
0
 41
0
  0
VERTEX
  8
0
 10
0.401639
 20
0.281142
 30
0.0
 40
0
 41
0
  0
VERTEX
  8
0
 10
0.402072
 20
0.281358
 30
0.0
 40
0
 41
0
  0
VERTEX
  8
0
 10
0.402561
 20
0.281629
 30
0.0
 40
0
 41
0
  0
VERTEX
  8
0
 10
0.403103
 20
0.281901
 30
0.0
 40
0
 41
0
  0
VERTEX
  8
0
 10
0.4037
 20
0.282226
 30
0.0
 40
0
 41
0
  0
VERTEX
  8
0
 10
0.404351
 20
0.282661
 30
0.0
 40
0
 41
0
  0
VERTEX
  8
0
 10
0.405761
 20
0.283529
 30
0.0
 40
0
 41
0
  0
VERTEX
  8
0
 10
0.406575
 20
0.284071
 30
0.0
 40
0
 41
0
  0
VERTEX
  8
0
 10
0.407389
 20
0.284668
 30
0.0
 40
0
 41
0
  0
VERTEX
  8
0
 10
0.408257
 20
0.285319
 30
0.0
 40
0
 41
0
  0
VERTEX
  8
0
 10
0.409179
 20
0.285969
 30
0.0
 40
0
 41
0
  0
VERTEX
  8
0
 10
0.410101
 20
0.286729
 30
0.0
 40
0
 41
0
  0
VERTEX
  8
0
 10
0.411079
 20
0.287543
 30
0.0
 40
0
 41
0
  0
VERTEX
  8
0
 10
0.41211
 20
0.288411
 30
0.0
 40
0
 41
0
  0
VERTEX
  8
0
 10
0.41314
 20
0.289333
 30
0.0
 40
0
 41
0
  0
VERTEX
  8
0
 10
0.414225
 20
0.29031
 30
0.0
 40
0
 41
0
  0
VERTEX
  8
0
 10
0.41531
 20
0.291396
 30
0.0
 40
0
 41
0
  0
VERTEX
  8
0
 10
0.41645
 20
0.292481
 30
0.0
 40
0
 41
0
  0
VERTEX
  8
0
 10
0.417589
 20
0.293674
 30
0.0
 40
0
 41
0
  0
VERTEX
  8
0
 10
0.418782
 20
0.294922
 30
0.0
 40
0
 41
0
  0
VERTEX
  8
0
 10
0.421169
 20
0.297635
 30
0.0
 40
0
 41
0
  0
VERTEX
  8
0
 10
0.422581
 20
0.299317
 30
0.0
 40
0
 41
0
  0
VERTEX
  8
0
 10
0.4222
 20
0.300564
 30
0.0
 40
0
 41
0
  0
VERTEX
  8
0
 10
0.41569
 20
0.315158
 30
0.0
 40
0
 41
0
  0
VERTEX
  8
0
 10
0.415039
 20
0.316297
 30
0.0
 40
0
 41
0
  0
VERTEX
  8
0
 10
0.412869
 20
0.316351
 30
0.0
 40
0
 41
0
  0
VERTEX
  8
0
 10
0.411025
 20
0.316407
 30
0.0
 40
0
 41
0
  0
VERTEX
  8
0
 10
0.409233
 20
0.316407
 30
0.0
 40
0
 41
0
  0
VERTEX
  8
0
 10
0.407497
 20
0.316351
 30
0.0
 40
0
 41
0
  0
VERTEX
  8
0
 10
0.405871
 20
0.316297
 30
0.0
 40
0
 41
0
  0
VERTEX
  8
0
 10
0.402724
 20
0.316081
 30
0.0
 40
0
 41
0
  0
VERTEX
  8
0
 10
0.401258
 20
0.315918
 30
0.0
 40
0
 41
0
  0
VERTEX
  8
0
 10
0.399903
 20
0.315756
 30
0.0
 40
0
 41
0
  0
VERTEX
  8
0
 10
0.3986
 20
0.315593
 30
0.0
 40
0
 41
0
  0
VERTEX
  8
0
 10
0.397353
 20
0.315429
 30
0.0
 40
0
 41
0
  0
VERTEX
  8
0
 10
0.396158
 20
0.315212
 30
0.0
 40
0
 41
0
  0
VERTEX
  8
0
 10
0.395019
 20
0.314996
 30
0.0
 40
0
 41
0
  0
VERTEX
  8
0
 10
0.392958
 20
0.314561
 30
0.0
 40
0
 41
0
  0
VERTEX
  8
0
 10
0.391222
 20
0.314128
 30
0.0
 40
0
 41
0
  0
VERTEX
  8
0
 10
0.390463
 20
0.313911
 30
0.0
 40
0
 41
0
  0
VERTEX
  8
0
 10
0.389703
 20
0.313639
 30
0.0
 40
0
 41
0
  0
VERTEX
  8
0
 10
0.389051
 20
0.313476
 30
0.0
 40
0
 41
0
  0
VERTEX
  8
0
 10
0.38851
 20
0.31326
 30
0.0
 40
0
 41
0
  0
VERTEX
  8
0
 10
0.387967
 20
0.313097
 30
0.0
 40
0
 41
0
  0
VERTEX
  8
0
 10
0.387532
 20
0.312879
 30
0.0
 40
0
 41
0
  0
VERTEX
  8
0
 10
0.387099
 20
0.312717
 30
0.0
 40
0
 41
0
  0
VERTEX
  8
0
 10
0.386774
 20
0.312608
 30
0.0
 40
0
 41
0
  0
VERTEX
  8
0
 10
0.386501
 20
0.312446
 30
0.0
 40
0
 41
0
  0
VERTEX
  8
0
 10
0.386285
 20
0.312338
 30
0.0
 40
0
 41
0
  0
VERTEX
  8
0
 10
0.386122
 20
0.312283
 30
0.0
 40
0
 41
0
  0
VERTEX
  8
0
 10
0.386068
 20
0.312229
 30
0.0
 40
0
 41
0
  0
VERTEX
  8
0
 10
0.370985
 20
0.303874
 30
0.0
 40
0
 41
0
  0
VERTEX
  8
0
 10
0.356717
 20
0.325467
 30
0.0
 40
0
 41
0
  0
VERTEX
  8
0
 10
0.370281
 20
0.336046
 30
0.0
 40
0
 41
0
  0
VERTEX
  8
0
 10
0.370389
 20
0.3361
 30
0.0
 40
0
 41
0
  0
VERTEX
  8
0
 10
0.37066
 20
0.336372
 30
0.0
 40
0
 41
0
  0
VERTEX
  8
0
 10
0.370931
 20
0.336589
 30
0.0
 40
0
 41
0
  0
VERTEX
  8
0
 10
0.371149
 20
0.33686
 30
0.0
 40
0
 41
0
  0
VERTEX
  8
0
 10
0.371474
 20
0.337131
 30
0.0
 40
0
 41
0
  0
VERTEX
  8
0
 10
0.371799
 20
0.337511
 30
0.0
 40
0
 41
0
  0
VERTEX
  8
0
 10
0.372179
 20
0.33789
 30
0.0
 40
0
 41
0
  0
VERTEX
  8
0
 10
0.373047
 20
0.338867
 30
0.0
 40
0
 41
0
  0
VERTEX
  8
0
 10
0.373535
 20
0.339464
 30
0.0
 40
0
 41
0
  0
VERTEX
  8
0
 10
0.374078
 20
0.340061
 30
0.0
 40
0
 41
0
  0
VERTEX
  8
0
 10
0.374567
 20
0.340767
 30
0.0
 40
0
 41
0
  0
VERTEX
  8
0
 10
0.375162
 20
0.341525
 30
0.0
 40
0
 41
0
  0
VERTEX
  8
0
 10
0.37576
 20
0.342339
 30
0.0
 40
0
 41
0
  0
VERTEX
  8
0
 10
0.376357
 20
0.343207
 30
0.0
 40
0
 41
0
  0
VERTEX
  8
0
 10
0.377658
 20
0.345161
 30
0.0
 40
0
 41
0
  0
VERTEX
  8
0
 10
0.37831
 20
0.346246
 30
0.0
 40
0
 41
0
  0
VERTEX
  8
0
 10
0.378961
 20
0.347439
 30
0.0
 40
0
 41
0
  0
VERTEX
  8
0
 10
0.379665
 20
0.348633
 30
0.0
 40
0
 41
0
  0
VERTEX
  8
0
 10
0.381076
 20
0.351238
 30
0.0
 40
0
 41
0
  0
VERTEX
  8
0
 10
0.382488
 20
0.354167
 30
0.0
 40
0
 41
0
  0
VERTEX
  8
0
 10
0.383192
 20
0.35574
 30
0.0
 40
0
 41
0
  0
VERTEX
  8
0
 10
0.384603
 20
0.359104
 30
0.0
 40
0
 41
0
  0
VERTEX
  8
0
 10
0.385417
 20
0.361165
 30
0.0
 40
0
 41
0
  0
VERTEX
  8
0
 10
0.384603
 20
0.362142
 30
0.0
 40
0
 41
0
  0
VERTEX
  8
0
 10
0.373699
 20
0.373861
 30
0.0
 40
0
 41
0
  0
VERTEX
  8
0
 10
0.372775
 20
0.374729
 30
0.0
 40
0
 41
0
  0
VERTEX
  8
0
 10
0.37066
 20
0.374132
 30
0.0
 40
0
 41
0
  0
VERTEX
  8
0
 10
0.368869
 20
0.373535
 30
0.0
 40
0
 41
0
  0
VERTEX
  8
0
 10
0.367188
 20
0.372939
 30
0.0
 40
0
 41
0
  0
VERTEX
  8
0
 10
0.36404
 20
0.371744
 30
0.0
 40
0
 41
0
  0
VERTEX
  8
0
 10
0.362576
 20
0.371149
 30
0.0
 40
0
 41
0
  0
VERTEX
  8
0
 10
0.361165
 20
0.370551
 30
0.0
 40
0
 41
0
  0
VERTEX
  8
0
 10
0.358561
 20
0.369358
 30
0.0
 40
0
 41
0
  0
VERTEX
  8
0
 10
0.356282
 20
0.368164
 30
0.0
 40
0
 41
0
  0
VERTEX
  8
0
 10
0.355197
 20
0.367622
 30
0.0
 40
0
 41
0
  0
VERTEX
  8
0
 10
0.354221
 20
0.367025
 30
0.0
 40
0
 41
0
  0
VERTEX
  8
0
 10
0.353299
 20
0.366482
 30
0.0
 40
0
 41
0
  0
VERTEX
  8
0
 10
0.352431
 20
0.36594
 30
0.0
 40
0
 41
0
  0
VERTEX
  8
0
 10
0.351617
 20
0.365451
 30
0.0
 40
0
 41
0
  0
VERTEX
  8
0
 10
0.350911
 20
0.364963
 30
0.0
 40
0
 41
0
  0
VERTEX
  8
0
 10
0.350261
 20
0.364475
 30
0.0
 40
0
 41
0
  0
VERTEX
  8
0
 10
0.34961
 20
0.36404
 30
0.0
 40
0
 41
0
  0
VERTEX
  8
0
 10
0.349121
 20
0.363607
 30
0.0
 40
0
 41
0
  0
VERTEX
  8
0
 10
0.348633
 20
0.363226
 30
0.0
 40
0
 41
0
  0
VERTEX
  8
0
 10
0.348144
 20
0.362901
 30
0.0
 40
0
 41
0
  0
VERTEX
  8
0
 10
0.347819
 20
0.362576
 30
0.0
 40
0
 41
0
  0
VERTEX
  8
0
 10
0.347493
 20
0.362304
 30
0.0
 40
0
 41
0
  0
VERTEX
  8
0
 10
0.347222
 20
0.362087
 30
0.0
 40
0
 41
0
  0
VERTEX
  8
0
 10
0.346843
 20
0.361708
 30
0.0
 40
0
 41
0
  0
VERTEX
  8
0
 10
0.346679
 20
0.3616
 30
0.0
 40
0
 41
0
  0
VERTEX
  8
0
 10
0.346625
 20
0.36149
 30
0.0
 40
0
 41
0
  0
VERTEX
  8
0
 10
0.335124
 20
0.348742
 30
0.0
 40
0
 41
0
  0
VERTEX
  8
0
 10
0.314615
 20
0.364529
 30
0.0
 40
0
 41
0
  0
VERTEX
  8
0
 10
0.324001
 20
0.378907
 30
0.0
 40
0
 41
0
  0
VERTEX
  8
0
 10
0.324056
 20
0.379015
 30
0.0
 40
0
 41
0
  0
VERTEX
  8
0
 10
0.324274
 20
0.37934
 30
0.0
 40
0
 41
0
  0
VERTEX
  8
0
 10
0.324382
 20
0.379611
 30
0.0
 40
0
 41
0
  0
VERTEX
  8
0
 10
0.324544
 20
0.379937
 30
0.0
 40
0
 41
0
  0
VERTEX
  8
0
 10
0.324761
 20
0.380317
 30
0.0
 40
0
 41
0
  0
VERTEX
  8
0
 10
0.324978
 20
0.380751
 30
0.0
 40
0
 41
0
  0
VERTEX
  8
0
 10
0.325413
 20
0.381836
 30
0.0
 40
0
 41
0
  0
VERTEX
  8
0
 10
0.325956
 20
0.383137
 30
0.0
 40
0
 41
0
  0
VERTEX
  8
0
 10
0.326226
 20
0.383951
 30
0.0
 40
0
 41
0
  0
VERTEX
  8
0
 10
0.326551
 20
0.384765
 30
0.0
 40
0
 41
0
  0
VERTEX
  8
0
 10
0.326824
 20
0.385688
 30
0.0
 40
0
 41
0
  0
VERTEX
  8
0
 10
0.327149
 20
0.38661
 30
0.0
 40
0
 41
0
  0
VERTEX
  8
0
 10
0.327419
 20
0.387642
 30
0.0
 40
0
 41
0
  0
VERTEX
  8
0
 10
0.327963
 20
0.389919
 30
0.0
 40
0
 41
0
  0
VERTEX
  8
0
 10
0.328287
 20
0.391168
 30
0.0
 40
0
 41
0
  0
VERTEX
  8
0
 10
0.328504
 20
0.392469
 30
0.0
 40
0
 41
0
  0
VERTEX
  8
0
 10
0.328776
 20
0.393826
 30
0.0
 40
0
 41
0
  0
VERTEX
  8
0
 10
0.329047
 20
0.39529
 30
0.0
 40
0
 41
0
  0
VERTEX
  8
0
 10
0.329264
 20
0.39681
 30
0.0
 40
0
 41
0
  0
VERTEX
  8
0
 10
0.329482
 20
0.398383
 30
0.0
 40
0
 41
0
  0
VERTEX
  8
0
 10
0.329644
 20
0.400011
 30
0.0
 40
0
 41
0
  0
VERTEX
  8
0
 10
0.329807
 20
0.401747
 30
0.0
 40
0
 41
0
  0
VERTEX
  8
0
 10
0.329915
 20
0.403483
 30
0.0
 40
0
 41
0
  0
VERTEX
  8
0
 10
0.330024
 20
0.405382
 30
0.0
 40
0
 41
0
  0
VERTEX
  8
0
 10
0.330132
 20
0.407553
 30
0.0
 40
0
 41
0
  0
VERTEX
  8
0
 10
0.329047
 20
0.408257
 30
0.0
 40
0
 41
0
  0
VERTEX
  8
0
 10
0.314942
 20
0.415799
 30
0.0
 40
0
 41
0
  0
VERTEX
  8
0
 10
0.313747
 20
0.416288
 30
0.0
 40
0
 41
0
  0
VERTEX
  8
0
 10
0.312011
 20
0.414985
 30
0.0
 40
0
 41
0
  0
VERTEX
  8
0
 10
0.310493
 20
0.4139
 30
0.0
 40
0
 41
0
  0
VERTEX
  8
0
 10
0.309082
 20
0.412761
 30
0.0
 40
0
 41
0
  0
VERTEX
  8
0
 10
0.307781
 20
0.411729
 30
0.0
 40
0
 41
0
  0
VERTEX
  8
0
 10
0.306478
 20
0.410644
 30
0.0
 40
0
 41
0
  0
VERTEX
  8
0
 10
0.305285
 20
0.409614
 30
0.0
 40
0
 41
0
  0
VERTEX
  8
0
 10
0.303114
 20
0.407553
 30
0.0
 40
0
 41
0
  0
VERTEX
  8
0
 10
0.302083
 20
0.406575
 30
0.0
 40
0
 41
0
  0
VERTEX
  8
0
 10
0.301161
 20
0.405653
 30
0.0
 40
0
 41
0
  0
VERTEX
  8
0
 10
0.300293
 20
0.404731
 30
0.0
 40
0
 41
0
  0
VERTEX
  8
0
 10
0.299479
 20
0.403808
 30
0.0
 40
0
 41
0
  0
VERTEX
  8
0
 10
0.298719
 20
0.402994
 30
0.0
 40
0
 41
0
  0
VERTEX
  8
0
 10
0.298014
 20
0.402181
 30
0.0
 40
0
 41
0
  0
VERTEX
  8
0
 10
0.297418
 20
0.401367
 30
0.0
 40
0
 41
0
  0
VERTEX
  8
0
 10
0.296821
 20
0.400663
 30
0.0
 40
0
 41
0
  0
VERTEX
  8
0
 10
0.296278
 20
0.399957
 30
0.0
 40
0
 41
0
  0
VERTEX
  8
0
 10
0.29579
 20
0.399306
 30
0.0
 40
0
 41
0
  0
VERTEX
  8
0
 10
0.295356
 20
0.398654
 30
0.0
 40
0
 41
0
  0
VERTEX
  8
0
 10
0.294976
 20
0.398113
 30
0.0
 40
0
 41
0
  0
VERTEX
  8
0
 10
0.29465
 20
0.397569
 30
0.0
 40
0
 41
0
  0
VERTEX
  8
0
 10
0.294325
 20
0.397136
 30
0.0
 40
0
 41
0
  0
VERTEX
  8
0
 10
0.294108
 20
0.396701
 30
0.0
 40
0
 41
0
  0
VERTEX
  8
0
 10
0.293892
 20
0.396322
 30
0.0
 40
0
 41
0
  0
VERTEX
  8
0
 10
0.293728
 20
0.395996
 30
0.0
 40
0
 41
0
  0
VERTEX
  8
0
 10
0.293565
 20
0.395725
 30
0.0
 40
0
 41
0
  0
VERTEX
  8
0
 10
0.293349
 20
0.39529
 30
0.0
 40
0
 41
0
  0
VERTEX
  8
0
 10
0.286621
 20
0.379449
 30
0.0
 40
0
 41
0
  0
VERTEX
  8
0
 10
0.262099
 20
0.387696
 30
0.0
 40
0
 41
0
  0
VERTEX
  8
0
 10
0.266276
 20
0.404406
 30
0.0
 40
0
 41
0
  0
VERTEX
  8
0
 10
0.266331
 20
0.404514
 30
0.0
 40
0
 41
0
  0
VERTEX
  8
0
 10
0.266331
 20
0.404676
 30
0.0
 40
0
 41
0
  0
VERTEX
  8
0
 10
0.266385
 20
0.404893
 30
0.0
 40
0
 41
0
  0
VERTEX
  8
0
 10
0.266493
 20
0.405544
 30
0.0
 40
0
 41
0
  0
VERTEX
  8
0
 10
0.266547
 20
0.405979
 30
0.0
 40
0
 41
0
  0
VERTEX
  8
0
 10
0.266601
 20
0.406467
 30
0.0
 40
0
 41
0
  0
VERTEX
  8
0
 10
0.266656
 20
0.40701
 30
0.0
 40
0
 41
0
  0
VERTEX
  8
0
 10
0.266764
 20
0.408311
 30
0.0
 40
0
 41
0
  0
VERTEX
  8
0
 10
0.266764
 20
0.412706
 30
0.0
 40
0
 41
0
  0
VERTEX
  8
0
 10
0.26671
 20
0.413792
 30
0.0
 40
0
 41
0
  0
VERTEX
  8
0
 10
0.266601
 20
0.414931
 30
0.0
 40
0
 41
0
  0
VERTEX
  8
0
 10
0.266493
 20
0.416124
 30
0.0
 40
0
 41
0
  0
VERTEX
  8
0
 10
0.266331
 20
0.417372
 30
0.0
 40
0
 41
0
  0
VERTEX
  8
0
 10
0.266168
 20
0.418728
 30
0.0
 40
0
 41
0
  0
VERTEX
  8
0
 10
0.26595
 20
0.420085
 30
0.0
 40
0
 41
0
  0
VERTEX
  8
0
 10
0.265733
 20
0.42155
 30
0.0
 40
0
 41
0
  0
VERTEX
  8
0
 10
0.265463
 20
0.423014
 30
0.0
 40
0
 41
0
  0
VERTEX
  8
0
 10
0.265136
 20
0.424587
 30
0.0
 40
0
 41
0
  0
VERTEX
  8
0
 10
0.264811
 20
0.426215
 30
0.0
 40
0
 41
0
  0
VERTEX
  8
0
 10
0.264378
 20
0.427897
 30
0.0
 40
0
 41
0
  0
VERTEX
  8
0
 10
0.2634
 20
0.431369
 30
0.0
 40
0
 41
0
  0
VERTEX
  8
0
 10
0.26275
 20
0.433485
 30
0.0
 40
0
 41
0
  0
VERTEX
  8
0
 10
0.261556
 20
0.433811
 30
0.0
 40
0
 41
0
  0
VERTEX
  8
0
 10
0.245768
 20
0.436361
 30
0.0
 40
0
 41
0
  0
VERTEX
  8
0
 10
0.244467
 20
0.436469
 30
0.0
 40
0
 41
0
  0
SEQEND
 8
0
  0
POLYLINE
  8
0
 62
     0
 66
     1
 10
0
 20
0
 30
0.0
 70
     1
 40
0
 41
0
  0
VERTEX
  8
0
 10
0.245008
 20
0.435385
 30
0.0
 40
0
 41
0
  0
VERTEX
  8
0
 10
0.245606
 20
0.435331
 30
0.0
 40
0
 41
0
  0
VERTEX
  8
0
 10
0.261339
 20
0.432781
 30
0.0
 40
0
 41
0
  0
VERTEX
  8
0
 10
0.26199
 20
0.432617
 30
0.0
 40
0
 41
0
  0
VERTEX
  8
0
 10
0.262424
 20
0.431099
 30
0.0
 40
0
 41
0
  0
VERTEX
  8
0
 10
0.262913
 20
0.429308
 30
0.0
 40
0
 41
0
  0
VERTEX
  8
0
 10
0.263781
 20
0.425944
 30
0.0
 40
0
 41
0
  0
VERTEX
  8
0
 10
0.264106
 20
0.424371
 30
0.0
 40
0
 41
0
  0
VERTEX
  8
0
 10
0.264432
 20
0.422851
 30
0.0
 40
0
 41
0
  0
VERTEX
  8
0
 10
0.264703
 20
0.421332
 30
0.0
 40
0
 41
0
  0
VERTEX
  8
0
 10
0.264974
 20
0.419922
 30
0.0
 40
0
 41
0
  0
VERTEX
  8
0
 10
0.265136
 20
0.418565
 30
0.0
 40
0
 41
0
  0
VERTEX
  8
0
 10
0.2653
 20
0.417264
 30
0.0
 40
0
 41
0
  0
VERTEX
  8
0
 10
0.265463
 20
0.416015
 30
0.0
 40
0
 41
0
  0
VERTEX
  8
0
 10
0.265571
 20
0.414822
 30
0.0
 40
0
 41
0
  0
VERTEX
  8
0
 10
0.265625
 20
0.413738
 30
0.0
 40
0
 41
0
  0
VERTEX
  8
0
 10
0.265733
 20
0.412706
 30
0.0
 40
0
 41
0
  0
VERTEX
  8
0
 10
0.265733
 20
0.408365
 30
0.0
 40
0
 41
0
  0
VERTEX
  8
0
 10
0.265679
 20
0.407715
 30
0.0
 40
0
 41
0
  0
VERTEX
  8
0
 10
0.265625
 20
0.407118
 30
0.0
 40
0
 41
0
  0
VERTEX
  8
0
 10
0.265571
 20
0.406575
 30
0.0
 40
0
 41
0
  0
VERTEX
  8
0
 10
0.265517
 20
0.406088
 30
0.0
 40
0
 41
0
  0
VERTEX
  8
0
 10
0.265463
 20
0.405707
 30
0.0
 40
0
 41
0
  0
VERTEX
  8
0
 10
0.265408
 20
0.405382
 30
0.0
 40
0
 41
0
  0
VERTEX
  8
0
 10
0.265354
 20
0.405111
 30
0.0
 40
0
 41
0
  0
VERTEX
  8
0
 10
0.265354
 20
0.404893
 30
0.0
 40
0
 41
0
  0
VERTEX
  8
0
 10
0.2653
 20
0.404731
 30
0.0
 40
0
 41
0
  0
VERTEX
  8
0
 10
0.2653
 20
0.404622
 30
0.0
 40
0
 41
0
  0
VERTEX
  8
0
 10
0.260796
 20
0.387044
 30
0.0
 40
0
 41
0
  0
VERTEX
  8
0
 10
0.287164
 20
0.378147
 30
0.0
 40
0
 41
0
  0
VERTEX
  8
0
 10
0.294325
 20
0.394857
 30
0.0
 40
0
 41
0
  0
VERTEX
  8
0
 10
0.294325
 20
0.394965
 30
0.0
 40
0
 41
0
  0
VERTEX
  8
0
 10
0.294433
 20
0.395074
 30
0.0
 40
0
 41
0
  0
VERTEX
  8
0
 10
0.294488
 20
0.39529
 30
0.0
 40
0
 41
0
  0
VERTEX
  8
0
 10
0.29465
 20
0.395508
 30
0.0
 40
0
 41
0
  0
VERTEX
  8
0
 10
0.294976
 20
0.396158
 30
0.0
 40
0
 41
0
  0
VERTEX
  8
0
 10
0.295518
 20
0.397026
 30
0.0
 40
0
 41
0
  0
VERTEX
  8
0
 10
0.295844
 20
0.397515
 30
0.0
 40
0
 41
0
  0
VERTEX
  8
0
 10
0.296224
 20
0.398058
 30
0.0
 40
0
 41
0
  0
VERTEX
  8
0
 10
0.296658
 20
0.398708
 30
0.0
 40
0
 41
0
  0
VERTEX
  8
0
 10
0.297092
 20
0.399306
 30
0.0
 40
0
 41
0
  0
VERTEX
  8
0
 10
0.297635
 20
0.400011
 30
0.0
 40
0
 41
0
  0
VERTEX
  8
0
 10
0.298232
 20
0.400717
 30
0.0
 40
0
 41
0
  0
VERTEX
  8
0
 10
0.298828
 20
0.401476
 30
0.0
 40
0
 41
0
  0
VERTEX
  8
0
 10
0.299533
 20
0.402289
 30
0.0
 40
0
 41
0
  0
VERTEX
  8
0
 10
0.301053
 20
0.404025
 30
0.0
 40
0
 41
0
  0
VERTEX
  8
0
 10
0.301921
 20
0.404893
 30
0.0
 40
0
 41
0
  0
VERTEX
  8
0
 10
0.302843
 20
0.405871
 30
0.0
 40
0
 41
0
  0
VERTEX
  8
0
 10
0.303819
 20
0.406847
 30
0.0
 40
0
 41
0
  0
VERTEX
  8
0
 10
0.30485
 20
0.407824
 30
0.0
 40
0
 41
0
  0
VERTEX
  8
0
 10
0.30599
 20
0.4088
 30
0.0
 40
0
 41
0
  0
VERTEX
  8
0
 10
0.307183
 20
0.409831
 30
0.0
 40
0
 41
0
  0
VERTEX
  8
0
 10
0.308431
 20
0.410915
 30
0.0
 40
0
 41
0
  0
VERTEX
  8
0
 10
0.309733
 20
0.411947
 30
0.0
 40
0
 41
0
  0
VERTEX
  8
0
 10
0.311143
 20
0.413086
 30
0.0
 40
0
 41
0
  0
VERTEX
  8
0
 10
0.312608
 20
0.414171
 30
0.0
 40
0
 41
0
  0
VERTEX
  8
0
 10
0.313911
 20
0.415093
 30
0.0
 40
0
 41
0
  0
VERTEX
  8
0
 10
0.314507
 20
0.414876
 30
0.0
 40
0
 41
0
  0
VERTEX
  8
0
 10
0.328504
 20
0.407335
 30
0.0
 40
0
 41
0
  0
VERTEX
  8
0
 10
0.329047
 20
0.40701
 30
0.0
 40
0
 41
0
  0
VERTEX
  8
0
 10
0.328993
 20
0.405382
 30
0.0
 40
0
 41
0
  0
VERTEX
  8
0
 10
0.328776
 20
0.401801
 30
0.0
 40
0
 41
0
  0
VERTEX
  8
0
 10
0.328614
 20
0.400119
 30
0.0
 40
0
 41
0
  0
VERTEX
  8
0
 10
0.32845
 20
0.398492
 30
0.0
 40
0
 41
0
  0
VERTEX
  8
0
 10
0.328233
 20
0.396918
 30
0.0
 40
0
 41
0
  0
VERTEX
  8
0
 10
0.328017
 20
0.395454
 30
0.0
 40
0
 41
0
  0
VERTEX
  8
0
 10
0.327746
 20
0.394043
 30
0.0
 40
0
 41
0
  0
VERTEX
  8
0
 10
0.327528
 20
0.392686
 30
0.0
 40
0
 41
0
  0
VERTEX
  8
0
 10
0.327257
 20
0.391385
 30
0.0
 40
0
 41
0
  0
VERTEX
  8
0
 10
0.326986
 20
0.390136
 30
0.0
 40
0
 41
0
  0
VERTEX
  8
0
 10
0.326714
 20
0.388997
 30
0.0
 40
0
 41
0
  0
VERTEX
  8
0
 10
0.326389
 20
0.387967
 30
0.0
 40
0
 41
0
  0
VERTEX
  8
0
 10
0.326118
 20
0.386936
 30
0.0
 40
0
 41
0
  0
VERTEX
  8
0
 10
0.325846
 20
0.38596
 30
0.0
 40
0
 41
0
  0
VERTEX
  8
0
 10
0.325521
 20
0.385092
 30
0.0
 40
0
 41
0
  0
VERTEX
  8
0
 10
0.32525
 20
0.384278
 30
0.0
 40
0
 41
0
  0
VERTEX
  8
0
 10
0.324978
 20
0.383518
 30
0.0
 40
0
 41
0
  0
VERTEX
  8
0
 10
0.324707
 20
0.382867
 30
0.0
 40
0
 41
0
  0
VERTEX
  8
0
 10
0.32449
 20
0.382269
 30
0.0
 40
0
 41
0
  0
VERTEX
  8
0
 10
0.324219
 20
0.381674
 30
0.0
 40
0
 41
0
  0
VERTEX
  8
0
 10
0.324001
 20
0.381185
 30
0.0
 40
0
 41
0
  0
VERTEX
  8
0
 10
0.323839
 20
0.380751
 30
0.0
 40
0
 41
0
  0
VERTEX
  8
0
 10
0.323622
 20
0.380371
 30
0.0
 40
0
 41
0
  0
VERTEX
  8
0
 10
0.32346
 20
0.3801
 30
0.0
 40
0
 41
0
  0
VERTEX
  8
0
 10
0.323351
 20
0.379829
 30
0.0
 40
0
 41
0
  0
VERTEX
  8
0
 10
0.323242
 20
0.379665
 30
0.0
 40
0
 41
0
  0
VERTEX
  8
0
 10
0.323133
 20
0.379449
 30
0.0
 40
0
 41
0
  0
VERTEX
  8
0
 10
0.313206
 20
0.364258
 30
0.0
 40
0
 41
0
  0
VERTEX
  8
0
 10
0.335232
 20
0.347276
 30
0.0
 40
0
 41
0
  0
VERTEX
  8
0
 10
0.347385
 20
0.360786
 30
0.0
 40
0
 41
0
  0
VERTEX
  8
0
 10
0.347711
 20
0.361111
 30
0.0
 40
0
 41
0
  0
VERTEX
  8
0
 10
0.347928
 20
0.361274
 30
0.0
 40
0
 41
0
  0
VERTEX
  8
0
 10
0.348469
 20
0.361817
 30
0.0
 40
0
 41
0
  0
VERTEX
  8
0
 10
0.34885
 20
0.362087
 30
0.0
 40
0
 41
0
  0
VERTEX
  8
0
 10
0.349229
 20
0.362414
 30
0.0
 40
0
 41
0
  0
VERTEX
  8
0
 10
0.349718
 20
0.362793
 30
0.0
 40
0
 41
0
  0
VERTEX
  8
0
 10
0.350261
 20
0.363226
 30
0.0
 40
0
 41
0
  0
VERTEX
  8
0
 10
0.350857
 20
0.363607
 30
0.0
 40
0
 41
0
  0
VERTEX
  8
0
 10
0.351508
 20
0.364094
 30
0.0
 40
0
 41
0
  0
VERTEX
  8
0
 10
0.352214
 20
0.364583
 30
0.0
 40
0
 41
0
  0
VERTEX
  8
0
 10
0.352974
 20
0.365072
 30
0.0
 40
0
 41
0
  0
VERTEX
  8
0
 10
0.353842
 20
0.36556
 30
0.0
 40
0
 41
0
  0
VERTEX
  8
0
 10
0.35471
 20
0.366157
 30
0.0
 40
0
 41
0
  0
VERTEX
  8
0
 10
0.355686
 20
0.366699
 30
0.0
 40
0
 41
0
  0
VERTEX
  8
0
 10
0.356771
 20
0.367242
 30
0.0
 40
0
 41
0
  0
VERTEX
  8
0
 10
0.357856
 20
0.367839
 30
0.0
 40
0
 41
0
  0
VERTEX
  8
0
 10
0.35905
 20
0.368435
 30
0.0
 40
0
 41
0
  0
VERTEX
  8
0
 10
0.360297
 20
0.368978
 30
0.0
 40
0
 41
0
  0
VERTEX
  8
0
 10
0.3616
 20
0.369575
 30
0.0
 40
0
 41
0
  0
VERTEX
  8
0
 10
0.362956
 20
0.370171
 30
0.0
 40
0
 41
0
  0
VERTEX
  8
0
 10
0.364421
 20
0.370768
 30
0.0
 40
0
 41
0
  0
VERTEX
  8
0
 10
0.36594
 20
0.371365
 30
0.0
 40
0
 41
0
  0
VERTEX
  8
0
 10
0.369194
 20
0.372558
 30
0.0
 40
0
 41
0
  0
VERTEX
  8
0
 10
0.370985
 20
0.373101
 30
0.0
 40
0
 41
0
  0
VERTEX
  8
0
 10
0.372504
 20
0.373589
 30
0.0
 40
0
 41
0
  0
VERTEX
  8
0
 10
0.372993
 20
0.373156
 30
0.0
 40
0
 41
0
  0
VERTEX
  8
0
 10
0.383789
 20
0.36149
 30
0.0
 40
0
 41
0
  0
VERTEX
  8
0
 10
0.384224
 20
0.361003
 30
0.0
 40
0
 41
0
  0
VERTEX
  8
0
 10
0.383626
 20
0.359483
 30
0.0
 40
0
 41
0
  0
VERTEX
  8
0
 10
0.382975
 20
0.357801
 30
0.0
 40
0
 41
0
  0
VERTEX
  8
0
 10
0.382215
 20
0.356174
 30
0.0
 40
0
 41
0
  0
VERTEX
  8
0
 10
0.381565
 20
0.354601
 30
0.0
 40
0
 41
0
  0
VERTEX
  8
0
 10
0.38086
 20
0.353136
 30
0.0
 40
0
 41
0
  0
VERTEX
  8
0
 10
0.380154
 20
0.351725
 30
0.0
 40
0
 41
0
  0
VERTEX
  8
0
 10
0.378743
 20
0.349121
 30
0.0
 40
0
 41
0
  0
VERTEX
  8
0
 10
0.378093
 20
0.347928
 30
0.0
 40
0
 41
0
  0
VERTEX
  8
0
 10
0.377442
 20
0.346789
 30
0.0
 40
0
 41
0
  0
VERTEX
  8
0
 10
0.376139
 20
0.344726
 30
0.0
 40
0
 41
0
  0
VERTEX
  8
0
 10
0.375489
 20
0.343804
 30
0.0
 40
0
 41
0
  0
VERTEX
  8
0
 10
0.374892
 20
0.342936
 30
0.0
 40
0
 41
0
  0
VERTEX
  8
0
 10
0.374349
 20
0.342122
 30
0.0
 40
0
 41
0
  0
VERTEX
  8
0
 10
0.373753
 20
0.341417
 30
0.0
 40
0
 41
0
  0
VERTEX
  8
0
 10
0.373264
 20
0.340712
 30
0.0
 40
0
 41
0
  0
VERTEX
  8
0
 10
0.372721
 20
0.340115
 30
0.0
 40
0
 41
0
  0
VERTEX
  8
0
 10
0.372288
 20
0.339518
 30
0.0
 40
0
 41
0
  0
VERTEX
  8
0
 10
0.371853
 20
0.339031
 30
0.0
 40
0
 41
0
  0
VERTEX
  8
0
 10
0.371419
 20
0.338596
 30
0.0
 40
0
 41
0
  0
VERTEX
  8
0
 10
0.371094
 20
0.338217
 30
0.0
 40
0
 41
0
  0
VERTEX
  8
0
 10
0.370714
 20
0.33789
 30
0.0
 40
0
 41
0
  0
VERTEX
  8
0
 10
0.370443
 20
0.337565
 30
0.0
 40
0
 41
0
  0
VERTEX
  8
0
 10
0.370171
 20
0.337349
 30
0.0
 40
0
 41
0
  0
VERTEX
  8
0
 10
0.369846
 20
0.337022
 30
0.0
 40
0
 41
0
  0
VERTEX
  8
0
 10
0.369683
 20
0.336914
 30
0.0
 40
0
 41
0
  0
VERTEX
  8
0
 10
0.369629
 20
0.33686
 30
0.0
 40
0
 41
0
  0
VERTEX
  8
0
 10
0.355306
 20
0.325683
 30
0.0
 40
0
 41
0
  0
VERTEX
  8
0
 10
0.37066
 20
0.302518
 30
0.0
 40
0
 41
0
  0
VERTEX
  8
0
 10
0.386556
 20
0.311307
 30
0.0
 40
0
 41
0
  0
VERTEX
  8
0
 10
0.38661
 20
0.311361
 30
0.0
 40
0
 41
0
  0
VERTEX
  8
0
 10
0.386774
 20
0.311415
 30
0.0
 40
0
 41
0
  0
VERTEX
  8
0
 10
0.386936
 20
0.311524
 30
0.0
 40
0
 41
0
  0
VERTEX
  8
0
 10
0.387207
 20
0.311632
 30
0.0
 40
0
 41
0
  0
VERTEX
  8
0
 10
0.387532
 20
0.311794
 30
0.0
 40
0
 41
0
  0
VERTEX
  8
0
 10
0.387913
 20
0.311903
 30
0.0
 40
0
 41
0
  0
VERTEX
  8
0
 10
0.388346
 20
0.312121
 30
0.0
 40
0
 41
0
  0
VERTEX
  8
0
 10
0.388835
 20
0.312283
 30
0.0
 40
0
 41
0
  0
VERTEX
  8
0
 10
0.389378
 20
0.3125
 30
0.0
 40
0
 41
0
  0
VERTEX
  8
0
 10
0.390028
 20
0.312662
 30
0.0
 40
0
 41
0
  0
VERTEX
  8
0
 10
0.390733
 20
0.312879
 30
0.0
 40
0
 41
0
  0
VERTEX
  8
0
 10
0.391493
 20
0.313097
 30
0.0
 40
0
 41
0
  0
VERTEX
  8
0
 10
0.392307
 20
0.313314
 30
0.0
 40
0
 41
0
  0
VERTEX
  8
0
 10
0.393229
 20
0.313585
 30
0.0
 40
0
 41
0
  0
VERTEX
  8
0
 10
0.394206
 20
0.313747
 30
0.0
 40
0
 41
0
  0
VERTEX
  8
0
 10
0.395236
 20
0.313965
 30
0.0
 40
0
 41
0
  0
VERTEX
  8
0
 10
0.396322
 20
0.314182
 30
0.0
 40
0
 41
0
  0
VERTEX
  8
0
 10
0.397515
 20
0.314399
 30
0.0
 40
0
 41
0
  0
VERTEX
  8
0
 10
0.398708
 20
0.314561
 30
0.0
 40
0
 41
0
  0
VERTEX
  8
0
 10
0.400011
 20
0.314725
 30
0.0
 40
0
 41
0
  0
VERTEX
  8
0
 10
0.402832
 20
0.31505
 30
0.0
 40
0
 41
0
  0
VERTEX
  8
0
 10
0.404351
 20
0.315158
 30
0.0
 40
0
 41
0
  0
VERTEX
  8
0
 10
0.405925
 20
0.315267
 30
0.0
 40
0
 41
0
  0
VERTEX
  8
0
 10
0.407553
 20
0.315321
 30
0.0
 40
0
 41
0
  0
VERTEX
  8
0
 10
0.409233
 20
0.315375
 30
0.0
 40
0
 41
0
  0
VERTEX
  8
0
 10
0.411025
 20
0.315375
 30
0.0
 40
0
 41
0
  0
VERTEX
  8
0
 10
0.412815
 20
0.315321
 30
0.0
 40
0
 41
0
  0
VERTEX
  8
0
 10
0.414442
 20
0.315267
 30
0.0
 40
0
 41
0
  0
VERTEX
  8
0
 10
0.414768
 20
0.314725
 30
0.0
 40
0
 41
0
  0
VERTEX
  8
0
 10
0.421224
 20
0.300185
 30
0.0
 40
0
 41
0
  0
VERTEX
  8
0
 10
0.421442
 20
0.299587
 30
0.0
 40
0
 41
0
  0
VERTEX
  8
0
 10
0.42041
 20
0.29834
 30
0.0
 40
0
 41
0
  0
VERTEX
  8
0
 10
0.419163
 20
0.296983
 30
0.0
 40
0
 41
0
  0
VERTEX
  8
0
 10
0.418024
 20
0.295628
 30
0.0
 40
0
 41
0
  0
VERTEX
  8
0
 10
0.416829
 20
0.294379
 30
0.0
 40
0
 41
0
  0
VERTEX
  8
0
 10
0.41569
 20
0.29324
 30
0.0
 40
0
 41
0
  0
VERTEX
  8
0
 10
0.414606
 20
0.292101
 30
0.0
 40
0
 41
0
  0
VERTEX
  8
0
 10
0.413465
 20
0.291069
 30
0.0
 40
0
 41
0
  0
VERTEX
  8
0
 10
0.412435
 20
0.290093
 30
0.0
 40
0
 41
0
  0
VERTEX
  8
0
 10
0.411404
 20
0.289171
 30
0.0
 40
0
 41
0
  0
VERTEX
  8
0
 10
0.410374
 20
0.288357
 30
0.0
 40
0
 41
0
  0
VERTEX
  8
0
 10
0.409451
 20
0.287543
 30
0.0
 40
0
 41
0
  0
VERTEX
  8
0
 10
0.408529
 20
0.286783
 30
0.0
 40
0
 41
0
  0
VERTEX
  8
0
 10
0.407607
 20
0.286133
 30
0.0
 40
0
 41
0
  0
VERTEX
  8
0
 10
0.406793
 20
0.285482
 30
0.0
 40
0
 41
0
  0
VERTEX
  8
0
 10
0.405979
 20
0.284939
 30
0.0
 40
0
 41
0
  0
VERTEX
  8
0
 10
0.405165
 20
0.284451
 30
0.0
 40
0
 41
0
  0
VERTEX
  8
0
 10
0.40446
 20
0.283962
 30
0.0
 40
0
 41
0
  0
VERTEX
  8
0
 10
0.403808
 20
0.283529
 30
0.0
 40
0
 41
0
  0
VERTEX
  8
0
 10
0.403157
 20
0.283149
 30
0.0
 40
0
 41
0
  0
VERTEX
  8
0
 10
0.402615
 20
0.282824
 30
0.0
 40
0
 41
0
  0
VERTEX
  8
0
 10
0.402072
 20
0.282553
 30
0.0
 40
0
 41
0
  0
VERTEX
  8
0
 10
0.401585
 20
0.282281
 30
0.0
 40
0
 41
0
  0
VERTEX
  8
0
 10
0.401204
 20
0.282064
 30
0.0
 40
0
 41
0
  0
VERTEX
  8
0
 10
0.400825
 20
0.281901
 30
0.0
 40
0
 41
0
  0
VERTEX
  8
0
 10
0.400499
 20
0.281739
 30
0.0
 40
0
 41
0
  0
VERTEX
  8
0
 10
0.400228
 20
0.281629
 30
0.0
 40
0
 41
0
  0
VERTEX
  8
0
 10
0.399903
 20
0.281521
 30
0.0
 40
0
 41
0
  0
VERTEX
  8
0
 10
0.399794
 20
0.281467
 30
0.0
 40
0
 41
0
  0
VERTEX
  8
0
 10
0.38265
 20
0.275553
 30
0.0
 40
0
 41
0
  0
VERTEX
  8
0
 10
0.389649
 20
0.248643
 30
0.0
 40
0
 41
0
  0
VERTEX
  8
0
 10
0.407497
 20
0.25179
 30
0.0
 40
0
 41
0
  0
VERTEX
  8
0
 10
0.407607
 20
0.251844
 30
0.0
 40
0
 41
0
  0
VERTEX
  8
0
 10
0.407715
 20
0.251844
 30
0.0
 40
0
 41
0
  0
VERTEX
  8
0
 10
0.407932
 20
0.251899
 30
0.0
 40
0
 41
0
  0
VERTEX
  8
0
 10
0.408203
 20
0.251899
 30
0.0
 40
0
 41
0
  0
VERTEX
  8
0
 10
0.408583
 20
0.251953
 30
0.0
 40
0
 41
0
  0
VERTEX
  8
0
 10
0.412001
 20
0.251953
 30
0.0
 40
0
 41
0
  0
VERTEX
  8
0
 10
0.412761
 20
0.251899
 30
0.0
 40
0
 41
0
  0
VERTEX
  8
0
 10
0.413629
 20
0.251844
 30
0.0
 40
0
 41
0
  0
VERTEX
  8
0
 10
0.414551
 20
0.251736
 30
0.0
 40
0
 41
0
  0
VERTEX
  8
0
 10
0.415528
 20
0.251628
 30
0.0
 40
0
 41
0
  0
VERTEX
  8
0
 10
0.416558
 20
0.251519
 30
0.0
 40
0
 41
0
  0
VERTEX
  8
0
 10
0.417697
 20
0.251357
 30
0.0
 40
0
 41
0
  0
VERTEX
  8
0
 10
0.418837
 20
0.251139
 30
0.0
 40
0
 41
0
  0
VERTEX
  8
0
 10
0.420085
 20
0.250922
 30
0.0
 40
0
 41
0
  0
VERTEX
  8
0
 10
0.421386
 20
0.250651
 30
0.0
 40
0
 41
0
  0
VERTEX
  8
0
 10
0.422743
 20
0.250379
 30
0.0
 40
0
 41
0
  0
VERTEX
  8
0
 10
0.424154
 20
0.250054
 30
0.0
 40
0
 41
0
  0
VERTEX
  8
0
 10
0.425564
 20
0.249675
 30
0.0
 40
0
 41
0
  0
VERTEX
  8
0
 10
0.427083
 20
0.24924
 30
0.0
 40
0
 41
0
  0
VERTEX
  8
0
 10
0.428657
 20
0.248807
 30
0.0
 40
0
 41
0
  0
VERTEX
  8
0
 10
0.430285
 20
0.248264
 30
0.0
 40
0
 41
0
  0
VERTEX
  8
0
 10
0.433649
 20
0.247071
 30
0.0
 40
0
 41
0
  0
VERTEX
  8
0
 10
0.435167
 20
0.246474
 30
0.0
 40
0
 41
0
  0
VERTEX
  8
0
 10
0.435275
 20
0.245876
 30
0.0
 40
0
 41
0
  0
VERTEX
  8
0
 10
0.436686
 20
0.229981
 30
0.0
 40
0
 41
0
  0
VERTEX
  8
0
 10
0.436686
 20
0.229383
 30
0.0
 40
0
 41
0
  0
VERTEX
  8
0
 10
0.435331
 20
0.228515
 30
0.0
 40
0
 41
0
  0
VERTEX
  8
0
 10
0.432183
 20
0.226779
 30
0.0
 40
0
 41
0
  0
VERTEX
  8
0
 10
0.430664
 20
0.225965
 30
0.0
 40
0
 41
0
  0
VERTEX
  8
0
 10
0.429199
 20
0.225261
 30
0.0
 40
0
 41
0
  0
VERTEX
  8
0
 10
0.427789
 20
0.224556
 30
0.0
 40
0
 41
0
  0
VERTEX
  8
0
 10
0.426432
 20
0.223958
 30
0.0
 40
0
 41
0
  0
VERTEX
  8
0
 10
0.425131
 20
0.223361
 30
0.0
 40
0
 41
0
  0
VERTEX
  8
0
 10
0.423828
 20
0.222819
 30
0.0
 40
0
 41
0
  0
VERTEX
  8
0
 10
0.422581
 20
0.222331
 30
0.0
 40
0
 41
0
  0
VERTEX
  8
0
 10
0.421442
 20
0.221897
 30
0.0
 40
0
 41
0
  0
VERTEX
  8
0
 10
0.420301
 20
0.221517
 30
0.0
 40
0
 41
0
  0
VERTEX
  8
0
 10
0.419271
 20
0.221137
 30
0.0
 40
0
 41
0
  0
VERTEX
  8
0
 10
0.41824
 20
0.220865
 30
0.0
 40
0
 41
0
  0
VERTEX
  8
0
 10
0.417318
 20
0.22054
 30
0.0
 40
0
 41
0
  0
VERTEX
  8
0
 10
0.416396
 20
0.220324
 30
0.0
 40
0
 41
0
  0
VERTEX
  8
0
 10
0.415582
 20
0.220107
 30
0.0
 40
0
 41
0
  0
VERTEX
  8
0
 10
0.414822
 20
0.219943
 30
0.0
 40
0
 41
0
  0
VERTEX
  8
0
 10
0.414117
 20
0.219781
 30
0.0
 40
0
 41
0
  0
VERTEX
  8
0
 10
0.412815
 20
0.219564
 30
0.0
 40
0
 41
0
  0
VERTEX
  8
0
 10
0.412326
 20
0.219456
 30
0.0
 40
0
 41
0
  0
VERTEX
  8
0
 10
0.411838
 20
0.219401
 30
0.0
 40
0
 41
0
  0
VERTEX
  8
0
 10
0.411458
 20
0.219347
 30
0.0
 40
0
 41
0
  0
VERTEX
  8
0
 10
0.411133
 20
0.219347
 30
0.0
 40
0
 41
0
  0
VERTEX
  8
0
 10
0.410807
 20
0.219293
 30
0.0
 40
0
 41
0
  0
VERTEX
  8
0
 10
0.392253
 20
0.219293
 30
0.0
 40
0
 41
0
  0
VERTEX
  8
0
 10
0.392199
 20
0.218804
 30
0.0
 40
0
 41
0
  0
VERTEX
  8
0
 10
0.390082
 20
0.191515
 30
0.0
 40
0
 41
0
  0
VERTEX
  8
0
 10
0.40804
 20
0.188747
 30
0.0
 40
0
 41
0
  0
VERTEX
  8
0
 10
0.408094
 20
0.188747
 30
0.0
 40
0
 41
0
  0
VERTEX
  8
0
 10
0.408421
 20
0.188639
 30
0.0
 40
0
 41
0
  0
VERTEX
  8
0
 10
0.408746
 20
0.188585
 30
0.0
 40
0
 41
0
  0
VERTEX
  8
0
 10
0.409071
 20
0.188476
 30
0.0
 40
0
 41
0
  0
VERTEX
  8
0
 10
0.409451
 20
0.188368
 30
0.0
 40
0
 41
0
  0
VERTEX
  8
0
 10
0.409885
 20
0.18826
 30
0.0
 40
0
 41
0
  0
VERTEX
  8
0
 10
0.410428
 20
0.188097
 30
0.0
 40
0
 41
0
  0
VERTEX
  8
0
 10
0.410969
 20
0.187879
 30
0.0
 40
0
 41
0
  0
VERTEX
  8
0
 10
0.411621
 20
0.187662
 30
0.0
 40
0
 41
0
  0
VERTEX
  8
0
 10
0.412272
 20
0.187392
 30
0.0
 40
0
 41
0
  0
VERTEX
  8
0
 10
0.413032
 20
0.187121
 30
0.0
 40
0
 41
0
  0
VERTEX
  8
0
 10
0.413792
 20
0.186794
 30
0.0
 40
0
 41
0
  0
VERTEX
  8
0
 10
0.41466
 20
0.186415
 30
0.0
 40
0
 41
0
  0
VERTEX
  8
0
 10
0.415582
 20
0.185981
 30
0.0
 40
0
 41
0
  0
VERTEX
  8
0
 10
0.416504
 20
0.185493
 30
0.0
 40
0
 41
0
  0
VERTEX
  8
0
 10
0.417481
 20
0.185004
 30
0.0
 40
0
 41
0
  0
VERTEX
  8
0
 10
0.418511
 20
0.184407
 30
0.0
 40
0
 41
0
  0
VERTEX
  8
0
 10
0.41965
 20
0.183811
 30
0.0
 40
0
 41
0
  0
VERTEX
  8
0
 10
0.42079
 20
0.18316
 30
0.0
 40
0
 41
0
  0
VERTEX
  8
0
 10
0.421929
 20
0.182454
 30
0.0
 40
0
 41
0
  0
VERTEX
  8
0
 10
0.424425
 20
0.180826
 30
0.0
 40
0
 41
0
  0
VERTEX
  8
0
 10
0.425672
 20
0.179958
 30
0.0
 40
0
 41
0
  0
VERTEX
  8
0
 10
0.428386
 20
0.178006
 30
0.0
 40
0
 41
0
  0
VERTEX
  8
0
 10
0.431207
 20
0.175726
 30
0.0
 40
0
 41
0
  0
VERTEX
  8
0
 10
0.432454
 20
0.174696
 30
0.0
 40
0
 41
0
  0
VERTEX
  8
0
 10
0.432346
 20
0.1741
 30
0.0
 40
0
 41
0
  0
VERTEX
  8
0
 10
0.428549
 20
0.158637
 30
0.0
 40
0
 41
0
  0
VERTEX
  8
0
 10
0.428331
 20
0.15804
 30
0.0
 40
0
 41
0
  0
VERTEX
  8
0
 10
0.426758
 20
0.157715
 30
0.0
 40
0
 41
0
  0
VERTEX
  8
0
 10
0.424968
 20
0.157335
 30
0.0
 40
0
 41
0
  0
VERTEX
  8
0
 10
0.423232
 20
0.157064
 30
0.0
 40
0
 41
0
  0
VERTEX
  8
0
 10
0.42155
 20
0.156793
 30
0.0
 40
0
 41
0
  0
VERTEX
  8
0
 10
0.419922
 20
0.156575
 30
0.0
 40
0
 41
0
  0
VERTEX
  8
0
 10
0.418349
 20
0.156358
 30
0.0
 40
0
 41
0
  0
VERTEX
  8
0
 10
0.416829
 20
0.156196
 30
0.0
 40
0
 41
0
  0
VERTEX
  8
0
 10
0.415419
 20
0.156088
 30
0.0
 40
0
 41
0
  0
VERTEX
  8
0
 10
0.414063
 20
0.156033
 30
0.0
 40
0
 41
0
  0
VERTEX
  8
0
 10
0.412761
 20
0.155925
 30
0.0
 40
0
 41
0
  0
VERTEX
  8
0
 10
0.408149
 20
0.155925
 30
0.0
 40
0
 41
0
  0
VERTEX
  8
0
 10
0.407118
 20
0.155979
 30
0.0
 40
0
 41
0
  0
VERTEX
  8
0
 10
0.40625
 20
0.156033
 30
0.0
 40
0
 41
0
  0
VERTEX
  8
0
 10
0.405328
 20
0.156142
 30
0.0
 40
0
 41
0
  0
VERTEX
  8
0
 10
0.404568
 20
0.156196
 30
0.0
 40
0
 41
0
  0
VERTEX
  8
0
 10
0.403157
 20
0.156412
 30
0.0
 40
0
 41
0
  0
VERTEX
  8
0
 10
0.402561
 20
0.156467
 30
0.0
 40
0
 41
0
  0
VERTEX
  8
0
 10
0.401585
 20
0.156685
 30
0.0
 40
0
 41
0
  0
VERTEX
  8
0
 10
0.401204
 20
0.156739
 30
0.0
 40
0
 41
0
  0
VERTEX
  8
0
 10
0.400879
 20
0.156847
 30
0.0
 40
0
 41
0
  0
VERTEX
  8
0
 10
0.400608
 20
0.156901
 30
0.0
 40
0
 41
0
  0
VERTEX
  8
0
 10
0.40039
 20
0.156956
 30
0.0
 40
0
 41
0
  0
VERTEX
  8
0
 10
0.400228
 20
0.15701
 30
0.0
 40
0
 41
0
  0
VERTEX
  8
0
 10
0.400174
 20
0.15701
 30
0.0
 40
0
 41
0
  0
VERTEX
  8
0
 10
0.382975
 20
0.162924
 30
0.0
 40
0
 41
0
  0
VERTEX
  8
0
 10
0.371962
 20
0.13737
 30
0.0
 40
0
 41
0
  0
VERTEX
  8
0
 10
0.388021
 20
0.128906
 30
0.0
 40
0
 41
0
  0
VERTEX
  8
0
 10
0.388075
 20
0.128852
 30
0.0
 40
0
 41
0
  0
VERTEX
  8
0
 10
0.388238
 20
0.128798
 30
0.0
 40
0
 41
0
  0
VERTEX
  8
0
 10
0.3884
 20
0.128689
 30
0.0
 40
0
 41
0
  0
VERTEX
  8
0
 10
0.388618
 20
0.128527
 30
0.0
 40
0
 41
0
  0
VERTEX
  8
0
 10
0.388889
 20
0.128309
 30
0.0
 40
0
 41
0
  0
VERTEX
  8
0
 10
0.389268
 20
0.128093
 30
0.0
 40
0
 41
0
  0
VERTEX
  8
0
 10
0.389649
 20
0.127821
 30
0.0
 40
0
 41
0
  0
VERTEX
  8
0
 10
0.390082
 20
0.127496
 30
0.0
 40
0
 41
0
  0
VERTEX
  8
0
 10
0.390517
 20
0.127116
 30
0.0
 40
0
 41
0
  0
VERTEX
  8
0
 10
0.39106
 20
0.126736
 30
0.0
 40
0
 41
0
  0
VERTEX
  8
0
 10
0.391601
 20
0.126248
 30
0.0
 40
0
 41
0
  0
VERTEX
  8
0
 10
0.392253
 20
0.125705
 30
0.0
 40
0
 41
0
  0
VERTEX
  8
0
 10
0.39285
 20
0.125163
 30
0.0
 40
0
 41
0
  0
VERTEX
  8
0
 10
0.39426
 20
0.123861
 30
0.0
 40
0
 41
0
  0
VERTEX
  8
0
 10
0.395019
 20
0.123101
 30
0.0
 40
0
 41
0
  0
VERTEX
  8
0
 10
0.395779
 20
0.122287
 30
0.0
 40
0
 41
0
  0
VERTEX
  8
0
 10
0.396593
 20
0.121419
 30
0.0
 40
0
 41
0
  0
VERTEX
  8
0
 10
0.397407
 20
0.120497
 30
0.0
 40
0
 41
0
  0
VERTEX
  8
0
 10
0.399143
 20
0.118435
 30
0.0
 40
0
 41
0
  0
VERTEX
  8
0
 10
0.400065
 20
0.117296
 30
0.0
 40
0
 41
0
  0
VERTEX
  8
0
 10
0.400933
 20
0.116102
 30
0.0
 40
0
 41
0
  0
VERTEX
  8
0
 10
0.40191
 20
0.114855
 30
0.0
 40
0
 41
0
  0
VERTEX
  8
0
 10
0.402832
 20
0.113498
 30
0.0
 40
0
 41
0
  0
VERTEX
  8
0
 10
0.403808
 20
0.112088
 30
0.0
 40
0
 41
0
  0
VERTEX
  8
0
 10
0.404785
 20
0.110623
 30
0.0
 40
0
 41
0
  0
VERTEX
  8
0
 10
0.405761
 20
0.109104
 30
0.0
 40
0
 41
0
  0
VERTEX
  8
0
 10
0.406575
 20
0.107693
 30
0.0
 40
0
 41
0
  0
VERTEX
  8
0
 10
0.40625
 20
0.107151
 30
0.0
 40
0
 41
0
  0
VERTEX
  8
0
 10
0.397624
 20
0.09375
 30
0.0
 40
0
 41
0
  0
VERTEX
  8
0
 10
0.397244
 20
0.0932617
 30
0.0
 40
0
 41
0
  0
VERTEX
  8
0
 10
0.395671
 20
0.0934788
 30
0.0
 40
0
 41
0
  0
VERTEX
  8
0
 10
0.393826
 20
0.0936957
 30
0.0
 40
0
 41
0
  0
VERTEX
  8
0
 10
0.39209
 20
0.0939671
 30
0.0
 40
0
 41
0
  0
VERTEX
  8
0
 10
0.390408
 20
0.0942925
 30
0.0
 40
0
 41
0
  0
VERTEX
  8
0
 10
0.387261
 20
0.0949436
 30
0.0
 40
0
 41
0
  0
VERTEX
  8
0
 10
0.385796
 20
0.0952692
 30
0.0
 40
0
 41
0
  0
VERTEX
  8
0
 10
0.38444
 20
0.0955946
 30
0.0
 40
0
 41
0
  0
VERTEX
  8
0
 10
0.383083
 20
0.0959744
 30
0.0
 40
0
 41
0
  0
VERTEX
  8
0
 10
0.381836
 20
0.0963542
 30
0.0
 40
0
 41
0
  0
VERTEX
  8
0
 10
0.380643
 20
0.0967339
 30
0.0
 40
0
 41
0
  0
VERTEX
  8
0
 10
0.379503
 20
0.0971137
 30
0.0
 40
0
 41
0
  0
VERTEX
  8
0
 10
0.378472
 20
0.0974935
 30
0.0
 40
0
 41
0
  0
VERTEX
  8
0
 10
0.377496
 20
0.0978733
 30
0.0
 40
0
 41
0
  0
VERTEX
  8
0
 10
0.376574
 20
0.0981988
 30
0.0
 40
0
 41
0
  0
VERTEX
  8
0
 10
0.375706
 20
0.0985786
 30
0.0
 40
0
 41
0
  0
VERTEX
  8
0
 10
0.374892
 20
0.098904
 30
0.0
 40
0
 41
0
  0
VERTEX
  8
0
 10
0.374186
 20
0.0992839
 30
0.0
 40
0
 41
0
  0
VERTEX
  8
0
 10
0.373535
 20
0.0995551
 30
0.0
 40
0
 41
0
  0
VERTEX
  8
0
 10
0.372939
 20
0.0998807
 30
0.0
 40
0
 41
0
  0
VERTEX
  8
0
 10
0.372396
 20
0.100152
 30
0.0
 40
0
 41
0
  0
VERTEX
  8
0
 10
0.371962
 20
0.100423
 30
0.0
 40
0
 41
0
  0
VERTEX
  8
0
 10
0.371528
 20
0.10064
 30
0.0
 40
0
 41
0
  0
VERTEX
  8
0
 10
0.370876
 20
0.101074
 30
0.0
 40
0
 41
0
  0
VERTEX
  8
0
 10
0.37066
 20
0.101183
 30
0.0
 40
0
 41
0
  0
VERTEX
  8
0
 10
0.370335
 20
0.1014
 30
0.0
 40
0
 41
0
  0
VERTEX
  8
0
 10
0.370281
 20
0.101454
 30
0.0
 40
0
 41
0
  0
VERTEX
  8
0
 10
0.355957
 20
0.11263
 30
0.0
 40
0
 41
0
  0
VERTEX
  8
0
 10
0.33724
 20
0.0920682
 30
0.0
 40
0
 41
0
  0
VERTEX
  8
0
 10
0.349664
 20
0.0788303
 30
0.0
 40
0
 41
0
  0
VERTEX
  8
0
 10
0.349718
 20
0.0787761
 30
0.0
 40
0
 41
0
  0
VERTEX
  8
0
 10
0.349935
 20
0.0784506
 30
0.0
 40
0
 41
0
  0
VERTEX
  8
0
 10
0.350151
 20
0.0782335
 30
0.0
 40
0
 41
0
  0
VERTEX
  8
0
 10
0.350369
 20
0.0779622
 30
0.0
 40
0
 41
0
  0
VERTEX
  8
0
 10
0.350586
 20
0.0776367
 30
0.0
 40
0
 41
0
  0
VERTEX
  8
0
 10
0.350857
 20
0.0772569
 30
0.0
 40
0
 41
0
  0
VERTEX
  8
0
 10
0.351183
 20
0.0768229
 30
0.0
 40
0
 41
0
  0
VERTEX
  8
0
 10
0.351508
 20
0.0763346
 30
0.0
 40
0
 41
0
  0
VERTEX
  8
0
 10
0.351833
 20
0.0757379
 30
0.0
 40
0
 41
0
  0
VERTEX
  8
0
 10
0.352214
 20
0.0751411
 30
0.0
 40
0
 41
0
  0
VERTEX
  8
0
 10
0.352647
 20
0.0744358
 30
0.0
 40
0
 41
0
  0
VERTEX
  8
0
 10
0.353028
 20
0.0736762
 30
0.0
 40
0
 41
0
  0
VERTEX
  8
0
 10
0.353461
 20
0.0728624
 30
0.0
 40
0
 41
0
  0
VERTEX
  8
0
 10
0.35395
 20
0.0719943
 30
0.0
 40
0
 41
0
  0
VERTEX
  8
0
 10
0.354383
 20
0.0710178
 30
0.0
 40
0
 41
0
  0
VERTEX
  8
0
 10
0.354872
 20
0.0700413
 30
0.0
 40
0
 41
0
  0
VERTEX
  8
0
 10
0.35536
 20
0.0689561
 30
0.0
 40
0
 41
0
  0
VERTEX
  8
0
 10
0.355794
 20
0.0678168
 30
0.0
 40
0
 41
0
  0
VERTEX
  8
0
 10
0.356282
 20
0.066569
 30
0.0
 40
0
 41
0
  0
VERTEX
  8
0
 10
0.356771
 20
0.0652669
 30
0.0
 40
0
 41
0
  0
VERTEX
  8
0
 10
0.35726
 20
0.0639106
 30
0.0
 40
0
 41
0
  0
VERTEX
  8
0
 10
0.357747
 20
0.0625
 30
0.0
 40
0
 41
0
  0
VERTEX
  8
0
 10
0.358236
 20
0.0610351
 30
0.0
 40
0
 41
0
  0
VERTEX
  8
0
 10
0.358724
 20
0.0594075
 30
0.0
 40
0
 41
0
  0
VERTEX
  8
0
 10
0.359158
 20
0.05778
 30
0.0
 40
0
 41
0
  0
VERTEX
  8
0
 10
0.359592
 20
0.0560981
 30
0.0
 40
0
 41
0
  0
VERTEX
  8
0
 10
0.360026
 20
0.0543078
 30
0.0
 40
0
 41
0
  0
VERTEX
  8
0
 10
0.360351
 20
0.0527344
 30
0.0
 40
0
 41
0
  0
VERTEX
  8
0
 10
0.359864
 20
0.0523004
 30
0.0
 40
0
 41
0
  0
VERTEX
  8
0
 10
0.347385
 20
0.0424804
 30
0.0
 40
0
 41
0
  0
VERTEX
  8
0
 10
0.346843
 20
0.0421007
 30
0.0
 40
0
 41
0
  0
VERTEX
  8
0
 10
0.345378
 20
0.042806
 30
0.0
 40
0
 41
0
  0
VERTEX
  8
0
 10
0.34375
 20
0.0436199
 30
0.0
 40
0
 41
0
  0
VERTEX
  8
0
 10
0.342231
 20
0.0444336
 30
0.0
 40
0
 41
0
  0
VERTEX
  8
0
 10
0.340712
 20
0.0453017
 30
0.0
 40
0
 41
0
  0
VERTEX
  8
0
 10
0.339301
 20
0.0461154
 30
0.0
 40
0
 41
0
  0
VERTEX
  8
0
 10
0.337944
 20
0.0469293
 30
0.0
 40
0
 41
0
  0
VERTEX
  8
0
 10
0.336697
 20
0.0476887
 30
0.0
 40
0
 41
0
  0
VERTEX
  8
0
 10
0.335449
 20
0.0485026
 30
0.0
 40
0
 41
0
  0
VERTEX
  8
0
 10
0.33431
 20
0.0492622
 30
0.0
 40
0
 41
0
  0
VERTEX
  8
0
 10
0.332249
 20
0.0507813
 30
0.0
 40
0
 41
0
  0
VERTEX
  8
0
 10
0.331326
 20
0.0514865
 30
0.0
 40
0
 41
0
  0
VERTEX
  8
0
 10
0.330458
 20
0.0521918
 30
0.0
 40
0
 41
0
  0
VERTEX
  8
0
 10
0.329644
 20
0.0528971
 30
0.0
 40
0
 41
0
  0
VERTEX
  8
0
 10
0.328885
 20
0.0534939
 30
0.0
 40
0
 41
0
  0
VERTEX
  8
0
 10
0.328179
 20
0.0540907
 30
0.0
 40
0
 41
0
  0
VERTEX
  8
0
 10
0.327528
 20
0.0546875
 30
0.0
 40
0
 41
0
  0
VERTEX
  8
0
 10
0.326443
 20
0.0557726
 30
0.0
 40
0
 41
0
  0
VERTEX
  8
0
 10
0.32601
 20
0.0562608
 30
0.0
 40
0
 41
0
  0
VERTEX
  8
0
 10
0.325196
 20
0.0570747
 30
0.0
 40
0
 41
0
  0
VERTEX
  8
0
 10
0.324924
 20
0.0574544
 30
0.0
 40
0
 41
0
  0
VERTEX
  8
0
 10
0.324653
 20
0.05778
 30
0.0
 40
0
 41
0
  0
VERTEX
  8
0
 10
0.324436
 20
0.0579969
 30
0.0
 40
0
 41
0
  0
VERTEX
  8
0
 10
0.324274
 20
0.0582682
 30
0.0
 40
0
 41
0
  0
VERTEX
  8
0
 10
0.32411
 20
0.058431
 30
0.0
 40
0
 41
0
  0
VERTEX
  8
0
 10
0.324056
 20
0.0585394
 30
0.0
 40
0
 41
0
  0
VERTEX
  8
0
 10
0.324001
 20
0.0585938
 30
0.0
 40
0
 41
0
  0
VERTEX
  8
0
 10
0.314074
 20
0.0737847
 30
0.0
 40
0
 41
0
  0
VERTEX
  8
0
 10
0.28966
 20
0.0604383
 30
0.0
 40
0
 41
0
  0
VERTEX
  8
0
 10
0.297146
 20
0.0438911
 30
0.0
 40
0
 41
0
  0
VERTEX
  8
0
 10
0.297254
 20
0.043674
 30
0.0
 40
0
 41
0
  0
VERTEX
  8
0
 10
0.29731
 20
0.0434571
 30
0.0
 40
0
 41
0
  0
VERTEX
  8
0
 10
0.297418
 20
0.04324
 30
0.0
 40
0
 41
0
  0
VERTEX
  8
0
 10
0.297526
 20
0.0429144
 30
0.0
 40
0
 41
0
  0
VERTEX
  8
0
 10
0.297743
 20
0.0420464
 30
0.0
 40
0
 41
0
  0
VERTEX
  8
0
 10
0.298068
 20
0.0409614
 30
0.0
 40
0
 41
0
  0
VERTEX
  8
0
 10
0.298232
 20
0.0403103
 30
0.0
 40
0
 41
0
  0
VERTEX
  8
0
 10
0.29834
 20
0.0395508
 30
0.0
 40
0
 41
0
  0
VERTEX
  8
0
 10
0.298503
 20
0.0387912
 30
0.0
 40
0
 41
0
  0
VERTEX
  8
0
 10
0.298828
 20
0.0370551
 30
0.0
 40
0
 41
0
  0
VERTEX
  8
0
 10
0.298936
 20
0.0360786
 30
0.0
 40
0
 41
0
  0
VERTEX
  8
0
 10
0.2991
 20
0.0349935
 30
0.0
 40
0
 41
0
  0
VERTEX
  8
0
 10
0.299208
 20
0.0339085
 30
0.0
 40
0
 41
0
  0
VERTEX
  8
0
 10
0.299317
 20
0.0327149
 30
0.0
 40
0
 41
0
  0
VERTEX
  8
0
 10
0.299371
 20
0.0314671
 30
0.0
 40
0
 41
0
  0
VERTEX
  8
0
 10
0.299425
 20
0.030165
 30
0.0
 40
0
 41
0
  0
VERTEX
  8
0
 10
0.299479
 20
0.0288086
 30
0.0
 40
0
 41
0
  0
VERTEX
  8
0
 10
0.299479
 20
0.0242513
 30
0.0
 40
0
 41
0
  0
VERTEX
  8
0
 10
0.299371
 20
0.0226237
 30
0.0
 40
0
 41
0
  0
VERTEX
  8
0
 10
0.299262
 20
0.0209418
 30
0.0
 40
0
 41
0
  0
VERTEX
  8
0
 10
0.299154
 20
0.0191515
 30
0.0
 40
0
 41
0
  0
VERTEX
  8
0
 10
0.298936
 20
0.0173611
 30
0.0
 40
0
 41
0
  0
VERTEX
  8
0
 10
0.298774
 20
0.0157335
 30
0.0
 40
0
 41
0
  0
VERTEX
  8
0
 10
0.298178
 20
0.0154622
 30
0.0
 40
0
 41
0
  0
VERTEX
  8
0
 10
0.283149
 20
0.0102539
 30
0.0
 40
0
 41
0
  0
VERTEX
  8
0
 10
0.282553
 20
0.0100912
 30
0.0
 40
0
 41
0
  0
VERTEX
  8
0
 10
0.280111
 20
0.0125326
 30
0.0
 40
0
 41
0
  0
VERTEX
  8
0
 10
0.278917
 20
0.0138346
 30
0.0
 40
0
 41
0
  0
VERTEX
  8
0
 10
0.277778
 20
0.0150825
 30
0.0
 40
0
 41
0
  0
VERTEX
  8
0
 10
0.276693
 20
0.0163303
 30
0.0
 40
0
 41
0
  0
VERTEX
  8
0
 10
0.27474
 20
0.0187175
 30
0.0
 40
0
 41
0
  0
VERTEX
  8
0
 10
0.273872
 20
0.0198568
 30
0.0
 40
0
 41
0
  0
VERTEX
  8
0
 10
0.273058
 20
0.0209418
 30
0.0
 40
0
 41
0
  0
VERTEX
  8
0
 10
0.272299
 20
0.0219726
 30
0.0
 40
0
 41
0
  0
VERTEX
  8
0
 10
0.271593
 20
0.0230578
 30
0.0
 40
0
 41
0
  0
VERTEX
  8
0
 10
0.270942
 20
0.0240343
 30
0.0
 40
0
 41
0
  0
VERTEX
  8
0
 10
0.27029
 20
0.0249567
 30
0.0
 40
0
 41
0
  0
VERTEX
  8
0
 10
0.269749
 20
0.0258789
 30
0.0
 40
0
 41
0
  0
VERTEX
  8
0
 10
0.26926
 20
0.0266928
 30
0.0
 40
0
 41
0
  0
VERTEX
  8
0
 10
0.268826
 20
0.0275065
 30
0.0
 40
0
 41
0
  0
VERTEX
  8
0
 10
0.268392
 20
0.0282661
 30
0.0
 40
0
 41
0
  0
VERTEX
  8
0
 10
0.268012
 20
0.0289714
 30
0.0
 40
0
 41
0
  0
VERTEX
  8
0
 10
0.267686
 20
0.0296224
 30
0.0
 40
0
 41
0
  0
VERTEX
  8
0
 10
0.267415
 20
0.0302192
 30
0.0
 40
0
 41
0
  0
VERTEX
  8
0
 10
0.267199
 20
0.0307617
 30
0.0
 40
0
 41
0
  0
VERTEX
  8
0
 10
0.266764
 20
0.0317383
 30
0.0
 40
0
 41
0
  0
VERTEX
  8
0
 10
0.266656
 20
0.0321181
 30
0.0
 40
0
 41
0
  0
VERTEX
  8
0
 10
0.266439
 20
0.0326606
 30
0.0
 40
0
 41
0
  0
VERTEX
  8
0
 10
0.266385
 20
0.0328776
 30
0.0
 40
0
 41
0
  0
VERTEX
  8
0
 10
0.266331
 20
0.0330404
 30
0.0
 40
0
 41
0
  0
VERTEX
  8
0
 10
0.266276
 20
0.0330946
 30
0.0
 40
0
 41
0
  0
VERTEX
  8
0
 10
0.261828
 20
0.0506728
 30
0.0
 40
0
 41
0
  0
VERTEX
  8
0
 10
0.234429
 20
0.0459526
 30
0.0
 40
0
 41
0
  0
VERTEX
  8
0
 10
0.236111
 20
0.0278863
 30
0.0
 40
0
 41
0
  0
VERTEX
  8
0
 10
0.236111
 20
0.0276693
 30
0.0
 40
0
 41
0
  0
VERTEX
  8
0
 10
0.236165
 20
0.0274522
 30
0.0
 40
0
 41
0
  0
VERTEX
  8
0
 10
0.236165
 20
0.0268554
 30
0.0
 40
0
 41
0
  0
VERTEX
  8
0
 10
0.236111
 20
0.0264214
 30
0.0
 40
0
 41
0
  0
VERTEX
  8
0
 10
0.236111
 20
0.0259874
 30
0.0
 40
0
 41
0
  0
VERTEX
  8
0
 10
0.236057
 20
0.0254449
 30
0.0
 40
0
 41
0
  0
VERTEX
  8
0
 10
0.236003
 20
0.0248481
 30
0.0
 40
0
 41
0
  0
VERTEX
  8
0
 10
0.235949
 20
0.0241971
 30
0.0
 40
0
 41
0
  0
VERTEX
  8
0
 10
0.235894
 20
0.0234375
 30
0.0
 40
0
 41
0
  0
VERTEX
  8
0
 10
0.235786
 20
0.0226237
 30
0.0
 40
0
 41
0
  0
VERTEX
  8
0
 10
0.235622
 20
0.0218099
 30
0.0
 40
0
 41
0
  0
VERTEX
  8
0
 10
0.23546
 20
0.0208876
 30
0.0
 40
0
 41
0
  0
VERTEX
  8
0
 10
0.235297
 20
0.019911
 30
0.0
 40
0
 41
0
  0
VERTEX
  8
0
 10
0.235081
 20
0.0188803
 30
0.0
 40
0
 41
0
  0
VERTEX
  8
0
 10
0.23481
 20
0.0177951
 30
0.0
 40
0
 41
0
  0
VERTEX
  8
0
 10
0.234537
 20
0.0166558
 30
0.0
 40
0
 41
0
  0
VERTEX
  8
0
 10
0.234213
 20
0.0154622
 30
0.0
 40
0
 41
0
  0
VERTEX
  8
0
 10
0.233453
 20
0.0128581
 30
0.0
 40
0
 41
0
  0
VERTEX
  8
0
 10
0.232964
 20
0.0115017
 30
0.0
 40
0
 41
0
  0
VERTEX
  8
0
 10
0.232476
 20
0.0100912
 30
0.0
 40
0
 41
0
  0
VERTEX
  8
0
 10
0.231933
 20
0.00862631
 30
0.0
 40
0
 41
0
  0
VERTEX
  8
0
 10
0.231337
 20
0.00710721
 30
0.0
 40
0
 41
0
  0
VERTEX
  8
0
 10
0.230686
 20
0.0054796
 30
0.0
 40
0
 41
0
  0
VERTEX
  8
0
 10
0.229981
 20
0.00390625
 30
0.0
 40
0
 41
0
  0
VERTEX
  8
0
 10
0.229221
 20
0.00222439
 30
0.0
 40
0
 41
0
  0
VERTEX
  8
0
 10
0.228515
 20
0.000759549
 30
0.0
 40
0
 41
0
  0
VERTEX
  8
0
 10
0.227865
 20
0.000705296
 30
0.0
 40
0
 41
0
  0
VERTEX
  8
0
 10
0.211968
 20
0.000651042
 30
0.0
 40
0
 41
0
  0
VERTEX
  8
0
 10
0.211317
 20
0.000651042
 30
0.0
 40
0
 41
0
  0
VERTEX
  8
0
 10
0.210612
 20
0.00211589
 30
0.0
 40
0
 41
0
  0
VERTEX
  8
0
 10
0.209853
 20
0.00374349
 30
0.0
 40
0
 41
0
  0
VERTEX
  8
0
 10
0.209147
 20
0.0053711
 30
0.0
 40
0
 41
0
  0
VERTEX
  8
0
 10
0.208442
 20
0.00694444
 30
0.0
 40
0
 41
0
  0
VERTEX
  8
0
 10
0.207844
 20
0.00846354
 30
0.0
 40
0
 41
0
  0
VERTEX
  8
0
 10
0.207303
 20
0.00992839
 30
0.0
 40
0
 41
0
  0
VERTEX
  8
0
 10
0.20676
 20
0.011339
 30
0.0
 40
0
 41
0
  0
VERTEX
  8
0
 10
0.206326
 20
0.0126953
 30
0.0
 40
0
 41
0
  0
VERTEX
  8
0
 10
0.205892
 20
0.0139974
 30
0.0
 40
0
 41
0
  0
VERTEX
  8
0
 10
0.205512
 20
0.0152994
 30
0.0
 40
0
 41
0
  0
VERTEX
  8
0
 10
0.205186
 20
0.0164931
 30
0.0
 40
0
 41
0
  0
VERTEX
  8
0
 10
0.204861
 20
0.0176324
 30
0.0
 40
0
 41
0
  0
VERTEX
  8
0
 10
0.20459
 20
0.0187175
 30
0.0
 40
0
 41
0
  0
VERTEX
  8
0
 10
0.204372
 20
0.0197483
 30
0.0
 40
0
 41
0
  0
VERTEX
  8
0
 10
0.204156
 20
0.0207249
 30
0.0
 40
0
 41
0
  0
VERTEX
  8
0
 10
0.203993
 20
0.0216471
 30
0.0
 40
0
 41
0
  0
VERTEX
  8
0
 10
0.203885
 20
0.022461
 30
0.0
 40
0
 41
0
  0
VERTEX
  8
0
 10
0.203722
 20
0.0232747
 30
0.0
 40
0
 41
0
  0
VERTEX
  8
0
 10
0.203614
 20
0.02398
 30
0.0
 40
0
 41
0
  0
VERTEX
  8
0
 10
0.20356
 20
0.0246311
 30
0.0
 40
0
 41
0
  0
VERTEX
  8
0
 10
0.203504
 20
0.0252279
 30
0.0
 40
0
 41
0
  0
VERTEX
  8
0
 10
0.20345
 20
0.0257704
 30
0.0
 40
0
 41
0
  0
VERTEX
  8
0
 10
0.20345
 20
0.0277235
 30
0.0
 40
0
 41
0
  0
VERTEX
  8
0
 10
0.204915
 20
0.04579
 30
0.0
 40
0
 41
0
  0
VERTEX
  8
0
 10
0.177462
 20
0.0502387
 30
0.0
 40
0
 41
0
  0
VERTEX
  8
0
 10
0.173232
 20
0.0326064
 30
0.0
 40
0
 41
0
  0
VERTEX
  8
0
 10
0.173178
 20
0.0325521
 30
0.0
 40
0
 41
0
  0
VERTEX
  8
0
 10
0.173122
 20
0.0323893
 30
0.0
 40
0
 41
0
  0
VERTEX
  8
0
 10
0.173068
 20
0.0321724
 30
0.0
 40
0
 41
0
  0
VERTEX
  8
0
 10
0.173014
 20
0.0319011
 30
0.0
 40
0
 41
0
  0
VERTEX
  8
0
 10
0.172906
 20
0.0315756
 30
0.0
 40
0
 41
0
  0
VERTEX
  8
0
 10
0.172743
 20
0.0311957
 30
0.0
 40
0
 41
0
  0
VERTEX
  8
0
 10
0.172581
 20
0.0307617
 30
0.0
 40
0
 41
0
  0
VERTEX
  8
0
 10
0.172364
 20
0.0302735
 30
0.0
 40
0
 41
0
  0
VERTEX
  8
0
 10
0.172092
 20
0.029731
 30
0.0
 40
0
 41
0
  0
VERTEX
  8
0
 10
0.171821
 20
0.0291342
 30
0.0
 40
0
 41
0
  0
VERTEX
  8
0
 10
0.17155
 20
0.0284831
 30
0.0
 40
0
 41
0
  0
VERTEX
  8
0
 10
0.17079
 20
0.026964
 30
0.0
 40
0
 41
0
  0
VERTEX
  8
0
 10
0.170301
 20
0.0262044
 30
0.0
 40
0
 41
0
  0
VERTEX
  8
0
 10
0.169814
 20
0.0252821
 30
0.0
 40
0
 41
0
  0
VERTEX
  8
0
 10
0.169271
 20
0.024414
 30
0.0
 40
0
 41
0
  0
VERTEX
  8
0
 10
0.168674
 20
0.0234375
 30
0.0
 40
0
 41
0
  0
VERTEX
  8
0
 10
0.168024
 20
0.022461
 30
0.0
 40
0
 41
0
  0
VERTEX
  8
0
 10
0.167372
 20
0.0214301
 30
0.0
 40
0
 41
0
  0
VERTEX
  8
0
 10
0.166613
 20
0.020345
 30
0.0
 40
0
 41
0
  0
VERTEX
  8
0
 10
0.165799
 20
0.01926
 30
0.0
 40
0
 41
0
  0
VERTEX
  8
0
 10
0.164931
 20
0.0181207
 30
0.0
 40
0
 41
0
  0
VERTEX
  8
0
 10
0.163954
 20
0.0169271
 30
0.0
 40
0
 41
0
  0
VERTEX
  8
0
 10
0.162978
 20
0.0156793
 30
0.0
 40
0
 41
0
  0
VERTEX
  8
0
 10
0.161947
 20
0.0144857
 30
0.0
 40
0
 41
0
  0
VERTEX
  8
0
 10
0.160807
 20
0.0131836
 30
0.0
 40
0
 41
0
  0
VERTEX
  8
0
 10
0.159614
 20
0.0118815
 30
0.0
 40
0
 41
0
  0
VERTEX
  8
0
 10
0.158365
 20
0.0105794
 30
0.0
 40
0
 41
0
  0
VERTEX
  8
0
 10
0.157226
 20
0.00938585
 30
0.0
 40
0
 41
0
  0
VERTEX
  8
0
 10
0.156575
 20
0.00954861
 30
0.0
 40
0
 41
0
  0
VERTEX
  8
0
 10
0.141493
 20
0.0146485
 30
0.0
 40
0
 41
0
  0
VERTEX
  8
0
 10
0.14095
 20
0.0148654
 30
0.0
 40
0
 41
0
  0
VERTEX
  8
0
 10
0.140733
 20
0.0164931
 30
0.0
 40
0
 41
0
  0
VERTEX
  8
0
 10
0.140517
 20
0.0182835
 30
0.0
 40
0
 41
0
  0
VERTEX
  8
0
 10
0.140354
 20
0.0200738
 30
0.0
 40
0
 41
0
  0
VERTEX
  8
0
 10
0.140246
 20
0.0217557
 30
0.0
 40
0
 41
0
  0
VERTEX
  8
0
 10
0.140136
 20
0.0233832
 30
0.0
 40
0
 41
0
  0
VERTEX
  8
0
 10
0.140082
 20
0.0249567
 30
0.0
 40
0
 41
0
  0
VERTEX
  8
0
 10
0.140082
 20
0.0292969
 30
0.0
 40
0
 41
0
  0
VERTEX
  8
0
 10
0.140136
 20
0.030599
 30
0.0
 40
0
 41
0
  0
VERTEX
  8
0
 10
0.140192
 20
0.0318468
 30
0.0
 40
0
 41
0
  0
VERTEX
  8
0
 10
0.1403
 20
0.0330404
 30
0.0
 40
0
 41
0
  0
VERTEX
  8
0
 10
0.140408
 20
0.0341797
 30
0.0
 40
0
 41
0
  0
VERTEX
  8
0
 10
0.140517
 20
0.0352106
 30
0.0
 40
0
 41
0
  0
VERTEX
  8
0
 10
0.140625
 20
0.0361871
 30
0.0
 40
0
 41
0
  0
VERTEX
  8
0
 10
0.140787
 20
0.0371094
 30
0.0
 40
0
 41
0
  0
VERTEX
  8
0
 10
0.14095
 20
0.0379232
 30
0.0
 40
0
 41
0
  0
VERTEX
  8
0
 10
0.14106
 20
0.0387369
 30
0.0
 40
0
 41
0
  0
VERTEX
  8
0
 10
0.141222
 20
0.0394422
 30
0.0
 40
0
 41
0
  0
VERTEX
  8
0
 10
0.141331
 20
0.0400933
 30
0.0
 40
0
 41
0
  0
VERTEX
  8
0
 10
0.141493
 20
0.0406901
 30
0.0
 40
0
 41
0
  0
VERTEX
  8
0
 10
0.141656
 20
0.0411783
 30
0.0
 40
0
 41
0
  0
VERTEX
  8
0
 10
0.141764
 20
0.0416667
 30
0.0
 40
0
 41
0
  0
VERTEX
  8
0
 10
0.141872
 20
0.0420464
 30
0.0
 40
0
 41
0
  0
VERTEX
  8
0
 10
0.141982
 20
0.0423719
 30
0.0
 40
0
 41
0
  0
VERTEX
  8
0
 10
0.14209
 20
0.0426432
 30
0.0
 40
0
 41
0
  0
VERTEX
  8
0
 10
0.142199
 20
0.0429688
 30
0.0
 40
0
 41
0
  0
VERTEX
  8
0
 10
0.142253
 20
0.0430231
 30
0.0
 40
0
 41
0
  0
VERTEX
  8
0
 10
0.149522
 20
0.0596789
 30
0.0
 40
0
 41
0
  0
VERTEX
  8
0
 10
0.125
 20
0.0728082
 30
0.0
 40
0
 41
0
  0
VERTEX
  8
0
 10
0.115234
 20
0.0574544
 30
0.0
 40
0
 41
0
  0
VERTEX
  8
0
 10
0.11518
 20
0.0574001
 30
0.0
 40
0
 41
0
  0
VERTEX
  8
0
 10
0.115126
 20
0.0572917
 30
0.0
 40
0
 41
0
  0
VERTEX
  8
0
 10
0.114963
 20
0.0571289
 30
0.0
 40
0
 41
0
  0
VERTEX
  8
0
 10
0.1148
 20
0.0568576
 30
0.0
 40
0
 41
0
  0
VERTEX
  8
0
 10
0.114583
 20
0.0566407
 30
0.0
 40
0
 41
0
  0
VERTEX
  8
0
 10
0.114312
 20
0.0563151
 30
0.0
 40
0
 41
0
  0
VERTEX
  8
0
 10
0.114041
 20
0.0559353
 30
0.0
 40
0
 41
0
  0
VERTEX
  8
0
 10
0.113661
 20
0.0555556
 30
0.0
 40
0
 41
0
  0
VERTEX
  8
0
 10
0.113281
 20
0.0550672
 30
0.0
 40
0
 41
0
  0
VERTEX
  8
0
 10
0.112793
 20
0.0546332
 30
0.0
 40
0
 41
0
  0
VERTEX
  8
0
 10
0.112305
 20
0.0540907
 30
0.0
 40
0
 41
0
  0
VERTEX
  8
0
 10
0.111708
 20
0.0535482
 30
0.0
 40
0
 41
0
  0
VERTEX
  8
0
 10
0.111111
 20
0.0529514
 30
0.0
 40
0
 41
0
  0
VERTEX
  8
0
 10
0.109701
 20
0.0516493
 30
0.0
 40
0
 41
0
  0
VERTEX
  8
0
 10
0.108887
 20
0.0509983
 30
0.0
 40
0
 41
0
  0
VERTEX
  8
0
 10
0.107964
 20
0.0502929
 30
0.0
 40
0
 41
0
  0
VERTEX
  8
0
 10
0.107096
 20
0.0495335
 30
0.0
 40
0
 41
0
  0
VERTEX
  8
0
 10
0.106066
 20
0.0488282
 30
0.0
 40
0
 41
0
  0
VERTEX
  8
0
 10
0.10498
 20
0.0480686
 30
0.0
 40
0
 41
0
  0
VERTEX
  8
0
 10
0.103895
 20
0.0472547
 30
0.0
 40
0
 41
0
  0
VERTEX
  8
0
 10
0.102702
 20
0.046441
 30
0.0
 40
0
 41
0
  0
VERTEX
  8
0
 10
0.100098
 20
0.0448133
 30
0.0
 40
0
 41
0
  0
VERTEX
  8
0
 10
0.0986871
 20
0.0439996
 30
0.0
 40
0
 41
0
  0
VERTEX
  8
0
 10
0.0971679
 20
0.0431315
 30
0.0
 40
0
 41
0
  0
VERTEX
  8
0
 10
0.0956489
 20
0.0423178
 30
0.0
 40
0
 41
0
  0
VERTEX
  8
0
 10
0.0940212
 20
0.0414497
 30
0.0
 40
0
 41
0
  0
VERTEX
  8
0
 10
0.0925564
 20
0.0407443
 30
0.0
 40
0
 41
0
  0
VERTEX
  8
0
 10
0.0920139
 20
0.0410699
 30
0.0
 40
0
 41
0
  0
VERTEX
  8
0
 10
0.0794271
 20
0.0507813
 30
0.0
 40
0
 41
0
  0
VERTEX
  8
0
 10
0.0789387
 20
0.0512153
 30
0.0
 40
0
 41
0
  0
VERTEX
  8
0
 10
0.0792643
 20
0.0527886
 30
0.0
 40
0
 41
0
  0
VERTEX
  8
0
 10
0.0796983
 20
0.054579
 30
0.0
 40
0
 41
0
  0
VERTEX
  8
0
 10
0.0800782
 20
0.0563151
 30
0.0
 40
0
 41
0
  0
VERTEX
  8
0
 10
0.0805122
 20
0.0579428
 30
0.0
 40
0
 41
0
  0
VERTEX
  8
0
 10
0.0810004
 20
0.0595161
 30
0.0
 40
0
 41
0
  0
VERTEX
  8
0
 10
0.0814344
 20
0.0610351
 30
0.0
 40
0
 41
0
  0
VERTEX
  8
0
 10
0.0819228
 20
0.0624457
 30
0.0
 40
0
 41
0
  0
VERTEX
  8
0
 10
0.0823568
 20
0.0638021
 30
0.0
 40
0
 41
0
  0
VERTEX
  8
0
 10
0.082845
 20
0.0651042
 30
0.0
 40
0
 41
0
  0
VERTEX
  8
0
 10
0.0833333
 20
0.0663519
 30
0.0
 40
0
 41
0
  0
VERTEX
  8
0
 10
0.0837674
 20
0.0674914
 30
0.0
 40
0
 41
0
  0
VERTEX
  8
0
 10
0.0842557
 20
0.0685764
 30
0.0
 40
0
 41
0
  0
VERTEX
  8
0
 10
0.0846897
 20
0.0696072
 30
0.0
 40
0
 41
0
  0
VERTEX
  8
0
 10
0.0856119
 20
0.0714518
 30
0.0
 40
0
 41
0
  0
VERTEX
  8
0
 10
0.0859918
 20
0.0722657
 30
0.0
 40
0
 41
0
  0
VERTEX
  8
0
 10
0.0864258
 20
0.0730251
 30
0.0
 40
0
 41
0
  0
VERTEX
  8
0
 10
0.0868056
 20
0.0737304
 30
0.0
 40
0
 41
0
  0
VERTEX
  8
0
 10
0.0871853
 20
0.0743272
 30
0.0
 40
0
 41
0
  0
VERTEX
  8
0
 10
0.0875651
 20
0.0748699
 30
0.0
 40
0
 41
0
  0
VERTEX
  8
0
 10
0.0878907
 20
0.0754124
 30
0.0
 40
0
 41
0
  0
VERTEX
  8
0
 10
0.0881619
 20
0.0758464
 30
0.0
 40
0
 41
0
  0
VERTEX
  8
0
 10
0.0887044
 20
0.076606
 30
0.0
 40
0
 41
0
  0
VERTEX
  8
0
 10
0.0888672
 20
0.0768229
 30
0.0
 40
0
 41
0
  0
VERTEX
  8
0
 10
0.08903
 20
0.0770942
 30
0.0
 40
0
 41
0
  0
VERTEX
  8
0
 10
0.0893554
 20
0.0774197
 30
0.0
 40
0
 41
0
  0
VERTEX
  8
0
 10
0.101671
 20
0.0907661
 30
0.0
 40
0
 41
0
  0
VERTEX
  8
0
 10
0.0826824
 20
0.111111
 30
0.0
 40
0
 41
0
  0
VERTEX
  8
0
 10
0.0684679
 20
0.0998264
 30
0.0
 40
0
 41
0
  0
VERTEX
  8
0
 10
0.0684136
 20
0.0997721
 30
0.0
 40
0
 41
0
  0
VERTEX
  8
0
 10
0.0683051
 20
0.0997179
 30
0.0
 40
0
 41
0
  0
VERTEX
  8
0
 10
0.0678711
 20
0.0993924
 30
0.0
 40
0
 41
0
  0
VERTEX
  8
0
 10
0.0675999
 20
0.0992296
 30
0.0
 40
0
 41
0
  0
VERTEX
  8
0
 10
0.0672743
 20
0.0990126
 30
0.0
 40
0
 41
0
  0
VERTEX
  8
0
 10
0.0668403
 20
0.0987956
 30
0.0
 40
0
 41
0
  0
VERTEX
  8
0
 10
0.0664063
 20
0.0985243
 30
0.0
 40
0
 41
0
  0
VERTEX
  8
0
 10
0.0658637
 20
0.0982531
 30
0.0
 40
0
 41
0
  0
VERTEX
  8
0
 10
0.0652669
 20
0.0979275
 30
0.0
 40
0
 41
0
  0
VERTEX
  8
0
 10
0.0646158
 20
0.0976019
 30
0.0
 40
0
 41
0
  0
VERTEX
  8
0
 10
0.0639106
 20
0.0972765
 30
0.0
 40
0
 41
0
  0
VERTEX
  8
0
 10
0.0622831
 20
0.0965169
 30
0.0
 40
0
 41
0
  0
VERTEX
  8
0
 10
0.0613607
 20
0.0961372
 30
0.0
 40
0
 41
0
  0
VERTEX
  8
0
 10
0.0603842
 20
0.0957574
 30
0.0
 40
0
 41
0
  0
VERTEX
  8
0
 10
0.058214
 20
0.0949978
 30
0.0
 40
0
 41
0
  0
VERTEX
  8
0
 10
0.0570204
 20
0.0946181
 30
0.0
 40
0
 41
0
  0
VERTEX
  8
0
 10
0.0557726
 20
0.0942383
 30
0.0
 40
0
 41
0
  0
VERTEX
  8
0
 10
0.0544162
 20
0.0938585
 30
0.0
 40
0
 41
0
  0
VERTEX
  8
0
 10
0.0530057
 20
0.0934788
 30
0.0
 40
0
 41
0
  0
VERTEX
  8
0
 10
0.0515408
 20
0.093099
 30
0.0
 40
0
 41
0
  0
VERTEX
  8
0
 10
0.0500217
 20
0.0927735
 30
0.0
 40
0
 41
0
  0
VERTEX
  8
0
 10
0.0484483
 20
0.0924479
 30
0.0
 40
0
 41
0
  0
VERTEX
  8
0
 10
0.0467665
 20
0.0921224
 30
0.0
 40
0
 41
0
  0
VERTEX
  8
0
 10
0.0450304
 20
0.0918511
 30
0.0
 40
0
 41
0
  0
VERTEX
  8
0
 10
0.0431858
 20
0.0915799
 30
0.0
 40
0
 41
0
  0
VERTEX
  8
0
 10
0.0416124
 20
0.0913629
 30
0.0
 40
0
 41
0
  0
VERTEX
  8
0
 10
0.0412326
 20
0.0918511
 30
0.0
 40
0
 41
0
  0
VERTEX
  8
0
 10
0.0324436
 20
0.105143
 30
0.0
 40
0
 41
0
  0
VERTEX
  8
0
 10
0.0321181
 20
0.105686
 30
0.0
 40
0
 41
0
  0
VERTEX
  8
0
 10
0.0329318
 20
0.107096
 30
0.0
 40
0
 41
0
  0
VERTEX
  8
0
 10
0.0339085
 20
0.108615
 30
0.0
 40
0
 41
0
  0
VERTEX
  8
0
 10
0.0348307
 20
0.110135
 30
0.0
 40
0
 41
0
  0
VERTEX
  8
0
 10
0.0358074
 20
0.111545
 30
0.0
 40
0
 41
0
  0
VERTEX
  8
0
 10
0.0367296
 20
0.112902
 30
0.0
 40
0
 41
0
  0
VERTEX
  8
0
 10
0.0376519
 20
0.114149
 30
0.0
 40
0
 41
0
  0
VERTEX
  8
0
 10
0.0385742
 20
0.115343
 30
0.0
 40
0
 41
0
  0
VERTEX
  8
0
 10
0.0394422
 20
0.116482
 30
0.0
 40
0
 41
0
  0
VERTEX
  8
0
 10
0.0403103
 20
0.117567
 30
0.0
 40
0
 41
0
  0
VERTEX
  8
0
 10
0.0411783
 20
0.118598
 30
0.0
 40
0
 41
0
  0
VERTEX
  8
0
 10
0.0419922
 20
0.11952
 30
0.0
 40
0
 41
0
  0
VERTEX
  8
0
 10
0.042806
 20
0.120388
 30
0.0
 40
0
 41
0
  0
VERTEX
  8
0
 10
0.0435656
 20
0.121202
 30
0.0
 40
0
 41
0
  0
VERTEX
  8
0
 10
0.0442708
 20
0.121962
 30
0.0
 40
0
 41
0
  0
VERTEX
  8
0
 10
0.0449761
 20
0.122667
 30
0.0
 40
0
 41
0
  0
VERTEX
  8
0
 10
0.0456814
 20
0.123318
 30
0.0
 40
0
 41
0
  0
VERTEX
  8
0
 10
0.046875
 20
0.124403
 30
0.0
 40
0
 41
0
  0
VERTEX
  8
0
 10
0.0474718
 20
0.124892
 30
0.0
 40
0
 41
0
  0
VERTEX
  8
0
 10
0.0484483
 20
0.125651
 30
0.0
 40
0
 41
0
  0
VERTEX
  8
0
 10
0.0488282
 20
0.125977
 30
0.0
 40
0
 41
0
  0
VERTEX
  8
0
 10
0.0492622
 20
0.126302
 30
0.0
 40
0
 41
0
  0
VERTEX
  8
0
 10
0.0495876
 20
0.126519
 30
0.0
 40
0
 41
0
  0
VERTEX
  8
0
 10
0.0498589
 20
0.126736
 30
0.0
 40
0
 41
0
  0
VERTEX
  8
0
 10
0.050076
 20
0.126845
 30
0.0
 40
0
 41
0
  0
VERTEX
  8
0
 10
0.0504015
 20
0.127062
 30
0.0
 40
0
 41
0
  0
VERTEX
  8
0
 10
0.0504557
 20
0.127062
 30
0.0
 40
0
 41
0
  0
VERTEX
  8
0
 10
0.0664063
 20
0.135742
 30
0.0
 40
0
 41
0
  0
VERTEX
  8
0
 10
0.0551215
 20
0.161133
 30
0.0
 40
0
 41
0
  0
VERTEX
  8
0
 10
0.0380317
 20
0.155057
 30
0.0
 40
0
 41
0
  0
VERTEX
  8
0
 10
0.0379232
 20
0.155057
 30
0.0
 40
0
 41
0
  0
VERTEX
  8
0
 10
0.0375976
 20
0.154949
 30
0.0
 40
0
 41
0
  0
VERTEX
  8
0
 10
0.0373264
 20
0.154893
 30
0.0
 40
0
 41
0
  0
VERTEX
  8
0
 10
0.0370008
 20
0.154785
 30
0.0
 40
0
 41
0
  0
VERTEX
  8
0
 10
0.0365668
 20
0.154676
 30
0.0
 40
0
 41
0
  0
VERTEX
  8
0
 10
0.0361328
 20
0.154622
 30
0.0
 40
0
 41
0
  0
VERTEX
  8
0
 10
0.0355903
 20
0.154514
 30
0.0
 40
0
 41
0
  0
VERTEX
  8
0
 10
0.0349935
 20
0.154406
 30
0.0
 40
0
 41
0
  0
VERTEX
  8
0
 10
0.0343425
 20
0.154297
 30
0.0
 40
0
 41
0
  0
VERTEX
  8
0
 10
0.0336372
 20
0.154189
 30
0.0
 40
0
 41
0
  0
VERTEX
  8
0
 10
0.0328233
 20
0.154135
 30
0.0
 40
0
 41
0
  0
VERTEX
  8
0
 10
0.0319553
 20
0.154025
 30
0.0
 40
0
 41
0
  0
VERTEX
  8
0
 10
0.0310331
 20
0.153971
 30
0.0
 40
0
 41
0
  0
VERTEX
  8
0
 10
0.0300564
 20
0.153917
 30
0.0
 40
0
 41
0
  0
VERTEX
  8
0
 10
0.0290256
 20
0.153863
 30
0.0
 40
0
 41
0
  0
VERTEX
  8
0
 10
0.0278863
 20
0.153863
 30
0.0
 40
0
 41
0
  0
VERTEX
  8
0
 10
0.0266928
 20
0.153808
 30
0.0
 40
0
 41
0
  0
VERTEX
  8
0
 10
0.0254449
 20
0.153863
 30
0.0
 40
0
 41
0
  0
VERTEX
  8
0
 10
0.0241428
 20
0.153917
 30
0.0
 40
0
 41
0
  0
VERTEX
  8
0
 10
0.0227865
 20
0.153971
 30
0.0
 40
0
 41
0
  0
VERTEX
  8
0
 10
0.0213217
 20
0.154081
 30
0.0
 40
0
 41
0
  0
VERTEX
  8
0
 10
0.0182835
 20
0.154406
 30
0.0
 40
0
 41
0
  0
VERTEX
  8
0
 10
0.0166558
 20
0.154568
 30
0.0
 40
0
 41
0
  0
VERTEX
  8
0
 10
0.014974
 20
0.154839
 30
0.0
 40
0
 41
0
  0
VERTEX
  8
0
 10
0.0132378
 20
0.155111
 30
0.0
 40
0
 41
0
  0
VERTEX
  8
0
 10
0.0113932
 20
0.155436
 30
0.0
 40
0
 41
0
  0
VERTEX
  8
0
 10
0.00987414
 20
0.155761
 30
0.0
 40
0
 41
0
  0
VERTEX
  8
0
 10
0.00960286
 20
0.156358
 30
0.0
 40
0
 41
0
  0
VERTEX
  8
0
 10
0.00564236
 20
0.171767
 30
0.0
 40
0
 41
0
  0
VERTEX
  8
0
 10
0.00553386
 20
0.172418
 30
0.0
 40
0
 41
0
  0
VERTEX
  8
0
 10
0.00678168
 20
0.173449
 30
0.0
 40
0
 41
0
  0
VERTEX
  8
0
 10
0.00813803
 20
0.174588
 30
0.0
 40
0
 41
0
  0
VERTEX
  8
0
 10
0.00954861
 20
0.175726
 30
0.0
 40
0
 41
0
  0
VERTEX
  8
0
 10
0.0109049
 20
0.176758
 30
0.0
 40
0
 41
0
  0
VERTEX
  8
0
 10
0.012207
 20
0.177735
 30
0.0
 40
0
 41
0
  0
VERTEX
  8
0
 10
0.0135091
 20
0.178603
 30
0.0
 40
0
 41
0
  0
VERTEX
  8
0
 10
0.0147569
 20
0.179471
 30
0.0
 40
0
 41
0
  0
VERTEX
  8
0
 10
0.0171442
 20
0.18099
 30
0.0
 40
0
 41
0
  0
VERTEX
  8
0
 10
0.0193143
 20
0.182292
 30
0.0
 40
0
 41
0
  0
VERTEX
  8
0
 10
0.0213758
 20
0.183376
 30
0.0
 40
0
 41
0
  0
VERTEX
  8
0
 10
0.0222982
 20
0.183811
 30
0.0
 40
0
 41
0
  0
VERTEX
  8
0
 10
0.0232206
 20
0.184299
 30
0.0
 40
0
 41
0
  0
VERTEX
  8
0
 10
0.0240343
 20
0.184679
 30
0.0
 40
0
 41
0
  0
VERTEX
  8
0
 10
0.0248481
 20
0.185004
 30
0.0
 40
0
 41
0
  0
VERTEX
  8
0
 10
0.0255533
 20
0.185331
 30
0.0
 40
0
 41
0
  0
VERTEX
  8
0
 10
0.0262588
 20
0.185601
 30
0.0
 40
0
 41
0
  0
VERTEX
  8
0
 10
0.0274522
 20
0.186035
 30
0.0
 40
0
 41
0
  0
VERTEX
  8
0
 10
0.0279406
 20
0.186199
 30
0.0
 40
0
 41
0
  0
VERTEX
  8
0
 10
0.0288086
 20
0.186415
 30
0.0
 40
0
 41
0
  0
VERTEX
  8
0
 10
0.0291342
 20
0.186524
 30
0.0
 40
0
 41
0
  0
VERTEX
  8
0
 10
0.0294054
 20
0.186578
 30
0.0
 40
0
 41
0
  0
VERTEX
  8
0
 10
0.029731
 20
0.186686
 30
0.0
 40
0
 41
0
  0
VERTEX
  8
0
 10
0.0297851
 20
0.186686
 30
0.0
 40
0
 41
0
  0
VERTEX
  8
0
 10
0.0477431
 20
0.189671
 30
0.0
 40
0
 41
0
  0
VERTEX
  8
0
 10
0.0453017
 20
0.217393
 30
0.0
 40
0
 41
0
  0
VERTEX
  8
0
 10
0.0271268
 20
0.217231
 30
0.0
 40
0
 41
0
  0
VERTEX
  8
0
 10
0.0264214
 20
0.217231
 30
0.0
 40
0
 41
0
  0
VERTEX
  8
0
 10
0.0260417
 20
0.217285
 30
0.0
 40
0
 41
0
  0
VERTEX
  8
0
 10
0.0256619
 20
0.217285
 30
0.0
 40
0
 41
0
  0
VERTEX
  8
0
 10
0.0251736
 20
0.217393
 30
0.0
 40
0
 41
0
  0
VERTEX
  8
0
 10
0.0246853
 20
0.217449
 30
0.0
 40
0
 41
0
  0
VERTEX
  8
0
 10
0.0240886
 20
0.217557
 30
0.0
 40
0
 41
0
  0
VERTEX
  8
0
 10
0.0233832
 20
0.217665
 30
0.0
 40
0
 41
0
  0
VERTEX
  8
0
 10
0.0226779
 20
0.217828
 30
0.0
 40
0
 41
0
  0
VERTEX
  8
0
 10
0.0219185
 20
0.21799
 30
0.0
 40
0
 41
0
  0
VERTEX
  8
0
 10
0.0211046
 20
0.218207
 30
0.0
 40
0
 41
0
  0
VERTEX
  8
0
 10
0.0201824
 20
0.218425
 30
0.0
 40
0
 41
0
  0
VERTEX
  8
0
 10
0.0192057
 20
0.218696
 30
0.0
 40
0
 41
0
  0
VERTEX
  8
0
 10
0.0182292
 20
0.219021
 30
0.0
 40
0
 41
0
  0
VERTEX
  8
0
 10
0.0171442
 20
0.219347
 30
0.0
 40
0
 41
0
  0
VERTEX
  8
0
 10
0.016059
 20
0.219726
 30
0.0
 40
0
 41
0
  0
VERTEX
  8
0
 10
0.0148654
 20
0.220161
 30
0.0
 40
0
 41
0
  0
VERTEX
  8
0
 10
0.0136176
 20
0.220594
 30
0.0
 40
0
 41
0
  0
VERTEX
  8
0
 10
0.0123698
 20
0.221137
 30
0.0
 40
0
 41
0
  0
VERTEX
  8
0
 10
0.0110135
 20
0.221679
 30
0.0
 40
0
 41
0
  0
VERTEX
  8
0
 10
0.00965712
 20
0.222276
 30
0.0
 40
0
 41
0
  0
VERTEX
  8
0
 10
0.00824653
 20
0.222982
 30
0.0
 40
0
 41
0
  0
VERTEX
  8
0
 10
0.00678168
 20
0.223687
 30
0.0
 40
0
 41
0
  0
VERTEX
  8
0
 10
0.00526258
 20
0.224447
 30
0.0
 40
0
 41
0
  0
VERTEX
  8
0
 10
0.00211589
 20
0.226183
 30
0.0
 40
0
 41
0
  0
VERTEX
  8
0
 10
0.000705296
 20
0.226997
 30
0.0
 40
0
 41
0
  0
VERTEX
  8
0
 10
0.000705296
 20
0.227647
 30
0.0
 40
0
 41
0
  0
VERTEX
  8
0
 10
0.00195313
 20
0.24349
 30
0.0
 40
0
 41
0
  0
VERTEX
  8
0
 10
0.00206164
 20
0.24414
 30
0.0
 40
0
 41
0
  0
VERTEX
  8
0
 10
0.00352647
 20
0.244737
 30
0.0
 40
0
 41
0
  0
VERTEX
  8
0
 10
0.00526258
 20
0.245389
 30
0.0
 40
0
 41
0
  0
VERTEX
  8
0
 10
0.00694444
 20
0.245985
 30
0.0
 40
0
 41
0
  0
VERTEX
  8
0
 10
0.00851779
 20
0.246528
 30
0.0
 40
0
 41
0
  0
VERTEX
  8
0
 10
0.0100912
 20
0.247017
 30
0.0
 40
0
 41
0
  0
VERTEX
  8
0
 10
0.0116102
 20
0.24745
 30
0.0
 40
0
 41
0
  0
VERTEX
  8
0
 10
0.0130208
 20
0.247831
 30
0.0
 40
0
 41
0
  0
VERTEX
  8
0
 10
0.0144314
 20
0.248156
 30
0.0
 40
0
 41
0
  0
VERTEX
  8
0
 10
0.0157878
 20
0.248481
 30
0.0
 40
0
 41
0
  0
VERTEX
  8
0
 10
0.0170899
 20
0.248753
 30
0.0
 40
0
 41
0
  0
VERTEX
  8
0
 10
0.0182835
 20
0.249024
 30
0.0
 40
0
 41
0
  0
VERTEX
  8
0
 10
0.0194769
 20
0.249186
 30
0.0
 40
0
 41
0
  0
VERTEX
  8
0
 10
0.0205621
 20
0.249403
 30
0.0
 40
0
 41
0
  0
VERTEX
  8
0
 10
0.0226237
 20
0.249621
 30
0.0
 40
0
 41
0
  0
VERTEX
  8
0
 10
0.023546
 20
0.249729
 30
0.0
 40
0
 41
0
  0
VERTEX
  8
0
 10
0.0251736
 20
0.249838
 30
0.0
 40
0
 41
0
  0
VERTEX
  8
0
 10
0.0258789
 20
0.249892
 30
0.0
 40
0
 41
0
  0
VERTEX
  8
0
 10
0.0265842
 20
0.249892
 30
0.0
 40
0
 41
0
  0
VERTEX
  8
0
 10
0.027181
 20
0.249946
 30
0.0
 40
0
 41
0
  0
VERTEX
  8
0
 10
0.0277235
 20
0.249892
 30
0.0
 40
0
 41
0
  0
VERTEX
  8
0
 10
0.0285915
 20
0.249892
 30
0.0
 40
0
 41
0
  0
VERTEX
  8
0
 10
0.0289171
 20
0.249838
 30
0.0
 40
0
 41
0
  0
VERTEX
  8
0
 10
0.0294054
 20
0.249838
 30
0.0
 40
0
 41
0
  0
VERTEX
  8
0
 10
0.0295682
 20
0.249783
 30
0.0
 40
0
 41
0
  0
VERTEX
  8
0
 10
0.0296224
 20
0.249783
 30
0.0
 40
0
 41
0
  0
VERTEX
  8
0
 10
0.0475261
 20
0.246799
 30
0.0
 40
0
 41
0
  0
VERTEX
  8
0
 10
0.0542535
 20
0.273817
 30
0.0
 40
0
 41
0
  0
VERTEX
  8
0
 10
0.0370008
 20
0.279514
 30
0.0
 40
0
 41
0
  0
VERTEX
  8
0
 10
0.0369467
 20
0.279568
 30
0.0
 40
0
 41
0
  0
VERTEX
  8
0
 10
0.0367839
 20
0.279568
 30
0.0
 40
0
 41
0
  0
VERTEX
  8
0
 10
0.0360243
 20
0.279949
 30
0.0
 40
0
 41
0
  0
VERTEX
  8
0
 10
0.0356446
 20
0.280111
 30
0.0
 40
0
 41
0
  0
VERTEX
  8
0
 10
0.0352106
 20
0.280274
 30
0.0
 40
0
 41
0
  0
VERTEX
  8
0
 10
0.0347765
 20
0.280544
 30
0.0
 40
0
 41
0
  0
VERTEX
  8
0
 10
0.0342339
 20
0.280817
 30
0.0
 40
0
 41
0
  0
VERTEX
  8
0
 10
0.0336372
 20
0.281142
 30
0.0
 40
0
 41
0
  0
VERTEX
  8
0
 10
0.0329861
 20
0.281521
 30
0.0
 40
0
 41
0
  0
VERTEX
  8
0
 10
0.0323351
 20
0.281956
 30
0.0
 40
0
 41
0
  0
VERTEX
  8
0
 10
0.0315756
 20
0.282389
 30
0.0
 40
0
 41
0
  0
VERTEX
  8
0
 10
0.030816
 20
0.282932
 30
0.0
 40
0
 41
0
  0
VERTEX
  8
0
 10
0.0300022
 20
0.283475
 30
0.0
 40
0
 41
0
  0
VERTEX
  8
0
 10
0.0282661
 20
0.284776
 30
0.0
 40
0
 41
0
  0
VERTEX
  8
0
 10
0.0273438
 20
0.285482
 30
0.0
 40
0
 41
0
  0
VERTEX
  8
0
 10
0.0263672
 20
0.286296
 30
0.0
 40
0
 41
0
  0
VERTEX
  8
0
 10
0.0253364
 20
0.28711
 30
0.0
 40
0
 41
0
  0
VERTEX
  8
0
 10
0.0243056
 20
0.288032
 30
0.0
 40
0
 41
0
  0
VERTEX
  8
0
 10
0.0221354
 20
0.289985
 30
0.0
 40
0
 41
0
  0
VERTEX
  8
0
 10
0.0186632
 20
0.293457
 30
0.0
 40
0
 41
0
  0
VERTEX
  8
0
 10
0.0174696
 20
0.29476
 30
0.0
 40
0
 41
0
  0
VERTEX
  8
0
 10
0.0162761
 20
0.296169
 30
0.0
 40
0
 41
0
  0
VERTEX
  8
0
 10
0.015191
 20
0.297364
 30
0.0
 40
0
 41
0
  0
VERTEX
  8
0
 10
0.0154081
 20
0.29796
 30
0.0
 40
0
 41
0
  0
VERTEX
  8
0
 10
0.0217557
 20
0.312608
 30
0.0
 40
0
 41
0
  0
VERTEX
  8
0
 10
0.0220269
 20
0.313151
 30
0.0
 40
0
 41
0
  0
VERTEX
  8
0
 10
0.0236003
 20
0.313206
 30
0.0
 40
0
 41
0
  0
VERTEX
  8
0
 10
0.0254449
 20
0.31326
 30
0.0
 40
0
 41
0
  0
VERTEX
  8
0
 10
0.0289171
 20
0.31326
 30
0.0
 40
0
 41
0
  0
VERTEX
  8
0
 10
0.0305447
 20
0.313206
 30
0.0
 40
0
 41
0
  0
VERTEX
  8
0
 10
0.0321181
 20
0.313151
 30
0.0
 40
0
 41
0
  0
VERTEX
  8
0
 10
0.0336372
 20
0.313043
 30
0.0
 40
0
 41
0
  0
VERTEX
  8
0
 10
0.0351019
 20
0.312935
 30
0.0
 40
0
 41
0
  0
VERTEX
  8
0
 10
0.0364583
 20
0.312771
 30
0.0
 40
0
 41
0
  0
VERTEX
  8
0
 10
0.0377604
 20
0.312608
 30
0.0
 40
0
 41
0
  0
VERTEX
  8
0
 10
0.0390082
 20
0.312446
 30
0.0
 40
0
 41
0
  0
VERTEX
  8
0
 10
0.0401476
 20
0.312283
 30
0.0
 40
0
 41
0
  0
VERTEX
  8
0
 10
0.0412869
 20
0.312067
 30
0.0
 40
0
 41
0
  0
VERTEX
  8
0
 10
0.0423178
 20
0.311849
 30
0.0
 40
0
 41
0
  0
VERTEX
  8
0
 10
0.04324
 20
0.311686
 30
0.0
 40
0
 41
0
  0
VERTEX
  8
0
 10
0.0441624
 20
0.311469
 30
0.0
 40
0
 41
0
  0
VERTEX
  8
0
 10
0.0449761
 20
0.311253
 30
0.0
 40
0
 41
0
  0
VERTEX
  8
0
 10
0.0464953
 20
0.310818
 30
0.0
 40
0
 41
0
  0
VERTEX
  8
0
 10
0.0470921
 20
0.310656
 30
0.0
 40
0
 41
0
  0
VERTEX
  8
0
 10
0.0476887
 20
0.310439
 30
0.0
 40
0
 41
0
  0
VERTEX
  8
0
 10
0.0481771
 20
0.310221
 30
0.0
 40
0
 41
0
  0
VERTEX
  8
0
 10
0.0486111
 20
0.310058
 30
0.0
 40
0
 41
0
  0
VERTEX
  8
0
 10
0.0489908
 20
0.30995
 30
0.0
 40
0
 41
0
  0
VERTEX
  8
0
 10
0.0493164
 20
0.309788
 30
0.0
 40
0
 41
0
  0
VERTEX
  8
0
 10
0.0495876
 20
0.309679
 30
0.0
 40
0
 41
0
  0
VERTEX
  8
0
 10
0.0497504
 20
0.309625
 30
0.0
 40
0
 41
0
  0
VERTEX
  8
0
 10
0.0499132
 20
0.309517
 30
0.0
 40
0
 41
0
  0
VERTEX
  8
0
 10
0.0499675
 20
0.309517
 30
0.0
 40
0
 41
0
  0
VERTEX
  8
0
 10
0.0659179
 20
0.30089
 30
0.0
 40
0
 41
0
  0
VERTEX
  8
0
 10
0.0810547
 20
0.324219
 30
0.0
 40
0
 41
0
  0
VERTEX
  8
0
 10
0.066569
 20
0.335232
 30
0.0
 40
0
 41
0
  0
VERTEX
  8
0
 10
0.0664063
 20
0.335394
 30
0.0
 40
0
 41
0
  0
VERTEX
  8
0
 10
0.0662435
 20
0.335504
 30
0.0
 40
0
 41
0
  0
VERTEX
  8
0
 10
0.0660265
 20
0.335721
 30
0.0
 40
0
 41
0
  0
VERTEX
  8
0
 10
0.0657553
 20
0.335938
 30
0.0
 40
0
 41
0
  0
VERTEX
  8
0
 10
0.0647786
 20
0.336914
 30
0.0
 40
0
 41
0
  0
VERTEX
  8
0
 10
0.0643989
 20
0.337403
 30
0.0
 40
0
 41
0
  0
VERTEX
  8
0
 10
0.0639106
 20
0.33789
 30
0.0
 40
0
 41
0
  0
VERTEX
  8
0
 10
0.0634765
 20
0.338433
 30
0.0
 40
0
 41
0
  0
VERTEX
  8
0
 10
0.062934
 20
0.339031
 30
0.0
 40
0
 41
0
  0
VERTEX
  8
0
 10
0.0624457
 20
0.339735
 30
0.0
 40
0
 41
0
  0
VERTEX
  8
0
 10
0.061849
 20
0.34044
 30
0.0
 40
0
 41
0
  0
VERTEX
  8
0
 10
0.0612522
 20
0.341254
 30
0.0
 40
0
 41
0
  0
VERTEX
  8
0
 10
0.0606554
 20
0.342122
 30
0.0
 40
0
 41
0
  0
VERTEX
  8
0
 10
0.0600043
 20
0.343044
 30
0.0
 40
0
 41
0
  0
VERTEX
  8
0
 10
0.0593533
 20
0.344021
 30
0.0
 40
0
 41
0
  0
VERTEX
  8
0
 10
0.0587022
 20
0.345053
 30
0.0
 40
0
 41
0
  0
VERTEX
  8
0
 10
0.0580512
 20
0.346192
 30
0.0
 40
0
 41
0
  0
VERTEX
  8
0
 10
0.057346
 20
0.347385
 30
0.0
 40
0
 41
0
  0
VERTEX
  8
0
 10
0.0566407
 20
0.348633
 30
0.0
 40
0
 41
0
  0
VERTEX
  8
0
 10
0.0559353
 20
0.349989
 30
0.0
 40
0
 41
0
  0
VERTEX
  8
0
 10
0.05523
 20
0.3514
 30
0.0
 40
0
 41
0
  0
VERTEX
  8
0
 10
0.0544706
 20
0.352865
 30
0.0
 40
0
 41
0
  0
VERTEX
  8
0
 10
0.0537651
 20
0.354383
 30
0.0
 40
0
 41
0
  0
VERTEX
  8
0
 10
0.0530599
 20
0.356011
 30
0.0
 40
0
 41
0
  0
VERTEX
  8
0
 10
0.0523546
 20
0.357693
 30
0.0
 40
0
 41
0
  0
VERTEX
  8
0
 10
0.0517578
 20
0.359213
 30
0.0
 40
0
 41
0
  0
VERTEX
  8
0
 10
0.0521376
 20
0.3597
 30
0.0
 40
0
 41
0
  0
VERTEX
  8
0
 10
0.0628797
 20
0.371474
 30
0.0
 40
0
 41
0
  0
VERTEX
  8
0
 10
0.0633137
 20
0.371907
 30
0.0
 40
0
 41
0
  0
VERTEX
  8
0
 10
0.0648872
 20
0.371474
 30
0.0
 40
0
 41
0
  0
VERTEX
  8
0
 10
0.0666233
 20
0.370931
 30
0.0
 40
0
 41
0
  0
VERTEX
  8
0
 10
0.0683051
 20
0.370335
 30
0.0
 40
0
 41
0
  0
VERTEX
  8
0
 10
0.0699328
 20
0.369792
 30
0.0
 40
0
 41
0
  0
VERTEX
  8
0
 10
0.0714518
 20
0.369194
 30
0.0
 40
0
 41
0
  0
VERTEX
  8
0
 10
0.0729167
 20
0.368599
 30
0.0
 40
0
 41
0
  0
VERTEX
  8
0
 10
0.0742731
 20
0.368056
 30
0.0
 40
0
 41
0
  0
VERTEX
  8
0
 10
0.0756293
 20
0.367458
 30
0.0
 40
0
 41
0
  0
VERTEX
  8
0
 10
0.0768229
 20
0.366863
 30
0.0
 40
0
 41
0
  0
VERTEX
  8
0
 10
0.0780707
 20
0.366319
 30
0.0
 40
0
 41
0
  0
VERTEX
  8
0
 10
0.0791558
 20
0.365722
 30
0.0
 40
0
 41
0
  0
VERTEX
  8
0
 10
0.0801867
 20
0.365181
 30
0.0
 40
0
 41
0
  0
VERTEX
  8
0
 10
0.0811632
 20
0.364638
 30
0.0
 40
0
 41
0
  0
VERTEX
  8
0
 10
0.0820856
 20
0.364094
 30
0.0
 40
0
 41
0
  0
VERTEX
  8
0
 10
0.0829536
 20
0.363607
 30
0.0
 40
0
 41
0
  0
VERTEX
  8
0
 10
0.0837131
 20
0.363118
 30
0.0
 40
0
 41
0
  0
VERTEX
  8
0
 10
0.0844185
 20
0.362631
 30
0.0
 40
0
 41
0
  0
VERTEX
  8
0
 10
0.0857206
 20
0.361762
 30
0.0
 40
0
 41
0
  0
VERTEX
  8
0
 10
0.0866971
 20
0.361003
 30
0.0
 40
0
 41
0
  0
VERTEX
  8
0
 10
0.0871311
 20
0.360678
 30
0.0
 40
0
 41
0
  0
VERTEX
  8
0
 10
0.0875108
 20
0.360351
 30
0.0
 40
0
 41
0
  0
VERTEX
  8
0
 10
0.0877821
 20
0.360135
 30
0.0
 40
0
 41
0
  0
VERTEX
  8
0
 10
0.0880533
 20
0.359864
 30
0.0
 40
0
 41
0
  0
VERTEX
  8
0
 10
0.0882704
 20
0.3597
 30
0.0
 40
0
 41
0
  0
VERTEX
  8
0
 10
0.0884332
 20
0.359537
 30
0.0
 40
0
 41
0
  0
VERTEX
  8
0
 10
0.0885417
 20
0.359483
 30
0.0
 40
0
 41
0
  0
VERTEX
  8
0
 10
0.088596
 20
0.359375
 30
0.0
 40
0
 41
0
  0
VERTEX
  8
0
 10
0.100857
 20
0.346029
 30
0.0
 40
0
 41
0
  0
VERTEX
  8
0
 10
0.122721
 20
0.363226
 30
0.0
 40
0
 41
0
  0
VERTEX
  8
0
 10
0.11263
 20
0.37831
 30
0.0
 40
0
 41
0
  0
VERTEX
  8
0
 10
0.112522
 20
0.378526
 30
0.0
 40
0
 41
0
  0
VERTEX
  8
0
 10
0.112413
 20
0.378689
 30
0.0
 40
0
 41
0
  0
VERTEX
  8
0
 10
0.112305
 20
0.378961
 30
0.0
 40
0
 41
0
  0
VERTEX
  8
0
 10
0.112142
 20
0.379232
 30
0.0
 40
0
 41
0
  0
VERTEX
  8
0
 10
0.111925
 20
0.379611
 30
0.0
 40
0
 41
0
  0
VERTEX
  8
0
 10
0.111762
 20
0.380046
 30
0.0
 40
0
 41
0
  0
VERTEX
  8
0
 10
0.111491
 20
0.380533
 30
0.0
 40
0
 41
0
  0
VERTEX
  8
0
 10
0.111274
 20
0.381076
 30
0.0
 40
0
 41
0
  0
VERTEX
  8
0
 10
0.111003
 20
0.381674
 30
0.0
 40
0
 41
0
  0
VERTEX
  8
0
 10
0.110731
 20
0.382379
 30
0.0
 40
0
 41
0
  0
VERTEX
  8
0
 10
0.11046
 20
0.383137
 30
0.0
 40
0
 41
0
  0
VERTEX
  8
0
 10
0.110189
 20
0.383951
 30
0.0
 40
0
 41
0
  0
VERTEX
  8
0
 10
0.109863
 20
0.384819
 30
0.0
 40
0
 41
0
  0
VERTEX
  8
0
 10
0.109538
 20
0.385742
 30
0.0
 40
0
 41
0
  0
VERTEX
  8
0
 10
0.109267
 20
0.386774
 30
0.0
 40
0
 41
0
  0
VERTEX
  8
0
 10
0.108995
 20
0.387858
 30
0.0
 40
0
 41
0
  0
VERTEX
  8
0
 10
0.10867
 20
0.388997
 30
0.0
 40
0
 41
0
  0
VERTEX
  8
0
 10
0.108398
 20
0.390192
 30
0.0
 40
0
 41
0
  0
VERTEX
  8
0
 10
0.108127
 20
0.391493
 30
0.0
 40
0
 41
0
  0
VERTEX
  8
0
 10
0.107856
 20
0.39285
 30
0.0
 40
0
 41
0
  0
VERTEX
  8
0
 10
0.107585
 20
0.39426
 30
0.0
 40
0
 41
0
  0
VERTEX
  8
0
 10
0.107151
 20
0.397299
 30
0.0
 40
0
 41
0
  0
VERTEX
  8
0
 10
0.106934
 20
0.398926
 30
0.0
 40
0
 41
0
  0
VERTEX
  8
0
 10
0.106771
 20
0.400608
 30
0.0
 40
0
 41
0
  0
VERTEX
  8
0
 10
0.106608
 20
0.402399
 30
0.0
 40
0
 41
0
  0
VERTEX
  8
0
 10
0.1065
 20
0.404189
 30
0.0
 40
0
 41
0
  0
VERTEX
  8
0
 10
0.106391
 20
0.405817
 30
0.0
 40
0
 41
0
  0
VERTEX
  8
0
 10
0.106934
 20
0.406196
 30
0.0
 40
0
 41
0
  0
VERTEX
  8
0
 10
0.120877
 20
0.413846
 30
0.0
 40
0
 41
0
  0
VERTEX
  8
0
 10
0.121473
 20
0.414063
 30
0.0
 40
0
 41
0
  0
VERTEX
  8
0
 10
0.12283
 20
0.41314
 30
0.0
 40
0
 41
0
  0
VERTEX
  8
0
 10
0.124295
 20
0.412056
 30
0.0
 40
0
 41
0
  0
VERTEX
  8
0
 10
0.125651
 20
0.410969
 30
0.0
 40
0
 41
0
  0
VERTEX
  8
0
 10
0.127007
 20
0.409939
 30
0.0
 40
0
 41
0
  0
VERTEX
  8
0
 10
0.128255
 20
0.408854
 30
0.0
 40
0
 41
0
  0
VERTEX
  8
0
 10
0.129449
 20
0.407878
 30
0.0
 40
0
 41
0
  0
VERTEX
  8
0
 10
0.130588
 20
0.406847
 30
0.0
 40
0
 41
0
  0
VERTEX
  8
0
 10
0.131673
 20
0.405871
 30
0.0
 40
0
 41
0
  0
VERTEX
  8
0
 10
0.13265
 20
0.404949
 30
0.0
 40
0
 41
0
  0
VERTEX
  8
0
 10
0.133572
 20
0.404025
 30
0.0
 40
0
 41
0
  0
VERTEX
  8
0
 10
0.13444
 20
0.403103
 30
0.0
 40
0
 41
0
  0
VERTEX
  8
0
 10
0.135254
 20
0.402235
 30
0.0
 40
0
 41
0
  0
VERTEX
  8
0
 10
0.136013
 20
0.401421
 30
0.0
 40
0
 41
0
  0
VERTEX
  8
0
 10
0.136719
 20
0.400608
 30
0.0
 40
0
 41
0
  0
VERTEX
  8
0
 10
0.137316
 20
0.399849
 30
0.0
 40
0
 41
0
  0
VERTEX
  8
0
 10
0.137912
 20
0.399143
 30
0.0
 40
0
 41
0
  0
VERTEX
  8
0
 10
0.138455
 20
0.398438
 30
0.0
 40
0
 41
0
  0
VERTEX
  8
0
 10
0.138943
 20
0.39784
 30
0.0
 40
0
 41
0
  0
VERTEX
  8
0
 10
0.139324
 20
0.397244
 30
0.0
 40
0
 41
0
  0
VERTEX
  8
0
 10
0.140082
 20
0.396158
 30
0.0
 40
0
 41
0
  0
VERTEX
  8
0
 10
0.140354
 20
0.395725
 30
0.0
 40
0
 41
0
  0
VERTEX
  8
0
 10
0.140787
 20
0.394965
 30
0.0
 40
0
 41
0
  0
VERTEX
  8
0
 10
0.141114
 20
0.394422
 30
0.0
 40
0
 41
0
  0
VERTEX
  8
0
 10
0.141222
 20
0.39426
 30
0.0
 40
0
 41
0
  0
VERTEX
  8
0
 10
0.141276
 20
0.394097
 30
0.0
 40
0
 41
0
  0
VERTEX
  8
0
 10
0.141276
 20
0.394043
 30
0.0
 40
0
 41
0
  0
VERTEX
  8
0
 10
0.1486
 20
0.377387
 30
0.0
 40
0
 41
0
  0
VERTEX
  8
0
 10
0.174858
 20
0.386556
 30
0.0
 40
0
 41
0
  0
VERTEX
  8
0
 10
0.170193
 20
0.404135
 30
0.0
 40
0
 41
0
  0
VERTEX
  8
0
 10
0.170193
 20
0.404351
 30
0.0
 40
0
 41
0
  0
VERTEX
  8
0
 10
0.170085
 20
0.404568
 30
0.0
 40
0
 41
0
  0
VERTEX
  8
0
 10
0.170085
 20
0.404839
 30
0.0
 40
0
 41
0
  0
VERTEX
  8
0
 10
0.170031
 20
0.405165
 30
0.0
 40
0
 41
0
  0
VERTEX
  8
0
 10
0.169922
 20
0.406033
 30
0.0
 40
0
 41
0
  0
VERTEX
  8
0
 10
0.169868
 20
0.406575
 30
0.0
 40
0
 41
0
  0
VERTEX
  8
0
 10
0.169814
 20
0.407172
 30
0.0
 40
0
 41
0
  0
VERTEX
  8
0
 10
0.169706
 20
0.408583
 30
0.0
 40
0
 41
0
  0
VERTEX
  8
0
 10
0.169706
 20
0.412164
 30
0.0
 40
0
 41
0
  0
VERTEX
  8
0
 10
0.16976
 20
0.413194
 30
0.0
 40
0
 41
0
  0
VERTEX
  8
0
 10
0.169814
 20
0.414333
 30
0.0
 40
0
 41
0
  0
VERTEX
  8
0
 10
0.170031
 20
0.416721
 30
0.0
 40
0
 41
0
  0
VERTEX
  8
0
 10
0.170193
 20
0.418024
 30
0.0
 40
0
 41
0
  0
VERTEX
  8
0
 10
0.17041
 20
0.419433
 30
0.0
 40
0
 41
0
  0
VERTEX
  8
0
 10
0.170574
 20
0.420844
 30
0.0
 40
0
 41
0
  0
VERTEX
  8
0
 10
0.170844
 20
0.42231
 30
0.0
 40
0
 41
0
  0
VERTEX
  8
0
 10
0.171496
 20
0.425456
 30
0.0
 40
0
 41
0
  0
VERTEX
  8
0
 10
0.171875
 20
0.427138
 30
0.0
 40
0
 41
0
  0
VERTEX
  8
0
 10
0.17231
 20
0.428819
 30
0.0
 40
0
 41
0
  0
VERTEX
  8
0
 10
0.172797
 20
0.43061
 30
0.0
 40
0
 41
0
  0
VERTEX
  8
0
 10
0.173232
 20
0.432129
 30
0.0
 40
0
 41
0
  0
VERTEX
  8
0
 10
0.173828
 20
0.432292
 30
0.0
 40
0
 41
0
  0
VERTEX
  8
0
 10
0.189561
 20
0.435004
 30
0.0
 40
0
 41
0
  0
VERTEX
  8
0
 10
0.190158
 20
0.435058
 30
0.0
 40
0
 41
0
  0
VERTEX
  8
0
 10
0.191081
 20
0.433757
 30
0.0
 40
0
 41
0
  0
VERTEX
  8
0
 10
0.192165
 20
0.432237
 30
0.0
 40
0
 41
0
  0
VERTEX
  8
0
 10
0.193143
 20
0.430772
 30
0.0
 40
0
 41
0
  0
VERTEX
  8
0
 10
0.194065
 20
0.429363
 30
0.0
 40
0
 41
0
  0
VERTEX
  8
0
 10
0.194933
 20
0.427951
 30
0.0
 40
0
 41
0
  0
VERTEX
  8
0
 10
0.195692
 20
0.426594
 30
0.0
 40
0
 41
0
  0
VERTEX
  8
0
 10
0.196451
 20
0.425293
 30
0.0
 40
0
 41
0
  0
VERTEX
  8
0
 10
0.197754
 20
0.422797
 30
0.0
 40
0
 41
0
  0
VERTEX
  8
0
 10
0.198351
 20
0.421604
 30
0.0
 40
0
 41
0
  0
VERTEX
  8
0
 10
0.198893
 20
0.420464
 30
0.0
 40
0
 41
0
  0
VERTEX
  8
0
 10
0.199382
 20
0.419433
 30
0.0
 40
0
 41
0
  0
VERTEX
  8
0
 10
0.199815
 20
0.418349
 30
0.0
 40
0
 41
0
  0
VERTEX
  8
0
 10
0.200196
 20
0.417372
 30
0.0
 40
0
 41
0
  0
VERTEX
  8
0
 10
0.200521
 20
0.416504
 30
0.0
 40
0
 41
0
  0
VERTEX
  8
0
 10
0.200846
 20
0.415582
 30
0.0
 40
0
 41
0
  0
VERTEX
  8
0
 10
0.201118
 20
0.414768
 30
0.0
 40
0
 41
0
  0
VERTEX
  8
0
 10
0.201389
 20
0.414063
 30
0.0
 40
0
 41
0
  0
VERTEX
  8
0
 10
0.201606
 20
0.413357
 30
0.0
 40
0
 41
0
  0
VERTEX
  8
0
 10
0.201768
 20
0.412706
 30
0.0
 40
0
 41
0
  0
VERTEX
  8
0
 10
0.201932
 20
0.41211
 30
0.0
 40
0
 41
0
  0
VERTEX
  8
0
 10
0.202149
 20
0.411133
 30
0.0
 40
0
 41
0
  0
VERTEX
  8
0
 10
0.202257
 20
0.410753
 30
0.0
 40
0
 41
0
  0
VERTEX
  8
0
 10
0.202311
 20
0.410374
 30
0.0
 40
0
 41
0
  0
VERTEX
  8
0
 10
0.202365
 20
0.410157
 30
0.0
 40
0
 41
0
  0
VERTEX
  8
0
 10
0.202365
 20
0.409885
 30
0.0
 40
0
 41
0
  0
VERTEX
  8
0
 10
0.202419
 20
0.409776
 30
0.0
 40
0
 41
0
  0
VERTEX
  8
0
 10
0.202419
 20
0.409668
 30
0.0
 40
0
 41
0
  0
VERTEX
  8
0
 10
0.203885
 20
0.391601
 30
0.0
 40
0
 41
0
  0
VERTEX
  8
0
 10
0.231717
 20
0.391764
 30
0.0
 40
0
 41
0
  0
VERTEX
  8
0
 10
0.233018
 20
0.409831
 30
0.0
 40
0
 41
0
  0
VERTEX
  8
0
 10
0.233018
 20
0.409939
 30
0.0
 40
0
 41
0
  0
VERTEX
  8
0
 10
0.233074
 20
0.410047
 30
0.0
 40
0
 41
0
  0
VERTEX
  8
0
 10
0.233074
 20
0.410319
 30
0.0
 40
0
 41
0
  0
VERTEX
  8
0
 10
0.233128
 20
0.410536
 30
0.0
 40
0
 41
0
  0
VERTEX
  8
0
 10
0.233236
 20
0.411296
 30
0.0
 40
0
 41
0
  0
VERTEX
  8
0
 10
0.233344
 20
0.411783
 30
0.0
 40
0
 41
0
  0
VERTEX
  8
0
 10
0.233507
 20
0.412272
 30
0.0
 40
0
 41
0
  0
VERTEX
  8
0
 10
0.233615
 20
0.412869
 30
0.0
 40
0
 41
0
  0
VERTEX
  8
0
 10
0.233832
 20
0.413519
 30
0.0
 40
0
 41
0
  0
VERTEX
  8
0
 10
0.233996
 20
0.414225
 30
0.0
 40
0
 41
0
  0
VERTEX
  8
0
 10
0.234267
 20
0.414985
 30
0.0
 40
0
 41
0
  0
VERTEX
  8
0
 10
0.234537
 20
0.415799
 30
0.0
 40
0
 41
0
  0
VERTEX
  8
0
 10
0.23481
 20
0.416667
 30
0.0
 40
0
 41
0
  0
VERTEX
  8
0
 10
0.235189
 20
0.417589
 30
0.0
 40
0
 41
0
  0
VERTEX
  8
0
 10
0.235568
 20
0.418565
 30
0.0
 40
0
 41
0
  0
VERTEX
  8
0
 10
0.236003
 20
0.419596
 30
0.0
 40
0
 41
0
  0
VERTEX
  8
0
 10
0.236436
 20
0.420682
 30
0.0
 40
0
 41
0
  0
VERTEX
  8
0
 10
0.236979
 20
0.421821
 30
0.0
 40
0
 41
0
  0
VERTEX
  8
0
 10
0.237522
 20
0.423014
 30
0.0
 40
0
 41
0
  0
VERTEX
  8
0
 10
0.238824
 20
0.42551
 30
0.0
 40
0
 41
0
  0
VERTEX
  8
0
 10
0.239583
 20
0.426812
 30
0.0
 40
0
 41
0
  0
VERTEX
  8
0
 10
0.240343
 20
0.428222
 30
0.0
 40
0
 41
0
  0
VERTEX
  8
0
 10
0.241157
 20
0.429579
 30
0.0
 40
0
 41
0
  0
VERTEX
  8
0
 10
0.242079
 20
0.431044
 30
0.0
 40
0
 41
0
  0
VERTEX
  8
0
 10
0.243056
 20
0.432508
 30
0.0
 40
0
 41
0
  0
VERTEX
  8
0
 10
0.244086
 20
0.434028
 30
0.0
 40
0
 41
0
  0
VERTEX
  8
0
 10
0.245008
 20
0.435385
 30
0.0
 40
0
 41
0
  0
SEQEND
 8
0
  0
POLYLINE
  8
0
 62
     8
 66
     1
 10
0
 20
0
 30
0.0
 40
0.375
 41
0.375
  0
VERTEX
  8
0
 10
0.322917
 20
0.21875
 30
0.0
 40
0.00520833
 41
0.00520833
  0
VERTEX
  8
0
 10
0.114583
 20
0.21875
 30
0.0
 40
0.00520833
 41
0.00520833
  0
SEQEND
 8
0
  0
POLYLINE
  8
0
 62
     8
 66
     1
 10
0
 20
0
 30
0.0
 40
0.375
 41
0.375
  0
VERTEX
  8
0
 10
0.21875
 20
0.114583
 30
0.0
 40
0.00520833
 41
0.00520833
  0
VERTEX
  8
0
 10
0.21875
 20
0.322917
 30
0.0
 40
0.00520833
 41
0.00520833
  0
SEQEND
 8
0
  0
ENDSEC
  0
EOF
