solid OpenSCAD_Model
  facet normal -1 0 0
    outer loop
      vertex -10 20.75 -2
      vertex -10 20.75 2
      vertex -10 22.25 -2
    endloop
  endfacet
  facet normal -1 0 0
    outer loop
      vertex -10 22.25 -2
      vertex -10 20.75 2
      vertex -10 22.25 2
    endloop
  endfacet
  facet normal -0.866025 -0.5 0
    outer loop
      vertex -10 20.75 -2
      vertex -9.125 19.2345 -2
      vertex -10 20.75 2
    endloop
  endfacet
  facet normal -0.866025 -0.5 0
    outer loop
      vertex -10 20.75 2
      vertex -9.125 19.2345 -2
      vertex -9.125 19.2345 2
    endloop
  endfacet
  facet normal 0 0 -1
    outer loop
      vertex -10 20.75 -2
      vertex -10 22.25 -2
      vertex -9.125 19.2345 -2
    endloop
  endfacet
  facet normal 0 0 -1
    outer loop
      vertex -9.125 19.2345 -2
      vertex -10 22.25 -2
      vertex -9.125 23.7655 -2
    endloop
  endfacet
  facet normal 0 0 -1
    outer loop
      vertex -9.125 19.2345 -2
      vertex -9.125 23.7655 -2
      vertex -8.25 23.7655 -2
    endloop
  endfacet
  facet normal 0 0 -1
    outer loop
      vertex -8.25 23.7655 -2
      vertex -8.25 24 -2
      vertex 8.25 24 -2
    endloop
  endfacet
  facet normal 0 0 -1
    outer loop
      vertex 7.03262 22.8315 -2
      vertex 9.125 23.7655 -2
      vertex 10 22.25 -2
    endloop
  endfacet
  facet normal 0 0 -1
    outer loop
      vertex 8 21.5 -2
      vertex 10 22.25 -2
      vertex 10 20.75 -2
    endloop
  endfacet
  facet normal 0 0 -1
    outer loop
      vertex 8.25 19.2345 -2
      vertex 10 20.75 -2
      vertex 9.125 19.2345 -2
    endloop
  endfacet
  facet normal 0 0 -1
    outer loop
      vertex 6.6 20.1 -2
      vertex -8.25 19.2345 -2
      vertex -9.125 19.2345 -2
    endloop
  endfacet
  facet normal 0 0 -1
    outer loop
      vertex 6.6 20.1 -2
      vertex -9.125 19.2345 -2
      vertex -6.6 20.1 -2
    endloop
  endfacet
  facet normal 0 0 -1
    outer loop
      vertex -5 19 -2
      vertex 5 19 -2
      vertex 5 -19.5 -2
    endloop
  endfacet
  facet normal 0 0 -1
    outer loop
      vertex -8.25 19.2345 -2
      vertex -5 19 -2
      vertex -8.25 19 -2
    endloop
  endfacet
  facet normal 0 0 -1
    outer loop
      vertex 7.03262 22.8315 -2
      vertex 10 22.25 -2
      vertex 8 21.5 -2
    endloop
  endfacet
  facet normal 0 0 -1
    outer loop
      vertex 1 -23.5 -2
      vertex -1 -23.5 -2
      vertex -1 -23.4123 -2
    endloop
  endfacet
  facet normal 0 0 -1
    outer loop
      vertex -3.99404 -22.1525 -2
      vertex -4.88377 -20.4573 -2
      vertex -4.88377 -19.5 -2
    endloop
  endfacet
  facet normal 0 0 -1
    outer loop
      vertex -8.25 19.2345 -2
      vertex 8.25 19 -2
      vertex 5 19 -2
    endloop
  endfacet
  facet normal 0 0 -1
    outer loop
      vertex -8.25 19.2345 -2
      vertex 5 19 -2
      vertex -5 19 -2
    endloop
  endfacet
  facet normal 0 0 -1
    outer loop
      vertex 8.25 19.2345 -2
      vertex 8.25 19 -2
      vertex -8.25 19.2345 -2
    endloop
  endfacet
  facet normal 0 0 -1
    outer loop
      vertex -8.25 23.7655 -2
      vertex -7.73262 22.3229 -2
      vertex -9.125 19.2345 -2
    endloop
  endfacet
  facet normal 0 0 -1
    outer loop
      vertex 1.15881 -21.0665 -2
      vertex 1 -23.4123 -2
      vertex 0.391982 -21.2295 -2
    endloop
  endfacet
  facet normal 0 0 -1
    outer loop
      vertex -7.73262 22.3229 -2
      vertex -7.73262 20.6771 -2
      vertex -9.125 19.2345 -2
    endloop
  endfacet
  facet normal 0 0 -1
    outer loop
      vertex -7.73262 20.6771 -2
      vertex -6.6 20.3091 -2
      vertex -9.125 19.2345 -2
    endloop
  endfacet
  facet normal 0 0 -1
    outer loop
      vertex -6.6 20.3091 -2
      vertex -6.6 20.1 -2
      vertex -9.125 19.2345 -2
    endloop
  endfacet
  facet normal 0 0 -1
    outer loop
      vertex 8.25 19.2345 -2
      vertex -8.25 19.2345 -2
      vertex 6.6 20.1 -2
    endloop
  endfacet
  facet normal 0 0 -1
    outer loop
      vertex 8 21.5 -2
      vertex 10 20.75 -2
      vertex 7.03262 20.1685 -2
    endloop
  endfacet
  facet normal 0 0 -1
    outer loop
      vertex 7.03262 20.1685 -2
      vertex 6.6 20.1 -2
      vertex 6.6 20.3091 -2
    endloop
  endfacet
  facet normal 0 0 -1
    outer loop
      vertex 8.25 19.2345 -2
      vertex 6.6 20.1 -2
      vertex 7.03262 20.1685 -2
    endloop
  endfacet
  facet normal 0 0 -1
    outer loop
      vertex 8.25 19.2345 -2
      vertex 7.03262 20.1685 -2
      vertex 10 20.75 -2
    endloop
  endfacet
  facet normal 0 0 -1
    outer loop
      vertex 6.6 22.9 -2
      vertex 9.125 23.7655 -2
      vertex 7.03262 22.8315 -2
    endloop
  endfacet
  facet normal 0 0 -1
    outer loop
      vertex 6.6 22.9 -2
      vertex 7.03262 22.8315 -2
      vertex 6.6 22.6909 -2
    endloop
  endfacet
  facet normal 0 0 -1
    outer loop
      vertex -8.25 23.7655 -2
      vertex 8.25 24 -2
      vertex -6.6 22.9 -2
    endloop
  endfacet
  facet normal 0 0 -1
    outer loop
      vertex -8.25 23.7655 -2
      vertex -6.6 22.9 -2
      vertex -7.73262 22.3229 -2
    endloop
  endfacet
  facet normal 0 0 -1
    outer loop
      vertex -3.03381 -19.7042 -2
      vertex -2.41842 -23.2401 -2
      vertex -3.42579 -19.0253 -2
    endloop
  endfacet
  facet normal 0 0 -1
    outer loop
      vertex -6.6 22.9 -2
      vertex -6.6 22.6909 -2
      vertex -7.73262 22.3229 -2
    endloop
  endfacet
  facet normal 0 0 -1
    outer loop
      vertex -3.66805 -18.2797 -2
      vertex -3.99404 -22.1525 -2
      vertex -3.75 -17.5 -2
    endloop
  endfacet
  facet normal 0 0 -1
    outer loop
      vertex -2.41842 -23.2401 -2
      vertex -3.99404 -22.1525 -2
      vertex -3.66805 -18.2797 -2
    endloop
  endfacet
  facet normal 0 0 -1
    outer loop
      vertex -2.41842 -23.2401 -2
      vertex -3.66805 -18.2797 -2
      vertex -3.42579 -19.0253 -2
    endloop
  endfacet
  facet normal 0 0 -1
    outer loop
      vertex -2.50924 -20.2868 -2
      vertex -2.41842 -23.2401 -2
      vertex -3.03381 -19.7042 -2
    endloop
  endfacet
  facet normal 0 0 -1
    outer loop
      vertex -5 19 -2
      vertex 5 -19.5 -2
      vertex 3.42579 -15.9747 -2
    endloop
  endfacet
  facet normal 0 0 -1
    outer loop
      vertex -5 19 -2
      vertex 3.42579 -15.9747 -2
      vertex 3.03381 -15.2958 -2
    endloop
  endfacet
  facet normal 0 0 -1
    outer loop
      vertex 1 -23.5 -2
      vertex -1 -23.4123 -2
      vertex -1.15881 -21.0665 -2
    endloop
  endfacet
  facet normal 0 0 -1
    outer loop
      vertex 1 -23.5 -2
      vertex -1.15881 -21.0665 -2
      vertex -0.391982 -21.2295 -2
    endloop
  endfacet
  facet normal 0 0 -1
    outer loop
      vertex 1 -23.5 -2
      vertex -0.391982 -21.2295 -2
      vertex 0.391982 -21.2295 -2
    endloop
  endfacet
  facet normal 0 0 -1
    outer loop
      vertex 3.27226 -22.7919 -2
      vertex 1.48215 -23.4708 -2
      vertex 1.15881 -21.0665 -2
    endloop
  endfacet
  facet normal 0 0 -1
    outer loop
      vertex 3.27226 -22.7919 -2
      vertex 1.15881 -21.0665 -2
      vertex 1.875 -20.7476 -2
    endloop
  endfacet
  facet normal 0 0 -1
    outer loop
      vertex 4.54182 -21.3589 -2
      vertex 3.27226 -22.7919 -2
      vertex 2.50924 -20.2868 -2
    endloop
  endfacet
  facet normal 0 0 -1
    outer loop
      vertex 4.54182 -21.3589 -2
      vertex 2.50924 -20.2868 -2
      vertex 3.03381 -19.7042 -2
    endloop
  endfacet
  facet normal 0 0 -1
    outer loop
      vertex 4.54182 -21.3589 -2
      vertex 3.03381 -19.7042 -2
      vertex 3.42579 -19.0253 -2
    endloop
  endfacet
  facet normal 0 0 -1
    outer loop
      vertex 5 -19.5 -2
      vertex 4.54182 -21.3589 -2
      vertex 3.66805 -18.2797 -2
    endloop
  endfacet
  facet normal 0 0 -1
    outer loop
      vertex -6.6 22.9 -2
      vertex 9.125 23.7655 -2
      vertex 6.6 22.9 -2
    endloop
  endfacet
  facet normal 0 0 -1
    outer loop
      vertex 5 -19.5 -2
      vertex 3.66805 -18.2797 -2
      vertex 3.75 -17.5 -2
    endloop
  endfacet
  facet normal 0 0 -1
    outer loop
      vertex -6.6 22.9 -2
      vertex 8.25 23.7655 -2
      vertex 9.125 23.7655 -2
    endloop
  endfacet
  facet normal 0 0 -1
    outer loop
      vertex 5 -19.5 -2
      vertex 3.75 -17.5 -2
      vertex 3.66805 -16.7203 -2
    endloop
  endfacet
  facet normal 0 0 -1
    outer loop
      vertex 5 -19.5 -2
      vertex 3.66805 -16.7203 -2
      vertex 3.42579 -15.9747 -2
    endloop
  endfacet
  facet normal 0 0 -1
    outer loop
      vertex -6.6 22.9 -2
      vertex 8.25 24 -2
      vertex 8.25 23.7655 -2
    endloop
  endfacet
  facet normal 0 0 -1
    outer loop
      vertex 1.15881 -21.0665 -2
      vertex 1.48215 -23.4708 -2
      vertex 1 -23.4123 -2
    endloop
  endfacet
  facet normal 0 0 -1
    outer loop
      vertex -1.15881 -21.0665 -2
      vertex -1 -23.4123 -2
      vertex -1.875 -20.7476 -2
    endloop
  endfacet
  facet normal 0 0 -1
    outer loop
      vertex -2.41842 -23.2401 -2
      vertex -2.50924 -20.2868 -2
      vertex -1.875 -20.7476 -2
    endloop
  endfacet
  facet normal 0 0 -1
    outer loop
      vertex -2.41842 -23.2401 -2
      vertex -1.875 -20.7476 -2
      vertex -1 -23.4123 -2
    endloop
  endfacet
  facet normal 0 0 -1
    outer loop
      vertex -5 19 -2
      vertex 3.03381 -15.2958 -2
      vertex 2.50924 -14.7132 -2
    endloop
  endfacet
  facet normal 0 0 -1
    outer loop
      vertex -5 19 -2
      vertex 2.50924 -14.7132 -2
      vertex 1.875 -14.2524 -2
    endloop
  endfacet
  facet normal 0 0 -1
    outer loop
      vertex -5 19 -2
      vertex 1.875 -14.2524 -2
      vertex 1.15881 -13.9335 -2
    endloop
  endfacet
  facet normal 0 0 -1
    outer loop
      vertex 3.66805 -18.2797 -2
      vertex 4.54182 -21.3589 -2
      vertex 3.42579 -19.0253 -2
    endloop
  endfacet
  facet normal 0 0 -1
    outer loop
      vertex -5 19 -2
      vertex 1.15881 -13.9335 -2
      vertex 0.391982 -13.7705 -2
    endloop
  endfacet
  facet normal 0 0 -1
    outer loop
      vertex -5 19 -2
      vertex 0.391982 -13.7705 -2
      vertex -0.391982 -13.7705 -2
    endloop
  endfacet
  facet normal 0 0 -1
    outer loop
      vertex 2.50924 -20.2868 -2
      vertex 3.27226 -22.7919 -2
      vertex 1.875 -20.7476 -2
    endloop
  endfacet
  facet normal 0 0 -1
    outer loop
      vertex -5 19 -2
      vertex -0.391982 -13.7705 -2
      vertex -1.15881 -13.9335 -2
    endloop
  endfacet
  facet normal 0 0 -1
    outer loop
      vertex -5 19 -2
      vertex -1.15881 -13.9335 -2
      vertex -1.875 -14.2524 -2
    endloop
  endfacet
  facet normal 0 0 -1
    outer loop
      vertex -5 19 -2
      vertex -1.875 -14.2524 -2
      vertex -2.50924 -14.7132 -2
    endloop
  endfacet
  facet normal 0 0 -1
    outer loop
      vertex 1 -23.4123 -2
      vertex 1 -23.5 -2
      vertex 0.391982 -21.2295 -2
    endloop
  endfacet
  facet normal 0 0 -1
    outer loop
      vertex -5 19 -2
      vertex -2.50924 -14.7132 -2
      vertex -3.03381 -15.2958 -2
    endloop
  endfacet
  facet normal 0 0 -1
    outer loop
      vertex -5 19 -2
      vertex -3.03381 -15.2958 -2
      vertex -3.42579 -15.9747 -2
    endloop
  endfacet
  facet normal 0 0 -1
    outer loop
      vertex -5 19 -2
      vertex -3.42579 -15.9747 -2
      vertex -3.66805 -16.7203 -2
    endloop
  endfacet
  facet normal 0 0 -1
    outer loop
      vertex -5 19 -2
      vertex -3.66805 -16.7203 -2
      vertex -3.75 -17.5 -2
    endloop
  endfacet
  facet normal 0 0 -1
    outer loop
      vertex -5 19 -2
      vertex -3.75 -17.5 -2
      vertex -3.99404 -22.1525 -2
    endloop
  endfacet
  facet normal 0 0 -1
    outer loop
      vertex -5 19 -2
      vertex -3.99404 -22.1525 -2
      vertex -4.88377 -19.5 -2
    endloop
  endfacet
  facet normal 0 0 -1
    outer loop
      vertex -5 19 -2
      vertex -4.88377 -19.5 -2
      vertex -5 -19.5 -2
    endloop
  endfacet
  facet normal -0.866025 0.5 0
    outer loop
      vertex -10 22.25 -2
      vertex -10 22.25 2
      vertex -9.125 23.7655 -2
    endloop
  endfacet
  facet normal -0.866025 0.5 0
    outer loop
      vertex -9.125 23.7655 -2
      vertex -10 22.25 2
      vertex -9.125 23.7655 2
    endloop
  endfacet
  facet normal 0 0 1
    outer loop
      vertex -10 22.25 2
      vertex -10 20.75 2
      vertex -9.125 19.2345 2
    endloop
  endfacet
  facet normal 0 0 1
    outer loop
      vertex -7.73262 20.6771 2
      vertex -10 22.25 2
      vertex -8.25 19.2345 2
    endloop
  endfacet
  facet normal 0 0 1
    outer loop
      vertex -8.25 19.2345 2
      vertex -10 22.25 2
      vertex -9.125 19.2345 2
    endloop
  endfacet
  facet normal 0 0 1
    outer loop
      vertex -5 19 2
      vertex -8.25 19.2345 2
      vertex -8.25 19 2
    endloop
  endfacet
  facet normal 0 0 1
    outer loop
      vertex 6.6 20.1 2
      vertex 8.25 19.2345 2
      vertex 9.125 19.2345 2
    endloop
  endfacet
  facet normal 0 0 1
    outer loop
      vertex -4.88377 -19.5 2
      vertex -5 19 2
      vertex -5 -19.5 2
    endloop
  endfacet
  facet normal 0 0 1
    outer loop
      vertex -3.99404 -22.1525 2
      vertex -5 19 2
      vertex -4.88377 -19.5 2
    endloop
  endfacet
  facet normal 0 0 1
    outer loop
      vertex -3.99404 -22.1525 2
      vertex -4.88377 -19.5 2
      vertex -4.88377 -20.4573 2
    endloop
  endfacet
  facet normal 0 0 1
    outer loop
      vertex -3.75 -17.5 2
      vertex -5 19 2
      vertex -3.99404 -22.1525 2
    endloop
  endfacet
  facet normal 0 0 1
    outer loop
      vertex 1 -23.5 2
      vertex -1 -23.4123 2
      vertex -1 -23.5 2
    endloop
  endfacet
  facet normal 0 0 1
    outer loop
      vertex 2.4 6.6 2
      vertex 3.03381 -15.2958 2
      vertex 3.42579 -15.9747 2
    endloop
  endfacet
  facet normal 0 0 1
    outer loop
      vertex 2.4 6.6 2
      vertex 3.42579 -15.9747 2
      vertex 5 -19.5 2
    endloop
  endfacet
  facet normal 0 0 1
    outer loop
      vertex -2.50924 -20.2868 2
      vertex -3.03381 -19.7042 2
      vertex -2.41842 -23.2401 2
    endloop
  endfacet
  facet normal 0 0 1
    outer loop
      vertex 6.6 22.6909 2
      vertex 7.03262 22.8315 2
      vertex 6.6 22.9 2
    endloop
  endfacet
  facet normal 0 0 1
    outer loop
      vertex 6.6 20.1 2
      vertex 8.25 19 2
      vertex 8.25 19.2345 2
    endloop
  endfacet
  facet normal 0 0 1
    outer loop
      vertex -6.6 22.9 2
      vertex 8.25 23.7655 2
      vertex 8.25 24 2
    endloop
  endfacet
  facet normal 0 0 1
    outer loop
      vertex -2.4 -14.6338 2
      vertex -2.4 6.6 2
      vertex -5 19 2
    endloop
  endfacet
  facet normal 0 0 1
    outer loop
      vertex -8.25 24 2
      vertex -8.25 23.7655 2
      vertex 8.25 24 2
    endloop
  endfacet
  facet normal 0 0 1
    outer loop
      vertex -6.6 20.1 2
      vertex -7.73262 20.6771 2
      vertex -5 19 2
    endloop
  endfacet
  facet normal 0 0 1
    outer loop
      vertex -5 19 2
      vertex -7.73262 20.6771 2
      vertex -8.25 19.2345 2
    endloop
  endfacet
  facet normal 0 0 1
    outer loop
      vertex -6.6 22.9 2
      vertex 9.125 23.7655 2
      vertex 8.25 23.7655 2
    endloop
  endfacet
  facet normal 0 0 1
    outer loop
      vertex 6.6 20.1 2
      vertex 5 19 2
      vertex 8.25 19 2
    endloop
  endfacet
  facet normal 0 0 1
    outer loop
      vertex -8.25 23.7655 2
      vertex -10 22.25 2
      vertex -6.6 22.6909 2
    endloop
  endfacet
  facet normal 0 0 1
    outer loop
      vertex -8.25 23.7655 2
      vertex -6.6 22.9 2
      vertex 8.25 24 2
    endloop
  endfacet
  facet normal 0 0 1
    outer loop
      vertex -8.25 23.7655 2
      vertex -6.6 22.6909 2
      vertex -6.6 22.9 2
    endloop
  endfacet
  facet normal 0 0 1
    outer loop
      vertex 8 21.5 2
      vertex 7.03262 20.1685 2
      vertex 10 20.75 2
    endloop
  endfacet
  facet normal 0 0 1
    outer loop
      vertex 9.125 23.7655 2
      vertex 7.03262 22.8315 2
      vertex 10 22.25 2
    endloop
  endfacet
  facet normal 0 0 1
    outer loop
      vertex 9.125 23.7655 2
      vertex 6.6 22.9 2
      vertex 7.03262 22.8315 2
    endloop
  endfacet
  facet normal 0 0 1
    outer loop
      vertex 10 22.25 2
      vertex 8 21.5 2
      vertex 10 20.75 2
    endloop
  endfacet
  facet normal 0 0 1
    outer loop
      vertex 7.03262 22.8315 2
      vertex 8 21.5 2
      vertex 10 22.25 2
    endloop
  endfacet
  facet normal 0 0 1
    outer loop
      vertex 10 20.75 2
      vertex 7.03262 20.1685 2
      vertex 9.125 19.2345 2
    endloop
  endfacet
  facet normal 0 0 1
    outer loop
      vertex -6.6 22.9 2
      vertex 6.6 22.9 2
      vertex 9.125 23.7655 2
    endloop
  endfacet
  facet normal 0 0 1
    outer loop
      vertex -7.73262 22.3229 2
      vertex -6.6 22.6909 2
      vertex -10 22.25 2
    endloop
  endfacet
  facet normal 0 0 1
    outer loop
      vertex 7.03262 20.1685 2
      vertex 6.6 20.1 2
      vertex 9.125 19.2345 2
    endloop
  endfacet
  facet normal 0 0 1
    outer loop
      vertex 6.6 20.1 2
      vertex -6.6 20.1 2
      vertex 5 19 2
    endloop
  endfacet
  facet normal 0 0 1
    outer loop
      vertex 5 19 2
      vertex -6.6 20.1 2
      vertex -5 19 2
    endloop
  endfacet
  facet normal 0 0 1
    outer loop
      vertex 6.6 20.3091 2
      vertex 6.6 20.1 2
      vertex 7.03262 20.1685 2
    endloop
  endfacet
  facet normal 0 0 1
    outer loop
      vertex -2.41842 -23.2401 2
      vertex -3.66805 -18.2797 2
      vertex -3.99404 -22.1525 2
    endloop
  endfacet
  facet normal 0 0 1
    outer loop
      vertex -3.66805 -18.2797 2
      vertex -3.75 -17.5 2
      vertex -3.99404 -22.1525 2
    endloop
  endfacet
  facet normal 0 0 1
    outer loop
      vertex -3.42579 -15.9747 2
      vertex -5 19 2
      vertex -3.66805 -16.7203 2
    endloop
  endfacet
  facet normal 0 0 1
    outer loop
      vertex -3.03381 -15.2958 2
      vertex -5 19 2
      vertex -3.42579 -15.9747 2
    endloop
  endfacet
  facet normal 0 0 1
    outer loop
      vertex -3.03381 -19.7042 2
      vertex -3.42579 -19.0253 2
      vertex -2.41842 -23.2401 2
    endloop
  endfacet
  facet normal 0 0 1
    outer loop
      vertex -2.4 -14.6338 2
      vertex -5 19 2
      vertex -2.50924 -14.7132 2
    endloop
  endfacet
  facet normal 0 0 1
    outer loop
      vertex -1.875 -20.7476 2
      vertex -2.50924 -20.2868 2
      vertex -2.41842 -23.2401 2
    endloop
  endfacet
  facet normal 0 0 1
    outer loop
      vertex 1 -23.4123 2
      vertex 0.391982 -21.2295 2
      vertex 1 -23.5 2
    endloop
  endfacet
  facet normal 0 0 1
    outer loop
      vertex 5 19 2
      vertex -5 19 2
      vertex -1.69706 8.29706 2
    endloop
  endfacet
  facet normal 0 0 1
    outer loop
      vertex 5 19 2
      vertex -1.69706 8.29706 2
      vertex 0 9 2
    endloop
  endfacet
  facet normal 0 0 1
    outer loop
      vertex 5 19 2
      vertex 0 9 2
      vertex 1.69706 8.29706 2
    endloop
  endfacet
  facet normal 0 0 1
    outer loop
      vertex 5 19 2
      vertex 2.4 6.6 2
      vertex 5 -19.5 2
    endloop
  endfacet
  facet normal 0 0 1
    outer loop
      vertex 5 19 2
      vertex 1.69706 8.29706 2
      vertex 2.4 6.6 2
    endloop
  endfacet
  facet normal 0 0 1
    outer loop
      vertex 1.15881 -21.0665 2
      vertex 0.391982 -21.2295 2
      vertex 1 -23.4123 2
    endloop
  endfacet
  facet normal 0 0 1
    outer loop
      vertex 3.75 -17.5 2
      vertex 3.66805 -18.2797 2
      vertex 4.54182 -21.3589 2
    endloop
  endfacet
  facet normal 0 0 1
    outer loop
      vertex 3.66805 -18.2797 2
      vertex 3.42579 -19.0253 2
      vertex 4.54182 -21.3589 2
    endloop
  endfacet
  facet normal 0 0 1
    outer loop
      vertex 5 -19.5 2
      vertex 3.66805 -16.7203 2
      vertex 4.54182 -21.3589 2
    endloop
  endfacet
  facet normal 0 0 1
    outer loop
      vertex 5 -19.5 2
      vertex 3.42579 -15.9747 2
      vertex 3.66805 -16.7203 2
    endloop
  endfacet
  facet normal 0 0 1
    outer loop
      vertex 3.66805 -16.7203 2
      vertex 3.75 -17.5 2
      vertex 4.54182 -21.3589 2
    endloop
  endfacet
  facet normal 0 0 1
    outer loop
      vertex 3.03381 -19.7042 2
      vertex 2.50924 -20.2868 2
      vertex 3.27226 -22.7919 2
    endloop
  endfacet
  facet normal 0 0 1
    outer loop
      vertex 4.54182 -21.3589 2
      vertex 3.42579 -19.0253 2
      vertex 3.27226 -22.7919 2
    endloop
  endfacet
  facet normal 0 0 1
    outer loop
      vertex 3.42579 -19.0253 2
      vertex 3.03381 -19.7042 2
      vertex 3.27226 -22.7919 2
    endloop
  endfacet
  facet normal 0 0 1
    outer loop
      vertex 3.27226 -22.7919 2
      vertex 2.50924 -20.2868 2
      vertex 1.48215 -23.4708 2
    endloop
  endfacet
  facet normal 0 0 1
    outer loop
      vertex 2.50924 -20.2868 2
      vertex 1.875 -20.7476 2
      vertex 1.48215 -23.4708 2
    endloop
  endfacet
  facet normal 0 0 1
    outer loop
      vertex 1.875 -20.7476 2
      vertex 1.15881 -21.0665 2
      vertex 1.48215 -23.4708 2
    endloop
  endfacet
  facet normal 0 0 1
    outer loop
      vertex -2.4 6.6 2
      vertex -1.69706 8.29706 2
      vertex -5 19 2
    endloop
  endfacet
  facet normal 0 0 1
    outer loop
      vertex 1 -23.5 2
      vertex 0.391982 -21.2295 2
      vertex -1 -23.4123 2
    endloop
  endfacet
  facet normal 0 0 1
    outer loop
      vertex 2.4 6.6 2
      vertex 2.50924 -14.7132 2
      vertex 3.03381 -15.2958 2
    endloop
  endfacet
  facet normal 0 0 1
    outer loop
      vertex 0.391982 -21.2295 2
      vertex -0.391982 -21.2295 2
      vertex -1 -23.4123 2
    endloop
  endfacet
  facet normal 0 0 1
    outer loop
      vertex 2.4 6.6 2
      vertex 2.4 -14.6338 2
      vertex 2.50924 -14.7132 2
    endloop
  endfacet
  facet normal 0 0 1
    outer loop
      vertex -0.391982 -21.2295 2
      vertex -1.15881 -21.0665 2
      vertex -1 -23.4123 2
    endloop
  endfacet
  facet normal 0 0 1
    outer loop
      vertex -1 -23.4123 2
      vertex -1.875 -20.7476 2
      vertex -2.41842 -23.2401 2
    endloop
  endfacet
  facet normal 0 0 1
    outer loop
      vertex -2.41842 -23.2401 2
      vertex -3.42579 -19.0253 2
      vertex -3.66805 -18.2797 2
    endloop
  endfacet
  facet normal 0 0 1
    outer loop
      vertex -8.25 23.7655 2
      vertex -9.125 23.7655 2
      vertex -10 22.25 2
    endloop
  endfacet
  facet normal 0 0 1
    outer loop
      vertex -6.6 20.3091 2
      vertex -7.73262 20.6771 2
      vertex -6.6 20.1 2
    endloop
  endfacet
  facet normal 0 0 1
    outer loop
      vertex -1.15881 -21.0665 2
      vertex -1.875 -20.7476 2
      vertex -1 -23.4123 2
    endloop
  endfacet
  facet normal 0 0 1
    outer loop
      vertex 1.15881 -21.0665 2
      vertex 1 -23.4123 2
      vertex 1.48215 -23.4708 2
    endloop
  endfacet
  facet normal 0 0 1
    outer loop
      vertex -3.03381 -15.2958 2
      vertex -2.50924 -14.7132 2
      vertex -5 19 2
    endloop
  endfacet
  facet normal 0 0 1
    outer loop
      vertex -3.75 -17.5 2
      vertex -3.66805 -16.7203 2
      vertex -5 19 2
    endloop
  endfacet
  facet normal 0 0 1
    outer loop
      vertex -7.73262 20.6771 2
      vertex -7.73262 22.3229 2
      vertex -10 22.25 2
    endloop
  endfacet
  facet normal 0 -1 0
    outer loop
      vertex -9.125 19.2345 2
      vertex -9.125 19.2345 -2
      vertex -8.25 19.2345 -2
    endloop
  endfacet
  facet normal 0 -1 0
    outer loop
      vertex -8.25 19.2345 2
      vertex -9.125 19.2345 2
      vertex -8.25 19.2345 -2
    endloop
  endfacet
  facet normal -1 0 0
    outer loop
      vertex -8.25 19 -2
      vertex -8.25 19 2
      vertex -8.25 19.2345 -2
    endloop
  endfacet
  facet normal -1 0 0
    outer loop
      vertex -8.25 19.2345 -2
      vertex -8.25 19 2
      vertex -8.25 19.2345 2
    endloop
  endfacet
  facet normal 0 -1 0
    outer loop
      vertex -8.25 19 2
      vertex -8.25 19 -2
      vertex -5 19 -2
    endloop
  endfacet
  facet normal 0 -1 0
    outer loop
      vertex -5 19 2
      vertex -8.25 19 2
      vertex -5 19 -2
    endloop
  endfacet
  facet normal -1 0 0
    outer loop
      vertex -5 -19.5 -2
      vertex -5 -19.5 2
      vertex -5 19 -2
    endloop
  endfacet
  facet normal -1 0 0
    outer loop
      vertex -5 19 -2
      vertex -5 -19.5 2
      vertex -5 19 2
    endloop
  endfacet
  facet normal 0 -1 0
    outer loop
      vertex -5 -19.5 2
      vertex -5 -19.5 -2
      vertex -4.88377 -19.5 -2
    endloop
  endfacet
  facet normal 0 -1 0
    outer loop
      vertex -4.88377 -19.5 2
      vertex -5 -19.5 2
      vertex -4.88377 -19.5 -2
    endloop
  endfacet
  facet normal -1 0 0
    outer loop
      vertex -4.88377 -20.4573 -2
      vertex -4.88377 -20.4573 2
      vertex -4.88377 -19.5 -2
    endloop
  endfacet
  facet normal -1 0 0
    outer loop
      vertex -4.88377 -19.5 -2
      vertex -4.88377 -20.4573 2
      vertex -4.88377 -19.5 2
    endloop
  endfacet
  facet normal -0.885456 -0.464723 0
    outer loop
      vertex -4.88377 -20.4573 -2
      vertex -3.99404 -22.1525 -2
      vertex -4.88377 -20.4573 2
    endloop
  endfacet
  facet normal -0.885456 -0.464723 0
    outer loop
      vertex -4.88377 -20.4573 2
      vertex -3.99404 -22.1525 -2
      vertex -3.99404 -22.1525 2
    endloop
  endfacet
  facet normal -0.568065 -0.822984 0
    outer loop
      vertex -3.99404 -22.1525 2
      vertex -3.99404 -22.1525 -2
      vertex -2.41842 -23.2401 -2
    endloop
  endfacet
  facet normal -0.568065 -0.822984 0
    outer loop
      vertex -2.41842 -23.2401 2
      vertex -3.99404 -22.1525 2
      vertex -2.41842 -23.2401 -2
    endloop
  endfacet
  facet normal -0.120536 -0.992709 0
    outer loop
      vertex -2.41842 -23.2401 2
      vertex -2.41842 -23.2401 -2
      vertex -1 -23.4123 -2
    endloop
  endfacet
  facet normal -0.120536 -0.992709 0
    outer loop
      vertex -1 -23.4123 2
      vertex -2.41842 -23.2401 2
      vertex -1 -23.4123 -2
    endloop
  endfacet
  facet normal -1 0 0
    outer loop
      vertex -1 -23.5 -2
      vertex -1 -23.5 2
      vertex -1 -23.4123 -2
    endloop
  endfacet
  facet normal -1 0 0
    outer loop
      vertex -1 -23.4123 -2
      vertex -1 -23.5 2
      vertex -1 -23.4123 2
    endloop
  endfacet
  facet normal 0 -1 0
    outer loop
      vertex -1 -23.5 2
      vertex -1 -23.5 -2
      vertex 1 -23.5 -2
    endloop
  endfacet
  facet normal 0 -1 0
    outer loop
      vertex 1 -23.5 2
      vertex -1 -23.5 2
      vertex 1 -23.5 -2
    endloop
  endfacet
  facet normal 1 0 0
    outer loop
      vertex 1 -23.5 2
      vertex 1 -23.5 -2
      vertex 1 -23.4123 -2
    endloop
  endfacet
  facet normal 1 0 0
    outer loop
      vertex 1 -23.4123 2
      vertex 1 -23.5 2
      vertex 1 -23.4123 -2
    endloop
  endfacet
  facet normal -0.120536 -0.992709 0
    outer loop
      vertex 1 -23.4123 2
      vertex 1 -23.4123 -2
      vertex 1.48215 -23.4708 -2
    endloop
  endfacet
  facet normal -0.120536 -0.992709 0
    outer loop
      vertex 1.48215 -23.4708 2
      vertex 1 -23.4123 2
      vertex 1.48215 -23.4708 -2
    endloop
  endfacet
  facet normal 0.354605 -0.935016 0
    outer loop
      vertex 1.48215 -23.4708 2
      vertex 1.48215 -23.4708 -2
      vertex 3.27226 -22.7919 -2
    endloop
  endfacet
  facet normal 0.354605 -0.935016 0
    outer loop
      vertex 3.27226 -22.7919 2
      vertex 1.48215 -23.4708 2
      vertex 3.27226 -22.7919 -2
    endloop
  endfacet
  facet normal 0.748511 -0.663123 0
    outer loop
      vertex 3.27226 -22.7919 2
      vertex 3.27226 -22.7919 -2
      vertex 4.54182 -21.3589 -2
    endloop
  endfacet
  facet normal 0.748511 -0.663123 0
    outer loop
      vertex 4.54182 -21.3589 2
      vertex 3.27226 -22.7919 2
      vertex 4.54182 -21.3589 -2
    endloop
  endfacet
  facet normal 0.970942 -0.239316 0
    outer loop
      vertex 4.54182 -21.3589 2
      vertex 4.54182 -21.3589 -2
      vertex 5 -19.5 -2
    endloop
  endfacet
  facet normal 0.970942 -0.239316 0
    outer loop
      vertex 5 -19.5 2
      vertex 4.54182 -21.3589 2
      vertex 5 -19.5 -2
    endloop
  endfacet
  facet normal 1 0 0
    outer loop
      vertex 5 -19.5 2
      vertex 5 -19.5 -2
      vertex 5 19 -2
    endloop
  endfacet
  facet normal 1 0 0
    outer loop
      vertex 5 19 2
      vertex 5 -19.5 2
      vertex 5 19 -2
    endloop
  endfacet
  facet normal 0 -1 0
    outer loop
      vertex 5 19 2
      vertex 5 19 -2
      vertex 8.25 19 -2
    endloop
  endfacet
  facet normal 0 -1 0
    outer loop
      vertex 8.25 19 2
      vertex 5 19 2
      vertex 8.25 19 -2
    endloop
  endfacet
  facet normal 1 0 0
    outer loop
      vertex 8.25 19 2
      vertex 8.25 19 -2
      vertex 8.25 19.2345 -2
    endloop
  endfacet
  facet normal 1 0 0
    outer loop
      vertex 8.25 19.2345 2
      vertex 8.25 19 2
      vertex 8.25 19.2345 -2
    endloop
  endfacet
  facet normal 0 -1 0
    outer loop
      vertex 8.25 19.2345 2
      vertex 8.25 19.2345 -2
      vertex 9.125 19.2345 -2
    endloop
  endfacet
  facet normal 0 -1 0
    outer loop
      vertex 9.125 19.2345 2
      vertex 8.25 19.2345 2
      vertex 9.125 19.2345 -2
    endloop
  endfacet
  facet normal 0.866025 -0.5 0
    outer loop
      vertex 9.125 19.2345 2
      vertex 9.125 19.2345 -2
      vertex 10 20.75 -2
    endloop
  endfacet
  facet normal 0.866025 -0.5 0
    outer loop
      vertex 10 20.75 2
      vertex 9.125 19.2345 2
      vertex 10 20.75 -2
    endloop
  endfacet
  facet normal 1 0 0
    outer loop
      vertex 10 20.75 2
      vertex 10 20.75 -2
      vertex 10 22.25 -2
    endloop
  endfacet
  facet normal 1 0 0
    outer loop
      vertex 10 22.25 2
      vertex 10 20.75 2
      vertex 10 22.25 -2
    endloop
  endfacet
  facet normal 0.866025 0.5 0
    outer loop
      vertex 10 22.25 -2
      vertex 9.125 23.7655 -2
      vertex 9.125 23.7655 2
    endloop
  endfacet
  facet normal 0.866025 0.5 0
    outer loop
      vertex 10 22.25 2
      vertex 10 22.25 -2
      vertex 9.125 23.7655 2
    endloop
  endfacet
  facet normal 0 1 0
    outer loop
      vertex 8.25 23.7655 -2
      vertex 8.25 23.7655 2
      vertex 9.125 23.7655 -2
    endloop
  endfacet
  facet normal 0 1 0
    outer loop
      vertex 9.125 23.7655 -2
      vertex 8.25 23.7655 2
      vertex 9.125 23.7655 2
    endloop
  endfacet
  facet normal 1 0 0
    outer loop
      vertex 8.25 23.7655 2
      vertex 8.25 23.7655 -2
      vertex 8.25 24 -2
    endloop
  endfacet
  facet normal 1 0 0
    outer loop
      vertex 8.25 24 2
      vertex 8.25 23.7655 2
      vertex 8.25 24 -2
    endloop
  endfacet
  facet normal 0 1 0
    outer loop
      vertex -8.25 24 -2
      vertex -8.25 24 2
      vertex 8.25 24 -2
    endloop
  endfacet
  facet normal 0 1 0
    outer loop
      vertex 8.25 24 -2
      vertex -8.25 24 2
      vertex 8.25 24 2
    endloop
  endfacet
  facet normal -1 0 0
    outer loop
      vertex -8.25 23.7655 -2
      vertex -8.25 23.7655 2
      vertex -8.25 24 -2
    endloop
  endfacet
  facet normal -1 0 0
    outer loop
      vertex -8.25 24 -2
      vertex -8.25 23.7655 2
      vertex -8.25 24 2
    endloop
  endfacet
  facet normal 0 1 0
    outer loop
      vertex -9.125 23.7655 -2
      vertex -9.125 23.7655 2
      vertex -8.25 23.7655 -2
    endloop
  endfacet
  facet normal 0 1 0
    outer loop
      vertex -8.25 23.7655 -2
      vertex -9.125 23.7655 2
      vertex -8.25 23.7655 2
    endloop
  endfacet
  facet normal 0.309017 -0.951056 0
    outer loop
      vertex -6.6 22.6909 -2
      vertex -6.6 22.6909 2
      vertex -7.73262 22.3229 2
    endloop
  endfacet
  facet normal 0.309017 -0.951056 0
    outer loop
      vertex -7.73262 22.3229 -2
      vertex -6.6 22.6909 -2
      vertex -7.73262 22.3229 2
    endloop
  endfacet
  facet normal 1 0 0
    outer loop
      vertex -7.73262 22.3229 -2
      vertex -7.73262 22.3229 2
      vertex -7.73262 20.6771 2
    endloop
  endfacet
  facet normal 1 0 0
    outer loop
      vertex -7.73262 20.6771 -2
      vertex -7.73262 22.3229 -2
      vertex -7.73262 20.6771 2
    endloop
  endfacet
  facet normal 1 0 0
    outer loop
      vertex -6.6 22.9 -2
      vertex -6.6 22.9 2
      vertex -6.6 22.6909 2
    endloop
  endfacet
  facet normal 1 0 0
    outer loop
      vertex -6.6 22.6909 -2
      vertex -6.6 22.9 -2
      vertex -6.6 22.6909 2
    endloop
  endfacet
  facet normal 0 -1 0
    outer loop
      vertex 6.6 22.9 -2
      vertex 6.6 22.9 2
      vertex -6.6 22.9 2
    endloop
  endfacet
  facet normal 0 -1 0
    outer loop
      vertex -6.6 22.9 -2
      vertex 6.6 22.9 -2
      vertex -6.6 22.9 2
    endloop
  endfacet
  facet normal -1 0 0
    outer loop
      vertex 6.6 22.9 2
      vertex 6.6 22.9 -2
      vertex 6.6 22.6909 2
    endloop
  endfacet
  facet normal -1 0 0
    outer loop
      vertex 6.6 22.6909 2
      vertex 6.6 22.9 -2
      vertex 6.6 22.6909 -2
    endloop
  endfacet
  facet normal 0.309017 -0.951056 0
    outer loop
      vertex 7.03262 22.8315 -2
      vertex 7.03262 22.8315 2
      vertex 6.6 22.6909 2
    endloop
  endfacet
  facet normal 0.309017 -0.951056 0
    outer loop
      vertex 6.6 22.6909 -2
      vertex 7.03262 22.8315 -2
      vertex 6.6 22.6909 2
    endloop
  endfacet
  facet normal -0.809017 -0.587785 0
    outer loop
      vertex 8 21.5 2
      vertex 7.03262 22.8315 2
      vertex 8 21.5 -2
    endloop
  endfacet
  facet normal -0.809017 -0.587785 0
    outer loop
      vertex 8 21.5 -2
      vertex 7.03262 22.8315 2
      vertex 7.03262 22.8315 -2
    endloop
  endfacet
  facet normal -0.809017 0.587785 0
    outer loop
      vertex 8 21.5 2
      vertex 8 21.5 -2
      vertex 7.03262 20.1685 2
    endloop
  endfacet
  facet normal -0.809017 0.587785 0
    outer loop
      vertex 7.03262 20.1685 2
      vertex 8 21.5 -2
      vertex 7.03262 20.1685 -2
    endloop
  endfacet
  facet normal 0.309017 0.951056 0
    outer loop
      vertex 7.03262 20.1685 2
      vertex 7.03262 20.1685 -2
      vertex 6.6 20.3091 2
    endloop
  endfacet
  facet normal 0.309017 0.951056 0
    outer loop
      vertex 6.6 20.3091 2
      vertex 7.03262 20.1685 -2
      vertex 6.6 20.3091 -2
    endloop
  endfacet
  facet normal -1 0 0
    outer loop
      vertex 6.6 20.3091 2
      vertex 6.6 20.3091 -2
      vertex 6.6 20.1 2
    endloop
  endfacet
  facet normal -1 0 0
    outer loop
      vertex 6.6 20.1 2
      vertex 6.6 20.3091 -2
      vertex 6.6 20.1 -2
    endloop
  endfacet
  facet normal 0 1 0
    outer loop
      vertex 6.6 20.1 2
      vertex 6.6 20.1 -2
      vertex -6.6 20.1 2
    endloop
  endfacet
  facet normal 0 1 0
    outer loop
      vertex -6.6 20.1 2
      vertex 6.6 20.1 -2
      vertex -6.6 20.1 -2
    endloop
  endfacet
  facet normal 1 0 0
    outer loop
      vertex -6.6 20.3091 -2
      vertex -6.6 20.3091 2
      vertex -6.6 20.1 2
    endloop
  endfacet
  facet normal 1 0 0
    outer loop
      vertex -6.6 20.1 -2
      vertex -6.6 20.3091 -2
      vertex -6.6 20.1 2
    endloop
  endfacet
  facet normal 0.309017 0.951056 0
    outer loop
      vertex -6.6 20.3091 2
      vertex -6.6 20.3091 -2
      vertex -7.73262 20.6771 2
    endloop
  endfacet
  facet normal 0.309017 0.951056 0
    outer loop
      vertex -7.73262 20.6771 2
      vertex -6.6 20.3091 -2
      vertex -7.73262 20.6771 -2
    endloop
  endfacet
  facet normal 0.994522 -0.104528 0
    outer loop
      vertex -3.66805 -16.7203 -2
      vertex -3.66805 -16.7203 2
      vertex -3.75 -17.5 2
    endloop
  endfacet
  facet normal 0.994522 -0.104528 0
    outer loop
      vertex -3.75 -17.5 -2
      vertex -3.66805 -16.7203 -2
      vertex -3.75 -17.5 2
    endloop
  endfacet
  facet normal 0.994522 0.104528 0
    outer loop
      vertex -3.75 -17.5 2
      vertex -3.66805 -18.2797 2
      vertex -3.66805 -18.2797 -2
    endloop
  endfacet
  facet normal 0.994522 0.104528 0
    outer loop
      vertex -3.75 -17.5 -2
      vertex -3.75 -17.5 2
      vertex -3.66805 -18.2797 -2
    endloop
  endfacet
  facet normal 0.951056 -0.309018 0
    outer loop
      vertex -3.42579 -15.9747 -2
      vertex -3.42579 -15.9747 2
      vertex -3.66805 -16.7203 2
    endloop
  endfacet
  facet normal 0.951056 -0.309018 0
    outer loop
      vertex -3.66805 -16.7203 -2
      vertex -3.42579 -15.9747 -2
      vertex -3.66805 -16.7203 2
    endloop
  endfacet
  facet normal 0.866026 -0.499999 0
    outer loop
      vertex -3.03381 -15.2958 -2
      vertex -3.03381 -15.2958 2
      vertex -3.42579 -15.9747 2
    endloop
  endfacet
  facet normal 0.866026 -0.499999 0
    outer loop
      vertex -3.42579 -15.9747 -2
      vertex -3.03381 -15.2958 -2
      vertex -3.42579 -15.9747 2
    endloop
  endfacet
  facet normal 0.743145 -0.669131 0
    outer loop
      vertex -2.50924 -14.7132 -2
      vertex -2.50924 -14.7132 2
      vertex -3.03381 -15.2958 2
    endloop
  endfacet
  facet normal 0.743145 -0.669131 0
    outer loop
      vertex -3.03381 -15.2958 -2
      vertex -2.50924 -14.7132 -2
      vertex -3.03381 -15.2958 2
    endloop
  endfacet
  facet normal 0.587785 -0.809017 0
    outer loop
      vertex -1.875 -14.2524 -2
      vertex -1.875 -14.2524 0.5
      vertex -2.4 -14.6338 0.5
    endloop
  endfacet
  facet normal 0.587785 -0.809017 0
    outer loop
      vertex -2.50924 -14.7132 -2
      vertex -1.875 -14.2524 -2
      vertex -2.4 -14.6338 0.5
    endloop
  endfacet
  facet normal 0.587785 -0.809017 0
    outer loop
      vertex -2.4 -14.6338 2
      vertex -2.50924 -14.7132 2
      vertex -2.4 -14.6338 0.5
    endloop
  endfacet
  facet normal 0.587785 -0.809017 0
    outer loop
      vertex -2.50924 -14.7132 2
      vertex -2.50924 -14.7132 -2
      vertex -2.4 -14.6338 0.5
    endloop
  endfacet
  facet normal 0.406737 -0.913545 0
    outer loop
      vertex -1.15881 -13.9335 -2
      vertex -1.15881 -13.9335 0.5
      vertex -1.875 -14.2524 0.5
    endloop
  endfacet
  facet normal 0.406737 -0.913545 0
    outer loop
      vertex -1.875 -14.2524 -2
      vertex -1.15881 -13.9335 -2
      vertex -1.875 -14.2524 0.5
    endloop
  endfacet
  facet normal 0.207911 -0.978148 0
    outer loop
      vertex -0.391982 -13.7705 -2
      vertex -0.391982 -13.7705 0.5
      vertex -1.15881 -13.9335 0.5
    endloop
  endfacet
  facet normal 0.207911 -0.978148 0
    outer loop
      vertex -1.15881 -13.9335 -2
      vertex -0.391982 -13.7705 -2
      vertex -1.15881 -13.9335 0.5
    endloop
  endfacet
  facet normal 0 -1 0
    outer loop
      vertex 0.391982 -13.7705 -2
      vertex 0.391982 -13.7705 0.5
      vertex -0.391982 -13.7705 0.5
    endloop
  endfacet
  facet normal 0 -1 0
    outer loop
      vertex -0.391982 -13.7705 -2
      vertex 0.391982 -13.7705 -2
      vertex -0.391982 -13.7705 0.5
    endloop
  endfacet
  facet normal -0.207911 -0.978148 0
    outer loop
      vertex 1.15881 -13.9335 -2
      vertex 1.15881 -13.9335 0.5
      vertex 0.391982 -13.7705 0.5
    endloop
  endfacet
  facet normal -0.207911 -0.978148 0
    outer loop
      vertex 0.391982 -13.7705 -2
      vertex 1.15881 -13.9335 -2
      vertex 0.391982 -13.7705 0.5
    endloop
  endfacet
  facet normal -0.406737 -0.913545 0
    outer loop
      vertex 1.875 -14.2524 -2
      vertex 1.875 -14.2524 0.5
      vertex 1.15881 -13.9335 0.5
    endloop
  endfacet
  facet normal -0.406737 -0.913545 0
    outer loop
      vertex 1.15881 -13.9335 -2
      vertex 1.875 -14.2524 -2
      vertex 1.15881 -13.9335 0.5
    endloop
  endfacet
  facet normal -0.587785 -0.809017 0
    outer loop
      vertex 2.50924 -14.7132 -2
      vertex 2.50924 -14.7132 2
      vertex 2.4 -14.6338 2
    endloop
  endfacet
  facet normal -0.587785 -0.809017 0
    outer loop
      vertex 1.875 -14.2524 0.5
      vertex 2.50924 -14.7132 -2
      vertex 2.4 -14.6338 0.5
    endloop
  endfacet
  facet normal -0.587785 -0.809017 0
    outer loop
      vertex 2.4 -14.6338 0.5
      vertex 2.50924 -14.7132 -2
      vertex 2.4 -14.6338 2
    endloop
  endfacet
  facet normal -0.587785 -0.809017 0
    outer loop
      vertex 1.875 -14.2524 -2
      vertex 2.50924 -14.7132 -2
      vertex 1.875 -14.2524 0.5
    endloop
  endfacet
  facet normal -0.743145 -0.669131 0
    outer loop
      vertex 3.03381 -15.2958 2
      vertex 2.50924 -14.7132 2
      vertex 3.03381 -15.2958 -2
    endloop
  endfacet
  facet normal -0.743145 -0.669131 0
    outer loop
      vertex 3.03381 -15.2958 -2
      vertex 2.50924 -14.7132 2
      vertex 2.50924 -14.7132 -2
    endloop
  endfacet
  facet normal -0.866026 -0.499999 0
    outer loop
      vertex 3.42579 -15.9747 2
      vertex 3.03381 -15.2958 2
      vertex 3.42579 -15.9747 -2
    endloop
  endfacet
  facet normal -0.866026 -0.499999 0
    outer loop
      vertex 3.42579 -15.9747 -2
      vertex 3.03381 -15.2958 2
      vertex 3.03381 -15.2958 -2
    endloop
  endfacet
  facet normal -0.951056 -0.309018 0
    outer loop
      vertex 3.66805 -16.7203 2
      vertex 3.42579 -15.9747 2
      vertex 3.66805 -16.7203 -2
    endloop
  endfacet
  facet normal -0.951056 -0.309018 0
    outer loop
      vertex 3.66805 -16.7203 -2
      vertex 3.42579 -15.9747 2
      vertex 3.42579 -15.9747 -2
    endloop
  endfacet
  facet normal -0.994522 -0.104528 0
    outer loop
      vertex 3.75 -17.5 2
      vertex 3.66805 -16.7203 2
      vertex 3.75 -17.5 -2
    endloop
  endfacet
  facet normal -0.994522 -0.104528 0
    outer loop
      vertex 3.75 -17.5 -2
      vertex 3.66805 -16.7203 2
      vertex 3.66805 -16.7203 -2
    endloop
  endfacet
  facet normal -0.994522 0.104528 0
    outer loop
      vertex 3.75 -17.5 2
      vertex 3.75 -17.5 -2
      vertex 3.66805 -18.2797 2
    endloop
  endfacet
  facet normal -0.994522 0.104528 0
    outer loop
      vertex 3.66805 -18.2797 2
      vertex 3.75 -17.5 -2
      vertex 3.66805 -18.2797 -2
    endloop
  endfacet
  facet normal -0.951056 0.309018 0
    outer loop
      vertex 3.66805 -18.2797 2
      vertex 3.66805 -18.2797 -2
      vertex 3.42579 -19.0253 2
    endloop
  endfacet
  facet normal -0.951056 0.309018 0
    outer loop
      vertex 3.42579 -19.0253 2
      vertex 3.66805 -18.2797 -2
      vertex 3.42579 -19.0253 -2
    endloop
  endfacet
  facet normal -0.866026 0.499999 0
    outer loop
      vertex 3.42579 -19.0253 2
      vertex 3.42579 -19.0253 -2
      vertex 3.03381 -19.7042 2
    endloop
  endfacet
  facet normal -0.866026 0.499999 0
    outer loop
      vertex 3.03381 -19.7042 2
      vertex 3.42579 -19.0253 -2
      vertex 3.03381 -19.7042 -2
    endloop
  endfacet
  facet normal -0.743145 0.669131 0
    outer loop
      vertex 3.03381 -19.7042 2
      vertex 3.03381 -19.7042 -2
      vertex 2.50924 -20.2868 2
    endloop
  endfacet
  facet normal -0.743145 0.669131 0
    outer loop
      vertex 2.50924 -20.2868 2
      vertex 3.03381 -19.7042 -2
      vertex 2.50924 -20.2868 -2
    endloop
  endfacet
  facet normal -0.587785 0.809017 0
    outer loop
      vertex 2.50924 -20.2868 2
      vertex 2.50924 -20.2868 -2
      vertex 1.875 -20.7476 2
    endloop
  endfacet
  facet normal -0.587785 0.809017 0
    outer loop
      vertex 1.875 -20.7476 2
      vertex 2.50924 -20.2868 -2
      vertex 1.875 -20.7476 -2
    endloop
  endfacet
  facet normal -0.406737 0.913545 0
    outer loop
      vertex 1.875 -20.7476 2
      vertex 1.875 -20.7476 -2
      vertex 1.15881 -21.0665 2
    endloop
  endfacet
  facet normal -0.406737 0.913545 0
    outer loop
      vertex 1.15881 -21.0665 2
      vertex 1.875 -20.7476 -2
      vertex 1.15881 -21.0665 -2
    endloop
  endfacet
  facet normal -0.207911 0.978148 0
    outer loop
      vertex 1.15881 -21.0665 2
      vertex 1.15881 -21.0665 -2
      vertex 0.391982 -21.2295 2
    endloop
  endfacet
  facet normal -0.207911 0.978148 0
    outer loop
      vertex 0.391982 -21.2295 2
      vertex 1.15881 -21.0665 -2
      vertex 0.391982 -21.2295 -2
    endloop
  endfacet
  facet normal 0 1 0
    outer loop
      vertex 0.391982 -21.2295 2
      vertex 0.391982 -21.2295 -2
      vertex -0.391982 -21.2295 2
    endloop
  endfacet
  facet normal 0 1 0
    outer loop
      vertex -0.391982 -21.2295 2
      vertex 0.391982 -21.2295 -2
      vertex -0.391982 -21.2295 -2
    endloop
  endfacet
  facet normal 0.207911 0.978148 0
    outer loop
      vertex -0.391982 -21.2295 2
      vertex -0.391982 -21.2295 -2
      vertex -1.15881 -21.0665 2
    endloop
  endfacet
  facet normal 0.207911 0.978148 0
    outer loop
      vertex -1.15881 -21.0665 2
      vertex -0.391982 -21.2295 -2
      vertex -1.15881 -21.0665 -2
    endloop
  endfacet
  facet normal 0.406737 0.913545 0
    outer loop
      vertex -1.15881 -21.0665 2
      vertex -1.15881 -21.0665 -2
      vertex -1.875 -20.7476 2
    endloop
  endfacet
  facet normal 0.406737 0.913545 0
    outer loop
      vertex -1.875 -20.7476 2
      vertex -1.15881 -21.0665 -2
      vertex -1.875 -20.7476 -2
    endloop
  endfacet
  facet normal 0.587785 0.809017 0
    outer loop
      vertex -1.875 -20.7476 2
      vertex -1.875 -20.7476 -2
      vertex -2.50924 -20.2868 2
    endloop
  endfacet
  facet normal 0.587785 0.809017 0
    outer loop
      vertex -2.50924 -20.2868 2
      vertex -1.875 -20.7476 -2
      vertex -2.50924 -20.2868 -2
    endloop
  endfacet
  facet normal 0.743145 0.669131 0
    outer loop
      vertex -3.03381 -19.7042 2
      vertex -2.50924 -20.2868 2
      vertex -2.50924 -20.2868 -2
    endloop
  endfacet
  facet normal 0.743145 0.669131 0
    outer loop
      vertex -3.03381 -19.7042 -2
      vertex -3.03381 -19.7042 2
      vertex -2.50924 -20.2868 -2
    endloop
  endfacet
  facet normal 0.866026 0.499999 0
    outer loop
      vertex -3.42579 -19.0253 2
      vertex -3.03381 -19.7042 2
      vertex -3.03381 -19.7042 -2
    endloop
  endfacet
  facet normal 0.866026 0.499999 0
    outer loop
      vertex -3.42579 -19.0253 -2
      vertex -3.42579 -19.0253 2
      vertex -3.03381 -19.7042 -2
    endloop
  endfacet
  facet normal 0.951056 0.309018 0
    outer loop
      vertex -3.66805 -18.2797 2
      vertex -3.42579 -19.0253 2
      vertex -3.42579 -19.0253 -2
    endloop
  endfacet
  facet normal 0.951056 0.309018 0
    outer loop
      vertex -3.66805 -18.2797 -2
      vertex -3.66805 -18.2797 2
      vertex -3.42579 -19.0253 -2
    endloop
  endfacet
  facet normal -1 0 0
    outer loop
      vertex 2.4 6.6 2
      vertex 2.4 6.6 0.5
      vertex 2.4 -14.6338 2
    endloop
  endfacet
  facet normal -1 0 0
    outer loop
      vertex 2.4 -14.6338 2
      vertex 2.4 6.6 0.5
      vertex 2.4 -14.6338 0.5
    endloop
  endfacet
  facet normal -0.923879 -0.382684 0
    outer loop
      vertex 2.4 6.6 2
      vertex 1.69706 8.29706 2
      vertex 2.4 6.6 0.5
    endloop
  endfacet
  facet normal -0.923879 -0.382684 0
    outer loop
      vertex 2.4 6.6 0.5
      vertex 1.69706 8.29706 2
      vertex 1.69706 8.29706 0.5
    endloop
  endfacet
  facet normal -0.382684 -0.923879 0
    outer loop
      vertex 1.69706 8.29706 0.5
      vertex 1.69706 8.29706 2
      vertex 0 9 2
    endloop
  endfacet
  facet normal -0.382684 -0.923879 0
    outer loop
      vertex 0 9 0.5
      vertex 1.69706 8.29706 0.5
      vertex 0 9 2
    endloop
  endfacet
  facet normal 0.382684 -0.923879 0
    outer loop
      vertex 0 9 0.5
      vertex 0 9 2
      vertex -1.69706 8.29706 2
    endloop
  endfacet
  facet normal 0.382684 -0.923879 0
    outer loop
      vertex -1.69706 8.29706 0.5
      vertex 0 9 0.5
      vertex -1.69706 8.29706 2
    endloop
  endfacet
  facet normal 0.923879 -0.382684 0
    outer loop
      vertex -1.69706 8.29706 0.5
      vertex -1.69706 8.29706 2
      vertex -2.4 6.6 2
    endloop
  endfacet
  facet normal 0.923879 -0.382684 0
    outer loop
      vertex -2.4 6.6 0.5
      vertex -1.69706 8.29706 0.5
      vertex -2.4 6.6 2
    endloop
  endfacet
  facet normal 1 0 0
    outer loop
      vertex -2.4 6.6 0.5
      vertex -2.4 6.6 2
      vertex -2.4 -14.6338 2
    endloop
  endfacet
  facet normal 1 0 0
    outer loop
      vertex -2.4 -14.6338 0.5
      vertex -2.4 6.6 0.5
      vertex -2.4 -14.6338 2
    endloop
  endfacet
  facet normal 0 0 1
    outer loop
      vertex 2.4 6.6 0.5
      vertex -1.15881 -13.9335 0.5
      vertex -0.391982 -13.7705 0.5
    endloop
  endfacet
  facet normal 0 0 1
    outer loop
      vertex 1.15881 -13.9335 0.5
      vertex 2.4 6.6 0.5
      vertex 0.391982 -13.7705 0.5
    endloop
  endfacet
  facet normal 0 0 1
    outer loop
      vertex 0.391982 -13.7705 0.5
      vertex 2.4 6.6 0.5
      vertex -0.391982 -13.7705 0.5
    endloop
  endfacet
  facet normal 0 0 1
    outer loop
      vertex -1.875 -14.2524 0.5
      vertex -1.15881 -13.9335 0.5
      vertex 2.4 6.6 0.5
    endloop
  endfacet
  facet normal 0 0 1
    outer loop
      vertex 1.875 -14.2524 0.5
      vertex 2.4 6.6 0.5
      vertex 1.15881 -13.9335 0.5
    endloop
  endfacet
  facet normal 0 0 1
    outer loop
      vertex 2.4 -14.6338 0.5
      vertex 2.4 6.6 0.5
      vertex 1.875 -14.2524 0.5
    endloop
  endfacet
  facet normal 0 0 1
    outer loop
      vertex 2.4 6.6 0.5
      vertex 1.69706 8.29706 0.5
      vertex -1.875 -14.2524 0.5
    endloop
  endfacet
  facet normal 0 0 1
    outer loop
      vertex 1.69706 8.29706 0.5
      vertex 0 9 0.5
      vertex -1.875 -14.2524 0.5
    endloop
  endfacet
  facet normal 0 0 1
    outer loop
      vertex 0 9 0.5
      vertex -1.69706 8.29706 0.5
      vertex -1.875 -14.2524 0.5
    endloop
  endfacet
  facet normal 0 0 1
    outer loop
      vertex -1.69706 8.29706 0.5
      vertex -2.4 6.6 0.5
      vertex -1.875 -14.2524 0.5
    endloop
  endfacet
  facet normal 0 0 1
    outer loop
      vertex -2.4 6.6 0.5
      vertex -2.4 -14.6338 0.5
      vertex -1.875 -14.2524 0.5
    endloop
  endfacet
endsolid OpenSCAD_Model
