solid fixation cam Hexa
facet normal -0.0 -0.0 1.0
  outer loop
    vertex 82.00433068063957 48.8157018089665 23.0
    vertex 82.03889510731987 50.29222335310069 23.0
    vertex 82.00476212866859 50.55148906607071 23.0
  endloop
endfacet
facet normal -0.0 -0.0 1.0
  outer loop
    vertex 82.03889510731987 50.29222335310069 23.0
    vertex 82.00433068063957 48.8157018089665 23.0
    vertex 82.4877331609108 48.61546994555337 23.0
  endloop
endfacet
facet normal -0.0 -0.0 1.0
  outer loop
    vertex 82.03889510731987 50.29222335310069 23.0
    vertex 82.4877331609108 48.61546994555337 23.0
    vertex 82.13896793718605 50.050626170012706 23.0
  endloop
endfacet
facet normal -0.0 -0.0 1.0
  outer loop
    vertex 82.13896793718605 50.050626170012706 23.0
    vertex 82.4877331609108 48.61546994555337 23.0
    vertex 82.29816082028994 49.843161965575995 23.0
  endloop
endfacet
facet normal -0.0 -0.0 1.0
  outer loop
    vertex 82.29816082028994 49.843161965575995 23.0
    vertex 82.4877331609108 48.61546994555337 23.0
    vertex 82.50562502472663 49.68396908247213 23.0
  endloop
endfacet
facet normal -0.0 -0.0 1.0
  outer loop
    vertex 82.50562502472663 49.68396908247213 23.0
    vertex 82.4877331609108 48.61546994555337 23.0
    vertex 83.00648792078462 48.54717458578064 23.0
  endloop
endfacet
facet normal -0.0 -0.0 1.0
  outer loop
    vertex 82.50562502472663 49.68396908247213 23.0
    vertex 83.00648792078462 48.54717458578064 23.0
    vertex 82.74722220781459 49.58389625260597 23.0
  endloop
endfacet
facet normal -0.0 -0.0 1.0
  outer loop
    vertex 82.74722220781459 49.58389625260597 23.0
    vertex 83.00648792078462 48.54717458578064 23.0
    vertex 83.00648792078462 49.549763273954675 23.0
  endloop
endfacet
facet normal -0.0 -0.0 1.0
  outer loop
    vertex 83.00648792078462 49.549763273954675 23.0
    vertex 83.00648792078462 48.54717458578064 23.0
    vertex 83.52524268065847 48.61546994555337 23.0
  endloop
endfacet
facet normal -0.0 -0.0 1.0
  outer loop
    vertex 83.00648792078462 49.549763273954675 23.0
    vertex 83.52524268065847 48.61546994555337 23.0
    vertex 83.26575363375466 49.58389625260597 23.0
  endloop
endfacet
facet normal -0.0 -0.0 1.0
  outer loop
    vertex 83.26575363375466 49.58389625260597 23.0
    vertex 83.52524268065847 48.61546994555337 23.0
    vertex 83.50735081684263 49.68396908247213 23.0
  endloop
endfacet
facet normal -0.0 -0.0 1.0
  outer loop
    vertex 83.50735081684263 49.68396908247213 23.0
    vertex 83.52524268065847 48.61546994555337 23.0
    vertex 83.71481502127932 49.843161965575995 23.0
  endloop
endfacet
facet normal -0.0 -0.0 1.0
  outer loop
    vertex 83.71481502127932 49.843161965575995 23.0
    vertex 83.52524268065847 48.61546994555337 23.0
    vertex 84.00864516092966 48.815701808966494 23.0
  endloop
endfacet
facet normal -0.0 -0.0 1.0
  outer loop
    vertex 83.71481502127932 49.843161965575995 23.0
    vertex 84.00864516092966 48.815701808966494 23.0
    vertex 83.8740079043832 50.0506261700127 23.0
  endloop
endfacet
facet normal -0.0 -0.0 1.0
  outer loop
    vertex 83.8740079043832 50.0506261700127 23.0
    vertex 84.00864516092966 48.815701808966494 23.0
    vertex 83.97408073424938 50.292223353100695 23.0
  endloop
endfacet
facet normal -0.0 -0.0 1.0
  outer loop
    vertex 83.97408073424938 50.292223353100695 23.0
    vertex 84.00864516092966 48.815701808966494 23.0
    vertex 84.00821371290066 50.55148906607071 23.0
  endloop
endfacet
facet normal -0.0 -0.0 1.0
  outer loop
    vertex 83.00648792078462 51.55321485818674 23.0
    vertex 82.90648792078463 52.5514890660707 23.0
    vertex 82.74722220781462 51.51908187953545 23.0
  endloop
endfacet
facet normal -0.0 -0.0 1.0
  outer loop
    vertex 82.90648792078463 52.5514890660707 23.0
    vertex 83.00648792078462 51.55321485818674 23.0
    vertex 92.90648792078463 52.5514890660707 23.0
  endloop
endfacet
facet normal -0.0 -0.0 1.0
  outer loop
    vertex 92.90648792078463 52.5514890660707 23.0
    vertex 83.00648792078462 51.55321485818674 23.0
    vertex 83.26575363375464 51.51908187953545 23.0
  endloop
endfacet
facet normal -0.0 -0.0 1.0
  outer loop
    vertex 92.90648792078463 52.5514890660707 23.0
    vertex 83.26575363375464 51.51908187953545 23.0
    vertex 83.50735081684265 51.419009049669285 23.0
  endloop
endfacet
facet normal -0.0 -0.0 1.0
  outer loop
    vertex 92.90648792078463 52.5514890660707 23.0
    vertex 83.50735081684265 51.419009049669285 23.0
    vertex 83.71481502127934 51.259816166565415 23.0
  endloop
endfacet
facet normal -0.0 -0.0 1.0
  outer loop
    vertex 92.90648792078463 52.5514890660707 23.0
    vertex 83.71481502127934 51.259816166565415 23.0
    vertex 83.87400790438319 51.05235196212873 23.0
  endloop
endfacet
facet normal -0.0 -0.0 1.0
  outer loop
    vertex 92.90648792078463 52.5514890660707 23.0
    vertex 83.87400790438319 51.05235196212873 23.0
    vertex 83.97408073424938 50.81075477904072 23.0
  endloop
endfacet
facet normal -0.0 -0.0 1.0
  outer loop
    vertex 92.90648792078463 52.5514890660707 23.0
    vertex 83.97408073424938 50.81075477904072 23.0
    vertex 84.00821371290066 50.55148906607071 23.0
  endloop
endfacet
facet normal -0.0 -0.0 1.0
  outer loop
    vertex 92.90648792078463 52.5514890660707 23.0
    vertex 84.00821371290066 50.55148906607071 23.0
    vertex 84.58006364327673 49.337933638251656 23.0
  endloop
endfacet
facet normal -0.0 -0.0 1.0
  outer loop
    vertex 84.58006364327673 49.337933638251656 23.0
    vertex 84.00821371290066 50.55148906607071 23.0
    vertex 84.00864516092966 48.815701808966494 23.0
  endloop
endfacet
facet normal -0.0 -0.0 1.0
  outer loop
    vertex 84.58006364327673 49.337933638251656 23.0
    vertex 84.00864516092966 48.815701808966494 23.0
    vertex 84.42375228142812 49.1342247054272 23.0
  endloop
endfacet
facet normal -0.0 -0.0 1.0
  outer loop
    vertex 92.90648792078463 52.5514890660707 23.0
    vertex 84.58006364327673 49.337933638251656 23.0
    vertex 92.90648792078463 50.62272308457384 23.0
  endloop
endfacet
facet normal -0.0 -0.0 1.0
  outer loop
    vertex 81.07412107028271 50.0239169463922 23.0
    vertex 80.90648792078463 61.55148906607071 23.0
    vertex 80.90648792078463 51.00926080304377 23.0
  endloop
endfacet
facet normal -0.0 -0.0 1.0
  outer loop
    vertex 80.90648792078463 61.55148906607071 23.0
    vertex 81.07412107028271 50.0239169463922 23.0
    vertex 82.90648792078463 61.55148906607071 23.0
  endloop
endfacet
facet normal -0.0 -0.0 1.0
  outer loop
    vertex 82.90648792078463 61.55148906607071 23.0
    vertex 81.07412107028271 50.0239169463922 23.0
    vertex 81.27070066368043 49.54933182592566 23.0
  endloop
endfacet
facet normal -0.0 -0.0 1.0
  outer loop
    vertex 82.90648792078463 61.55148906607071 23.0
    vertex 81.27070066368043 49.54933182592566 23.0
    vertex 81.58922356014112 49.1342247054272 23.0
  endloop
endfacet
facet normal -0.0 -0.0 1.0
  outer loop
    vertex 82.90648792078463 61.55148906607071 23.0
    vertex 81.58922356014112 49.1342247054272 23.0
    vertex 82.00476212866859 50.55148906607071 23.0
  endloop
endfacet
facet normal -0.0 -0.0 1.0
  outer loop
    vertex 82.00476212866859 50.55148906607071 23.0
    vertex 81.58922356014112 49.1342247054272 23.0
    vertex 82.00433068063957 48.8157018089665 23.0
  endloop
endfacet
facet normal -0.0 -0.0 1.0
  outer loop
    vertex 82.90648792078463 61.55148906607071 23.0
    vertex 82.00476212866859 50.55148906607071 23.0
    vertex 82.03889510731989 50.81075477904072 23.0
  endloop
endfacet
facet normal -0.0 -0.0 1.0
  outer loop
    vertex 82.90648792078463 61.55148906607071 23.0
    vertex 82.03889510731989 50.81075477904072 23.0
    vertex 82.13896793718605 51.05235196212872 23.0
  endloop
endfacet
facet normal -0.0 -0.0 1.0
  outer loop
    vertex 82.90648792078463 61.55148906607071 23.0
    vertex 82.13896793718605 51.05235196212872 23.0
    vertex 82.29816082028992 51.259816166565415 23.0
  endloop
endfacet
facet normal -0.0 -0.0 1.0
  outer loop
    vertex 82.90648792078463 61.55148906607071 23.0
    vertex 82.29816082028992 51.259816166565415 23.0
    vertex 82.50562502472661 51.419009049669285 23.0
  endloop
endfacet
facet normal -0.0 -0.0 1.0
  outer loop
    vertex 82.90648792078463 61.55148906607071 23.0
    vertex 82.50562502472661 51.419009049669285 23.0
    vertex 82.74722220781462 51.51908187953545 23.0
  endloop
endfacet
facet normal -0.0 -0.0 1.0
  outer loop
    vertex 82.90648792078463 61.55148906607071 23.0
    vertex 82.74722220781462 51.51908187953545 23.0
    vertex 82.90648792078463 52.5514890660707 23.0
  endloop
endfacet
facet normal -0.3826834323650791 -0.9238795325112912 -0.0
  outer loop
    vertex 82.4877331609108 48.61546994555337 23.0
    vertex 82.00433068063957 48.8157018089665 5.639932965095795e-15
    vertex 82.4877331609108 48.61546994555337 5.639932965095795e-15
  endloop
endfacet
facet normal -0.3826834323650791 -0.9238795325112912 -0.0
  outer loop
    vertex 82.00433068063957 48.8157018089665 5.639932965095795e-15
    vertex 82.4877331609108 48.61546994555337 23.0
    vertex 82.00433068063957 48.8157018089665 23.0
  endloop
endfacet
facet normal -0.13052619222004824 -0.9914448613738109 -0.0
  outer loop
    vertex 83.00648792078462 48.54717458578064 23.0
    vertex 82.4877331609108 48.61546994555337 5.639932965095795e-15
    vertex 83.00648792078462 48.54717458578064 5.639932965095795e-15
  endloop
endfacet
facet normal -0.13052619222004824 -0.9914448613738109 -0.0
  outer loop
    vertex 82.4877331609108 48.61546994555337 5.639932965095795e-15
    vertex 83.00648792078462 48.54717458578064 23.0
    vertex 82.4877331609108 48.61546994555337 23.0
  endloop
endfacet
facet normal 0.13052619222004544 -0.9914448613738113 0.0
  outer loop
    vertex 83.52524268065847 48.61546994555337 23.0
    vertex 83.00648792078462 48.54717458578064 5.639932965095795e-15
    vertex 83.52524268065847 48.61546994555337 5.639932965095795e-15
  endloop
endfacet
facet normal 0.13052619222004544 -0.9914448613738113 0.0
  outer loop
    vertex 83.00648792078462 48.54717458578064 5.639932965095795e-15
    vertex 83.52524268065847 48.61546994555337 23.0
    vertex 83.00648792078462 48.54717458578064 23.0
  endloop
endfacet
facet normal 0.38268343236509283 -0.9238795325112856 0.0
  outer loop
    vertex 84.00864516092966 48.815701808966494 23.0
    vertex 83.52524268065847 48.61546994555337 5.639932965095795e-15
    vertex 84.00864516092966 48.815701808966494 5.639932965095795e-15
  endloop
endfacet
facet normal 0.38268343236509283 -0.9238795325112856 0.0
  outer loop
    vertex 83.52524268065847 48.61546994555337 5.639932965095795e-15
    vertex 84.00864516092966 48.815701808966494 23.0
    vertex 83.52524268065847 48.61546994555337 23.0
  endloop
endfacet
facet normal 0.6087614290087157 -0.793353340291239 0.0
  outer loop
    vertex 84.42375228142812 49.1342247054272 23.0
    vertex 84.00864516092966 48.815701808966494 5.639932965095795e-15
    vertex 84.42375228142812 49.1342247054272 5.639932965095795e-15
  endloop
endfacet
facet normal 0.6087614290087157 -0.793353340291239 0.0
  outer loop
    vertex 84.00864516092966 48.815701808966494 5.639932965095795e-15
    vertex 84.42375228142812 49.1342247054272 23.0
    vertex 84.00864516092966 48.815701808966494 23.0
  endloop
endfacet
facet normal 0.7933533402912358 -0.6087614290087198 0.0
  outer loop
    vertex 84.58006364327673 49.337933638251656 5.639932965095795e-15
    vertex 84.42375228142812 49.1342247054272 23.0
    vertex 84.42375228142812 49.1342247054272 5.639932965095795e-15
  endloop
endfacet
facet normal 0.7933533402912358 -0.6087614290087198 0.0
  outer loop
    vertex 84.42375228142812 49.1342247054272 23.0
    vertex 84.58006364327673 49.337933638251656 5.639932965095795e-15
    vertex 84.58006364327673 49.337933638251656 23.0
  endloop
endfacet
facet normal 0.15249790800991875 -0.9883037934019067 0.0
  outer loop
    vertex 92.90648792078463 50.62272308457384 23.0
    vertex 84.58006364327673 49.337933638251656 5.639932965095795e-15
    vertex 92.90648792078463 50.62272308457384 5.639932965095795e-15
  endloop
endfacet
facet normal 0.15249790800991875 -0.9883037934019067 0.0
  outer loop
    vertex 84.58006364327673 49.337933638251656 5.639932965095795e-15
    vertex 92.90648792078463 50.62272308457384 23.0
    vertex 84.58006364327673 49.337933638251656 23.0
  endloop
endfacet
facet normal 1.0 -0.0 0.0
  outer loop
    vertex 92.90648792078463 52.5514890660707 5.639932965095795e-15
    vertex 92.90648792078463 50.62272308457384 23.0
    vertex 92.90648792078463 50.62272308457384 5.639932965095795e-15
  endloop
endfacet
facet normal 1.0 -0.0 0.0
  outer loop
    vertex 92.90648792078463 50.62272308457384 23.0
    vertex 92.90648792078463 52.5514890660707 5.639932965095795e-15
    vertex 92.90648792078463 52.5514890660707 23.0
  endloop
endfacet
facet normal 0.0 1.0 0.0
  outer loop
    vertex 82.90648792078463 52.5514890660707 23.0
    vertex 92.90648792078463 52.5514890660707 5.639932965095795e-15
    vertex 82.90648792078463 52.5514890660707 5.639932965095795e-15
  endloop
endfacet
facet normal 0.0 1.0 0.0
  outer loop
    vertex 92.90648792078463 52.5514890660707 5.639932965095795e-15
    vertex 82.90648792078463 52.5514890660707 23.0
    vertex 92.90648792078463 52.5514890660707 23.0
  endloop
endfacet
facet normal 1.0 -0.0 0.0
  outer loop
    vertex 82.90648792078463 61.55148906607071 5.639932965095795e-15
    vertex 82.90648792078463 52.5514890660707 23.0
    vertex 82.90648792078463 52.5514890660707 5.639932965095795e-15
  endloop
endfacet
facet normal 1.0 -0.0 0.0
  outer loop
    vertex 82.90648792078463 52.5514890660707 23.0
    vertex 82.90648792078463 61.55148906607071 5.639932965095795e-15
    vertex 82.90648792078463 61.55148906607071 23.0
  endloop
endfacet
facet normal 0.0 1.0 0.0
  outer loop
    vertex 80.90648792078463 61.55148906607071 23.0
    vertex 82.90648792078463 61.55148906607071 5.639932965095795e-15
    vertex 80.90648792078463 61.55148906607071 5.639932965095795e-15
  endloop
endfacet
facet normal 0.0 1.0 0.0
  outer loop
    vertex 82.90648792078463 61.55148906607071 5.639932965095795e-15
    vertex 80.90648792078463 61.55148906607071 23.0
    vertex 82.90648792078463 61.55148906607071 23.0
  endloop
endfacet
facet normal -1.0 -0.0 -0.0
  outer loop
    vertex 80.90648792078463 61.55148906607071 23.0
    vertex 80.90648792078463 51.00926080304377 5.639932965095795e-15
    vertex 80.90648792078463 51.00926080304377 23.0
  endloop
endfacet
facet normal -1.0 -0.0 -0.0
  outer loop
    vertex 80.90648792078463 51.00926080304377 5.639932965095795e-15
    vertex 80.90648792078463 61.55148906607071 23.0
    vertex 80.90648792078463 61.55148906607071 5.639932965095795e-15
  endloop
endfacet
facet normal -0.985835226395376 -0.1677167445366671 -0.0
  outer loop
    vertex 80.90648792078463 51.00926080304377 23.0
    vertex 81.07412107028271 50.0239169463922 5.639932965095795e-15
    vertex 81.07412107028271 50.0239169463922 23.0
  endloop
endfacet
facet normal -0.985835226395376 -0.1677167445366671 -0.0
  outer loop
    vertex 81.07412107028271 50.0239169463922 5.639932965095795e-15
    vertex 80.90648792078463 51.00926080304377 23.0
    vertex 80.90648792078463 51.00926080304377 5.639932965095795e-15
  endloop
endfacet
facet normal -0.9238795325112815 -0.38268343236510244 -0.0
  outer loop
    vertex 81.07412107028271 50.0239169463922 23.0
    vertex 81.27070066368043 49.54933182592566 5.639932965095795e-15
    vertex 81.27070066368043 49.54933182592566 23.0
  endloop
endfacet
facet normal -0.9238795325112815 -0.38268343236510244 -0.0
  outer loop
    vertex 81.27070066368043 49.54933182592566 5.639932965095795e-15
    vertex 81.07412107028271 50.0239169463922 23.0
    vertex 81.07412107028271 50.0239169463922 5.639932965095795e-15
  endloop
endfacet
facet normal -0.793353340291239 -0.6087614290087157 -0.0
  outer loop
    vertex 81.27070066368043 49.54933182592566 23.0
    vertex 81.58922356014112 49.1342247054272 5.639932965095795e-15
    vertex 81.58922356014112 49.1342247054272 23.0
  endloop
endfacet
facet normal -0.793353340291239 -0.6087614290087157 -0.0
  outer loop
    vertex 81.58922356014112 49.1342247054272 5.639932965095795e-15
    vertex 81.27070066368043 49.54933182592566 23.0
    vertex 81.27070066368043 49.54933182592566 5.639932965095795e-15
  endloop
endfacet
facet normal -0.6087614290087296 -0.7933533402912282 -0.0
  outer loop
    vertex 82.00433068063957 48.8157018089665 23.0
    vertex 81.58922356014112 49.1342247054272 5.639932965095795e-15
    vertex 82.00433068063957 48.8157018089665 5.639932965095795e-15
  endloop
endfacet
facet normal -0.6087614290087296 -0.7933533402912282 -0.0
  outer loop
    vertex 81.58922356014112 49.1342247054272 5.639932965095795e-15
    vertex 82.00433068063957 48.8157018089665 23.0
    vertex 81.58922356014112 49.1342247054272 23.0
  endloop
endfacet
facet normal 0.0 0.0 -1.0
  outer loop
    vertex 82.90648792078463 61.55148906607071 5.639932965095795e-15
    vertex 80.90648792078463 51.00926080304377 5.639932965095795e-15
    vertex 80.90648792078463 61.55148906607071 5.639932965095795e-15
  endloop
endfacet
facet normal 0.0 0.0 -1.0
  outer loop
    vertex 80.90648792078463 51.00926080304377 5.639932965095795e-15
    vertex 82.90648792078463 61.55148906607071 5.639932965095795e-15
    vertex 81.07412107028271 50.0239169463922 5.639932965095795e-15
  endloop
endfacet
facet normal 0.0 0.0 -1.0
  outer loop
    vertex 81.07412107028271 50.0239169463922 5.639932965095795e-15
    vertex 82.90648792078463 61.55148906607071 5.639932965095795e-15
    vertex 81.27070066368043 49.54933182592566 5.639932965095795e-15
  endloop
endfacet
facet normal 0.0 0.0 -1.0
  outer loop
    vertex 81.27070066368043 49.54933182592566 5.639932965095795e-15
    vertex 82.90648792078463 61.55148906607071 5.639932965095795e-15
    vertex 81.58922356014112 49.1342247054272 5.639932965095795e-15
  endloop
endfacet
facet normal 0.0 0.0 -1.0
  outer loop
    vertex 81.58922356014112 49.1342247054272 5.639932965095795e-15
    vertex 82.90648792078463 61.55148906607071 5.639932965095795e-15
    vertex 82.00476212866859 50.55148906607071 1.4099832412739488e-14
  endloop
endfacet
facet normal 0.0 0.0 -1.0
  outer loop
    vertex 81.58922356014112 49.1342247054272 5.639932965095795e-15
    vertex 82.00476212866859 50.55148906607071 1.4099832412739488e-14
    vertex 82.00433068063957 48.8157018089665 5.639932965095795e-15
  endloop
endfacet
facet normal 0.0 0.0 -1.0
  outer loop
    vertex 82.00476212866859 50.55148906607071 1.4099832412739488e-14
    vertex 82.90648792078463 61.55148906607071 5.639932965095795e-15
    vertex 82.03889510731989 50.81075477904072 1.4099832412739488e-14
  endloop
endfacet
facet normal 0.0 0.0 -1.0
  outer loop
    vertex 82.03889510731989 50.81075477904072 1.4099832412739488e-14
    vertex 82.90648792078463 61.55148906607071 5.639932965095795e-15
    vertex 82.13896793718605 51.05235196212872 1.4099832412739488e-14
  endloop
endfacet
facet normal 0.0 0.0 -1.0
  outer loop
    vertex 82.13896793718605 51.05235196212872 1.4099832412739488e-14
    vertex 82.90648792078463 61.55148906607071 5.639932965095795e-15
    vertex 82.29816082028992 51.259816166565415 1.4099832412739488e-14
  endloop
endfacet
facet normal 0.0 0.0 -1.0
  outer loop
    vertex 82.29816082028992 51.259816166565415 1.4099832412739488e-14
    vertex 82.90648792078463 61.55148906607071 5.639932965095795e-15
    vertex 82.50562502472661 51.419009049669285 1.4099832412739488e-14
  endloop
endfacet
facet normal 0.0 0.0 -1.0
  outer loop
    vertex 82.50562502472661 51.419009049669285 1.4099832412739488e-14
    vertex 82.90648792078463 61.55148906607071 5.639932965095795e-15
    vertex 82.74722220781462 51.51908187953545 1.4099832412739488e-14
  endloop
endfacet
facet normal 0.0 0.0 -1.0
  outer loop
    vertex 82.74722220781462 51.51908187953545 1.4099832412739488e-14
    vertex 82.90648792078463 61.55148906607071 5.639932965095795e-15
    vertex 82.90648792078463 52.5514890660707 5.639932965095795e-15
  endloop
endfacet
facet normal 0.0 0.0 -1.0
  outer loop
    vertex 82.74722220781462 51.51908187953545 1.4099832412739488e-14
    vertex 82.90648792078463 52.5514890660707 5.639932965095795e-15
    vertex 83.00648792078462 51.55321485818674 1.4099832412739488e-14
  endloop
endfacet
facet normal 0.0 0.0 -1.0
  outer loop
    vertex 83.00648792078462 51.55321485818674 1.4099832412739488e-14
    vertex 82.90648792078463 52.5514890660707 5.639932965095795e-15
    vertex 92.90648792078463 52.5514890660707 5.639932965095795e-15
  endloop
endfacet
facet normal 0.0 0.0 -1.0
  outer loop
    vertex 83.00648792078462 51.55321485818674 1.4099832412739488e-14
    vertex 92.90648792078463 52.5514890660707 5.639932965095795e-15
    vertex 83.26575363375464 51.51908187953545 1.4099832412739488e-14
  endloop
endfacet
facet normal 0.0 0.0 -1.0
  outer loop
    vertex 83.26575363375464 51.51908187953545 1.4099832412739488e-14
    vertex 92.90648792078463 52.5514890660707 5.639932965095795e-15
    vertex 83.50735081684265 51.419009049669285 1.4099832412739488e-14
  endloop
endfacet
facet normal 0.0 0.0 -1.0
  outer loop
    vertex 83.50735081684265 51.419009049669285 1.4099832412739488e-14
    vertex 92.90648792078463 52.5514890660707 5.639932965095795e-15
    vertex 83.71481502127934 51.259816166565415 1.4099832412739488e-14
  endloop
endfacet
facet normal 0.0 0.0 -1.0
  outer loop
    vertex 83.71481502127934 51.259816166565415 1.4099832412739488e-14
    vertex 92.90648792078463 52.5514890660707 5.639932965095795e-15
    vertex 83.87400790438319 51.05235196212873 1.4099832412739488e-14
  endloop
endfacet
facet normal 0.0 0.0 -1.0
  outer loop
    vertex 83.87400790438319 51.05235196212873 1.4099832412739488e-14
    vertex 92.90648792078463 52.5514890660707 5.639932965095795e-15
    vertex 83.97408073424938 50.81075477904072 1.4099832412739488e-14
  endloop
endfacet
facet normal 0.0 0.0 -1.0
  outer loop
    vertex 83.97408073424938 50.81075477904072 1.4099832412739488e-14
    vertex 92.90648792078463 52.5514890660707 5.639932965095795e-15
    vertex 84.00821371290066 50.55148906607071 1.4099832412739488e-14
  endloop
endfacet
facet normal 0.0 0.0 -1.0
  outer loop
    vertex 84.00821371290066 50.55148906607071 1.4099832412739488e-14
    vertex 92.90648792078463 52.5514890660707 5.639932965095795e-15
    vertex 84.58006364327673 49.337933638251656 5.639932965095795e-15
  endloop
endfacet
facet normal 0.0 0.0 -1.0
  outer loop
    vertex 84.00821371290066 50.55148906607071 1.4099832412739488e-14
    vertex 84.58006364327673 49.337933638251656 5.639932965095795e-15
    vertex 84.00864516092966 48.815701808966494 5.639932965095795e-15
  endloop
endfacet
facet normal 0.0 0.0 -1.0
  outer loop
    vertex 84.00864516092966 48.815701808966494 5.639932965095795e-15
    vertex 84.58006364327673 49.337933638251656 5.639932965095795e-15
    vertex 84.42375228142812 49.1342247054272 5.639932965095795e-15
  endloop
endfacet
facet normal 0.0 0.0 -1.0
  outer loop
    vertex 84.58006364327673 49.337933638251656 5.639932965095795e-15
    vertex 92.90648792078463 52.5514890660707 5.639932965095795e-15
    vertex 92.90648792078463 50.62272308457384 5.639932965095795e-15
  endloop
endfacet
facet normal 0.0 0.0 -1.0
  outer loop
    vertex 82.00433068063957 48.8157018089665 5.639932965095795e-15
    vertex 82.03889510731987 50.29222335310069 1.4099832412739488e-14
    vertex 82.4877331609108 48.61546994555337 5.639932965095795e-15
  endloop
endfacet
facet normal 0.0 0.0 -1.0
  outer loop
    vertex 82.03889510731987 50.29222335310069 1.4099832412739488e-14
    vertex 82.00433068063957 48.8157018089665 5.639932965095795e-15
    vertex 82.00476212866859 50.55148906607071 1.4099832412739488e-14
  endloop
endfacet
facet normal 0.0 0.0 -1.0
  outer loop
    vertex 82.4877331609108 48.61546994555337 5.639932965095795e-15
    vertex 82.03889510731987 50.29222335310069 1.4099832412739488e-14
    vertex 82.13896793718605 50.050626170012706 1.4099832412739488e-14
  endloop
endfacet
facet normal 0.0 0.0 -1.0
  outer loop
    vertex 82.4877331609108 48.61546994555337 5.639932965095795e-15
    vertex 82.13896793718605 50.050626170012706 1.4099832412739488e-14
    vertex 82.29816082028994 49.843161965575995 1.4099832412739488e-14
  endloop
endfacet
facet normal 0.0 0.0 -1.0
  outer loop
    vertex 82.4877331609108 48.61546994555337 5.639932965095795e-15
    vertex 82.29816082028994 49.843161965575995 1.4099832412739488e-14
    vertex 82.50562502472663 49.68396908247213 1.4099832412739488e-14
  endloop
endfacet
facet normal 0.0 0.0 -1.0
  outer loop
    vertex 82.4877331609108 48.61546994555337 5.639932965095795e-15
    vertex 82.50562502472663 49.68396908247213 1.4099832412739488e-14
    vertex 83.00648792078462 48.54717458578064 5.639932965095795e-15
  endloop
endfacet
facet normal 0.0 0.0 -1.0
  outer loop
    vertex 83.00648792078462 48.54717458578064 5.639932965095795e-15
    vertex 82.50562502472663 49.68396908247213 1.4099832412739488e-14
    vertex 82.74722220781459 49.58389625260597 1.4099832412739488e-14
  endloop
endfacet
facet normal 0.0 0.0 -1.0
  outer loop
    vertex 83.00648792078462 48.54717458578064 5.639932965095795e-15
    vertex 82.74722220781459 49.58389625260597 1.4099832412739488e-14
    vertex 83.00648792078462 49.549763273954675 1.4099832412739488e-14
  endloop
endfacet
facet normal 0.0 0.0 -1.0
  outer loop
    vertex 83.00648792078462 48.54717458578064 5.639932965095795e-15
    vertex 83.00648792078462 49.549763273954675 1.4099832412739488e-14
    vertex 83.26575363375466 49.58389625260597 1.4099832412739488e-14
  endloop
endfacet
facet normal 0.0 0.0 -1.0
  outer loop
    vertex 83.00648792078462 48.54717458578064 5.639932965095795e-15
    vertex 83.26575363375466 49.58389625260597 1.4099832412739488e-14
    vertex 83.52524268065847 48.61546994555337 5.639932965095795e-15
  endloop
endfacet
facet normal 0.0 0.0 -1.0
  outer loop
    vertex 83.52524268065847 48.61546994555337 5.639932965095795e-15
    vertex 83.26575363375466 49.58389625260597 1.4099832412739488e-14
    vertex 83.50735081684263 49.68396908247213 1.4099832412739488e-14
  endloop
endfacet
facet normal 0.0 0.0 -1.0
  outer loop
    vertex 83.52524268065847 48.61546994555337 5.639932965095795e-15
    vertex 83.50735081684263 49.68396908247213 1.4099832412739488e-14
    vertex 83.71481502127932 49.843161965575995 1.4099832412739488e-14
  endloop
endfacet
facet normal 0.0 0.0 -1.0
  outer loop
    vertex 83.52524268065847 48.61546994555337 5.639932965095795e-15
    vertex 83.71481502127932 49.843161965575995 1.4099832412739488e-14
    vertex 84.00864516092966 48.815701808966494 5.639932965095795e-15
  endloop
endfacet
facet normal 0.0 0.0 -1.0
  outer loop
    vertex 84.00864516092966 48.815701808966494 5.639932965095795e-15
    vertex 83.71481502127932 49.843161965575995 1.4099832412739488e-14
    vertex 83.8740079043832 50.0506261700127 1.4099832412739488e-14
  endloop
endfacet
facet normal 0.0 0.0 -1.0
  outer loop
    vertex 84.00864516092966 48.815701808966494 5.639932965095795e-15
    vertex 83.8740079043832 50.0506261700127 1.4099832412739488e-14
    vertex 83.97408073424938 50.292223353100695 1.4099832412739488e-14
  endloop
endfacet
facet normal 0.0 0.0 -1.0
  outer loop
    vertex 84.00864516092966 48.815701808966494 5.639932965095795e-15
    vertex 83.97408073424938 50.292223353100695 1.4099832412739488e-14
    vertex 84.00821371290066 50.55148906607071 1.4099832412739488e-14
  endloop
endfacet
facet normal 0.2588190451025298 0.9659258262890658 0.0
  outer loop
    vertex 82.74722220781459 49.58389625260597 23.0
    vertex 83.00648792078462 49.549763273954675 1.4099832412739488e-14
    vertex 82.74722220781459 49.58389625260597 1.4099832412739488e-14
  endloop
endfacet
facet normal 0.0 1.0 0.0
  outer loop
    vertex 83.00648792078462 49.549763273954675 1.4099832412739488e-14
    vertex 82.74722220781459 49.58389625260597 23.0
    vertex 83.00648792078462 49.549763273954675 23.0
  endloop
endfacet
facet normal 0.4999999999999956 0.8660254037844413 0.0
  outer loop
    vertex 82.50562502472663 49.68396908247213 23.0
    vertex 82.74722220781459 49.58389625260597 1.4099832412739488e-14
    vertex 82.50562502472663 49.68396908247213 1.4099832412739488e-14
  endloop
endfacet
facet normal 0.2588190451025298 0.9659258262890658 0.0
  outer loop
    vertex 82.74722220781459 49.58389625260597 1.4099832412739488e-14
    vertex 82.50562502472663 49.68396908247213 23.0
    vertex 82.74722220781459 49.58389625260597 23.0
  endloop
endfacet
facet normal 0.7071067811865387 0.7071067811865563 0.0
  outer loop
    vertex 82.29816082028994 49.843161965575995 23.0
    vertex 82.50562502472663 49.68396908247213 1.4099832412739488e-14
    vertex 82.29816082028994 49.843161965575995 1.4099832412739488e-14
  endloop
endfacet
facet normal 0.4999999999999956 0.8660254037844413 0.0
  outer loop
    vertex 82.50562502472663 49.68396908247213 1.4099832412739488e-14
    vertex 82.29816082028994 49.843161965575995 23.0
    vertex 82.50562502472663 49.68396908247213 23.0
  endloop
endfacet
facet normal 0.8660254037844312 0.500000000000013 0.0
  outer loop
    vertex 82.13896793718605 50.050626170012706 1.4099832412739488e-14
    vertex 82.29816082028994 49.843161965575995 23.0
    vertex 82.29816082028994 49.843161965575995 1.4099832412739488e-14
  endloop
endfacet
facet normal 0.7071067811865387 0.7071067811865563 0.0
  outer loop
    vertex 82.29816082028994 49.843161965575995 23.0
    vertex 82.13896793718605 50.050626170012706 1.4099832412739488e-14
    vertex 82.13896793718605 50.050626170012706 23.0
  endloop
endfacet
facet normal 0.9659258262890684 0.2588190451025206 0.0
  outer loop
    vertex 82.03889510731987 50.29222335310069 1.4099832412739488e-14
    vertex 82.13896793718605 50.050626170012706 23.0
    vertex 82.13896793718605 50.050626170012706 1.4099832412739488e-14
  endloop
endfacet
facet normal 0.8660254037844312 0.500000000000013 0.0
  outer loop
    vertex 82.13896793718605 50.050626170012706 23.0
    vertex 82.03889510731987 50.29222335310069 1.4099832412739488e-14
    vertex 82.03889510731987 50.29222335310069 23.0
  endloop
endfacet
facet normal 0.9999999999999999 -2.2785708003169207e-14 0.0
  outer loop
    vertex 82.00476212866859 50.55148906607071 1.4099832412739488e-14
    vertex 82.03889510731987 50.29222335310069 23.0
    vertex 82.03889510731987 50.29222335310069 1.4099832412739488e-14
  endloop
endfacet
facet normal 0.9659258262890684 0.2588190451025206 0.0
  outer loop
    vertex 82.03889510731987 50.29222335310069 23.0
    vertex 82.00476212866859 50.55148906607071 1.4099832412739488e-14
    vertex 82.00476212866859 50.55148906607071 23.0
  endloop
endfacet
facet normal 0.9659258262890709 -0.25881904510251136 0.0
  outer loop
    vertex 82.03889510731989 50.81075477904072 1.4099832412739488e-14
    vertex 82.00476212866859 50.55148906607071 23.0
    vertex 82.00476212866859 50.55148906607071 1.4099832412739488e-14
  endloop
endfacet
facet normal 0.9999999999999999 -2.2785708003169207e-14 0.0
  outer loop
    vertex 82.00476212866859 50.55148906607071 23.0
    vertex 82.03889510731989 50.81075477904072 1.4099832412739488e-14
    vertex 82.03889510731989 50.81075477904072 23.0
  endloop
endfacet
facet normal 0.8660254037844494 -0.4999999999999815 0.0
  outer loop
    vertex 82.13896793718605 51.05235196212872 1.4099832412739488e-14
    vertex 82.03889510731989 50.81075477904072 23.0
    vertex 82.03889510731989 50.81075477904072 1.4099832412739488e-14
  endloop
endfacet
facet normal 0.9659258262890709 -0.25881904510251136 0.0
  outer loop
    vertex 82.03889510731989 50.81075477904072 23.0
    vertex 82.13896793718605 51.05235196212872 1.4099832412739488e-14
    vertex 82.13896793718605 51.05235196212872 23.0
  endloop
endfacet
facet normal 0.7071067811865475 -0.7071067811865475 0.0
  outer loop
    vertex 82.29816082028992 51.259816166565415 1.4099832412739488e-14
    vertex 82.13896793718605 51.05235196212872 23.0
    vertex 82.13896793718605 51.05235196212872 1.4099832412739488e-14
  endloop
endfacet
facet normal 0.8660254037844494 -0.4999999999999815 0.0
  outer loop
    vertex 82.13896793718605 51.05235196212872 23.0
    vertex 82.29816082028992 51.259816166565415 1.4099832412739488e-14
    vertex 82.29816082028992 51.259816166565415 23.0
  endloop
endfacet
facet normal 0.4999999999999815 -0.8660254037844494 0.0
  outer loop
    vertex 82.50562502472661 51.419009049669285 23.0
    vertex 82.29816082028992 51.259816166565415 1.4099832412739488e-14
    vertex 82.50562502472661 51.419009049669285 1.4099832412739488e-14
  endloop
endfacet
facet normal 0.7071067811865475 -0.7071067811865475 0.0
  outer loop
    vertex 82.29816082028992 51.259816166565415 1.4099832412739488e-14
    vertex 82.50562502472661 51.419009049669285 23.0
    vertex 82.29816082028992 51.259816166565415 23.0
  endloop
endfacet
facet normal 0.25881904510251136 -0.9659258262890709 0.0
  outer loop
    vertex 82.74722220781462 51.51908187953545 23.0
    vertex 82.50562502472661 51.419009049669285 1.4099832412739488e-14
    vertex 82.74722220781462 51.51908187953545 1.4099832412739488e-14
  endloop
endfacet
facet normal 0.4999999999999815 -0.8660254037844494 0.0
  outer loop
    vertex 82.50562502472661 51.419009049669285 1.4099832412739488e-14
    vertex 82.74722220781462 51.51908187953545 23.0
    vertex 82.50562502472661 51.419009049669285 23.0
  endloop
endfacet
facet normal 0.0 -1.0 0.0
  outer loop
    vertex 83.00648792078462 51.55321485818674 23.0
    vertex 82.74722220781462 51.51908187953545 1.4099832412739488e-14
    vertex 83.00648792078462 51.55321485818674 1.4099832412739488e-14
  endloop
endfacet
facet normal 0.25881904510251136 -0.9659258262890709 0.0
  outer loop
    vertex 82.74722220781462 51.51908187953545 1.4099832412739488e-14
    vertex 83.00648792078462 51.55321485818674 23.0
    vertex 82.74722220781462 51.51908187953545 23.0
  endloop
endfacet
facet normal -0.25881904510251136 -0.9659258262890709 0.0
  outer loop
    vertex 83.26575363375464 51.51908187953545 23.0
    vertex 83.00648792078462 51.55321485818674 1.4099832412739488e-14
    vertex 83.26575363375464 51.51908187953545 1.4099832412739488e-14
  endloop
endfacet
facet normal 0.0 -1.0 0.0
  outer loop
    vertex 83.00648792078462 51.55321485818674 1.4099832412739488e-14
    vertex 83.26575363375464 51.51908187953545 23.0
    vertex 83.00648792078462 51.55321485818674 23.0
  endloop
endfacet
facet normal -0.4999999999999815 -0.8660254037844494 0.0
  outer loop
    vertex 83.50735081684265 51.419009049669285 23.0
    vertex 83.26575363375464 51.51908187953545 1.4099832412739488e-14
    vertex 83.50735081684265 51.419009049669285 1.4099832412739488e-14
  endloop
endfacet
facet normal -0.25881904510251136 -0.9659258262890709 0.0
  outer loop
    vertex 83.26575363375464 51.51908187953545 1.4099832412739488e-14
    vertex 83.50735081684265 51.419009049669285 23.0
    vertex 83.26575363375464 51.51908187953545 23.0
  endloop
endfacet
facet normal -0.7071067811865502 -0.7071067811865447 0.0
  outer loop
    vertex 83.71481502127934 51.259816166565415 23.0
    vertex 83.50735081684265 51.419009049669285 1.4099832412739488e-14
    vertex 83.71481502127934 51.259816166565415 1.4099832412739488e-14
  endloop
endfacet
facet normal -0.4999999999999815 -0.8660254037844494 0.0
  outer loop
    vertex 83.50735081684265 51.419009049669285 1.4099832412739488e-14
    vertex 83.71481502127934 51.259816166565415 23.0
    vertex 83.50735081684265 51.419009049669285 23.0
  endloop
endfacet
facet normal -0.7071067811865502 -0.7071067811865447 0.0
  outer loop
    vertex 83.71481502127934 51.259816166565415 23.0
    vertex 83.87400790438319 51.05235196212873 1.4099832412739488e-14
    vertex 83.87400790438319 51.05235196212873 23.0
  endloop
endfacet
facet normal -0.8660254037844356 -0.5000000000000056 0.0
  outer loop
    vertex 83.87400790438319 51.05235196212873 1.4099832412739488e-14
    vertex 83.71481502127934 51.259816166565415 23.0
    vertex 83.71481502127934 51.259816166565415 1.4099832412739488e-14
  endloop
endfacet
facet normal -0.8660254037844356 -0.5000000000000056 0.0
  outer loop
    vertex 83.87400790438319 51.05235196212873 23.0
    vertex 83.97408073424938 50.81075477904072 1.4099832412739488e-14
    vertex 83.97408073424938 50.81075477904072 23.0
  endloop
endfacet
facet normal -0.9659258262890682 -0.2588190451025212 0.0
  outer loop
    vertex 83.97408073424938 50.81075477904072 1.4099832412739488e-14
    vertex 83.87400790438319 51.05235196212873 23.0
    vertex 83.87400790438319 51.05235196212873 1.4099832412739488e-14
  endloop
endfacet
facet normal -0.9659258262890682 -0.2588190451025212 0.0
  outer loop
    vertex 83.97408073424938 50.81075477904072 23.0
    vertex 84.00821371290066 50.55148906607071 1.4099832412739488e-14
    vertex 84.00821371290066 50.55148906607071 23.0
  endloop
endfacet
facet normal -1.0 0.0 0.0
  outer loop
    vertex 84.00821371290066 50.55148906607071 1.4099832412739488e-14
    vertex 83.97408073424938 50.81075477904072 23.0
    vertex 83.97408073424938 50.81075477904072 1.4099832412739488e-14
  endloop
endfacet
facet normal -1.0 0.0 0.0
  outer loop
    vertex 84.00821371290066 50.55148906607071 23.0
    vertex 83.97408073424938 50.292223353100695 1.4099832412739488e-14
    vertex 83.97408073424938 50.292223353100695 23.0
  endloop
endfacet
facet normal -0.9659258262890702 0.2588190451025139 0.0
  outer loop
    vertex 83.97408073424938 50.292223353100695 1.4099832412739488e-14
    vertex 84.00821371290066 50.55148906607071 23.0
    vertex 84.00821371290066 50.55148906607071 1.4099832412739488e-14
  endloop
endfacet
facet normal -0.9659258262890702 0.2588190451025139 0.0
  outer loop
    vertex 83.97408073424938 50.292223353100695 23.0
    vertex 83.8740079043832 50.0506261700127 1.4099832412739488e-14
    vertex 83.8740079043832 50.0506261700127 23.0
  endloop
endfacet
facet normal -0.866025403784432 0.5000000000000114 0.0
  outer loop
    vertex 83.8740079043832 50.0506261700127 1.4099832412739488e-14
    vertex 83.97408073424938 50.292223353100695 23.0
    vertex 83.97408073424938 50.292223353100695 1.4099832412739488e-14
  endloop
endfacet
facet normal -0.866025403784432 0.5000000000000114 0.0
  outer loop
    vertex 83.8740079043832 50.0506261700127 23.0
    vertex 83.71481502127932 49.843161965575995 1.4099832412739488e-14
    vertex 83.71481502127932 49.843161965575995 23.0
  endloop
endfacet
facet normal -0.707106781186534 0.7071067811865609 0.0
  outer loop
    vertex 83.71481502127932 49.843161965575995 1.4099832412739488e-14
    vertex 83.8740079043832 50.0506261700127 23.0
    vertex 83.8740079043832 50.0506261700127 1.4099832412739488e-14
  endloop
endfacet
facet normal -0.4999999999999956 0.8660254037844413 0.0
  outer loop
    vertex 83.50735081684263 49.68396908247213 23.0
    vertex 83.71481502127932 49.843161965575995 1.4099832412739488e-14
    vertex 83.50735081684263 49.68396908247213 1.4099832412739488e-14
  endloop
endfacet
facet normal -0.707106781186534 0.7071067811865609 0.0
  outer loop
    vertex 83.71481502127932 49.843161965575995 1.4099832412739488e-14
    vertex 83.50735081684263 49.68396908247213 23.0
    vertex 83.71481502127932 49.843161965575995 23.0
  endloop
endfacet
facet normal -0.2588190451025298 0.9659258262890658 0.0
  outer loop
    vertex 83.26575363375466 49.58389625260597 23.0
    vertex 83.50735081684263 49.68396908247213 1.4099832412739488e-14
    vertex 83.26575363375466 49.58389625260597 1.4099832412739488e-14
  endloop
endfacet
facet normal -0.4999999999999956 0.8660254037844413 0.0
  outer loop
    vertex 83.50735081684263 49.68396908247213 1.4099832412739488e-14
    vertex 83.26575363375466 49.58389625260597 23.0
    vertex 83.50735081684263 49.68396908247213 23.0
  endloop
endfacet
facet normal 0.0 1.0 0.0
  outer loop
    vertex 83.00648792078462 49.549763273954675 23.0
    vertex 83.26575363375466 49.58389625260597 1.4099832412739488e-14
    vertex 83.00648792078462 49.549763273954675 1.4099832412739488e-14
  endloop
endfacet
facet normal -0.2588190451025298 0.9659258262890658 0.0
  outer loop
    vertex 83.26575363375466 49.58389625260597 1.4099832412739488e-14
    vertex 83.00648792078462 49.549763273954675 23.0
    vertex 83.26575363375466 49.58389625260597 23.0
  endloop
endfacet
endsolid fixation cam Hexa
