solid Canopy_V1_1
facet normal 0.0 0.0 -1.0
  outer loop
    vertex 649.7617882746341 899.8445016298923 0.0
    vertex 469.7617882746341 859.3445016298923 0.0
    vertex 469.7617882746341 899.8445016298923 0.0
  endloop
endfacet
facet normal 0.0 0.0 -1.0
  outer loop
    vertex 469.7617882746341 859.3445016298923 0.0
    vertex 649.7617882746341 899.8445016298923 0.0
    vertex 599.4324168687114 888.2878340664938 -2.8199664825478975e-15
  endloop
endfacet
facet normal 0.0 0.0 -1.0
  outer loop
    vertex 469.7617882746341 859.3445016298923 0.0
    vertex 599.4324168687114 888.2878340664938 -2.8199664825478975e-15
    vertex 598.3176373833483 887.9094174224939 -2.8199664825478975e-15
  endloop
endfacet
facet normal 0.0 0.0 -1.0
  outer loop
    vertex 469.7617882746341 859.3445016298923 0.0
    vertex 598.3176373833483 887.9094174224939 -2.8199664825478975e-15
    vertex 597.2617882746341 887.3887302639521 -2.8199664825478975e-15
  endloop
endfacet
facet normal 0.0 0.0 -1.0
  outer loop
    vertex 469.7617882746341 859.3445016298923 0.0
    vertex 597.2617882746341 887.3887302639521 -2.8199664825478975e-15
    vertex 596.2829354135556 886.7346816925133 -2.8199664825478975e-15
  endloop
endfacet
facet normal 0.0 0.0 -1.0
  outer loop
    vertex 469.7617882746341 859.3445016298923 0.0
    vertex 596.2829354135556 886.7346816925133 -2.8199664825478975e-15
    vertex 595.3978272439551 885.9584626605713 -2.8199664825478975e-15
  endloop
endfacet
facet normal 0.0 0.0 -1.0
  outer loop
    vertex 469.7617882746341 859.3445016298923 0.0
    vertex 595.3978272439551 885.9584626605713 -2.8199664825478975e-15
    vertex 594.6216082120129 885.0733544909707 -2.8199664825478975e-15
  endloop
endfacet
facet normal 0.0 0.0 -1.0
  outer loop
    vertex 469.7617882746341 859.3445016298923 0.0
    vertex 594.6216082120129 885.0733544909707 -2.8199664825478975e-15
    vertex 593.9675596405742 884.0945016298923 -2.8199664825478975e-15
  endloop
endfacet
facet normal 0.0 0.0 -1.0
  outer loop
    vertex 469.7617882746341 859.3445016298923 0.0
    vertex 593.9675596405742 884.0945016298923 -2.8199664825478975e-15
    vertex 593.4468724820325 883.038652521178 -2.8199664825478975e-15
  endloop
endfacet
facet normal 0.0 0.0 -1.0
  outer loop
    vertex 469.7617882746341 859.3445016298923 0.0
    vertex 593.4468724820325 883.038652521178 -2.8199664825478975e-15
    vertex 593.0684558380325 881.9238730358148 -2.8199664825478975e-15
  endloop
endfacet
facet normal 0.0 0.0 -1.0
  outer loop
    vertex 469.7617882746341 859.3445016298923 0.0
    vertex 593.0684558380325 881.9238730358148 -2.8199664825478975e-15
    vertex 592.8387845222699 880.7692373598727 -2.8199664825478975e-15
  endloop
endfacet
facet normal 0.0 0.0 -1.0
  outer loop
    vertex 469.7617882746341 859.3445016298923 0.0
    vertex 592.8387845222699 880.7692373598727 -2.8199664825478975e-15
    vertex 592.7617882746341 879.5945016298922 -2.8199664825478975e-15
  endloop
endfacet
facet normal 0.0 0.0 -1.0
  outer loop
    vertex 599.4324168687114 888.2878340664938 -2.8199664825478975e-15
    vertex 649.7617882746341 899.8445016298923 0.0
    vertex 600.5870525446535 888.5175053822567 -2.8199664825478975e-15
  endloop
endfacet
facet normal 0.0 0.0 -1.0
  outer loop
    vertex 600.5870525446535 888.5175053822567 -2.8199664825478975e-15
    vertex 649.7617882746341 899.8445016298923 0.0
    vertex 601.761788274634 888.5945016298923 -2.8199664825478975e-15
  endloop
endfacet
facet normal 0.0 0.0 -1.0
  outer loop
    vertex 601.761788274634 888.5945016298923 -2.8199664825478975e-15
    vertex 649.7617882746341 899.8445016298923 0.0
    vertex 610.7617882746341 888.5945016298923 -2.8199664825478975e-15
  endloop
endfacet
facet normal 0.0 0.0 -1.0
  outer loop
    vertex 610.7617882746341 888.5945016298923 -2.8199664825478975e-15
    vertex 649.7617882746341 899.8445016298923 0.0
    vertex 611.9365240046146 888.5175053822567 -2.8199664825478975e-15
  endloop
endfacet
facet normal 0.0 0.0 -1.0
  outer loop
    vertex 611.9365240046146 888.5175053822567 -2.8199664825478975e-15
    vertex 649.7617882746341 899.8445016298923 0.0
    vertex 613.0911596805568 888.2878340664938 -2.8199664825478975e-15
  endloop
endfacet
facet normal 0.0 0.0 -1.0
  outer loop
    vertex 613.0911596805568 888.2878340664938 -2.8199664825478975e-15
    vertex 649.7617882746341 899.8445016298923 0.0
    vertex 614.2059391659199 887.9094174224939 -2.8199664825478975e-15
  endloop
endfacet
facet normal 0.0 0.0 -1.0
  outer loop
    vertex 614.2059391659199 887.9094174224939 -2.8199664825478975e-15
    vertex 649.7617882746341 899.8445016298923 0.0
    vertex 615.2617882746341 887.3887302639523 -2.8199664825478975e-15
  endloop
endfacet
facet normal 0.0 0.0 -1.0
  outer loop
    vertex 615.2617882746341 887.3887302639523 -2.8199664825478975e-15
    vertex 649.7617882746341 899.8445016298923 0.0
    vertex 616.2406411357126 886.7346816925133 -2.8199664825478975e-15
  endloop
endfacet
facet normal 0.0 0.0 -1.0
  outer loop
    vertex 616.2406411357126 886.7346816925133 -2.8199664825478975e-15
    vertex 649.7617882746341 899.8445016298923 0.0
    vertex 617.1257493053131 885.9584626605713 -2.8199664825478975e-15
  endloop
endfacet
facet normal 0.0 0.0 -1.0
  outer loop
    vertex 617.1257493053131 885.9584626605713 -2.8199664825478975e-15
    vertex 649.7617882746341 899.8445016298923 0.0
    vertex 617.9019683372552 885.0733544909708 -2.8199664825478975e-15
  endloop
endfacet
facet normal 0.0 0.0 -1.0
  outer loop
    vertex 617.9019683372552 885.0733544909708 -2.8199664825478975e-15
    vertex 649.7617882746341 899.8445016298923 0.0
    vertex 618.556016908694 884.0945016298923 -2.8199664825478975e-15
  endloop
endfacet
facet normal 0.0 0.0 -1.0
  outer loop
    vertex 618.556016908694 884.0945016298923 -2.8199664825478975e-15
    vertex 649.7617882746341 899.8445016298923 0.0
    vertex 619.0767040672356 883.038652521178 -2.8199664825478975e-15
  endloop
endfacet
facet normal 0.0 0.0 -1.0
  outer loop
    vertex 619.0767040672356 883.038652521178 -2.8199664825478975e-15
    vertex 649.7617882746341 899.8445016298923 0.0
    vertex 619.4551207112357 881.9238730358148 -2.8199664825478975e-15
  endloop
endfacet
facet normal 0.0 0.0 -1.0
  outer loop
    vertex 619.4551207112357 881.9238730358148 -2.8199664825478975e-15
    vertex 649.7617882746341 899.8445016298923 0.0
    vertex 619.6847920269984 880.7692373598727 -2.8199664825478975e-15
  endloop
endfacet
facet normal 0.0 0.0 -1.0
  outer loop
    vertex 619.6847920269984 880.7692373598727 -2.8199664825478975e-15
    vertex 649.7617882746341 899.8445016298923 0.0
    vertex 619.7617882746341 879.5945016298922 -2.8199664825478975e-15
  endloop
endfacet
facet normal 0.0 0.0 -1.0
  outer loop
    vertex 469.7617882746341 859.3445016298923 0.0
    vertex 599.4324168687114 870.9011691932906 -2.8199664825478975e-15
    vertex 649.7617882746341 859.3445016298923 0.0
  endloop
endfacet
facet normal 0.0 0.0 -1.0
  outer loop
    vertex 599.4324168687114 870.9011691932906 -2.8199664825478975e-15
    vertex 469.7617882746341 859.3445016298923 0.0
    vertex 598.3176373833483 871.2795858372906 -2.8199664825478975e-15
  endloop
endfacet
facet normal 0.0 0.0 -1.0
  outer loop
    vertex 598.3176373833483 871.2795858372906 -2.8199664825478975e-15
    vertex 469.7617882746341 859.3445016298923 0.0
    vertex 597.2617882746341 871.8002729958324 -2.8199664825478975e-15
  endloop
endfacet
facet normal 0.0 0.0 -1.0
  outer loop
    vertex 597.2617882746341 871.8002729958324 -2.8199664825478975e-15
    vertex 469.7617882746341 859.3445016298923 0.0
    vertex 596.2829354135556 872.4543215672712 -2.8199664825478975e-15
  endloop
endfacet
facet normal 0.0 0.0 -1.0
  outer loop
    vertex 596.2829354135556 872.4543215672712 -2.8199664825478975e-15
    vertex 469.7617882746341 859.3445016298923 0.0
    vertex 595.3978272439551 873.2305405992132 -2.8199664825478975e-15
  endloop
endfacet
facet normal 0.0 0.0 -1.0
  outer loop
    vertex 595.3978272439551 873.2305405992132 -2.8199664825478975e-15
    vertex 469.7617882746341 859.3445016298923 0.0
    vertex 594.6216082120129 874.1156487688138 -2.8199664825478975e-15
  endloop
endfacet
facet normal 0.0 0.0 -1.0
  outer loop
    vertex 594.6216082120129 874.1156487688138 -2.8199664825478975e-15
    vertex 469.7617882746341 859.3445016298923 0.0
    vertex 593.9675596405742 875.0945016298922 -2.8199664825478975e-15
  endloop
endfacet
facet normal 0.0 0.0 -1.0
  outer loop
    vertex 593.9675596405742 875.0945016298922 -2.8199664825478975e-15
    vertex 469.7617882746341 859.3445016298923 0.0
    vertex 593.4468724820325 876.1503507386064 -2.8199664825478975e-15
  endloop
endfacet
facet normal 0.0 0.0 -1.0
  outer loop
    vertex 593.4468724820325 876.1503507386064 -2.8199664825478975e-15
    vertex 469.7617882746341 859.3445016298923 0.0
    vertex 593.0684558380325 877.2651302239697 -2.8199664825478975e-15
  endloop
endfacet
facet normal 0.0 0.0 -1.0
  outer loop
    vertex 593.0684558380325 877.2651302239697 -2.8199664825478975e-15
    vertex 469.7617882746341 859.3445016298923 0.0
    vertex 592.8387845222699 878.4197658999118 -2.8199664825478975e-15
  endloop
endfacet
facet normal 0.0 0.0 -1.0
  outer loop
    vertex 592.8387845222699 878.4197658999118 -2.8199664825478975e-15
    vertex 469.7617882746341 859.3445016298923 0.0
    vertex 592.7617882746341 879.5945016298922 -2.8199664825478975e-15
  endloop
endfacet
facet normal 0.0 0.0 -1.0
  outer loop
    vertex 649.7617882746341 859.3445016298923 0.0
    vertex 599.4324168687114 870.9011691932906 -2.8199664825478975e-15
    vertex 600.5870525446535 870.6714978775278 -2.8199664825478975e-15
  endloop
endfacet
facet normal 0.0 0.0 -1.0
  outer loop
    vertex 649.7617882746341 859.3445016298923 0.0
    vertex 600.5870525446535 870.6714978775278 -2.8199664825478975e-15
    vertex 601.761788274634 870.5945016298921 -2.8199664825478975e-15
  endloop
endfacet
facet normal 0.0 0.0 -1.0
  outer loop
    vertex 649.7617882746341 859.3445016298923 0.0
    vertex 601.761788274634 870.5945016298921 -2.8199664825478975e-15
    vertex 610.761788274634 870.5945016298921 -2.8199664825478975e-15
  endloop
endfacet
facet normal 0.0 0.0 -1.0
  outer loop
    vertex 649.7617882746341 859.3445016298923 0.0
    vertex 610.761788274634 870.5945016298921 -2.8199664825478975e-15
    vertex 611.9365240046145 870.6714978775278 -2.8199664825478975e-15
  endloop
endfacet
facet normal 0.0 0.0 -1.0
  outer loop
    vertex 649.7617882746341 859.3445016298923 0.0
    vertex 611.9365240046145 870.6714978775278 -2.8199664825478975e-15
    vertex 613.0911596805566 870.9011691932905 -2.8199664825478975e-15
  endloop
endfacet
facet normal 0.0 0.0 -1.0
  outer loop
    vertex 649.7617882746341 859.3445016298923 0.0
    vertex 613.0911596805566 870.9011691932905 -2.8199664825478975e-15
    vertex 614.2059391659199 871.2795858372906 -2.8199664825478975e-15
  endloop
endfacet
facet normal 0.0 0.0 -1.0
  outer loop
    vertex 649.7617882746341 859.3445016298923 0.0
    vertex 614.2059391659199 871.2795858372906 -2.8199664825478975e-15
    vertex 615.261788274634 871.8002729958322 -2.8199664825478975e-15
  endloop
endfacet
facet normal 0.0 0.0 -1.0
  outer loop
    vertex 649.7617882746341 859.3445016298923 0.0
    vertex 615.261788274634 871.8002729958322 -2.8199664825478975e-15
    vertex 616.2406411357126 872.454321567271 -2.8199664825478975e-15
  endloop
endfacet
facet normal 0.0 0.0 -1.0
  outer loop
    vertex 649.7617882746341 859.3445016298923 0.0
    vertex 616.2406411357126 872.454321567271 -2.8199664825478975e-15
    vertex 617.125749305313 873.2305405992132 -2.8199664825478975e-15
  endloop
endfacet
facet normal 0.0 0.0 -1.0
  outer loop
    vertex 649.7617882746341 859.3445016298923 0.0
    vertex 617.125749305313 873.2305405992132 -2.8199664825478975e-15
    vertex 617.9019683372552 874.1156487688137 -2.8199664825478975e-15
  endloop
endfacet
facet normal 0.0 0.0 -1.0
  outer loop
    vertex 649.7617882746341 859.3445016298923 0.0
    vertex 617.9019683372552 874.1156487688137 -2.8199664825478975e-15
    vertex 618.556016908694 875.0945016298922 -2.8199664825478975e-15
  endloop
endfacet
facet normal 0.0 0.0 -1.0
  outer loop
    vertex 649.7617882746341 859.3445016298923 0.0
    vertex 618.556016908694 875.0945016298922 -2.8199664825478975e-15
    vertex 619.0767040672356 876.1503507386064 -2.8199664825478975e-15
  endloop
endfacet
facet normal 0.0 0.0 -1.0
  outer loop
    vertex 649.7617882746341 859.3445016298923 0.0
    vertex 619.0767040672356 876.1503507386064 -2.8199664825478975e-15
    vertex 619.4551207112357 877.2651302239694 -2.8199664825478975e-15
  endloop
endfacet
facet normal 0.0 0.0 -1.0
  outer loop
    vertex 649.7617882746341 859.3445016298923 0.0
    vertex 619.4551207112357 877.2651302239694 -2.8199664825478975e-15
    vertex 619.6847920269984 878.4197658999118 -2.8199664825478975e-15
  endloop
endfacet
facet normal 0.0 0.0 -1.0
  outer loop
    vertex 649.7617882746341 859.3445016298923 0.0
    vertex 619.6847920269984 878.4197658999118 -2.8199664825478975e-15
    vertex 619.7617882746341 879.5945016298922 -2.8199664825478975e-15
  endloop
endfacet
facet normal 0.0 0.0 -1.0
  outer loop
    vertex 649.7617882746341 859.3445016298923 0.0
    vertex 619.7617882746341 879.5945016298922 -2.8199664825478975e-15
    vertex 649.7617882746341 899.8445016298923 0.0
  endloop
endfacet
facet normal -0.0 -1.0 -0.0
  outer loop
    vertex 649.7617882746341 859.3445016298923 0.9999999999999999
    vertex 469.7617882746341 859.3445016298923 0.0
    vertex 649.7617882746341 859.3445016298923 0.0
  endloop
endfacet
facet normal -0.0 -1.0 -0.0
  outer loop
    vertex 469.7617882746341 859.3445016298923 0.0
    vertex 649.7617882746341 859.3445016298923 0.9999999999999999
    vertex 469.7617882746341 859.3445016298923 0.9999999999999999
  endloop
endfacet
facet normal -1.0 0.0 0.0
  outer loop
    vertex 469.7617882746341 899.8445016298923 0.9999999999999999
    vertex 469.7617882746341 859.3445016298923 0.0
    vertex 469.7617882746341 859.3445016298923 0.9999999999999999
  endloop
endfacet
facet normal -1.0 0.0 0.0
  outer loop
    vertex 469.7617882746341 859.3445016298923 0.0
    vertex 469.7617882746341 899.8445016298923 0.9999999999999999
    vertex 469.7617882746341 899.8445016298923 0.0
  endloop
endfacet
facet normal -0.0 1.0 0.0
  outer loop
    vertex 469.7617882746341 899.8445016298923 0.9999999999999999
    vertex 649.7617882746341 899.8445016298923 0.0
    vertex 469.7617882746341 899.8445016298923 0.0
  endloop
endfacet
facet normal -0.0 1.0 0.0
  outer loop
    vertex 649.7617882746341 899.8445016298923 0.0
    vertex 469.7617882746341 899.8445016298923 0.9999999999999999
    vertex 649.7617882746341 899.8445016298923 0.9999999999999999
  endloop
endfacet
facet normal 1.0 -0.0 -0.0
  outer loop
    vertex 624.7617882746341 897.3445016298923 0.9999999999999999
    vertex 624.7617882746341 861.8445016298923 1.9999999999999998
    vertex 624.7617882746341 861.8445016298923 0.9999999999999999
  endloop
endfacet
facet normal 1.0 -0.0 -0.0
  outer loop
    vertex 624.7617882746341 861.8445016298923 1.9999999999999998
    vertex 624.7617882746341 897.3445016298923 0.9999999999999999
    vertex 624.7617882746341 897.3445016298923 1.9999999999999998
  endloop
endfacet
facet normal 0.06540312923015672 -0.9978589232386028 -0.0
  outer loop
    vertex 601.761788274634 888.5945016298923 1.9999999999999998
    vertex 600.5870525446535 888.5175053822567 -2.8199664825478975e-15
    vertex 601.761788274634 888.5945016298923 -2.8199664825478975e-15
  endloop
endfacet
facet normal 0.06540312923015672 -0.9978589232386028 -0.0
  outer loop
    vertex 600.5870525446535 888.5175053822567 -2.8199664825478975e-15
    vertex 601.761788274634 888.5945016298923 1.9999999999999998
    vertex 600.5870525446535 888.5175053822567 1.9999999999999998
  endloop
endfacet
facet normal 0.7518398074790332 -0.6593458151000052 -0.0
  outer loop
    vertex 595.3978272439551 885.9584626605713 -2.8199664825478975e-15
    vertex 594.6216082120129 885.0733544909707 1.9999999999999998
    vertex 594.6216082120129 885.0733544909707 -2.8199664825478975e-15
  endloop
endfacet
facet normal 0.7518398074790332 -0.6593458151000052 -0.0
  outer loop
    vertex 594.6216082120129 885.0733544909707 1.9999999999999998
    vertex 595.3978272439551 885.9584626605713 -2.8199664825478975e-15
    vertex 595.3978272439551 885.9584626605713 1.9999999999999998
  endloop
endfacet
facet normal -0.0 -1.0 -0.0
  outer loop
    vertex 610.7617882746341 888.5945016298923 1.9999999999999998
    vertex 601.761788274634 888.5945016298923 -2.8199664825478975e-15
    vertex 610.7617882746341 888.5945016298923 -2.8199664825478975e-15
  endloop
endfacet
facet normal -0.0 -1.0 -0.0
  outer loop
    vertex 601.761788274634 888.5945016298923 -2.8199664825478975e-15
    vertex 610.7617882746341 888.5945016298923 1.9999999999999998
    vertex 601.761788274634 888.5945016298923 1.9999999999999998
  endloop
endfacet
facet normal 0.6593458150999999 -0.7518398074790379 -0.0
  outer loop
    vertex 596.2829354135556 886.7346816925133 1.9999999999999998
    vertex 595.3978272439551 885.9584626605713 -2.8199664825478975e-15
    vertex 596.2829354135556 886.7346816925133 -2.8199664825478975e-15
  endloop
endfacet
facet normal 0.6593458150999999 -0.7518398074790379 -0.0
  outer loop
    vertex 595.3978272439551 885.9584626605713 -2.8199664825478975e-15
    vertex 596.2829354135556 886.7346816925133 1.9999999999999998
    vertex 595.3978272439551 885.9584626605713 1.9999999999999998
  endloop
endfacet
facet normal -0.06540312923015672 -0.9978589232386028 -0.0
  outer loop
    vertex 611.9365240046146 888.5175053822567 1.9999999999999998
    vertex 610.7617882746341 888.5945016298923 -2.8199664825478975e-15
    vertex 611.9365240046146 888.5175053822567 -2.8199664825478975e-15
  endloop
endfacet
facet normal -0.06540312923015672 -0.9978589232386028 -0.0
  outer loop
    vertex 610.7617882746341 888.5945016298923 -2.8199664825478975e-15
    vertex 611.9365240046146 888.5175053822567 1.9999999999999998
    vertex 610.7617882746341 888.5945016298923 1.9999999999999998
  endloop
endfacet
facet normal 0.1950903220162117 -0.9807852804032139 -0.0
  outer loop
    vertex 600.5870525446535 888.5175053822567 1.9999999999999998
    vertex 599.4324168687114 888.2878340664938 -2.8199664825478975e-15
    vertex 600.5870525446535 888.5175053822567 -2.8199664825478975e-15
  endloop
endfacet
facet normal 0.1950903220162117 -0.9807852804032139 -0.0
  outer loop
    vertex 599.4324168687114 888.2878340664938 -2.8199664825478975e-15
    vertex 600.5870525446535 888.5175053822567 1.9999999999999998
    vertex 599.4324168687114 888.2878340664938 1.9999999999999998
  endloop
endfacet
facet normal -0.1950903220162117 -0.9807852804032139 -0.0
  outer loop
    vertex 613.0911596805568 888.2878340664938 1.9999999999999998
    vertex 611.9365240046146 888.5175053822567 -2.8199664825478975e-15
    vertex 613.0911596805568 888.2878340664938 -2.8199664825478975e-15
  endloop
endfacet
facet normal -0.1950903220162117 -0.9807852804032139 -0.0
  outer loop
    vertex 611.9365240046146 888.5175053822567 -2.8199664825478975e-15
    vertex 613.0911596805568 888.2878340664938 1.9999999999999998
    vertex 611.9365240046146 888.5175053822567 1.9999999999999998
  endloop
endfacet
facet normal 0.4422886902191302 -0.8968727415326248 -0.0
  outer loop
    vertex 598.3176373833483 887.9094174224939 1.9999999999999998
    vertex 597.2617882746341 887.3887302639521 -2.8199664825478975e-15
    vertex 598.3176373833483 887.9094174224939 -2.8199664825478975e-15
  endloop
endfacet
facet normal 0.4422886902191302 -0.8968727415326248 -0.0
  outer loop
    vertex 597.2617882746341 887.3887302639521 -2.8199664825478975e-15
    vertex 598.3176373833483 887.9094174224939 1.9999999999999998
    vertex 597.2617882746341 887.3887302639521 1.9999999999999998
  endloop
endfacet
facet normal -0.6593458150999999 -0.7518398074790379 -0.0
  outer loop
    vertex 617.1257493053131 885.9584626605713 1.9999999999999998
    vertex 616.2406411357126 886.7346816925133 -2.8199664825478975e-15
    vertex 617.1257493053131 885.9584626605713 -2.8199664825478975e-15
  endloop
endfacet
facet normal -0.6593458150999999 -0.7518398074790379 -0.0
  outer loop
    vertex 616.2406411357126 886.7346816925133 -2.8199664825478975e-15
    vertex 617.1257493053131 885.9584626605713 1.9999999999999998
    vertex 616.2406411357126 886.7346816925133 1.9999999999999998
  endloop
endfacet
facet normal 0.8314696123025289 -0.5555702330196266 -0.0
  outer loop
    vertex 594.6216082120129 885.0733544909707 -2.8199664825478975e-15
    vertex 593.9675596405742 884.0945016298923 1.9999999999999998
    vertex 593.9675596405742 884.0945016298923 -2.8199664825478975e-15
  endloop
endfacet
facet normal 0.8314696123025289 -0.5555702330196266 -0.0
  outer loop
    vertex 593.9675596405742 884.0945016298923 1.9999999999999998
    vertex 594.6216082120129 885.0733544909707 -2.8199664825478975e-15
    vertex 594.6216082120129 885.0733544909707 1.9999999999999998
  endloop
endfacet
facet normal 0.32143946530310574 -0.9469301294951248 -0.0
  outer loop
    vertex 599.4324168687114 888.2878340664938 1.9999999999999998
    vertex 598.3176373833483 887.9094174224939 -2.8199664825478975e-15
    vertex 599.4324168687114 888.2878340664938 -2.8199664825478975e-15
  endloop
endfacet
facet normal 0.32143946530310574 -0.9469301294951248 -0.0
  outer loop
    vertex 598.3176373833483 887.9094174224939 -2.8199664825478975e-15
    vertex 599.4324168687114 888.2878340664938 1.9999999999999998
    vertex 598.3176373833483 887.9094174224939 1.9999999999999998
  endloop
endfacet
facet normal -0.32143946530310574 -0.9469301294951248 -0.0
  outer loop
    vertex 614.2059391659199 887.9094174224939 1.9999999999999998
    vertex 613.0911596805568 888.2878340664938 -2.8199664825478975e-15
    vertex 614.2059391659199 887.9094174224939 -2.8199664825478975e-15
  endloop
endfacet
facet normal -0.32143946530310574 -0.9469301294951248 -0.0
  outer loop
    vertex 613.0911596805568 888.2878340664938 -2.8199664825478975e-15
    vertex 614.2059391659199 887.9094174224939 1.9999999999999998
    vertex 613.0911596805568 888.2878340664938 1.9999999999999998
  endloop
endfacet
facet normal -0.5555702330196973 -0.831469612302482 -0.0
  outer loop
    vertex 616.2406411357126 886.7346816925133 1.9999999999999998
    vertex 615.2617882746341 887.3887302639523 -2.8199664825478975e-15
    vertex 616.2406411357126 886.7346816925133 -2.8199664825478975e-15
  endloop
endfacet
facet normal -0.5555702330196973 -0.831469612302482 -0.0
  outer loop
    vertex 615.2617882746341 887.3887302639523 -2.8199664825478975e-15
    vertex 616.2406411357126 886.7346816925133 1.9999999999999998
    vertex 615.2617882746341 887.3887302639523 1.9999999999999998
  endloop
endfacet
facet normal -0.4422886902189766 -0.8968727415327007 -0.0
  outer loop
    vertex 615.2617882746341 887.3887302639523 1.9999999999999998
    vertex 614.2059391659199 887.9094174224939 -2.8199664825478975e-15
    vertex 615.2617882746341 887.3887302639523 -2.8199664825478975e-15
  endloop
endfacet
facet normal -0.4422886902189766 -0.8968727415327007 -0.0
  outer loop
    vertex 614.2059391659199 887.9094174224939 -2.8199664825478975e-15
    vertex 615.2617882746341 887.3887302639523 1.9999999999999998
    vertex 614.2059391659199 887.9094174224939 1.9999999999999998
  endloop
endfacet
facet normal 0.5555702330195913 -0.8314696123025528 -0.0
  outer loop
    vertex 597.2617882746341 887.3887302639521 1.9999999999999998
    vertex 596.2829354135556 886.7346816925133 -2.8199664825478975e-15
    vertex 597.2617882746341 887.3887302639521 -2.8199664825478975e-15
  endloop
endfacet
facet normal 0.5555702330195913 -0.8314696123025528 -0.0
  outer loop
    vertex 596.2829354135556 886.7346816925133 -2.8199664825478975e-15
    vertex 597.2617882746341 887.3887302639521 1.9999999999999998
    vertex 596.2829354135556 886.7346816925133 1.9999999999999998
  endloop
endfacet
facet normal 0.8968727415327007 0.4422886902189766 0.0
  outer loop
    vertex 593.4468724820325 876.1503507386064 -2.8199664825478975e-15
    vertex 593.9675596405742 875.0945016298922 1.9999999999999998
    vertex 593.9675596405742 875.0945016298922 -2.8199664825478975e-15
  endloop
endfacet
facet normal 0.8968727415327007 0.4422886902189766 0.0
  outer loop
    vertex 593.9675596405742 875.0945016298922 1.9999999999999998
    vertex 593.4468724820325 876.1503507386064 -2.8199664825478975e-15
    vertex 593.4468724820325 876.1503507386064 1.9999999999999998
  endloop
endfacet
facet normal 0.9807852804032285 0.19509032201613796 0.0
  outer loop
    vertex 592.8387845222699 878.4197658999118 -2.8199664825478975e-15
    vertex 593.0684558380325 877.2651302239697 1.9999999999999998
    vertex 593.0684558380325 877.2651302239697 -2.8199664825478975e-15
  endloop
endfacet
facet normal 0.9807852804032285 0.19509032201613796 0.0
  outer loop
    vertex 593.0684558380325 877.2651302239697 1.9999999999999998
    vertex 592.8387845222699 878.4197658999118 -2.8199664825478975e-15
    vertex 592.8387845222699 878.4197658999118 1.9999999999999998
  endloop
endfacet
facet normal 0.9469301294951092 0.3214394653031511 0.0
  outer loop
    vertex 593.0684558380325 877.2651302239697 -2.8199664825478975e-15
    vertex 593.4468724820325 876.1503507386064 1.9999999999999998
    vertex 593.4468724820325 876.1503507386064 -2.8199664825478975e-15
  endloop
endfacet
facet normal 0.9469301294951092 0.3214394653031511 0.0
  outer loop
    vertex 593.4468724820325 876.1503507386064 1.9999999999999998
    vertex 593.0684558380325 877.2651302239697 -2.8199664825478975e-15
    vertex 593.0684558380325 877.2651302239697 1.9999999999999998
  endloop
endfacet
facet normal 0.9978589232386024 -0.06540312923016171 -0.0
  outer loop
    vertex 592.8387845222699 880.7692373598727 -2.8199664825478975e-15
    vertex 592.7617882746341 879.5945016298922 1.9999999999999998
    vertex 592.7617882746341 879.5945016298922 -2.8199664825478975e-15
  endloop
endfacet
facet normal 0.9978589232386024 -0.06540312923016171 -0.0
  outer loop
    vertex 592.7617882746341 879.5945016298922 1.9999999999999998
    vertex 592.8387845222699 880.7692373598727 -2.8199664825478975e-15
    vertex 592.8387845222699 880.7692373598727 1.9999999999999998
  endloop
endfacet
facet normal 0.8314696123025289 0.5555702330196266 0.0
  outer loop
    vertex 593.9675596405742 875.0945016298922 -2.8199664825478975e-15
    vertex 594.6216082120129 874.1156487688138 1.9999999999999998
    vertex 594.6216082120129 874.1156487688138 -2.8199664825478975e-15
  endloop
endfacet
facet normal 0.8314696123025289 0.5555702330196266 0.0
  outer loop
    vertex 594.6216082120129 874.1156487688138 1.9999999999999998
    vertex 593.9675596405742 875.0945016298922 -2.8199664825478975e-15
    vertex 593.9675596405742 875.0945016298922 1.9999999999999998
  endloop
endfacet
facet normal 0.9469301294951092 -0.3214394653031511 -0.0
  outer loop
    vertex 593.4468724820325 883.038652521178 -2.8199664825478975e-15
    vertex 593.0684558380325 881.9238730358148 1.9999999999999998
    vertex 593.0684558380325 881.9238730358148 -2.8199664825478975e-15
  endloop
endfacet
facet normal 0.9469301294951092 -0.3214394653031511 -0.0
  outer loop
    vertex 593.0684558380325 881.9238730358148 1.9999999999999998
    vertex 593.4468724820325 883.038652521178 -2.8199664825478975e-15
    vertex 593.4468724820325 883.038652521178 1.9999999999999998
  endloop
endfacet
facet normal 0.9978589232386024 0.06540312923016171 0.0
  outer loop
    vertex 592.7617882746341 879.5945016298922 -2.8199664825478975e-15
    vertex 592.8387845222699 878.4197658999118 1.9999999999999998
    vertex 592.8387845222699 878.4197658999118 -2.8199664825478975e-15
  endloop
endfacet
facet normal 0.9978589232386024 0.06540312923016171 0.0
  outer loop
    vertex 592.8387845222699 878.4197658999118 1.9999999999999998
    vertex 592.7617882746341 879.5945016298922 -2.8199664825478975e-15
    vertex 592.7617882746341 879.5945016298922 1.9999999999999998
  endloop
endfacet
facet normal 0.7518398074790332 0.6593458151000052 0.0
  outer loop
    vertex 594.6216082120129 874.1156487688138 -2.8199664825478975e-15
    vertex 595.3978272439551 873.2305405992132 1.9999999999999998
    vertex 595.3978272439551 873.2305405992132 -2.8199664825478975e-15
  endloop
endfacet
facet normal 0.7518398074790332 0.6593458151000052 0.0
  outer loop
    vertex 595.3978272439551 873.2305405992132 1.9999999999999998
    vertex 594.6216082120129 874.1156487688138 -2.8199664825478975e-15
    vertex 594.6216082120129 874.1156487688138 1.9999999999999998
  endloop
endfacet
facet normal 0.9807852804032285 -0.19509032201613796 -0.0
  outer loop
    vertex 593.0684558380325 881.9238730358148 -2.8199664825478975e-15
    vertex 592.8387845222699 880.7692373598727 1.9999999999999998
    vertex 592.8387845222699 880.7692373598727 -2.8199664825478975e-15
  endloop
endfacet
facet normal 0.9807852804032285 -0.19509032201613796 -0.0
  outer loop
    vertex 592.8387845222699 880.7692373598727 1.9999999999999998
    vertex 593.0684558380325 881.9238730358148 -2.8199664825478975e-15
    vertex 593.0684558380325 881.9238730358148 1.9999999999999998
  endloop
endfacet
facet normal 0.8968727415327007 -0.4422886902189766 -0.0
  outer loop
    vertex 593.9675596405742 884.0945016298923 -2.8199664825478975e-15
    vertex 593.4468724820325 883.038652521178 1.9999999999999998
    vertex 593.4468724820325 883.038652521178 -2.8199664825478975e-15
  endloop
endfacet
facet normal 0.8968727415327007 -0.4422886902189766 -0.0
  outer loop
    vertex 593.4468724820325 883.038652521178 1.9999999999999998
    vertex 593.9675596405742 884.0945016298923 -2.8199664825478975e-15
    vertex 593.9675596405742 884.0945016298923 1.9999999999999998
  endloop
endfacet
facet normal 0.0 -1.0 0.0
  outer loop
    vertex 624.7617882746341 861.8445016298923 1.9999999999999998
    vertex 494.7617882746341 861.8445016298923 0.9999999999999999
    vertex 624.7617882746341 861.8445016298923 0.9999999999999999
  endloop
endfacet
facet normal 0.0 -1.0 0.0
  outer loop
    vertex 494.7617882746341 861.8445016298923 0.9999999999999999
    vertex 624.7617882746341 861.8445016298923 1.9999999999999998
    vertex 494.7617882746341 861.8445016298923 1.9999999999999998
  endloop
endfacet
facet normal -1.0 -0.0 -0.0
  outer loop
    vertex 494.7617882746341 897.3445016298923 1.9999999999999998
    vertex 494.7617882746341 861.8445016298923 0.9999999999999999
    vertex 494.7617882746341 861.8445016298923 1.9999999999999998
  endloop
endfacet
facet normal -1.0 -0.0 -0.0
  outer loop
    vertex 494.7617882746341 861.8445016298923 0.9999999999999999
    vertex 494.7617882746341 897.3445016298923 1.9999999999999998
    vertex 494.7617882746341 897.3445016298923 0.9999999999999999
  endloop
endfacet
facet normal 0.0 1.0 0.0
  outer loop
    vertex 494.7617882746341 897.3445016298923 1.9999999999999998
    vertex 624.7617882746341 897.3445016298923 0.9999999999999999
    vertex 494.7617882746341 897.3445016298923 0.9999999999999999
  endloop
endfacet
facet normal 0.0 1.0 0.0
  outer loop
    vertex 624.7617882746341 897.3445016298923 0.9999999999999999
    vertex 494.7617882746341 897.3445016298923 1.9999999999999998
    vertex 624.7617882746341 897.3445016298923 1.9999999999999998
  endloop
endfacet
facet normal -0.0 -0.0 1.0
  outer loop
    vertex 624.7617882746341 861.8445016298923 1.9999999999999998
    vertex 494.7617882746341 897.3445016298923 1.9999999999999998
    vertex 494.7617882746341 861.8445016298923 1.9999999999999998
  endloop
endfacet
facet normal -0.0 -0.0 1.0
  outer loop
    vertex 494.7617882746341 897.3445016298923 1.9999999999999998
    vertex 624.7617882746341 861.8445016298923 1.9999999999999998
    vertex 598.3176373833483 871.2795858372906 1.9999999999999998
  endloop
endfacet
facet normal -0.0 -0.0 1.0
  outer loop
    vertex 494.7617882746341 897.3445016298923 1.9999999999999998
    vertex 598.3176373833483 871.2795858372906 1.9999999999999998
    vertex 597.2617882746341 871.8002729958324 1.9999999999999998
  endloop
endfacet
facet normal -0.0 -0.0 1.0
  outer loop
    vertex 494.7617882746341 897.3445016298923 1.9999999999999998
    vertex 597.2617882746341 871.8002729958324 1.9999999999999998
    vertex 596.2829354135556 872.4543215672712 1.9999999999999998
  endloop
endfacet
facet normal -0.0 -0.0 1.0
  outer loop
    vertex 494.7617882746341 897.3445016298923 1.9999999999999998
    vertex 596.2829354135556 872.4543215672712 1.9999999999999998
    vertex 595.3978272439551 873.2305405992132 1.9999999999999998
  endloop
endfacet
facet normal -0.0 -0.0 1.0
  outer loop
    vertex 494.7617882746341 897.3445016298923 1.9999999999999998
    vertex 595.3978272439551 873.2305405992132 1.9999999999999998
    vertex 594.6216082120129 874.1156487688138 1.9999999999999998
  endloop
endfacet
facet normal -0.0 -0.0 1.0
  outer loop
    vertex 494.7617882746341 897.3445016298923 1.9999999999999998
    vertex 594.6216082120129 874.1156487688138 1.9999999999999998
    vertex 593.9675596405742 875.0945016298922 1.9999999999999998
  endloop
endfacet
facet normal -0.0 -0.0 1.0
  outer loop
    vertex 494.7617882746341 897.3445016298923 1.9999999999999998
    vertex 593.9675596405742 875.0945016298922 1.9999999999999998
    vertex 593.4468724820325 876.1503507386064 1.9999999999999998
  endloop
endfacet
facet normal -0.0 -0.0 1.0
  outer loop
    vertex 494.7617882746341 897.3445016298923 1.9999999999999998
    vertex 593.4468724820325 876.1503507386064 1.9999999999999998
    vertex 593.0684558380325 877.2651302239697 1.9999999999999998
  endloop
endfacet
facet normal -0.0 -0.0 1.0
  outer loop
    vertex 494.7617882746341 897.3445016298923 1.9999999999999998
    vertex 593.0684558380325 877.2651302239697 1.9999999999999998
    vertex 592.8387845222699 878.4197658999118 1.9999999999999998
  endloop
endfacet
facet normal -0.0 -0.0 1.0
  outer loop
    vertex 494.7617882746341 897.3445016298923 1.9999999999999998
    vertex 592.8387845222699 878.4197658999118 1.9999999999999998
    vertex 592.7617882746341 879.5945016298922 1.9999999999999998
  endloop
endfacet
facet normal -0.0 -0.0 1.0
  outer loop
    vertex 598.3176373833483 871.2795858372906 1.9999999999999998
    vertex 624.7617882746341 861.8445016298923 1.9999999999999998
    vertex 599.4324168687114 870.9011691932906 1.9999999999999998
  endloop
endfacet
facet normal -0.0 -0.0 1.0
  outer loop
    vertex 599.4324168687114 870.9011691932906 1.9999999999999998
    vertex 624.7617882746341 861.8445016298923 1.9999999999999998
    vertex 600.5870525446535 870.6714978775278 1.9999999999999998
  endloop
endfacet
facet normal -0.0 -0.0 1.0
  outer loop
    vertex 600.5870525446535 870.6714978775278 1.9999999999999998
    vertex 624.7617882746341 861.8445016298923 1.9999999999999998
    vertex 601.761788274634 870.5945016298921 1.9999999999999998
  endloop
endfacet
facet normal -0.0 -0.0 1.0
  outer loop
    vertex 601.761788274634 870.5945016298921 1.9999999999999998
    vertex 624.7617882746341 861.8445016298923 1.9999999999999998
    vertex 610.761788274634 870.5945016298921 1.9999999999999998
  endloop
endfacet
facet normal -0.0 -0.0 1.0
  outer loop
    vertex 610.761788274634 870.5945016298921 1.9999999999999998
    vertex 624.7617882746341 861.8445016298923 1.9999999999999998
    vertex 611.9365240046145 870.6714978775278 1.9999999999999998
  endloop
endfacet
facet normal -0.0 -0.0 1.0
  outer loop
    vertex 611.9365240046145 870.6714978775278 1.9999999999999998
    vertex 624.7617882746341 861.8445016298923 1.9999999999999998
    vertex 613.0911596805566 870.9011691932905 1.9999999999999998
  endloop
endfacet
facet normal -0.0 -0.0 1.0
  outer loop
    vertex 613.0911596805566 870.9011691932905 1.9999999999999998
    vertex 624.7617882746341 861.8445016298923 1.9999999999999998
    vertex 614.2059391659199 871.2795858372906 1.9999999999999998
  endloop
endfacet
facet normal -0.0 -0.0 1.0
  outer loop
    vertex 614.2059391659199 871.2795858372906 1.9999999999999998
    vertex 624.7617882746341 861.8445016298923 1.9999999999999998
    vertex 615.261788274634 871.8002729958322 1.9999999999999998
  endloop
endfacet
facet normal -0.0 -0.0 1.0
  outer loop
    vertex 615.261788274634 871.8002729958322 1.9999999999999998
    vertex 624.7617882746341 861.8445016298923 1.9999999999999998
    vertex 616.2406411357126 872.454321567271 1.9999999999999998
  endloop
endfacet
facet normal -0.0 -0.0 1.0
  outer loop
    vertex 616.2406411357126 872.454321567271 1.9999999999999998
    vertex 624.7617882746341 861.8445016298923 1.9999999999999998
    vertex 617.125749305313 873.2305405992132 1.9999999999999998
  endloop
endfacet
facet normal -0.0 -0.0 1.0
  outer loop
    vertex 617.125749305313 873.2305405992132 1.9999999999999998
    vertex 624.7617882746341 861.8445016298923 1.9999999999999998
    vertex 617.9019683372552 874.1156487688137 1.9999999999999998
  endloop
endfacet
facet normal -0.0 -0.0 1.0
  outer loop
    vertex 617.9019683372552 874.1156487688137 1.9999999999999998
    vertex 624.7617882746341 861.8445016298923 1.9999999999999998
    vertex 618.556016908694 875.0945016298922 1.9999999999999998
  endloop
endfacet
facet normal -0.0 -0.0 1.0
  outer loop
    vertex 618.556016908694 875.0945016298922 1.9999999999999998
    vertex 624.7617882746341 861.8445016298923 1.9999999999999998
    vertex 619.0767040672356 876.1503507386064 1.9999999999999998
  endloop
endfacet
facet normal -0.0 -0.0 1.0
  outer loop
    vertex 619.0767040672356 876.1503507386064 1.9999999999999998
    vertex 624.7617882746341 861.8445016298923 1.9999999999999998
    vertex 619.4551207112357 877.2651302239694 1.9999999999999998
  endloop
endfacet
facet normal -0.0 -0.0 1.0
  outer loop
    vertex 619.4551207112357 877.2651302239694 1.9999999999999998
    vertex 624.7617882746341 861.8445016298923 1.9999999999999998
    vertex 619.6847920269984 878.4197658999118 1.9999999999999998
  endloop
endfacet
facet normal -0.0 -0.0 1.0
  outer loop
    vertex 619.6847920269984 878.4197658999118 1.9999999999999998
    vertex 624.7617882746341 861.8445016298923 1.9999999999999998
    vertex 619.7617882746341 879.5945016298922 1.9999999999999998
  endloop
endfacet
facet normal -0.0 -0.0 1.0
  outer loop
    vertex 494.7617882746341 897.3445016298923 1.9999999999999998
    vertex 598.3176373833483 887.9094174224939 1.9999999999999998
    vertex 624.7617882746341 897.3445016298923 1.9999999999999998
  endloop
endfacet
facet normal -0.0 -0.0 1.0
  outer loop
    vertex 598.3176373833483 887.9094174224939 1.9999999999999998
    vertex 494.7617882746341 897.3445016298923 1.9999999999999998
    vertex 597.2617882746341 887.3887302639521 1.9999999999999998
  endloop
endfacet
facet normal -0.0 -0.0 1.0
  outer loop
    vertex 597.2617882746341 887.3887302639521 1.9999999999999998
    vertex 494.7617882746341 897.3445016298923 1.9999999999999998
    vertex 596.2829354135556 886.7346816925133 1.9999999999999998
  endloop
endfacet
facet normal -0.0 -0.0 1.0
  outer loop
    vertex 596.2829354135556 886.7346816925133 1.9999999999999998
    vertex 494.7617882746341 897.3445016298923 1.9999999999999998
    vertex 595.3978272439551 885.9584626605713 1.9999999999999998
  endloop
endfacet
facet normal -0.0 -0.0 1.0
  outer loop
    vertex 595.3978272439551 885.9584626605713 1.9999999999999998
    vertex 494.7617882746341 897.3445016298923 1.9999999999999998
    vertex 594.6216082120129 885.0733544909707 1.9999999999999998
  endloop
endfacet
facet normal -0.0 -0.0 1.0
  outer loop
    vertex 594.6216082120129 885.0733544909707 1.9999999999999998
    vertex 494.7617882746341 897.3445016298923 1.9999999999999998
    vertex 593.9675596405742 884.0945016298923 1.9999999999999998
  endloop
endfacet
facet normal -0.0 -0.0 1.0
  outer loop
    vertex 593.9675596405742 884.0945016298923 1.9999999999999998
    vertex 494.7617882746341 897.3445016298923 1.9999999999999998
    vertex 593.4468724820325 883.038652521178 1.9999999999999998
  endloop
endfacet
facet normal -0.0 -0.0 1.0
  outer loop
    vertex 593.4468724820325 883.038652521178 1.9999999999999998
    vertex 494.7617882746341 897.3445016298923 1.9999999999999998
    vertex 593.0684558380325 881.9238730358148 1.9999999999999998
  endloop
endfacet
facet normal -0.0 -0.0 1.0
  outer loop
    vertex 593.0684558380325 881.9238730358148 1.9999999999999998
    vertex 494.7617882746341 897.3445016298923 1.9999999999999998
    vertex 592.8387845222699 880.7692373598727 1.9999999999999998
  endloop
endfacet
facet normal -0.0 -0.0 1.0
  outer loop
    vertex 592.8387845222699 880.7692373598727 1.9999999999999998
    vertex 494.7617882746341 897.3445016298923 1.9999999999999998
    vertex 592.7617882746341 879.5945016298922 1.9999999999999998
  endloop
endfacet
facet normal -0.0 -0.0 1.0
  outer loop
    vertex 624.7617882746341 897.3445016298923 1.9999999999999998
    vertex 598.3176373833483 887.9094174224939 1.9999999999999998
    vertex 599.4324168687114 888.2878340664938 1.9999999999999998
  endloop
endfacet
facet normal -0.0 -0.0 1.0
  outer loop
    vertex 624.7617882746341 897.3445016298923 1.9999999999999998
    vertex 599.4324168687114 888.2878340664938 1.9999999999999998
    vertex 600.5870525446535 888.5175053822567 1.9999999999999998
  endloop
endfacet
facet normal -0.0 -0.0 1.0
  outer loop
    vertex 624.7617882746341 897.3445016298923 1.9999999999999998
    vertex 600.5870525446535 888.5175053822567 1.9999999999999998
    vertex 601.761788274634 888.5945016298923 1.9999999999999998
  endloop
endfacet
facet normal -0.0 -0.0 1.0
  outer loop
    vertex 624.7617882746341 897.3445016298923 1.9999999999999998
    vertex 601.761788274634 888.5945016298923 1.9999999999999998
    vertex 610.7617882746341 888.5945016298923 1.9999999999999998
  endloop
endfacet
facet normal -0.0 -0.0 1.0
  outer loop
    vertex 624.7617882746341 897.3445016298923 1.9999999999999998
    vertex 610.7617882746341 888.5945016298923 1.9999999999999998
    vertex 611.9365240046146 888.5175053822567 1.9999999999999998
  endloop
endfacet
facet normal -0.0 -0.0 1.0
  outer loop
    vertex 624.7617882746341 897.3445016298923 1.9999999999999998
    vertex 611.9365240046146 888.5175053822567 1.9999999999999998
    vertex 613.0911596805568 888.2878340664938 1.9999999999999998
  endloop
endfacet
facet normal -0.0 -0.0 1.0
  outer loop
    vertex 624.7617882746341 897.3445016298923 1.9999999999999998
    vertex 613.0911596805568 888.2878340664938 1.9999999999999998
    vertex 614.2059391659199 887.9094174224939 1.9999999999999998
  endloop
endfacet
facet normal -0.0 -0.0 1.0
  outer loop
    vertex 624.7617882746341 897.3445016298923 1.9999999999999998
    vertex 614.2059391659199 887.9094174224939 1.9999999999999998
    vertex 615.2617882746341 887.3887302639523 1.9999999999999998
  endloop
endfacet
facet normal -0.0 -0.0 1.0
  outer loop
    vertex 624.7617882746341 897.3445016298923 1.9999999999999998
    vertex 615.2617882746341 887.3887302639523 1.9999999999999998
    vertex 616.2406411357126 886.7346816925133 1.9999999999999998
  endloop
endfacet
facet normal -0.0 -0.0 1.0
  outer loop
    vertex 624.7617882746341 897.3445016298923 1.9999999999999998
    vertex 616.2406411357126 886.7346816925133 1.9999999999999998
    vertex 617.1257493053131 885.9584626605713 1.9999999999999998
  endloop
endfacet
facet normal -0.0 -0.0 1.0
  outer loop
    vertex 624.7617882746341 897.3445016298923 1.9999999999999998
    vertex 617.1257493053131 885.9584626605713 1.9999999999999998
    vertex 617.9019683372552 885.0733544909708 1.9999999999999998
  endloop
endfacet
facet normal -0.0 -0.0 1.0
  outer loop
    vertex 624.7617882746341 897.3445016298923 1.9999999999999998
    vertex 617.9019683372552 885.0733544909708 1.9999999999999998
    vertex 618.556016908694 884.0945016298923 1.9999999999999998
  endloop
endfacet
facet normal -0.0 -0.0 1.0
  outer loop
    vertex 624.7617882746341 897.3445016298923 1.9999999999999998
    vertex 618.556016908694 884.0945016298923 1.9999999999999998
    vertex 619.0767040672356 883.038652521178 1.9999999999999998
  endloop
endfacet
facet normal -0.0 -0.0 1.0
  outer loop
    vertex 624.7617882746341 897.3445016298923 1.9999999999999998
    vertex 619.0767040672356 883.038652521178 1.9999999999999998
    vertex 619.4551207112357 881.9238730358148 1.9999999999999998
  endloop
endfacet
facet normal -0.0 -0.0 1.0
  outer loop
    vertex 624.7617882746341 897.3445016298923 1.9999999999999998
    vertex 619.4551207112357 881.9238730358148 1.9999999999999998
    vertex 619.6847920269984 880.7692373598727 1.9999999999999998
  endloop
endfacet
facet normal -0.0 -0.0 1.0
  outer loop
    vertex 624.7617882746341 897.3445016298923 1.9999999999999998
    vertex 619.6847920269984 880.7692373598727 1.9999999999999998
    vertex 619.7617882746341 879.5945016298922 1.9999999999999998
  endloop
endfacet
facet normal -0.0 -0.0 1.0
  outer loop
    vertex 624.7617882746341 897.3445016298923 1.9999999999999998
    vertex 619.7617882746341 879.5945016298922 1.9999999999999998
    vertex 624.7617882746341 861.8445016298923 1.9999999999999998
  endloop
endfacet
facet normal 0.32143946530310574 0.9469301294951248 0.0
  outer loop
    vertex 598.3176373833483 871.2795858372906 1.9999999999999998
    vertex 599.4324168687114 870.9011691932906 -2.8199664825478975e-15
    vertex 598.3176373833483 871.2795858372906 -2.8199664825478975e-15
  endloop
endfacet
facet normal 0.32143946530310574 0.9469301294951248 0.0
  outer loop
    vertex 599.4324168687114 870.9011691932906 -2.8199664825478975e-15
    vertex 598.3176373833483 871.2795858372906 1.9999999999999998
    vertex 599.4324168687114 870.9011691932906 1.9999999999999998
  endloop
endfacet
facet normal 0.6593458150999999 0.7518398074790379 0.0
  outer loop
    vertex 595.3978272439551 873.2305405992132 1.9999999999999998
    vertex 596.2829354135556 872.4543215672712 -2.8199664825478975e-15
    vertex 595.3978272439551 873.2305405992132 -2.8199664825478975e-15
  endloop
endfacet
facet normal 0.6593458150999999 0.7518398074790379 0.0
  outer loop
    vertex 596.2829354135556 872.4543215672712 -2.8199664825478975e-15
    vertex 595.3978272439551 873.2305405992132 1.9999999999999998
    vertex 596.2829354135556 872.4543215672712 1.9999999999999998
  endloop
endfacet
facet normal 0.06540312923015672 0.9978589232386028 0.0
  outer loop
    vertex 600.5870525446535 870.6714978775278 1.9999999999999998
    vertex 601.761788274634 870.5945016298921 -2.8199664825478975e-15
    vertex 600.5870525446535 870.6714978775278 -2.8199664825478975e-15
  endloop
endfacet
facet normal 0.06540312923015672 0.9978589232386028 0.0
  outer loop
    vertex 601.761788274634 870.5945016298921 -2.8199664825478975e-15
    vertex 600.5870525446535 870.6714978775278 1.9999999999999998
    vertex 601.761788274634 870.5945016298921 1.9999999999999998
  endloop
endfacet
facet normal 0.1950903220162117 0.9807852804032139 0.0
  outer loop
    vertex 599.4324168687114 870.9011691932906 1.9999999999999998
    vertex 600.5870525446535 870.6714978775278 -2.8199664825478975e-15
    vertex 599.4324168687114 870.9011691932906 -2.8199664825478975e-15
  endloop
endfacet
facet normal 0.1950903220162117 0.9807852804032139 0.0
  outer loop
    vertex 600.5870525446535 870.6714978775278 -2.8199664825478975e-15
    vertex 599.4324168687114 870.9011691932906 1.9999999999999998
    vertex 600.5870525446535 870.6714978775278 1.9999999999999998
  endloop
endfacet
facet normal 0.4422886902191302 0.8968727415326248 0.0
  outer loop
    vertex 597.2617882746341 871.8002729958324 1.9999999999999998
    vertex 598.3176373833483 871.2795858372906 -2.8199664825478975e-15
    vertex 597.2617882746341 871.8002729958324 -2.8199664825478975e-15
  endloop
endfacet
facet normal 0.4422886902191302 0.8968727415326248 0.0
  outer loop
    vertex 598.3176373833483 871.2795858372906 -2.8199664825478975e-15
    vertex 597.2617882746341 871.8002729958324 1.9999999999999998
    vertex 598.3176373833483 871.2795858372906 1.9999999999999998
  endloop
endfacet
facet normal 0.5555702330195913 0.8314696123025528 0.0
  outer loop
    vertex 596.2829354135556 872.4543215672712 1.9999999999999998
    vertex 597.2617882746341 871.8002729958324 -2.8199664825478975e-15
    vertex 596.2829354135556 872.4543215672712 -2.8199664825478975e-15
  endloop
endfacet
facet normal 0.5555702330195913 0.8314696123025528 0.0
  outer loop
    vertex 597.2617882746341 871.8002729958324 -2.8199664825478975e-15
    vertex 596.2829354135556 872.4543215672712 1.9999999999999998
    vertex 597.2617882746341 871.8002729958324 1.9999999999999998
  endloop
endfacet
facet normal -0.06540312923015672 0.9978589232386028 -0.0
  outer loop
    vertex 610.761788274634 870.5945016298921 1.9999999999999998
    vertex 611.9365240046145 870.6714978775278 -2.8199664825478975e-15
    vertex 610.761788274634 870.5945016298921 -2.8199664825478975e-15
  endloop
endfacet
facet normal -0.06540312923015672 0.9978589232386028 -0.0
  outer loop
    vertex 611.9365240046145 870.6714978775278 -2.8199664825478975e-15
    vertex 610.761788274634 870.5945016298921 1.9999999999999998
    vertex 611.9365240046145 870.6714978775278 1.9999999999999998
  endloop
endfacet
facet normal -0.0 1.0 -0.0
  outer loop
    vertex 601.761788274634 870.5945016298921 1.9999999999999998
    vertex 610.761788274634 870.5945016298921 -2.8199664825478975e-15
    vertex 601.761788274634 870.5945016298921 -2.8199664825478975e-15
  endloop
endfacet
facet normal -0.0 1.0 -0.0
  outer loop
    vertex 610.761788274634 870.5945016298921 -2.8199664825478975e-15
    vertex 601.761788274634 870.5945016298921 1.9999999999999998
    vertex 610.761788274634 870.5945016298921 1.9999999999999998
  endloop
endfacet
facet normal -0.19509032201606424 0.9807852804032433 -0.0
  outer loop
    vertex 611.9365240046145 870.6714978775278 1.9999999999999998
    vertex 613.0911596805566 870.9011691932905 -2.8199664825478975e-15
    vertex 611.9365240046145 870.6714978775278 -2.8199664825478975e-15
  endloop
endfacet
facet normal -0.19509032201606424 0.9807852804032433 -0.0
  outer loop
    vertex 613.0911596805566 870.9011691932905 -2.8199664825478975e-15
    vertex 611.9365240046145 870.6714978775278 1.9999999999999998
    vertex 613.0911596805566 870.9011691932905 1.9999999999999998
  endloop
endfacet
facet normal -0.9807852804032285 -0.19509032201613796 -0.0
  outer loop
    vertex 619.4551207112357 881.9238730358148 1.9999999999999998
    vertex 619.6847920269984 880.7692373598727 -2.8199664825478975e-15
    vertex 619.6847920269984 880.7692373598727 1.9999999999999998
  endloop
endfacet
facet normal -0.9807852804032285 -0.19509032201613796 -0.0
  outer loop
    vertex 619.6847920269984 880.7692373598727 -2.8199664825478975e-15
    vertex 619.4551207112357 881.9238730358148 1.9999999999999998
    vertex 619.4551207112357 881.9238730358148 -2.8199664825478975e-15
  endloop
endfacet
facet normal -0.9469301294951092 -0.3214394653031511 -0.0
  outer loop
    vertex 619.0767040672356 883.038652521178 1.9999999999999998
    vertex 619.4551207112357 881.9238730358148 -2.8199664825478975e-15
    vertex 619.4551207112357 881.9238730358148 1.9999999999999998
  endloop
endfacet
facet normal -0.9469301294951092 -0.3214394653031511 -0.0
  outer loop
    vertex 619.4551207112357 881.9238730358148 -2.8199664825478975e-15
    vertex 619.0767040672356 883.038652521178 1.9999999999999998
    vertex 619.0767040672356 883.038652521178 -2.8199664825478975e-15
  endloop
endfacet
facet normal -0.9978589232386024 0.06540312923016171 -0.0
  outer loop
    vertex 619.7617882746341 879.5945016298922 1.9999999999999998
    vertex 619.6847920269984 878.4197658999118 -2.8199664825478975e-15
    vertex 619.6847920269984 878.4197658999118 1.9999999999999998
  endloop
endfacet
facet normal -0.9978589232386024 0.06540312923016171 -0.0
  outer loop
    vertex 619.6847920269984 878.4197658999118 -2.8199664825478975e-15
    vertex 619.7617882746341 879.5945016298922 1.9999999999999998
    vertex 619.7617882746341 879.5945016298922 -2.8199664825478975e-15
  endloop
endfacet
facet normal -0.9978589232386024 -0.06540312923016171 -0.0
  outer loop
    vertex 619.6847920269984 880.7692373598727 1.9999999999999998
    vertex 619.7617882746341 879.5945016298922 -2.8199664825478975e-15
    vertex 619.7617882746341 879.5945016298922 1.9999999999999998
  endloop
endfacet
facet normal -0.9978589232386024 -0.06540312923016171 -0.0
  outer loop
    vertex 619.7617882746341 879.5945016298922 -2.8199664825478975e-15
    vertex 619.6847920269984 880.7692373598727 1.9999999999999998
    vertex 619.6847920269984 880.7692373598727 -2.8199664825478975e-15
  endloop
endfacet
facet normal -0.9469301294950935 0.3214394653031978 -0.0
  outer loop
    vertex 619.4551207112357 877.2651302239694 1.9999999999999998
    vertex 619.0767040672356 876.1503507386064 -2.8199664825478975e-15
    vertex 619.0767040672356 876.1503507386064 1.9999999999999998
  endloop
endfacet
facet normal -0.9469301294950935 0.3214394653031978 -0.0
  outer loop
    vertex 619.0767040672356 876.1503507386064 -2.8199664825478975e-15
    vertex 619.4551207112357 877.2651302239694 1.9999999999999998
    vertex 619.4551207112357 877.2651302239694 -2.8199664825478975e-15
  endloop
endfacet
facet normal -0.9807852804032344 0.19509032201610865 -0.0
  outer loop
    vertex 619.6847920269984 878.4197658999118 1.9999999999999998
    vertex 619.4551207112357 877.2651302239694 -2.8199664825478975e-15
    vertex 619.4551207112357 877.2651302239694 1.9999999999999998
  endloop
endfacet
facet normal -0.9807852804032344 0.19509032201610865 -0.0
  outer loop
    vertex 619.4551207112357 877.2651302239694 -2.8199664825478975e-15
    vertex 619.6847920269984 878.4197658999118 1.9999999999999998
    vertex 619.6847920269984 878.4197658999118 -2.8199664825478975e-15
  endloop
endfacet
facet normal -0.8314696123025763 0.5555702330195559 -0.0
  outer loop
    vertex 618.556016908694 875.0945016298922 1.9999999999999998
    vertex 617.9019683372552 874.1156487688137 -2.8199664825478975e-15
    vertex 617.9019683372552 874.1156487688137 1.9999999999999998
  endloop
endfacet
facet normal -0.8314696123025763 0.5555702330195559 -0.0
  outer loop
    vertex 617.9019683372552 874.1156487688137 -2.8199664825478975e-15
    vertex 618.556016908694 875.0945016298922 1.9999999999999998
    vertex 618.556016908694 875.0945016298922 -2.8199664825478975e-15
  endloop
endfacet
facet normal -0.8968727415327007 0.4422886902189766 -0.0
  outer loop
    vertex 619.0767040672356 876.1503507386064 1.9999999999999998
    vertex 618.556016908694 875.0945016298922 -2.8199664825478975e-15
    vertex 618.556016908694 875.0945016298922 1.9999999999999998
  endloop
endfacet
facet normal -0.8968727415327007 0.4422886902189766 -0.0
  outer loop
    vertex 618.556016908694 875.0945016298922 -2.8199664825478975e-15
    vertex 619.0767040672356 876.1503507386064 1.9999999999999998
    vertex 619.0767040672356 876.1503507386064 -2.8199664825478975e-15
  endloop
endfacet
facet normal -0.6593458151001246 0.7518398074789285 -0.0
  outer loop
    vertex 616.2406411357126 872.454321567271 1.9999999999999998
    vertex 617.125749305313 873.2305405992132 -2.8199664825478975e-15
    vertex 616.2406411357126 872.454321567271 -2.8199664825478975e-15
  endloop
endfacet
facet normal -0.6593458151001246 0.7518398074789285 -0.0
  outer loop
    vertex 617.125749305313 873.2305405992132 -2.8199664825478975e-15
    vertex 616.2406411357126 872.454321567271 1.9999999999999998
    vertex 617.125749305313 873.2305405992132 1.9999999999999998
  endloop
endfacet
facet normal -0.7518398074789285 0.6593458151001246 -0.0
  outer loop
    vertex 617.9019683372552 874.1156487688137 1.9999999999999998
    vertex 617.125749305313 873.2305405992132 -2.8199664825478975e-15
    vertex 617.125749305313 873.2305405992132 1.9999999999999998
  endloop
endfacet
facet normal -0.7518398074789285 0.6593458151001246 -0.0
  outer loop
    vertex 617.125749305313 873.2305405992132 -2.8199664825478975e-15
    vertex 617.9019683372552 874.1156487688137 1.9999999999999998
    vertex 617.9019683372552 874.1156487688137 -2.8199664825478975e-15
  endloop
endfacet
facet normal -0.4422886902190069 0.8968727415326856 -0.0
  outer loop
    vertex 614.2059391659199 871.2795858372906 1.9999999999999998
    vertex 615.261788274634 871.8002729958322 -2.8199664825478975e-15
    vertex 614.2059391659199 871.2795858372906 -2.8199664825478975e-15
  endloop
endfacet
facet normal -0.4422886902190069 0.8968727415326856 -0.0
  outer loop
    vertex 615.261788274634 871.8002729958322 -2.8199664825478975e-15
    vertex 614.2059391659199 871.2795858372906 1.9999999999999998
    vertex 615.261788274634 871.8002729958322 1.9999999999999998
  endloop
endfacet
facet normal -0.5555702330195559 0.8314696123025763 -0.0
  outer loop
    vertex 615.261788274634 871.8002729958322 1.9999999999999998
    vertex 616.2406411357126 872.454321567271 -2.8199664825478975e-15
    vertex 615.261788274634 871.8002729958322 -2.8199664825478975e-15
  endloop
endfacet
facet normal -0.5555702330195559 0.8314696123025763 -0.0
  outer loop
    vertex 616.2406411357126 872.454321567271 -2.8199664825478975e-15
    vertex 615.261788274634 871.8002729958322 1.9999999999999998
    vertex 616.2406411357126 872.454321567271 1.9999999999999998
  endloop
endfacet
facet normal -0.7518398074789667 -0.6593458151000813 -0.0
  outer loop
    vertex 617.1257493053131 885.9584626605713 1.9999999999999998
    vertex 617.9019683372552 885.0733544909708 -2.8199664825478975e-15
    vertex 617.9019683372552 885.0733544909708 1.9999999999999998
  endloop
endfacet
facet normal -0.7518398074789667 -0.6593458151000813 -0.0
  outer loop
    vertex 617.9019683372552 885.0733544909708 -2.8199664825478975e-15
    vertex 617.1257493053131 885.9584626605713 1.9999999999999998
    vertex 617.1257493053131 885.9584626605713 -2.8199664825478975e-15
  endloop
endfacet
facet normal -0.8314696123025763 -0.5555702330195559 -0.0
  outer loop
    vertex 617.9019683372552 885.0733544909708 1.9999999999999998
    vertex 618.556016908694 884.0945016298923 -2.8199664825478975e-15
    vertex 618.556016908694 884.0945016298923 1.9999999999999998
  endloop
endfacet
facet normal -0.8314696123025763 -0.5555702330195559 -0.0
  outer loop
    vertex 618.556016908694 884.0945016298923 -2.8199664825478975e-15
    vertex 617.9019683372552 885.0733544909708 1.9999999999999998
    vertex 617.9019683372552 885.0733544909708 -2.8199664825478975e-15
  endloop
endfacet
facet normal -0.8968727415327007 -0.4422886902189766 -0.0
  outer loop
    vertex 618.556016908694 884.0945016298923 1.9999999999999998
    vertex 619.0767040672356 883.038652521178 -2.8199664825478975e-15
    vertex 619.0767040672356 883.038652521178 1.9999999999999998
  endloop
endfacet
facet normal -0.8968727415327007 -0.4422886902189766 -0.0
  outer loop
    vertex 619.0767040672356 883.038652521178 -2.8199664825478975e-15
    vertex 618.556016908694 884.0945016298923 1.9999999999999998
    vertex 618.556016908694 884.0945016298923 -2.8199664825478975e-15
  endloop
endfacet
facet normal -0.3214394653032199 0.9469301294950859 -0.0
  outer loop
    vertex 613.0911596805566 870.9011691932905 1.9999999999999998
    vertex 614.2059391659199 871.2795858372906 -2.8199664825478975e-15
    vertex 613.0911596805566 870.9011691932905 -2.8199664825478975e-15
  endloop
endfacet
facet normal -0.3214394653032199 0.9469301294950859 -0.0
  outer loop
    vertex 614.2059391659199 871.2795858372906 -2.8199664825478975e-15
    vertex 613.0911596805566 870.9011691932905 1.9999999999999998
    vertex 614.2059391659199 871.2795858372906 1.9999999999999998
  endloop
endfacet
facet normal -0.0 -0.0 1.0
  outer loop
    vertex 469.7617882746341 859.3445016298923 0.9999999999999999
    vertex 494.7617882746341 861.8445016298923 0.9999999999999999
    vertex 469.7617882746341 899.8445016298923 0.9999999999999999
  endloop
endfacet
facet normal -0.0 -0.0 1.0
  outer loop
    vertex 494.7617882746341 861.8445016298923 0.9999999999999999
    vertex 469.7617882746341 859.3445016298923 0.9999999999999999
    vertex 649.7617882746341 859.3445016298923 0.9999999999999999
  endloop
endfacet
facet normal -0.0 -0.0 1.0
  outer loop
    vertex 494.7617882746341 861.8445016298923 0.9999999999999999
    vertex 649.7617882746341 859.3445016298923 0.9999999999999999
    vertex 624.7617882746341 861.8445016298923 0.9999999999999999
  endloop
endfacet
facet normal -0.0 -0.0 1.0
  outer loop
    vertex 624.7617882746341 861.8445016298923 0.9999999999999999
    vertex 649.7617882746341 859.3445016298923 0.9999999999999999
    vertex 624.7617882746341 897.3445016298923 0.9999999999999999
  endloop
endfacet
facet normal -0.0 -0.0 1.0
  outer loop
    vertex 469.7617882746341 899.8445016298923 0.9999999999999999
    vertex 494.7617882746341 897.3445016298923 0.9999999999999999
    vertex 649.7617882746341 899.8445016298923 0.9999999999999999
  endloop
endfacet
facet normal -0.0 -0.0 1.0
  outer loop
    vertex 494.7617882746341 897.3445016298923 0.9999999999999999
    vertex 469.7617882746341 899.8445016298923 0.9999999999999999
    vertex 494.7617882746341 861.8445016298923 0.9999999999999999
  endloop
endfacet
facet normal -0.0 -0.0 1.0
  outer loop
    vertex 649.7617882746341 899.8445016298923 0.9999999999999999
    vertex 494.7617882746341 897.3445016298923 0.9999999999999999
    vertex 624.7617882746341 897.3445016298923 0.9999999999999999
  endloop
endfacet
facet normal -0.0 -0.0 1.0
  outer loop
    vertex 649.7617882746341 899.8445016298923 0.9999999999999999
    vertex 624.7617882746341 897.3445016298923 0.9999999999999999
    vertex 649.7617882746341 859.3445016298923 0.9999999999999999
  endloop
endfacet
facet normal 1.0 0.0 0.0
  outer loop
    vertex 649.7617882746341 899.8445016298923 0.0
    vertex 649.7617882746341 859.3445016298923 0.9999999999999999
    vertex 649.7617882746341 859.3445016298923 0.0
  endloop
endfacet
facet normal 1.0 0.0 0.0
  outer loop
    vertex 649.7617882746341 859.3445016298923 0.9999999999999999
    vertex 649.7617882746341 899.8445016298923 0.0
    vertex 649.7617882746341 899.8445016298923 0.9999999999999999
  endloop
endfacet
endsolid Canopy_V1_1
