solid OpenSCAD_Model
  facet normal -1 0 0
    outer loop
      vertex -6 -10 -2
      vertex -6 -10 2
      vertex -6 10 -2
    endloop
  endfacet
  facet normal -1 0 0
    outer loop
      vertex -6 10 -2
      vertex -6 -10 2
      vertex -6 10 2
    endloop
  endfacet
  facet normal -0.965926 -0.258819 0
    outer loop
      vertex -6 -10 -2
      vertex -5.73205 -11 -2
      vertex -6 -10 2
    endloop
  endfacet
  facet normal -0.965926 -0.258819 0
    outer loop
      vertex -6 -10 2
      vertex -5.73205 -11 -2
      vertex -5.73205 -11 2
    endloop
  endfacet
  facet normal 0 0 -1
    outer loop
      vertex -6 -10 -2
      vertex -6 10 -2
      vertex -5.73205 -11 -2
    endloop
  endfacet
  facet normal 0 0 -1
    outer loop
      vertex -5.73205 -11 -2
      vertex -6 10 -2
      vertex -5.73205 11 -2
    endloop
  endfacet
  facet normal 0 0 -1
    outer loop
      vertex -5.73205 -11 -2
      vertex -5.73205 11 -2
      vertex -5 11.7321 -2
    endloop
  endfacet
  facet normal 0 0 -1
    outer loop
      vertex -5.73205 -11 -2
      vertex -5 11.7321 -2
      vertex -4 12 -2
    endloop
  endfacet
  facet normal 0 0 -1
    outer loop
      vertex 0 9.5 -2
      vertex -4 12 -2
      vertex 4 12 -2
    endloop
  endfacet
  facet normal 0 0 -1
    outer loop
      vertex -5.73205 -11 -2
      vertex 4 12 -2
      vertex 5 11.7321 -2
    endloop
  endfacet
  facet normal 0 0 -1
    outer loop
      vertex -5.73205 -11 -2
      vertex 5 11.7321 -2
      vertex 5.73205 11 -2
    endloop
  endfacet
  facet normal 0 0 -1
    outer loop
      vertex -5.73205 -11 -2
      vertex 5.73205 11 -2
      vertex 6 10 -2
    endloop
  endfacet
  facet normal 0 0 -1
    outer loop
      vertex 2.35 0.606218 -2
      vertex 6 10 -2
      vertex 6 1.93507 -2
    endloop
  endfacet
  facet normal 0 0 -1
    outer loop
      vertex -5.73205 -11 -2
      vertex 6 1.93507 -2
      vertex 6.22862 1.53909 -2
    endloop
  endfacet
  facet normal 0 0 -1
    outer loop
      vertex -5.73205 -11 -2
      vertex 6.22862 1.53909 -2
      vertex 6.5 0 -2
    endloop
  endfacet
  facet normal 0 0 -1
    outer loop
      vertex -0.75 -6.70096 -2
      vertex 6.5 0 -2
      vertex 6.22862 -1.53909 -2
    endloop
  endfacet
  facet normal 0 0 -1
    outer loop
      vertex 0 -6.5 -2
      vertex 6.22862 -1.53909 -2
      vertex 6 -1.93507 -2
    endloop
  endfacet
  facet normal 0 0 -1
    outer loop
      vertex 1.5 -8 -2
      vertex 6 -1.93507 -2
      vertex 6 -10 -2
    endloop
  endfacet
  facet normal 0 0 -1
    outer loop
      vertex -5.73205 -11 -2
      vertex 6 -10 -2
      vertex 5.73205 -11 -2
    endloop
  endfacet
  facet normal 0 0 -1
    outer loop
      vertex -5.73205 -11 -2
      vertex 5.73205 -11 -2
      vertex 5 -11.7321 -2
    endloop
  endfacet
  facet normal 0 0 -1
    outer loop
      vertex -5.73205 -11 -2
      vertex 5 -11.7321 -2
      vertex 4 -12 -2
    endloop
  endfacet
  facet normal 0 0 -1
    outer loop
      vertex -5.73205 -11 -2
      vertex 4 -12 -2
      vertex -4 -12 -2
    endloop
  endfacet
  facet normal 0 0 -1
    outer loop
      vertex -5.73205 -11 -2
      vertex -4 -12 -2
      vertex -5 -11.7321 -2
    endloop
  endfacet
  facet normal 0 0 -1
    outer loop
      vertex 0.75 -9.29904 -2
      vertex 6 -10 -2
      vertex 0 -9.5 -2
    endloop
  endfacet
  facet normal 0 0 -1
    outer loop
      vertex -5.73205 -11 -2
      vertex -1.5 -8 -2
      vertex -1.29904 -8.75 -2
    endloop
  endfacet
  facet normal 0 0 -1
    outer loop
      vertex -5.73205 -11 -2
      vertex -1.29904 -8.75 -2
      vertex -0.75 -9.29904 -2
    endloop
  endfacet
  facet normal 0 0 -1
    outer loop
      vertex -5.73205 -11 -2
      vertex -0.75 -9.29904 -2
      vertex 0 -9.5 -2
    endloop
  endfacet
  facet normal 0 0 -1
    outer loop
      vertex -5.73205 -11 -2
      vertex 0 -9.5 -2
      vertex 6 -10 -2
    endloop
  endfacet
  facet normal 0 0 -1
    outer loop
      vertex 1.29904 -8.75 -2
      vertex 6 -10 -2
      vertex 0.75 -9.29904 -2
    endloop
  endfacet
  facet normal 0 0 -1
    outer loop
      vertex 1.5 -8 -2
      vertex 6 -10 -2
      vertex 1.29904 -8.75 -2
    endloop
  endfacet
  facet normal 0 0 -1
    outer loop
      vertex 1.29904 -7.25 -2
      vertex 6 -1.93507 -2
      vertex 1.5 -8 -2
    endloop
  endfacet
  facet normal 0 0 -1
    outer loop
      vertex 0 -6.5 -2
      vertex 6 -1.93507 -2
      vertex 0.75 -6.70096 -2
    endloop
  endfacet
  facet normal 0 0 -1
    outer loop
      vertex 0.75 -6.70096 -2
      vertex 6 -1.93507 -2
      vertex 1.29904 -7.25 -2
    endloop
  endfacet
  facet normal 0 0 -1
    outer loop
      vertex -5.73205 -11 -2
      vertex 6.5 0 -2
      vertex -0.75 -6.70096 -2
    endloop
  endfacet
  facet normal 0 0 -1
    outer loop
      vertex 1.5 8 -2
      vertex 4 12 -2
      vertex 1.29904 7.25 -2
    endloop
  endfacet
  facet normal 0 0 -1
    outer loop
      vertex -5.73205 -11 -2
      vertex -0.75 -6.70096 -2
      vertex -1.29904 -7.25 -2
    endloop
  endfacet
  facet normal 0 0 -1
    outer loop
      vertex -5.73205 -11 -2
      vertex -4 12 -2
      vertex -1.5 8 -2
    endloop
  endfacet
  facet normal 0 0 -1
    outer loop
      vertex -5.73205 -11 -2
      vertex -1.5 8 -2
      vertex -1.29904 7.25 -2
    endloop
  endfacet
  facet normal 0 0 -1
    outer loop
      vertex -5.73205 -11 -2
      vertex -1.29904 7.25 -2
      vertex -0.75 6.70096 -2
    endloop
  endfacet
  facet normal 0 0 -1
    outer loop
      vertex -5.73205 -11 -2
      vertex -0.75 6.70096 -2
      vertex 0 6.5 -2
    endloop
  endfacet
  facet normal 0 0 -1
    outer loop
      vertex -5.73205 -11 -2
      vertex 0 6.5 -2
      vertex 0.75 6.70096 -2
    endloop
  endfacet
  facet normal 0 0 -1
    outer loop
      vertex -5.73205 -11 -2
      vertex 0.75 6.70096 -2
      vertex 1.29904 7.25 -2
    endloop
  endfacet
  facet normal 0 0 -1
    outer loop
      vertex -5.73205 -11 -2
      vertex 1.29904 7.25 -2
      vertex 4 12 -2
    endloop
  endfacet
  facet normal 0 0 -1
    outer loop
      vertex 1.29904 8.75 -2
      vertex 4 12 -2
      vertex 1.5 8 -2
    endloop
  endfacet
  facet normal 0 0 -1
    outer loop
      vertex 0.75 9.29904 -2
      vertex 4 12 -2
      vertex 1.29904 8.75 -2
    endloop
  endfacet
  facet normal 0 0 -1
    outer loop
      vertex 0 9.5 -2
      vertex 4 12 -2
      vertex 0.75 9.29904 -2
    endloop
  endfacet
  facet normal 0 0 -1
    outer loop
      vertex -0.75 9.29904 -2
      vertex -4 12 -2
      vertex 0 9.5 -2
    endloop
  endfacet
  facet normal 0 0 -1
    outer loop
      vertex 2.7 0 -2
      vertex 6 1.93507 -2
      vertex 2.60622 -0.35 -2
    endloop
  endfacet
  facet normal 0 0 -1
    outer loop
      vertex -1.29904 8.75 -2
      vertex -4 12 -2
      vertex -0.75 9.29904 -2
    endloop
  endfacet
  facet normal 0 0 -1
    outer loop
      vertex -1.5 8 -2
      vertex -4 12 -2
      vertex -1.29904 8.75 -2
    endloop
  endfacet
  facet normal 0 0 -1
    outer loop
      vertex -5.73205 -11 -2
      vertex 1.3 0 -2
      vertex 1.39378 -0.35 -2
    endloop
  endfacet
  facet normal 0 0 -1
    outer loop
      vertex -5.73205 -11 -2
      vertex 1.39378 -0.35 -2
      vertex 1.65 -0.606218 -2
    endloop
  endfacet
  facet normal 0 0 -1
    outer loop
      vertex -5.73205 -11 -2
      vertex 1.65 -0.606218 -2
      vertex 2 -0.7 -2
    endloop
  endfacet
  facet normal 0 0 -1
    outer loop
      vertex -5.73205 -11 -2
      vertex 2 -0.7 -2
      vertex 2.35 -0.606218 -2
    endloop
  endfacet
  facet normal 0 0 -1
    outer loop
      vertex -5.73205 -11 -2
      vertex 2.35 -0.606218 -2
      vertex 6 1.93507 -2
    endloop
  endfacet
  facet normal 0 0 -1
    outer loop
      vertex 2.35 -0.606218 -2
      vertex 2.60622 -0.35 -2
      vertex 6 1.93507 -2
    endloop
  endfacet
  facet normal 0 0 -1
    outer loop
      vertex 2.60622 0.35 -2
      vertex 6 1.93507 -2
      vertex 2.7 0 -2
    endloop
  endfacet
  facet normal 0 0 -1
    outer loop
      vertex 2.35 0.606218 -2
      vertex 6 1.93507 -2
      vertex 2.60622 0.35 -2
    endloop
  endfacet
  facet normal 0 0 -1
    outer loop
      vertex 2 0.7 -2
      vertex 6 10 -2
      vertex 2.35 0.606218 -2
    endloop
  endfacet
  facet normal 0 0 -1
    outer loop
      vertex 1.39378 0.35 -2
      vertex 6 10 -2
      vertex 1.65 0.606218 -2
    endloop
  endfacet
  facet normal 0 0 -1
    outer loop
      vertex 1.65 0.606218 -2
      vertex 6 10 -2
      vertex 2 0.7 -2
    endloop
  endfacet
  facet normal 0 0 -1
    outer loop
      vertex -5.73205 -11 -2
      vertex 6 10 -2
      vertex 1.39378 0.35 -2
    endloop
  endfacet
  facet normal 0 0 -1
    outer loop
      vertex -5.73205 -11 -2
      vertex 1.39378 0.35 -2
      vertex 1.3 0 -2
    endloop
  endfacet
  facet normal 0 0 -1
    outer loop
      vertex -1.5 -8 -2
      vertex -5.73205 -11 -2
      vertex -1.29904 -7.25 -2
    endloop
  endfacet
  facet normal 0 0 -1
    outer loop
      vertex -0.75 -6.70096 -2
      vertex 6.22862 -1.53909 -2
      vertex 0 -6.5 -2
    endloop
  endfacet
  facet normal -0.965926 0.258819 0
    outer loop
      vertex -6 10 -2
      vertex -6 10 2
      vertex -5.73205 11 -2
    endloop
  endfacet
  facet normal -0.965926 0.258819 0
    outer loop
      vertex -5.73205 11 -2
      vertex -6 10 2
      vertex -5.73205 11 2
    endloop
  endfacet
  facet normal 0 0 1
    outer loop
      vertex -6 10 2
      vertex -6 -10 2
      vertex -5.73205 -11 2
    endloop
  endfacet
  facet normal 0 0 1
    outer loop
      vertex -4 -12 2
      vertex -6 10 2
      vertex -5 -11.7321 2
    endloop
  endfacet
  facet normal 0 0 1
    outer loop
      vertex -5 -11.7321 2
      vertex -6 10 2
      vertex -5.73205 -11 2
    endloop
  endfacet
  facet normal 0 0 1
    outer loop
      vertex -2.22862 -1.53909 2
      vertex -6 10 2
      vertex -4 -12 2
    endloop
  endfacet
  facet normal 0 0 1
    outer loop
      vertex -2.5 0 2
      vertex -2.22862 1.53909 2
      vertex -6 10 2
    endloop
  endfacet
  facet normal 0 0 1
    outer loop
      vertex 1.21858 -4.43164 2
      vertex -0.25 -3.89711 2
      vertex 4 -12 2
    endloop
  endfacet
  facet normal 0 0 1
    outer loop
      vertex 6 -1.93507 2
      vertex 5.4472 -2.89254 2
      vertex 6 -10 2
    endloop
  endfacet
  facet normal 0 0 1
    outer loop
      vertex 5.4472 -2.89254 2
      vertex 4.25 -3.89711 2
      vertex 6 -10 2
    endloop
  endfacet
  facet normal 0 0 1
    outer loop
      vertex -0.25 3.89711 2
      vertex 1.21858 4.43164 2
      vertex -6 10 2
    endloop
  endfacet
  facet normal 0 0 1
    outer loop
      vertex 4.25 -3.89711 2
      vertex 2.78142 -4.43164 2
      vertex 6 -10 2
    endloop
  endfacet
  facet normal 0 0 1
    outer loop
      vertex 5 -11.7321 2
      vertex 1.21858 -4.43164 2
      vertex 4 -12 2
    endloop
  endfacet
  facet normal 0 0 1
    outer loop
      vertex -1.4472 2.89254 2
      vertex -0.25 3.89711 2
      vertex -6 10 2
    endloop
  endfacet
  facet normal 0 0 1
    outer loop
      vertex -1.29904 -7.25 2
      vertex -0.25 -3.89711 2
      vertex -4 -12 2
    endloop
  endfacet
  facet normal 0 0 1
    outer loop
      vertex -0.25 -3.89711 2
      vertex -1.4472 -2.89254 2
      vertex -4 -12 2
    endloop
  endfacet
  facet normal 0 0 1
    outer loop
      vertex -1.4472 -2.89254 2
      vertex -2.22862 -1.53909 2
      vertex -4 -12 2
    endloop
  endfacet
  facet normal 0 0 1
    outer loop
      vertex -2.5 0 2
      vertex -6 10 2
      vertex -2.22862 -1.53909 2
    endloop
  endfacet
  facet normal 0 0 1
    outer loop
      vertex -2.22862 1.53909 2
      vertex -1.4472 2.89254 2
      vertex -6 10 2
    endloop
  endfacet
  facet normal 0 0 1
    outer loop
      vertex -1.29904 -7.25 2
      vertex -0.75 -6.70096 2
      vertex -0.25 -3.89711 2
    endloop
  endfacet
  facet normal 0 0 1
    outer loop
      vertex 2.78142 4.43164 2
      vertex -6 10 2
      vertex 1.21858 4.43164 2
    endloop
  endfacet
  facet normal 0 0 1
    outer loop
      vertex -0.75 6.70096 2
      vertex -6 10 2
      vertex 2.78142 4.43164 2
    endloop
  endfacet
  facet normal 0 0 1
    outer loop
      vertex 6 10 2
      vertex 4.25 3.89711 2
      vertex 5.4472 2.89254 2
    endloop
  endfacet
  facet normal 0 0 1
    outer loop
      vertex 6 10 2
      vertex 5.4472 2.89254 2
      vertex 6 1.93507 2
    endloop
  endfacet
  facet normal 0 0 1
    outer loop
      vertex 5.73205 11 2
      vertex -6 10 2
      vertex 6 10 2
    endloop
  endfacet
  facet normal 0 0 1
    outer loop
      vertex 5 11.7321 2
      vertex -6 10 2
      vertex 5.73205 11 2
    endloop
  endfacet
  facet normal 0 0 1
    outer loop
      vertex 4 12 2
      vertex -6 10 2
      vertex 5 11.7321 2
    endloop
  endfacet
  facet normal 0 0 1
    outer loop
      vertex -4 12 2
      vertex -6 10 2
      vertex 4 12 2
    endloop
  endfacet
  facet normal 0 0 1
    outer loop
      vertex -5 11.7321 2
      vertex -6 10 2
      vertex -4 12 2
    endloop
  endfacet
  facet normal 0 0 1
    outer loop
      vertex -5.73205 11 2
      vertex -6 10 2
      vertex -5 11.7321 2
    endloop
  endfacet
  facet normal 0 0 1
    outer loop
      vertex -0.75 -9.29904 2
      vertex -1.29904 -8.75 2
      vertex -4 -12 2
    endloop
  endfacet
  facet normal 0 0 1
    outer loop
      vertex -1.29904 -8.75 2
      vertex -1.5 -8 2
      vertex -4 -12 2
    endloop
  endfacet
  facet normal 0 0 1
    outer loop
      vertex 1.29904 -7.25 2
      vertex 1.5 -8 2
      vertex 4 -12 2
    endloop
  endfacet
  facet normal 0 0 1
    outer loop
      vertex -1.5 -8 2
      vertex -1.29904 -7.25 2
      vertex -4 -12 2
    endloop
  endfacet
  facet normal 0 0 1
    outer loop
      vertex 1.29904 8.75 2
      vertex 1.5 8 2
      vertex 6 10 2
    endloop
  endfacet
  facet normal 0 0 1
    outer loop
      vertex 0 -6.5 2
      vertex -0.25 -3.89711 2
      vertex -0.75 -6.70096 2
    endloop
  endfacet
  facet normal 0 0 1
    outer loop
      vertex 0.75 -6.70096 2
      vertex -0.25 -3.89711 2
      vertex 0 -6.5 2
    endloop
  endfacet
  facet normal 0 0 1
    outer loop
      vertex 1.29904 -7.25 2
      vertex -0.25 -3.89711 2
      vertex 0.75 -6.70096 2
    endloop
  endfacet
  facet normal 0 0 1
    outer loop
      vertex 1.5 -8 2
      vertex 1.29904 -8.75 2
      vertex 4 -12 2
    endloop
  endfacet
  facet normal 0 0 1
    outer loop
      vertex 4 -12 2
      vertex -0.25 -3.89711 2
      vertex 1.29904 -7.25 2
    endloop
  endfacet
  facet normal 0 0 1
    outer loop
      vertex 1.29904 -8.75 2
      vertex 0.75 -9.29904 2
      vertex 4 -12 2
    endloop
  endfacet
  facet normal 0 0 1
    outer loop
      vertex 0 -9.5 2
      vertex -0.75 -9.29904 2
      vertex 4 -12 2
    endloop
  endfacet
  facet normal 0 0 1
    outer loop
      vertex -0.75 6.70096 2
      vertex -1.29904 7.25 2
      vertex -6 10 2
    endloop
  endfacet
  facet normal 0 0 1
    outer loop
      vertex 4 -12 2
      vertex 0.75 -9.29904 2
      vertex 0 -9.5 2
    endloop
  endfacet
  facet normal 0 0 1
    outer loop
      vertex 4 -12 2
      vertex -0.75 -9.29904 2
      vertex -4 -12 2
    endloop
  endfacet
  facet normal 0 0 1
    outer loop
      vertex -1.5 8 2
      vertex -6 10 2
      vertex -1.29904 7.25 2
    endloop
  endfacet
  facet normal 0 0 1
    outer loop
      vertex 0 6.5 2
      vertex -0.75 6.70096 2
      vertex 4.25 3.89711 2
    endloop
  endfacet
  facet normal 0 0 1
    outer loop
      vertex -1.29904 8.75 2
      vertex -6 10 2
      vertex -1.5 8 2
    endloop
  endfacet
  facet normal 0 0 1
    outer loop
      vertex -0.75 9.29904 2
      vertex -6 10 2
      vertex -1.29904 8.75 2
    endloop
  endfacet
  facet normal 0 0 1
    outer loop
      vertex 0 9.5 2
      vertex -6 10 2
      vertex -0.75 9.29904 2
    endloop
  endfacet
  facet normal 0 0 1
    outer loop
      vertex 0.75 9.29904 2
      vertex 1.29904 8.75 2
      vertex 6 10 2
    endloop
  endfacet
  facet normal 0 0 1
    outer loop
      vertex 6 10 2
      vertex -6 10 2
      vertex 0 9.5 2
    endloop
  endfacet
  facet normal 0 0 1
    outer loop
      vertex 6 10 2
      vertex 1.5 8 2
      vertex 4.25 3.89711 2
    endloop
  endfacet
  facet normal 0 0 1
    outer loop
      vertex 1.5 8 2
      vertex 1.29904 7.25 2
      vertex 4.25 3.89711 2
    endloop
  endfacet
  facet normal 0 0 1
    outer loop
      vertex 1.29904 7.25 2
      vertex 0.75 6.70096 2
      vertex 4.25 3.89711 2
    endloop
  endfacet
  facet normal 0 0 1
    outer loop
      vertex 0.75 6.70096 2
      vertex 0 6.5 2
      vertex 4.25 3.89711 2
    endloop
  endfacet
  facet normal 0 0 1
    outer loop
      vertex 4.25 3.89711 2
      vertex -0.75 6.70096 2
      vertex 2.78142 4.43164 2
    endloop
  endfacet
  facet normal 0 0 1
    outer loop
      vertex 0 9.5 2
      vertex 0.75 9.29904 2
      vertex 6 10 2
    endloop
  endfacet
  facet normal 0 0 1
    outer loop
      vertex 2.78142 -4.43164 2
      vertex 5.73205 -11 2
      vertex 6 -10 2
    endloop
  endfacet
  facet normal 0 0 1
    outer loop
      vertex 2.78142 -4.43164 2
      vertex 5 -11.7321 2
      vertex 5.73205 -11 2
    endloop
  endfacet
  facet normal 0 0 1
    outer loop
      vertex 2.78142 -4.43164 2
      vertex 1.21858 -4.43164 2
      vertex 5 -11.7321 2
    endloop
  endfacet
  facet normal -0.707107 -0.707107 0
    outer loop
      vertex -5.73205 -11 2
      vertex -5.73205 -11 -2
      vertex -5 -11.7321 -2
    endloop
  endfacet
  facet normal -0.707107 -0.707107 0
    outer loop
      vertex -5 -11.7321 2
      vertex -5.73205 -11 2
      vertex -5 -11.7321 -2
    endloop
  endfacet
  facet normal -0.258819 -0.965926 0
    outer loop
      vertex -5 -11.7321 2
      vertex -5 -11.7321 -2
      vertex -4 -12 -2
    endloop
  endfacet
  facet normal -0.258819 -0.965926 0
    outer loop
      vertex -4 -12 2
      vertex -5 -11.7321 2
      vertex -4 -12 -2
    endloop
  endfacet
  facet normal 0 -1 0
    outer loop
      vertex -4 -12 2
      vertex -4 -12 -2
      vertex 4 -12 -2
    endloop
  endfacet
  facet normal 0 -1 0
    outer loop
      vertex 4 -12 2
      vertex -4 -12 2
      vertex 4 -12 -2
    endloop
  endfacet
  facet normal 0.258819 -0.965926 0
    outer loop
      vertex 4 -12 2
      vertex 4 -12 -2
      vertex 5 -11.7321 -2
    endloop
  endfacet
  facet normal 0.258819 -0.965926 0
    outer loop
      vertex 5 -11.7321 2
      vertex 4 -12 2
      vertex 5 -11.7321 -2
    endloop
  endfacet
  facet normal 0.707107 -0.707107 0
    outer loop
      vertex 5 -11.7321 2
      vertex 5 -11.7321 -2
      vertex 5.73205 -11 -2
    endloop
  endfacet
  facet normal 0.707107 -0.707107 0
    outer loop
      vertex 5.73205 -11 2
      vertex 5 -11.7321 2
      vertex 5.73205 -11 -2
    endloop
  endfacet
  facet normal 0.965926 -0.258819 0
    outer loop
      vertex 5.73205 -11 2
      vertex 5.73205 -11 -2
      vertex 6 -10 -2
    endloop
  endfacet
  facet normal 0.965926 -0.258819 0
    outer loop
      vertex 6 -10 2
      vertex 5.73205 -11 2
      vertex 6 -10 -2
    endloop
  endfacet
  facet normal 1 0 0
    outer loop
      vertex 6 -10 2
      vertex 6 -10 -2
      vertex 6 -1.93507 -2
    endloop
  endfacet
  facet normal 1 0 0
    outer loop
      vertex 6 -1.93507 2
      vertex 6 -10 2
      vertex 6 -1.93507 -2
    endloop
  endfacet
  facet normal 0.866025 -0.5 0
    outer loop
      vertex 5.4472 -2.89254 6
      vertex 5.4472 -2.89254 2
      vertex 6 -1.93507 2
    endloop
  endfacet
  facet normal 0.866025 -0.5 0
    outer loop
      vertex 6.22862 -1.53909 6
      vertex 5.4472 -2.89254 6
      vertex 6 -1.93507 2
    endloop
  endfacet
  facet normal 0.866025 -0.5 0
    outer loop
      vertex 6 -1.93507 -2
      vertex 6.22862 -1.53909 -2
      vertex 6 -1.93507 2
    endloop
  endfacet
  facet normal 0.866025 -0.5 0
    outer loop
      vertex 6.22862 -1.53909 -2
      vertex 6.22862 -1.53909 6
      vertex 6 -1.93507 2
    endloop
  endfacet
  facet normal 0.984808 -0.173648 0
    outer loop
      vertex 6.22862 -1.53909 6
      vertex 6.22862 -1.53909 -2
      vertex 6.5 0 -2
    endloop
  endfacet
  facet normal 0.984808 -0.173648 0
    outer loop
      vertex 6.5 0 6
      vertex 6.22862 -1.53909 6
      vertex 6.5 0 -2
    endloop
  endfacet
  facet normal 0.984808 0.173648 0
    outer loop
      vertex 6.5 0 -2
      vertex 6.22862 1.53909 -2
      vertex 6.22862 1.53909 6
    endloop
  endfacet
  facet normal 0.984808 0.173648 0
    outer loop
      vertex 6.5 0 6
      vertex 6.5 0 -2
      vertex 6.22862 1.53909 6
    endloop
  endfacet
  facet normal 0.866025 0.5 0
    outer loop
      vertex 6 1.93507 2
      vertex 5.4472 2.89254 2
      vertex 5.4472 2.89254 6
    endloop
  endfacet
  facet normal 0.866025 0.5 0
    outer loop
      vertex 6.22862 1.53909 -2
      vertex 6 1.93507 2
      vertex 6.22862 1.53909 6
    endloop
  endfacet
  facet normal 0.866025 0.5 0
    outer loop
      vertex 6.22862 1.53909 6
      vertex 6 1.93507 2
      vertex 5.4472 2.89254 6
    endloop
  endfacet
  facet normal 0.866025 0.5 0
    outer loop
      vertex 6 1.93507 -2
      vertex 6 1.93507 2
      vertex 6.22862 1.53909 -2
    endloop
  endfacet
  facet normal 1 0 0
    outer loop
      vertex 6 1.93507 2
      vertex 6 1.93507 -2
      vertex 6 10 -2
    endloop
  endfacet
  facet normal 1 0 0
    outer loop
      vertex 6 10 2
      vertex 6 1.93507 2
      vertex 6 10 -2
    endloop
  endfacet
  facet normal 0.965926 0.258819 0
    outer loop
      vertex 6 10 -2
      vertex 5.73205 11 -2
      vertex 5.73205 11 2
    endloop
  endfacet
  facet normal 0.965926 0.258819 0
    outer loop
      vertex 6 10 2
      vertex 6 10 -2
      vertex 5.73205 11 2
    endloop
  endfacet
  facet normal 0.707107 0.707107 0
    outer loop
      vertex 5 11.7321 -2
      vertex 5 11.7321 2
      vertex 5.73205 11 -2
    endloop
  endfacet
  facet normal 0.707107 0.707107 0
    outer loop
      vertex 5.73205 11 -2
      vertex 5 11.7321 2
      vertex 5.73205 11 2
    endloop
  endfacet
  facet normal 0.258819 0.965926 0
    outer loop
      vertex 4 12 -2
      vertex 4 12 2
      vertex 5 11.7321 -2
    endloop
  endfacet
  facet normal 0.258819 0.965926 0
    outer loop
      vertex 5 11.7321 -2
      vertex 4 12 2
      vertex 5 11.7321 2
    endloop
  endfacet
  facet normal 0 1 0
    outer loop
      vertex -4 12 -2
      vertex -4 12 2
      vertex 4 12 -2
    endloop
  endfacet
  facet normal 0 1 0
    outer loop
      vertex 4 12 -2
      vertex -4 12 2
      vertex 4 12 2
    endloop
  endfacet
  facet normal -0.258819 0.965926 0
    outer loop
      vertex -5 11.7321 -2
      vertex -5 11.7321 2
      vertex -4 12 -2
    endloop
  endfacet
  facet normal -0.258819 0.965926 0
    outer loop
      vertex -4 12 -2
      vertex -5 11.7321 2
      vertex -4 12 2
    endloop
  endfacet
  facet normal -0.707107 0.707107 0
    outer loop
      vertex -5.73205 11 -2
      vertex -5.73205 11 2
      vertex -5 11.7321 -2
    endloop
  endfacet
  facet normal -0.707107 0.707107 0
    outer loop
      vertex -5 11.7321 -2
      vertex -5.73205 11 2
      vertex -5 11.7321 2
    endloop
  endfacet
  facet normal 0.965926 0.258819 0
    outer loop
      vertex -1.5 -8 2
      vertex -1.29904 -8.75 2
      vertex -1.29904 -8.75 -2
    endloop
  endfacet
  facet normal 0.965926 0.258819 0
    outer loop
      vertex -1.5 -8 -2
      vertex -1.5 -8 2
      vertex -1.29904 -8.75 -2
    endloop
  endfacet
  facet normal 0.965926 -0.258819 0
    outer loop
      vertex -1.29904 -7.25 -2
      vertex -1.29904 -7.25 2
      vertex -1.5 -8 2
    endloop
  endfacet
  facet normal 0.965926 -0.258819 0
    outer loop
      vertex -1.5 -8 -2
      vertex -1.29904 -7.25 -2
      vertex -1.5 -8 2
    endloop
  endfacet
  facet normal 0.707107 -0.707107 0
    outer loop
      vertex -0.75 -6.70096 -2
      vertex -0.75 -6.70096 2
      vertex -1.29904 -7.25 2
    endloop
  endfacet
  facet normal 0.707107 -0.707107 0
    outer loop
      vertex -1.29904 -7.25 -2
      vertex -0.75 -6.70096 -2
      vertex -1.29904 -7.25 2
    endloop
  endfacet
  facet normal 0.258819 -0.965926 0
    outer loop
      vertex 0 -6.5 -2
      vertex 0 -6.5 2
      vertex -0.75 -6.70096 2
    endloop
  endfacet
  facet normal 0.258819 -0.965926 0
    outer loop
      vertex -0.75 -6.70096 -2
      vertex 0 -6.5 -2
      vertex -0.75 -6.70096 2
    endloop
  endfacet
  facet normal -0.258819 -0.965926 0
    outer loop
      vertex 0.75 -6.70096 -2
      vertex 0.75 -6.70096 2
      vertex 0 -6.5 2
    endloop
  endfacet
  facet normal -0.258819 -0.965926 0
    outer loop
      vertex 0 -6.5 -2
      vertex 0.75 -6.70096 -2
      vertex 0 -6.5 2
    endloop
  endfacet
  facet normal -0.707107 -0.707107 0
    outer loop
      vertex 1.29904 -7.25 -2
      vertex 1.29904 -7.25 2
      vertex 0.75 -6.70096 2
    endloop
  endfacet
  facet normal -0.707107 -0.707107 0
    outer loop
      vertex 0.75 -6.70096 -2
      vertex 1.29904 -7.25 -2
      vertex 0.75 -6.70096 2
    endloop
  endfacet
  facet normal -0.965926 -0.258819 0
    outer loop
      vertex 1.5 -8 2
      vertex 1.29904 -7.25 2
      vertex 1.5 -8 -2
    endloop
  endfacet
  facet normal -0.965926 -0.258819 0
    outer loop
      vertex 1.5 -8 -2
      vertex 1.29904 -7.25 2
      vertex 1.29904 -7.25 -2
    endloop
  endfacet
  facet normal -0.965926 0.258819 0
    outer loop
      vertex 1.5 -8 2
      vertex 1.5 -8 -2
      vertex 1.29904 -8.75 2
    endloop
  endfacet
  facet normal -0.965926 0.258819 0
    outer loop
      vertex 1.29904 -8.75 2
      vertex 1.5 -8 -2
      vertex 1.29904 -8.75 -2
    endloop
  endfacet
  facet normal -0.707107 0.707107 0
    outer loop
      vertex 1.29904 -8.75 2
      vertex 1.29904 -8.75 -2
      vertex 0.75 -9.29904 2
    endloop
  endfacet
  facet normal -0.707107 0.707107 0
    outer loop
      vertex 0.75 -9.29904 2
      vertex 1.29904 -8.75 -2
      vertex 0.75 -9.29904 -2
    endloop
  endfacet
  facet normal -0.258819 0.965926 0
    outer loop
      vertex 0.75 -9.29904 2
      vertex 0.75 -9.29904 -2
      vertex 0 -9.5 2
    endloop
  endfacet
  facet normal -0.258819 0.965926 0
    outer loop
      vertex 0 -9.5 2
      vertex 0.75 -9.29904 -2
      vertex 0 -9.5 -2
    endloop
  endfacet
  facet normal 0.258819 0.965926 0
    outer loop
      vertex 0 -9.5 2
      vertex 0 -9.5 -2
      vertex -0.75 -9.29904 2
    endloop
  endfacet
  facet normal 0.258819 0.965926 0
    outer loop
      vertex -0.75 -9.29904 2
      vertex 0 -9.5 -2
      vertex -0.75 -9.29904 -2
    endloop
  endfacet
  facet normal 0.707107 0.707107 0
    outer loop
      vertex -0.75 -9.29904 2
      vertex -0.75 -9.29904 -2
      vertex -1.29904 -8.75 2
    endloop
  endfacet
  facet normal 0.707107 0.707107 0
    outer loop
      vertex -1.29904 -8.75 2
      vertex -0.75 -9.29904 -2
      vertex -1.29904 -8.75 -2
    endloop
  endfacet
  facet normal 0.965926 -0.258819 0
    outer loop
      vertex -1.29904 8.75 -2
      vertex -1.29904 8.75 2
      vertex -1.5 8 2
    endloop
  endfacet
  facet normal 0.965926 -0.258819 0
    outer loop
      vertex -1.5 8 -2
      vertex -1.29904 8.75 -2
      vertex -1.5 8 2
    endloop
  endfacet
  facet normal 0.965926 0.258819 0
    outer loop
      vertex -1.5 8 2
      vertex -1.29904 7.25 2
      vertex -1.29904 7.25 -2
    endloop
  endfacet
  facet normal 0.965926 0.258819 0
    outer loop
      vertex -1.5 8 -2
      vertex -1.5 8 2
      vertex -1.29904 7.25 -2
    endloop
  endfacet
  facet normal 0.707107 -0.707107 0
    outer loop
      vertex -0.75 9.29904 -2
      vertex -0.75 9.29904 2
      vertex -1.29904 8.75 2
    endloop
  endfacet
  facet normal 0.707107 -0.707107 0
    outer loop
      vertex -1.29904 8.75 -2
      vertex -0.75 9.29904 -2
      vertex -1.29904 8.75 2
    endloop
  endfacet
  facet normal 0.258819 -0.965926 0
    outer loop
      vertex 0 9.5 -2
      vertex 0 9.5 2
      vertex -0.75 9.29904 2
    endloop
  endfacet
  facet normal 0.258819 -0.965926 0
    outer loop
      vertex -0.75 9.29904 -2
      vertex 0 9.5 -2
      vertex -0.75 9.29904 2
    endloop
  endfacet
  facet normal -0.258819 -0.965926 0
    outer loop
      vertex 0.75 9.29904 -2
      vertex 0.75 9.29904 2
      vertex 0 9.5 2
    endloop
  endfacet
  facet normal -0.258819 -0.965926 0
    outer loop
      vertex 0 9.5 -2
      vertex 0.75 9.29904 -2
      vertex 0 9.5 2
    endloop
  endfacet
  facet normal -0.707107 -0.707107 0
    outer loop
      vertex 1.29904 8.75 -2
      vertex 1.29904 8.75 2
      vertex 0.75 9.29904 2
    endloop
  endfacet
  facet normal -0.707107 -0.707107 0
    outer loop
      vertex 0.75 9.29904 -2
      vertex 1.29904 8.75 -2
      vertex 0.75 9.29904 2
    endloop
  endfacet
  facet normal -0.965926 -0.258819 0
    outer loop
      vertex 1.5 8 2
      vertex 1.29904 8.75 2
      vertex 1.5 8 -2
    endloop
  endfacet
  facet normal -0.965926 -0.258819 0
    outer loop
      vertex 1.5 8 -2
      vertex 1.29904 8.75 2
      vertex 1.29904 8.75 -2
    endloop
  endfacet
  facet normal -0.965926 0.258819 0
    outer loop
      vertex 1.5 8 2
      vertex 1.5 8 -2
      vertex 1.29904 7.25 2
    endloop
  endfacet
  facet normal -0.965926 0.258819 0
    outer loop
      vertex 1.29904 7.25 2
      vertex 1.5 8 -2
      vertex 1.29904 7.25 -2
    endloop
  endfacet
  facet normal -0.707107 0.707107 0
    outer loop
      vertex 1.29904 7.25 2
      vertex 1.29904 7.25 -2
      vertex 0.75 6.70096 2
    endloop
  endfacet
  facet normal -0.707107 0.707107 0
    outer loop
      vertex 0.75 6.70096 2
      vertex 1.29904 7.25 -2
      vertex 0.75 6.70096 -2
    endloop
  endfacet
  facet normal -0.258819 0.965926 0
    outer loop
      vertex 0.75 6.70096 2
      vertex 0.75 6.70096 -2
      vertex 0 6.5 2
    endloop
  endfacet
  facet normal -0.258819 0.965926 0
    outer loop
      vertex 0 6.5 2
      vertex 0.75 6.70096 -2
      vertex 0 6.5 -2
    endloop
  endfacet
  facet normal 0.258819 0.965926 0
    outer loop
      vertex 0 6.5 2
      vertex 0 6.5 -2
      vertex -0.75 6.70096 2
    endloop
  endfacet
  facet normal 0.258819 0.965926 0
    outer loop
      vertex -0.75 6.70096 2
      vertex 0 6.5 -2
      vertex -0.75 6.70096 -2
    endloop
  endfacet
  facet normal 0.707107 0.707107 0
    outer loop
      vertex -0.75 6.70096 2
      vertex -0.75 6.70096 -2
      vertex -1.29904 7.25 2
    endloop
  endfacet
  facet normal 0.707107 0.707107 0
    outer loop
      vertex -1.29904 7.25 2
      vertex -0.75 6.70096 -2
      vertex -1.29904 7.25 -2
    endloop
  endfacet
  facet normal 0.965926 -0.258818 0
    outer loop
      vertex 1.39378 0.35 -2
      vertex 1.39378 0.35 2.5
      vertex 1.3 0 2.5
    endloop
  endfacet
  facet normal 0.965926 -0.258818 0
    outer loop
      vertex 1.3 0 -2
      vertex 1.39378 0.35 -2
      vertex 1.3 0 2.5
    endloop
  endfacet
  facet normal 0.965926 0.258818 0
    outer loop
      vertex 1.3 0 2.5
      vertex 1.39378 -0.35 2.5
      vertex 1.39378 -0.35 -2
    endloop
  endfacet
  facet normal 0.965926 0.258818 0
    outer loop
      vertex 1.3 0 -2
      vertex 1.3 0 2.5
      vertex 1.39378 -0.35 -2
    endloop
  endfacet
  facet normal 0.707107 -0.707107 0
    outer loop
      vertex 1.65 0.606218 -2
      vertex 1.65 0.606218 2.5
      vertex 1.39378 0.35 2.5
    endloop
  endfacet
  facet normal 0.707107 -0.707107 0
    outer loop
      vertex 1.39378 0.35 -2
      vertex 1.65 0.606218 -2
      vertex 1.39378 0.35 2.5
    endloop
  endfacet
  facet normal 0.258818 -0.965926 0
    outer loop
      vertex 2 0.7 -2
      vertex 2 0.7 2.5
      vertex 1.65 0.606218 2.5
    endloop
  endfacet
  facet normal 0.258818 -0.965926 0
    outer loop
      vertex 1.65 0.606218 -2
      vertex 2 0.7 -2
      vertex 1.65 0.606218 2.5
    endloop
  endfacet
  facet normal -0.258818 -0.965926 0
    outer loop
      vertex 2.35 0.606218 -2
      vertex 2.35 0.606218 2.5
      vertex 2 0.7 2.5
    endloop
  endfacet
  facet normal -0.258818 -0.965926 0
    outer loop
      vertex 2 0.7 -2
      vertex 2.35 0.606218 -2
      vertex 2 0.7 2.5
    endloop
  endfacet
  facet normal -0.707107 -0.707107 0
    outer loop
      vertex 2.60622 0.35 -2
      vertex 2.60622 0.35 2.5
      vertex 2.35 0.606218 2.5
    endloop
  endfacet
  facet normal -0.707107 -0.707107 0
    outer loop
      vertex 2.35 0.606218 -2
      vertex 2.60622 0.35 -2
      vertex 2.35 0.606218 2.5
    endloop
  endfacet
  facet normal -0.965926 -0.258818 0
    outer loop
      vertex 2.7 0 2.5
      vertex 2.60622 0.35 2.5
      vertex 2.7 0 -2
    endloop
  endfacet
  facet normal -0.965926 -0.258818 0
    outer loop
      vertex 2.7 0 -2
      vertex 2.60622 0.35 2.5
      vertex 2.60622 0.35 -2
    endloop
  endfacet
  facet normal -0.965926 0.258818 0
    outer loop
      vertex 2.7 0 2.5
      vertex 2.7 0 -2
      vertex 2.60622 -0.35 2.5
    endloop
  endfacet
  facet normal -0.965926 0.258818 0
    outer loop
      vertex 2.60622 -0.35 2.5
      vertex 2.7 0 -2
      vertex 2.60622 -0.35 -2
    endloop
  endfacet
  facet normal -0.707107 0.707107 0
    outer loop
      vertex 2.60622 -0.35 2.5
      vertex 2.60622 -0.35 -2
      vertex 2.35 -0.606218 2.5
    endloop
  endfacet
  facet normal -0.707107 0.707107 0
    outer loop
      vertex 2.35 -0.606218 2.5
      vertex 2.60622 -0.35 -2
      vertex 2.35 -0.606218 -2
    endloop
  endfacet
  facet normal -0.258818 0.965926 0
    outer loop
      vertex 2.35 -0.606218 2.5
      vertex 2.35 -0.606218 -2
      vertex 2 -0.7 2.5
    endloop
  endfacet
  facet normal -0.258818 0.965926 0
    outer loop
      vertex 2 -0.7 2.5
      vertex 2.35 -0.606218 -2
      vertex 2 -0.7 -2
    endloop
  endfacet
  facet normal 0.258818 0.965926 0
    outer loop
      vertex 2 -0.7 2.5
      vertex 2 -0.7 -2
      vertex 1.65 -0.606218 2.5
    endloop
  endfacet
  facet normal 0.258818 0.965926 0
    outer loop
      vertex 1.65 -0.606218 2.5
      vertex 2 -0.7 -2
      vertex 1.65 -0.606218 -2
    endloop
  endfacet
  facet normal 0.707107 0.707107 0
    outer loop
      vertex 1.65 -0.606218 2.5
      vertex 1.65 -0.606218 -2
      vertex 1.39378 -0.35 2.5
    endloop
  endfacet
  facet normal 0.707107 0.707107 0
    outer loop
      vertex 1.39378 -0.35 2.5
      vertex 1.65 -0.606218 -2
      vertex 1.39378 -0.35 -2
    endloop
  endfacet
  facet normal 0.642788 0.766044 0
    outer loop
      vertex 4.25 3.89711 2
      vertex 4.25 3.89711 6
      vertex 5.4472 2.89254 2
    endloop
  endfacet
  facet normal 0.642788 0.766044 0
    outer loop
      vertex 5.4472 2.89254 2
      vertex 4.25 3.89711 6
      vertex 5.4472 2.89254 6
    endloop
  endfacet
  facet normal 0.34202 0.939693 0
    outer loop
      vertex 2.78142 4.43164 2
      vertex 2.78142 4.43164 6
      vertex 4.25 3.89711 2
    endloop
  endfacet
  facet normal 0.34202 0.939693 0
    outer loop
      vertex 4.25 3.89711 2
      vertex 2.78142 4.43164 6
      vertex 4.25 3.89711 6
    endloop
  endfacet
  facet normal 0 1 0
    outer loop
      vertex 1.21858 4.43164 2
      vertex 1.21858 4.43164 6
      vertex 2.78142 4.43164 2
    endloop
  endfacet
  facet normal 0 1 0
    outer loop
      vertex 2.78142 4.43164 2
      vertex 1.21858 4.43164 6
      vertex 2.78142 4.43164 6
    endloop
  endfacet
  facet normal -0.34202 0.939693 0
    outer loop
      vertex -0.25 3.89711 2
      vertex -0.25 3.89711 6
      vertex 1.21858 4.43164 2
    endloop
  endfacet
  facet normal -0.34202 0.939693 0
    outer loop
      vertex 1.21858 4.43164 2
      vertex -0.25 3.89711 6
      vertex 1.21858 4.43164 6
    endloop
  endfacet
  facet normal -0.642788 0.766044 0
    outer loop
      vertex -1.4472 2.89254 2
      vertex -1.4472 2.89254 6
      vertex -0.25 3.89711 2
    endloop
  endfacet
  facet normal -0.642788 0.766044 0
    outer loop
      vertex -0.25 3.89711 2
      vertex -1.4472 2.89254 6
      vertex -0.25 3.89711 6
    endloop
  endfacet
  facet normal -0.866025 0.5 0
    outer loop
      vertex -2.22862 1.53909 2
      vertex -2.22862 1.53909 6
      vertex -1.4472 2.89254 2
    endloop
  endfacet
  facet normal -0.866025 0.5 0
    outer loop
      vertex -1.4472 2.89254 2
      vertex -2.22862 1.53909 6
      vertex -1.4472 2.89254 6
    endloop
  endfacet
  facet normal -0.984808 0.173648 0
    outer loop
      vertex -2.5 0 2
      vertex -2.5 0 6
      vertex -2.22862 1.53909 2
    endloop
  endfacet
  facet normal -0.984808 0.173648 0
    outer loop
      vertex -2.22862 1.53909 2
      vertex -2.5 0 6
      vertex -2.22862 1.53909 6
    endloop
  endfacet
  facet normal -0.984808 -0.173648 0
    outer loop
      vertex -2.5 0 2
      vertex -2.22862 -1.53909 2
      vertex -2.5 0 6
    endloop
  endfacet
  facet normal -0.984808 -0.173648 0
    outer loop
      vertex -2.5 0 6
      vertex -2.22862 -1.53909 2
      vertex -2.22862 -1.53909 6
    endloop
  endfacet
  facet normal -0.866025 -0.5 0
    outer loop
      vertex -2.22862 -1.53909 2
      vertex -1.4472 -2.89254 2
      vertex -2.22862 -1.53909 6
    endloop
  endfacet
  facet normal -0.866025 -0.5 0
    outer loop
      vertex -2.22862 -1.53909 6
      vertex -1.4472 -2.89254 2
      vertex -1.4472 -2.89254 6
    endloop
  endfacet
  facet normal -0.642788 -0.766044 0
    outer loop
      vertex -1.4472 -2.89254 6
      vertex -1.4472 -2.89254 2
      vertex -0.25 -3.89711 2
    endloop
  endfacet
  facet normal -0.642788 -0.766044 0
    outer loop
      vertex -0.25 -3.89711 6
      vertex -1.4472 -2.89254 6
      vertex -0.25 -3.89711 2
    endloop
  endfacet
  facet normal -0.34202 -0.939693 0
    outer loop
      vertex -0.25 -3.89711 6
      vertex -0.25 -3.89711 2
      vertex 1.21858 -4.43164 2
    endloop
  endfacet
  facet normal -0.34202 -0.939693 0
    outer loop
      vertex 1.21858 -4.43164 6
      vertex -0.25 -3.89711 6
      vertex 1.21858 -4.43164 2
    endloop
  endfacet
  facet normal 0 -1 0
    outer loop
      vertex 1.21858 -4.43164 6
      vertex 1.21858 -4.43164 2
      vertex 2.78142 -4.43164 2
    endloop
  endfacet
  facet normal 0 -1 0
    outer loop
      vertex 2.78142 -4.43164 6
      vertex 1.21858 -4.43164 6
      vertex 2.78142 -4.43164 2
    endloop
  endfacet
  facet normal 0.34202 -0.939693 0
    outer loop
      vertex 2.78142 -4.43164 6
      vertex 2.78142 -4.43164 2
      vertex 4.25 -3.89711 2
    endloop
  endfacet
  facet normal 0.34202 -0.939693 0
    outer loop
      vertex 4.25 -3.89711 6
      vertex 2.78142 -4.43164 6
      vertex 4.25 -3.89711 2
    endloop
  endfacet
  facet normal 0.642788 -0.766044 0
    outer loop
      vertex 4.25 -3.89711 6
      vertex 4.25 -3.89711 2
      vertex 5.4472 -2.89254 2
    endloop
  endfacet
  facet normal 0.642788 -0.766044 0
    outer loop
      vertex 5.4472 -2.89254 6
      vertex 4.25 -3.89711 6
      vertex 5.4472 -2.89254 2
    endloop
  endfacet
  facet normal 0 0 1
    outer loop
      vertex -2.22862 1.53909 6
      vertex -2.5 0 6
      vertex -2.22862 -1.53909 6
    endloop
  endfacet
  facet normal 0 0 1
    outer loop
      vertex -0.25 -3.89711 6
      vertex -2.22862 1.53909 6
      vertex -1.4472 -2.89254 6
    endloop
  endfacet
  facet normal 0 0 1
    outer loop
      vertex -1.4472 -2.89254 6
      vertex -2.22862 1.53909 6
      vertex -2.22862 -1.53909 6
    endloop
  endfacet
  facet normal 0 0 1
    outer loop
      vertex 1.21858 -4.43164 6
      vertex -2.22862 1.53909 6
      vertex -0.25 -3.89711 6
    endloop
  endfacet
  facet normal 0 0 1
    outer loop
      vertex -0.165064 -1.25 6
      vertex -2.22862 1.53909 6
      vertex 1.21858 -4.43164 6
    endloop
  endfacet
  facet normal 0 0 1
    outer loop
      vertex 4.16506 1.25 6
      vertex 4.5 0 6
      vertex 6.5 0 6
    endloop
  endfacet
  facet normal 0 0 1
    outer loop
      vertex 3.25 2.16506 6
      vertex 4.16506 1.25 6
      vertex 6.22862 1.53909 6
    endloop
  endfacet
  facet normal 0 0 1
    outer loop
      vertex 2.78142 4.43164 6
      vertex -2.22862 1.53909 6
      vertex 4.25 3.89711 6
    endloop
  endfacet
  facet normal 0 0 1
    outer loop
      vertex 1.21858 4.43164 6
      vertex -2.22862 1.53909 6
      vertex 2.78142 4.43164 6
    endloop
  endfacet
  facet normal 0 0 1
    outer loop
      vertex -0.25 3.89711 6
      vertex -2.22862 1.53909 6
      vertex 1.21858 4.43164 6
    endloop
  endfacet
  facet normal 0 0 1
    outer loop
      vertex -1.4472 2.89254 6
      vertex -2.22862 1.53909 6
      vertex -0.25 3.89711 6
    endloop
  endfacet
  facet normal 0 0 1
    outer loop
      vertex 2.78142 -4.43164 6
      vertex -0.165064 -1.25 6
      vertex 1.21858 -4.43164 6
    endloop
  endfacet
  facet normal 0 0 1
    outer loop
      vertex 4.5 0 6
      vertex 4.16506 -1.25 6
      vertex 6.22862 -1.53909 6
    endloop
  endfacet
  facet normal 0 0 1
    outer loop
      vertex 4.25 3.89711 6
      vertex -2.22862 1.53909 6
      vertex 0.75 2.16506 6
    endloop
  endfacet
  facet normal 0 0 1
    outer loop
      vertex 4.25 3.89711 6
      vertex 2 2.5 6
      vertex 5.4472 2.89254 6
    endloop
  endfacet
  facet normal 0 0 1
    outer loop
      vertex 4.25 3.89711 6
      vertex 0.75 2.16506 6
      vertex 2 2.5 6
    endloop
  endfacet
  facet normal 0 0 1
    outer loop
      vertex 5.4472 2.89254 6
      vertex 3.25 2.16506 6
      vertex 6.22862 1.53909 6
    endloop
  endfacet
  facet normal 0 0 1
    outer loop
      vertex 2 2.5 6
      vertex 3.25 2.16506 6
      vertex 5.4472 2.89254 6
    endloop
  endfacet
  facet normal 0 0 1
    outer loop
      vertex 6.22862 1.53909 6
      vertex 4.16506 1.25 6
      vertex 6.5 0 6
    endloop
  endfacet
  facet normal 0 0 1
    outer loop
      vertex 6.5 0 6
      vertex 4.5 0 6
      vertex 6.22862 -1.53909 6
    endloop
  endfacet
  facet normal 0 0 1
    outer loop
      vertex 3.25 -2.16506 6
      vertex 2 -2.5 6
      vertex 4.25 -3.89711 6
    endloop
  endfacet
  facet normal 0 0 1
    outer loop
      vertex 6.22862 -1.53909 6
      vertex 4.16506 -1.25 6
      vertex 5.4472 -2.89254 6
    endloop
  endfacet
  facet normal 0 0 1
    outer loop
      vertex -0.165064 1.25 6
      vertex 0.75 2.16506 6
      vertex -2.22862 1.53909 6
    endloop
  endfacet
  facet normal 0 0 1
    outer loop
      vertex 5.4472 -2.89254 6
      vertex 3.25 -2.16506 6
      vertex 4.25 -3.89711 6
    endloop
  endfacet
  facet normal 0 0 1
    outer loop
      vertex 4.25 -3.89711 6
      vertex 2 -2.5 6
      vertex 2.78142 -4.43164 6
    endloop
  endfacet
  facet normal 0 0 1
    outer loop
      vertex 2.78142 -4.43164 6
      vertex 0.75 -2.16506 6
      vertex -0.165064 -1.25 6
    endloop
  endfacet
  facet normal 0 0 1
    outer loop
      vertex 4.16506 -1.25 6
      vertex 3.25 -2.16506 6
      vertex 5.4472 -2.89254 6
    endloop
  endfacet
  facet normal 0 0 1
    outer loop
      vertex -0.165064 -1.25 6
      vertex -0.5 0 6
      vertex -2.22862 1.53909 6
    endloop
  endfacet
  facet normal 0 0 1
    outer loop
      vertex 2 -2.5 6
      vertex 0.75 -2.16506 6
      vertex 2.78142 -4.43164 6
    endloop
  endfacet
  facet normal 0 0 1
    outer loop
      vertex -0.5 0 6
      vertex -0.165064 1.25 6
      vertex -2.22862 1.53909 6
    endloop
  endfacet
  facet normal 0 0 1
    outer loop
      vertex -0.165064 1.25 2.5
      vertex -0.5 0 2.5
      vertex -0.165064 -1.25 2.5
    endloop
  endfacet
  facet normal 0 0 1
    outer loop
      vertex 2 -2.5 2.5
      vertex -0.165064 1.25 2.5
      vertex 0.75 -2.16506 2.5
    endloop
  endfacet
  facet normal 0 0 1
    outer loop
      vertex 0.75 -2.16506 2.5
      vertex -0.165064 1.25 2.5
      vertex -0.165064 -1.25 2.5
    endloop
  endfacet
  facet normal 0 0 1
    outer loop
      vertex 1.39378 -0.35 2.5
      vertex -0.165064 1.25 2.5
      vertex 2 -2.5 2.5
    endloop
  endfacet
  facet normal 0 0 1
    outer loop
      vertex 2 -0.7 2.5
      vertex 1.65 -0.606218 2.5
      vertex 3.25 -2.16506 2.5
    endloop
  endfacet
  facet normal 0 0 1
    outer loop
      vertex 1.65 0.606218 2.5
      vertex 2 0.7 2.5
      vertex -0.165064 1.25 2.5
    endloop
  endfacet
  facet normal 0 0 1
    outer loop
      vertex 3.25 2.16506 2.5
      vertex -0.165064 1.25 2.5
      vertex 4.16506 1.25 2.5
    endloop
  endfacet
  facet normal 0 0 1
    outer loop
      vertex 2 2.5 2.5
      vertex -0.165064 1.25 2.5
      vertex 3.25 2.16506 2.5
    endloop
  endfacet
  facet normal 0 0 1
    outer loop
      vertex 0.75 2.16506 2.5
      vertex -0.165064 1.25 2.5
      vertex 2 2.5 2.5
    endloop
  endfacet
  facet normal 0 0 1
    outer loop
      vertex 1.65 -0.606218 2.5
      vertex 1.39378 -0.35 2.5
      vertex 2 -2.5 2.5
    endloop
  endfacet
  facet normal 0 0 1
    outer loop
      vertex 1.39378 0.35 2.5
      vertex -0.165064 1.25 2.5
      vertex 1.3 0 2.5
    endloop
  endfacet
  facet normal 0 0 1
    outer loop
      vertex 2.35 0.606218 2.5
      vertex 2.60622 0.35 2.5
      vertex 4.5 0 2.5
    endloop
  endfacet
  facet normal 0 0 1
    outer loop
      vertex 2.60622 -0.35 2.5
      vertex 2.35 -0.606218 2.5
      vertex 4.16506 -1.25 2.5
    endloop
  endfacet
  facet normal 0 0 1
    outer loop
      vertex 4.16506 1.25 2.5
      vertex -0.165064 1.25 2.5
      vertex 2 0.7 2.5
    endloop
  endfacet
  facet normal 0 0 1
    outer loop
      vertex 4.16506 1.25 2.5
      vertex 2.35 0.606218 2.5
      vertex 4.5 0 2.5
    endloop
  endfacet
  facet normal 0 0 1
    outer loop
      vertex 4.16506 1.25 2.5
      vertex 2 0.7 2.5
      vertex 2.35 0.606218 2.5
    endloop
  endfacet
  facet normal 0 0 1
    outer loop
      vertex 4.5 0 2.5
      vertex 2.60622 0.35 2.5
      vertex 4.16506 -1.25 2.5
    endloop
  endfacet
  facet normal 0 0 1
    outer loop
      vertex 2.60622 0.35 2.5
      vertex 2.7 0 2.5
      vertex 4.16506 -1.25 2.5
    endloop
  endfacet
  facet normal 0 0 1
    outer loop
      vertex 2.7 0 2.5
      vertex 2.60622 -0.35 2.5
      vertex 4.16506 -1.25 2.5
    endloop
  endfacet
  facet normal 0 0 1
    outer loop
      vertex 4.16506 -1.25 2.5
      vertex 2.35 -0.606218 2.5
      vertex 3.25 -2.16506 2.5
    endloop
  endfacet
  facet normal 0 0 1
    outer loop
      vertex 2.35 -0.606218 2.5
      vertex 2 -0.7 2.5
      vertex 3.25 -2.16506 2.5
    endloop
  endfacet
  facet normal 0 0 1
    outer loop
      vertex 3.25 -2.16506 2.5
      vertex 1.65 -0.606218 2.5
      vertex 2 -2.5 2.5
    endloop
  endfacet
  facet normal 0 0 1
    outer loop
      vertex 1.39378 -0.35 2.5
      vertex 1.3 0 2.5
      vertex -0.165064 1.25 2.5
    endloop
  endfacet
  facet normal 0 0 1
    outer loop
      vertex 1.39378 0.35 2.5
      vertex 1.65 0.606218 2.5
      vertex -0.165064 1.25 2.5
    endloop
  endfacet
  facet normal 0.707107 0.707107 0
    outer loop
      vertex 0.75 -2.16506 6
      vertex 0.75 -2.16506 2.5
      vertex -0.165064 -1.25 6
    endloop
  endfacet
  facet normal 0.707107 0.707107 0
    outer loop
      vertex -0.165064 -1.25 6
      vertex 0.75 -2.16506 2.5
      vertex -0.165064 -1.25 2.5
    endloop
  endfacet
  facet normal 0.965926 0.258819 0
    outer loop
      vertex -0.5 0 6
      vertex -0.165064 -1.25 6
      vertex -0.165064 -1.25 2.5
    endloop
  endfacet
  facet normal 0.965926 0.258819 0
    outer loop
      vertex -0.5 0 2.5
      vertex -0.5 0 6
      vertex -0.165064 -1.25 2.5
    endloop
  endfacet
  facet normal 0.258819 0.965926 0
    outer loop
      vertex 2 -2.5 6
      vertex 2 -2.5 2.5
      vertex 0.75 -2.16506 6
    endloop
  endfacet
  facet normal 0.258819 0.965926 0
    outer loop
      vertex 0.75 -2.16506 6
      vertex 2 -2.5 2.5
      vertex 0.75 -2.16506 2.5
    endloop
  endfacet
  facet normal -0.258819 0.965926 0
    outer loop
      vertex 3.25 -2.16506 6
      vertex 3.25 -2.16506 2.5
      vertex 2 -2.5 6
    endloop
  endfacet
  facet normal -0.258819 0.965926 0
    outer loop
      vertex 2 -2.5 6
      vertex 3.25 -2.16506 2.5
      vertex 2 -2.5 2.5
    endloop
  endfacet
  facet normal -0.707107 0.707107 0
    outer loop
      vertex 4.16506 -1.25 6
      vertex 4.16506 -1.25 2.5
      vertex 3.25 -2.16506 6
    endloop
  endfacet
  facet normal -0.707107 0.707107 0
    outer loop
      vertex 3.25 -2.16506 6
      vertex 4.16506 -1.25 2.5
      vertex 3.25 -2.16506 2.5
    endloop
  endfacet
  facet normal -0.965926 0.258819 0
    outer loop
      vertex 4.5 0 6
      vertex 4.5 0 2.5
      vertex 4.16506 -1.25 6
    endloop
  endfacet
  facet normal -0.965926 0.258819 0
    outer loop
      vertex 4.16506 -1.25 6
      vertex 4.5 0 2.5
      vertex 4.16506 -1.25 2.5
    endloop
  endfacet
  facet normal -0.965926 -0.258819 0
    outer loop
      vertex 4.5 0 6
      vertex 4.16506 1.25 6
      vertex 4.5 0 2.5
    endloop
  endfacet
  facet normal -0.965926 -0.258819 0
    outer loop
      vertex 4.5 0 2.5
      vertex 4.16506 1.25 6
      vertex 4.16506 1.25 2.5
    endloop
  endfacet
  facet normal -0.707107 -0.707107 0
    outer loop
      vertex 4.16506 1.25 2.5
      vertex 4.16506 1.25 6
      vertex 3.25 2.16506 6
    endloop
  endfacet
  facet normal -0.707107 -0.707107 0
    outer loop
      vertex 3.25 2.16506 2.5
      vertex 4.16506 1.25 2.5
      vertex 3.25 2.16506 6
    endloop
  endfacet
  facet normal -0.258819 -0.965926 0
    outer loop
      vertex 3.25 2.16506 2.5
      vertex 3.25 2.16506 6
      vertex 2 2.5 6
    endloop
  endfacet
  facet normal -0.258819 -0.965926 0
    outer loop
      vertex 2 2.5 2.5
      vertex 3.25 2.16506 2.5
      vertex 2 2.5 6
    endloop
  endfacet
  facet normal 0.258819 -0.965926 0
    outer loop
      vertex 2 2.5 2.5
      vertex 2 2.5 6
      vertex 0.75 2.16506 6
    endloop
  endfacet
  facet normal 0.258819 -0.965926 0
    outer loop
      vertex 0.75 2.16506 2.5
      vertex 2 2.5 2.5
      vertex 0.75 2.16506 6
    endloop
  endfacet
  facet normal 0.707107 -0.707107 0
    outer loop
      vertex 0.75 2.16506 2.5
      vertex 0.75 2.16506 6
      vertex -0.165064 1.25 6
    endloop
  endfacet
  facet normal 0.707107 -0.707107 0
    outer loop
      vertex -0.165064 1.25 2.5
      vertex 0.75 2.16506 2.5
      vertex -0.165064 1.25 6
    endloop
  endfacet
  facet normal 0.965926 -0.258819 0
    outer loop
      vertex -0.165064 1.25 2.5
      vertex -0.165064 1.25 6
      vertex -0.5 0 6
    endloop
  endfacet
  facet normal 0.965926 -0.258819 0
    outer loop
      vertex -0.5 0 2.5
      vertex -0.165064 1.25 2.5
      vertex -0.5 0 6
    endloop
  endfacet
endsolid OpenSCAD_Model
