  0
SECTION
  2
HEADER
  9
$ACADVER
  1
AC1009
  9
$EXTMAX
 10
502.5
 20
494.235382080078
 30
0.0
  9
$EXTMIN
 10
5.0
 20
12.6879291534424
 30
0.0
  9
$INSUNITS
 70
     4
  9
$LUNITS
 70
     2
  9
$LUPREC
 70
     4
  9
$MEASUREMENT
 70
     1
  0
ENDSEC
  0
SECTION
  2
TABLES
  0
TABLE
  2
LAYER
 70
     1
  0
LAYER
  2
0
 70
     0
 62
     7
  6
Continuous
  0
LAYER
  2
Default
 70
     0
 62
    70
  6
Continuous
  0
ENDTAB
  0
TABLE
  2
APPID
 70
     1
  0
APPID
  2
ACAD
 70
     0
  0
ENDTAB
  0
ENDSEC
  0
SECTION
  2
ENTITIES
  0
CIRCLE
  8
Default
 10
164.005715275288
 20
305.41213804769
 30
0.0
 40
4.0
  0
CIRCLE
  8
Default
 10
224.000820817502
 20
305.43655864319
 30
0.0
 40
4.0
  0
CIRCLE
  8
Default
 10
194.0
 20
133.0
 30
0.0
 40
20.0
  0
CIRCLE
  8
Default
 10
164.005715275288
 20
305.41213804769
 30
0.0
 40
4.0
  0
CIRCLE
  8
Default
 10
224.000820817502
 20
305.43655864319
 30
0.0
 40
4.0
  0
CIRCLE
  8
Default
 10
358.32024952628
 20
72.7965278580697
 30
0.0
 40
4.0
  0
CIRCLE
  8
Default
 10
328.352317334966
 20
20.822146422946
 30
0.0
 40
4.0
  0
CIRCLE
  8
Default
 10
59.694296592005
 20
20.805612910419
 30
0.0
 40
4.0
  0
CIRCLE
  8
Default
 10
29.670758552639
 20
72.7478928852681
 30
0.0
 40
4.0
  0
CIRCLE
  8
Default
 10
50.0
 20
318.0
 30
0.0
 40
16.0
  0
CIRCLE
  8
Default
 10
16.0
 20
352.0
 30
0.0
 40
2.0
  0
CIRCLE
  8
Default
 10
84.0
 20
352.0
 30
0.0
 40
2.0
  0
CIRCLE
  8
Default
 10
84.0
 20
284.0
 30
0.0
 40
2.0
  0
CIRCLE
  8
Default
 10
16.0
 20
284.0
 30
0.0
 40
2.0
  0
CIRCLE
  8
Default
 10
220.0
 20
448.0
 30
0.0
 40
16.0
  0
CIRCLE
  8
Default
 10
186.0
 20
482.0
 30
0.0
 40
2.0
  0
CIRCLE
  8
Default
 10
254.0
 20
482.0
 30
0.0
 40
2.0
  0
CIRCLE
  8
Default
 10
254.0
 20
414.0
 30
0.0
 40
2.0
  0
CIRCLE
  8
Default
 10
186.0
 20
414.0
 30
0.0
 40
2.0
  0
CIRCLE
  8
Default
 10
374.0
 20
474.0
 30
0.0
 40
2.0
  0
CIRCLE
  8
Default
 10
374.0
 20
424.0
 30
0.0
 40
2.0
  0
LINE
  8
Default
 10
182.005715275288
 20
289.41213804769
 30
0.0
 11
206.005715275288
 21
289.41213804769
 31
0.0
  0
LINE
  8
Default
 10
206.005715275288
 20
289.41213804769
 30
0.0
 11
206.005715275288
 21
294.41213804769
 31
0.0
  0
LINE
  8
Default
 10
206.005715275288
 20
294.41213804769
 30
0.0
 11
182.005715275288
 21
294.41213804769
 31
0.0
  0
LINE
  8
Default
 10
182.005715275288
 20
294.41213804769
 30
0.0
 11
182.005715275288
 21
289.41213804769
 31
0.0
  0
LINE
  8
Default
 10
162.005715275288
 20
254.41213804769
 30
0.0
 11
167.005715275288
 21
254.41213804769
 31
0.0
  0
LINE
  8
Default
 10
167.005715275288
 20
254.41213804769
 30
0.0
 11
167.005715275288
 21
278.41213804769
 31
0.0
  0
LINE
  8
Default
 10
167.005715275288
 20
278.41213804769
 30
0.0
 11
162.005715275288
 21
278.41213804769
 31
0.0
  0
LINE
  8
Default
 10
162.005715275288
 20
278.41213804769
 30
0.0
 11
162.005715275288
 21
254.41213804769
 31
0.0
  0
LINE
  8
Default
 10
221.005715275288
 20
254.41213804769
 30
0.0
 11
226.005715275288
 21
254.41213804769
 31
0.0
  0
LINE
  8
Default
 10
226.005715275288
 20
254.41213804769
 30
0.0
 11
226.005715275288
 21
278.41213804769
 31
0.0
  0
LINE
  8
Default
 10
226.005715275288
 20
278.41213804769
 30
0.0
 11
221.005715275288
 21
278.41213804769
 31
0.0
  0
LINE
  8
Default
 10
221.005715275288
 20
278.41213804769
 30
0.0
 11
221.005715275288
 21
254.41213804769
 31
0.0
  0
ARC
  8
Default
 10
104.362653335037
 20
338.492775948222
 30
0.0
 40
60.9701506078369
 50
300.922690859693
 51
327.052687380124
  0
ARC
  8
Default
 10
164.372711931553
 20
303.298357702598
 30
0.0
 40
9.0766769177487
 50
51.8026796877865
 51
167.045854659679
  0
ARC
  8
Default
 10
156.491269382803
 20
295.965792793136
 30
0.0
 40
19.7826378739403
 50
28.6945106111958
 51
46.9901956507993
  0
ARC
  8
Default
 10
181.305214610673
 20
307.52473438126
 30
0.0
 40
7.7400788481074
 50
195.439095342631
 51
270.821109365678
  0
LINE
  8
Default
 10
181.416134363282
 20
299.785450345679
 30
0.0
 11
207.075750330355
 21
299.995775066721
 31
0.0
  0
ARC
  8
Default
 10
206.85256143717
 20
308.427925227803
 30
0.0
 40
8.4351034149601
 50
271.516196493444
 51
346.898210516491
  0
ARC
  8
Default
 10
228.607518648589
 20
299.897508966815
 30
0.0
 40
15.0704498901349
 50
135.654043599787
 51
153.949728639391
  0
ARC
  8
Default
 10
223.546945654453
 20
303.254349024246
 30
0.0
 40
9.1757559327273
 50
13.2947365793849
 51
128.537911551277
  0
ARC
  8
Default
 10
283.614164612841
 20
338.565739044294
 30
0.0
 40
60.9701506078358
 50
212.99395632407
 51
239.123952844501
  0
ARC
  8
Default
 10
194.738149249522
 20
133.478042235253
 30
0.0
 40
163.252483607544
 50
-9.3589165792351
 51
69.3444319965692
  0
ARC
  8
Default
 10
417.510460020754
 20
111.231564393127
 30
0.0
 40
61.8426486504132
 50
183.988365133514
 51
210.118361653945
  0
ARC
  8
Default
 10
357.288388738479
 20
73.4111674725381
 30
0.0
 40
9.5582381314692
 50
-69.9899478171372
 51
45.2532271547549
  0
ARC
  8
Default
 10
357.545067845754
 20
83.0733499327797
 30
0.0
 40
18.8854744311048
 50
260.887640791375
 51
279.183325830979
  0
ARC
  8
Default
 10
352.169008084121
 20
56.6397731921478
 30
0.0
 40
8.1435634724154
 50
72.9690996939613
 51
148.351113717009
  0
LINE
  8
Default
 10
345.236559072907
 20
60.9128021806022
 30
0.0
 11
332.000428231218
 21
38.1049197462079
 31
0.0
  0
ARC
  8
Default
 10
339.176665538169
 20
35.0258372224977
 30
0.0
 40
7.8089135655026
 50
156.777453199195
 51
232.159467222243
  0
ARC
  8
Default
 10
325.608673929508
 20
22.9609924829304
 30
0.0
 40
10.5749936519806
 50
15.6031984832327
 51
33.8988835228362
  0
ARC
  8
Default
 10
327.872325851786
 20
21.8991158447446
 30
0.0
 40
8.8323909475727
 50
-88.9945926260519
 51
26.2485823458404
  0
LINE
  8
Default
 10
328.027305770733
 20
13.0680847002243
 30
0.0
 11
62.402384332295
 21
12.816130728682
 31
0.0
  0
ARC
  8
Default
 10
60.8846873771118
 20
21.7248915979442
 30
0.0
 40
9.0371137136516
 50
164.424919104276
 51
279.668094076168
  0
ARC
  8
Default
 10
71.0985879492668
 20
19.6190443167744
 30
0.0
 40
19.4544797934888
 50
148.232292532159
 51
166.527977571762
  0
ARC
  8
Default
 10
49.7637276088858
 20
34.5993466297066
 30
0.0
 40
6.7408535443074
 50
315.341942548543
 51
390.723956571591
  0
LINE
  8
Default
 10
55.558426373322
 20
38.0432648539453
 30
0.0
 11
42.404791639198
 21
60.6753503763034
 31
0.0
  0
ARC
  8
Default
 10
35.2430070967373
 20
56.7299578173255
 30
0.0
 40
8.176630129648
 50
28.850156846409
 51
104.232170869456
  0
ARC
  8
Default
 10
29.7428688185618
 20
86.2427234226804
 30
0.0
 40
21.8673766172767
 50
260.887640791375
 51
279.183325830978
  0
ARC
  8
Default
 10
30.8066861394829
 20
72.6381393571346
 30
0.0
 40
9.1805662835053
 50
125.212000571987
 51
240.455175543879
  0
ARC
  8
Default
 10
-28.8110501019693
 20
107.819953844672
 30
0.0
 40
60.9701506078355
 50
332.998733303239
 51
359.12872982367
  0
ARC
  8
Default
 10
193.997267166269
 20
132.973857640194
 30
0.0
 40
163.933197117128
 50
110.83342439574
 51
189.154392185932
  0
LINE
  8
Default
 10
144.0
 20
22.538242659524
 30
0.0
 11
244.0
 21
22.538242659524
 31
0.0
  0
LINE
  8
Default
 10
244.0
 20
22.538242659524
 30
0.0
 11
244.0
 21
37.4981557959578
 31
0.0
  0
LINE
  8
Default
 10
244.0
 20
37.4981557959578
 30
0.0
 11
144.0
 21
37.4981557959578
 31
0.0
  0
LINE
  8
Default
 10
144.0
 20
37.4981557959578
 30
0.0
 11
144.0
 21
22.538242659524
 31
0.0
  0
LINE
  8
Default
 10
182.005715275288
 20
289.41213804769
 30
0.0
 11
206.005715275288
 21
289.41213804769
 31
0.0
  0
LINE
  8
Default
 10
206.005715275288
 20
289.41213804769
 30
0.0
 11
206.005715275288
 21
294.41213804769
 31
0.0
  0
LINE
  8
Default
 10
206.005715275288
 20
294.41213804769
 30
0.0
 11
182.005715275288
 21
294.41213804769
 31
0.0
  0
LINE
  8
Default
 10
182.005715275288
 20
294.41213804769
 30
0.0
 11
182.005715275288
 21
289.41213804769
 31
0.0
  0
LINE
  8
Default
 10
162.005715275288
 20
254.41213804769
 30
0.0
 11
167.005715275288
 21
254.41213804769
 31
0.0
  0
LINE
  8
Default
 10
167.005715275288
 20
254.41213804769
 30
0.0
 11
167.005715275288
 21
278.41213804769
 31
0.0
  0
LINE
  8
Default
 10
167.005715275288
 20
278.41213804769
 30
0.0
 11
162.005715275288
 21
278.41213804769
 31
0.0
  0
LINE
  8
Default
 10
162.005715275288
 20
278.41213804769
 30
0.0
 11
162.005715275288
 21
254.41213804769
 31
0.0
  0
LINE
  8
Default
 10
221.005715275288
 20
254.41213804769
 30
0.0
 11
226.005715275288
 21
254.41213804769
 31
0.0
  0
LINE
  8
Default
 10
226.005715275288
 20
254.41213804769
 30
0.0
 11
226.005715275288
 21
278.41213804769
 31
0.0
  0
LINE
  8
Default
 10
226.005715275288
 20
278.41213804769
 30
0.0
 11
221.005715275288
 21
278.41213804769
 31
0.0
  0
LINE
  8
Default
 10
221.005715275288
 20
278.41213804769
 30
0.0
 11
221.005715275288
 21
254.41213804769
 31
0.0
  0
LINE
  8
Default
 10
335.465080331382
 20
65.2043449656049
 30
0.0
 11
323.468468501229
 21
44.4177794821822
 31
0.0
  0
LINE
  8
Default
 10
323.468468501229
 20
44.4177794821822
 30
0.0
 11
327.799002976942
 21
41.9184853509002
 31
0.0
  0
LINE
  8
Default
 10
327.799002976942
 20
41.9184853509002
 30
0.0
 11
339.795614807095
 21
62.705050834323
 31
0.0
  0
LINE
  8
Default
 10
339.795614807095
 20
62.705050834323
 30
0.0
 11
335.465080331382
 21
65.2043449656049
 31
0.0
  0
LINE
  8
Default
 10
315.148515526519
 20
100.021541787431
 30
0.0
 11
312.649221395237
 21
95.691007311718
 31
0.0
  0
LINE
  8
Default
 10
312.649221395237
 20
95.691007311718
 30
0.0
 11
333.435786878659
 21
83.6943954815645
 31
0.0
  0
LINE
  8
Default
 10
333.435786878659
 20
83.6943954815645
 30
0.0
 11
335.935081009941
 21
88.0249299572776
 31
0.0
  0
LINE
  8
Default
 10
335.935081009941
 20
88.0249299572776
 30
0.0
 11
315.148515526519
 21
100.021541787431
 31
0.0
  0
LINE
  8
Default
 10
285.656844777391
 20
48.9212349740168
 30
0.0
 11
283.157550646109
 21
44.5907004983038
 31
0.0
  0
LINE
  8
Default
 10
283.157550646109
 20
44.5907004983038
 30
0.0
 11
303.944116129532
 21
32.5940886681503
 31
0.0
  0
LINE
  8
Default
 10
303.944116129532
 20
32.5940886681503
 30
0.0
 11
306.443410260814
 21
36.9246231438634
 31
0.0
  0
LINE
  8
Default
 10
306.443410260814
 20
36.9246231438634
 30
0.0
 11
285.656844777391
 21
48.9212349740168
 31
0.0
  0
LINE
  8
Default
 10
64.5485067391536
 20
44.3945222503473
 30
0.0
 11
52.5465715616294
 21
65.1780145457847
 31
0.0
  0
LINE
  8
Default
 10
52.5465715616294
 20
65.1780145457847
 30
0.0
 11
48.2166773334133
 21
62.6776113838005
 31
0.0
  0
LINE
  8
Default
 10
48.2166773334133
 20
62.6776113838005
 30
0.0
 11
60.2186125109375
 21
41.8941190883631
 31
0.0
  0
LINE
  8
Default
 10
60.2186125109375
 20
41.8941190883631
 30
0.0
 11
64.5485067391536
 21
44.3945222503473
 31
0.0
  0
LINE
  8
Default
 10
104.859378984603
 20
44.5777674713721
 30
0.0
 11
102.358975822619
 21
48.9076616995883
 31
0.0
  0
LINE
  8
Default
 10
102.358975822619
 20
48.9076616995883
 30
0.0
 11
81.5754835271817
 21
36.9057265220641
 31
0.0
  0
LINE
  8
Default
 10
81.5754835271817
 20
36.9057265220641
 30
0.0
 11
84.0758866891659
 21
32.575832293848
 31
0.0
  0
LINE
  8
Default
 10
84.0758866891659
 20
32.575832293848
 30
0.0
 11
104.859378984603
 21
44.5777674713721
 31
0.0
  0
LINE
  8
Default
 10
75.3546216731898
 20
95.6705193643225
 30
0.0
 11
72.8542185112056
 21
100.000413592539
 31
0.0
  0
LINE
  8
Default
 10
72.8542185112056
 20
100.000413592539
 30
0.0
 11
52.0707262157681
 21
87.9984784150145
 31
0.0
  0
LINE
  8
Default
 10
52.0707262157681
 20
87.9984784150145
 30
0.0
 11
54.5711293777524
 21
83.6685841867984
 31
0.0
  0
LINE
  8
Default
 10
54.5711293777524
 20
83.6685841867984
 30
0.0
 11
75.3546216731898
 21
95.6705193643225
 31
0.0
  0
LINE
  8
Default
 10
339.564557134845
 20
155.331850671914
 30
0.0
 11
348.214779534057
 21
157.81653424214
 31
0.0
  0
LINE
  8
Default
 10
348.214779534057
 20
157.81653424214
 30
0.0
 11
334.410981921687
 21
205.873325348879
 31
0.0
  0
LINE
  8
Default
 10
334.410981921687
 20
205.873325348879
 30
0.0
 11
325.760759522474
 21
203.388641778652
 31
0.0
  0
LINE
  8
Default
 10
325.760759522474
 20
203.388641778652
 30
0.0
 11
339.564557134845
 21
155.331850671914
 31
0.0
  0
LINE
  8
Default
 10
5.0
 20
273.0
 30
0.0
 11
95.0
 21
273.0
 31
0.0
  0
LINE
  8
Default
 10
95.0
 20
273.0
 30
0.0
 11
95.0
 21
363.0
 31
0.0
  0
LINE
  8
Default
 10
95.0
 20
363.0
 30
0.0
 11
5.0
 21
363.0
 31
0.0
  0
LINE
  8
Default
 10
5.0
 20
363.0
 30
0.0
 11
5.0
 21
273.0
 31
0.0
  0
LINE
  8
Default
 10
163.0
 20
341.5
 30
0.0
 11
211.0
 21
341.5
 31
0.0
  0
LINE
  8
Default
 10
211.0
 20
341.5
 30
0.0
 11
211.0
 21
368.5
 31
0.0
  0
LINE
  8
Default
 10
211.0
 20
368.5
 30
0.0
 11
163.0
 21
368.5
 31
0.0
  0
LINE
  8
Default
 10
163.0
 20
368.5
 30
0.0
 11
163.0
 21
341.5
 31
0.0
  0
LINE
  8
Default
 10
212.0
 20
328.5
 30
0.0
 11
232.0
 21
328.5
 31
0.0
  0
LINE
  8
Default
 10
232.0
 20
328.5
 30
0.0
 11
232.0
 21
381.5
 31
0.0
  0
LINE
  8
Default
 10
232.0
 20
381.5
 30
0.0
 11
212.0
 21
381.5
 31
0.0
  0
LINE
  8
Default
 10
212.0
 20
381.5
 30
0.0
 11
212.0
 21
386.0
 31
0.0
  0
LINE
  8
Default
 10
212.0
 20
386.0
 30
0.0
 11
162.0
 21
386.0
 31
0.0
  0
LINE
  8
Default
 10
162.0
 20
386.0
 30
0.0
 11
162.0
 21
381.5
 31
0.0
  0
LINE
  8
Default
 10
162.0
 20
381.5
 30
0.0
 11
142.0
 21
381.5
 31
0.0
  0
LINE
  8
Default
 10
142.0
 20
381.5
 30
0.0
 11
142.0
 21
328.5
 31
0.0
  0
LINE
  8
Default
 10
142.0
 20
328.5
 30
0.0
 11
162.0
 21
328.5
 31
0.0
  0
LINE
  8
Default
 10
162.0
 20
328.5
 30
0.0
 11
162.0
 21
324.0
 31
0.0
  0
LINE
  8
Default
 10
162.0
 20
324.0
 30
0.0
 11
212.0
 21
324.0
 31
0.0
  0
LINE
  8
Default
 10
212.0
 20
324.0
 30
0.0
 11
212.0
 21
328.5
 31
0.0
  0
LINE
  8
Default
 10
12.0
 20
424.0
 30
0.0
 11
12.0
 21
404.235376355822
 31
0.0
  0
LINE
  8
Default
 10
12.0
 20
404.235376355822
 30
0.0
 11
498.0
 21
404.235376355822
 31
0.0
  0
LINE
  8
Default
 10
498.0
 20
404.235376355822
 30
0.0
 11
498.0
 21
424.0
 31
0.0
  0
LINE
  8
Default
 10
498.0
 20
424.0
 30
0.0
 11
502.5
 21
424.0
 31
0.0
  0
LINE
  8
Default
 10
502.5
 20
424.0
 30
0.0
 11
502.5
 21
474.0
 31
0.0
  0
LINE
  8
Default
 10
502.5
 20
474.0
 30
0.0
 11
498.0
 21
474.0
 31
0.0
  0
LINE
  8
Default
 10
498.0
 20
474.0
 30
0.0
 11
498.0
 21
494.235376355822
 31
0.0
  0
LINE
  8
Default
 10
498.0
 20
494.235376355822
 30
0.0
 11
12.0
 21
494.235376355822
 31
0.0
  0
LINE
  8
Default
 10
12.0
 20
494.235376355822
 30
0.0
 11
12.0
 21
474.0
 31
0.0
  0
LINE
  8
Default
 10
12.0
 20
474.0
 30
0.0
 11
7.5
 21
474.0
 31
0.0
  0
LINE
  8
Default
 10
7.5
 20
474.0
 30
0.0
 11
7.5
 21
424.0
 31
0.0
  0
LINE
  8
Default
 10
7.5
 20
424.0
 30
0.0
 11
12.0
 21
424.0
 31
0.0
  0
CIRCLE
  8
Default
 10
309.000006731554
 20
352.999991257722
 30
0.0
 40
1.6
  0
CIRCLE
  8
Default
 10
308.0
 20
322.0
 30
0.0
 40
1.6
  0
LINE
  8
Default
 10
313.50000410887
 20
382.999991651125
 30
0.0
 11
354.00000410887
 21
382.999995191747
 31
0.0
  0
LINE
  8
Default
 10
354.00000410887
 20
382.999995191747
 30
0.0
 11
354.000004983098
 21
372.999995191747
 31
0.0
  0
LINE
  8
Default
 10
354.000004983098
 20
372.999995191747
 30
0.0
 11
319.000007605782
 21
342.99999213195
 31
0.0
  0
LINE
  8
Default
 10
319.000007605782
 20
342.99999213195
 30
0.0
 11
299.000007605782
 21
342.999990383495
 31
0.0
  0
LINE
  8
Default
 10
299.000007605782
 20
342.999990383495
 30
0.0
 11
264.000004983098
 21
372.999987323697
 31
0.0
  0
LINE
  8
Default
 10
264.000004983098
 20
372.999987323697
 30
0.0
 11
264.00000410887
 21
382.999987323697
 31
0.0
  0
LINE
  8
Default
 10
264.00000410887
 20
382.999987323697
 30
0.0
 11
304.50000410887
 21
382.99999086432
 31
0.0
  0
LINE
  8
Default
 10
304.50000410887
 20
382.99999086432
 30
0.0
 11
304.500004983098
 21
372.99999086432
 31
0.0
  0
LINE
  8
Default
 10
304.500004983098
 20
372.99999086432
 30
0.0
 11
313.500004983098
 21
372.999991651125
 31
0.0
  0
LINE
  8
Default
 10
313.500004983098
 20
372.999991651125
 30
0.0
 11
313.50000410887
 21
382.999991651125
 31
0.0
  0
LINE
  8
Default
 10
348.0
 20
311.999999562886
 30
0.0
 11
347.999999606598
 21
320.999999562886
 31
0.0
  0
LINE
  8
Default
 10
347.999999606598
 20
320.999999562886
 30
0.0
 11
337.999999606598
 21
320.999999125772
 31
0.0
  0
LINE
  8
Default
 10
337.999999606598
 20
320.999999125772
 30
0.0
 11
337.999998295256
 21
350.999999125772
 31
0.0
  0
LINE
  8
Default
 10
337.999998295256
 20
350.999999125772
 30
0.0
 11
347.999998295256
 21
350.999999562886
 31
0.0
  0
LINE
  8
Default
 10
347.999998295256
 20
350.999999562886
 30
0.0
 11
347.999997901853
 21
359.999999562886
 31
0.0
  0
LINE
  8
Default
 10
347.999997901853
 20
359.999999562886
 30
0.0
 11
357.999997901853
 21
360.0
 31
0.0
  0
LINE
  8
Default
 10
357.999997901853
 20
360.0
 30
0.0
 11
358.0
 21
312.0
 31
0.0
  0
LINE
  8
Default
 10
358.0
 20
312.0
 30
0.0
 11
349.0
 21
311.999999606598
 31
0.0
  0
LINE
  8
Default
 10
303.5
 20
292.0
 30
0.0
 11
263.0
 21
292.0
 31
0.0
  0
LINE
  8
Default
 10
263.0
 20
292.0
 30
0.0
 11
263.0
 21
302.0
 31
0.0
  0
LINE
  8
Default
 10
263.0
 20
302.0
 30
0.0
 11
298.0
 21
332.0
 31
0.0
  0
LINE
  8
Default
 10
298.0
 20
332.0
 30
0.0
 11
318.0
 21
332.0
 31
0.0
  0
LINE
  8
Default
 10
318.0
 20
332.0
 30
0.0
 11
353.0
 21
302.0
 31
0.0
  0
LINE
  8
Default
 10
353.0
 20
302.0
 30
0.0
 11
353.0
 21
292.0
 31
0.0
  0
LINE
  8
Default
 10
353.0
 20
292.0
 30
0.0
 11
312.5
 21
292.0
 31
0.0
  0
LINE
  8
Default
 10
312.5
 20
292.0
 30
0.0
 11
312.5
 21
302.0
 31
0.0
  0
LINE
  8
Default
 10
312.5
 20
302.0
 30
0.0
 11
303.5
 21
302.0
 31
0.0
  0
LINE
  8
Default
 10
303.5
 20
302.0
 30
0.0
 11
303.5
 21
292.0
 31
0.0
  0
ENDSEC
  0
EOF
