  0
SECTION
  2
HEADER
  9
$ACADVER
  1
AC1009
  9
$EXTMAX
 10
423.0
 20
404.911834716797
 30
0.0
  9
$EXTMIN
 10
-590.2236328125
 20
7.0
 30
0.0
  9
$INSUNITS
 70
     4
  9
$LUNITS
 70
     2
  9
$LUPREC
 70
     4
  9
$MEASUREMENT
 70
     1
  0
ENDSEC
  0
SECTION
  2
TABLES
  0
TABLE
  2
LAYER
 70
     1
  0
LAYER
  2
0
 70
     0
 62
     7
  6
Continuous
  0
LAYER
  2
Default
 70
     0
 62
    70
  6
Continuous
  0
ENDTAB
  0
TABLE
  2
APPID
 70
     1
  0
APPID
  2
ACAD
 70
     0
  0
ENDTAB
  0
ENDSEC
  0
SECTION
  2
ENTITIES
  0
CIRCLE
  8
Default
 10
-149.499986799161
 20
153.000037635505
 30
0.0
 40
1.6
  0
CIRCLE
  8
Default
 10
-204.5
 20
151.0
 30
0.0
 40
1.6
  0
CIRCLE
  8
Default
 10
-37.5
 20
270.0
 30
0.0
 40
1.6
  0
CIRCLE
  8
Default
 10
-109.5
 20
301.0
 30
0.0
 40
1.6
  0
CIRCLE
  8
Default
 10
-407.5
 20
150.0
 30
0.0
 40
1.6
  0
CIRCLE
  8
Default
 10
-406.5
 20
309.0
 30
0.0
 40
1.6
  0
CIRCLE
  8
Default
 10
-118.0
 20
23.0
 30
0.0
 40
1.6
  0
CIRCLE
  8
Default
 10
-136.0
 20
23.0
 30
0.0
 40
1.6
  0
CIRCLE
  8
Default
 10
-268.0
 20
23.0
 30
0.0
 40
1.6
  0
CIRCLE
  8
Default
 10
-286.0
 20
23.0
 30
0.0
 40
1.6
  0
CIRCLE
  8
Default
 10
-35.3879314821518
 20
93.1547596455589
 30
0.0
 40
1.6
  0
CIRCLE
  8
Default
 10
-42.9568073713396
 20
95.745535161514
 30
0.0
 40
1.6
  0
CIRCLE
  8
Default
 10
-19.8432783864212
 20
138.568014980685
 30
0.0
 40
1.6
  0
CIRCLE
  8
Default
 10
-27.4121542756089
 20
141.158790496641
 30
0.0
 40
1.6
  0
CIRCLE
  8
Default
 10
-18.0
 20
329.0
 30
0.0
 40
1.6
  0
CIRCLE
  8
Default
 10
-36.0
 20
329.0
 30
0.0
 40
1.6
  0
CIRCLE
  8
Default
 10
-337.001841147844
 20
393.303404025008
 30
0.0
 40
1.6
  0
CIRCLE
  8
Default
 10
-386.998158852156
 20
392.696595974992
 30
0.0
 40
1.6
  0
CIRCLE
  8
Default
 10
-369.901123289962
 20
259.425278679697
 30
0.0
 40
4.0
  0
CIRCLE
  8
Default
 10
-370.368450155941
 20
199.43198829663
 30
0.0
 40
4.0
  0
CIRCLE
  8
Default
 10
-37.5
 20
270.0
 30
0.0
 40
15.0
  0
CIRCLE
  8
Default
 10
-475.905888490201
 20
256.298930449713
 30
0.0
 40
4.0
  0
CIRCLE
  8
Default
 10
-475.438561624223
 20
316.292220832781
 30
0.0
 40
4.0
  0
CIRCLE
  8
Default
 10
-477.29907482688
 20
141.924003908772
 30
0.0
 40
4.0
  0
CIRCLE
  8
Default
 10
-476.831747960901
 20
201.91729429184
 30
0.0
 40
4.0
  0
CIRCLE
  8
Default
 10
-24.1854073573181
 20
169.40229728286
 30
0.0
 40
2.0
  0
CIRCLE
  8
Default
 10
-31.193335462553
 20
193.399983497824
 30
0.0
 40
6.0
  0
CIRCLE
  8
Default
 10
-38.201263567787
 20
217.397669712788
 30
0.0
 40
2.0
  0
CIRCLE
  8
Default
 10
-532.994284724712
 20
38.4121380476901
 30
0.0
 40
4.0
  0
CIRCLE
  8
Default
 10
-472.999179182498
 20
38.4365586431901
 30
0.0
 40
4.0
  0
CIRCLE
  8
Default
 10
-442.994284724712
 20
38.4121380476901
 30
0.0
 40
4.0
  0
CIRCLE
  8
Default
 10
-382.999179182498
 20
38.4365586431901
 30
0.0
 40
4.0
  0
CIRCLE
  8
Default
 10
-362.0
 20
393.0
 30
0.0
 40
3.0
  0
CIRCLE
  8
Default
 10
-233.994284724712
 20
34.4121380476901
 30
0.0
 40
4.0
  0
CIRCLE
  8
Default
 10
-173.999179182498
 20
34.4365586431901
 30
0.0
 40
4.0
  0
CIRCLE
  8
Default
 10
-204.515399599856
 20
379.614602001237
 30
0.0
 40
2.0
  0
CIRCLE
  8
Default
 10
-204.504598522114
 20
348.574603880478
 30
0.0
 40
2.0
  0
CIRCLE
  8
Default
 10
-188.990000000605
 20
364.1
 30
0.0
 40
11.0
  0
CIRCLE
  8
Default
 10
-173.495401477886
 20
379.625396119522
 30
0.0
 40
2.0
  0
CIRCLE
  8
Default
 10
-173.484600400144
 20
348.585397998762
 30
0.0
 40
2.0
  0
CIRCLE
  8
Default
 10
-149.499986799161
 20
153.000037635505
 30
0.0
 40
15.0
  0
CIRCLE
  8
Default
 10
-407.5
 20
150.0
 30
0.0
 40
15.0
  0
CIRCLE
  8
Default
 10
-204.5
 20
151.0
 30
0.0
 40
15.0
  0
CIRCLE
  8
Default
 10
-109.5
 20
301.0
 30
0.0
 40
15.0
  0
CIRCLE
  8
Default
 10
-406.5
 20
309.0
 30
0.0
 40
15.0
  0
CIRCLE
  8
Default
 10
-127.0
 20
23.0
 30
0.0
 40
2.5
  0
CIRCLE
  8
Default
 10
-277.0
 20
23.0
 30
0.0
 40
2.5
  0
CIRCLE
  8
Default
 10
-27.0
 20
329.0
 30
0.0
 40
4.4
  0
CIRCLE
  8
Default
 10
-176.228614784154
 20
150.18410731617
 30
0.0
 40
70.0
  0
CIRCLE
  8
Default
 10
-94.515399599856
 20
381.614602001237
 30
0.0
 40
2.0
  0
CIRCLE
  8
Default
 10
-94.504598522114
 20
350.574603880478
 30
0.0
 40
2.0
  0
CIRCLE
  8
Default
 10
-78.990000000605
 20
366.1
 30
0.0
 40
11.0
  0
CIRCLE
  8
Default
 10
-63.495401477886
 20
381.625396119522
 30
0.0
 40
2.0
  0
CIRCLE
  8
Default
 10
-63.484600400144
 20
350.585397998762
 30
0.0
 40
2.0
  0
CIRCLE
  8
Default
 10
-304.515399599856
 20
365.614602001237
 30
0.0
 40
2.0
  0
CIRCLE
  8
Default
 10
-304.504598522114
 20
334.574603880478
 30
0.0
 40
2.0
  0
CIRCLE
  8
Default
 10
-288.990000000605
 20
350.1
 30
0.0
 40
11.0
  0
CIRCLE
  8
Default
 10
-273.495401477886
 20
365.625396119522
 30
0.0
 40
2.0
  0
CIRCLE
  8
Default
 10
-273.484600400144
 20
334.585397998762
 30
0.0
 40
2.0
  0
CIRCLE
  8
Default
 10
27.0
 20
255.0
 30
0.0
 40
1.6
  0
CIRCLE
  8
Default
 10
27.0
 20
238.0
 30
0.0
 40
1.6
  0
CIRCLE
  8
Default
 10
13.0
 20
238.0
 30
0.0
 40
1.6
  0
CIRCLE
  8
Default
 10
13.0
 20
255.0
 30
0.0
 40
1.6
  0
CIRCLE
  8
Default
 10
73.0
 20
238.0
 30
0.0
 40
1.6
  0
CIRCLE
  8
Default
 10
73.0
 20
255.0
 30
0.0
 40
1.6
  0
CIRCLE
  8
Default
 10
87.0
 20
238.0
 30
0.0
 40
1.6
  0
CIRCLE
  8
Default
 10
87.0
 20
255.0
 30
0.0
 40
1.6
  0
CIRCLE
  8
Default
 10
13.0
 20
184.0
 30
0.0
 40
1.6
  0
CIRCLE
  8
Default
 10
13.0
 20
201.0
 30
0.0
 40
1.6
  0
CIRCLE
  8
Default
 10
27.0
 20
184.0
 30
0.0
 40
1.6
  0
CIRCLE
  8
Default
 10
27.0
 20
201.0
 30
0.0
 40
1.6
  0
CIRCLE
  8
Default
 10
109.0
 20
236.5
 30
0.0
 40
1.6
  0
CIRCLE
  8
Default
 10
109.0
 20
253.5
 30
0.0
 40
1.6
  0
CIRCLE
  8
Default
 10
122.5
 20
259.5
 30
0.0
 40
1.6
  0
CIRCLE
  8
Default
 10
88.8565520194259
 20
196.267031657304
 30
0.0
 40
1.6
  0
CIRCLE
  8
Default
 10
111.875345696195
 20
179.04582033308
 30
0.0
 40
1.6
  0
CIRCLE
  8
Default
 10
309.0
 20
280.0
 30
0.0
 40
2.0
  0
CIRCLE
  8
Default
 10
327.9
 20
280.0
 30
0.0
 40
2.0
  0
CIRCLE
  8
Default
 10
380.9
 20
285.0
 30
0.0
 40
2.0
  0
CIRCLE
  8
Default
 10
381.0
 20
325.0
 30
0.0
 40
2.0
  0
CIRCLE
  8
Default
 10
362.1
 20
325.0
 30
0.0
 40
2.0
  0
CIRCLE
  8
Default
 10
309.1
 20
330.0
 30
0.0
 40
2.0
  0
CIRCLE
  8
Default
 10
162.0
 20
280.0
 30
0.0
 40
2.0
  0
CIRCLE
  8
Default
 10
180.9
 20
280.0
 30
0.0
 40
2.0
  0
CIRCLE
  8
Default
 10
233.9
 20
285.0
 30
0.0
 40
2.0
  0
CIRCLE
  8
Default
 10
234.0
 20
325.0
 30
0.0
 40
2.0
  0
CIRCLE
  8
Default
 10
215.1
 20
325.0
 30
0.0
 40
2.0
  0
CIRCLE
  8
Default
 10
162.1
 20
330.0
 30
0.0
 40
2.0
  0
CIRCLE
  8
Default
 10
157.0
 20
255.0
 30
0.0
 40
1.6
  0
CIRCLE
  8
Default
 10
157.0
 20
238.0
 30
0.0
 40
1.6
  0
CIRCLE
  8
Default
 10
143.0
 20
238.0
 30
0.0
 40
1.6
  0
CIRCLE
  8
Default
 10
143.0
 20
255.0
 30
0.0
 40
1.6
  0
CIRCLE
  8
Default
 10
203.0
 20
238.0
 30
0.0
 40
1.6
  0
CIRCLE
  8
Default
 10
203.0
 20
255.0
 30
0.0
 40
1.6
  0
CIRCLE
  8
Default
 10
217.0
 20
238.0
 30
0.0
 40
1.6
  0
CIRCLE
  8
Default
 10
217.0
 20
255.0
 30
0.0
 40
1.6
  0
CIRCLE
  8
Default
 10
143.0
 20
184.0
 30
0.0
 40
1.6
  0
CIRCLE
  8
Default
 10
143.0
 20
201.0
 30
0.0
 40
1.6
  0
CIRCLE
  8
Default
 10
157.0
 20
184.0
 30
0.0
 40
1.6
  0
CIRCLE
  8
Default
 10
157.0
 20
201.0
 30
0.0
 40
1.6
  0
CIRCLE
  8
Default
 10
239.0
 20
236.5
 30
0.0
 40
1.6
  0
CIRCLE
  8
Default
 10
239.0
 20
253.5
 30
0.0
 40
1.6
  0
CIRCLE
  8
Default
 10
252.5
 20
259.5
 30
0.0
 40
1.6
  0
CIRCLE
  8
Default
 10
218.856552019426
 20
196.267031657304
 30
0.0
 40
1.6
  0
CIRCLE
  8
Default
 10
241.875345696195
 20
179.04582033308
 30
0.0
 40
1.6
  0
CIRCLE
  8
Default
 10
16.0
 20
280.0
 30
0.0
 40
2.0
  0
CIRCLE
  8
Default
 10
34.9
 20
280.0
 30
0.0
 40
2.0
  0
CIRCLE
  8
Default
 10
87.9
 20
285.0
 30
0.0
 40
2.0
  0
CIRCLE
  8
Default
 10
88.0
 20
325.0
 30
0.0
 40
2.0
  0
CIRCLE
  8
Default
 10
69.1
 20
325.0
 30
0.0
 40
2.0
  0
CIRCLE
  8
Default
 10
16.1
 20
330.0
 30
0.0
 40
2.0
  0
CIRCLE
  8
Default
 10
290.0
 20
255.0
 30
0.0
 40
1.6
  0
CIRCLE
  8
Default
 10
290.0
 20
238.0
 30
0.0
 40
1.6
  0
CIRCLE
  8
Default
 10
276.0
 20
238.0
 30
0.0
 40
1.6
  0
CIRCLE
  8
Default
 10
276.0
 20
255.0
 30
0.0
 40
1.6
  0
CIRCLE
  8
Default
 10
336.0
 20
238.0
 30
0.0
 40
1.6
  0
CIRCLE
  8
Default
 10
336.0
 20
255.0
 30
0.0
 40
1.6
  0
CIRCLE
  8
Default
 10
350.0
 20
238.0
 30
0.0
 40
1.6
  0
CIRCLE
  8
Default
 10
350.0
 20
255.0
 30
0.0
 40
1.6
  0
CIRCLE
  8
Default
 10
276.0
 20
184.0
 30
0.0
 40
1.6
  0
CIRCLE
  8
Default
 10
276.0
 20
201.0
 30
0.0
 40
1.6
  0
CIRCLE
  8
Default
 10
290.0
 20
184.0
 30
0.0
 40
1.6
  0
CIRCLE
  8
Default
 10
290.0
 20
201.0
 30
0.0
 40
1.6
  0
CIRCLE
  8
Default
 10
372.0
 20
236.5
 30
0.0
 40
1.6
  0
CIRCLE
  8
Default
 10
372.0
 20
253.5
 30
0.0
 40
1.6
  0
CIRCLE
  8
Default
 10
385.5
 20
259.5
 30
0.0
 40
1.6
  0
CIRCLE
  8
Default
 10
351.856552019426
 20
196.267031657304
 30
0.0
 40
1.6
  0
CIRCLE
  8
Default
 10
374.875345696195
 20
179.04582033308
 30
0.0
 40
1.6
  0
CIRCLE
  8
Default
 10
286.888314795116
 20
150.151569479002
 30
0.0
 40
1.6
  0
CIRCLE
  8
Default
 10
306.386864603114
 20
151.601411121639
 30
0.0
 40
3.5
  0
CIRCLE
  8
Default
 10
316.0
 20
61.5
 30
0.0
 40
1.6
  0
CIRCLE
  8
Default
 10
36.018546094267
 20
63.99434392099
 30
0.0
 40
2.0
  0
CIRCLE
  8
Default
 10
11.865440578038
 20
106.207046064583
 30
0.0
 40
2.0
  0
CIRCLE
  8
Default
 10
60.30789131684
 20
105.908398042265
 30
0.0
 40
2.0
  0
CIRCLE
  8
Default
 10
13.1081940018261
 20
130.085738098178
 30
0.0
 40
1.6
  0
CIRCLE
  8
Default
 10
148.722824409438
 20
120.413692461313
 30
0.0
 40
1.6
  0
CIRCLE
  8
Default
 10
164.66722914145
 20
59.0224235445994
 30
0.0
 40
2.0
  0
CIRCLE
  8
Default
 10
142.088348132544
 20
16.162718032217
 30
0.0
 40
2.0
  0
CIRCLE
  8
Default
 10
190.503419341557
 20
17.8183460244593
 30
0.0
 40
2.0
  0
CIRCLE
  8
Default
 10
177.91297561057
 20
84.6766336242993
 30
0.0
 40
1.6
  0
CIRCLE
  8
Default
 10
188.599038123845
 20
114.176367158486
 30
0.0
 40
1.6
  0
CIRCLE
  8
Default
 10
68.8071695442222
 20
131.533548171174
 30
0.0
 40
1.6
  0
CIRCLE
  8
Default
 10
130.0
 20
58.0
 30
0.0
 40
3.0
  0
CIRCLE
  8
Default
 10
149.0
 20
152.0
 30
0.0
 40
2.5
  0
CIRCLE
  8
Default
 10
77.0
 20
148.0
 30
0.0
 40
1.6
  0
CIRCLE
  8
Default
 10
189.0
 20
152.0
 30
0.0
 40
2.5
  0
CIRCLE
  8
Default
 10
108.749566411208
 20
135.879629976909
 30
0.0
 40
2.0
  0
CIRCLE
  8
Default
 10
132.890583658547
 20
93.8799691391572
 30
0.0
 40
2.0
  0
CIRCLE
  8
Default
 10
84.3833562714541
 20
93.8628003059019
 30
0.0
 40
2.0
  0
CIRCLE
  8
Default
 10
129.528074257657
 20
120.054307049539
 30
0.0
 40
1.6
  0
CIRCLE
  8
Default
 10
123.797851290178
 20
125.984276940884
 30
0.0
 40
1.6
  0
CIRCLE
  8
Default
 10
131.793579280094
 20
112.125405160716
 30
0.0
 40
1.6
  0
CIRCLE
  8
Default
 10
73.7
 20
41.2
 30
0.0
 40
21.5
  0
CIRCLE
  8
Default
 10
73.7
 20
41.2
 30
0.0
 40
1.6
  0
LINE
  8
Default
 10
-180.0
 20
196.0
 30
0.0
 11
-175.0
 21
196.0
 31
0.0
  0
LINE
  8
Default
 10
-175.0
 20
196.0
 30
0.0
 11
-175.0
 21
208.0
 31
0.0
  0
LINE
  8
Default
 10
-175.0
 20
208.0
 30
0.0
 11
-180.0
 21
208.0
 31
0.0
  0
LINE
  8
Default
 10
-180.0
 20
208.0
 30
0.0
 11
-180.0
 21
196.0
 31
0.0
  0
LINE
  8
Default
 10
-180.0
 20
95.0
 30
0.0
 11
-175.0
 21
95.0
 31
0.0
  0
LINE
  8
Default
 10
-175.0
 20
95.0
 30
0.0
 11
-175.0
 21
107.0
 31
0.0
  0
LINE
  8
Default
 10
-175.0
 20
107.0
 30
0.0
 11
-180.0
 21
107.0
 31
0.0
  0
LINE
  8
Default
 10
-180.0
 20
107.0
 30
0.0
 11
-180.0
 21
95.0
 31
0.0
  0
LINE
  8
Default
 10
-28.5778102770306
 20
94.5230612101121
 30
0.0
 11
-15.3000857577607
 21
133.313550142199
 31
0.0
  0
LINE
  8
Default
 10
-15.3000857577607
 20
133.313550142199
 30
0.0
 11
-34.2222754807301
 21
139.790488932087
 31
0.0
  0
LINE
  8
Default
 10
-34.2222754807301
 20
139.790488932087
 30
0.0
 11
-47.5
 21
101.0
 31
0.0
  0
LINE
  8
Default
 10
-47.5
 20
101.0
 30
0.0
 11
-28.5778102770306
 21
94.5230612101121
 31
0.0
  0
LINE
  8
Default
 10
-59.9335749350989
 20
114.707100285314
 30
0.0
 11
-59.5794246864165
 21
119.694542275088
 31
0.0
  0
LINE
  8
Default
 10
-59.5794246864165
 20
119.694542275088
 30
0.0
 11
-73.5442622577829
 21
120.686162971399
 31
0.0
  0
LINE
  8
Default
 10
-73.5442622577829
 20
120.686162971399
 30
0.0
 11
-73.8984125064654
 21
115.698720981625
 31
0.0
  0
LINE
  8
Default
 10
-73.8984125064654
 20
115.698720981625
 30
0.0
 11
-59.9335749350989
 21
114.707100285314
 31
0.0
  0
LINE
  8
Default
 10
-57.5961832937947
 20
147.624217417821
 30
0.0
 11
-57.2420330451122
 21
152.611659407594
 31
0.0
  0
LINE
  8
Default
 10
-57.2420330451122
 20
152.611659407594
 30
0.0
 11
-71.2068706164786
 21
153.603280103905
 31
0.0
  0
LINE
  8
Default
 10
-71.2068706164786
 20
153.603280103905
 30
0.0
 11
-71.5610208651611
 21
148.615838114131
 31
0.0
  0
LINE
  8
Default
 10
-71.5610208651611
 20
148.615838114131
 30
0.0
 11
-57.5961832937947
 21
147.624217417821
 31
0.0
  0
LINE
  8
Default
 10
-63.5723121290574
 20
126.995696284585
 30
0.0
 11
-62.5806914327465
 21
140.960533855951
 31
0.0
  0
LINE
  8
Default
 10
-62.5806914327465
 20
140.960533855951
 30
0.0
 11
-67.5681334225202
 21
141.314684104634
 31
0.0
  0
LINE
  8
Default
 10
-67.5681334225202
 20
141.314684104634
 30
0.0
 11
-68.5597541188311
 21
127.349846533268
 31
0.0
  0
LINE
  8
Default
 10
-68.5597541188311
 20
127.349846533268
 30
0.0
 11
-63.5723121290574
 21
126.995696284585
 31
0.0
  0
LINE
  8
Default
 10
-483.0
 20
29.0
 30
0.0
 11
-478.0
 21
29.0
 31
0.0
  0
LINE
  8
Default
 10
-478.0
 20
29.0
 30
0.0
 11
-478.0
 21
47.0
 31
0.0
  0
LINE
  8
Default
 10
-478.0
 20
47.0
 30
0.0
 11
-483.0
 21
47.0
 31
0.0
  0
LINE
  8
Default
 10
-483.0
 20
47.0
 30
0.0
 11
-483.0
 21
29.0
 31
0.0
  0
LINE
  8
Default
 10
-528.0
 20
29.0
 30
0.0
 11
-523.0
 21
29.0
 31
0.0
  0
LINE
  8
Default
 10
-523.0
 20
29.0
 30
0.0
 11
-523.0
 21
47.0
 31
0.0
  0
LINE
  8
Default
 10
-523.0
 20
47.0
 30
0.0
 11
-528.0
 21
47.0
 31
0.0
  0
LINE
  8
Default
 10
-528.0
 20
47.0
 30
0.0
 11
-528.0
 21
29.0
 31
0.0
  0
LINE
  8
Default
 10
-534.667521799787
 20
89.4735844862075
 30
0.0
 11
-555.464942439111
 21
101.451367868411
 31
0.0
  0
LINE
  8
Default
 10
-555.464942439111
 20
101.451367868411
 30
0.0
 11
-557.96031397707
 21
97.1185719018848
 31
0.0
  0
LINE
  8
Default
 10
-557.96031397707
 20
97.1185719018848
 30
0.0
 11
-537.162893337746
 21
85.1407885196815
 31
0.0
  0
LINE
  8
Default
 10
-537.162893337746
 20
85.1407885196815
 30
0.0
 11
-534.667521799787
 21
89.4735844862075
 31
0.0
  0
LINE
  8
Default
 10
-444.536340716252
 20
85.4557254307827
 30
0.0
 11
-442.04382484991
 21
76.8077566140006
 31
0.0
  0
LINE
  8
Default
 10
-442.04382484991
 20
76.8077566140006
 30
0.0
 11
-393.999553645565
 21
90.6550669825639
 31
0.0
  0
LINE
  8
Default
 10
-393.999553645565
 20
90.6550669825639
 30
0.0
 11
-396.492069511907
 21
99.3030357993459
 31
0.0
  0
LINE
  8
Default
 10
-396.492069511907
 20
99.3030357993459
 30
0.0
 11
-444.536340716252
 21
85.4557254307827
 31
0.0
  0
LINE
  8
Default
 10
-310.598787656166
 20
243.135920734991
 30
0.0
 11
-310.577054162083
 21
219.135930575509
 31
0.0
  0
LINE
  8
Default
 10
-310.577054162083
 20
219.135930575509
 30
0.0
 11
-305.577056212191
 21
219.140458386776
 31
0.0
  0
LINE
  8
Default
 10
-305.577056212191
 20
219.140458386776
 30
0.0
 11
-305.598789706273
 21
243.140448546258
 31
0.0
  0
LINE
  8
Default
 10
-305.598789706273
 20
243.140448546258
 30
0.0
 11
-310.598787656166
 21
243.135920734991
 31
0.0
  0
LINE
  8
Default
 10
-528.297232218498
 20
145.337227747774
 30
0.0
 11
-528.338214448358
 21
140.337395704911
 31
0.0
  0
LINE
  8
Default
 10
-528.338214448358
 20
140.337395704911
 30
0.0
 11
-504.339020642617
 21
140.140681001585
 31
0.0
  0
LINE
  8
Default
 10
-504.339020642617
 20
140.140681001585
 30
0.0
 11
-504.298038412758
 21
145.140513044448
 31
0.0
  0
LINE
  8
Default
 10
-504.298038412758
 20
145.140513044448
 30
0.0
 11
-528.297232218498
 21
145.337227747774
 31
0.0
  0
LINE
  8
Default
 10
-492.978746525556
 20
184.049042073085
 30
0.0
 11
-493.175461228882
 21
160.049848267345
 31
0.0
  0
LINE
  8
Default
 10
-493.175461228882
 20
160.049848267345
 30
0.0
 11
-488.175629186019
 21
160.008866037485
 31
0.0
  0
LINE
  8
Default
 10
-488.175629186019
 20
160.008866037485
 30
0.0
 11
-487.978914482693
 21
184.008059843226
 31
0.0
  0
LINE
  8
Default
 10
-487.978914482693
 20
184.008059843226
 30
0.0
 11
-492.978746525556
 21
184.049042073085
 31
0.0
  0
LINE
  8
Default
 10
-527.813641906156
 20
204.335245853552
 30
0.0
 11
-527.854624136016
 21
199.33541381069
 31
0.0
  0
LINE
  8
Default
 10
-527.854624136016
 20
199.33541381069
 30
0.0
 11
-503.855430330275
 21
199.138699107364
 31
0.0
  0
LINE
  8
Default
 10
-503.855430330275
 20
199.138699107364
 30
0.0
 11
-503.814448100415
 21
204.138531150227
 31
0.0
  0
LINE
  8
Default
 10
-503.814448100415
 20
204.138531150227
 30
0.0
 11
-527.813641906156
 21
204.335245853552
 31
0.0
  0
LINE
  8
Default
 10
-526.90404588182
 20
259.712154288714
 30
0.0
 11
-526.94502811168
 21
254.712322245852
 31
0.0
  0
LINE
  8
Default
 10
-526.94502811168
 20
254.712322245852
 30
0.0
 11
-502.945834305939
 21
254.515607542526
 31
0.0
  0
LINE
  8
Default
 10
-502.945834305939
 20
254.515607542526
 30
0.0
 11
-502.90485207608
 21
259.515439585389
 31
0.0
  0
LINE
  8
Default
 10
-502.90485207608
 20
259.515439585389
 30
0.0
 11
-526.90404588182
 21
259.712154288714
 31
0.0
  0
LINE
  8
Default
 10
-491.585560188877
 20
298.423968614026
 30
0.0
 11
-491.782274892203
 21
274.424774808285
 31
0.0
  0
LINE
  8
Default
 10
-491.782274892203
 20
274.424774808285
 30
0.0
 11
-486.782442849341
 21
274.383792578426
 31
0.0
  0
LINE
  8
Default
 10
-486.782442849341
 20
274.383792578426
 30
0.0
 11
-486.585728146015
 21
298.382986384166
 31
0.0
  0
LINE
  8
Default
 10
-486.585728146015
 20
298.382986384166
 30
0.0
 11
-491.585560188877
 21
298.423968614026
 31
0.0
  0
LINE
  8
Default
 10
-526.420455569478
 20
318.710172394493
 30
0.0
 11
-526.461437799337
 21
313.710340351631
 31
0.0
  0
LINE
  8
Default
 10
-526.461437799337
 20
313.710340351631
 30
0.0
 11
-502.462243993597
 21
313.513625648305
 31
0.0
  0
LINE
  8
Default
 10
-502.462243993597
 20
313.513625648305
 30
0.0
 11
-502.421261763737
 21
318.513457691167
 31
0.0
  0
LINE
  8
Default
 10
-502.421261763737
 20
318.513457691167
 30
0.0
 11
-526.420455569478
 21
318.710172394493
 31
0.0
  0
LINE
  8
Default
 10
-386.048121854617
 20
241.557026460943
 30
0.0
 11
-386.244836557943
 21
217.557832655202
 31
0.0
  0
LINE
  8
Default
 10
-386.244836557943
 20
217.557832655202
 30
0.0
 11
-381.24500451508
 21
217.516850425343
 31
0.0
  0
LINE
  8
Default
 10
-381.24500451508
 20
217.516850425343
 30
0.0
 11
-381.048289811754
 21
241.516044231083
 31
0.0
  0
LINE
  8
Default
 10
-381.048289811754
 20
241.516044231083
 30
0.0
 11
-386.048121854617
 21
241.557026460943
 31
0.0
  0
LINE
  8
Default
 10
-421.366607547559
 20
202.845212135631
 30
0.0
 11
-421.407589777419
 21
197.845380092768
 31
0.0
  0
LINE
  8
Default
 10
-421.407589777419
 20
197.845380092768
 30
0.0
 11
-397.408395971678
 21
197.648665389443
 31
0.0
  0
LINE
  8
Default
 10
-397.408395971678
 20
197.648665389443
 30
0.0
 11
-397.367413741819
 21
202.648497432305
 31
0.0
  0
LINE
  8
Default
 10
-397.367413741819
 20
202.648497432305
 30
0.0
 11
-421.366607547559
 21
202.845212135631
 31
0.0
  0
LINE
  8
Default
 10
-420.883017235217
 20
261.84323024141
 30
0.0
 11
-420.923999465076
 21
256.843398198547
 31
0.0
  0
LINE
  8
Default
 10
-420.923999465076
 20
256.843398198547
 30
0.0
 11
-396.924805659336
 21
256.646683495221
 31
0.0
  0
LINE
  8
Default
 10
-396.924805659336
 20
256.646683495221
 30
0.0
 11
-396.883823429476
 21
261.646515538084
 31
0.0
  0
LINE
  8
Default
 10
-396.883823429476
 20
261.646515538084
 30
0.0
 11
-420.883017235217
 21
261.84323024141
 31
0.0
  0
LINE
  8
Default
 10
-555.722667805443
 20
360.371202406842
 30
0.0
 11
-534.950052531151
 21
372.391953409431
 31
0.0
  0
LINE
  8
Default
 10
-534.950052531151
 20
372.391953409431
 30
0.0
 11
-537.45437565669
 21
376.719581591575
 31
0.0
  0
LINE
  8
Default
 10
-537.45437565669
 20
376.719581591575
 30
0.0
 11
-558.226990930983
 21
364.698830588986
 31
0.0
  0
LINE
  8
Default
 10
-558.226990930983
 20
364.698830588986
 30
0.0
 11
-555.722667805443
 21
360.371202406842
 31
0.0
  0
LINE
  8
Default
 10
-438.0
 20
29.0
 30
0.0
 11
-433.0
 21
29.0
 31
0.0
  0
LINE
  8
Default
 10
-433.0
 20
29.0
 30
0.0
 11
-433.0
 21
47.0
 31
0.0
  0
LINE
  8
Default
 10
-433.0
 20
47.0
 30
0.0
 11
-438.0
 21
47.0
 31
0.0
  0
LINE
  8
Default
 10
-438.0
 20
47.0
 30
0.0
 11
-438.0
 21
29.0
 31
0.0
  0
LINE
  8
Default
 10
-393.0
 20
29.0
 30
0.0
 11
-388.0
 21
29.0
 31
0.0
  0
LINE
  8
Default
 10
-388.0
 20
29.0
 30
0.0
 11
-388.0
 21
47.0
 31
0.0
  0
LINE
  8
Default
 10
-388.0
 20
47.0
 30
0.0
 11
-393.0
 21
47.0
 31
0.0
  0
LINE
  8
Default
 10
-393.0
 20
47.0
 30
0.0
 11
-393.0
 21
29.0
 31
0.0
  0
LINE
  8
Default
 10
-335.646697686557
 20
33.8301052906243
 30
0.0
 11
-338.147345880177
 21
38.1598580100924
 31
0.0
  0
LINE
  8
Default
 10
-338.147345880177
 20
38.1598580100924
 30
0.0
 11
-353.734455670263
 21
29.1575245130579
 31
0.0
  0
LINE
  8
Default
 10
-353.734455670263
 20
29.1575245130579
 30
0.0
 11
-351.233807476642
 21
24.8277717935898
 31
0.0
  0
LINE
  8
Default
 10
-351.233807476642
 20
24.8277717935898
 30
0.0
 11
-335.646697686557
 21
33.8301052906243
 31
0.0
  0
LINE
  8
Default
 10
-358.152531429143
 20
72.7978797658373
 30
0.0
 11
-360.653179622764
 21
77.1276324853054
 31
0.0
  0
LINE
  8
Default
 10
-360.653179622764
 20
77.1276324853054
 30
0.0
 11
-376.240289412849
 21
68.1252989882708
 31
0.0
  0
LINE
  8
Default
 10
-376.240289412849
 20
68.1252989882708
 30
0.0
 11
-373.739641219228
 21
63.7955462688027
 31
0.0
  0
LINE
  8
Default
 10
-373.739641219228
 20
63.7955462688027
 30
0.0
 11
-358.152531429143
 21
72.7978797658373
 31
0.0
  0
LINE
  8
Default
 10
-229.0
 20
25.0
 30
0.0
 11
-224.0
 21
25.0
 31
0.0
  0
LINE
  8
Default
 10
-224.0
 20
25.0
 30
0.0
 11
-224.0
 21
43.0
 31
0.0
  0
LINE
  8
Default
 10
-224.0
 20
43.0
 30
0.0
 11
-229.0
 21
43.0
 31
0.0
  0
LINE
  8
Default
 10
-229.0
 20
43.0
 30
0.0
 11
-229.0
 21
25.0
 31
0.0
  0
LINE
  8
Default
 10
-184.0
 20
25.0
 30
0.0
 11
-179.0
 21
25.0
 31
0.0
  0
LINE
  8
Default
 10
-179.0
 20
25.0
 30
0.0
 11
-179.0
 21
43.0
 31
0.0
  0
LINE
  8
Default
 10
-179.0
 20
43.0
 30
0.0
 11
-184.0
 21
43.0
 31
0.0
  0
LINE
  8
Default
 10
-184.0
 20
43.0
 30
0.0
 11
-184.0
 21
25.0
 31
0.0
  0
LINE
  8
Default
 10
-75.8115942717179
 20
38.2143623674391
 30
0.0
 11
-78.3104431017712
 21
33.8835709242337
 31
0.0
  0
LINE
  8
Default
 10
-78.3104431017712
 20
33.8835709242337
 30
0.0
 11
-62.7195939062318
 21
24.8877151360416
 31
0.0
  0
LINE
  8
Default
 10
-62.7195939062318
 20
24.8877151360416
 30
0.0
 11
-60.2207450761785
 21
29.218506579247
 31
0.0
  0
LINE
  8
Default
 10
-60.2207450761785
 20
29.218506579247
 30
0.0
 11
-75.8115942717179
 21
38.2143623674391
 31
0.0
  0
LINE
  8
Default
 10
-53.3219548012377
 20
77.1914853562875
 30
0.0
 11
-55.820803631291
 21
72.8606939130822
 31
0.0
  0
LINE
  8
Default
 10
-55.820803631291
 20
72.8606939130822
 30
0.0
 11
-40.2299544357516
 21
63.8648381248901
 31
0.0
  0
LINE
  8
Default
 10
-40.2299544357516
 20
63.8648381248901
 30
0.0
 11
-37.7311056056983
 21
68.1956295680955
 31
0.0
  0
LINE
  8
Default
 10
-37.7311056056983
 20
68.1956295680955
 30
0.0
 11
-53.3219548012377
 21
77.1914853562875
 31
0.0
  0
LINE
  8
Default
 10
-61.7019829554656
 20
159.030563687115
 30
0.0
 11
-53.0628159180785
 21
161.553417804999
 31
0.0
  0
LINE
  8
Default
 10
-53.0628159180785
 20
161.553417804999
 30
0.0
 11
-67.0786721285457
 21
209.548790234927
 31
0.0
  0
LINE
  8
Default
 10
-67.0786721285457
 20
209.548790234927
 30
0.0
 11
-75.7178391659328
 21
207.025936117043
 31
0.0
  0
LINE
  8
Default
 10
-75.7178391659328
 20
207.025936117043
 30
0.0
 11
-61.7019829554656
 21
159.030563687115
 31
0.0
  0
LINE
  8
Default
 10
-232.0
 20
300.0
 30
0.0
 11
-227.0
 21
300.0
 31
0.0
  0
LINE
  8
Default
 10
-227.0
 20
300.0
 30
0.0
 11
-227.0
 21
318.0
 31
0.0
  0
LINE
  8
Default
 10
-227.0
 20
318.0
 30
0.0
 11
-232.0
 21
318.0
 31
0.0
  0
LINE
  8
Default
 10
-232.0
 20
318.0
 30
0.0
 11
-232.0
 21
300.0
 31
0.0
  0
LINE
  8
Default
 10
-187.0
 20
300.0
 30
0.0
 11
-182.0
 21
300.0
 31
0.0
  0
LINE
  8
Default
 10
-182.0
 20
300.0
 30
0.0
 11
-182.0
 21
318.0
 31
0.0
  0
LINE
  8
Default
 10
-182.0
 20
318.0
 30
0.0
 11
-187.0
 21
318.0
 31
0.0
  0
LINE
  8
Default
 10
-187.0
 20
318.0
 30
0.0
 11
-187.0
 21
300.0
 31
0.0
  0
LINE
  8
Default
 10
-221.0
 20
354.5
 30
0.0
 11
-216.0
 21
354.5
 31
0.0
  0
LINE
  8
Default
 10
-216.0
 20
354.5
 30
0.0
 11
-216.0
 21
379.5
 31
0.0
  0
LINE
  8
Default
 10
-216.0
 20
379.5
 30
0.0
 11
-221.0
 21
379.5
 31
0.0
  0
LINE
  8
Default
 10
-221.0
 20
379.5
 30
0.0
 11
-221.0
 21
354.5
 31
0.0
  0
LINE
  8
Default
 10
-162.0
 20
354.5
 30
0.0
 11
-157.0
 21
354.5
 31
0.0
  0
LINE
  8
Default
 10
-157.0
 20
354.5
 30
0.0
 11
-157.0
 21
379.5
 31
0.0
  0
LINE
  8
Default
 10
-157.0
 20
379.5
 30
0.0
 11
-162.0
 21
379.5
 31
0.0
  0
LINE
  8
Default
 10
-162.0
 20
379.5
 30
0.0
 11
-162.0
 21
354.5
 31
0.0
  0
LINE
  8
Default
 10
-441.411741059622
 20
263.011532062035
 30
0.0
 11
-441.952706493768
 21
197.013749096248
 31
0.0
  0
ARC
  8
Default
 10
-434.95294163376
 20
196.956373974445
 30
0.0
 40
7.0
 50
179.53037298031
 51
269.53037298031
  0
LINE
  8
Default
 10
-435.010316755563
 20
189.956609114437
 30
0.0
 11
-369.012533789777
 21
189.415643680291
 31
0.0
  0
ARC
  8
Default
 10
-368.955158667973
 20
196.415408540299
 30
0.0
 40
7.0
 50
269.53037298031
 51
359.53037298031
  0
LINE
  8
Default
 10
-361.955393807966
 20
196.358033418496
 30
0.0
 11
-361.41442837382
 21
262.355816384282
 31
0.0
  0
ARC
  8
Default
 10
-368.414193233828
 20
262.413191506085
 30
0.0
 40
7.0
 50
359.53037298031
 51
449.53037298031
  0
LINE
  8
Default
 10
-368.356818112024
 20
269.412956366093
 30
0.0
 11
-434.354601077811
 21
269.953921800239
 31
0.0
  0
ARC
  8
Default
 10
-434.411976199614
 20
262.954156940231
 30
0.0
 40
7.0
 50
89.5303729803103
 51
179.53037298031
  0
LINE
  8
Default
 10
-546.949179393883
 20
319.878474215118
 30
0.0
 11
-547.490144828028
 21
253.880691249331
 31
0.0
  0
ARC
  8
Default
 10
-540.490379968021
 20
253.823316127528
 30
0.0
 40
7.0000000000001
 50
179.53037298031
 51
269.53037298031
  0
LINE
  8
Default
 10
-540.547755089824
 20
246.82355126752
 30
0.0
 11
-474.549972124038
 21
246.282585833374
 31
0.0
  0
ARC
  8
Default
 10
-474.492597002234
 20
253.282350693382
 30
0.0
 40
7.0
 50
269.53037298031
 51
359.53037298031
  0
LINE
  8
Default
 10
-467.492832142227
 20
253.224975571579
 30
0.0
 11
-466.951866708081
 21
319.222758537365
 31
0.0
  0
ARC
  8
Default
 10
-473.951631568088
 20
319.280133659169
 30
0.0
 40
7.0
 50
359.53037298031
 51
449.53037298031
  0
LINE
  8
Default
 10
-473.894256446285
 20
326.279898519176
 30
0.0
 11
-539.892039412072
 21
326.820863953322
 31
0.0
  0
ARC
  8
Default
 10
-539.949414533875
 20
319.821099093315
 30
0.0
 40
7.0
 50
89.5303729803103
 51
179.53037298031
  0
LINE
  8
Default
 10
-548.342365730561
 20
205.503547674177
 30
0.0
 11
-548.883331164707
 21
139.505764708391
 31
0.0
  0
ARC
  8
Default
 10
-541.883566304699
 20
139.448389586587
 30
0.0
 40
7.0
 50
179.53037298031
 51
269.53037298031
  0
LINE
  8
Default
 10
-541.940941426502
 20
132.44862472658
 30
0.0
 11
-475.943158460716
 21
131.907659292434
 31
0.0
  0
ARC
  8
Default
 10
-475.885783338913
 20
138.907424152441
 30
0.0
 40
7.0
 50
269.53037298031
 51
359.53037298031
  0
LINE
  8
Default
 10
-468.886018478905
 20
138.850049030638
 30
0.0
 11
-468.345053044759
 21
204.847831996425
 31
0.0
  0
ARC
  8
Default
 10
-475.344817904767
 20
204.905207118228
 30
0.0
 40
7.0
 50
359.53037298031
 51
449.53037298031
  0
LINE
  8
Default
 10
-475.287442782963
 20
211.904971978236
 30
0.0
 11
-541.28522574875
 21
212.445937412382
 31
0.0
  0
ARC
  8
Default
 10
-541.342600870553
 20
205.446172552374
 30
0.0
 40
7.0
 50
89.5303729803103
 51
179.53037298031
  0
LINE
  8
Default
 10
-227.0
 20
138.0
 30
0.0
 11
-227.0
 21
126.0
 31
0.0
  0
LINE
  8
Default
 10
-227.0
 20
126.0
 30
0.0
 11
-216.0
 21
126.0
 31
0.0
  0
LINE
  8
Default
 10
-216.0
 20
126.0
 30
0.0
 11
-216.0
 21
121.0
 31
0.0
  0
LINE
  8
Default
 10
-216.0
 20
121.0
 30
0.0
 11
-193.0
 21
121.0
 31
0.0
  0
LINE
  8
Default
 10
-193.0
 20
121.0
 30
0.0
 11
-193.0
 21
126.0
 31
0.0
  0
LINE
  8
Default
 10
-193.0
 20
126.0
 30
0.0
 11
-180.0
 21
126.0
 31
0.0
  0
LINE
  8
Default
 10
-180.0
 20
126.0
 30
0.0
 11
-180.0
 21
174.0
 31
0.0
  0
LINE
  8
Default
 10
-180.0
 20
174.0
 30
0.0
 11
-193.0
 21
174.0
 31
0.0
  0
LINE
  8
Default
 10
-193.0
 20
174.0
 30
0.0
 11
-193.0
 21
182.6
 31
0.0
  0
LINE
  8
Default
 10
-193.0
 20
182.6
 30
0.0
 11
-216.0
 21
182.6
 31
0.0
  0
LINE
  8
Default
 10
-216.0
 20
182.6
 30
0.0
 11
-216.0
 21
174.0
 31
0.0
  0
LINE
  8
Default
 10
-216.0
 20
174.0
 30
0.0
 11
-227.0
 21
174.0
 31
0.0
  0
LINE
  8
Default
 10
-227.0
 20
174.0
 30
0.0
 11
-227.0
 21
162.0
 31
0.0
  0
LINE
  8
Default
 10
-227.0
 20
162.0
 30
0.0
 11
-232.0
 21
162.0
 31
0.0
  0
LINE
  8
Default
 10
-232.0
 20
162.0
 30
0.0
 11
-232.0
 21
138.0
 31
0.0
  0
LINE
  8
Default
 10
-232.0
 20
138.0
 30
0.0
 11
-227.0
 21
138.0
 31
0.0
  0
LINE
  8
Default
 10
-126.999987935657
 20
166.000039602518
 30
0.0
 11
-126.99998898473
 21
178.000039602518
 31
0.0
  0
LINE
  8
Default
 10
-126.99998898473
 20
178.000039602518
 30
0.0
 11
-137.99998898473
 21
178.000038640867
 31
0.0
  0
LINE
  8
Default
 10
-137.99998898473
 20
178.000038640867
 30
0.0
 11
-137.999989421844
 21
183.000038640867
 31
0.0
  0
LINE
  8
Default
 10
-137.999989421844
 20
183.000038640867
 30
0.0
 11
-160.999989421844
 21
183.000036630143
 31
0.0
  0
LINE
  8
Default
 10
-160.999989421844
 20
183.000036630143
 30
0.0
 11
-160.99998898473
 21
178.000036630143
 31
0.0
  0
LINE
  8
Default
 10
-160.99998898473
 20
178.000036630143
 30
0.0
 11
-173.99998898473
 21
178.000035493647
 31
0.0
  0
LINE
  8
Default
 10
-173.99998898473
 20
178.000035493647
 30
0.0
 11
-173.999984788437
 21
130.000035493647
 31
0.0
  0
LINE
  8
Default
 10
-173.999984788437
 20
130.000035493647
 30
0.0
 11
-160.999984788437
 21
130.000036630143
 31
0.0
  0
LINE
  8
Default
 10
-160.999984788437
 20
130.000036630143
 30
0.0
 11
-160.999984036601
 21
121.400036630143
 31
0.0
  0
LINE
  8
Default
 10
-160.999984036601
 20
121.400036630143
 30
0.0
 11
-137.999984036601
 21
121.400038640867
 31
0.0
  0
LINE
  8
Default
 10
-137.999984036601
 20
121.400038640867
 30
0.0
 11
-137.999984788437
 21
130.000038640867
 31
0.0
  0
LINE
  8
Default
 10
-137.999984788437
 20
130.000038640867
 30
0.0
 11
-126.999984788437
 21
130.000039602518
 31
0.0
  0
LINE
  8
Default
 10
-126.999984788437
 20
130.000039602518
 30
0.0
 11
-126.99998583751
 21
142.000039602518
 31
0.0
  0
LINE
  8
Default
 10
-126.99998583751
 20
142.000039602518
 30
0.0
 11
-121.99998583751
 21
142.000040039632
 31
0.0
  0
LINE
  8
Default
 10
-121.99998583751
 20
142.000040039632
 30
0.0
 11
-121.999987935657
 21
166.000040039632
 31
0.0
  0
LINE
  8
Default
 10
-121.999987935657
 20
166.000040039632
 30
0.0
 11
-126.999987935657
 21
166.000039602518
 31
0.0
  0
LINE
  8
Default
 10
-394.609192911336
 20
127.437263184559
 30
0.0
 11
-382.609333828033
 21
127.379108383716
 31
0.0
  0
LINE
  8
Default
 10
-382.609333828033
 20
127.379108383716
 30
0.0
 11
-382.556025260593
 21
138.378979210077
 31
0.0
  0
LINE
  8
Default
 10
-382.556025260593
 20
138.378979210077
 30
0.0
 11
-377.556083975883
 21
138.354748043059
 31
0.0
  0
LINE
  8
Default
 10
-377.556083975883
 20
138.354748043059
 30
0.0
 11
-377.4446206076
 21
161.354477952724
 31
0.0
  0
LINE
  8
Default
 10
-377.4446206076
 20
161.354477952724
 30
0.0
 11
-382.44456189231
 21
161.378709119742
 31
0.0
  0
LINE
  8
Default
 10
-382.44456189231
 20
161.378709119742
 30
0.0
 11
-382.381560858063
 21
174.378556459987
 31
0.0
  0
LINE
  8
Default
 10
-382.381560858063
 20
174.378556459987
 30
0.0
 11
-430.380997191276
 21
174.611175663361
 31
0.0
  0
LINE
  8
Default
 10
-430.380997191276
 20
174.611175663361
 30
0.0
 11
-430.443998225523
 21
161.611328323116
 31
0.0
  0
LINE
  8
Default
 10
-430.443998225523
 20
161.611328323116
 30
0.0
 11
-439.043897235224
 21
161.653005930387
 31
0.0
  0
LINE
  8
Default
 10
-439.043897235224
 20
161.653005930387
 30
0.0
 11
-439.155360603507
 21
138.653276020722
 31
0.0
  0
LINE
  8
Default
 10
-439.155360603507
 20
138.653276020722
 30
0.0
 11
-430.555461593806
 21
138.611598413451
 31
0.0
  0
LINE
  8
Default
 10
-430.555461593806
 20
138.611598413451
 30
0.0
 11
-430.608770161246
 21
127.611727587089
 31
0.0
  0
LINE
  8
Default
 10
-430.608770161246
 20
127.611727587089
 30
0.0
 11
-418.608911077943
 21
127.553572786246
 31
0.0
  0
LINE
  8
Default
 10
-418.608911077943
 20
127.553572786246
 30
0.0
 11
-418.633142244961
 21
122.553631501536
 31
0.0
  0
LINE
  8
Default
 10
-418.633142244961
 20
122.553631501536
 30
0.0
 11
-394.633424078354
 21
122.437321899849
 31
0.0
  0
LINE
  8
Default
 10
-394.633424078354
 20
122.437321899849
 30
0.0
 11
-394.609192911336
 21
127.437263184559
 31
0.0
  0
LINE
  8
Default
 10
-419.372274111251
 20
331.573315201911
 30
0.0
 11
-431.372081391326
 21
331.641324326621
 31
0.0
  0
LINE
  8
Default
 10
-431.372081391326
 20
331.641324326621
 30
0.0
 11
-431.434423088977
 21
320.641500986552
 31
0.0
  0
LINE
  8
Default
 10
-431.434423088977
 20
320.641500986552
 30
0.0
 11
-436.434342789009
 21
320.669838121847
 31
0.0
  0
LINE
  8
Default
 10
-436.434342789009
 20
320.669838121847
 30
0.0
 11
-436.564693611369
 21
297.670207501703
 31
0.0
  0
LINE
  8
Default
 10
-436.564693611369
 20
297.670207501703
 30
0.0
 11
-431.564773911338
 21
297.641870366407
 31
0.0
  0
LINE
  8
Default
 10
-431.564773911338
 20
297.641870366407
 30
0.0
 11
-431.638450463107
 21
284.642079146325
 31
0.0
  0
LINE
  8
Default
 10
-431.638450463107
 20
284.642079146325
 30
0.0
 11
-383.639221342804
 21
284.370042647485
 31
0.0
  0
LINE
  8
Default
 10
-383.639221342804
 20
284.370042647485
 30
0.0
 11
-383.565544791035
 21
297.369833867567
 31
0.0
  0
LINE
  8
Default
 10
-383.565544791035
 20
297.369833867567
 30
0.0
 11
-374.965682906981
 21
297.321093994858
 31
0.0
  0
LINE
  8
Default
 10
-374.965682906981
 20
297.321093994858
 30
0.0
 11
-374.83533208462
 21
320.320724615003
 31
0.0
  0
LINE
  8
Default
 10
-374.83533208462
 20
320.320724615003
 30
0.0
 11
-383.435193968675
 21
320.369464487712
 31
0.0
  0
LINE
  8
Default
 10
-383.435193968675
 20
320.369464487712
 30
0.0
 11
-383.372852271024
 21
331.369287827781
 31
0.0
  0
LINE
  8
Default
 10
-383.372852271024
 20
331.369287827781
 30
0.0
 11
-395.372659551099
 21
331.437296952491
 31
0.0
  0
LINE
  8
Default
 10
-395.372659551099
 20
331.437296952491
 30
0.0
 11
-395.344322415804
 21
336.437216652522
 31
0.0
  0
LINE
  8
Default
 10
-395.344322415804
 20
336.437216652522
 30
0.0
 11
-419.343936975955
 21
336.573234901942
 31
0.0
  0
LINE
  8
Default
 10
-419.343936975955
 20
336.573234901942
 30
0.0
 11
-419.372274111251
 21
331.573315201911
 31
0.0
  0
LINE
  8
Default
 10
-170.0
 20
89.0
 30
0.0
 11
-155.0
 21
113.0
 31
0.0
  0
LINE
  8
Default
 10
-155.0
 20
113.0
 30
0.0
 11
-170.5
 21
113.0
 31
0.0
  0
LINE
  8
Default
 10
-170.5
 20
113.0
 30
0.0
 11
-170.5
 21
118.0
 31
0.0
  0
LINE
  8
Default
 10
-170.5
 20
118.0
 30
0.0
 11
-184.5
 21
118.0
 31
0.0
  0
LINE
  8
Default
 10
-184.5
 20
118.0
 30
0.0
 11
-184.5
 21
113.0
 31
0.0
  0
LINE
  8
Default
 10
-184.5
 20
113.0
 30
0.0
 11
-200.0
 21
113.0
 31
0.0
  0
LINE
  8
Default
 10
-200.0
 20
113.0
 30
0.0
 11
-185.0
 21
89.0
 31
0.0
  0
LINE
  8
Default
 10
-185.0
 20
89.0
 30
0.0
 11
-170.0
 21
89.0
 31
0.0
  0
LINE
  8
Default
 10
-185.0
 20
214.0
 30
0.0
 11
-200.0
 21
190.0
 31
0.0
  0
LINE
  8
Default
 10
-200.0
 20
190.0
 30
0.0
 11
-184.5
 21
190.0
 31
0.0
  0
LINE
  8
Default
 10
-184.5
 20
190.0
 30
0.0
 11
-184.5
 21
185.0
 31
0.0
  0
LINE
  8
Default
 10
-184.5
 20
185.0
 30
0.0
 11
-170.5
 21
185.0
 31
0.0
  0
LINE
  8
Default
 10
-170.5
 20
185.0
 30
0.0
 11
-170.5
 21
190.0
 31
0.0
  0
LINE
  8
Default
 10
-170.5
 20
190.0
 30
0.0
 11
-155.0
 21
190.0
 31
0.0
  0
LINE
  8
Default
 10
-155.0
 20
190.0
 30
0.0
 11
-170.0
 21
214.0
 31
0.0
  0
LINE
  8
Default
 10
-170.0
 20
214.0
 30
0.0
 11
-185.0
 21
214.0
 31
0.0
  0
LINE
  8
Default
 10
-50.5
 20
292.5
 30
0.0
 11
-62.5
 21
292.5
 31
0.0
  0
LINE
  8
Default
 10
-62.5
 20
292.5
 30
0.0
 11
-62.5
 21
281.5
 31
0.0
  0
LINE
  8
Default
 10
-62.5
 20
281.5
 30
0.0
 11
-67.5
 21
281.5
 31
0.0
  0
LINE
  8
Default
 10
-67.5
 20
281.5
 30
0.0
 11
-67.5
 21
258.5
 31
0.0
  0
LINE
  8
Default
 10
-67.5
 20
258.5
 30
0.0
 11
-62.5
 21
258.5
 31
0.0
  0
LINE
  8
Default
 10
-62.5
 20
258.5
 30
0.0
 11
-62.5
 21
245.5
 31
0.0
  0
LINE
  8
Default
 10
-62.5
 20
245.5
 30
0.0
 11
-14.5
 21
245.5
 31
0.0
  0
LINE
  8
Default
 10
-14.5
 20
245.5
 30
0.0
 11
-14.5
 21
258.5
 31
0.0
  0
LINE
  8
Default
 10
-14.5
 20
258.5
 30
0.0
 11
-5.9
 21
258.5
 31
0.0
  0
LINE
  8
Default
 10
-5.9
 20
258.5
 30
0.0
 11
-5.9
 21
281.5
 31
0.0
  0
LINE
  8
Default
 10
-5.9
 20
281.5
 30
0.0
 11
-14.5
 21
281.5
 31
0.0
  0
LINE
  8
Default
 10
-14.5
 20
281.5
 30
0.0
 11
-14.5
 21
292.5
 31
0.0
  0
LINE
  8
Default
 10
-14.5
 20
292.5
 30
0.0
 11
-26.5
 21
292.5
 31
0.0
  0
LINE
  8
Default
 10
-26.5
 20
292.5
 30
0.0
 11
-26.5
 21
297.5
 31
0.0
  0
LINE
  8
Default
 10
-26.5
 20
297.5
 30
0.0
 11
-50.5
 21
297.5
 31
0.0
  0
LINE
  8
Default
 10
-50.5
 20
297.5
 30
0.0
 11
-50.5
 21
292.5
 31
0.0
  0
LINE
  8
Default
 10
-132.0
 20
288.0
 30
0.0
 11
-132.0
 21
276.0
 31
0.0
  0
LINE
  8
Default
 10
-132.0
 20
276.0
 30
0.0
 11
-121.0
 21
276.0
 31
0.0
  0
LINE
  8
Default
 10
-121.0
 20
276.0
 30
0.0
 11
-121.0
 21
271.0
 31
0.0
  0
LINE
  8
Default
 10
-121.0
 20
271.0
 30
0.0
 11
-98.0
 21
271.0
 31
0.0
  0
LINE
  8
Default
 10
-98.0
 20
271.0
 30
0.0
 11
-98.0
 21
276.0
 31
0.0
  0
LINE
  8
Default
 10
-98.0
 20
276.0
 30
0.0
 11
-85.0
 21
276.0
 31
0.0
  0
LINE
  8
Default
 10
-85.0
 20
276.0
 30
0.0
 11
-85.0
 21
324.0
 31
0.0
  0
LINE
  8
Default
 10
-85.0
 20
324.0
 30
0.0
 11
-98.0
 21
324.0
 31
0.0
  0
LINE
  8
Default
 10
-98.0
 20
324.0
 30
0.0
 11
-98.0
 21
332.6
 31
0.0
  0
LINE
  8
Default
 10
-98.0
 20
332.6
 30
0.0
 11
-121.0
 21
332.6
 31
0.0
  0
LINE
  8
Default
 10
-121.0
 20
332.6
 30
0.0
 11
-121.0
 21
324.0
 31
0.0
  0
LINE
  8
Default
 10
-121.0
 20
324.0
 30
0.0
 11
-132.0
 21
324.0
 31
0.0
  0
LINE
  8
Default
 10
-132.0
 20
324.0
 30
0.0
 11
-132.0
 21
312.0
 31
0.0
  0
LINE
  8
Default
 10
-132.0
 20
312.0
 30
0.0
 11
-137.0
 21
312.0
 31
0.0
  0
LINE
  8
Default
 10
-137.0
 20
312.0
 30
0.0
 11
-137.0
 21
288.0
 31
0.0
  0
LINE
  8
Default
 10
-137.0
 20
288.0
 30
0.0
 11
-132.0
 21
288.0
 31
0.0
  0
LINE
  8
Default
 10
-177.5
 20
343.0
 30
0.0
 11
-152.0
 21
343.0
 31
0.0
  0
LINE
  8
Default
 10
-152.0
 20
343.0
 30
0.0
 11
-152.0
 21
391.0
 31
0.0
  0
LINE
  8
Default
 10
-152.0
 20
391.0
 30
0.0
 11
-177.5
 21
391.0
 31
0.0
  0
LINE
  8
Default
 10
-177.5
 20
391.0
 30
0.0
 11
-177.5
 21
399.6
 31
0.0
  0
LINE
  8
Default
 10
-177.5
 20
399.6
 30
0.0
 11
-200.5
 21
399.6
 31
0.0
  0
LINE
  8
Default
 10
-200.5
 20
399.6
 30
0.0
 11
-200.5
 21
391.0
 31
0.0
  0
LINE
  8
Default
 10
-200.5
 20
391.0
 30
0.0
 11
-226.0
 21
391.0
 31
0.0
  0
LINE
  8
Default
 10
-226.0
 20
391.0
 30
0.0
 11
-226.0
 21
343.0
 31
0.0
  0
LINE
  8
Default
 10
-226.0
 20
343.0
 30
0.0
 11
-200.5
 21
343.0
 31
0.0
  0
LINE
  8
Default
 10
-200.5
 20
343.0
 30
0.0
 11
-200.5
 21
333.0
 31
0.0
  0
LINE
  8
Default
 10
-200.5
 20
333.0
 30
0.0
 11
-177.5
 21
333.0
 31
0.0
  0
LINE
  8
Default
 10
-177.5
 20
333.0
 30
0.0
 11
-177.5
 21
343.0
 31
0.0
  0
LINE
  8
Default
 10
-394.05832413576
 20
397.611274618421
 30
0.0
 11
-393.936962525757
 21
387.612011077559
 31
0.0
  0
ARC
  8
Default
 10
-389.937257109412
 20
387.66055572156
 30
0.0
 40
4.0
 50
180.695367875227
 51
270.695367875227
  0
LINE
  8
Default
 10
-389.888712465411
 20
383.660850305216
 30
0.0
 11
-333.892836636582
 21
384.340475321233
 31
0.0
  0
ARC
  8
Default
 10
-333.941381280584
 20
388.340180737578
 30
0.0
 40
4.0
 50
270.695367875227
 51
360.695367875227
  0
LINE
  8
Default
 10
-329.941675864239
 20
388.388725381579
 30
0.0
 11
-330.063037474242
 21
398.387988922441
 31
0.0
  0
ARC
  8
Default
 10
-334.062742890587
 20
398.33944427844
 30
0.0
 40
4.0
 50
0.6953678752268
 51
90.6953678752268
  0
LINE
  8
Default
 10
-334.111287534588
 20
402.339149694785
 30
0.0
 11
-390.107163363417
 21
401.659524678768
 31
0.0
  0
ARC
  8
Default
 10
-390.058618719415
 20
397.659819262423
 30
0.0
 40
4.0
 50
90.6953678752268
 51
180.695367875227
  0
LINE
  8
Default
 10
-235.0
 20
7.0
 30
0.0
 11
-175.0
 21
7.0
 31
0.0
  0
ARC
  8
Default
 10
-175.0
 20
17.0
 30
0.0
 40
10.0
 50
270.0
 51
360.0
  0
LINE
  8
Default
 10
-165.0
 20
17.0
 30
0.0
 11
-165.0
 21
37.0
 31
0.0
  0
ARC
  8
Default
 10
-175.0
 20
37.0
 30
0.0
 40
10.0
 50
0.0
 51
90.0
  0
LINE
  8
Default
 10
-175.0
 20
47.0
 30
0.0
 11
-235.0
 21
47.0
 31
0.0
  0
ARC
  8
Default
 10
-235.0
 20
37.0
 30
0.0
 40
10.0
 50
90.0
 51
180.0
  0
LINE
  8
Default
 10
-245.0
 20
37.0
 30
0.0
 11
-245.0
 21
17.0
 31
0.0
  0
ARC
  8
Default
 10
-235.0
 20
17.0
 30
0.0
 40
10.0
 50
180.0
 51
270.0
  0
LINE
  8
Default
 10
-444.0
 20
11.0
 30
0.0
 11
-384.0
 21
11.0
 31
0.0
  0
ARC
  8
Default
 10
-384.0
 20
21.0
 30
0.0
 40
10.0
 50
270.0
 51
360.0
  0
LINE
  8
Default
 10
-374.0
 20
21.0
 30
0.0
 11
-374.0
 21
41.0
 31
0.0
  0
ARC
  8
Default
 10
-384.0
 20
41.0
 30
0.0
 40
10.0
 50
0.0
 51
90.0
  0
LINE
  8
Default
 10
-384.0
 20
51.0
 30
0.0
 11
-444.0
 21
51.0
 31
0.0
  0
ARC
  8
Default
 10
-444.0
 20
41.0
 30
0.0
 40
10.0
 50
90.0
 51
180.0
  0
LINE
  8
Default
 10
-454.0
 20
41.0
 30
0.0
 11
-454.0
 21
21.0
 31
0.0
  0
ARC
  8
Default
 10
-444.0
 20
21.0
 30
0.0
 40
10.0
 50
180.0
 51
270.0
  0
LINE
  8
Default
 10
-534.0
 20
11.0
 30
0.0
 11
-474.0
 21
11.0
 31
0.0
  0
ARC
  8
Default
 10
-474.0
 20
21.0
 30
0.0
 40
10.0
 50
270.0
 51
360.0
  0
LINE
  8
Default
 10
-464.0
 20
21.0
 30
0.0
 11
-464.0
 21
41.0
 31
0.0
  0
ARC
  8
Default
 10
-474.0
 20
41.0
 30
0.0
 40
10.0
 50
0.0
 51
90.0
  0
LINE
  8
Default
 10
-474.0
 20
51.0
 30
0.0
 11
-534.0
 21
51.0
 31
0.0
  0
ARC
  8
Default
 10
-534.0
 20
41.0
 30
0.0
 40
10.0
 50
90.0
 51
180.0
  0
LINE
  8
Default
 10
-544.0
 20
41.0
 30
0.0
 11
-544.0
 21
21.0
 31
0.0
  0
ARC
  8
Default
 10
-534.0
 20
21.0
 30
0.0
 40
10.0
 50
180.0
 51
270.0
  0
LINE
  8
Default
 10
-41.0
 20
336.0
 30
0.0
 11
-41.0
 21
330.0
 31
0.0
  0
LINE
  8
Default
 10
-41.0
 20
330.0
 30
0.0
 11
-46.0
 21
330.0
 31
0.0
  0
LINE
  8
Default
 10
-46.0
 20
330.0
 30
0.0
 11
-46.0
 21
318.0
 31
0.0
  0
LINE
  8
Default
 10
-46.0
 20
318.0
 30
0.0
 11
-41.0
 21
318.0
 31
0.0
  0
LINE
  8
Default
 10
-41.0
 20
318.0
 30
0.0
 11
-41.0
 21
312.0
 31
0.0
  0
LINE
  8
Default
 10
-41.0
 20
312.0
 30
0.0
 11
-34.0
 21
312.0
 31
0.0
  0
LINE
  8
Default
 10
-34.0
 20
312.0
 30
0.0
 11
-34.0
 21
307.0
 31
0.0
  0
LINE
  8
Default
 10
-34.0
 20
307.0
 30
0.0
 11
-20.0
 21
307.0
 31
0.0
  0
LINE
  8
Default
 10
-20.0
 20
307.0
 30
0.0
 11
-20.0
 21
312.0
 31
0.0
  0
LINE
  8
Default
 10
-20.0
 20
312.0
 30
0.0
 11
-13.0
 21
312.0
 31
0.0
  0
LINE
  8
Default
 10
-13.0
 20
312.0
 30
0.0
 11
-13.0
 21
318.0
 31
0.0
  0
LINE
  8
Default
 10
-13.0
 20
318.0
 30
0.0
 11
-8.0
 21
318.0
 31
0.0
  0
LINE
  8
Default
 10
-8.0
 20
318.0
 30
0.0
 11
-8.0
 21
330.0
 31
0.0
  0
LINE
  8
Default
 10
-8.0
 20
330.0
 30
0.0
 11
-13.0
 21
330.0
 31
0.0
  0
LINE
  8
Default
 10
-13.0
 20
330.0
 30
0.0
 11
-13.0
 21
336.0
 31
0.0
  0
LINE
  8
Default
 10
-13.0
 20
336.0
 30
0.0
 11
-41.0
 21
336.0
 31
0.0
  0
LINE
  8
Default
 10
-141.0
 20
16.0
 30
0.0
 11
-113.0
 21
16.0
 31
0.0
  0
LINE
  8
Default
 10
-113.0
 20
16.0
 30
0.0
 11
-113.0
 21
30.0
 31
0.0
  0
LINE
  8
Default
 10
-113.0
 20
30.0
 30
0.0
 11
-141.0
 21
30.0
 31
0.0
  0
LINE
  8
Default
 10
-141.0
 20
30.0
 30
0.0
 11
-141.0
 21
16.0
 31
0.0
  0
LINE
  8
Default
 10
-291.0
 20
16.0
 30
0.0
 11
-263.0
 21
16.0
 31
0.0
  0
LINE
  8
Default
 10
-263.0
 20
16.0
 30
0.0
 11
-263.0
 21
30.0
 31
0.0
  0
LINE
  8
Default
 10
-263.0
 20
30.0
 30
0.0
 11
-291.0
 21
30.0
 31
0.0
  0
LINE
  8
Default
 10
-291.0
 20
30.0
 30
0.0
 11
-291.0
 21
16.0
 31
0.0
  0
ARC
  8
Default
 10
-507.949924205082
 20
308.278667199914
 30
0.0
 40
260.193163064818
 50
301.960403064768
 51
358.956746827604
  0
LINE
  8
Default
 10
-247.799891993476
 20
303.541279103541
 30
0.0
 11
-248.0
 21
312.0
 31
0.0
  0
ARC
  8
Default
 10
-238.57818718217
 20
312.578187182169
 30
0.0
 40
9.4395369161766
 50
86.4883409857917
 51
183.511659014208
  0
LINE
  8
Default
 10
-238.0
 20
322.0
 30
0.0
 11
-175.136991830685
 21
321.707004144239
 31
0.0
  0
ARC
  8
Default
 10
-179.462502665745
 20
311.049501079451
 30
0.0
 40
11.5018440069487
 50
4.7402619516483
 51
67.9094727399426
  0
ARC
  8
Default
 10
-37.3588145750613
 20
370.997286736319
 30
0.0
 40
143.345035391815
 50
204.303835899044
 51
274.600231008277
  0
LINE
  8
Default
 10
-25.8621208440823
 20
228.114029478036
 30
0.0
 11
-6.511674605078
 21
172.037226091534
 31
0.0
  0
ARC
  8
Default
 10
-225.314820507893
 20
172.460396846226
 30
0.0
 40
218.803555113842
 50
332.457506781289
 51
359.889188668074
  0
LINE
  8
Default
 10
-31.3086803668059
 20
71.2842468996452
 30
0.0
 11
-61.3271739134343
 21
19.333404315612
 31
0.0
  0
ARC
  8
Default
 10
-69.6452768686987
 20
23.0643944147552
 30
0.0
 40
9.1165302552168
 50
234.117286418966
 51
335.841925282534
  0
LINE
  8
Default
 10
-74.9887299352115
 20
15.6780128093778
 30
0.0
 11
-84.4051202875421
 21
20.4237323134447
 31
0.0
  0
ARC
  8
Default
 10
-205.665312589881
 20
-168.250290289143
 30
0.0
 40
224.280897631167
 50
57.2712743564817
 51
123.466429351599
  0
LINE
  8
Default
 10
-329.344632669418
 20
18.8468684998275
 30
0.0
 11
-337.9978234948
 21
13.9326597361215
 31
0.0
  0
ARC
  8
Default
 10
-343.323417292213
 20
21.3881380252173
 30
0.0
 40
9.16221074928
 50
204.513774492049
 51
305.538960963663
  0
LINE
  8
Default
 10
-351.659760548382
 20
17.5866268875848
 30
0.0
 11
-381.683670254737
 21
69.5343395027194
 31
0.0
  0
ARC
  8
Default
 10
-372.389529131581
 20
74.3681718777274
 30
0.0
 40
10.4760199812152
 50
122.574038618794
 51
207.478696836919
  0
LINE
  8
Default
 10
-378.029703103274
 20
83.1962765563011
 30
0.0
 11
-370.221082485135
 21
87.5271139456795
 31
0.0
  0
ARC
  8
Default
 10
-580.830367401816
 20
362.491860988734
 30
0.0
 40
9.9942881090247
 50
124.553533370112
 51
160.028272835417
  0
LINE
  8
Default
 10
-590.223611792703
 20
365.905474121365
 30
0.0
 11
-589.978548674594
 21
95.2857384834779
 31
0.0
  0
ARC
  8
Default
 10
-582.789283045072
 20
97.6176917582225
 30
0.0
 40
7.5580120645193
 50
197.971299855163
 51
246.105395833993
  0
LINE
  8
Default
 10
-585.85069728791
 20
90.7074609949869
 30
0.0
 11
-528.646370020869
 21
57.7883944540693
 31
0.0
  0
ARC
  8
Default
 10
-525.40115419777
 20
64.7691775016514
 30
0.0
 40
7.698230815967
 50
245.067297287322
 51
325.09489451393
  0
ARC
  8
Default
 10
-484.856321826072
 20
4.7857182095355
 30
0.0
 40
65.27444362858
 50
95.8657636408524
 51
121.629497576159
  0
ARC
  8
Default
 10
-468.765658653301
 20
234.142159318265
 30
0.0
 40
165.991765686113
 50
262.118494292159
 51
341.382894609562
  0
ARC
  8
Default
 10
-286.708773281148
 20
156.606304363622
 30
0.0
 40
34.8572890138149
 50
98.353347586343
 51
135.240218140306
  0
ARC
  8
Default
 10
-294.451522537246
 20
199.065371442666
 30
0.0
 40
8.4096319515808
 50
288.57440954293
 51
353.588705988252
  0
LINE
  8
Default
 10
-286.094485034803
 20
198.126311410608
 30
0.0
 11
-286.15425214353
 21
264.126284349183
 31
0.0
  0
ARC
  8
Default
 10
-293.645253528007
 20
263.628051082558
 30
0.0
 40
7.5075520730936
 50
3.8051896324753
 51
86.2985801721226
  0
ARC
  8
Default
 10
-295.314307688841
 20
288.918893059397
 30
0.0
 40
17.9287798545562
 50
200.5965455113
 51
276.899396568019
  0
ARC
  8
Default
 10
-469.25060248546
 20
227.944073538642
 30
0.0
 40
166.390466153634
 50
19.1808455219732
 51
98.4216830956302
  0
ARC
  8
Default
 10
-490.7049537475
 20
442.491656598053
 30
0.0
 40
50.036277944632
 50
231.531758460688
 51
266.660457882649
  0
ARC
  8
Default
 10
-526.060583615935
 20
398.516454183034
 30
0.0
 40
6.3965953393697
 50
48.6133704759333
 51
122.13427396736
  0
LINE
  8
Default
 10
-529.462966113897
 20
403.933116003123
 30
0.0
 11
-586.498887737798
 21
370.723122860814
 31
0.0
  0
LINE
  8
Default
 10
-111.0
 20
356.5
 30
0.0
 11
-106.0
 21
356.5
 31
0.0
  0
LINE
  8
Default
 10
-106.0
 20
356.5
 30
0.0
 11
-106.0
 21
381.5
 31
0.0
  0
LINE
  8
Default
 10
-106.0
 20
381.5
 30
0.0
 11
-111.0
 21
381.5
 31
0.0
  0
LINE
  8
Default
 10
-111.0
 20
381.5
 30
0.0
 11
-111.0
 21
356.5
 31
0.0
  0
LINE
  8
Default
 10
-52.0
 20
356.5
 30
0.0
 11
-47.0
 21
356.5
 31
0.0
  0
LINE
  8
Default
 10
-47.0
 20
356.5
 30
0.0
 11
-47.0
 21
381.5
 31
0.0
  0
LINE
  8
Default
 10
-47.0
 20
381.5
 30
0.0
 11
-52.0
 21
381.5
 31
0.0
  0
LINE
  8
Default
 10
-52.0
 20
381.5
 30
0.0
 11
-52.0
 21
356.5
 31
0.0
  0
LINE
  8
Default
 10
-67.5
 20
345.0
 30
0.0
 11
-42.0
 21
345.0
 31
0.0
  0
LINE
  8
Default
 10
-42.0
 20
345.0
 30
0.0
 11
-42.0
 21
393.0
 31
0.0
  0
LINE
  8
Default
 10
-42.0
 20
393.0
 30
0.0
 11
-67.5
 21
393.0
 31
0.0
  0
LINE
  8
Default
 10
-67.5
 20
393.0
 30
0.0
 11
-67.5
 21
401.6
 31
0.0
  0
LINE
  8
Default
 10
-67.5
 20
401.6
 30
0.0
 11
-90.5
 21
401.6
 31
0.0
  0
LINE
  8
Default
 10
-90.5
 20
401.6
 30
0.0
 11
-90.5
 21
393.0
 31
0.0
  0
LINE
  8
Default
 10
-90.5
 20
393.0
 30
0.0
 11
-116.0
 21
393.0
 31
0.0
  0
LINE
  8
Default
 10
-116.0
 20
393.0
 30
0.0
 11
-116.0
 21
345.0
 31
0.0
  0
LINE
  8
Default
 10
-116.0
 20
345.0
 30
0.0
 11
-90.5
 21
345.0
 31
0.0
  0
LINE
  8
Default
 10
-90.5
 20
345.0
 30
0.0
 11
-90.5
 21
335.0
 31
0.0
  0
LINE
  8
Default
 10
-90.5
 20
335.0
 30
0.0
 11
-67.5
 21
335.0
 31
0.0
  0
LINE
  8
Default
 10
-67.5
 20
335.0
 30
0.0
 11
-67.5
 21
345.0
 31
0.0
  0
LINE
  8
Default
 10
-321.0
 20
340.5
 30
0.0
 11
-316.0
 21
340.5
 31
0.0
  0
LINE
  8
Default
 10
-316.0
 20
340.5
 30
0.0
 11
-316.0
 21
365.5
 31
0.0
  0
LINE
  8
Default
 10
-316.0
 20
365.5
 30
0.0
 11
-321.0
 21
365.5
 31
0.0
  0
LINE
  8
Default
 10
-321.0
 20
365.5
 30
0.0
 11
-321.0
 21
340.5
 31
0.0
  0
LINE
  8
Default
 10
-262.0
 20
340.5
 30
0.0
 11
-257.0
 21
340.5
 31
0.0
  0
LINE
  8
Default
 10
-257.0
 20
340.5
 30
0.0
 11
-257.0
 21
365.5
 31
0.0
  0
LINE
  8
Default
 10
-257.0
 20
365.5
 30
0.0
 11
-262.0
 21
365.5
 31
0.0
  0
LINE
  8
Default
 10
-262.0
 20
365.5
 30
0.0
 11
-262.0
 21
340.5
 31
0.0
  0
LINE
  8
Default
 10
-277.5
 20
329.0
 30
0.0
 11
-252.0
 21
329.0
 31
0.0
  0
LINE
  8
Default
 10
-252.0
 20
329.0
 30
0.0
 11
-252.0
 21
377.0
 31
0.0
  0
LINE
  8
Default
 10
-252.0
 20
377.0
 30
0.0
 11
-277.5
 21
377.0
 31
0.0
  0
LINE
  8
Default
 10
-277.5
 20
377.0
 30
0.0
 11
-277.5
 21
385.6
 31
0.0
  0
LINE
  8
Default
 10
-277.5
 20
385.6
 30
0.0
 11
-300.5
 21
385.6
 31
0.0
  0
LINE
  8
Default
 10
-300.5
 20
385.6
 30
0.0
 11
-300.5
 21
377.0
 31
0.0
  0
LINE
  8
Default
 10
-300.5
 20
377.0
 30
0.0
 11
-326.0
 21
377.0
 31
0.0
  0
LINE
  8
Default
 10
-326.0
 20
377.0
 30
0.0
 11
-326.0
 21
329.0
 31
0.0
  0
LINE
  8
Default
 10
-326.0
 20
329.0
 30
0.0
 11
-300.5
 21
329.0
 31
0.0
  0
LINE
  8
Default
 10
-300.5
 20
329.0
 30
0.0
 11
-300.5
 21
319.0
 31
0.0
  0
LINE
  8
Default
 10
-300.5
 20
319.0
 30
0.0
 11
-277.5
 21
319.0
 31
0.0
  0
LINE
  8
Default
 10
-277.5
 20
319.0
 30
0.0
 11
-277.5
 21
329.0
 31
0.0
  0
LINE
  8
Default
 10
384.339870980462
 20
50.6701656757465
 30
0.0
 11
384.214185600551
 21
69.6697499655481
 31
0.0
  0
LINE
  8
Default
 10
384.214185600551
 20
69.6697499655481
 30
0.0
 11
389.214076203131
 21
69.7028250655245
 31
0.0
  0
LINE
  8
Default
 10
389.214076203131
 20
69.7028250655245
 30
0.0
 11
389.028855643263
 21
97.7022124399689
 31
0.0
  0
LINE
  8
Default
 10
389.028855643263
 20
97.7022124399689
 30
0.0
 11
384.028965040684
 21
97.6691373399926
 31
0.0
  0
LINE
  8
Default
 10
384.028965040684
 20
97.6691373399926
 30
0.0
 11
383.947966404457
 21
113.617999366298
 31
0.0
  0
LINE
  8
Default
 10
383.947966404457
 20
113.617999366298
 30
0.0
 11
376.639064292693
 21
113.662069059763
 31
0.0
  0
LINE
  8
Default
 10
376.639064292693
 20
113.662069059763
 30
0.0
 11
377.056084851765
 21
50.6219822306349
 31
0.0
  0
LINE
  8
Default
 10
377.056084851765
 20
50.6219822306349
 30
0.0
 11
384.339870980462
 21
50.6701656757465
 31
0.0
  0
ARC
  8
Default
 10
301.378470672307
 20
92.7055530756912
 30
0.0
 40
8.3030771301953
 50
23.3766734428868
 51
92.6125601409463
  0
LINE
  8
Default
 10
301.0
 20
101.0
 30
0.0
 11
301.0
 21
96.0
 31
0.0
  0
LINE
  8
Default
 10
301.0
 20
96.0
 30
0.0
 11
304.0
 21
96.0
 31
0.0
  0
LINE
  8
Default
 10
304.0
 20
96.0
 30
0.0
 11
304.0
 21
91.0
 31
0.0
  0
LINE
  8
Default
 10
304.0
 20
91.0
 30
0.0
 11
299.0
 21
91.0
 31
0.0
  0
LINE
  8
Default
 10
299.0
 20
91.0
 30
0.0
 11
301.0
 21
64.0
 31
0.0
  0
LINE
  8
Default
 10
301.0
 20
64.0
 30
0.0
 11
306.0
 21
64.0
 31
0.0
  0
LINE
  8
Default
 10
306.0
 20
64.0
 30
0.0
 11
306.0
 21
59.0
 31
0.0
  0
LINE
  8
Default
 10
306.0
 20
59.0
 30
0.0
 11
301.0
 21
59.0
 31
0.0
  0
LINE
  8
Default
 10
301.0
 20
59.0
 30
0.0
 11
301.0
 21
54.0
 31
0.0
  0
LINE
  8
Default
 10
301.0
 20
54.0
 30
0.0
 11
319.0
 21
54.0
 31
0.0
  0
ARC
  8
Default
 10
308.196643655225
 20
61.5
 30
0.0
 40
13.1515211406208
 50
325.230509084717
 51
394.769490915283
  0
LINE
  8
Default
 10
319.0
 20
69.0
 30
0.0
 11
309.0
 21
96.0
 31
0.0
  0
ARC
  8
Default
 10
52.0416273061589
 20
337.929950675438
 30
0.0
 40
10.9891809948223
 50
0.3978787951756
 51
180.085627023365
  0
LINE
  8
Default
 10
63.030543335128
 20
338.006262176736
 30
0.0
 11
63.009752201453
 21
334.027504048824
 31
0.0
  0
ARC
  8
Default
 10
52.0237514524426
 20
334.029229950262
 30
0.0
 40
10.98600088458
 50
180.178515187594
 51
359.990998829358
  0
LINE
  8
Default
 10
41.037803890836
 20
333.995001166702
 30
0.0
 11
41.052458583233
 21
337.913527641917
 31
0.0
  0
ARC
  8
Default
 10
51.9583726938411
 20
292.929950675438
 30
0.0
 40
10.9891809948223
 50
359.914372976635
 51
539.602121204824
  0
LINE
  8
Default
 10
40.969456664872
 20
293.006262176736
 30
0.0
 11
40.990247798547
 21
289.027504048824
 31
0.0
  0
ARC
  8
Default
 10
51.9762485475574
 20
289.029229950262
 30
0.0
 40
10.98600088458
 50
180.009001170642
 51
359.821484812406
  0
LINE
  8
Default
 10
62.962196109164
 20
288.995001166702
 30
0.0
 11
62.947541416767
 21
292.913527641917
 31
0.0
  0
ARC
  8
Default
 10
197.958372693841
 20
292.929950675438
 30
0.0
 40
10.9891809948223
 50
359.914372976635
 51
539.602121204824
  0
LINE
  8
Default
 10
186.969456664872
 20
293.006262176736
 30
0.0
 11
186.990247798547
 21
289.027504048824
 31
0.0
  0
ARC
  8
Default
 10
197.976248547557
 20
289.029229950262
 30
0.0
 40
10.9860008845801
 50
180.009001170642
 51
359.821484812406
  0
LINE
  8
Default
 10
208.962196109164
 20
288.995001166702
 30
0.0
 11
208.947541416767
 21
292.913527641917
 31
0.0
  0
ARC
  8
Default
 10
198.041627306159
 20
337.929950675438
 30
0.0
 40
10.9891809948223
 50
0.3978787951756
 51
180.085627023365
  0
LINE
  8
Default
 10
209.030543335128
 20
338.006262176736
 30
0.0
 11
209.009752201453
 21
334.027504048824
 31
0.0
  0
ARC
  8
Default
 10
198.023751452443
 20
334.029229950262
 30
0.0
 40
10.9860008845801
 50
180.178515187594
 51
359.990998829358
  0
LINE
  8
Default
 10
187.037803890836
 20
333.995001166702
 30
0.0
 11
187.052458583233
 21
337.913527641917
 31
0.0
  0
ARC
  8
Default
 10
345.041627306159
 20
337.929950675438
 30
0.0
 40
10.9891809948223
 50
0.3978787951756
 51
180.085627023365
  0
LINE
  8
Default
 10
356.030543335128
 20
338.006262176736
 30
0.0
 11
356.009752201453
 21
334.027504048824
 31
0.0
  0
ARC
  8
Default
 10
345.023751452443
 20
334.029229950262
 30
0.0
 40
10.98600088458
 50
180.178515187594
 51
359.990998829358
  0
LINE
  8
Default
 10
334.037803890836
 20
333.995001166702
 30
0.0
 11
334.052458583233
 21
337.913527641917
 31
0.0
  0
ARC
  8
Default
 10
344.958372693841
 20
292.929950675438
 30
0.0
 40
10.9891809948223
 50
359.914372976635
 51
539.602121204824
  0
LINE
  8
Default
 10
333.969456664872
 20
293.006262176736
 30
0.0
 11
333.990247798547
 21
289.027504048824
 31
0.0
  0
ARC
  8
Default
 10
344.976248547557
 20
289.029229950262
 30
0.0
 40
10.98600088458
 50
180.009001170642
 51
359.821484812406
  0
LINE
  8
Default
 10
355.962196109164
 20
288.995001166702
 30
0.0
 11
355.947541416767
 21
292.913527641917
 31
0.0
  0
LINE
  8
Default
 10
56.0
 20
338.0
 30
0.0
 11
56.0
 21
334.0
 31
0.0
  0
ARC
  8
Default
 10
51.9940532151076
 20
334.00268595232
 30
0.0
 40
4.0059476853461
 50
180.743726163383
 51
359.961583686181
  0
LINE
  8
Default
 10
47.988443011311
 20
333.950688327661
 30
0.0
 11
47.988443011311
 21
337.979977155355
 31
0.0
  0
ARC
  8
Default
 10
51.9942444132689
 20
337.980822764645
 30
0.0
 40
4.0058014912104
 50
0.2742968786997
 51
180.012094918806
  0
LINE
  8
Default
 10
48.0
 20
293.0
 30
0.0
 11
48.0
 21
289.0
 31
0.0
  0
ARC
  8
Default
 10
52.0059467848924
 20
289.00268595232
 30
0.0
 40
4.0059476853461
 50
180.038416313819
 51
359.256273836617
  0
LINE
  8
Default
 10
56.011556988689
 20
288.950688327661
 30
0.0
 11
56.011556988689
 21
292.979977155355
 31
0.0
  0
ARC
  8
Default
 10
52.0057555867311
 20
292.980822764645
 30
0.0
 40
4.0058014912104
 50
359.987905081194
 51
539.7257031213
  0
LINE
  8
Default
 10
202.0
 20
338.0
 30
0.0
 11
202.0
 21
334.0
 31
0.0
  0
ARC
  8
Default
 10
197.994053215108
 20
334.00268595232
 30
0.0
 40
4.0059476853461
 50
180.743726163383
 51
359.961583686181
  0
LINE
  8
Default
 10
193.988443011311
 20
333.950688327661
 30
0.0
 11
193.988443011311
 21
337.979977155355
 31
0.0
  0
ARC
  8
Default
 10
197.994244413269
 20
337.980822764645
 30
0.0
 40
4.0058014912104
 50
0.2742968786997
 51
180.012094918806
  0
LINE
  8
Default
 10
194.0
 20
293.0
 30
0.0
 11
194.0
 21
289.0
 31
0.0
  0
ARC
  8
Default
 10
198.005946784892
 20
289.00268595232
 30
0.0
 40
4.0059476853461
 50
180.038416313819
 51
359.256273836617
  0
LINE
  8
Default
 10
202.011556988689
 20
288.950688327661
 30
0.0
 11
202.011556988689
 21
292.979977155355
 31
0.0
  0
ARC
  8
Default
 10
198.005755586731
 20
292.980822764645
 30
0.0
 40
4.0058014912104
 50
359.987905081194
 51
539.7257031213
  0
LINE
  8
Default
 10
341.0
 20
293.0
 30
0.0
 11
341.0
 21
289.0
 31
0.0
  0
ARC
  8
Default
 10
345.005946784892
 20
289.00268595232
 30
0.0
 40
4.0059476853461
 50
180.038416313819
 51
359.256273836617
  0
LINE
  8
Default
 10
349.011556988689
 20
288.950688327661
 30
0.0
 11
349.011556988689
 21
292.979977155355
 31
0.0
  0
ARC
  8
Default
 10
345.005755586731
 20
292.980822764645
 30
0.0
 40
4.0058014912104
 50
359.987905081194
 51
539.7257031213
  0
LINE
  8
Default
 10
349.0
 20
338.0
 30
0.0
 11
349.0
 21
334.0
 31
0.0
  0
ARC
  8
Default
 10
344.994053215108
 20
334.00268595232
 30
0.0
 40
4.0059476853461
 50
180.743726163383
 51
359.961583686181
  0
LINE
  8
Default
 10
340.988443011311
 20
333.950688327661
 30
0.0
 11
340.988443011311
 21
337.979977155355
 31
0.0
  0
ARC
  8
Default
 10
344.994244413269
 20
337.980822764645
 30
0.0
 40
4.0058014912104
 50
0.2742968786997
 51
180.012094918806
  0
LINE
  8
Default
 10
17.5
 20
234.611111111111
 30
0.0
 11
22.5
 21
234.611111111111
 31
0.0
  0
LINE
  8
Default
 10
22.5
 20
234.611111111111
 30
0.0
 11
22.5
 21
258.611111111111
 31
0.0
  0
LINE
  8
Default
 10
22.5
 20
258.611111111111
 30
0.0
 11
17.5
 21
258.611111111111
 31
0.0
  0
LINE
  8
Default
 10
17.5
 20
258.611111111111
 30
0.0
 11
17.5
 21
234.611111111111
 31
0.0
  0
LINE
  8
Default
 10
17.5
 20
180.611111111111
 30
0.0
 11
22.5
 21
180.611111111111
 31
0.0
  0
LINE
  8
Default
 10
22.5
 20
180.611111111111
 30
0.0
 11
22.5
 21
204.611111111111
 31
0.0
  0
LINE
  8
Default
 10
22.5
 20
204.611111111111
 30
0.0
 11
17.5
 21
204.611111111111
 31
0.0
  0
LINE
  8
Default
 10
17.5
 20
204.611111111111
 30
0.0
 11
17.5
 21
180.611111111111
 31
0.0
  0
LINE
  8
Default
 10
33.0
 20
224.0
 30
0.0
 11
33.0
 21
189.0
 31
0.0
  0
LINE
  8
Default
 10
33.0
 20
189.0
 30
0.0
 11
74.4808296259357
 21
224.173060718482
 31
0.0
  0
LINE
  8
Default
 10
74.4808296259357
 20
224.173060718482
 30
0.0
 11
33.0
 21
224.0
 31
0.0
  0
LINE
  8
Default
 10
32.0
 20
229.611111111111
 30
0.0
 11
37.0
 21
229.611111111111
 31
0.0
  0
LINE
  8
Default
 10
37.0
 20
229.611111111111
 30
0.0
 11
37.0
 21
259.611111111111
 31
0.0
  0
LINE
  8
Default
 10
37.0
 20
259.611111111111
 30
0.0
 11
32.0
 21
259.611111111111
 31
0.0
  0
LINE
  8
Default
 10
32.0
 20
259.611111111111
 30
0.0
 11
32.0
 21
229.611111111111
 31
0.0
  0
LINE
  8
Default
 10
63.0
 20
229.611111111111
 30
0.0
 11
68.0
 21
229.611111111111
 31
0.0
  0
LINE
  8
Default
 10
68.0
 20
229.611111111111
 30
0.0
 11
68.0
 21
259.611111111111
 31
0.0
  0
LINE
  8
Default
 10
68.0
 20
259.611111111111
 30
0.0
 11
63.0
 21
259.611111111111
 31
0.0
  0
LINE
  8
Default
 10
63.0
 20
259.611111111111
 30
0.0
 11
63.0
 21
229.611111111111
 31
0.0
  0
LINE
  8
Default
 10
77.5
 20
234.611111111111
 30
0.0
 11
82.5
 21
234.611111111111
 31
0.0
  0
LINE
  8
Default
 10
82.5
 20
234.611111111111
 30
0.0
 11
82.5
 21
258.611111111111
 31
0.0
  0
LINE
  8
Default
 10
82.5
 20
258.611111111111
 30
0.0
 11
77.5
 21
258.611111111111
 31
0.0
  0
LINE
  8
Default
 10
77.5
 20
258.611111111111
 30
0.0
 11
77.5
 21
234.611111111111
 31
0.0
  0
LINE
  8
Default
 10
121.920930051279
 20
193.015330510934
 30
0.0
 11
121.975686801615
 21
211.015247224583
 31
0.0
  0
LINE
  8
Default
 10
121.975686801615
 20
211.015247224583
 30
0.0
 11
116.975709936712
 21
211.03045743301
 31
0.0
  0
LINE
  8
Default
 10
116.975709936712
 20
211.03045743301
 30
0.0
 11
116.920953186377
 21
193.030540719361
 31
0.0
  0
LINE
  8
Default
 10
116.920953186377
 20
193.030540719361
 30
0.0
 11
121.920930051279
 21
193.015330510934
 31
0.0
  0
LINE
  8
Default
 10
147.5
 20
180.611111111111
 30
0.0
 11
152.5
 21
180.611111111111
 31
0.0
  0
LINE
  8
Default
 10
152.5
 20
180.611111111111
 30
0.0
 11
152.5
 21
204.611111111111
 31
0.0
  0
LINE
  8
Default
 10
152.5
 20
204.611111111111
 30
0.0
 11
147.5
 21
204.611111111111
 31
0.0
  0
LINE
  8
Default
 10
147.5
 20
204.611111111111
 30
0.0
 11
147.5
 21
180.611111111111
 31
0.0
  0
LINE
  8
Default
 10
147.5
 20
234.611111111111
 30
0.0
 11
152.5
 21
234.611111111111
 31
0.0
  0
LINE
  8
Default
 10
152.5
 20
234.611111111111
 30
0.0
 11
152.5
 21
258.611111111111
 31
0.0
  0
LINE
  8
Default
 10
152.5
 20
258.611111111111
 30
0.0
 11
147.5
 21
258.611111111111
 31
0.0
  0
LINE
  8
Default
 10
147.5
 20
258.611111111111
 30
0.0
 11
147.5
 21
234.611111111111
 31
0.0
  0
LINE
  8
Default
 10
162.0
 20
229.611111111111
 30
0.0
 11
167.0
 21
229.611111111111
 31
0.0
  0
LINE
  8
Default
 10
167.0
 20
229.611111111111
 30
0.0
 11
167.0
 21
259.611111111111
 31
0.0
  0
LINE
  8
Default
 10
167.0
 20
259.611111111111
 30
0.0
 11
162.0
 21
259.611111111111
 31
0.0
  0
LINE
  8
Default
 10
162.0
 20
259.611111111111
 30
0.0
 11
162.0
 21
229.611111111111
 31
0.0
  0
LINE
  8
Default
 10
193.0
 20
229.611111111111
 30
0.0
 11
198.0
 21
229.611111111111
 31
0.0
  0
LINE
  8
Default
 10
198.0
 20
229.611111111111
 30
0.0
 11
198.0
 21
259.611111111111
 31
0.0
  0
LINE
  8
Default
 10
198.0
 20
259.611111111111
 30
0.0
 11
193.0
 21
259.611111111111
 31
0.0
  0
LINE
  8
Default
 10
193.0
 20
259.611111111111
 30
0.0
 11
193.0
 21
229.611111111111
 31
0.0
  0
LINE
  8
Default
 10
207.5
 20
234.611111111111
 30
0.0
 11
212.5
 21
234.611111111111
 31
0.0
  0
LINE
  8
Default
 10
212.5
 20
234.611111111111
 30
0.0
 11
212.5
 21
258.611111111111
 31
0.0
  0
LINE
  8
Default
 10
212.5
 20
258.611111111111
 30
0.0
 11
207.5
 21
258.611111111111
 31
0.0
  0
LINE
  8
Default
 10
207.5
 20
258.611111111111
 30
0.0
 11
207.5
 21
234.611111111111
 31
0.0
  0
LINE
  8
Default
 10
251.920930051279
 20
193.015330510934
 30
0.0
 11
251.975686801615
 21
211.015247224583
 31
0.0
  0
LINE
  8
Default
 10
251.975686801615
 20
211.015247224583
 30
0.0
 11
246.975709936712
 21
211.03045743301
 31
0.0
  0
LINE
  8
Default
 10
246.975709936712
 20
211.03045743301
 30
0.0
 11
246.920953186377
 21
193.030540719361
 31
0.0
  0
LINE
  8
Default
 10
246.920953186377
 20
193.030540719361
 30
0.0
 11
251.920930051279
 21
193.015330510934
 31
0.0
  0
LINE
  8
Default
 10
280.5
 20
180.611111111111
 30
0.0
 11
285.5
 21
180.611111111111
 31
0.0
  0
LINE
  8
Default
 10
285.5
 20
180.611111111111
 30
0.0
 11
285.5
 21
204.611111111111
 31
0.0
  0
LINE
  8
Default
 10
285.5
 20
204.611111111111
 30
0.0
 11
280.5
 21
204.611111111111
 31
0.0
  0
LINE
  8
Default
 10
280.5
 20
204.611111111111
 30
0.0
 11
280.5
 21
180.611111111111
 31
0.0
  0
LINE
  8
Default
 10
280.5
 20
234.611111111111
 30
0.0
 11
285.5
 21
234.611111111111
 31
0.0
  0
LINE
  8
Default
 10
285.5
 20
234.611111111111
 30
0.0
 11
285.5
 21
258.611111111111
 31
0.0
  0
LINE
  8
Default
 10
285.5
 20
258.611111111111
 30
0.0
 11
280.5
 21
258.611111111111
 31
0.0
  0
LINE
  8
Default
 10
280.5
 20
258.611111111111
 30
0.0
 11
280.5
 21
234.611111111111
 31
0.0
  0
LINE
  8
Default
 10
295.0
 20
229.611111111111
 30
0.0
 11
300.0
 21
229.611111111111
 31
0.0
  0
LINE
  8
Default
 10
300.0
 20
229.611111111111
 30
0.0
 11
300.0
 21
259.611111111111
 31
0.0
  0
LINE
  8
Default
 10
300.0
 20
259.611111111111
 30
0.0
 11
295.0
 21
259.611111111111
 31
0.0
  0
LINE
  8
Default
 10
295.0
 20
259.611111111111
 30
0.0
 11
295.0
 21
229.611111111111
 31
0.0
  0
LINE
  8
Default
 10
326.0
 20
229.611111111111
 30
0.0
 11
331.0
 21
229.611111111111
 31
0.0
  0
LINE
  8
Default
 10
331.0
 20
229.611111111111
 30
0.0
 11
331.0
 21
259.611111111111
 31
0.0
  0
LINE
  8
Default
 10
331.0
 20
259.611111111111
 30
0.0
 11
326.0
 21
259.611111111111
 31
0.0
  0
LINE
  8
Default
 10
326.0
 20
259.611111111111
 30
0.0
 11
326.0
 21
229.611111111111
 31
0.0
  0
LINE
  8
Default
 10
340.5
 20
234.611111111111
 30
0.0
 11
345.5
 21
234.611111111111
 31
0.0
  0
LINE
  8
Default
 10
345.5
 20
234.611111111111
 30
0.0
 11
345.5
 21
258.611111111111
 31
0.0
  0
LINE
  8
Default
 10
345.5
 20
258.611111111111
 30
0.0
 11
340.5
 21
258.611111111111
 31
0.0
  0
LINE
  8
Default
 10
340.5
 20
258.611111111111
 30
0.0
 11
340.5
 21
234.611111111111
 31
0.0
  0
LINE
  8
Default
 10
384.920930051279
 20
193.015330510934
 30
0.0
 11
384.975686801615
 21
211.015247224583
 31
0.0
  0
LINE
  8
Default
 10
384.975686801615
 20
211.015247224583
 30
0.0
 11
379.975709936712
 21
211.03045743301
 31
0.0
  0
LINE
  8
Default
 10
379.975709936712
 20
211.03045743301
 30
0.0
 11
379.920953186377
 21
193.030540719361
 31
0.0
  0
LINE
  8
Default
 10
379.920953186377
 20
193.030540719361
 30
0.0
 11
384.920930051279
 21
193.015330510934
 31
0.0
  0
LINE
  8
Default
 10
397.673313965486
 20
137.672524244112
 30
0.0
 11
397.652035218497
 21
158.80205787014
 31
0.0
  0
LINE
  8
Default
 10
397.652035218497
 20
158.80205787014
 30
0.0
 11
351.167061241235
 21
158.755244626763
 31
0.0
  0
LINE
  8
Default
 10
351.167061241235
 20
158.755244626763
 30
0.0
 11
351.188339988225
 21
137.625711000735
 31
0.0
  0
LINE
  8
Default
 10
351.188339988225
 20
137.625711000735
 30
0.0
 11
397.673313965486
 21
137.672524244112
 31
0.0
  0
LINE
  8
Default
 10
400.012327449999
 20
27.0654298821411
 30
0.0
 11
399.914541795022
 21
124.165380644053
 31
0.0
  0
LINE
  8
Default
 10
399.914541795022
 20
124.165380644053
 30
0.0
 11
359.914562078478
 21
124.125098190921
 31
0.0
  0
LINE
  8
Default
 10
359.914562078478
 20
124.125098190921
 30
0.0
 11
360.012347733454
 21
27.0251474290098
 31
0.0
  0
LINE
  8
Default
 10
360.012347733454
 20
27.0251474290098
 30
0.0
 11
400.012327449999
 21
27.0654298821411
 31
0.0
  0
LINE
  8
Default
 10
329.010349330475
 20
28.9939275136602
 30
0.0
 11
328.912563675499
 21
126.093878275572
 31
0.0
  0
LINE
  8
Default
 10
328.912563675499
 20
126.093878275572
 30
0.0
 11
288.912583958955
 21
126.053595822441
 31
0.0
  0
LINE
  8
Default
 10
288.912583958955
 20
126.053595822441
 30
0.0
 11
289.010369613931
 21
28.9536450605289
 31
0.0
  0
LINE
  8
Default
 10
289.010369613931
 20
28.9536450605289
 30
0.0
 11
329.010349330475
 21
28.9939275136602
 31
0.0
  0
LINE
  8
Default
 10
253.671372863269
 20
139.527506398667
 30
0.0
 11
253.65009411628
 21
160.657040024695
 31
0.0
  0
LINE
  8
Default
 10
253.65009411628
 20
160.657040024695
 30
0.0
 11
207.165120139019
 21
160.610226781318
 31
0.0
  0
LINE
  8
Default
 10
207.165120139019
 20
160.610226781318
 30
0.0
 11
207.186398886008
 21
139.48069315529
 31
0.0
  0
LINE
  8
Default
 10
207.186398886008
 20
139.48069315529
 30
0.0
 11
253.671372863269
 21
139.527506398667
 31
0.0
  0
LINE
  8
Default
 10
385.0
 20
356.0
 30
0.0
 11
385.0
 21
320.0
 31
0.0
  0
LINE
  8
Default
 10
385.0
 20
320.0
 30
0.0
 11
370.0
 21
320.0
 31
0.0
  0
LINE
  8
Default
 10
370.0
 20
320.0
 30
0.0
 11
370.0
 21
327.0
 31
0.0
  0
LINE
  8
Default
 10
370.0
 20
327.0
 30
0.0
 11
365.0
 21
327.0
 31
0.0
  0
LINE
  8
Default
 10
365.0
 20
327.0
 30
0.0
 11
365.0
 21
320.0
 31
0.0
  0
LINE
  8
Default
 10
365.0
 20
320.0
 30
0.0
 11
325.0
 21
320.0
 31
0.0
  0
LINE
  8
Default
 10
325.0
 20
320.0
 30
0.0
 11
325.0
 21
327.0
 31
0.0
  0
LINE
  8
Default
 10
325.0
 20
327.0
 30
0.0
 11
320.0
 21
327.0
 31
0.0
  0
LINE
  8
Default
 10
320.0
 20
327.0
 30
0.0
 11
320.0
 21
320.0
 31
0.0
  0
LINE
  8
Default
 10
320.0
 20
320.0
 30
0.0
 11
305.0
 21
320.0
 31
0.0
  0
LINE
  8
Default
 10
305.0
 20
320.0
 30
0.0
 11
305.0
 21
356.0
 31
0.0
  0
LINE
  8
Default
 10
305.0
 20
356.0
 30
0.0
 11
320.0
 21
356.0
 31
0.0
  0
LINE
  8
Default
 10
320.0
 20
356.0
 30
0.0
 11
320.0
 21
350.0
 31
0.0
  0
LINE
  8
Default
 10
320.0
 20
350.0
 30
0.0
 11
325.0
 21
350.0
 31
0.0
  0
LINE
  8
Default
 10
325.0
 20
350.0
 30
0.0
 11
325.0
 21
356.0
 31
0.0
  0
LINE
  8
Default
 10
325.0
 20
356.0
 30
0.0
 11
365.0
 21
356.0
 31
0.0
  0
LINE
  8
Default
 10
365.0
 20
356.0
 30
0.0
 11
365.0
 21
350.0
 31
0.0
  0
LINE
  8
Default
 10
365.0
 20
350.0
 30
0.0
 11
370.0
 21
350.0
 31
0.0
  0
LINE
  8
Default
 10
370.0
 20
350.0
 30
0.0
 11
370.0
 21
356.0
 31
0.0
  0
LINE
  8
Default
 10
370.0
 20
356.0
 30
0.0
 11
385.0
 21
356.0
 31
0.0
  0
LINE
  8
Default
 10
8.0
 20
263.611111111111
 30
0.0
 11
8.0
 21
175.611111111111
 31
0.0
  0
LINE
  8
Default
 10
8.0
 20
175.611111111111
 30
0.0
 11
31.9018374860988
 21
175.702922857171
 31
0.0
  0
LINE
  8
Default
 10
31.9018374860988
 20
175.702922857171
 30
0.0
 11
92.0
 21
225.611111111111
 31
0.0
  0
LINE
  8
Default
 10
92.0
 20
225.611111111111
 30
0.0
 11
92.0
 21
263.611111111111
 31
0.0
  0
LINE
  8
Default
 10
92.0
 20
263.611111111111
 30
0.0
 11
58.0
 21
263.611111111111
 31
0.0
  0
LINE
  8
Default
 10
58.0
 20
263.611111111111
 30
0.0
 11
58.0
 21
268.611111111111
 31
0.0
  0
LINE
  8
Default
 10
58.0
 20
268.611111111111
 30
0.0
 11
42.0
 21
268.611111111111
 31
0.0
  0
LINE
  8
Default
 10
42.0
 20
268.611111111111
 30
0.0
 11
42.0
 21
263.611111111111
 31
0.0
  0
LINE
  8
Default
 10
42.0
 20
263.611111111111
 30
0.0
 11
8.0
 21
263.611111111111
 31
0.0
  0
ARC
  8
Default
 10
113.824923568255
 20
239.0833297779
 30
0.0
 40
13.2628984600353
 50
279.438976947203
 51
353.954774242472
  0
LINE
  8
Default
 10
127.014068074228
 20
237.686568251449
 30
0.0
 11
127.0
 21
264.0
 31
0.0
  0
LINE
  8
Default
 10
127.0
 20
264.0
 30
0.0
 11
116.0
 21
264.0
 31
0.0
  0
LINE
  8
Default
 10
116.0
 20
264.0
 30
0.0
 11
116.0
 21
259.0
 31
0.0
  0
LINE
  8
Default
 10
116.0
 20
259.0
 30
0.0
 11
98.0
 21
259.0
 31
0.0
  0
LINE
  8
Default
 10
98.0
 20
259.0
 30
0.0
 11
98.0
 21
255.0
 31
0.0
  0
LINE
  8
Default
 10
98.0
 20
255.0
 30
0.0
 11
101.0
 21
255.0
 31
0.0
  0
LINE
  8
Default
 10
101.0
 20
255.0
 30
0.0
 11
101.0
 21
252.0
 31
0.0
  0
LINE
  8
Default
 10
101.0
 20
252.0
 30
0.0
 11
98.0
 21
252.0
 31
0.0
  0
LINE
  8
Default
 10
98.0
 20
252.0
 30
0.0
 11
98.0
 21
246.2
 31
0.0
  0
LINE
  8
Default
 10
98.0
 20
246.2
 30
0.0
 11
109.051867257593
 21
246.2
 31
0.0
  0
LINE
  8
Default
 10
109.051867257593
 20
246.2
 30
0.0
 11
109.051867257593
 21
243.0
 31
0.0
  0
LINE
  8
Default
 10
109.051867257593
 20
243.0
 30
0.0
 11
98.0
 21
243.0
 31
0.0
  0
LINE
  8
Default
 10
98.0
 20
243.0
 30
0.0
 11
98.0
 21
238.0
 31
0.0
  0
LINE
  8
Default
 10
98.0
 20
238.0
 30
0.0
 11
101.0
 21
238.0
 31
0.0
  0
LINE
  8
Default
 10
101.0
 20
238.0
 30
0.0
 11
101.0
 21
235.0
 31
0.0
  0
LINE
  8
Default
 10
101.0
 20
235.0
 30
0.0
 11
98.0
 21
235.0
 31
0.0
  0
LINE
  8
Default
 10
98.0
 20
235.0
 30
0.0
 11
98.0
 21
231.0
 31
0.0
  0
LINE
  8
Default
 10
98.0
 20
231.0
 30
0.0
 11
116.0
 21
231.0
 31
0.0
  0
LINE
  8
Default
 10
116.0
 20
231.0
 30
0.0
 11
116.0
 21
226.0
 31
0.0
  0
ARC
  8
Default
 10
67.5282760713759
 20
188.615887454349
 30
0.0
 40
12.2827303381157
 50
225.757541742131
 51
308.480916311447
  0
LINE
  8
Default
 10
75.1712533729043
 20
179.000776299131
 30
0.0
 11
95.1943327857733
 21
195.690373216182
 31
0.0
  0
LINE
  8
Default
 10
95.1943327857733
 20
195.690373216182
 30
0.0
 11
88.1529610549424
 21
204.141354469756
 31
0.0
  0
LINE
  8
Default
 10
88.1529610549424
 20
204.141354469756
 30
0.0
 11
84.3116059396816
 21
200.940730955742
 31
0.0
  0
LINE
  8
Default
 10
84.3116059396816
 20
200.940730955742
 30
0.0
 11
81.1109824256675
 21
204.782086071003
 31
0.0
  0
LINE
  8
Default
 10
81.1109824256675
 20
204.782086071003
 30
0.0
 11
59.599393780207
 21
186.858594392524
 31
0.0
  0
LINE
  8
Default
 10
59.599393780207
 20
186.858594392524
 30
0.0
 11
62.8000172942211
 21
183.017239277263
 31
0.0
  0
LINE
  8
Default
 10
62.8000172942211
 20
183.017239277263
 30
0.0
 11
58.9586621789603
 21
179.816615763249
 31
0.0
  0
LINE
  8
Default
 10
105.863205291571
 20
175.06409109127
 30
0.0
 11
121.869454881501
 21
174.998900041895
 31
0.0
  0
LINE
  8
Default
 10
121.869454881501
 20
174.998900041895
 30
0.0
 11
121.953859396982
 21
189.023542434045
 31
0.0
  0
LINE
  8
Default
 10
121.953859396982
 20
189.023542434045
 30
0.0
 11
126.956075864628
 21
192.998830747504
 31
0.0
  0
LINE
  8
Default
 10
126.956075864628
 20
192.998830747504
 30
0.0
 11
127.012493798973
 21
211.544820294771
 31
0.0
  0
LINE
  8
Default
 10
127.012493798973
 20
211.544820294771
 30
0.0
 11
122.090033552992
 21
215.154621989858
 31
0.0
  0
LINE
  8
Default
 10
122.090033552992
 20
215.154621989858
 30
0.0
 11
122.104704351792
 21
219.97728138618
 31
0.0
  0
LINE
  8
Default
 10
122.104704351792
 20
219.97728138618
 30
0.0
 11
106.00009716741
 21
220.063882875392
 31
0.0
  0
LINE
  8
Default
 10
106.00009716741
 20
220.063882875392
 30
0.0
 11
105.863205291571
 21
175.06409109127
 31
0.0
  0
ARC
  8
Default
 10
402.0
 20
319.439850057365
 30
0.0
 40
14.0112015172944
 50
2.2912227106878
 51
177.708777289312
  0
LINE
  8
Default
 10
388.0
 20
320.0
 30
0.0
 11
393.0
 21
320.0
 31
0.0
  0
LINE
  8
Default
 10
393.0
 20
320.0
 30
0.0
 11
393.0
 21
305.0
 31
0.0
  0
LINE
  8
Default
 10
393.0
 20
305.0
 30
0.0
 11
398.25
 21
305.0
 31
0.0
  0
LINE
  8
Default
 10
398.25
 20
305.0
 30
0.0
 11
398.25
 21
280.0
 31
0.0
  0
LINE
  8
Default
 10
398.25
 20
280.0
 30
0.0
 11
393.0
 21
280.0
 31
0.0
  0
LINE
  8
Default
 10
393.0
 20
280.0
 30
0.0
 11
393.0
 21
274.0
 31
0.0
  0
LINE
  8
Default
 10
393.0
 20
274.0
 30
0.0
 11
411.0
 21
274.0
 31
0.0
  0
LINE
  8
Default
 10
411.0
 20
274.0
 30
0.0
 11
411.0
 21
280.0
 31
0.0
  0
LINE
  8
Default
 10
411.0
 20
280.0
 30
0.0
 11
405.75
 21
280.0
 31
0.0
  0
LINE
  8
Default
 10
405.75
 20
280.0
 30
0.0
 11
405.75
 21
305.0
 31
0.0
  0
LINE
  8
Default
 10
405.75
 20
305.0
 30
0.0
 11
411.0
 21
305.0
 31
0.0
  0
LINE
  8
Default
 10
411.0
 20
305.0
 30
0.0
 11
411.0
 21
320.0
 31
0.0
  0
LINE
  8
Default
 10
411.0
 20
320.0
 30
0.0
 11
416.0
 21
320.0
 31
0.0
  0
ARC
  8
Default
 10
409.0
 20
222.439850057365
 30
0.0
 40
14.0112015172944
 50
2.2912227106877
 51
177.708777289312
  0
LINE
  8
Default
 10
395.0
 20
223.0
 30
0.0
 11
400.0
 21
223.0
 31
0.0
  0
LINE
  8
Default
 10
400.0
 20
223.0
 30
0.0
 11
400.0
 21
208.0
 31
0.0
  0
LINE
  8
Default
 10
400.0
 20
208.0
 30
0.0
 11
405.25
 21
208.0
 31
0.0
  0
LINE
  8
Default
 10
405.25
 20
208.0
 30
0.0
 11
405.25
 21
183.0
 31
0.0
  0
LINE
  8
Default
 10
405.25
 20
183.0
 30
0.0
 11
400.0
 21
183.0
 31
0.0
  0
LINE
  8
Default
 10
400.0
 20
183.0
 30
0.0
 11
400.0
 21
177.0
 31
0.0
  0
LINE
  8
Default
 10
400.0
 20
177.0
 30
0.0
 11
418.0
 21
177.0
 31
0.0
  0
LINE
  8
Default
 10
418.0
 20
177.0
 30
0.0
 11
418.0
 21
183.0
 31
0.0
  0
LINE
  8
Default
 10
418.0
 20
183.0
 30
0.0
 11
412.75
 21
183.0
 31
0.0
  0
LINE
  8
Default
 10
412.75
 20
183.0
 30
0.0
 11
412.75
 21
208.0
 31
0.0
  0
LINE
  8
Default
 10
412.75
 20
208.0
 30
0.0
 11
418.0
 21
208.0
 31
0.0
  0
LINE
  8
Default
 10
418.0
 20
208.0
 30
0.0
 11
418.0
 21
223.0
 31
0.0
  0
LINE
  8
Default
 10
418.0
 20
223.0
 30
0.0
 11
423.0
 21
223.0
 31
0.0
  0
LINE
  8
Default
 10
305.0
 20
311.0
 30
0.0
 11
305.0
 21
275.0
 31
0.0
  0
LINE
  8
Default
 10
305.0
 20
275.0
 30
0.0
 11
320.0
 21
275.0
 31
0.0
  0
LINE
  8
Default
 10
320.0
 20
275.0
 30
0.0
 11
320.0
 21
282.0
 31
0.0
  0
LINE
  8
Default
 10
320.0
 20
282.0
 30
0.0
 11
325.0
 21
282.0
 31
0.0
  0
LINE
  8
Default
 10
325.0
 20
282.0
 30
0.0
 11
325.0
 21
275.0
 31
0.0
  0
LINE
  8
Default
 10
325.0
 20
275.0
 30
0.0
 11
365.0
 21
275.0
 31
0.0
  0
LINE
  8
Default
 10
365.0
 20
275.0
 30
0.0
 11
365.0
 21
282.0
 31
0.0
  0
LINE
  8
Default
 10
365.0
 20
282.0
 30
0.0
 11
370.0
 21
282.0
 31
0.0
  0
LINE
  8
Default
 10
370.0
 20
282.0
 30
0.0
 11
370.0
 21
275.0
 31
0.0
  0
LINE
  8
Default
 10
370.0
 20
275.0
 30
0.0
 11
385.0
 21
275.0
 31
0.0
  0
LINE
  8
Default
 10
385.0
 20
275.0
 30
0.0
 11
385.0
 21
311.0
 31
0.0
  0
LINE
  8
Default
 10
385.0
 20
311.0
 30
0.0
 11
370.0
 21
311.0
 31
0.0
  0
LINE
  8
Default
 10
370.0
 20
311.0
 30
0.0
 11
370.0
 21
305.0
 31
0.0
  0
LINE
  8
Default
 10
370.0
 20
305.0
 30
0.0
 11
365.0
 21
305.0
 31
0.0
  0
LINE
  8
Default
 10
365.0
 20
305.0
 30
0.0
 11
365.0
 21
311.0
 31
0.0
  0
LINE
  8
Default
 10
365.0
 20
311.0
 30
0.0
 11
325.0
 21
311.0
 31
0.0
  0
LINE
  8
Default
 10
325.0
 20
311.0
 30
0.0
 11
325.0
 21
305.0
 31
0.0
  0
LINE
  8
Default
 10
325.0
 20
305.0
 30
0.0
 11
320.0
 21
305.0
 31
0.0
  0
LINE
  8
Default
 10
320.0
 20
305.0
 30
0.0
 11
320.0
 21
311.0
 31
0.0
  0
LINE
  8
Default
 10
320.0
 20
311.0
 30
0.0
 11
305.0
 21
311.0
 31
0.0
  0
ARC
  8
Default
 10
255.0
 20
319.439850057365
 30
0.0
 40
14.0112015172944
 50
2.2912227106878
 51
177.708777289312
  0
LINE
  8
Default
 10
241.0
 20
320.0
 30
0.0
 11
246.0
 21
320.0
 31
0.0
  0
LINE
  8
Default
 10
246.0
 20
320.0
 30
0.0
 11
246.0
 21
305.0
 31
0.0
  0
LINE
  8
Default
 10
246.0
 20
305.0
 30
0.0
 11
251.25
 21
305.0
 31
0.0
  0
LINE
  8
Default
 10
251.25
 20
305.0
 30
0.0
 11
251.25
 21
280.0
 31
0.0
  0
LINE
  8
Default
 10
251.25
 20
280.0
 30
0.0
 11
246.0
 21
280.0
 31
0.0
  0
LINE
  8
Default
 10
246.0
 20
280.0
 30
0.0
 11
246.0
 21
274.0
 31
0.0
  0
LINE
  8
Default
 10
246.0
 20
274.0
 30
0.0
 11
264.0
 21
274.0
 31
0.0
  0
LINE
  8
Default
 10
264.0
 20
274.0
 30
0.0
 11
264.0
 21
280.0
 31
0.0
  0
LINE
  8
Default
 10
264.0
 20
280.0
 30
0.0
 11
258.75
 21
280.0
 31
0.0
  0
LINE
  8
Default
 10
258.75
 20
280.0
 30
0.0
 11
258.75
 21
305.0
 31
0.0
  0
LINE
  8
Default
 10
258.75
 20
305.0
 30
0.0
 11
264.0
 21
305.0
 31
0.0
  0
LINE
  8
Default
 10
264.0
 20
305.0
 30
0.0
 11
264.0
 21
320.0
 31
0.0
  0
LINE
  8
Default
 10
264.0
 20
320.0
 30
0.0
 11
269.0
 21
320.0
 31
0.0
  0
ARC
  8
Default
 10
282.0
 20
343.439850057365
 30
0.0
 40
14.0112015172944
 50
2.2912227106878
 51
177.708777289312
  0
LINE
  8
Default
 10
268.0
 20
344.0
 30
0.0
 11
273.0
 21
344.0
 31
0.0
  0
LINE
  8
Default
 10
273.0
 20
344.0
 30
0.0
 11
273.0
 21
329.0
 31
0.0
  0
LINE
  8
Default
 10
273.0
 20
329.0
 30
0.0
 11
278.25
 21
329.0
 31
0.0
  0
LINE
  8
Default
 10
278.25
 20
329.0
 30
0.0
 11
278.25
 21
304.0
 31
0.0
  0
LINE
  8
Default
 10
278.25
 20
304.0
 30
0.0
 11
273.0
 21
304.0
 31
0.0
  0
LINE
  8
Default
 10
273.0
 20
304.0
 30
0.0
 11
273.0
 21
298.0
 31
0.0
  0
LINE
  8
Default
 10
273.0
 20
298.0
 30
0.0
 11
291.0
 21
298.0
 31
0.0
  0
LINE
  8
Default
 10
291.0
 20
298.0
 30
0.0
 11
291.0
 21
304.0
 31
0.0
  0
LINE
  8
Default
 10
291.0
 20
304.0
 30
0.0
 11
285.75
 21
304.0
 31
0.0
  0
LINE
  8
Default
 10
285.75
 20
304.0
 30
0.0
 11
285.75
 21
329.0
 31
0.0
  0
LINE
  8
Default
 10
285.75
 20
329.0
 30
0.0
 11
291.0
 21
329.0
 31
0.0
  0
LINE
  8
Default
 10
291.0
 20
329.0
 30
0.0
 11
291.0
 21
344.0
 31
0.0
  0
LINE
  8
Default
 10
291.0
 20
344.0
 30
0.0
 11
296.0
 21
344.0
 31
0.0
  0
LINE
  8
Default
 10
158.0
 20
311.0
 30
0.0
 11
158.0
 21
275.0
 31
0.0
  0
LINE
  8
Default
 10
158.0
 20
275.0
 30
0.0
 11
173.0
 21
275.0
 31
0.0
  0
LINE
  8
Default
 10
173.0
 20
275.0
 30
0.0
 11
173.0
 21
282.0
 31
0.0
  0
LINE
  8
Default
 10
173.0
 20
282.0
 30
0.0
 11
178.0
 21
282.0
 31
0.0
  0
LINE
  8
Default
 10
178.0
 20
282.0
 30
0.0
 11
178.0
 21
275.0
 31
0.0
  0
LINE
  8
Default
 10
178.0
 20
275.0
 30
0.0
 11
218.0
 21
275.0
 31
0.0
  0
LINE
  8
Default
 10
218.0
 20
275.0
 30
0.0
 11
218.0
 21
282.0
 31
0.0
  0
LINE
  8
Default
 10
218.0
 20
282.0
 30
0.0
 11
223.0
 21
282.0
 31
0.0
  0
LINE
  8
Default
 10
223.0
 20
282.0
 30
0.0
 11
223.0
 21
275.0
 31
0.0
  0
LINE
  8
Default
 10
223.0
 20
275.0
 30
0.0
 11
238.0
 21
275.0
 31
0.0
  0
LINE
  8
Default
 10
238.0
 20
275.0
 30
0.0
 11
238.0
 21
311.0
 31
0.0
  0
LINE
  8
Default
 10
238.0
 20
311.0
 30
0.0
 11
223.0
 21
311.0
 31
0.0
  0
LINE
  8
Default
 10
223.0
 20
311.0
 30
0.0
 11
223.0
 21
305.0
 31
0.0
  0
LINE
  8
Default
 10
223.0
 20
305.0
 30
0.0
 11
218.0
 21
305.0
 31
0.0
  0
LINE
  8
Default
 10
218.0
 20
305.0
 30
0.0
 11
218.0
 21
311.0
 31
0.0
  0
LINE
  8
Default
 10
218.0
 20
311.0
 30
0.0
 11
178.0
 21
311.0
 31
0.0
  0
LINE
  8
Default
 10
178.0
 20
311.0
 30
0.0
 11
178.0
 21
305.0
 31
0.0
  0
LINE
  8
Default
 10
178.0
 20
305.0
 30
0.0
 11
173.0
 21
305.0
 31
0.0
  0
LINE
  8
Default
 10
173.0
 20
305.0
 30
0.0
 11
173.0
 21
311.0
 31
0.0
  0
LINE
  8
Default
 10
173.0
 20
311.0
 30
0.0
 11
158.0
 21
311.0
 31
0.0
  0
LINE
  8
Default
 10
238.0
 20
356.0
 30
0.0
 11
238.0
 21
320.0
 31
0.0
  0
LINE
  8
Default
 10
238.0
 20
320.0
 30
0.0
 11
223.0
 21
320.0
 31
0.0
  0
LINE
  8
Default
 10
223.0
 20
320.0
 30
0.0
 11
223.0
 21
327.0
 31
0.0
  0
LINE
  8
Default
 10
223.0
 20
327.0
 30
0.0
 11
218.0
 21
327.0
 31
0.0
  0
LINE
  8
Default
 10
218.0
 20
327.0
 30
0.0
 11
218.0
 21
320.0
 31
0.0
  0
LINE
  8
Default
 10
218.0
 20
320.0
 30
0.0
 11
178.0
 21
320.0
 31
0.0
  0
LINE
  8
Default
 10
178.0
 20
320.0
 30
0.0
 11
178.0
 21
327.0
 31
0.0
  0
LINE
  8
Default
 10
178.0
 20
327.0
 30
0.0
 11
173.0
 21
327.0
 31
0.0
  0
LINE
  8
Default
 10
173.0
 20
327.0
 30
0.0
 11
173.0
 21
320.0
 31
0.0
  0
LINE
  8
Default
 10
173.0
 20
320.0
 30
0.0
 11
158.0
 21
320.0
 31
0.0
  0
LINE
  8
Default
 10
158.0
 20
320.0
 30
0.0
 11
158.0
 21
356.0
 31
0.0
  0
LINE
  8
Default
 10
158.0
 20
356.0
 30
0.0
 11
173.0
 21
356.0
 31
0.0
  0
LINE
  8
Default
 10
173.0
 20
356.0
 30
0.0
 11
173.0
 21
350.0
 31
0.0
  0
LINE
  8
Default
 10
173.0
 20
350.0
 30
0.0
 11
178.0
 21
350.0
 31
0.0
  0
LINE
  8
Default
 10
178.0
 20
350.0
 30
0.0
 11
178.0
 21
356.0
 31
0.0
  0
LINE
  8
Default
 10
178.0
 20
356.0
 30
0.0
 11
218.0
 21
356.0
 31
0.0
  0
LINE
  8
Default
 10
218.0
 20
356.0
 30
0.0
 11
218.0
 21
350.0
 31
0.0
  0
LINE
  8
Default
 10
218.0
 20
350.0
 30
0.0
 11
223.0
 21
350.0
 31
0.0
  0
LINE
  8
Default
 10
223.0
 20
350.0
 30
0.0
 11
223.0
 21
356.0
 31
0.0
  0
LINE
  8
Default
 10
223.0
 20
356.0
 30
0.0
 11
238.0
 21
356.0
 31
0.0
  0
ARC
  8
Default
 10
109.0
 20
319.439850057365
 30
0.0
 40
14.0112015172944
 50
2.2912227106878
 51
177.708777289312
  0
LINE
  8
Default
 10
95.0
 20
320.0
 30
0.0
 11
100.0
 21
320.0
 31
0.0
  0
LINE
  8
Default
 10
100.0
 20
320.0
 30
0.0
 11
100.0
 21
305.0
 31
0.0
  0
LINE
  8
Default
 10
100.0
 20
305.0
 30
0.0
 11
105.25
 21
305.0
 31
0.0
  0
LINE
  8
Default
 10
105.25
 20
305.0
 30
0.0
 11
105.25
 21
280.0
 31
0.0
  0
LINE
  8
Default
 10
105.25
 20
280.0
 30
0.0
 11
100.0
 21
280.0
 31
0.0
  0
LINE
  8
Default
 10
100.0
 20
280.0
 30
0.0
 11
100.0
 21
274.0
 31
0.0
  0
LINE
  8
Default
 10
100.0
 20
274.0
 30
0.0
 11
118.0
 21
274.0
 31
0.0
  0
LINE
  8
Default
 10
118.0
 20
274.0
 30
0.0
 11
118.0
 21
280.0
 31
0.0
  0
LINE
  8
Default
 10
118.0
 20
280.0
 30
0.0
 11
112.75
 21
280.0
 31
0.0
  0
LINE
  8
Default
 10
112.75
 20
280.0
 30
0.0
 11
112.75
 21
305.0
 31
0.0
  0
LINE
  8
Default
 10
112.75
 20
305.0
 30
0.0
 11
118.0
 21
305.0
 31
0.0
  0
LINE
  8
Default
 10
118.0
 20
305.0
 30
0.0
 11
118.0
 21
320.0
 31
0.0
  0
LINE
  8
Default
 10
118.0
 20
320.0
 30
0.0
 11
123.0
 21
320.0
 31
0.0
  0
ARC
  8
Default
 10
136.0
 20
343.439850057365
 30
0.0
 40
14.0112015172944
 50
2.2912227106878
 51
177.708777289312
  0
LINE
  8
Default
 10
122.0
 20
344.0
 30
0.0
 11
127.0
 21
344.0
 31
0.0
  0
LINE
  8
Default
 10
127.0
 20
344.0
 30
0.0
 11
127.0
 21
329.0
 31
0.0
  0
LINE
  8
Default
 10
127.0
 20
329.0
 30
0.0
 11
132.25
 21
329.0
 31
0.0
  0
LINE
  8
Default
 10
132.25
 20
329.0
 30
0.0
 11
132.25
 21
304.0
 31
0.0
  0
LINE
  8
Default
 10
132.25
 20
304.0
 30
0.0
 11
127.0
 21
304.0
 31
0.0
  0
LINE
  8
Default
 10
127.0
 20
304.0
 30
0.0
 11
127.0
 21
298.0
 31
0.0
  0
LINE
  8
Default
 10
127.0
 20
298.0
 30
0.0
 11
145.0
 21
298.0
 31
0.0
  0
LINE
  8
Default
 10
145.0
 20
298.0
 30
0.0
 11
145.0
 21
304.0
 31
0.0
  0
LINE
  8
Default
 10
145.0
 20
304.0
 30
0.0
 11
139.75
 21
304.0
 31
0.0
  0
LINE
  8
Default
 10
139.75
 20
304.0
 30
0.0
 11
139.75
 21
329.0
 31
0.0
  0
LINE
  8
Default
 10
139.75
 20
329.0
 30
0.0
 11
145.0
 21
329.0
 31
0.0
  0
LINE
  8
Default
 10
145.0
 20
329.0
 30
0.0
 11
145.0
 21
344.0
 31
0.0
  0
LINE
  8
Default
 10
145.0
 20
344.0
 30
0.0
 11
150.0
 21
344.0
 31
0.0
  0
LINE
  8
Default
 10
12.0
 20
311.0
 30
0.0
 11
12.0
 21
275.0
 31
0.0
  0
LINE
  8
Default
 10
12.0
 20
275.0
 30
0.0
 11
27.0
 21
275.0
 31
0.0
  0
LINE
  8
Default
 10
27.0
 20
275.0
 30
0.0
 11
27.0
 21
282.0
 31
0.0
  0
LINE
  8
Default
 10
27.0
 20
282.0
 30
0.0
 11
32.0
 21
282.0
 31
0.0
  0
LINE
  8
Default
 10
32.0
 20
282.0
 30
0.0
 11
32.0
 21
275.0
 31
0.0
  0
LINE
  8
Default
 10
32.0
 20
275.0
 30
0.0
 11
72.0
 21
275.0
 31
0.0
  0
LINE
  8
Default
 10
72.0
 20
275.0
 30
0.0
 11
72.0
 21
282.0
 31
0.0
  0
LINE
  8
Default
 10
72.0
 20
282.0
 30
0.0
 11
77.0
 21
282.0
 31
0.0
  0
LINE
  8
Default
 10
77.0
 20
282.0
 30
0.0
 11
77.0
 21
275.0
 31
0.0
  0
LINE
  8
Default
 10
77.0
 20
275.0
 30
0.0
 11
92.0
 21
275.0
 31
0.0
  0
LINE
  8
Default
 10
92.0
 20
275.0
 30
0.0
 11
92.0
 21
311.0
 31
0.0
  0
LINE
  8
Default
 10
92.0
 20
311.0
 30
0.0
 11
77.0
 21
311.0
 31
0.0
  0
LINE
  8
Default
 10
77.0
 20
311.0
 30
0.0
 11
77.0
 21
305.0
 31
0.0
  0
LINE
  8
Default
 10
77.0
 20
305.0
 30
0.0
 11
72.0
 21
305.0
 31
0.0
  0
LINE
  8
Default
 10
72.0
 20
305.0
 30
0.0
 11
72.0
 21
311.0
 31
0.0
  0
LINE
  8
Default
 10
72.0
 20
311.0
 30
0.0
 11
32.0
 21
311.0
 31
0.0
  0
LINE
  8
Default
 10
32.0
 20
311.0
 30
0.0
 11
32.0
 21
305.0
 31
0.0
  0
LINE
  8
Default
 10
32.0
 20
305.0
 30
0.0
 11
27.0
 21
305.0
 31
0.0
  0
LINE
  8
Default
 10
27.0
 20
305.0
 30
0.0
 11
27.0
 21
311.0
 31
0.0
  0
LINE
  8
Default
 10
27.0
 20
311.0
 30
0.0
 11
12.0
 21
311.0
 31
0.0
  0
LINE
  8
Default
 10
92.0
 20
356.0
 30
0.0
 11
92.0
 21
320.0
 31
0.0
  0
LINE
  8
Default
 10
92.0
 20
320.0
 30
0.0
 11
77.0
 21
320.0
 31
0.0
  0
LINE
  8
Default
 10
77.0
 20
320.0
 30
0.0
 11
77.0
 21
327.0
 31
0.0
  0
LINE
  8
Default
 10
77.0
 20
327.0
 30
0.0
 11
72.0
 21
327.0
 31
0.0
  0
LINE
  8
Default
 10
72.0
 20
327.0
 30
0.0
 11
72.0
 21
320.0
 31
0.0
  0
LINE
  8
Default
 10
72.0
 20
320.0
 30
0.0
 11
32.0
 21
320.0
 31
0.0
  0
LINE
  8
Default
 10
32.0
 20
320.0
 30
0.0
 11
32.0
 21
327.0
 31
0.0
  0
LINE
  8
Default
 10
32.0
 20
327.0
 30
0.0
 11
27.0
 21
327.0
 31
0.0
  0
LINE
  8
Default
 10
27.0
 20
327.0
 30
0.0
 11
27.0
 21
320.0
 31
0.0
  0
LINE
  8
Default
 10
27.0
 20
320.0
 30
0.0
 11
12.0
 21
320.0
 31
0.0
  0
LINE
  8
Default
 10
12.0
 20
320.0
 30
0.0
 11
12.0
 21
356.0
 31
0.0
  0
LINE
  8
Default
 10
12.0
 20
356.0
 30
0.0
 11
27.0
 21
356.0
 31
0.0
  0
LINE
  8
Default
 10
27.0
 20
356.0
 30
0.0
 11
27.0
 21
350.0
 31
0.0
  0
LINE
  8
Default
 10
27.0
 20
350.0
 30
0.0
 11
32.0
 21
350.0
 31
0.0
  0
LINE
  8
Default
 10
32.0
 20
350.0
 30
0.0
 11
32.0
 21
356.0
 31
0.0
  0
LINE
  8
Default
 10
32.0
 20
356.0
 30
0.0
 11
72.0
 21
356.0
 31
0.0
  0
LINE
  8
Default
 10
72.0
 20
356.0
 30
0.0
 11
72.0
 21
350.0
 31
0.0
  0
LINE
  8
Default
 10
72.0
 20
350.0
 30
0.0
 11
77.0
 21
350.0
 31
0.0
  0
LINE
  8
Default
 10
77.0
 20
350.0
 30
0.0
 11
77.0
 21
356.0
 31
0.0
  0
LINE
  8
Default
 10
77.0
 20
356.0
 30
0.0
 11
92.0
 21
356.0
 31
0.0
  0
LINE
  8
Default
 10
163.0
 20
224.0
 30
0.0
 11
163.0
 21
189.0
 31
0.0
  0
LINE
  8
Default
 10
163.0
 20
189.0
 30
0.0
 11
204.480829625936
 21
224.173060718482
 31
0.0
  0
LINE
  8
Default
 10
204.480829625936
 20
224.173060718482
 30
0.0
 11
163.0
 21
224.0
 31
0.0
  0
LINE
  8
Default
 10
138.0
 20
263.611111111111
 30
0.0
 11
138.0
 21
175.611111111111
 31
0.0
  0
LINE
  8
Default
 10
138.0
 20
175.611111111111
 30
0.0
 11
161.901837486099
 21
175.702922857171
 31
0.0
  0
LINE
  8
Default
 10
161.901837486099
 20
175.702922857171
 30
0.0
 11
222.0
 21
225.611111111111
 31
0.0
  0
LINE
  8
Default
 10
222.0
 20
225.611111111111
 30
0.0
 11
222.0
 21
263.611111111111
 31
0.0
  0
LINE
  8
Default
 10
222.0
 20
263.611111111111
 30
0.0
 11
188.0
 21
263.611111111111
 31
0.0
  0
LINE
  8
Default
 10
188.0
 20
263.611111111111
 30
0.0
 11
188.0
 21
268.611111111111
 31
0.0
  0
LINE
  8
Default
 10
188.0
 20
268.611111111111
 30
0.0
 11
172.0
 21
268.611111111111
 31
0.0
  0
LINE
  8
Default
 10
172.0
 20
268.611111111111
 30
0.0
 11
172.0
 21
263.611111111111
 31
0.0
  0
LINE
  8
Default
 10
172.0
 20
263.611111111111
 30
0.0
 11
138.0
 21
263.611111111111
 31
0.0
  0
ARC
  8
Default
 10
243.824923568255
 20
239.0833297779
 30
0.0
 40
13.2628984600353
 50
279.438976947203
 51
353.954774242472
  0
LINE
  8
Default
 10
257.014068074228
 20
237.686568251449
 30
0.0
 11
257.0
 21
264.0
 31
0.0
  0
LINE
  8
Default
 10
257.0
 20
264.0
 30
0.0
 11
246.0
 21
264.0
 31
0.0
  0
LINE
  8
Default
 10
246.0
 20
264.0
 30
0.0
 11
246.0
 21
259.0
 31
0.0
  0
LINE
  8
Default
 10
246.0
 20
259.0
 30
0.0
 11
228.0
 21
259.0
 31
0.0
  0
LINE
  8
Default
 10
228.0
 20
259.0
 30
0.0
 11
228.0
 21
255.0
 31
0.0
  0
LINE
  8
Default
 10
228.0
 20
255.0
 30
0.0
 11
231.0
 21
255.0
 31
0.0
  0
LINE
  8
Default
 10
231.0
 20
255.0
 30
0.0
 11
231.0
 21
252.0
 31
0.0
  0
LINE
  8
Default
 10
231.0
 20
252.0
 30
0.0
 11
228.0
 21
252.0
 31
0.0
  0
LINE
  8
Default
 10
228.0
 20
252.0
 30
0.0
 11
228.0
 21
246.2
 31
0.0
  0
LINE
  8
Default
 10
228.0
 20
246.2
 30
0.0
 11
239.051867257593
 21
246.2
 31
0.0
  0
LINE
  8
Default
 10
239.051867257593
 20
246.2
 30
0.0
 11
239.051867257593
 21
243.0
 31
0.0
  0
LINE
  8
Default
 10
239.051867257593
 20
243.0
 30
0.0
 11
228.0
 21
243.0
 31
0.0
  0
LINE
  8
Default
 10
228.0
 20
243.0
 30
0.0
 11
228.0
 21
238.0
 31
0.0
  0
LINE
  8
Default
 10
228.0
 20
238.0
 30
0.0
 11
231.0
 21
238.0
 31
0.0
  0
LINE
  8
Default
 10
231.0
 20
238.0
 30
0.0
 11
231.0
 21
235.0
 31
0.0
  0
LINE
  8
Default
 10
231.0
 20
235.0
 30
0.0
 11
228.0
 21
235.0
 31
0.0
  0
LINE
  8
Default
 10
228.0
 20
235.0
 30
0.0
 11
228.0
 21
231.0
 31
0.0
  0
LINE
  8
Default
 10
228.0
 20
231.0
 30
0.0
 11
246.0
 21
231.0
 31
0.0
  0
LINE
  8
Default
 10
246.0
 20
231.0
 30
0.0
 11
246.0
 21
226.0
 31
0.0
  0
ARC
  8
Default
 10
197.528276071376
 20
188.615887454349
 30
0.0
 40
12.2827303381157
 50
225.757541742131
 51
308.480916311447
  0
LINE
  8
Default
 10
205.171253372904
 20
179.000776299131
 30
0.0
 11
225.194332785773
 21
195.690373216182
 31
0.0
  0
LINE
  8
Default
 10
225.194332785773
 20
195.690373216182
 30
0.0
 11
218.152961054942
 21
204.141354469756
 31
0.0
  0
LINE
  8
Default
 10
218.152961054942
 20
204.141354469756
 30
0.0
 11
214.311605939682
 21
200.940730955742
 31
0.0
  0
LINE
  8
Default
 10
214.311605939682
 20
200.940730955742
 30
0.0
 11
211.110982425667
 21
204.782086071003
 31
0.0
  0
LINE
  8
Default
 10
211.110982425667
 20
204.782086071003
 30
0.0
 11
189.599393780207
 21
186.858594392524
 31
0.0
  0
LINE
  8
Default
 10
189.599393780207
 20
186.858594392524
 30
0.0
 11
192.800017294221
 21
183.017239277263
 31
0.0
  0
LINE
  8
Default
 10
192.800017294221
 20
183.017239277263
 30
0.0
 11
188.95866217896
 21
179.816615763249
 31
0.0
  0
LINE
  8
Default
 10
235.863205291571
 20
175.06409109127
 30
0.0
 11
251.869454881501
 21
174.998900041895
 31
0.0
  0
LINE
  8
Default
 10
251.869454881501
 20
174.998900041895
 30
0.0
 11
251.953859396982
 21
189.023542434045
 31
0.0
  0
LINE
  8
Default
 10
251.953859396982
 20
189.023542434045
 30
0.0
 11
256.956075864628
 21
192.998830747504
 31
0.0
  0
LINE
  8
Default
 10
256.956075864628
 20
192.998830747504
 30
0.0
 11
257.012493798973
 21
211.544820294771
 31
0.0
  0
LINE
  8
Default
 10
257.012493798973
 20
211.544820294771
 30
0.0
 11
252.090033552992
 21
215.154621989858
 31
0.0
  0
LINE
  8
Default
 10
252.090033552992
 20
215.154621989858
 30
0.0
 11
252.104704351792
 21
219.97728138618
 31
0.0
  0
LINE
  8
Default
 10
252.104704351792
 20
219.97728138618
 30
0.0
 11
236.00009716741
 21
220.063882875392
 31
0.0
  0
LINE
  8
Default
 10
236.00009716741
 20
220.063882875392
 30
0.0
 11
235.863205291571
 21
175.06409109127
 31
0.0
  0
LINE
  8
Default
 10
296.0
 20
224.0
 30
0.0
 11
296.0
 21
189.0
 31
0.0
  0
LINE
  8
Default
 10
296.0
 20
189.0
 30
0.0
 11
337.480829625936
 21
224.173060718482
 31
0.0
  0
LINE
  8
Default
 10
337.480829625936
 20
224.173060718482
 30
0.0
 11
296.0
 21
224.0
 31
0.0
  0
LINE
  8
Default
 10
271.0
 20
263.611111111111
 30
0.0
 11
271.0
 21
175.611111111111
 31
0.0
  0
LINE
  8
Default
 10
271.0
 20
175.611111111111
 30
0.0
 11
294.901837486099
 21
175.702922857171
 31
0.0
  0
LINE
  8
Default
 10
294.901837486099
 20
175.702922857171
 30
0.0
 11
355.0
 21
225.611111111111
 31
0.0
  0
LINE
  8
Default
 10
355.0
 20
225.611111111111
 30
0.0
 11
355.0
 21
263.611111111111
 31
0.0
  0
LINE
  8
Default
 10
355.0
 20
263.611111111111
 30
0.0
 11
321.0
 21
263.611111111111
 31
0.0
  0
LINE
  8
Default
 10
321.0
 20
263.611111111111
 30
0.0
 11
321.0
 21
268.611111111111
 31
0.0
  0
LINE
  8
Default
 10
321.0
 20
268.611111111111
 30
0.0
 11
305.0
 21
268.611111111111
 31
0.0
  0
LINE
  8
Default
 10
305.0
 20
268.611111111111
 30
0.0
 11
305.0
 21
263.611111111111
 31
0.0
  0
LINE
  8
Default
 10
305.0
 20
263.611111111111
 30
0.0
 11
271.0
 21
263.611111111111
 31
0.0
  0
ARC
  8
Default
 10
376.824923568255
 20
239.0833297779
 30
0.0
 40
13.2628984600353
 50
279.438976947203
 51
353.954774242472
  0
LINE
  8
Default
 10
390.014068074228
 20
237.686568251449
 30
0.0
 11
390.0
 21
264.0
 31
0.0
  0
LINE
  8
Default
 10
390.0
 20
264.0
 30
0.0
 11
379.0
 21
264.0
 31
0.0
  0
LINE
  8
Default
 10
379.0
 20
264.0
 30
0.0
 11
379.0
 21
259.0
 31
0.0
  0
LINE
  8
Default
 10
379.0
 20
259.0
 30
0.0
 11
361.0
 21
259.0
 31
0.0
  0
LINE
  8
Default
 10
361.0
 20
259.0
 30
0.0
 11
361.0
 21
255.0
 31
0.0
  0
LINE
  8
Default
 10
361.0
 20
255.0
 30
0.0
 11
364.0
 21
255.0
 31
0.0
  0
LINE
  8
Default
 10
364.0
 20
255.0
 30
0.0
 11
364.0
 21
252.0
 31
0.0
  0
LINE
  8
Default
 10
364.0
 20
252.0
 30
0.0
 11
361.0
 21
252.0
 31
0.0
  0
LINE
  8
Default
 10
361.0
 20
252.0
 30
0.0
 11
361.0
 21
246.2
 31
0.0
  0
LINE
  8
Default
 10
361.0
 20
246.2
 30
0.0
 11
372.051867257593
 21
246.2
 31
0.0
  0
LINE
  8
Default
 10
372.051867257593
 20
246.2
 30
0.0
 11
372.051867257593
 21
243.0
 31
0.0
  0
LINE
  8
Default
 10
372.051867257593
 20
243.0
 30
0.0
 11
361.0
 21
243.0
 31
0.0
  0
LINE
  8
Default
 10
361.0
 20
243.0
 30
0.0
 11
361.0
 21
238.0
 31
0.0
  0
LINE
  8
Default
 10
361.0
 20
238.0
 30
0.0
 11
364.0
 21
238.0
 31
0.0
  0
LINE
  8
Default
 10
364.0
 20
238.0
 30
0.0
 11
364.0
 21
235.0
 31
0.0
  0
LINE
  8
Default
 10
364.0
 20
235.0
 30
0.0
 11
361.0
 21
235.0
 31
0.0
  0
LINE
  8
Default
 10
361.0
 20
235.0
 30
0.0
 11
361.0
 21
231.0
 31
0.0
  0
LINE
  8
Default
 10
361.0
 20
231.0
 30
0.0
 11
379.0
 21
231.0
 31
0.0
  0
LINE
  8
Default
 10
379.0
 20
231.0
 30
0.0
 11
379.0
 21
226.0
 31
0.0
  0
ARC
  8
Default
 10
330.528276071376
 20
188.615887454348
 30
0.0
 40
12.2827303381157
 50
225.757541742131
 51
308.480916311447
  0
LINE
  8
Default
 10
338.171253372904
 20
179.000776299131
 30
0.0
 11
358.194332785773
 21
195.690373216182
 31
0.0
  0
LINE
  8
Default
 10
358.194332785773
 20
195.690373216182
 30
0.0
 11
351.152961054942
 21
204.141354469756
 31
0.0
  0
LINE
  8
Default
 10
351.152961054942
 20
204.141354469756
 30
0.0
 11
347.311605939682
 21
200.940730955742
 31
0.0
  0
LINE
  8
Default
 10
347.311605939682
 20
200.940730955742
 30
0.0
 11
344.110982425667
 21
204.782086071003
 31
0.0
  0
LINE
  8
Default
 10
344.110982425667
 20
204.782086071003
 30
0.0
 11
322.599393780207
 21
186.858594392524
 31
0.0
  0
LINE
  8
Default
 10
322.599393780207
 20
186.858594392524
 30
0.0
 11
325.800017294221
 21
183.017239277263
 31
0.0
  0
LINE
  8
Default
 10
325.800017294221
 20
183.017239277263
 30
0.0
 11
321.95866217896
 21
179.816615763249
 31
0.0
  0
LINE
  8
Default
 10
368.863205291571
 20
175.06409109127
 30
0.0
 11
384.869454881501
 21
174.998900041895
 31
0.0
  0
LINE
  8
Default
 10
384.869454881501
 20
174.998900041895
 30
0.0
 11
384.953859396982
 21
189.023542434045
 31
0.0
  0
LINE
  8
Default
 10
384.953859396982
 20
189.023542434045
 30
0.0
 11
389.956075864628
 21
192.998830747504
 31
0.0
  0
LINE
  8
Default
 10
389.956075864628
 20
192.998830747504
 30
0.0
 11
390.012493798973
 21
211.544820294771
 31
0.0
  0
LINE
  8
Default
 10
390.012493798973
 20
211.544820294771
 30
0.0
 11
385.090033552992
 21
215.154621989858
 31
0.0
  0
LINE
  8
Default
 10
385.090033552992
 20
215.154621989858
 30
0.0
 11
385.104704351792
 21
219.97728138618
 31
0.0
  0
LINE
  8
Default
 10
385.104704351792
 20
219.97728138618
 30
0.0
 11
369.00009716741
 21
220.063882875392
 31
0.0
  0
LINE
  8
Default
 10
369.00009716741
 20
220.063882875392
 30
0.0
 11
368.863205291571
 21
175.06409109127
 31
0.0
  0
LINE
  8
Default
 10
202.909364384047
 20
129.207290394789
 30
0.0
 11
265.950798560464
 21
129.270777017421
 31
0.0
  0
LINE
  8
Default
 10
265.950798560464
 20
129.270777017421
 30
0.0
 11
265.967392750051
 21
164.930508321657
 31
0.0
  0
LINE
  8
Default
 10
265.967392750051
 20
164.930508321657
 30
0.0
 11
249.873429049653
 21
164.914300704977
 31
0.0
  0
LINE
  8
Default
 10
249.873429049653
 20
164.914300704977
 30
0.0
 11
249.868393743012
 21
169.914298169545
 31
0.0
  0
LINE
  8
Default
 10
249.868393743012
 20
169.914298169545
 30
0.0
 11
221.868407941431
 21
169.886100452353
 31
0.0
  0
LINE
  8
Default
 10
221.868407941431
 20
169.886100452353
 30
0.0
 11
221.873443248072
 21
164.886102987785
 31
0.0
  0
LINE
  8
Default
 10
221.873443248072
 20
164.886102987785
 30
0.0
 11
202.873452882714
 21
164.866968822547
 31
0.0
  0
LINE
  8
Default
 10
202.873452882714
 20
164.866968822547
 30
0.0
 11
202.909364384047
 21
129.207290394789
 31
0.0
  0
LINE
  8
Default
 10
409.975494822813
 20
13.0509511189703
 30
0.0
 11
409.969333852268
 21
163.075526167102
 31
0.0
  0
LINE
  8
Default
 10
409.969333852268
 20
163.075526167102
 30
0.0
 11
393.87537015187
 21
163.059318550422
 31
0.0
  0
LINE
  8
Default
 10
393.87537015187
 20
163.059318550422
 30
0.0
 11
393.870334845229
 21
168.05931601499
 31
0.0
  0
LINE
  8
Default
 10
393.870334845229
 20
168.05931601499
 30
0.0
 11
365.870349043647
 21
168.031118297798
 31
0.0
  0
LINE
  8
Default
 10
365.870349043647
 20
168.031118297798
 30
0.0
 11
365.875384350289
 21
163.03112083323
 31
0.0
  0
LINE
  8
Default
 10
365.875384350289
 20
163.03112083323
 30
0.0
 11
346.875241880915
 21
163.163024081544
 31
0.0
  0
LINE
  8
Default
 10
346.875241880915
 20
163.163024081544
 30
0.0
 11
347.026453184173
 21
13.0120627309511
 31
0.0
  0
LINE
  8
Default
 10
347.026453184173
 20
13.0120627309511
 30
0.0
 11
366.026443549531
 21
13.0311968961885
 31
0.0
  0
LINE
  8
Default
 10
366.026443549531
 20
13.0311968961885
 30
0.0
 11
366.031478856173
 21
8.0311994316204
 31
0.0
  0
LINE
  8
Default
 10
366.031478856173
 20
8.0311994316204
 30
0.0
 11
394.031464657754
 21
8.0593971488123
 31
0.0
  0
LINE
  8
Default
 10
394.031464657754
 20
8.0593971488123
 30
0.0
 11
394.026429351112
 21
13.0593946133804
 31
0.0
  0
LINE
  8
Default
 10
394.026429351112
 20
13.0593946133804
 30
0.0
 11
409.975494822813
 21
13.0509511189703
 31
0.0
  0
LINE
  8
Default
 10
339.029478424849
 20
10.0040077615844
 30
0.0
 11
338.868348612324
 21
170.003926627762
 31
0.0
  0
LINE
  8
Default
 10
338.868348612324
 20
170.003926627762
 30
0.0
 11
275.868380558766
 21
169.940481764081
 31
0.0
  0
LINE
  8
Default
 10
275.868380558766
 20
169.940481764081
 30
0.0
 11
276.029510371291
 21
9.9405628979027
 31
0.0
  0
LINE
  8
Default
 10
276.029510371291
 20
9.9405628979027
 30
0.0
 11
339.029478424849
 21
10.0040077615844
 31
0.0
  0
LINE
  8
Default
 10
217.271690793102
 20
13.0888703583691
 30
0.0
 11
266.398605680295
 21
13.2312760250445
 31
0.0
  0
LINE
  8
Default
 10
266.398605680295
 20
13.2312760250445
 30
0.0
 11
266.186667297339
 21
43.3057471507337
 31
0.0
  0
LINE
  8
Default
 10
266.186667297339
 20
43.3057471507337
 30
0.0
 11
249.856750067302
 21
53.018404864605
 31
0.0
  0
LINE
  8
Default
 10
249.856750067302
 20
53.018404864605
 30
0.0
 11
242.152931059183
 21
40.1478570299328
 31
0.0
  0
LINE
  8
Default
 10
242.152931059183
 20
40.1478570299328
 30
0.0
 11
218.110181630478
 21
54.4986827869579
 31
0.0
  0
LINE
  8
Default
 10
218.110181630478
 20
54.4986827869579
 30
0.0
 11
225.814000638596
 21
67.3692306216292
 31
0.0
  0
LINE
  8
Default
 10
225.814000638596
 20
67.3692306216292
 30
0.0
 11
212.090481082752
 21
75.5951051040385
 31
0.0
  0
LINE
  8
Default
 10
212.090481082752
 20
75.5951051040385
 30
0.0
 11
212.349562739594
 21
23.0645348498113
 31
0.0
  0
LINE
  8
Default
 10
212.349562739594
 20
23.0645348498113
 30
0.0
 11
217.242732918692
 21
23.0787188294711
 31
0.0
  0
LINE
  8
Default
 10
217.242732918692
 20
23.0787188294711
 30
0.0
 11
217.271690793102
 21
13.0888703583691
 31
0.0
  0
LINE
  8
Default
 10
261.044613805853
 20
121.165419030218
 30
0.0
 11
211.917517432994
 21
121.115945006203
 31
0.0
  0
LINE
  8
Default
 10
211.917517432994
 20
121.115945006203
 30
0.0
 11
212.072564782258
 21
91.0411267742075
 31
0.0
  0
LINE
  8
Default
 10
212.072564782258
 20
91.0411267742075
 30
0.0
 11
228.38407975521
 21
81.2975957975095
 31
0.0
  0
LINE
  8
Default
 10
228.38407975521
 20
81.2975957975095
 30
0.0
 11
236.112231671886
 21
94.153547603082
 31
0.0
  0
LINE
  8
Default
 10
236.112231671886
 20
94.153547603082
 30
0.0
 11
260.127791209846
 21
79.7572668306487
 31
0.0
  0
LINE
  8
Default
 10
260.127791209846
 20
79.7572668306487
 30
0.0
 11
252.39963929317
 21
66.9013150250772
 31
0.0
  0
LINE
  8
Default
 10
252.39963929317
 20
66.9013150250772
 30
0.0
 11
266.107573742668
 21
58.6494950362343
 31
0.0
  0
LINE
  8
Default
 10
266.107573742668
 20
58.6494950362343
 30
0.0
 11
265.947862493738
 21
111.180461397574
 31
0.0
  0
LINE
  8
Default
 10
265.947862493738
 20
111.180461397574
 30
0.0
 11
261.054674238191
 21
111.175533654411
 31
0.0
  0
LINE
  8
Default
 10
261.054674238191
 20
111.175533654411
 30
0.0
 11
261.044613805853
 21
121.165419030218
 31
0.0
  0
LINE
  8
Default
 10
42.2999999999999
 20
96.9305172142482
 30
0.0
 11
42.3
 21
109.647898111639
 31
0.0
  0
LINE
  8
Default
 10
42.3
 20
109.647898111639
 30
0.0
 11
51.833324109536
 21
109.337604529958
 31
0.0
  0
LINE
  8
Default
 10
51.833324109536
 20
109.337604529958
 30
0.0
 11
53.454191029298
 21
109.708789216453
 31
0.0
  0
LINE
  8
Default
 10
53.454191029298
 20
109.708789216453
 30
0.0
 11
57.772894746323
 21
112.228471379854
 31
0.0
  0
ARC
  8
Default
 10
58.3746966775133
 20
104.275424874315
 30
0.0
 40
7.9757829887506
 50
35.0947246709105
 51
94.3272883450543
  0
ARC
  8
Default
 10
57.6971903849478
 20
105.436704828752
 30
0.0
 40
7.9757829887507
 50
-33.80756824604
 51
25.4249954281038
  0
LINE
  8
Default
 10
64.32435604827
 20
100.998936295522
 30
0.0
 11
60.005571788553
 21
98.479392186358
 31
0.0
  0
LINE
  8
Default
 10
60.005571788553
 20
98.479392186358
 30
0.0
 11
58.884778726602
 21
97.251055687123
 31
0.0
  0
LINE
  8
Default
 10
58.884778726602
 20
97.251055687123
 30
0.0
 11
51.590090813468
 21
83.307123981336
 31
0.0
  0
LINE
  8
Default
 10
51.590090813468
 20
83.307123981336
 30
0.0
 11
51.364515518297
 21
82.914369150353
 31
0.0
  0
LINE
  8
Default
 10
51.364515518297
 20
82.914369150353
 30
0.0
 11
42.99620655634
 21
69.587062285014
 31
0.0
  0
LINE
  8
Default
 10
42.99620655634
 20
69.587062285014
 30
0.0
 11
42.5
 21
68.0
 31
0.0
  0
LINE
  8
Default
 10
42.5
 20
68.0
 30
0.0
 11
42.5
 21
63.0
 31
0.0
  0
ARC
  8
Default
 10
35.3273597805879
 20
66.488029037511
 30
0.0
 40
7.9757829887509
 50
274.833948854564
 51
334.066512528708
  0
ARC
  8
Default
 10
36.671824695928
 20
66.4880075487305
 30
0.0
 40
7.9757829887501
 50
205.931655937614
 51
265.164219611758
  0
LINE
  8
Default
 10
29.499072980823
 20
63.000207795721
 30
0.0
 11
29.499232812288
 21
68.000207793167
 31
0.0
  0
LINE
  8
Default
 10
29.499232812288
 20
68.000207793167
 30
0.0
 11
29.0030769887
 21
69.587285939254
 31
0.0
  0
LINE
  8
Default
 10
29.0030769887
 20
69.587285939254
 30
0.0
 11
20.635194055615
 21
82.914860301601
 31
0.0
  0
LINE
  8
Default
 10
20.635194055615
 20
82.914860301601
 30
0.0
 11
20.449354764522
 21
83.236755292225
 31
0.0
  0
LINE
  8
Default
 10
20.449354764522
 20
83.236755292225
 30
0.0
 11
13.091723493468
 21
97.147577167474
 31
0.0
  0
LINE
  8
Default
 10
13.091723493468
 20
97.147577167474
 30
0.0
 11
11.965390564442
 21
98.370835838426
 31
0.0
  0
LINE
  8
Default
 10
11.965390564442
 20
98.370835838426
 30
0.0
 11
7.63526364569
 21
100.870836011927
 31
0.0
  0
ARC
  8
Default
 10
14.2423056900301
 20
105.338509870655
 30
0.0
 40
7.9757829887505
 50
154.833946558821
 51
214.066510232965
  0
ARC
  8
Default
 10
13.5700545758786
 20
104.1741798708
 30
0.0
 40
7.9757829887507
 50
85.9316536418742
 51
145.164217316018
  0
LINE
  8
Default
 10
14.135907562782
 20
112.129864924952
 30
0.0
 11
18.465954563583
 21
109.629726334622
 31
0.0
  0
LINE
  8
Default
 10
18.465954563583
 20
109.629726334622
 30
0.0
 11
20.088482453101
 21
109.26587074403
 31
0.0
  0
LINE
  8
Default
 10
20.088482453101
 20
109.26587074403
 30
0.0
 11
30.3
 21
109.644444210418
 31
0.0
  0
LINE
  8
Default
 10
30.3
 20
109.644444210418
 30
0.0
 11
30.3
 21
97.6133768802745
 31
0.0
  0
ARC
  8
Default
 10
36.0
 20
92.0
 30
0.0
 40
8.0
 50
135.438687956424
 51
240.0
  0
ARC
  8
Default
 10
36.0
 20
92.0
 30
0.0
 40
8.0
 50
240.0
 51
360.0
  0
ARC
  8
Default
 10
36.0000000000002
 20
91.9999999999997
 30
0.0
 40
7.9999999999998
 50
0.0000000000019
 51
38.0475074536216
  0
ARC
  8
Default
 10
192.167109245658
 20
53.301558533498
 30
0.0
 40
8.3030771301952
 50
202.703941916159
 51
271.939828614218
  0
LINE
  8
Default
 10
192.448167813671
 20
45.0032396729505
 30
0.0
 11
192.506873365408
 21
50.002895026892
 31
0.0
  0
LINE
  8
Default
 10
192.506873365408
 20
50.002895026892
 30
0.0
 11
189.507080153043
 21
50.0381183579343
 31
0.0
  0
LINE
  8
Default
 10
189.507080153043
 20
50.0381183579343
 30
0.0
 11
189.56578570478
 21
55.0377737118757
 31
0.0
  0
LINE
  8
Default
 10
189.56578570478
 20
55.0377737118757
 30
0.0
 11
194.565441058722
 21
54.9790681601385
 31
0.0
  0
LINE
  8
Default
 10
194.565441058722
 20
54.9790681601385
 30
0.0
 11
192.882588896526
 21
82.0006892921171
 31
0.0
  0
LINE
  8
Default
 10
192.882588896526
 20
82.0006892921171
 30
0.0
 11
187.882933542584
 21
82.0593948438543
 31
0.0
  0
LINE
  8
Default
 10
187.882933542584
 20
82.0593948438543
 30
0.0
 11
187.941639094321
 21
87.0590501977957
 31
0.0
  0
LINE
  8
Default
 10
187.941639094321
 20
87.0590501977957
 30
0.0
 11
192.941294448263
 21
87.0003446460586
 31
0.0
  0
LINE
  8
Default
 10
192.941294448263
 20
87.0003446460586
 30
0.0
 11
193.0
 21
92.0
 31
0.0
  0
LINE
  8
Default
 10
193.0
 20
92.0
 30
0.0
 11
175.001240725811
 21
92.2113399862538
 31
0.0
  0
ARC
  8
Default
 10
185.715794076144
 20
84.5850135563746
 30
0.0
 40
13.1515211406208
 50
144.557777557987
 51
214.096759388553
  0
LINE
  8
Default
 10
174.825124070599
 20
77.2123739244295
 30
0.0
 11
184.507424799102
 21
50.0968239096714
 31
0.0
  0
ARC
  8
Default
 10
45.0002198985311
 20
143.142320608325
 30
0.0
 40
8.3030771301951
 50
290.535154938353
 51
359.771041636412
  0
LINE
  8
Default
 10
53.3032307344156
 20
143.109140958636
 30
0.0
 11
48.309378350032
 21
143.357008590622
 31
0.0
  0
LINE
  8
Default
 10
48.309378350032
 20
143.357008590622
 30
0.0
 11
48.1606577708401
 21
140.360697159992
 31
0.0
  0
LINE
  8
Default
 10
48.1606577708401
 20
140.360697159992
 30
0.0
 11
43.1668053864568
 21
140.608564791978
 31
0.0
  0
LINE
  8
Default
 10
43.1668053864568
 20
140.608564791978
 30
0.0
 11
43.4146730184432
 21
145.602417176362
 31
0.0
  0
LINE
  8
Default
 10
43.4146730184432
 20
145.602417176362
 30
0.0
 11
16.3487230899773
 21
144.943361435336
 31
0.0
  0
LINE
  8
Default
 10
16.3487230899773
 20
144.943361435336
 30
0.0
 11
16.1008554579903
 21
139.949509050953
 31
0.0
  0
LINE
  8
Default
 10
16.1008554579903
 20
139.949509050953
 30
0.0
 11
11.1070030736076
 21
140.197376682939
 31
0.0
  0
LINE
  8
Default
 10
11.1070030736076
 20
140.197376682939
 30
0.0
 11
11.3548707055934
 21
145.191229067322
 31
0.0
  0
LINE
  8
Default
 10
11.3548707055934
 20
145.191229067322
 30
0.0
 11
6.3610183212105
 21
145.439096699309
 31
0.0
  0
LINE
  8
Default
 10
6.3610183212105
 20
145.439096699309
 30
0.0
 11
5.4686948460592
 21
127.461228115528
 31
0.0
  0
ARC
  8
Default
 10
13.4950338935719
 20
137.879500035888
 30
0.0
 40
13.1515211406205
 50
232.388990580181
 51
301.927972410747
  0
LINE
  8
Default
 10
20.4502519992095
 20
126.717625219568
 30
0.0
 11
47.9127901388537
 21
135.366844775609
 31
0.0
  0
ARC
  8
Default
 10
37.0706407157337
 20
118.103417845711
 30
0.0
 40
8.3030771301947
 50
111.207886465074
 51
180.443773163134
  0
LINE
  8
Default
 10
28.7678126339131
 20
118.039108641914
 30
0.0
 11
33.764231037207
 21
117.849891467151
 31
0.0
  0
LINE
  8
Default
 10
33.764231037207
 20
117.849891467151
 30
0.0
 11
33.8777613420644
 21
120.847742509127
 31
0.0
  0
LINE
  8
Default
 10
33.8777613420644
 20
120.847742509127
 30
0.0
 11
38.8741797453579
 21
120.658525334366
 31
0.0
  0
LINE
  8
Default
 10
38.8741797453579
 20
120.658525334366
 30
0.0
 11
38.6849625705966
 21
115.662106931071
 31
0.0
  0
LINE
  8
Default
 10
38.6849625705966
 20
115.662106931071
 30
0.0
 11
65.7413088182885
 21
116.638901548673
 31
0.0
  0
LINE
  8
Default
 10
65.7413088182885
 20
116.638901548673
 30
0.0
 11
65.9305259930508
 21
121.635319951967
 31
0.0
  0
LINE
  8
Default
 10
65.9305259930508
 20
121.635319951967
 30
0.0
 11
70.926944396345
 21
121.446102777204
 31
0.0
  0
LINE
  8
Default
 10
70.926944396345
 20
121.446102777204
 30
0.0
 11
70.7377272215827
 21
116.449684373911
 31
0.0
  0
LINE
  8
Default
 10
70.7377272215827
 20
116.449684373911
 30
0.0
 11
75.7341456248765
 21
116.260467199149
 31
0.0
  0
LINE
  8
Default
 10
75.7341456248765
 20
116.260467199149
 30
0.0
 11
76.4153274540203
 21
134.247573451007
 31
0.0
  0
ARC
  8
Default
 10
68.5118637359783
 20
123.735781521475
 30
0.0
 40
13.1515211406206
 50
53.061722106913
 51
122.600703937479
  0
LINE
  8
Default
 10
61.4260722441385
 20
134.815224975293
 30
0.0
 11
34.0669785168271
 21
125.844160912421
 31
0.0
  0
ARC
  8
Default
 10
180.335691808576
 20
134.132375978503
 30
0.0
 40
8.3030771301956
 50
291.729841422763
 51
360.965728120822
  0
LINE
  8
Default
 10
188.6375895329
 20
134.272318841254
 30
0.0
 11
183.639654739241
 21
134.416012259106
 31
0.0
  0
LINE
  8
Default
 10
183.639654739241
 20
134.416012259106
 30
0.0
 11
183.55343868853
 21
131.417251382911
 31
0.0
  0
LINE
  8
Default
 10
183.55343868853
 20
131.417251382911
 30
0.0
 11
178.555503894871
 21
131.560944800764
 31
0.0
  0
LINE
  8
Default
 10
178.555503894871
 20
131.560944800764
 30
0.0
 11
178.699197312723
 21
136.558879594423
 31
0.0
  0
LINE
  8
Default
 10
178.699197312723
 20
136.558879594423
 30
0.0
 11
151.652872059825
 21
135.335650133363
 31
0.0
  0
LINE
  8
Default
 10
151.652872059825
 20
135.335650133363
 30
0.0
 11
151.509178641972
 21
130.337715339704
 31
0.0
  0
LINE
  8
Default
 10
151.509178641972
 20
130.337715339704
 30
0.0
 11
146.511243848313
 21
130.481408757557
 31
0.0
  0
LINE
  8
Default
 10
146.511243848313
 20
130.481408757557
 30
0.0
 11
146.654937266166
 21
135.479343551215
 31
0.0
  0
LINE
  8
Default
 10
146.654937266166
 20
135.479343551215
 30
0.0
 11
141.657002472507
 21
135.623036969068
 31
0.0
  0
LINE
  8
Default
 10
141.657002472507
 20
135.623036969068
 30
0.0
 11
141.139706168237
 21
117.630471711896
 31
0.0
  0
ARC
  8
Default
 10
148.947082598217
 20
128.213825697887
 30
0.0
 40
13.1515211406211
 50
233.583677064594
 51
303.122658895161
  0
LINE
  8
Default
 10
156.133510549214
 20
117.199391458339
 30
0.0
 11
183.409745270677
 21
126.419316589252
 31
0.0
  0
ARC
  8
Default
 10
157.149422351733
 20
100.087459094804
 30
0.0
 40
8.3030771301952
 50
112.402572949493
 51
181.638459647553
  0
LINE
  8
Default
 10
148.849739955269
 20
99.85005238093
 30
0.0
 11
153.849017365498
 21
99.7650501716728
 31
0.0
  0
LINE
  8
Default
 10
153.849017365498
 20
99.7650501716728
 30
0.0
 11
153.900018691052
 21
102.764616617811
 31
0.0
  0
LINE
  8
Default
 10
153.900018691052
 20
102.764616617811
 30
0.0
 11
158.89929610128
 21
102.679614408553
 31
0.0
  0
LINE
  8
Default
 10
158.89929610128
 20
102.679614408553
 30
0.0
 11
158.814293892023
 21
97.680336998325
 31
0.0
  0
LINE
  8
Default
 10
158.814293892023
 20
97.680336998325
 30
0.0
 11
185.84439279096
 21
99.2210360324286
 31
0.0
  0
LINE
  8
Default
 10
185.84439279096
 20
99.2210360324286
 30
0.0
 11
185.929395000217
 21
104.220313442657
 31
0.0
  0
LINE
  8
Default
 10
185.929395000217
 20
104.220313442657
 30
0.0
 11
190.928672410446
 21
104.135311233401
 31
0.0
  0
LINE
  8
Default
 10
190.928672410446
 20
104.135311233401
 30
0.0
 11
190.843670201189
 21
99.1360338231723
 31
0.0
  0
LINE
  8
Default
 10
190.843670201189
 20
99.1360338231723
 30
0.0
 11
195.842947611417
 21
99.051031613915
 31
0.0
  0
LINE
  8
Default
 10
195.842947611417
 20
99.051031613915
 30
0.0
 11
196.148955564742
 21
117.048430290738
 31
0.0
  0
ARC
  8
Default
 10
188.46637761806
 20
106.374138538807
 30
0.0
 40
13.1515211406203
 50
54.2564085913185
 51
123.795390421885
  0
LINE
  8
Default
 10
181.151123334057
 20
117.303436918509
 30
0.0
 11
153.985020900308
 21
107.763894028039
 31
0.0
  0
LINE
  8
Default
 10
159.719440657745
 20
25.859679938349
 30
0.0
 11
160.232424228113
 21
13.1526494140346
 31
0.0
  0
LINE
  8
Default
 10
160.232424228113
 20
13.1526494140346
 30
0.0
 11
150.694342688671
 21
13.0781428286846
 31
0.0
  0
LINE
  8
Default
 10
150.694342688671
 20
13.0781428286846
 30
0.0
 11
149.089767505765
 21
12.6418790031528
 31
0.0
  0
LINE
  8
Default
 10
149.089767505765
 20
12.6418790031528
 30
0.0
 11
144.876215608744
 21
9.9500431219888
 31
0.0
  0
ARC
  8
Default
 10
143.95409982126
 20
17.8723418261597
 30
0.0
 40
7.9757829887501
 50
217.406503341028
 51
276.639067015172
  0
ARC
  8
Default
 10
144.677897492458
 20
16.7393357184045
 30
0.0
 40
7.9757829887507
 50
148.504210424076
 51
207.73677409822
  0
LINE
  8
Default
 10
137.877118352635
 20
20.9061711333196
 30
0.0
 11
142.090756295517
 21
23.5978723214726
 31
0.0
  0
LINE
  8
Default
 10
142.090756295517
 20
23.5978723214726
 30
0.0
 11
143.161089512434
 21
24.8704187637822
 31
0.0
  0
LINE
  8
Default
 10
143.161089512434
 20
24.8704187637822
 30
0.0
 11
149.887381254131
 21
39.0972491406175
 31
0.0
  0
LINE
  8
Default
 10
149.887381254131
 20
39.0972491406175
 30
0.0
 11
150.096930327741
 21
39.4987833942015
 31
0.0
  0
LINE
  8
Default
 10
150.096930327741
 20
39.4987833942015
 30
0.0
 11
157.920842244835
 21
53.1527976566535
 31
0.0
  0
LINE
  8
Default
 10
157.920842244835
 20
53.1527976566535
 30
0.0
 11
158.35262729749
 21
54.7585838539327
 31
0.0
  0
LINE
  8
Default
 10
158.35262729749
 20
54.7585838539327
 30
0.0
 11
158.150941284266
 21
59.7545144731537
 31
0.0
  0
ARC
  8
Default
 10
165.458441196946
 20
56.5586485013345
 30
0.0
 40
7.9757829887512
 50
97.1457275246817
 51
156.378291198826
  0
ARC
  8
Default
 10
164.115069642746
 20
56.5044380188877
 30
0.0
 40
7.9757829887499
 50
28.2434346077313
 51
87.4759982818751
  0
LINE
  8
Default
 10
171.141295540837
 20
60.2787278742939
 30
0.0
 11
171.342821852576
 21
55.2827908104707
 31
0.0
  0
LINE
  8
Default
 10
171.342821852576
 20
55.2827908104707
 30
0.0
 11
171.902592159561
 21
53.7170178874435
 31
0.0
  0
LINE
  8
Default
 10
171.902592159561
 20
53.7170178874435
 30
0.0
 11
180.801261740068
 21
40.7378275096634
 31
0.0
  0
LINE
  8
Default
 10
180.801261740068
 20
40.7378275096634
 30
0.0
 11
180.999934124461
 21
40.4236907388412
 31
0.0
  0
LINE
  8
Default
 10
180.999934124461
 20
40.4236907388412
 30
0.0
 11
188.912700835796
 21
26.8209768133893
 31
0.0
  0
LINE
  8
Default
 10
188.912700835796
 20
26.8209768133893
 30
0.0
 11
190.087459902205
 21
25.6441468431055
 31
0.0
  0
LINE
  8
Default
 10
190.087459902205
 20
25.6441468431055
 30
0.0
 11
194.514905647516
 21
23.3208465671341
 31
0.0
  0
ARC
  8
Default
 10
188.093454382946
 20
18.5902992478067
 30
0.0
 40
7.9757829887506
 50
-22.8542747710597
 51
36.3782889030841
  0
ARC
  8
Default
 10
188.718192552795
 20
19.7807983566579
 30
0.0
 40
7.9757829887512
 50
268.24343231199
 51
327.475995986134
  0
LINE
  8
Default
 10
188.473710180352
 20
11.8087633182742
 30
0.0
 11
184.046338704601
 21
14.132205122087
 31
0.0
  0
LINE
  8
Default
 10
184.046338704601
 20
14.132205122087
 30
0.0
 11
182.410454435153
 21
14.4303163430135
 31
0.0
  0
LINE
  8
Default
 10
182.410454435153
 20
14.4303163430135
 30
0.0
 11
172.22251839353
 21
13.6401469359438
 31
0.0
  0
LINE
  8
Default
 10
172.22251839353
 20
13.6401469359438
 30
0.0
 11
171.737218792602
 21
25.6614224672588
 31
0.0
  0
ARC
  8
Default
 10
165.815429965949
 20
31.0403086988622
 30
0.0
 40
8.0
 50
317.750466626544
 51
422.311778670119
  0
ARC
  8
Default
 10
165.815429965949
 20
31.0403086988623
 30
0.0
 40
7.9999999999999
 50
62.3117786701194
 51
182.311778670119
  0
ARC
  8
Default
 10
165.815429965949
 20
31.0403086988619
 30
0.0
 40
7.9999999999995
 50
182.311778670116
 51
220.359286123736
  0
LINE
  8
Default
 10
104.071101132056
 20
73.0904179865904
 30
0.0
 11
101.030305042563
 21
67.9326089700739
 31
0.0
  0
ARC
  8
Default
 10
108.24230569003
 20
71.3385098706549
 30
0.0
 40
7.9757829887505
 50
154.833946558818
 51
205.279241801971
  0
ARC
  8
Default
 10
107.570054575879
 20
70.1741798708
 30
0.0
 40
7.9757829887507
 50
85.9316536418742
 51
145.164217316018
  0
LINE
  8
Default
 10
108.135907562782
 20
78.129864924952
 30
0.0
 11
114.033085903606
 21
74.323148414207
 31
0.0
  0
LINE
  8
Default
 10
114.033085903606
 20
74.323148414207
 30
0.0
 11
120.357157440182
 21
71.256931911624
 31
0.0
  0
LINE
  8
Default
 10
120.357157440182
 20
71.256931911624
 30
0.0
 11
129.747445479341
 21
69.915462191745
 31
0.0
  0
LINE
  8
Default
 10
129.747445479341
 20
69.915462191745
 30
0.0
 11
129.747445479341
 21
69.915462191745
 31
0.0
  0
LINE
  8
Default
 10
129.747445479341
 20
69.915462191745
 30
0.0
 11
138.754456455678
 21
71.256931911624
 31
0.0
  0
LINE
  8
Default
 10
138.754456455678
 20
71.256931911624
 30
0.0
 11
146.419997712134
 21
74.70642547703
 31
0.0
  0
LINE
  8
Default
 10
146.419997712134
 20
74.70642547703
 30
0.0
 11
148.132528183381
 21
75.5687630187644
 31
0.0
  0
LINE
  8
Default
 10
148.132528183381
 20
75.5687630187644
 30
0.0
 11
152.575595748469
 21
70.8973825484748
 31
0.0
  0
LINE
  8
Default
 10
152.575595748469
 20
70.8973825484748
 30
0.0
 11
152.580581542969
 21
70.9002309206587
 31
0.0
  0
ARC
  8
Default
 10
154.30789131684
 20
71.908398042264
 30
0.0
 40
1.9999999999993
 50
210.270535966613
 51
239.999999999978
  0
ARC
  8
Default
 10
154.30789131684
 20
71.908398042265
 30
0.0
 40
2.0
 50
240.0
 51
360.0
  0
ARC
  8
Default
 10
154.30789131684
 20
71.9083980422636
 30
0.0
 40
1.9999999999998
 50
0.0000000000399
 51
34.049276463746
  0
LINE
  8
Default
 10
155.965003996205
 20
73.0282094406194
 30
0.0
 11
152.994915500565
 21
78.2270563355425
 31
0.0
  0
ARC
  8
Default
 10
152.374696677513
 20
70.2754248743156
 30
0.0
 40
7.9757829887504
 50
35.0947246709099
 51
85.5400199140657
  0
ARC
  8
Default
 10
151.697190384948
 20
71.4367048287522
 30
0.0
 40
7.9757829887507
 50
-33.8075682460401
 51
25.4249954281037
  0
LINE
  8
Default
 10
158.32435604827
 20
66.998936295522
 30
0.0
 11
154.005571788553
 21
64.479392186358
 31
0.0
  0
LINE
  8
Default
 10
154.005571788553
 20
64.479392186358
 30
0.0
 11
152.884778726602
 21
63.251055687123
 31
0.0
  0
LINE
  8
Default
 10
152.884778726602
 20
63.251055687123
 30
0.0
 11
145.590090813468
 21
49.307123981336
 31
0.0
  0
LINE
  8
Default
 10
145.590090813468
 20
49.307123981336
 30
0.0
 11
145.364515518297
 21
48.914369150353
 31
0.0
  0
LINE
  8
Default
 10
145.364515518297
 20
48.914369150353
 30
0.0
 11
136.99620655634
 21
35.5870622850139
 31
0.0
  0
LINE
  8
Default
 10
136.99620655634
 20
35.5870622850139
 30
0.0
 11
136.5
 21
34.0
 31
0.0
  0
LINE
  8
Default
 10
136.5
 20
34.0
 30
0.0
 11
136.466194013243
 21
33.3428278365849
 31
0.0
  0
LINE
  8
Default
 10
136.466194013243
 20
33.3428278365849
 30
0.0
 11
130.0
 21
32.0
 31
0.0
  0
LINE
  8
Default
 10
130.0
 20
32.0
 30
0.0
 11
130.0
 21
31.9942579297384
 31
0.0
  0
ARC
  8
Default
 10
130.018546094267
 20
29.9943439209902
 30
0.0
 40
1.9999999999999
 50
90.5313140787214
 51
119.999999999997
  0
ARC
  8
Default
 10
130.018546094267
 20
29.9943439209902
 30
0.0
 40
2.0
 50
120.0
 51
240.0
  0
ARC
  8
Default
 10
130.018546094267
 20
29.9943439209905
 30
0.0
 40
2.0
 50
240.000000000016
 51
274.310054575847
  0
LINE
  8
Default
 10
130.168853528579
 20
28.0000000000003
 30
0.0
 11
135.920591889509
 21
28.0
 31
0.0
  0
ARC
  8
Default
 10
129.327359780588
 20
32.4880290375109
 30
0.0
 40
7.9757829887513
 50
274.833948854567
 51
325.756786632311
  0
ARC
  8
Default
 10
130.671824695929
 20
32.4880075487304
 30
0.0
 40
7.9757829887506
 50
205.931655937609
 51
265.164219611752
  0
LINE
  8
Default
 10
123.499072980823
 20
29.0002077957214
 30
0.0
 11
123.499232812288
 21
34.0002077931668
 31
0.0
  0
LINE
  8
Default
 10
123.499232812288
 20
34.0002077931668
 30
0.0
 11
123.0030769887
 21
35.5872859392541
 31
0.0
  0
LINE
  8
Default
 10
123.0030769887
 20
35.5872859392541
 30
0.0
 11
114.635194055615
 21
48.914860301601
 31
0.0
  0
LINE
  8
Default
 10
114.635194055615
 20
48.914860301601
 30
0.0
 11
114.449354764522
 21
49.236755292225
 31
0.0
  0
LINE
  8
Default
 10
114.449354764522
 20
49.236755292225
 30
0.0
 11
107.091723493468
 21
63.147577167474
 31
0.0
  0
LINE
  8
Default
 10
107.091723493468
 20
63.147577167474
 30
0.0
 11
105.965390564442
 21
64.370835838426
 31
0.0
  0
LINE
  8
Default
 10
105.965390564442
 20
64.370835838426
 30
0.0
 11
105.287141629336
 21
65.2445734876691
 31
0.0
  0
LINE
  8
Default
 10
105.287141629336
 20
65.2445734876691
 30
0.0
 11
107.60260810556
 21
71.2044248767922
 31
0.0
  0
LINE
  8
Default
 10
107.60260810556
 20
71.2044248767922
 30
0.0
 11
107.597661667177
 21
71.2073410589233
 31
0.0
  0
ARC
  8
Default
 10
105.865440578038
 20
72.2070460645836
 30
0.0
 40
2.0000000000002
 50
330.00975785453
 51
359.999999999983
  0
ARC
  8
Default
 10
105.865440578038
 20
72.207046064583
 30
0.0
 40
2.0
 50
360.0
 51
480.0
  0
ARC
  8
Default
 10
105.86544057804
 20
72.2070460645824
 30
0.0
 40
2.0000000000015
 50
120.000000000039
 51
153.788498351752
  0
ARC
  8
Default
 10
177.041989586078
 20
151.341085228767
 30
0.0
 40
18.1537865413038
 50
8.4221884755088
 51
18.162970864762
  0
LINE
  8
Default
 10
195.0
 20
154.0
 30
0.0
 11
195.0
 21
147.0
 31
0.0
  0
ARC
  8
Default
 10
189.472650442624
 20
149.527349557376
 30
0.0
 40
6.077753607591
 50
294.571982800305
 51
335.428017199695
  0
LINE
  8
Default
 10
192.0
 20
144.0
 30
0.0
 11
168.0
 21
144.0
 31
0.0
  0
LINE
  8
Default
 10
168.0
 20
144.0
 30
0.0
 11
168.0
 21
147.127718676731
 31
0.0
  0
ARC
  8
Default
 10
170.000000000006
 20
150.0
 30
0.0
 40
3.5000000000031
 50
235.150095420873
 51
239.999999999919
  0
ARC
  8
Default
 10
170.0
 20
150.0
 30
0.0
 40
3.5000000000001
 50
240.000000000004
 51
360.000000000004
  0
ARC
  8
Default
 10
170.0
 20
150.0
 30
0.0
 40
3.5000000000001
 50
359.999999999996
 51
479.999999999996
  0
ARC
  8
Default
 10
170.000000000006
 20
150.0
 30
0.0
 40
3.5000000000031
 50
120.000000000081
 51
124.849904579127
  0
LINE
  8
Default
 10
168.0
 20
152.872281323269
 30
0.0
 11
168.0
 21
156.0
 31
0.0
  0
LINE
  8
Default
 10
168.0
 20
156.0
 30
0.0
 11
168.0
 21
156.0
 31
0.0
  0
LINE
  8
Default
 10
168.0
 20
156.0
 30
0.0
 11
168.0
 21
161.0
 31
0.0
  0
LINE
  8
Default
 10
168.0
 20
161.0
 30
0.0
 11
168.0
 21
161.0
 31
0.0
  0
LINE
  8
Default
 10
168.0
 20
161.0
 30
0.0
 11
168.0
 21
165.0
 31
0.0
  0
LINE
  8
Default
 10
168.0
 20
165.0
 30
0.0
 11
178.846153846154
 21
165.0
 31
0.0
  0
LINE
  8
Default
 10
178.846153846154
 20
165.0
 30
0.0
 11
189.0
 21
165.0
 31
0.0
  0
ARC
  8
Default
 10
177.041989586078
 20
151.341085228771
 30
0.0
 40
18.1537865413024
 50
35.9547075121405
 51
48.7987308564263
  0
LINE
  8
Default
 10
191.737141905358
 20
162.0
 30
0.0
 11
179.0
 21
162.0
 31
0.0
  0
LINE
  8
Default
 10
179.0
 20
162.0
 30
0.0
 11
179.0
 21
157.0
 31
0.0
  0
LINE
  8
Default
 10
179.0
 20
157.0
 30
0.0
 11
194.291240277025
 21
157.0
 31
0.0
  0
LINE
  8
Default
 10
69.0
 20
145.0
 30
0.0
 11
88.0
 21
145.0
 31
0.0
  0
LINE
  8
Default
 10
88.0
 20
145.0
 30
0.0
 11
88.0
 21
152.0
 31
0.0
  0
LINE
  8
Default
 10
88.0
 20
152.0
 30
0.0
 11
77.0
 21
152.0
 31
0.0
  0
LINE
  8
Default
 10
77.0
 20
152.0
 30
0.0
 11
77.0
 21
152.0
 31
0.0
  0
LINE
  8
Default
 10
77.0
 20
152.0
 30
0.0
 11
77.0
 21
152.0
 31
0.0
  0
LINE
  8
Default
 10
77.0
 20
152.0
 30
0.0
 11
77.0
 21
164.0
 31
0.0
  0
LINE
  8
Default
 10
77.0
 20
164.0
 30
0.0
 11
77.0
 21
164.0
 31
0.0
  0
LINE
  8
Default
 10
77.0
 20
164.0
 30
0.0
 11
77.0
 21
164.0
 31
0.0
  0
LINE
  8
Default
 10
77.0
 20
164.0
 30
0.0
 11
88.0
 21
164.0
 31
0.0
  0
LINE
  8
Default
 10
88.0
 20
164.0
 30
0.0
 11
88.0
 21
167.0
 31
0.0
  0
LINE
  8
Default
 10
88.0
 20
167.0
 30
0.0
 11
69.0
 21
167.0
 31
0.0
  0
LINE
  8
Default
 10
69.0
 20
167.0
 30
0.0
 11
69.0
 21
145.0
 31
0.0
  0
ARC
  8
Default
 10
137.041989586078
 20
151.341085228767
 30
0.0
 40
18.1537865413038
 50
8.4221884755088
 51
18.162970864762
  0
LINE
  8
Default
 10
155.0
 20
154.0
 30
0.0
 11
155.0
 21
147.0
 31
0.0
  0
ARC
  8
Default
 10
149.472650442624
 20
149.527349557376
 30
0.0
 40
6.077753607591
 50
294.571982800305
 51
335.428017199695
  0
LINE
  8
Default
 10
152.0
 20
144.0
 30
0.0
 11
128.0
 21
144.0
 31
0.0
  0
LINE
  8
Default
 10
128.0
 20
144.0
 30
0.0
 11
128.0
 21
147.127718676731
 31
0.0
  0
ARC
  8
Default
 10
130.000000000006
 20
150.0
 30
0.0
 40
3.5000000000031
 50
235.150095420873
 51
239.999999999919
  0
ARC
  8
Default
 10
130.0
 20
150.0
 30
0.0
 40
3.5000000000001
 50
240.000000000004
 51
360.000000000004
  0
ARC
  8
Default
 10
130.0
 20
150.0
 30
0.0
 40
3.5000000000001
 50
359.999999999996
 51
479.999999999996
  0
ARC
  8
Default
 10
130.000000000006
 20
150.0
 30
0.0
 40
3.5000000000031
 50
120.000000000081
 51
124.849904579127
  0
LINE
  8
Default
 10
128.0
 20
152.872281323269
 30
0.0
 11
128.0
 21
156.0
 31
0.0
  0
LINE
  8
Default
 10
128.0
 20
156.0
 30
0.0
 11
128.0
 21
156.0
 31
0.0
  0
LINE
  8
Default
 10
128.0
 20
156.0
 30
0.0
 11
128.0
 21
161.0
 31
0.0
  0
LINE
  8
Default
 10
128.0
 20
161.0
 30
0.0
 11
128.0
 21
161.0
 31
0.0
  0
LINE
  8
Default
 10
128.0
 20
161.0
 30
0.0
 11
128.0
 21
165.0
 31
0.0
  0
LINE
  8
Default
 10
128.0
 20
165.0
 30
0.0
 11
138.846153846154
 21
165.0
 31
0.0
  0
LINE
  8
Default
 10
138.846153846154
 20
165.0
 30
0.0
 11
149.0
 21
165.0
 31
0.0
  0
ARC
  8
Default
 10
137.041989586078
 20
151.341085228771
 30
0.0
 40
18.1537865413024
 50
35.9547075121405
 51
48.7987308564263
  0
LINE
  8
Default
 10
151.737141905358
 20
162.0
 30
0.0
 11
139.0
 21
162.0
 31
0.0
  0
LINE
  8
Default
 10
139.0
 20
162.0
 30
0.0
 11
139.0
 21
157.0
 31
0.0
  0
LINE
  8
Default
 10
139.0
 20
157.0
 30
0.0
 11
154.291240277025
 21
157.0
 31
0.0
  0
LINE
  8
Default
 10
57.1784507664515
 20
55.0076087728817
 30
0.0
 11
51.2521679609371
 21
58.342621485448
 31
0.0
  0
LINE
  8
Default
 10
51.2521679609371
 20
58.342621485448
 30
0.0
 11
55.6660056234112
 21
66.1859649746319
 31
0.0
  0
LINE
  8
Default
 10
55.6660056234112
 20
66.1859649746319
 30
0.0
 11
60.0234186729579
 21
63.7338329399241
 31
0.0
  0
LINE
  8
Default
 10
60.0234186729579
 20
63.7338329399241
 30
0.0
 11
62.4755507076657
 21
68.0912459894708
 31
0.0
  0
LINE
  8
Default
 10
62.4755507076657
 20
68.0912459894708
 30
0.0
 11
58.118137658119
 21
70.5433780241786
 31
0.0
  0
ARC
  8
Default
 10
73.4299658327646
 20
60.8301978772072
 30
0.0
 40
18.1327866203016
 50
33.9128786996066
 51
147.610675576468
  0
LINE
  8
Default
 10
88.4781278473414
 20
70.9470536437207
 30
0.0
 11
84.1874522873742
 21
68.3799340050799
 31
0.0
  0
LINE
  8
Default
 10
84.1874522873742
 20
68.3799340050799
 30
0.0
 11
86.7545719260153
 21
64.0892584451121
 31
0.0
  0
LINE
  8
Default
 10
86.7545719260153
 20
64.0892584451121
 30
0.0
 11
91.0452474859827
 21
66.6563780837532
 31
0.0
  0
LINE
  8
Default
 10
91.0452474859827
 20
66.6563780837532
 30
0.0
 11
104.394269606918
 21
44.3448651719226
 31
0.0
  0
LINE
  8
Default
 10
104.394269606918
 20
44.3448651719226
 30
0.0
 11
100.10359404695
 21
41.7777455332809
 31
0.0
  0
LINE
  8
Default
 10
100.10359404695
 20
41.7777455332809
 30
0.0
 11
102.670713685591
 21
37.4870699733131
 31
0.0
  0
LINE
  8
Default
 10
102.670713685591
 20
37.4870699733131
 30
0.0
 11
106.961389245559
 21
40.0541896119549
 31
0.0
  0
ARC
  8
Default
 10
90.9320302488282
 20
31.5773033456828
 30
0.0
 40
18.1327866203015
 50
-85.8263431883054
 51
27.871453688556
  0
LINE
  8
Default
 10
92.2517280902494
 20
13.4926040607974
 30
0.0
 11
92.1257692063725
 21
13.4084162822799
 31
0.0
  0
LINE
  8
Default
 10
92.1257692063725
 20
13.4084162822799
 30
0.0
 11
92.0479163650562
 21
18.4078101390492
 31
0.0
  0
LINE
  8
Default
 10
92.0479163650562
 20
18.4078101390492
 30
0.0
 11
87.0485225082869
 21
18.329957297732
 31
0.0
  0
LINE
  8
Default
 10
87.0485225082869
 20
18.329957297732
 30
0.0
 11
87.1263753496037
 21
13.3305634409637
 31
0.0
  0
LINE
  8
Default
 10
87.1263753496037
 20
13.3305634409637
 30
0.0
 11
61.1295272944051
 21
12.9257286661175
 31
0.0
  0
LINE
  8
Default
 10
61.1295272944051
 20
12.9257286661175
 30
0.0
 11
61.0516744530887
 21
17.9251225228868
 31
0.0
  0
LINE
  8
Default
 10
61.0516744530887
 20
17.9251225228868
 30
0.0
 11
56.05228059632
 21
17.8472696815705
 31
0.0
  0
LINE
  8
Default
 10
56.05228059632
 20
17.8472696815705
 30
0.0
 11
56.1301334376363
 21
12.8478758248013
 31
0.0
  0
ARC
  8
Default
 10
56.8036148104662
 20
30.9681510285016
 30
0.0
 40
18.1327866203015
 50
154.173654515954
 51
267.871451392815
  0
LINE
  8
Default
 10
40.48195720576
 20
38.8676094689341
 30
0.0
 11
40.4627870082225
 21
39.1700040674426
 31
0.0
  0
LINE
  8
Default
 10
40.4627870082225
 20
39.1700040674426
 30
0.0
 11
44.8202000577692
 21
36.7178720327348
 31
0.0
  0
LINE
  8
Default
 10
44.8202000577692
 20
36.7178720327348
 30
0.0
 11
47.272332092477
 21
41.0752850822814
 31
0.0
  0
LINE
  8
Default
 10
47.272332092477
 20
41.0752850822814
 30
0.0
 11
42.9149190429304
 21
43.5274171169893
 31
0.0
  0
LINE
  8
Default
 10
42.9149190429304
 20
43.5274171169893
 30
0.0
 11
45.3670510776382
 21
47.884830166536
 31
0.0
  0
LINE
  8
Default
 10
45.3670510776382
 20
47.884830166536
 30
0.0
 11
52.3077795074529
 21
43.9789386815121
 31
0.0
  0
ARC
  8
Default
 10
73.691975410632
 20
41.1247516514469
 30
0.0
 40
21.5738317882599
 50
172.397562028099
 51
180.631388081994
  0
ARC
  8
Default
 10
73.6919754106321
 20
41.1247516514467
 30
0.0
 40
21.57383178826
 50
180.631388081993
 51
300.631388081993
  0
ARC
  8
Default
 10
73.6919754106321
 20
41.1247516514467
 30
0.0
 40
21.57383178826
 50
300.631388081993
 51
420.631388081993
  0
ARC
  8
Default
 10
73.6919754106321
 20
41.1247516514467
 30
0.0
 40
21.57383178826
 50
60.631388081993
 51
139.94636207988
  0
LINE
  8
Default
 10
98.5507900417412
 20
104.49749533591
 30
0.0
 11
98.524655807471
 21
104.452261721991
 31
0.0
  0
LINE
  8
Default
 10
98.524655807471
 20
104.452261721991
 30
0.0
 11
82.1075473236244
 21
113.937432637667
 31
0.0
  0
LINE
  8
Default
 10
82.1075473236244
 20
113.937432637667
 30
0.0
 11
79.6158915222442
 21
109.624828894486
 31
0.0
  0
LINE
  8
Default
 10
79.6158915222442
 20
109.624828894486
 30
0.0
 11
83.9452476784317
 21
107.123494196193
 31
0.0
  0
LINE
  8
Default
 10
83.9452476784317
 20
107.123494196193
 30
0.0
 11
81.4439129801394
 21
102.794138040006
 31
0.0
  0
LINE
  8
Default
 10
81.4439129801394
 20
102.794138040006
 30
0.0
 11
77.1145568239518
 21
105.295472738298
 31
0.0
  0
ARC
  8
Default
 10
91.6959046356767
 20
98.1544106374991
 30
0.0
 40
16.2360854867779
 50
153.907182631608
 51
265.796714941022
  0
LINE
  8
Default
 10
90.5058746106078
 20
81.9619957319517
 30
0.0
 11
90.7424969351802
 21
81.7980723442652
 31
0.0
  0
LINE
  8
Default
 10
90.7424969351802
 20
81.7980723442652
 30
0.0
 11
90.7212813298369
 21
86.798027333871
 31
0.0
  0
LINE
  8
Default
 10
90.7212813298369
 20
86.798027333871
 30
0.0
 11
95.7212363194437
 21
86.8192429392146
 31
0.0
  0
LINE
  8
Default
 10
95.7212363194437
 20
86.8192429392146
 30
0.0
 11
95.7424519247865
 21
81.819287949608
 31
0.0
  0
LINE
  8
Default
 10
95.7424519247865
 20
81.819287949608
 30
0.0
 11
121.74221787074
 21
81.9296090973922
 31
0.0
  0
LINE
  8
Default
 10
121.74221787074
 20
81.9296090973922
 30
0.0
 11
121.721002265397
 21
86.9295640869981
 31
0.0
  0
LINE
  8
Default
 10
121.721002265397
 20
86.9295640869981
 30
0.0
 11
126.720957255003
 21
86.9507796923418
 31
0.0
  0
LINE
  8
Default
 10
126.720957255003
 20
86.9507796923418
 30
0.0
 11
126.742172860346
 21
81.950824702735
 31
0.0
  0
ARC
  8
Default
 10
125.562126748083
 20
98.1439702621042
 30
0.0
 40
16.2360854867786
 50
274.167958447952
 51
386.057490757367
  0
LINE
  8
Default
 10
140.147874721738
 20
105.276040647554
 30
0.0
 11
140.159373768841
 21
105.419510772249
 31
0.0
  0
LINE
  8
Default
 10
140.159373768841
 20
105.419510772249
 30
0.0
 11
135.839893633641
 21
102.901159851188
 31
0.0
  0
LINE
  8
Default
 10
135.839893633641
 20
102.901159851188
 30
0.0
 11
133.32154271258
 21
107.220639986388
 31
0.0
  0
LINE
  8
Default
 10
133.32154271258
 20
107.220639986388
 30
0.0
 11
137.64102284778
 21
109.73899090745
 31
0.0
  0
LINE
  8
Default
 10
137.64102284778
 20
109.73899090745
 30
0.0
 11
124.545598058263
 21
132.200287610492
 31
0.0
  0
LINE
  8
Default
 10
124.545598058263
 20
132.200287610492
 30
0.0
 11
120.226117923062
 21
129.681936689431
 31
0.0
  0
LINE
  8
Default
 10
120.226117923062
 20
129.681936689431
 30
0.0
 11
117.707767002002
 21
134.001416824631
 31
0.0
  0
LINE
  8
Default
 10
117.707767002002
 20
134.001416824631
 30
0.0
 11
122.027247137202
 21
136.519767745692
 31
0.0
  0
ARC
  8
Default
 10
108.593595137104
 20
127.401244516888
 30
0.0
 40
16.2360854867782
 50
34.1679607436962
 51
146.05749305311
  0
LINE
  8
Default
 10
95.1241666516565
 20
136.466837062848
 30
0.0
 11
99.4535228078441
 21
133.965502364556
 31
0.0
  0
LINE
  8
Default
 10
99.4535228078441
 20
133.965502364556
 30
0.0
 11
96.9521881095517
 21
129.636146208369
 31
0.0
  0
LINE
  8
Default
 10
96.9521881095517
 20
129.636146208369
 30
0.0
 11
92.6228319533642
 21
132.137480906661
 31
0.0
  0
LINE
  8
Default
 10
92.6228319533642
 20
132.137480906661
 30
0.0
 11
90.1118183581598
 21
127.791372337468
 31
0.0
  0
LINE
  8
Default
 10
90.1118183581598
 20
127.791372337468
 30
0.0
 11
105.831890058124
 21
118.708922341626
 31
0.0
  0
ARC
  8
Default
 10
102.498491228471
 20
111.416255275818
 30
0.0
 40
8.0183876615098
 50
59.6748921726353
 51
65.4353750562486
  0
LINE
  8
Default
 10
106.547022688552
 20
118.337522046214
 30
0.0
 11
109.942490059588
 21
114.098669343059
 31
0.0
  0
LINE
  8
Default
 10
109.942490059588
 20
114.098669343059
 30
0.0
 11
111.706601002419
 21
113.079434206528
 31
0.0
  0
ARC
  8
Default
 10
108.698213422014
 20
107.872461584945
 30
0.0
 40
6.0135646430262
 50
-120.017662157641
 51
59.9823378423589
  0
LINE
  8
Default
 10
105.689825841609
 20
102.665488963361
 30
0.0
 11
103.86880809417
 21
103.717602652683
 31
0.0
  0
LINE
  8
Default
 10
103.86880809417
 20
103.717602652683
 30
0.0
 11
98.5507900417412
 21
104.49749533591
 31
0.0
  0
ENDSEC
  0
EOF
