solid Default
  facet normal 0.000000e+00 0.000000e+00 -1.000000e+00
    outer loop
      vertex -4.000002e+00 3.999999e+01 0.000000e+00
      vertex 4.000006e+00 3.999999e+01 0.000000e+00
      vertex 3.999998e+00 -4.000000e+01 0.000000e+00
    endloop
  endfacet
  facet normal 0.000000e+00 0.000000e+00 -1.000000e+00
    outer loop
      vertex -4.000002e+00 3.999999e+01 0.000000e+00
      vertex 3.999998e+00 -4.000000e+01 0.000000e+00
      vertex -4.000006e+00 -3.999999e+01 0.000000e+00
    endloop
  endfacet
  facet normal 0.000000e+00 0.000000e+00 1.000000e+00
    outer loop
      vertex -3.999994e+00 4.000002e+01 8.000000e+00
      vertex -4.000002e+00 -4.000000e+01 8.000000e+00
      vertex 3.999998e+00 -4.000002e+01 8.000000e+00
    endloop
  endfacet
  facet normal 0.000000e+00 0.000000e+00 1.000000e+00
    outer loop
      vertex -3.999994e+00 4.000002e+01 8.000000e+00
      vertex 3.999998e+00 -4.000002e+01 8.000000e+00
      vertex 4.000006e+00 3.999997e+01 8.000000e+00
    endloop
  endfacet
  facet normal 6.198883e-06 1.000000e+00 -2.861029e-06
    outer loop
      vertex -4.000002e+00 3.999999e+01 0.000000e+00
      vertex -3.999994e+00 4.000002e+01 8.000000e+00
      vertex 4.000006e+00 3.999997e+01 8.000000e+00
    endloop
  endfacet
  facet normal 0.000000e+00 1.000000e+00 3.337860e-06
    outer loop
      vertex -4.000002e+00 3.999999e+01 0.000000e+00
      vertex 4.000006e+00 3.999997e+01 8.000000e+00
      vertex 4.000006e+00 3.999999e+01 0.000000e+00
    endloop
  endfacet
  facet normal 1.000000e+00 -9.536745e-08 -3.183232e-13
    outer loop
      vertex 4.000006e+00 3.999999e+01 0.000000e+00
      vertex 4.000006e+00 3.999997e+01 8.000000e+00
      vertex 3.999998e+00 -4.000002e+01 8.000000e+00
    endloop
  endfacet
  facet normal 1.000000e+00 -9.536743e-08 -1.818990e-13
    outer loop
      vertex 4.000006e+00 3.999999e+01 0.000000e+00
      vertex 3.999998e+00 -4.000002e+01 8.000000e+00
      vertex 3.999998e+00 -4.000000e+01 0.000000e+00
    endloop
  endfacet
  facet normal -1.907349e-06 -1.000000e+00 -1.907349e-06
    outer loop
      vertex 3.999998e+00 -4.000000e+01 0.000000e+00
      vertex 3.999998e+00 -4.000002e+01 8.000000e+00
      vertex -4.000002e+00 -4.000000e+01 8.000000e+00
    endloop
  endfacet
  facet normal -1.907348e-06 -1.000000e+00 -1.907348e-06
    outer loop
      vertex 3.999998e+00 -4.000000e+01 0.000000e+00
      vertex -4.000002e+00 -4.000000e+01 8.000000e+00
      vertex -4.000006e+00 -3.999999e+01 0.000000e+00
    endloop
  endfacet
  facet normal -1.000000e+00 4.768373e-08 9.536742e-07
    outer loop
      vertex -3.999994e+00 4.000002e+01 8.000000e+00
      vertex -4.000002e+00 3.999999e+01 0.000000e+00
      vertex -4.000006e+00 -3.999999e+01 0.000000e+00
    endloop
  endfacet
  facet normal -1.000000e+00 9.536741e-08 4.768373e-07
    outer loop
      vertex -3.999994e+00 4.000002e+01 8.000000e+00
      vertex -4.000006e+00 -3.999999e+01 0.000000e+00
      vertex -4.000002e+00 -4.000000e+01 8.000000e+00
    endloop
  endfacet
endsolid Default
