solid Default
  facet normal 1.000000e+00 -1.224647e-16 0.000000e+00
    outer loop
      vertex 3.000000e+01 1.187500e+01 2.750000e+01
      vertex 3.000000e+01 -6.250000e-01 2.750000e+01
      vertex 3.000000e+01 1.187500e+01 5.329071e-15
    endloop
  endfacet
  facet normal 1.000000e+00 -1.224647e-16 -0.000000e+00
    outer loop
      vertex 3.000000e+01 1.187500e+01 5.329071e-15
      vertex 3.000000e+01 -6.250000e-01 2.750000e+01
      vertex 3.000000e+01 -6.250000e-01 1.776357e-15
    endloop
  endfacet
  facet normal -2.249640e-32 -1.836970e-16 1.000000e+00
    outer loop
      vertex -1.371936e+00 9.678100e+00 2.750000e+01
      vertex 3.000000e+01 1.187500e+01 2.750000e+01
      vertex -3.000000e+01 1.187500e+01 2.750000e+01
    endloop
  endfacet
  facet normal -2.249640e-32 -1.836970e-16 1.000000e+00
    outer loop
      vertex -3.000000e+01 -6.250000e-01 2.750000e+01
      vertex -1.283131e+01 -6.250000e-01 2.750000e+01
      vertex -3.000000e+01 1.187500e+01 2.750000e+01
    endloop
  endfacet
  facet normal -2.249640e-32 -1.836970e-16 1.000000e+00
    outer loop
      vertex -1.283131e+01 -6.250000e-01 2.750000e+01
      vertex -1.199028e+01 1.963418e+00 2.750000e+01
      vertex -3.000000e+01 1.187500e+01 2.750000e+01
    endloop
  endfacet
  facet normal -2.249640e-32 -1.836970e-16 1.000000e+00
    outer loop
      vertex -1.199028e+01 1.963418e+00 2.750000e+01
      vertex -1.061835e+01 4.339681e+00 2.750000e+01
      vertex -3.000000e+01 1.187500e+01 2.750000e+01
    endloop
  endfacet
  facet normal -2.249640e-32 -1.836970e-16 1.000000e+00
    outer loop
      vertex -1.061835e+01 4.339681e+00 2.750000e+01
      vertex -8.782339e+00 6.378776e+00 2.750000e+01
      vertex -3.000000e+01 1.187500e+01 2.750000e+01
    endloop
  endfacet
  facet normal -2.249640e-32 -1.836970e-16 1.000000e+00
    outer loop
      vertex -6.562500e+00 7.991583e+00 2.750000e+01
      vertex -4.055848e+00 9.107617e+00 2.750000e+01
      vertex -3.000000e+01 1.187500e+01 2.750000e+01
    endloop
  endfacet
  facet normal -2.249640e-32 -1.836970e-16 1.000000e+00
    outer loop
      vertex -4.055848e+00 9.107617e+00 2.750000e+01
      vertex -1.371936e+00 9.678100e+00 2.750000e+01
      vertex -3.000000e+01 1.187500e+01 2.750000e+01
    endloop
  endfacet
  facet normal -2.249640e-32 -1.836970e-16 1.000000e+00
    outer loop
      vertex 1.371936e+00 9.678100e+00 2.750000e+01
      vertex 3.000000e+01 1.187500e+01 2.750000e+01
      vertex -1.371936e+00 9.678100e+00 2.750000e+01
    endloop
  endfacet
  facet normal -2.249640e-32 -1.836970e-16 1.000000e+00
    outer loop
      vertex 1.061835e+01 4.339681e+00 2.750000e+01
      vertex 1.199028e+01 1.963418e+00 2.750000e+01
      vertex 3.000000e+01 -6.250000e-01 2.750000e+01
    endloop
  endfacet
  facet normal -2.249640e-32 -1.836970e-16 1.000000e+00
    outer loop
      vertex 3.000000e+01 -6.250000e-01 2.750000e+01
      vertex 3.000000e+01 1.187500e+01 2.750000e+01
      vertex 4.055848e+00 9.107617e+00 2.750000e+01
    endloop
  endfacet
  facet normal -2.249640e-32 -1.836970e-16 1.000000e+00
    outer loop
      vertex 3.000000e+01 -6.250000e-01 2.750000e+01
      vertex 4.055848e+00 9.107617e+00 2.750000e+01
      vertex 6.562500e+00 7.991583e+00 2.750000e+01
    endloop
  endfacet
  facet normal -2.249640e-32 -1.836970e-16 1.000000e+00
    outer loop
      vertex 3.000000e+01 -6.250000e-01 2.750000e+01
      vertex 6.562500e+00 7.991583e+00 2.750000e+01
      vertex 8.782339e+00 6.378776e+00 2.750000e+01
    endloop
  endfacet
  facet normal -2.249640e-32 -1.836970e-16 1.000000e+00
    outer loop
      vertex 1.199028e+01 1.963418e+00 2.750000e+01
      vertex 1.283131e+01 -6.250000e-01 2.750000e+01
      vertex 3.000000e+01 -6.250000e-01 2.750000e+01
    endloop
  endfacet
  facet normal -2.249640e-32 -1.836970e-16 1.000000e+00
    outer loop
      vertex 3.000000e+01 -6.250000e-01 2.750000e+01
      vertex 8.782339e+00 6.378776e+00 2.750000e+01
      vertex 1.061835e+01 4.339681e+00 2.750000e+01
    endloop
  endfacet
  facet normal -2.249640e-32 -1.836970e-16 1.000000e+00
    outer loop
      vertex -8.782339e+00 6.378776e+00 2.750000e+01
      vertex -6.562500e+00 7.991583e+00 2.750000e+01
      vertex -3.000000e+01 1.187500e+01 2.750000e+01
    endloop
  endfacet
  facet normal -2.249640e-32 -1.836970e-16 1.000000e+00
    outer loop
      vertex 1.371936e+00 9.678100e+00 2.750000e+01
      vertex 4.055848e+00 9.107617e+00 2.750000e+01
      vertex 3.000000e+01 1.187500e+01 2.750000e+01
    endloop
  endfacet
  facet normal 1.224647e-16 1.000000e+00 1.836970e-16
    outer loop
      vertex -2.760000e+01 1.187500e+01 2.395000e+01
      vertex -3.000000e+01 1.187500e+01 2.750000e+01
      vertex -1.920000e+01 1.187500e+01 2.395000e+01
    endloop
  endfacet
  facet normal 1.224647e-16 1.000000e+00 1.836970e-16
    outer loop
      vertex -1.920000e+01 1.187500e+01 1.555000e+01
      vertex 3.000000e+01 1.187500e+01 5.329071e-15
      vertex -3.000000e+01 1.187500e+01 5.329071e-15
    endloop
  endfacet
  facet normal 1.224647e-16 1.000000e+00 1.836970e-16
    outer loop
      vertex 3.000000e+01 1.187500e+01 2.750000e+01
      vertex 3.000000e+01 1.187500e+01 5.329071e-15
      vertex 2.760000e+01 1.187500e+01 1.555000e+01
    endloop
  endfacet
  facet normal 1.224647e-16 1.000000e+00 1.836970e-16
    outer loop
      vertex 3.000000e+01 1.187500e+01 2.750000e+01
      vertex 2.760000e+01 1.187500e+01 1.555000e+01
      vertex 2.760000e+01 1.187500e+01 2.395000e+01
    endloop
  endfacet
  facet normal 1.224647e-16 1.000000e+00 1.836970e-16
    outer loop
      vertex 3.000000e+01 1.187500e+01 2.750000e+01
      vertex 2.760000e+01 1.187500e+01 2.395000e+01
      vertex -3.000000e+01 1.187500e+01 2.750000e+01
    endloop
  endfacet
  facet normal 1.224647e-16 1.000000e+00 1.836970e-16
    outer loop
      vertex 2.760000e+01 1.187500e+01 2.395000e+01
      vertex 1.920000e+01 1.187500e+01 2.395000e+01
      vertex -3.000000e+01 1.187500e+01 2.750000e+01
    endloop
  endfacet
  facet normal 1.224647e-16 1.000000e+00 1.836970e-16
    outer loop
      vertex 2.760000e+01 1.187500e+01 1.555000e+01
      vertex 3.000000e+01 1.187500e+01 5.329071e-15
      vertex 1.920000e+01 1.187500e+01 1.555000e+01
    endloop
  endfacet
  facet normal 1.224647e-16 1.000000e+00 1.836970e-16
    outer loop
      vertex -1.920000e+01 1.187500e+01 2.395000e+01
      vertex 3.000000e+01 1.187500e+01 5.329071e-15
      vertex -1.920000e+01 1.187500e+01 1.555000e+01
    endloop
  endfacet
  facet normal 1.224647e-16 1.000000e+00 1.836970e-16
    outer loop
      vertex -2.760000e+01 1.187500e+01 1.555000e+01
      vertex -1.920000e+01 1.187500e+01 1.555000e+01
      vertex -3.000000e+01 1.187500e+01 5.329071e-15
    endloop
  endfacet
  facet normal 1.224647e-16 1.000000e+00 1.836970e-16
    outer loop
      vertex 1.920000e+01 1.187500e+01 1.555000e+01
      vertex 3.000000e+01 1.187500e+01 5.329071e-15
      vertex -1.920000e+01 1.187500e+01 2.395000e+01
    endloop
  endfacet
  facet normal 1.224647e-16 1.000000e+00 1.836970e-16
    outer loop
      vertex 1.920000e+01 1.187500e+01 1.555000e+01
      vertex -1.920000e+01 1.187500e+01 2.395000e+01
      vertex -3.000000e+01 1.187500e+01 2.750000e+01
    endloop
  endfacet
  facet normal 1.224647e-16 1.000000e+00 1.836970e-16
    outer loop
      vertex -3.000000e+01 1.187500e+01 2.750000e+01
      vertex -2.760000e+01 1.187500e+01 2.395000e+01
      vertex -3.000000e+01 1.187500e+01 5.329071e-15
    endloop
  endfacet
  facet normal 1.224647e-16 1.000000e+00 1.836970e-16
    outer loop
      vertex -2.760000e+01 1.187500e+01 2.395000e+01
      vertex -2.760000e+01 1.187500e+01 1.555000e+01
      vertex -3.000000e+01 1.187500e+01 5.329071e-15
    endloop
  endfacet
  facet normal 1.224647e-16 1.000000e+00 1.836970e-16
    outer loop
      vertex 1.920000e+01 1.187500e+01 1.555000e+01
      vertex -3.000000e+01 1.187500e+01 2.750000e+01
      vertex 1.920000e+01 1.187500e+01 2.395000e+01
    endloop
  endfacet
  facet normal 2.249640e-32 1.836970e-16 -1.000000e+00
    outer loop
      vertex 3.000000e+01 1.187500e+01 5.329071e-15
      vertex 3.000000e+01 -6.250000e-01 1.776357e-15
      vertex -3.000000e+01 1.187500e+01 5.329071e-15
    endloop
  endfacet
  facet normal 2.249640e-32 1.836970e-16 -1.000000e+00
    outer loop
      vertex -3.000000e+01 1.187500e+01 5.329071e-15
      vertex 3.000000e+01 -6.250000e-01 1.776357e-15
      vertex 1.500000e+01 -6.250000e-01 1.776357e-15
    endloop
  endfacet
  facet normal 2.249640e-32 1.836970e-16 -1.000000e+00
    outer loop
      vertex 1.030194e+01 -4.242767e+00 1.776357e-15
      vertex 1.500000e+01 -6.250000e-01 1.776357e-15
      vertex 1.500000e+01 -1.187500e+01 0.000000e+00
    endloop
  endfacet
  facet normal 2.249640e-32 1.836970e-16 -1.000000e+00
    outer loop
      vertex -4.821470e-01 -7.345835e+00 1.776357e-15
      vertex 1.500000e+01 -1.187500e+01 0.000000e+00
      vertex -1.500000e+01 -1.187500e+01 0.000000e+00
    endloop
  endfacet
  facet normal 2.249640e-32 1.836970e-16 -1.000000e+00
    outer loop
      vertex 7.253020e+00 -1.811337e+00 1.776357e-15
      vertex 1.418420e+00 3.650651e-01 1.776357e-15
      vertex 8.945042e+00 -1.425144e+00 1.776357e-15
    endloop
  endfacet
  facet normal 2.249640e-32 1.836970e-16 -1.000000e+00
    outer loop
      vertex 1.418420e+00 3.650651e-01 1.776357e-15
      vertex -3.000000e+01 1.187500e+01 5.329071e-15
      vertex 8.945042e+00 -1.425144e+00 1.776357e-15
    endloop
  endfacet
  facet normal 2.249640e-32 1.836970e-16 -1.000000e+00
    outer loop
      vertex 1.030194e+01 -2.507233e+00 1.776357e-15
      vertex 1.500000e+01 -6.250000e-01 1.776357e-15
      vertex 1.030194e+01 -4.242767e+00 1.776357e-15
    endloop
  endfacet
  facet normal 2.249640e-32 1.836970e-16 -1.000000e+00
    outer loop
      vertex 8.945042e+00 -5.324856e+00 1.776357e-15
      vertex 1.030194e+01 -4.242767e+00 1.776357e-15
      vertex 1.500000e+01 -1.187500e+01 0.000000e+00
    endloop
  endfacet
  facet normal 2.249640e-32 1.836970e-16 -1.000000e+00
    outer loop
      vertex 8.945042e+00 -1.425144e+00 1.776357e-15
      vertex 1.500000e+01 -6.250000e-01 1.776357e-15
      vertex 1.030194e+01 -2.507233e+00 1.776357e-15
    endloop
  endfacet
  facet normal 2.249640e-32 1.836970e-16 -1.000000e+00
    outer loop
      vertex -3.000000e+01 1.187500e+01 5.329071e-15
      vertex 1.500000e+01 -6.250000e-01 1.776357e-15
      vertex 8.945042e+00 -1.425144e+00 1.776357e-15
    endloop
  endfacet
  facet normal 2.249640e-32 1.836970e-16 -1.000000e+00
    outer loop
      vertex 6.500000e+00 -3.375000e+00 1.776357e-15
      vertex 2.994043e+00 -7.225089e-01 1.776357e-15
      vertex 7.253020e+00 -1.811337e+00 1.776357e-15
    endloop
  endfacet
  facet normal 2.249640e-32 1.836970e-16 -1.000000e+00
    outer loop
      vertex 8.945042e+00 -5.324856e+00 1.776357e-15
      vertex 1.500000e+01 -1.187500e+01 0.000000e+00
      vertex 7.253020e+00 -4.938663e+00 1.776357e-15
    endloop
  endfacet
  facet normal 2.249640e-32 1.836970e-16 -1.000000e+00
    outer loop
      vertex -6.698062e+00 -2.507233e+00 1.776357e-15
      vertex -3.541824e+00 -5.233893e+00 1.776357e-15
      vertex -6.698062e+00 -4.242767e+00 1.776357e-15
    endloop
  endfacet
  facet normal 2.249640e-32 1.836970e-16 -1.000000e+00
    outer loop
      vertex 3.883767e+00 -2.417737e+00 1.776357e-15
      vertex 6.500000e+00 -3.375000e+00 1.776357e-15
      vertex 7.253020e+00 -4.938663e+00 1.776357e-15
    endloop
  endfacet
  facet normal 2.249640e-32 1.836970e-16 -1.000000e+00
    outer loop
      vertex 3.883767e+00 -4.332263e+00 1.776357e-15
      vertex 7.253020e+00 -4.938663e+00 1.776357e-15
      vertex 1.500000e+01 -1.187500e+01 0.000000e+00
    endloop
  endfacet
  facet normal 2.249640e-32 1.836970e-16 -1.000000e+00
    outer loop
      vertex 3.883767e+00 -4.332263e+00 1.776357e-15
      vertex 1.500000e+01 -1.187500e+01 0.000000e+00
      vertex 2.994043e+00 -6.027491e+00 1.776357e-15
    endloop
  endfacet
  facet normal 2.249640e-32 1.836970e-16 -1.000000e+00
    outer loop
      vertex 3.883767e+00 -2.417737e+00 1.776357e-15
      vertex 7.253020e+00 -4.938663e+00 1.776357e-15
      vertex 3.883767e+00 -4.332263e+00 1.776357e-15
    endloop
  endfacet
  facet normal 2.249640e-32 1.836970e-16 -1.000000e+00
    outer loop
      vertex 2.994043e+00 -7.225089e-01 1.776357e-15
      vertex 6.500000e+00 -3.375000e+00 1.776357e-15
      vertex 3.883767e+00 -2.417737e+00 1.776357e-15
    endloop
  endfacet
  facet normal 2.249640e-32 1.836970e-16 -1.000000e+00
    outer loop
      vertex 1.418420e+00 3.650651e-01 1.776357e-15
      vertex 7.253020e+00 -1.811337e+00 1.776357e-15
      vertex 2.994043e+00 -7.225089e-01 1.776357e-15
    endloop
  endfacet
  facet normal 2.249640e-32 1.836970e-16 -1.000000e+00
    outer loop
      vertex -4.821470e-01 5.958352e-01 1.776357e-15
      vertex -3.000000e+01 1.187500e+01 5.329071e-15
      vertex 1.418420e+00 3.650651e-01 1.776357e-15
    endloop
  endfacet
  facet normal 2.249640e-32 1.836970e-16 -1.000000e+00
    outer loop
      vertex -2.272259e+00 -8.306503e-02 1.776357e-15
      vertex -3.000000e+01 1.187500e+01 5.329071e-15
      vertex -4.821470e-01 5.958352e-01 1.776357e-15
    endloop
  endfacet
  facet normal 2.249640e-32 1.836970e-16 -1.000000e+00
    outer loop
      vertex -3.541824e+00 -1.516107e+00 1.776357e-15
      vertex -3.000000e+01 1.187500e+01 5.329071e-15
      vertex -2.272259e+00 -8.306503e-02 1.776357e-15
    endloop
  endfacet
  facet normal 2.249640e-32 1.836970e-16 -1.000000e+00
    outer loop
      vertex -4.000000e+00 -3.375000e+00 1.776357e-15
      vertex -3.000000e+01 1.187500e+01 5.329071e-15
      vertex -3.541824e+00 -1.516107e+00 1.776357e-15
    endloop
  endfacet
  facet normal 2.249640e-32 1.836970e-16 -1.000000e+00
    outer loop
      vertex -6.698062e+00 -2.507233e+00 1.776357e-15
      vertex -4.000000e+00 -3.375000e+00 1.776357e-15
      vertex -3.541824e+00 -5.233893e+00 1.776357e-15
    endloop
  endfacet
  facet normal 2.249640e-32 1.836970e-16 -1.000000e+00
    outer loop
      vertex -9.746980e+00 -1.811337e+00 1.776357e-15
      vertex -3.000000e+01 1.187500e+01 5.329071e-15
      vertex -8.054958e+00 -1.425144e+00 1.776357e-15
    endloop
  endfacet
  facet normal 2.249640e-32 1.836970e-16 -1.000000e+00
    outer loop
      vertex 1.418420e+00 -7.115065e+00 1.776357e-15
      vertex 1.500000e+01 -1.187500e+01 0.000000e+00
      vertex -4.821470e-01 -7.345835e+00 1.776357e-15
    endloop
  endfacet
  facet normal 2.249640e-32 1.836970e-16 -1.000000e+00
    outer loop
      vertex -6.698062e+00 -4.242767e+00 1.776357e-15
      vertex -3.541824e+00 -5.233893e+00 1.776357e-15
      vertex -1.500000e+01 -1.187500e+01 0.000000e+00
    endloop
  endfacet
  facet normal 2.249640e-32 1.836970e-16 -1.000000e+00
    outer loop
      vertex 2.994043e+00 -6.027491e+00 1.776357e-15
      vertex 1.500000e+01 -1.187500e+01 0.000000e+00
      vertex 1.418420e+00 -7.115065e+00 1.776357e-15
    endloop
  endfacet
  facet normal 2.249640e-32 1.836970e-16 -1.000000e+00
    outer loop
      vertex -3.541824e+00 -5.233893e+00 1.776357e-15
      vertex -2.272259e+00 -6.666935e+00 1.776357e-15
      vertex -1.500000e+01 -1.187500e+01 0.000000e+00
    endloop
  endfacet
  facet normal 2.249640e-32 1.836970e-16 -1.000000e+00
    outer loop
      vertex -2.272259e+00 -6.666935e+00 1.776357e-15
      vertex -4.821470e-01 -7.345835e+00 1.776357e-15
      vertex -1.500000e+01 -1.187500e+01 0.000000e+00
    endloop
  endfacet
  facet normal 2.249640e-32 1.836970e-16 -1.000000e+00
    outer loop
      vertex -8.054958e+00 -5.324856e+00 1.776357e-15
      vertex -6.698062e+00 -4.242767e+00 1.776357e-15
      vertex -1.500000e+01 -1.187500e+01 0.000000e+00
    endloop
  endfacet
  facet normal 2.249640e-32 1.836970e-16 -1.000000e+00
    outer loop
      vertex -8.054958e+00 -1.425144e+00 1.776357e-15
      vertex -4.000000e+00 -3.375000e+00 1.776357e-15
      vertex -6.698062e+00 -2.507233e+00 1.776357e-15
    endloop
  endfacet
  facet normal 2.249640e-32 1.836970e-16 -1.000000e+00
    outer loop
      vertex -3.000000e+01 1.187500e+01 5.329071e-15
      vertex -4.000000e+00 -3.375000e+00 1.776357e-15
      vertex -8.054958e+00 -1.425144e+00 1.776357e-15
    endloop
  endfacet
  facet normal 2.249640e-32 1.836970e-16 -1.000000e+00
    outer loop
      vertex -1.050000e+01 -3.375000e+00 1.776357e-15
      vertex -1.500000e+01 -6.250000e-01 1.776357e-15
      vertex -9.746980e+00 -1.811337e+00 1.776357e-15
    endloop
  endfacet
  facet normal 2.249640e-32 1.836970e-16 -1.000000e+00
    outer loop
      vertex -3.000000e+01 1.187500e+01 5.329071e-15
      vertex -9.746980e+00 -1.811337e+00 1.776357e-15
      vertex -1.500000e+01 -6.250000e-01 1.776357e-15
    endloop
  endfacet
  facet normal 2.249640e-32 1.836970e-16 -1.000000e+00
    outer loop
      vertex -1.500000e+01 -6.250000e-01 1.776357e-15
      vertex -1.050000e+01 -3.375000e+00 1.776357e-15
      vertex -1.500000e+01 -1.187500e+01 0.000000e+00
    endloop
  endfacet
  facet normal 2.249640e-32 1.836970e-16 -1.000000e+00
    outer loop
      vertex -1.050000e+01 -3.375000e+00 1.776357e-15
      vertex -9.746980e+00 -4.938663e+00 1.776357e-15
      vertex -1.500000e+01 -1.187500e+01 0.000000e+00
    endloop
  endfacet
  facet normal 2.249640e-32 1.836970e-16 -1.000000e+00
    outer loop
      vertex -9.746980e+00 -4.938663e+00 1.776357e-15
      vertex -8.054958e+00 -5.324856e+00 1.776357e-15
      vertex -1.500000e+01 -1.187500e+01 0.000000e+00
    endloop
  endfacet
  facet normal 2.249640e-32 1.836970e-16 -1.000000e+00
    outer loop
      vertex -3.000000e+01 -6.250000e-01 1.776357e-15
      vertex -3.000000e+01 1.187500e+01 5.329071e-15
      vertex -1.500000e+01 -6.250000e-01 1.776357e-15
    endloop
  endfacet
  facet normal -1.224647e-16 -1.000000e+00 -1.836970e-16
    outer loop
      vertex 3.000000e+01 -6.250000e-01 1.776357e-15
      vertex 3.000000e+01 -6.250000e-01 2.750000e+01
      vertex 1.283131e+01 -6.250000e-01 2.750000e+01
    endloop
  endfacet
  facet normal -1.224647e-16 -1.000000e+00 -1.836970e-16
    outer loop
      vertex 1.500000e+01 -6.250000e-01 2.500000e+00
      vertex 1.500000e+01 -6.250000e-01 1.776357e-15
      vertex 3.000000e+01 -6.250000e-01 1.776357e-15
    endloop
  endfacet
  facet normal -1.224647e-16 -1.000000e+00 -1.836970e-16
    outer loop
      vertex 1.500000e+01 -6.250000e-01 2.500000e+00
      vertex 3.000000e+01 -6.250000e-01 1.776357e-15
      vertex 1.283131e+01 -6.250000e-01 2.750000e+01
    endloop
  endfacet
  facet normal -1.224647e-16 -1.000000e+00 -1.836970e-16
    outer loop
      vertex 1.283131e+01 -6.250000e-01 2.500000e+00
      vertex 1.500000e+01 -6.250000e-01 2.500000e+00
      vertex 1.283131e+01 -6.250000e-01 2.750000e+01
    endloop
  endfacet
  facet normal NaN NaN NaN
    outer loop
      vertex 2.852777e+00 -6.250000e-01 2.500000e+00
      vertex 1.500000e+01 -6.250000e-01 2.500000e+00
      vertex 1.283131e+01 -6.250000e-01 2.500000e+00
    endloop
  endfacet
  facet normal -9.510565e-01 -3.090169e-01 -5.676547e-17
    outer loop
      vertex 1.283131e+01 -6.250000e-01 2.750000e+01
      vertex 1.199028e+01 1.963418e+00 2.750000e+01
      vertex 1.199028e+01 1.963418e+00 2.500000e+00
    endloop
  endfacet
  facet normal -9.510565e-01 -3.090169e-01 -5.676547e-17
    outer loop
      vertex 1.283131e+01 -6.250000e-01 2.500000e+00
      vertex 1.283131e+01 -6.250000e-01 2.750000e+01
      vertex 1.199028e+01 1.963418e+00 2.500000e+00
    endloop
  endfacet
  facet normal -8.660253e-01 -5.000002e-01 -9.184854e-17
    outer loop
      vertex 1.061835e+01 4.339681e+00 2.750000e+01
      vertex 1.061835e+01 4.339681e+00 2.500000e+00
      vertex 1.199028e+01 1.963418e+00 2.500000e+00
    endloop
  endfacet
  facet normal -8.660253e-01 -5.000002e-01 -9.184854e-17
    outer loop
      vertex 1.199028e+01 1.963418e+00 2.750000e+01
      vertex 1.061835e+01 4.339681e+00 2.750000e+01
      vertex 1.199028e+01 1.963418e+00 2.500000e+00
    endloop
  endfacet
  facet normal -7.431448e-01 -6.691307e-01 -1.229173e-16
    outer loop
      vertex 8.782339e+00 6.378776e+00 2.750000e+01
      vertex 8.782339e+00 6.378776e+00 2.500000e+00
      vertex 1.061835e+01 4.339681e+00 2.500000e+00
    endloop
  endfacet
  facet normal -7.431448e-01 -6.691307e-01 -1.229173e-16
    outer loop
      vertex 1.061835e+01 4.339681e+00 2.750000e+01
      vertex 8.782339e+00 6.378776e+00 2.750000e+01
      vertex 1.061835e+01 4.339681e+00 2.500000e+00
    endloop
  endfacet
  facet normal -5.877851e-01 -8.090171e-01 -1.486140e-16
    outer loop
      vertex 6.562500e+00 7.991583e+00 2.750000e+01
      vertex 6.562500e+00 7.991583e+00 2.500000e+00
      vertex 8.782339e+00 6.378776e+00 2.500000e+00
    endloop
  endfacet
  facet normal -5.877851e-01 -8.090171e-01 -1.486140e-16
    outer loop
      vertex 8.782339e+00 6.378776e+00 2.750000e+01
      vertex 6.562500e+00 7.991583e+00 2.750000e+01
      vertex 8.782339e+00 6.378776e+00 2.500000e+00
    endloop
  endfacet
  facet normal -4.067371e-01 -9.135453e-01 -1.678155e-16
    outer loop
      vertex 4.055848e+00 9.107617e+00 2.750000e+01
      vertex 4.055848e+00 9.107617e+00 2.500000e+00
      vertex 6.562500e+00 7.991583e+00 2.500000e+00
    endloop
  endfacet
  facet normal -4.067371e-01 -9.135453e-01 -1.678155e-16
    outer loop
      vertex 6.562500e+00 7.991583e+00 2.750000e+01
      vertex 4.055848e+00 9.107617e+00 2.750000e+01
      vertex 6.562500e+00 7.991583e+00 2.500000e+00
    endloop
  endfacet
  facet normal -2.079119e-01 -9.781476e-01 -1.796828e-16
    outer loop
      vertex 1.371936e+00 9.678100e+00 2.750000e+01
      vertex 1.371936e+00 9.678100e+00 2.500000e+00
      vertex 4.055848e+00 9.107617e+00 2.500000e+00
    endloop
  endfacet
  facet normal -2.079119e-01 -9.781476e-01 -1.796828e-16
    outer loop
      vertex 4.055848e+00 9.107617e+00 2.750000e+01
      vertex 1.371936e+00 9.678100e+00 2.750000e+01
      vertex 4.055848e+00 9.107617e+00 2.500000e+00
    endloop
  endfacet
  facet normal -1.224647e-16 -1.000000e+00 -1.836970e-16
    outer loop
      vertex -1.371936e+00 9.678100e+00 2.750000e+01
      vertex -1.371936e+00 9.678100e+00 2.500000e+00
      vertex 1.371936e+00 9.678100e+00 2.500000e+00
    endloop
  endfacet
  facet normal -1.224647e-16 -1.000000e+00 -1.836970e-16
    outer loop
      vertex 1.371936e+00 9.678100e+00 2.750000e+01
      vertex -1.371936e+00 9.678100e+00 2.750000e+01
      vertex 1.371936e+00 9.678100e+00 2.500000e+00
    endloop
  endfacet
  facet normal 2.079119e-01 -9.781476e-01 -1.796828e-16
    outer loop
      vertex -4.055848e+00 9.107617e+00 2.750000e+01
      vertex -4.055848e+00 9.107617e+00 2.500000e+00
      vertex -1.371936e+00 9.678100e+00 2.500000e+00
    endloop
  endfacet
  facet normal 2.079119e-01 -9.781476e-01 -1.796828e-16
    outer loop
      vertex -1.371936e+00 9.678100e+00 2.750000e+01
      vertex -4.055848e+00 9.107617e+00 2.750000e+01
      vertex -1.371936e+00 9.678100e+00 2.500000e+00
    endloop
  endfacet
  facet normal 4.067371e-01 -9.135453e-01 -1.678155e-16
    outer loop
      vertex -6.562500e+00 7.991583e+00 2.750000e+01
      vertex -6.562500e+00 7.991583e+00 2.500000e+00
      vertex -4.055848e+00 9.107617e+00 2.500000e+00
    endloop
  endfacet
  facet normal 4.067371e-01 -9.135453e-01 -1.678155e-16
    outer loop
      vertex -4.055848e+00 9.107617e+00 2.750000e+01
      vertex -6.562500e+00 7.991583e+00 2.750000e+01
      vertex -4.055848e+00 9.107617e+00 2.500000e+00
    endloop
  endfacet
  facet normal 5.877851e-01 -8.090171e-01 -1.486140e-16
    outer loop
      vertex -8.782339e+00 6.378776e+00 2.750000e+01
      vertex -8.782339e+00 6.378776e+00 2.500000e+00
      vertex -6.562500e+00 7.991583e+00 2.500000e+00
    endloop
  endfacet
  facet normal 5.877851e-01 -8.090171e-01 -1.486140e-16
    outer loop
      vertex -6.562500e+00 7.991583e+00 2.750000e+01
      vertex -8.782339e+00 6.378776e+00 2.750000e+01
      vertex -6.562500e+00 7.991583e+00 2.500000e+00
    endloop
  endfacet
  facet normal 7.431448e-01 -6.691307e-01 -1.229173e-16
    outer loop
      vertex -1.061835e+01 4.339681e+00 2.500000e+00
      vertex -8.782339e+00 6.378776e+00 2.500000e+00
      vertex -1.061835e+01 4.339681e+00 2.750000e+01
    endloop
  endfacet
  facet normal 7.431448e-01 -6.691307e-01 -1.229173e-16
    outer loop
      vertex -1.061835e+01 4.339681e+00 2.750000e+01
      vertex -8.782339e+00 6.378776e+00 2.500000e+00
      vertex -8.782339e+00 6.378776e+00 2.750000e+01
    endloop
  endfacet
  facet normal 8.660253e-01 -5.000002e-01 -9.184854e-17
    outer loop
      vertex -1.199028e+01 1.963418e+00 2.500000e+00
      vertex -1.061835e+01 4.339681e+00 2.500000e+00
      vertex -1.199028e+01 1.963418e+00 2.750000e+01
    endloop
  endfacet
  facet normal 8.660253e-01 -5.000002e-01 -9.184854e-17
    outer loop
      vertex -1.199028e+01 1.963418e+00 2.750000e+01
      vertex -1.061835e+01 4.339681e+00 2.500000e+00
      vertex -1.061835e+01 4.339681e+00 2.750000e+01
    endloop
  endfacet
  facet normal 9.510565e-01 -3.090169e-01 -5.676547e-17
    outer loop
      vertex -1.283131e+01 -6.250000e-01 2.500000e+00
      vertex -1.199028e+01 1.963418e+00 2.500000e+00
      vertex -1.283131e+01 -6.250000e-01 2.750000e+01
    endloop
  endfacet
  facet normal 9.510565e-01 -3.090169e-01 -5.676547e-17
    outer loop
      vertex -1.283131e+01 -6.250000e-01 2.750000e+01
      vertex -1.199028e+01 1.963418e+00 2.500000e+00
      vertex -1.199028e+01 1.963418e+00 2.750000e+01
    endloop
  endfacet
  facet normal -1.224647e-16 -1.000000e+00 -1.836970e-16
    outer loop
      vertex -1.283131e+01 -6.250000e-01 2.750000e+01
      vertex -3.000000e+01 -6.250000e-01 2.750000e+01
      vertex -1.283131e+01 -6.250000e-01 2.500000e+00
    endloop
  endfacet
  facet normal -1.224647e-16 -1.000000e+00 -1.836970e-16
    outer loop
      vertex -1.500000e+01 -6.250000e-01 1.776357e-15
      vertex -1.500000e+01 -6.250000e-01 2.500000e+00
      vertex -3.000000e+01 -6.250000e-01 1.776357e-15
    endloop
  endfacet
  facet normal -1.224647e-16 -1.000000e+00 -1.836970e-16
    outer loop
      vertex -3.000000e+01 -6.250000e-01 2.750000e+01
      vertex -1.500000e+01 -6.250000e-01 2.500000e+00
      vertex -1.283131e+01 -6.250000e-01 2.500000e+00
    endloop
  endfacet
  facet normal -1.224647e-16 -1.000000e+00 -1.836970e-16
    outer loop
      vertex -3.000000e+01 -6.250000e-01 2.750000e+01
      vertex -3.000000e+01 -6.250000e-01 1.776357e-15
      vertex -1.500000e+01 -6.250000e-01 2.500000e+00
    endloop
  endfacet
  facet normal NaN NaN NaN
    outer loop
      vertex -1.500000e+01 -6.250000e-01 2.500000e+00
      vertex -2.752372e+00 -6.250000e-01 2.500000e+00
      vertex -1.283131e+01 -6.250000e-01 2.500000e+00
    endloop
  endfacet
  facet normal -1.000000e+00 1.224647e-16 0.000000e+00
    outer loop
      vertex -3.000000e+01 -6.250000e-01 2.750000e+01
      vertex -3.000000e+01 1.187500e+01 2.750000e+01
      vertex -3.000000e+01 1.187500e+01 5.329071e-15
    endloop
  endfacet
  facet normal -1.000000e+00 1.224647e-16 0.000000e+00
    outer loop
      vertex -3.000000e+01 -6.250000e-01 1.776357e-15
      vertex -3.000000e+01 -6.250000e-01 2.750000e+01
      vertex -3.000000e+01 1.187500e+01 5.329071e-15
    endloop
  endfacet
  facet normal -1.000000e+00 1.224647e-16 0.000000e+00
    outer loop
      vertex 2.760000e+01 1.187500e+01 1.555000e+01
      vertex 2.760000e+01 3.125000e+00 1.555000e+01
      vertex 2.760000e+01 3.125000e+00 2.395000e+01
    endloop
  endfacet
  facet normal -1.000000e+00 1.224647e-16 0.000000e+00
    outer loop
      vertex 2.760000e+01 1.187500e+01 2.395000e+01
      vertex 2.760000e+01 1.187500e+01 1.555000e+01
      vertex 2.760000e+01 3.125000e+00 2.395000e+01
    endloop
  endfacet
  facet normal -2.249640e-32 -1.836970e-16 1.000000e+00
    outer loop
      vertex 1.920000e+01 1.187500e+01 1.555000e+01
      vertex 1.920000e+01 3.125000e+00 1.555000e+01
      vertex 2.760000e+01 3.125000e+00 1.555000e+01
    endloop
  endfacet
  facet normal -2.249640e-32 -1.836970e-16 1.000000e+00
    outer loop
      vertex 2.760000e+01 1.187500e+01 1.555000e+01
      vertex 1.920000e+01 1.187500e+01 1.555000e+01
      vertex 2.760000e+01 3.125000e+00 1.555000e+01
    endloop
  endfacet
  facet normal 1.000000e+00 -1.224647e-16 -0.000000e+00
    outer loop
      vertex 1.920000e+01 3.125000e+00 1.555000e+01
      vertex 1.920000e+01 1.187500e+01 1.555000e+01
      vertex 1.920000e+01 3.125000e+00 2.395000e+01
    endloop
  endfacet
  facet normal 1.000000e+00 -1.224647e-16 -0.000000e+00
    outer loop
      vertex 1.920000e+01 3.125000e+00 2.395000e+01
      vertex 1.920000e+01 1.187500e+01 1.555000e+01
      vertex 1.920000e+01 1.187500e+01 2.395000e+01
    endloop
  endfacet
  facet normal 2.249640e-32 1.836970e-16 -1.000000e+00
    outer loop
      vertex 1.920000e+01 3.125000e+00 2.395000e+01
      vertex 1.920000e+01 1.187500e+01 2.395000e+01
      vertex 2.760000e+01 3.125000e+00 2.395000e+01
    endloop
  endfacet
  facet normal 2.249640e-32 1.836970e-16 -1.000000e+00
    outer loop
      vertex 2.760000e+01 3.125000e+00 2.395000e+01
      vertex 1.920000e+01 1.187500e+01 2.395000e+01
      vertex 2.760000e+01 1.187500e+01 2.395000e+01
    endloop
  endfacet
  facet normal -1.000000e+00 1.224647e-16 0.000000e+00
    outer loop
      vertex -1.920000e+01 1.187500e+01 1.555000e+01
      vertex -1.920000e+01 3.125000e+00 1.555000e+01
      vertex -1.920000e+01 3.125000e+00 2.395000e+01
    endloop
  endfacet
  facet normal -1.000000e+00 1.224647e-16 0.000000e+00
    outer loop
      vertex -1.920000e+01 1.187500e+01 2.395000e+01
      vertex -1.920000e+01 1.187500e+01 1.555000e+01
      vertex -1.920000e+01 3.125000e+00 2.395000e+01
    endloop
  endfacet
  facet normal -2.249640e-32 -1.836970e-16 1.000000e+00
    outer loop
      vertex -2.760000e+01 1.187500e+01 1.555000e+01
      vertex -2.760000e+01 3.125000e+00 1.555000e+01
      vertex -1.920000e+01 3.125000e+00 1.555000e+01
    endloop
  endfacet
  facet normal -2.249640e-32 -1.836970e-16 1.000000e+00
    outer loop
      vertex -1.920000e+01 1.187500e+01 1.555000e+01
      vertex -2.760000e+01 1.187500e+01 1.555000e+01
      vertex -1.920000e+01 3.125000e+00 1.555000e+01
    endloop
  endfacet
  facet normal 1.000000e+00 -1.224647e-16 -0.000000e+00
    outer loop
      vertex -2.760000e+01 3.125000e+00 1.555000e+01
      vertex -2.760000e+01 1.187500e+01 1.555000e+01
      vertex -2.760000e+01 3.125000e+00 2.395000e+01
    endloop
  endfacet
  facet normal 1.000000e+00 -1.224647e-16 -0.000000e+00
    outer loop
      vertex -2.760000e+01 3.125000e+00 2.395000e+01
      vertex -2.760000e+01 1.187500e+01 1.555000e+01
      vertex -2.760000e+01 1.187500e+01 2.395000e+01
    endloop
  endfacet
  facet normal 2.249640e-32 1.836970e-16 -1.000000e+00
    outer loop
      vertex -2.760000e+01 3.125000e+00 2.395000e+01
      vertex -2.760000e+01 1.187500e+01 2.395000e+01
      vertex -1.920000e+01 3.125000e+00 2.395000e+01
    endloop
  endfacet
  facet normal 2.249640e-32 1.836970e-16 -1.000000e+00
    outer loop
      vertex -1.920000e+01 3.125000e+00 2.395000e+01
      vertex -2.760000e+01 1.187500e+01 2.395000e+01
      vertex -1.920000e+01 1.187500e+01 2.395000e+01
    endloop
  endfacet
  facet normal -1.000000e+00 1.224647e-16 0.000000e+00
    outer loop
      vertex -1.500000e+01 -1.187500e+01 2.500000e+00
      vertex -1.500000e+01 -6.250000e-01 2.500000e+00
      vertex -1.500000e+01 -6.250000e-01 1.776357e-15
    endloop
  endfacet
  facet normal -1.000000e+00 1.224647e-16 0.000000e+00
    outer loop
      vertex -1.500000e+01 -1.187500e+01 0.000000e+00
      vertex -1.500000e+01 -1.187500e+01 2.500000e+00
      vertex -1.500000e+01 -6.250000e-01 1.776357e-15
    endloop
  endfacet
  facet normal -1.224647e-16 -1.000000e+00 -1.836970e-16
    outer loop
      vertex 1.500000e+01 -1.187500e+01 0.000000e+00
      vertex 1.500000e+01 -1.187500e+01 2.500000e+00
      vertex -1.500000e+01 -1.187500e+01 2.500000e+00
    endloop
  endfacet
  facet normal -1.224647e-16 -1.000000e+00 -1.836970e-16
    outer loop
      vertex -1.500000e+01 -1.187500e+01 0.000000e+00
      vertex 1.500000e+01 -1.187500e+01 0.000000e+00
      vertex -1.500000e+01 -1.187500e+01 2.500000e+00
    endloop
  endfacet
  facet normal 1.000000e+00 -1.224647e-16 0.000000e+00
    outer loop
      vertex 1.500000e+01 -6.250000e-01 2.500000e+00
      vertex 1.500000e+01 -1.187500e+01 2.500000e+00
      vertex 1.500000e+01 -6.250000e-01 1.776357e-15
    endloop
  endfacet
  facet normal 1.000000e+00 -1.224647e-16 -0.000000e+00
    outer loop
      vertex 1.500000e+01 -6.250000e-01 1.776357e-15
      vertex 1.500000e+01 -1.187500e+01 2.500000e+00
      vertex 1.500000e+01 -1.187500e+01 0.000000e+00
    endloop
  endfacet
  facet normal -6.234901e-01 7.818312e-01 1.436201e-16
    outer loop
      vertex 8.945042e+00 -5.324856e+00 1.776357e-15
      vertex 8.945042e+00 -5.324856e+00 2.500000e+00
      vertex 1.030194e+01 -4.242767e+00 1.776357e-15
    endloop
  endfacet
  facet normal -6.234901e-01 7.818312e-01 1.436201e-16
    outer loop
      vertex 1.030194e+01 -4.242767e+00 1.776357e-15
      vertex 8.945042e+00 -5.324856e+00 2.500000e+00
      vertex 1.030194e+01 -4.242767e+00 2.500000e+00
    endloop
  endfacet
  facet normal -1.000000e+00 1.224647e-16 0.000000e+00
    outer loop
      vertex 1.030194e+01 -2.507233e+00 1.776357e-15
      vertex 1.030194e+01 -4.242767e+00 1.776357e-15
      vertex 1.030194e+01 -4.242767e+00 2.500000e+00
    endloop
  endfacet
  facet normal -1.000000e+00 1.224647e-16 0.000000e+00
    outer loop
      vertex 1.030194e+01 -2.507233e+00 2.500000e+00
      vertex 1.030194e+01 -2.507233e+00 1.776357e-15
      vertex 1.030194e+01 -4.242767e+00 2.500000e+00
    endloop
  endfacet
  facet normal 2.225210e-01 9.749279e-01 1.790913e-16
    outer loop
      vertex 7.253020e+00 -4.938663e+00 1.776357e-15
      vertex 7.253020e+00 -4.938663e+00 2.500000e+00
      vertex 8.945042e+00 -5.324856e+00 1.776357e-15
    endloop
  endfacet
  facet normal 2.225210e-01 9.749279e-01 1.790913e-16
    outer loop
      vertex 8.945042e+00 -5.324856e+00 1.776357e-15
      vertex 7.253020e+00 -4.938663e+00 2.500000e+00
      vertex 8.945042e+00 -5.324856e+00 2.500000e+00
    endloop
  endfacet
  facet normal 9.009688e-01 4.338839e-01 7.970318e-17
    outer loop
      vertex 6.500000e+00 -3.375000e+00 1.776357e-15
      vertex 6.500000e+00 -3.375000e+00 2.500000e+00
      vertex 7.253020e+00 -4.938663e+00 1.776357e-15
    endloop
  endfacet
  facet normal 9.009688e-01 4.338839e-01 7.970318e-17
    outer loop
      vertex 7.253020e+00 -4.938663e+00 1.776357e-15
      vertex 6.500000e+00 -3.375000e+00 2.500000e+00
      vertex 7.253020e+00 -4.938663e+00 2.500000e+00
    endloop
  endfacet
  facet normal 9.009688e-01 -4.338839e-01 -7.970318e-17
    outer loop
      vertex 6.500000e+00 -3.375000e+00 1.776357e-15
      vertex 7.253020e+00 -1.811337e+00 1.776357e-15
      vertex 6.500000e+00 -3.375000e+00 2.500000e+00
    endloop
  endfacet
  facet normal 9.009688e-01 -4.338839e-01 -7.970318e-17
    outer loop
      vertex 6.500000e+00 -3.375000e+00 2.500000e+00
      vertex 7.253020e+00 -1.811337e+00 1.776357e-15
      vertex 7.253020e+00 -1.811337e+00 2.500000e+00
    endloop
  endfacet
  facet normal 2.225210e-01 -9.749279e-01 -1.790913e-16
    outer loop
      vertex 7.253020e+00 -1.811337e+00 2.500000e+00
      vertex 7.253020e+00 -1.811337e+00 1.776357e-15
      vertex 8.945042e+00 -1.425144e+00 1.776357e-15
    endloop
  endfacet
  facet normal 2.225210e-01 -9.749279e-01 -1.790913e-16
    outer loop
      vertex 8.945042e+00 -1.425144e+00 2.500000e+00
      vertex 7.253020e+00 -1.811337e+00 2.500000e+00
      vertex 8.945042e+00 -1.425144e+00 1.776357e-15
    endloop
  endfacet
  facet normal -6.234901e-01 -7.818312e-01 -1.436201e-16
    outer loop
      vertex 8.945042e+00 -1.425144e+00 2.500000e+00
      vertex 8.945042e+00 -1.425144e+00 1.776357e-15
      vertex 1.030194e+01 -2.507233e+00 1.776357e-15
    endloop
  endfacet
  facet normal -6.234901e-01 -7.818312e-01 -1.436201e-16
    outer loop
      vertex 1.030194e+01 -2.507233e+00 2.500000e+00
      vertex 8.945042e+00 -1.425144e+00 2.500000e+00
      vertex 1.030194e+01 -2.507233e+00 1.776357e-15
    endloop
  endfacet
  facet normal -8.854561e-01 4.647231e-01 8.536824e-17
    outer loop
      vertex 3.883767e+00 -4.332263e+00 1.776357e-15
      vertex 2.994043e+00 -6.027491e+00 1.776357e-15
      vertex 2.994043e+00 -6.027491e+00 2.500000e+00
    endloop
  endfacet
  facet normal -8.854561e-01 4.647231e-01 8.536824e-17
    outer loop
      vertex 3.883767e+00 -4.332263e+00 2.500000e+00
      vertex 3.883767e+00 -4.332263e+00 1.776357e-15
      vertex 2.994043e+00 -6.027491e+00 2.500000e+00
    endloop
  endfacet
  facet normal -1.000000e+00 1.224647e-16 0.000000e+00
    outer loop
      vertex 3.883767e+00 -2.417737e+00 1.776357e-15
      vertex 3.883767e+00 -4.332263e+00 1.776357e-15
      vertex 3.883767e+00 -4.332263e+00 2.500000e+00
    endloop
  endfacet
  facet normal -1.000000e+00 1.224647e-16 0.000000e+00
    outer loop
      vertex 3.883767e+00 -2.417737e+00 2.500000e+00
      vertex 3.883767e+00 -2.417737e+00 1.776357e-15
      vertex 3.883767e+00 -4.332263e+00 2.500000e+00
    endloop
  endfacet
  facet normal -5.680649e-01 8.229838e-01 1.511797e-16
    outer loop
      vertex 1.418420e+00 -7.115065e+00 1.776357e-15
      vertex 1.418420e+00 -7.115065e+00 2.500000e+00
      vertex 2.994043e+00 -6.027491e+00 1.776357e-15
    endloop
  endfacet
  facet normal -5.680649e-01 8.229838e-01 1.511797e-16
    outer loop
      vertex 2.994043e+00 -6.027491e+00 1.776357e-15
      vertex 1.418420e+00 -7.115065e+00 2.500000e+00
      vertex 2.994043e+00 -6.027491e+00 2.500000e+00
    endloop
  endfacet
  facet normal -1.205360e-01 9.927090e-01 1.823577e-16
    outer loop
      vertex -4.821470e-01 -7.345835e+00 1.776357e-15
      vertex -4.821470e-01 -7.345835e+00 2.500000e+00
      vertex 1.418420e+00 -7.115065e+00 1.776357e-15
    endloop
  endfacet
  facet normal -1.205360e-01 9.927090e-01 1.823577e-16
    outer loop
      vertex 1.418420e+00 -7.115065e+00 1.776357e-15
      vertex -4.821470e-01 -7.345835e+00 2.500000e+00
      vertex 1.418420e+00 -7.115065e+00 2.500000e+00
    endloop
  endfacet
  facet normal 3.546051e-01 9.350162e-01 1.717597e-16
    outer loop
      vertex -2.272259e+00 -6.666935e+00 1.776357e-15
      vertex -2.272259e+00 -6.666935e+00 2.500000e+00
      vertex -4.821470e-01 -7.345835e+00 1.776357e-15
    endloop
  endfacet
  facet normal 3.546051e-01 9.350162e-01 1.717597e-16
    outer loop
      vertex -4.821470e-01 -7.345835e+00 1.776357e-15
      vertex -2.272259e+00 -6.666935e+00 2.500000e+00
      vertex -4.821470e-01 -7.345835e+00 2.500000e+00
    endloop
  endfacet
  facet normal 7.485107e-01 6.631227e-01 1.218137e-16
    outer loop
      vertex -3.541824e+00 -5.233893e+00 1.776357e-15
      vertex -3.541824e+00 -5.233893e+00 2.500000e+00
      vertex -2.272259e+00 -6.666935e+00 1.776357e-15
    endloop
  endfacet
  facet normal 7.485107e-01 6.631227e-01 1.218137e-16
    outer loop
      vertex -2.272259e+00 -6.666935e+00 1.776357e-15
      vertex -3.541824e+00 -5.233893e+00 2.500000e+00
      vertex -2.272259e+00 -6.666935e+00 2.500000e+00
    endloop
  endfacet
  facet normal 9.709417e-01 2.393159e-01 4.396162e-17
    outer loop
      vertex -4.000000e+00 -3.375000e+00 1.776357e-15
      vertex -4.000000e+00 -3.375000e+00 2.500000e+00
      vertex -3.541824e+00 -5.233893e+00 1.776357e-15
    endloop
  endfacet
  facet normal 9.709417e-01 2.393159e-01 4.396162e-17
    outer loop
      vertex -3.541824e+00 -5.233893e+00 1.776357e-15
      vertex -4.000000e+00 -3.375000e+00 2.500000e+00
      vertex -3.541824e+00 -5.233893e+00 2.500000e+00
    endloop
  endfacet
  facet normal 9.709417e-01 -2.393159e-01 -4.396162e-17
    outer loop
      vertex -4.000000e+00 -3.375000e+00 1.776357e-15
      vertex -3.541824e+00 -1.516107e+00 1.776357e-15
      vertex -4.000000e+00 -3.375000e+00 2.500000e+00
    endloop
  endfacet
  facet normal 9.709417e-01 -2.393159e-01 -4.396162e-17
    outer loop
      vertex -4.000000e+00 -3.375000e+00 2.500000e+00
      vertex -3.541824e+00 -1.516107e+00 1.776357e-15
      vertex -3.541824e+00 -1.516107e+00 2.500000e+00
    endloop
  endfacet
  facet normal 7.485107e-01 -6.631227e-01 -1.218137e-16
    outer loop
      vertex -2.752372e+00 -6.250000e-01 2.500000e+00
      vertex -3.541824e+00 -1.516107e+00 2.500000e+00
      vertex -3.541824e+00 -1.516107e+00 1.776357e-15
    endloop
  endfacet
  facet normal 7.485107e-01 -6.631227e-01 -1.218137e-16
    outer loop
      vertex -2.752372e+00 -6.250000e-01 2.500000e+00
      vertex -3.541824e+00 -1.516107e+00 1.776357e-15
      vertex -2.272259e+00 -8.306503e-02 1.776357e-15
    endloop
  endfacet
  facet normal 7.485107e-01 -6.631227e-01 -1.218137e-16
    outer loop
      vertex -2.272259e+00 -8.306503e-02 1.776357e-15
      vertex -2.272259e+00 -8.306503e-02 2.500000e+00
      vertex -2.752372e+00 -6.250000e-01 2.500000e+00
    endloop
  endfacet
  facet normal 3.546051e-01 -9.350162e-01 -1.717597e-16
    outer loop
      vertex -2.272259e+00 -8.306503e-02 2.500000e+00
      vertex -2.272259e+00 -8.306503e-02 1.776357e-15
      vertex -4.821470e-01 5.958352e-01 1.776357e-15
    endloop
  endfacet
  facet normal 3.546051e-01 -9.350162e-01 -1.717597e-16
    outer loop
      vertex -4.821470e-01 5.958352e-01 2.500000e+00
      vertex -2.272259e+00 -8.306503e-02 2.500000e+00
      vertex -4.821470e-01 5.958352e-01 1.776357e-15
    endloop
  endfacet
  facet normal -1.205360e-01 -9.927090e-01 -1.823577e-16
    outer loop
      vertex -4.821470e-01 5.958352e-01 2.500000e+00
      vertex -4.821470e-01 5.958352e-01 1.776357e-15
      vertex 1.418420e+00 3.650651e-01 1.776357e-15
    endloop
  endfacet
  facet normal -1.205360e-01 -9.927090e-01 -1.823577e-16
    outer loop
      vertex 1.418420e+00 3.650651e-01 2.500000e+00
      vertex -4.821470e-01 5.958352e-01 2.500000e+00
      vertex 1.418420e+00 3.650651e-01 1.776357e-15
    endloop
  endfacet
  facet normal -5.680649e-01 -8.229838e-01 -1.511797e-16
    outer loop
      vertex 2.994043e+00 -7.225089e-01 1.776357e-15
      vertex 2.852777e+00 -6.250000e-01 2.500000e+00
      vertex 1.418420e+00 3.650651e-01 1.776357e-15
    endloop
  endfacet
  facet normal -5.680649e-01 -8.229838e-01 -1.511797e-16
    outer loop
      vertex 1.418420e+00 3.650651e-01 1.776357e-15
      vertex 2.852777e+00 -6.250000e-01 2.500000e+00
      vertex 1.418420e+00 3.650651e-01 2.500000e+00
    endloop
  endfacet
  facet normal -5.680649e-01 -8.229838e-01 -1.511797e-16
    outer loop
      vertex 2.994043e+00 -7.225089e-01 2.500000e+00
      vertex 2.852777e+00 -6.250000e-01 2.500000e+00
      vertex 2.994043e+00 -7.225089e-01 1.776357e-15
    endloop
  endfacet
  facet normal -8.854561e-01 -4.647231e-01 -8.536824e-17
    outer loop
      vertex 2.994043e+00 -7.225089e-01 2.500000e+00
      vertex 2.994043e+00 -7.225089e-01 1.776357e-15
      vertex 3.883767e+00 -2.417737e+00 1.776357e-15
    endloop
  endfacet
  facet normal -8.854561e-01 -4.647231e-01 -8.536824e-17
    outer loop
      vertex 3.883767e+00 -2.417737e+00 2.500000e+00
      vertex 2.994043e+00 -7.225089e-01 2.500000e+00
      vertex 3.883767e+00 -2.417737e+00 1.776357e-15
    endloop
  endfacet
  facet normal -6.234901e-01 7.818312e-01 1.436201e-16
    outer loop
      vertex -8.054958e+00 -5.324856e+00 1.776357e-15
      vertex -8.054958e+00 -5.324856e+00 2.500000e+00
      vertex -6.698062e+00 -4.242767e+00 1.776357e-15
    endloop
  endfacet
  facet normal -6.234901e-01 7.818312e-01 1.436201e-16
    outer loop
      vertex -6.698062e+00 -4.242767e+00 1.776357e-15
      vertex -8.054958e+00 -5.324856e+00 2.500000e+00
      vertex -6.698062e+00 -4.242767e+00 2.500000e+00
    endloop
  endfacet
  facet normal -1.000000e+00 1.224647e-16 0.000000e+00
    outer loop
      vertex -6.698062e+00 -2.507233e+00 1.776357e-15
      vertex -6.698062e+00 -4.242767e+00 1.776357e-15
      vertex -6.698062e+00 -4.242767e+00 2.500000e+00
    endloop
  endfacet
  facet normal -1.000000e+00 1.224647e-16 0.000000e+00
    outer loop
      vertex -6.698062e+00 -2.507233e+00 2.500000e+00
      vertex -6.698062e+00 -2.507233e+00 1.776357e-15
      vertex -6.698062e+00 -4.242767e+00 2.500000e+00
    endloop
  endfacet
  facet normal 2.225210e-01 9.749279e-01 1.790913e-16
    outer loop
      vertex -9.746980e+00 -4.938663e+00 1.776357e-15
      vertex -9.746980e+00 -4.938663e+00 2.500000e+00
      vertex -8.054958e+00 -5.324856e+00 1.776357e-15
    endloop
  endfacet
  facet normal 2.225210e-01 9.749279e-01 1.790913e-16
    outer loop
      vertex -8.054958e+00 -5.324856e+00 1.776357e-15
      vertex -9.746980e+00 -4.938663e+00 2.500000e+00
      vertex -8.054958e+00 -5.324856e+00 2.500000e+00
    endloop
  endfacet
  facet normal 9.009688e-01 4.338839e-01 7.970318e-17
    outer loop
      vertex -1.050000e+01 -3.375000e+00 1.776357e-15
      vertex -1.050000e+01 -3.375000e+00 2.500000e+00
      vertex -9.746980e+00 -4.938663e+00 1.776357e-15
    endloop
  endfacet
  facet normal 9.009688e-01 4.338839e-01 7.970318e-17
    outer loop
      vertex -9.746980e+00 -4.938663e+00 1.776357e-15
      vertex -1.050000e+01 -3.375000e+00 2.500000e+00
      vertex -9.746980e+00 -4.938663e+00 2.500000e+00
    endloop
  endfacet
  facet normal 9.009688e-01 -4.338839e-01 -7.970318e-17
    outer loop
      vertex -1.050000e+01 -3.375000e+00 1.776357e-15
      vertex -9.746980e+00 -1.811337e+00 1.776357e-15
      vertex -1.050000e+01 -3.375000e+00 2.500000e+00
    endloop
  endfacet
  facet normal 9.009688e-01 -4.338839e-01 -7.970318e-17
    outer loop
      vertex -1.050000e+01 -3.375000e+00 2.500000e+00
      vertex -9.746980e+00 -1.811337e+00 1.776357e-15
      vertex -9.746980e+00 -1.811337e+00 2.500000e+00
    endloop
  endfacet
  facet normal 2.225210e-01 -9.749279e-01 -1.790913e-16
    outer loop
      vertex -9.746980e+00 -1.811337e+00 2.500000e+00
      vertex -9.746980e+00 -1.811337e+00 1.776357e-15
      vertex -8.054958e+00 -1.425144e+00 1.776357e-15
    endloop
  endfacet
  facet normal 2.225210e-01 -9.749279e-01 -1.790913e-16
    outer loop
      vertex -8.054958e+00 -1.425144e+00 2.500000e+00
      vertex -9.746980e+00 -1.811337e+00 2.500000e+00
      vertex -8.054958e+00 -1.425144e+00 1.776357e-15
    endloop
  endfacet
  facet normal -6.234901e-01 -7.818312e-01 -1.436201e-16
    outer loop
      vertex -8.054958e+00 -1.425144e+00 2.500000e+00
      vertex -8.054958e+00 -1.425144e+00 1.776357e-15
      vertex -6.698062e+00 -2.507233e+00 1.776357e-15
    endloop
  endfacet
  facet normal -6.234901e-01 -7.818312e-01 -1.436201e-16
    outer loop
      vertex -6.698062e+00 -2.507233e+00 2.500000e+00
      vertex -8.054958e+00 -1.425144e+00 2.500000e+00
      vertex -6.698062e+00 -2.507233e+00 1.776357e-15
    endloop
  endfacet
  facet normal -2.249640e-32 -1.836970e-16 1.000000e+00
    outer loop
      vertex 2.994043e+00 -7.225089e-01 2.500000e+00
      vertex 1.500000e+01 -6.250000e-01 2.500000e+00
      vertex 2.852777e+00 -6.250000e-01 2.500000e+00
    endloop
  endfacet
  facet normal -2.249640e-32 -1.836970e-16 1.000000e+00
    outer loop
      vertex 8.945042e+00 -1.425144e+00 2.500000e+00
      vertex 1.500000e+01 -6.250000e-01 2.500000e+00
      vertex 2.994043e+00 -7.225089e-01 2.500000e+00
    endloop
  endfacet
  facet normal -2.249640e-32 -1.836970e-16 1.000000e+00
    outer loop
      vertex 8.945042e+00 -5.324856e+00 2.500000e+00
      vertex 7.253020e+00 -4.938663e+00 2.500000e+00
      vertex 1.500000e+01 -1.187500e+01 2.500000e+00
    endloop
  endfacet
  facet normal -2.249640e-32 -1.836970e-16 1.000000e+00
    outer loop
      vertex -6.698062e+00 -2.507233e+00 2.500000e+00
      vertex -6.698062e+00 -4.242767e+00 2.500000e+00
      vertex -3.541824e+00 -5.233893e+00 2.500000e+00
    endloop
  endfacet
  facet normal -2.249640e-32 -1.836970e-16 1.000000e+00
    outer loop
      vertex 3.883767e+00 -4.332263e+00 2.500000e+00
      vertex 1.500000e+01 -1.187500e+01 2.500000e+00
      vertex 3.883767e+00 -2.417737e+00 2.500000e+00
    endloop
  endfacet
  facet normal -2.249640e-32 -1.836970e-16 1.000000e+00
    outer loop
      vertex 2.994043e+00 -6.027491e+00 2.500000e+00
      vertex 1.500000e+01 -1.187500e+01 2.500000e+00
      vertex 3.883767e+00 -4.332263e+00 2.500000e+00
    endloop
  endfacet
  facet normal -2.249640e-32 -1.836970e-16 1.000000e+00
    outer loop
      vertex 1.418420e+00 -7.115065e+00 2.500000e+00
      vertex 1.500000e+01 -1.187500e+01 2.500000e+00
      vertex 2.994043e+00 -6.027491e+00 2.500000e+00
    endloop
  endfacet
  facet normal -2.249640e-32 -1.836970e-16 1.000000e+00
    outer loop
      vertex -4.821470e-01 -7.345835e+00 2.500000e+00
      vertex 1.500000e+01 -1.187500e+01 2.500000e+00
      vertex 1.418420e+00 -7.115065e+00 2.500000e+00
    endloop
  endfacet
  facet normal -2.249640e-32 -1.836970e-16 1.000000e+00
    outer loop
      vertex -1.500000e+01 -1.187500e+01 2.500000e+00
      vertex 1.500000e+01 -1.187500e+01 2.500000e+00
      vertex -4.821470e-01 -7.345835e+00 2.500000e+00
    endloop
  endfacet
  facet normal -2.249640e-32 -1.836970e-16 1.000000e+00
    outer loop
      vertex -1.500000e+01 -1.187500e+01 2.500000e+00
      vertex -4.821470e-01 -7.345835e+00 2.500000e+00
      vertex -2.272259e+00 -6.666935e+00 2.500000e+00
    endloop
  endfacet
  facet normal -2.249640e-32 -1.836970e-16 1.000000e+00
    outer loop
      vertex -6.698062e+00 -4.242767e+00 2.500000e+00
      vertex -2.272259e+00 -6.666935e+00 2.500000e+00
      vertex -3.541824e+00 -5.233893e+00 2.500000e+00
    endloop
  endfacet
  facet normal -2.249640e-32 -1.836970e-16 1.000000e+00
    outer loop
      vertex -6.698062e+00 -2.507233e+00 2.500000e+00
      vertex -4.000000e+00 -3.375000e+00 2.500000e+00
      vertex -3.541824e+00 -1.516107e+00 2.500000e+00
    endloop
  endfacet
  facet normal -2.249640e-32 -1.836970e-16 1.000000e+00
    outer loop
      vertex -1.500000e+01 -6.250000e-01 2.500000e+00
      vertex -3.541824e+00 -1.516107e+00 2.500000e+00
      vertex -2.752372e+00 -6.250000e-01 2.500000e+00
    endloop
  endfacet
  facet normal -2.249640e-32 -1.836970e-16 1.000000e+00
    outer loop
      vertex -9.746980e+00 -4.938663e+00 2.500000e+00
      vertex -1.050000e+01 -3.375000e+00 2.500000e+00
      vertex -1.500000e+01 -6.250000e-01 2.500000e+00
    endloop
  endfacet
  facet normal -2.249640e-32 -1.836970e-16 1.000000e+00
    outer loop
      vertex -8.054958e+00 -1.425144e+00 2.500000e+00
      vertex -6.698062e+00 -2.507233e+00 2.500000e+00
      vertex -3.541824e+00 -1.516107e+00 2.500000e+00
    endloop
  endfacet
  facet normal -2.249640e-32 -1.836970e-16 1.000000e+00
    outer loop
      vertex 1.500000e+01 -1.187500e+01 2.500000e+00
      vertex 1.500000e+01 -6.250000e-01 2.500000e+00
      vertex 1.030194e+01 -2.507233e+00 2.500000e+00
    endloop
  endfacet
  facet normal -2.249640e-32 -1.836970e-16 1.000000e+00
    outer loop
      vertex 7.253020e+00 -1.811337e+00 2.500000e+00
      vertex 8.945042e+00 -1.425144e+00 2.500000e+00
      vertex 2.994043e+00 -7.225089e-01 2.500000e+00
    endloop
  endfacet
  facet normal -2.249640e-32 -1.836970e-16 1.000000e+00
    outer loop
      vertex 1.500000e+01 -1.187500e+01 2.500000e+00
      vertex 1.030194e+01 -2.507233e+00 2.500000e+00
      vertex 1.030194e+01 -4.242767e+00 2.500000e+00
    endloop
  endfacet
  facet normal -2.249640e-32 -1.836970e-16 1.000000e+00
    outer loop
      vertex 7.253020e+00 -4.938663e+00 2.500000e+00
      vertex 6.500000e+00 -3.375000e+00 2.500000e+00
      vertex 2.994043e+00 -7.225089e-01 2.500000e+00
    endloop
  endfacet
  facet normal -2.249640e-32 -1.836970e-16 1.000000e+00
    outer loop
      vertex 1.500000e+01 -1.187500e+01 2.500000e+00
      vertex 1.030194e+01 -4.242767e+00 2.500000e+00
      vertex 8.945042e+00 -5.324856e+00 2.500000e+00
    endloop
  endfacet
  facet normal -2.249640e-32 -1.836970e-16 1.000000e+00
    outer loop
      vertex 6.500000e+00 -3.375000e+00 2.500000e+00
      vertex 7.253020e+00 -1.811337e+00 2.500000e+00
      vertex 2.994043e+00 -7.225089e-01 2.500000e+00
    endloop
  endfacet
  facet normal -2.249640e-32 -1.836970e-16 1.000000e+00
    outer loop
      vertex 3.883767e+00 -2.417737e+00 2.500000e+00
      vertex 1.500000e+01 -1.187500e+01 2.500000e+00
      vertex 7.253020e+00 -4.938663e+00 2.500000e+00
    endloop
  endfacet
  facet normal -2.249640e-32 -1.836970e-16 1.000000e+00
    outer loop
      vertex 1.030194e+01 -2.507233e+00 2.500000e+00
      vertex 1.500000e+01 -6.250000e-01 2.500000e+00
      vertex 8.945042e+00 -1.425144e+00 2.500000e+00
    endloop
  endfacet
  facet normal -2.249640e-32 -1.836970e-16 1.000000e+00
    outer loop
      vertex -6.698062e+00 -4.242767e+00 2.500000e+00
      vertex -8.054958e+00 -5.324856e+00 2.500000e+00
      vertex -2.272259e+00 -6.666935e+00 2.500000e+00
    endloop
  endfacet
  facet normal -2.249640e-32 -1.836970e-16 1.000000e+00
    outer loop
      vertex -1.050000e+01 -3.375000e+00 2.500000e+00
      vertex -9.746980e+00 -1.811337e+00 2.500000e+00
      vertex -1.500000e+01 -6.250000e-01 2.500000e+00
    endloop
  endfacet
  facet normal -2.249640e-32 -1.836970e-16 1.000000e+00
    outer loop
      vertex -1.500000e+01 -1.187500e+01 2.500000e+00
      vertex -2.272259e+00 -6.666935e+00 2.500000e+00
      vertex -8.054958e+00 -5.324856e+00 2.500000e+00
    endloop
  endfacet
  facet normal -2.249640e-32 -1.836970e-16 1.000000e+00
    outer loop
      vertex -1.500000e+01 -1.187500e+01 2.500000e+00
      vertex -9.746980e+00 -4.938663e+00 2.500000e+00
      vertex -1.500000e+01 -6.250000e-01 2.500000e+00
    endloop
  endfacet
  facet normal -2.249640e-32 -1.836970e-16 1.000000e+00
    outer loop
      vertex -1.500000e+01 -1.187500e+01 2.500000e+00
      vertex -8.054958e+00 -5.324856e+00 2.500000e+00
      vertex -9.746980e+00 -4.938663e+00 2.500000e+00
    endloop
  endfacet
  facet normal -2.249640e-32 -1.836970e-16 1.000000e+00
    outer loop
      vertex -6.698062e+00 -2.507233e+00 2.500000e+00
      vertex -3.541824e+00 -5.233893e+00 2.500000e+00
      vertex -4.000000e+00 -3.375000e+00 2.500000e+00
    endloop
  endfacet
  facet normal -2.249640e-32 -1.836970e-16 1.000000e+00
    outer loop
      vertex -1.500000e+01 -6.250000e-01 2.500000e+00
      vertex -8.054958e+00 -1.425144e+00 2.500000e+00
      vertex -3.541824e+00 -1.516107e+00 2.500000e+00
    endloop
  endfacet
  facet normal -2.249640e-32 -1.836970e-16 1.000000e+00
    outer loop
      vertex -1.500000e+01 -6.250000e-01 2.500000e+00
      vertex -9.746980e+00 -1.811337e+00 2.500000e+00
      vertex -8.054958e+00 -1.425144e+00 2.500000e+00
    endloop
  endfacet
  facet normal -2.249640e-32 -1.836970e-16 1.000000e+00
    outer loop
      vertex 2.994043e+00 -7.225089e-01 2.500000e+00
      vertex 3.883767e+00 -2.417737e+00 2.500000e+00
      vertex 7.253020e+00 -4.938663e+00 2.500000e+00
    endloop
  endfacet
  facet normal -2.249640e-32 -1.836970e-16 1.000000e+00
    outer loop
      vertex 1.199028e+01 1.963418e+00 2.500000e+00
      vertex 1.061835e+01 4.339681e+00 2.500000e+00
      vertex 8.782339e+00 6.378776e+00 2.500000e+00
    endloop
  endfacet
  facet normal -2.249640e-32 -1.836970e-16 1.000000e+00
    outer loop
      vertex 4.055848e+00 9.107617e+00 2.500000e+00
      vertex 1.199028e+01 1.963418e+00 2.500000e+00
      vertex 6.562500e+00 7.991583e+00 2.500000e+00
    endloop
  endfacet
  facet normal -2.249640e-32 -1.836970e-16 1.000000e+00
    outer loop
      vertex 6.562500e+00 7.991583e+00 2.500000e+00
      vertex 1.199028e+01 1.963418e+00 2.500000e+00
      vertex 8.782339e+00 6.378776e+00 2.500000e+00
    endloop
  endfacet
  facet normal -2.249640e-32 -1.836970e-16 1.000000e+00
    outer loop
      vertex 1.371936e+00 9.678100e+00 2.500000e+00
      vertex 1.199028e+01 1.963418e+00 2.500000e+00
      vertex 4.055848e+00 9.107617e+00 2.500000e+00
    endloop
  endfacet
  facet normal -2.249640e-32 -1.836970e-16 1.000000e+00
    outer loop
      vertex -1.371936e+00 9.678100e+00 2.500000e+00
      vertex 1.199028e+01 1.963418e+00 2.500000e+00
      vertex 1.371936e+00 9.678100e+00 2.500000e+00
    endloop
  endfacet
  facet normal -2.249640e-32 -1.836970e-16 1.000000e+00
    outer loop
      vertex -4.055848e+00 9.107617e+00 2.500000e+00
      vertex 1.199028e+01 1.963418e+00 2.500000e+00
      vertex -1.371936e+00 9.678100e+00 2.500000e+00
    endloop
  endfacet
  facet normal -2.249640e-32 -1.836970e-16 1.000000e+00
    outer loop
      vertex -6.562500e+00 7.991583e+00 2.500000e+00
      vertex 1.199028e+01 1.963418e+00 2.500000e+00
      vertex -4.055848e+00 9.107617e+00 2.500000e+00
    endloop
  endfacet
  facet normal -2.249640e-32 -1.836970e-16 1.000000e+00
    outer loop
      vertex -8.782339e+00 6.378776e+00 2.500000e+00
      vertex 1.199028e+01 1.963418e+00 2.500000e+00
      vertex -6.562500e+00 7.991583e+00 2.500000e+00
    endloop
  endfacet
  facet normal -2.249640e-32 -1.836970e-16 1.000000e+00
    outer loop
      vertex -1.061835e+01 4.339681e+00 2.500000e+00
      vertex 1.199028e+01 1.963418e+00 2.500000e+00
      vertex -8.782339e+00 6.378776e+00 2.500000e+00
    endloop
  endfacet
  facet normal -2.249640e-32 -1.836970e-16 1.000000e+00
    outer loop
      vertex -1.199028e+01 1.963418e+00 2.500000e+00
      vertex 1.199028e+01 1.963418e+00 2.500000e+00
      vertex -1.061835e+01 4.339681e+00 2.500000e+00
    endloop
  endfacet
  facet normal -2.249640e-32 -1.836970e-16 1.000000e+00
    outer loop
      vertex -1.283131e+01 -6.250000e-01 2.500000e+00
      vertex 1.199028e+01 1.963418e+00 2.500000e+00
      vertex -1.199028e+01 1.963418e+00 2.500000e+00
    endloop
  endfacet
  facet normal -2.249640e-32 -1.836970e-16 1.000000e+00
    outer loop
      vertex -4.821470e-01 5.958352e-01 2.500000e+00
      vertex 1.199028e+01 1.963418e+00 2.500000e+00
      vertex -1.283131e+01 -6.250000e-01 2.500000e+00
    endloop
  endfacet
  facet normal -2.249640e-32 -1.836970e-16 1.000000e+00
    outer loop
      vertex -2.752372e+00 -6.250000e-01 2.500000e+00
      vertex -2.272259e+00 -8.306503e-02 2.500000e+00
      vertex -1.283131e+01 -6.250000e-01 2.500000e+00
    endloop
  endfacet
  facet normal -2.249640e-32 -1.836970e-16 1.000000e+00
    outer loop
      vertex -2.272259e+00 -8.306503e-02 2.500000e+00
      vertex -4.821470e-01 5.958352e-01 2.500000e+00
      vertex -1.283131e+01 -6.250000e-01 2.500000e+00
    endloop
  endfacet
  facet normal -2.249640e-32 -1.836970e-16 1.000000e+00
    outer loop
      vertex 1.418420e+00 3.650651e-01 2.500000e+00
      vertex 2.852777e+00 -6.250000e-01 2.500000e+00
      vertex 1.199028e+01 1.963418e+00 2.500000e+00
    endloop
  endfacet
  facet normal -2.249640e-32 -1.836970e-16 1.000000e+00
    outer loop
      vertex 1.283131e+01 -6.250000e-01 2.500000e+00
      vertex 1.199028e+01 1.963418e+00 2.500000e+00
      vertex 2.852777e+00 -6.250000e-01 2.500000e+00
    endloop
  endfacet
  facet normal -2.249640e-32 -1.836970e-16 1.000000e+00
    outer loop
      vertex -4.821470e-01 5.958352e-01 2.500000e+00
      vertex 1.418420e+00 3.650651e-01 2.500000e+00
      vertex 1.199028e+01 1.963418e+00 2.500000e+00
    endloop
  endfacet
  facet normal 1.224647e-16 1.000000e+00 1.836970e-16
    outer loop
      vertex 1.920000e+01 3.125000e+00 1.555000e+01
      vertex 1.920000e+01 3.125000e+00 2.395000e+01
      vertex 2.760000e+01 3.125000e+00 1.555000e+01
    endloop
  endfacet
  facet normal 1.224647e-16 1.000000e+00 1.836970e-16
    outer loop
      vertex 2.760000e+01 3.125000e+00 1.555000e+01
      vertex 1.920000e+01 3.125000e+00 2.395000e+01
      vertex 2.760000e+01 3.125000e+00 2.395000e+01
    endloop
  endfacet
  facet normal 1.224647e-16 1.000000e+00 1.836970e-16
    outer loop
      vertex -2.760000e+01 3.125000e+00 1.555000e+01
      vertex -2.760000e+01 3.125000e+00 2.395000e+01
      vertex -1.920000e+01 3.125000e+00 1.555000e+01
    endloop
  endfacet
  facet normal 1.224647e-16 1.000000e+00 1.836970e-16
    outer loop
      vertex -1.920000e+01 3.125000e+00 1.555000e+01
      vertex -2.760000e+01 3.125000e+00 2.395000e+01
      vertex -1.920000e+01 3.125000e+00 2.395000e+01
    endloop
  endfacet
endsolid Default
