solid OpenSCAD_Model
  facet normal 0.723486 0.683737 0.0952486
    outer loop
      vertex 49.7444 28 9.44114
      vertex 50 28 7.5
      vertex 48.9274 29 8.46877
    endloop
  endfacet
  facet normal 0.68192 0.731427 0
    outer loop
      vertex 48.9274 29 8.46877
      vertex 50 28 7.5
      vertex 48.9274 29 6.53123
    endloop
  endfacet
  facet normal 0.723486 0.683737 -0.0952486
    outer loop
      vertex 48.9274 29 6.53123
      vertex 50 28 7.5
      vertex 49.7444 28 5.55886
    endloop
  endfacet
  facet normal 0.991445 -1.21413e-16 -0.130526
    outer loop
      vertex 49.7444 28 5.55886
      vertex 50 28 7.5
      vertex 50 25.5 7.5
    endloop
  endfacet
  facet normal 0.991445 -1.21413e-16 -0.130526
    outer loop
      vertex 49.7444 25.5 5.55886
      vertex 49.7444 28 5.55886
      vertex 50 25.5 7.5
    endloop
  endfacet
  facet normal 0.991445 -1.21413e-16 0.130526
    outer loop
      vertex 50 25.5 7.5
      vertex 50 28 7.5
      vertex 49.7444 28 9.44114
    endloop
  endfacet
  facet normal 0.991445 -1.21413e-16 0.130526
    outer loop
      vertex 49.7444 25.5 9.44114
      vertex 50 25.5 7.5
      vertex 49.7444 28 9.44114
    endloop
  endfacet
  facet normal 0.92388 -1.13139e-16 0.382683
    outer loop
      vertex 49.7444 25.5 9.44114
      vertex 49.7444 28 9.44114
      vertex 48.9952 28 11.25
    endloop
  endfacet
  facet normal 0.92388 -1.13139e-16 0.382683
    outer loop
      vertex 48.9952 25.5 11.25
      vertex 49.7444 25.5 9.44114
      vertex 48.9952 28 11.25
    endloop
  endfacet
  facet normal 0.67113 0.687244 0.277991
    outer loop
      vertex 48.9952 28 11.25
      vertex 49.7444 28 9.44114
      vertex 48.3563 29 10.3202
    endloop
  endfacet
  facet normal 0.653331 0.729757 0.201526
    outer loop
      vertex 48.3563 29 10.3202
      vertex 49.7444 28 9.44114
      vertex 48.9274 29 8.46877
    endloop
  endfacet
  facet normal 1.22461e-16 1 0
    outer loop
      vertex 48.9274 29 6.53123
      vertex 48.3563 29 4.67976
      vertex 48.9274 29 8.46877
    endloop
  endfacet
  facet normal 1.22461e-16 1 0
    outer loop
      vertex 48.9274 29 8.46877
      vertex 48.3563 29 4.67976
      vertex 47.2648 29 3.07888
    endloop
  endfacet
  facet normal 1.22461e-16 1 0
    outer loop
      vertex 48.9274 29 8.46877
      vertex 47.2648 29 3.07888
      vertex 45.75 29 1.87084
    endloop
  endfacet
  facet normal 1.22461e-16 1 0
    outer loop
      vertex 48.9274 29 8.46877
      vertex 45.75 29 1.87084
      vertex 44.5 29 1
    endloop
  endfacet
  facet normal 1.22461e-16 1 0
    outer loop
      vertex 41 29 5
      vertex 44.5 29 1
      vertex 28 29 1
    endloop
  endfacet
  facet normal 1.22461e-16 1 0
    outer loop
      vertex 39.2322 29 9.26777
      vertex 28 29 1
      vertex 28 29 14
    endloop
  endfacet
  facet normal 1.22461e-16 1 0
    outer loop
      vertex 48.9274 29 8.46877
      vertex 28 29 14
      vertex 44.5 29 14
    endloop
  endfacet
  facet normal 1.22461e-16 1 0
    outer loop
      vertex 48.9274 29 8.46877
      vertex 44.5 29 14
      vertex 45.75 29 13.1292
    endloop
  endfacet
  facet normal 1.22461e-16 1 0
    outer loop
      vertex 48.9274 29 8.46877
      vertex 45.75 29 13.1292
      vertex 47.2648 29 11.9211
    endloop
  endfacet
  facet normal 1.22461e-16 1 0
    outer loop
      vertex 48.9274 29 8.46877
      vertex 47.2648 29 11.9211
      vertex 48.3563 29 10.3202
    endloop
  endfacet
  facet normal 1.22461e-16 1 0
    outer loop
      vertex 48.9274 29 8.46877
      vertex 44.5 29 1
      vertex 42.7678 29 5.73223
    endloop
  endfacet
  facet normal 1.22461e-16 1 0
    outer loop
      vertex 39.2322 29 9.26777
      vertex 28 29 14
      vertex 41 29 10
    endloop
  endfacet
  facet normal 1.22461e-16 1 0
    outer loop
      vertex 48.9274 29 8.46877
      vertex 43.5 29 7.5
      vertex 42.7678 29 9.26777
    endloop
  endfacet
  facet normal 1.22461e-16 1 0
    outer loop
      vertex 48.9274 29 8.46877
      vertex 42.7678 29 9.26777
      vertex 41 29 10
    endloop
  endfacet
  facet normal 1.22461e-16 1 0
    outer loop
      vertex 48.9274 29 8.46877
      vertex 41 29 10
      vertex 28 29 14
    endloop
  endfacet
  facet normal 1.22461e-16 1 0
    outer loop
      vertex 38.5 29 7.5
      vertex 28 29 1
      vertex 39.2322 29 9.26777
    endloop
  endfacet
  facet normal 1.22461e-16 1 0
    outer loop
      vertex 41 29 5
      vertex 28 29 1
      vertex 39.2322 29 5.73223
    endloop
  endfacet
  facet normal 1.22461e-16 1 0
    outer loop
      vertex 39.2322 29 5.73223
      vertex 28 29 1
      vertex 38.5 29 7.5
    endloop
  endfacet
  facet normal 1.22461e-16 1 0
    outer loop
      vertex 42.7678 29 5.73223
      vertex 44.5 29 1
      vertex 41 29 5
    endloop
  endfacet
  facet normal 1.22461e-16 1 0
    outer loop
      vertex 43.5 29 7.5
      vertex 48.9274 29 8.46877
      vertex 42.7678 29 5.73223
    endloop
  endfacet
  facet normal 0.653331 0.729757 -0.201526
    outer loop
      vertex 48.9274 29 6.53123
      vertex 49.7444 28 5.55886
      vertex 48.3563 29 4.67976
    endloop
  endfacet
  facet normal 0.67113 0.687244 -0.277991
    outer loop
      vertex 48.3563 29 4.67976
      vertex 49.7444 28 5.55886
      vertex 48.9952 28 3.75
    endloop
  endfacet
  facet normal 0.92388 -1.13139e-16 -0.382683
    outer loop
      vertex 48.9952 28 3.75
      vertex 49.7444 28 5.55886
      vertex 49.7444 25.5 5.55886
    endloop
  endfacet
  facet normal 0.92388 -1.13139e-16 -0.382683
    outer loop
      vertex 48.9952 25.5 3.75
      vertex 48.9952 28 3.75
      vertex 49.7444 25.5 5.55886
    endloop
  endfacet
  facet normal -1.22461e-16 -1 0
    outer loop
      vertex 49.7444 25.5 9.44114
      vertex 48.9952 25.5 11.25
      vertex 47.8033 25.5 12.8033
    endloop
  endfacet
  facet normal -1.22461e-16 -1 0
    outer loop
      vertex 44.5 25.5 15
      vertex 49.7444 25.5 9.44114
      vertex 46.25 25.5 13.9952
    endloop
  endfacet
  facet normal -1.22461e-16 -1 0
    outer loop
      vertex 46.25 25.5 13.9952
      vertex 49.7444 25.5 9.44114
      vertex 47.8033 25.5 12.8033
    endloop
  endfacet
  facet normal -1.22461e-16 -1 0
    outer loop
      vertex 35.4779 25.5 15
      vertex 49.7444 25.5 9.44114
      vertex 44.5 25.5 15
    endloop
  endfacet
  facet normal -1.22461e-16 -1 0
    outer loop
      vertex 35.036 25.5 14.679
      vertex 49.7444 25.5 9.44114
      vertex 35.4779 25.5 15
    endloop
  endfacet
  facet normal -1.22461e-16 -1 0
    outer loop
      vertex 33.6847 25.5 13.1782
      vertex 49.7444 25.5 9.44114
      vertex 35.036 25.5 14.679
    endloop
  endfacet
  facet normal -1.22461e-16 -1 0
    outer loop
      vertex 32.6749 25.5 11.4292
      vertex 49.7444 25.5 9.44114
      vertex 33.6847 25.5 13.1782
    endloop
  endfacet
  facet normal -1.22461e-16 -1 0
    outer loop
      vertex 41 25.5 10
      vertex 49.7444 25.5 9.44114
      vertex 32.6749 25.5 11.4292
    endloop
  endfacet
  facet normal -1.22461e-16 -1 0
    outer loop
      vertex 41 25.5 10
      vertex 42.7678 25.5 9.26777
      vertex 49.7444 25.5 9.44114
    endloop
  endfacet
  facet normal -1.22461e-16 -1 0
    outer loop
      vertex 39.2322 25.5 5.73223
      vertex 38.5 25.5 7.5
      vertex 32.0508 25.5 5.49152
    endloop
  endfacet
  facet normal -1.22461e-16 -1 0
    outer loop
      vertex 35.4779 25.5 0
      vertex 49.7444 25.5 9.44114
      vertex 35.036 25.5 0.321032
    endloop
  endfacet
  facet normal -1.22461e-16 -1 0
    outer loop
      vertex 44.5 25.5 0
      vertex 49.7444 25.5 9.44114
      vertex 35.4779 25.5 0
    endloop
  endfacet
  facet normal -1.22461e-16 -1 0
    outer loop
      vertex 46.25 25.5 1.00481
      vertex 49.7444 25.5 9.44114
      vertex 44.5 25.5 0
    endloop
  endfacet
  facet normal -1.22461e-16 -1 0
    outer loop
      vertex 47.8033 25.5 2.1967
      vertex 49.7444 25.5 9.44114
      vertex 46.25 25.5 1.00481
    endloop
  endfacet
  facet normal -1.22461e-16 -1 0
    outer loop
      vertex 48.9952 25.5 3.75
      vertex 49.7444 25.5 9.44114
      vertex 47.8033 25.5 2.1967
    endloop
  endfacet
  facet normal -1.22461e-16 -1 0
    outer loop
      vertex 49.7444 25.5 5.55886
      vertex 49.7444 25.5 9.44114
      vertex 48.9952 25.5 3.75
    endloop
  endfacet
  facet normal -1.22461e-16 -1 0
    outer loop
      vertex 50 25.5 7.5
      vertex 49.7444 25.5 9.44114
      vertex 49.7444 25.5 5.55886
    endloop
  endfacet
  facet normal -1.22461e-16 -1 0
    outer loop
      vertex 35.036 25.5 0.321032
      vertex 42.7678 25.5 5.73223
      vertex 33.6847 25.5 1.82184
    endloop
  endfacet
  facet normal -1.22461e-16 -1 0
    outer loop
      vertex 35.036 25.5 0.321032
      vertex 49.7444 25.5 9.44114
      vertex 42.7678 25.5 5.73223
    endloop
  endfacet
  facet normal -1.22461e-16 -1 0
    outer loop
      vertex 42.7678 25.5 5.73223
      vertex 41 25.5 5
      vertex 33.6847 25.5 1.82184
    endloop
  endfacet
  facet normal -1.22461e-16 -1 0
    outer loop
      vertex 33.6847 25.5 1.82184
      vertex 39.2322 25.5 5.73223
      vertex 32.6749 25.5 3.57082
    endloop
  endfacet
  facet normal -1.22461e-16 -1 0
    outer loop
      vertex 39.2322 25.5 5.73223
      vertex 32.0508 25.5 5.49152
      vertex 32.6749 25.5 3.57082
    endloop
  endfacet
  facet normal -1.22461e-16 -1 0
    outer loop
      vertex 32.0508 25.5 5.49152
      vertex 38.5 25.5 7.5
      vertex 31.8397 25.5 7.5
    endloop
  endfacet
  facet normal -1.22461e-16 -1 0
    outer loop
      vertex 31.8397 25.5 7.5
      vertex 39.2322 25.5 9.26777
      vertex 32.0508 25.5 9.50848
    endloop
  endfacet
  facet normal -1.22461e-16 -1 0
    outer loop
      vertex 32.0508 25.5 9.50848
      vertex 41 25.5 10
      vertex 32.6749 25.5 11.4292
    endloop
  endfacet
  facet normal -1.22461e-16 -1 0
    outer loop
      vertex 42.7678 25.5 9.26777
      vertex 43.5 25.5 7.5
      vertex 49.7444 25.5 9.44114
    endloop
  endfacet
  facet normal -1.22461e-16 -1 0
    outer loop
      vertex 39.2322 25.5 9.26777
      vertex 41 25.5 10
      vertex 32.0508 25.5 9.50848
    endloop
  endfacet
  facet normal -1.22461e-16 -1 0
    outer loop
      vertex 38.5 25.5 7.5
      vertex 39.2322 25.5 9.26777
      vertex 31.8397 25.5 7.5
    endloop
  endfacet
  facet normal -1.22461e-16 -1 0
    outer loop
      vertex 41 25.5 5
      vertex 39.2322 25.5 5.73223
      vertex 33.6847 25.5 1.82184
    endloop
  endfacet
  facet normal -1.22461e-16 -1 0
    outer loop
      vertex 43.5 25.5 7.5
      vertex 42.7678 25.5 5.73223
      vertex 49.7444 25.5 9.44114
    endloop
  endfacet
  facet normal 0.793353 -9.71545e-17 0.608762
    outer loop
      vertex 48.9952 25.5 11.25
      vertex 48.9952 28 11.25
      vertex 47.8033 28 12.8033
    endloop
  endfacet
  facet normal 0.793353 -9.71545e-17 0.608762
    outer loop
      vertex 47.8033 25.5 12.8033
      vertex 48.9952 25.5 11.25
      vertex 47.8033 28 12.8033
    endloop
  endfacet
  facet normal 0.571107 0.694114 0.438226
    outer loop
      vertex 47.8033 28 12.8033
      vertex 48.9952 28 11.25
      vertex 47.2648 29 11.9211
    endloop
  endfacet
  facet normal 0.569357 0.724671 0.388181
    outer loop
      vertex 47.2648 29 11.9211
      vertex 48.9952 28 11.25
      vertex 48.3563 29 10.3202
    endloop
  endfacet
  facet normal 0.435302 0.715932 0.545851
    outer loop
      vertex 45.75 29 13.1292
      vertex 47.8033 28 12.8033
      vertex 47.2648 29 11.9211
    endloop
  endfacet
  facet normal 0.404929 0.70583 0.581237
    outer loop
      vertex 44.5 29 14
      vertex 46.25 28 13.9952
      vertex 45.75 29 13.1292
    endloop
  endfacet
  facet normal 0.432305 0.704063 0.56339
    outer loop
      vertex 46.25 28 13.9952
      vertex 47.8033 28 12.8033
      vertex 45.75 29 13.1292
    endloop
  endfacet
  facet normal 0.376182 0.655167 0.655167
    outer loop
      vertex 44.5 28 15
      vertex 46.25 28 13.9952
      vertex 44.5 29 14
    endloop
  endfacet
  facet normal 8.65927e-17 0.707107 0.707107
    outer loop
      vertex 44.5 28 15
      vertex 44.5 29 14
      vertex 28 29 14
    endloop
  endfacet
  facet normal 8.65927e-17 0.707107 0.707107
    outer loop
      vertex 28 28 15
      vertex 44.5 28 15
      vertex 28 29 14
    endloop
  endfacet
  facet normal -0.0880451 0.704361 0.704361
    outer loop
      vertex 28 29 14
      vertex 16 27.5 14
      vertex 28 28 15
    endloop
  endfacet
  facet normal -0.0880451 0.704361 0.704361
    outer loop
      vertex 28 28 15
      vertex 16 27.5 14
      vertex 16 26.5 15
    endloop
  endfacet
  facet normal -0.124035 0.992278 0
    outer loop
      vertex 28 29 1
      vertex 16 27.5 1
      vertex 28 29 14
    endloop
  endfacet
  facet normal -0.124035 0.992278 0
    outer loop
      vertex 28 29 14
      vertex 16 27.5 1
      vertex 16 27.5 14
    endloop
  endfacet
  facet normal -0.0880451 0.704361 -0.704361
    outer loop
      vertex 28 29 1
      vertex 28 28 0
      vertex 16 27.5 1
    endloop
  endfacet
  facet normal -0.0880451 0.704361 -0.704361
    outer loop
      vertex 16 27.5 1
      vertex 28 28 0
      vertex 16 26.5 0
    endloop
  endfacet
  facet normal 8.65927e-17 0.707107 -0.707107
    outer loop
      vertex 44.5 29 1
      vertex 44.5 28 0
      vertex 28 29 1
    endloop
  endfacet
  facet normal 8.65927e-17 0.707107 -0.707107
    outer loop
      vertex 28 29 1
      vertex 44.5 28 0
      vertex 28 28 0
    endloop
  endfacet
  facet normal 0.376182 0.655167 -0.655167
    outer loop
      vertex 44.5 29 1
      vertex 46.25 28 1.00481
      vertex 44.5 28 0
    endloop
  endfacet
  facet normal 0.404929 0.70583 -0.581237
    outer loop
      vertex 45.75 29 1.87084
      vertex 46.25 28 1.00481
      vertex 44.5 29 1
    endloop
  endfacet
  facet normal 0.435302 0.715932 -0.545851
    outer loop
      vertex 47.2648 29 3.07888
      vertex 47.8033 28 2.1967
      vertex 45.75 29 1.87084
    endloop
  endfacet
  facet normal 0.432305 0.704063 -0.56339
    outer loop
      vertex 45.75 29 1.87084
      vertex 47.8033 28 2.1967
      vertex 46.25 28 1.00481
    endloop
  endfacet
  facet normal 0.571107 0.694114 -0.438226
    outer loop
      vertex 47.2648 29 3.07888
      vertex 48.9952 28 3.75
      vertex 47.8033 28 2.1967
    endloop
  endfacet
  facet normal 0.569357 0.724671 -0.388181
    outer loop
      vertex 48.3563 29 4.67976
      vertex 48.9952 28 3.75
      vertex 47.2648 29 3.07888
    endloop
  endfacet
  facet normal -0.382683 2.52006e-16 0.92388
    outer loop
      vertex 41 29 5
      vertex 41 25.5 5
      vertex 42.7678 25.5 5.73223
    endloop
  endfacet
  facet normal -0.382683 2.52006e-16 0.92388
    outer loop
      vertex 42.7678 29 5.73223
      vertex 41 29 5
      vertex 42.7678 25.5 5.73223
    endloop
  endfacet
  facet normal -0.92388 1.98112e-16 0.382683
    outer loop
      vertex 42.7678 25.5 5.73223
      vertex 43.5 25.5 7.5
      vertex 42.7678 29 5.73223
    endloop
  endfacet
  facet normal -0.92388 1.98112e-16 0.382683
    outer loop
      vertex 42.7678 29 5.73223
      vertex 43.5 25.5 7.5
      vertex 43.5 29 7.5
    endloop
  endfacet
  facet normal 0.382683 1.58279e-16 0.92388
    outer loop
      vertex 39.2322 29 5.73223
      vertex 39.2322 25.5 5.73223
      vertex 41 25.5 5
    endloop
  endfacet
  facet normal 0.382683 1.58279e-16 0.92388
    outer loop
      vertex 41 29 5
      vertex 39.2322 29 5.73223
      vertex 41 25.5 5
    endloop
  endfacet
  facet normal 0.92388 -2.81661e-17 0.382683
    outer loop
      vertex 38.5 29 7.5
      vertex 38.5 25.5 7.5
      vertex 39.2322 25.5 5.73223
    endloop
  endfacet
  facet normal 0.92388 -2.81661e-17 0.382683
    outer loop
      vertex 39.2322 29 5.73223
      vertex 38.5 29 7.5
      vertex 39.2322 25.5 5.73223
    endloop
  endfacet
  facet normal 0.92388 -1.98112e-16 -0.382683
    outer loop
      vertex 39.2322 25.5 9.26777
      vertex 38.5 25.5 7.5
      vertex 38.5 29 7.5
    endloop
  endfacet
  facet normal 0.92388 -1.98112e-16 -0.382683
    outer loop
      vertex 39.2322 29 9.26777
      vertex 39.2322 25.5 9.26777
      vertex 38.5 29 7.5
    endloop
  endfacet
  facet normal 0.382683 -2.52006e-16 -0.92388
    outer loop
      vertex 39.2322 25.5 9.26777
      vertex 39.2322 29 9.26777
      vertex 41 25.5 10
    endloop
  endfacet
  facet normal 0.382683 -2.52006e-16 -0.92388
    outer loop
      vertex 41 25.5 10
      vertex 39.2322 29 9.26777
      vertex 41 29 10
    endloop
  endfacet
  facet normal -0.382683 -1.58279e-16 -0.92388
    outer loop
      vertex 41 25.5 10
      vertex 41 29 10
      vertex 42.7678 25.5 9.26777
    endloop
  endfacet
  facet normal -0.382683 -1.58279e-16 -0.92388
    outer loop
      vertex 42.7678 25.5 9.26777
      vertex 41 29 10
      vertex 42.7678 29 9.26777
    endloop
  endfacet
  facet normal -0.92388 2.81661e-17 -0.382683
    outer loop
      vertex 42.7678 25.5 9.26777
      vertex 42.7678 29 9.26777
      vertex 43.5 25.5 7.5
    endloop
  endfacet
  facet normal -0.92388 2.81661e-17 -0.382683
    outer loop
      vertex 43.5 25.5 7.5
      vertex 42.7678 29 9.26777
      vertex 43.5 29 7.5
    endloop
  endfacet
  facet normal 0.793353 -9.71545e-17 -0.608762
    outer loop
      vertex 47.8033 28 2.1967
      vertex 48.9952 28 3.75
      vertex 48.9952 25.5 3.75
    endloop
  endfacet
  facet normal 0.793353 -9.71545e-17 -0.608762
    outer loop
      vertex 47.8033 25.5 2.1967
      vertex 47.8033 28 2.1967
      vertex 48.9952 25.5 3.75
    endloop
  endfacet
  facet normal 0.608762 -7.45493e-17 -0.793353
    outer loop
      vertex 47.8033 28 2.1967
      vertex 47.8033 25.5 2.1967
      vertex 46.25 28 1.00481
    endloop
  endfacet
  facet normal 0.608762 -7.45493e-17 -0.793353
    outer loop
      vertex 46.25 28 1.00481
      vertex 47.8033 25.5 2.1967
      vertex 46.25 25.5 1.00481
    endloop
  endfacet
  facet normal 0.497934 -6.09774e-17 -0.867215
    outer loop
      vertex 46.25 28 1.00481
      vertex 46.25 25.5 1.00481
      vertex 44.5 28 0
    endloop
  endfacet
  facet normal 0.497934 -6.09774e-17 -0.867215
    outer loop
      vertex 44.5 28 0
      vertex 46.25 25.5 1.00481
      vertex 44.5 25.5 0
    endloop
  endfacet
  facet normal 0 0 -1
    outer loop
      vertex 44.5 28 0
      vertex 44.5 25.5 0
      vertex 28 28 0
    endloop
  endfacet
  facet normal 0 0 -1
    outer loop
      vertex 28 28 0
      vertex 44.5 25.5 0
      vertex 35.4779 25.5 0
    endloop
  endfacet
  facet normal 0 0 -1
    outer loop
      vertex 28 28 0
      vertex 35.4779 25.5 0
      vertex 19.36 23.02 0
    endloop
  endfacet
  facet normal 0 0 -1
    outer loop
      vertex 19.36 23.02 0
      vertex 3.35 17 0
      vertex 28 28 0
    endloop
  endfacet
  facet normal 0 0 -1
    outer loop
      vertex 18.36 17.98 0
      vertex 16 13.5 0
      vertex 18.36 22.02 0
    endloop
  endfacet
  facet normal 0 0 -1
    outer loop
      vertex 35.4779 14.5 0
      vertex 44.5 14.5 0
      vertex 44.5 12 0
    endloop
  endfacet
  facet normal 0 0 -1
    outer loop
      vertex 35.4779 14.5 0
      vertex 44.5 12 0
      vertex 19.36 16.98 0
    endloop
  endfacet
  facet normal 0 0 -1
    outer loop
      vertex 19.36 16.98 0
      vertex 44.5 12 0
      vertex 28 12 0
    endloop
  endfacet
  facet normal 0 0 -1
    outer loop
      vertex 19.36 16.98 0
      vertex 28 12 0
      vertex 16 13.5 0
    endloop
  endfacet
  facet normal 0 0 -1
    outer loop
      vertex 19.36 16.98 0
      vertex 16 13.5 0
      vertex 18.36 17.98 0
    endloop
  endfacet
  facet normal 0 0 -1
    outer loop
      vertex 18.36 22.02 0
      vertex 16 13.5 0
      vertex 16 17 0
    endloop
  endfacet
  facet normal 0 0 -1
    outer loop
      vertex 18.36 22.02 0
      vertex 16 17 0
      vertex 3.35 17 0
    endloop
  endfacet
  facet normal 0 0 -1
    outer loop
      vertex 18.36 22.02 0
      vertex 3.35 17 0
      vertex 19.36 23.02 0
    endloop
  endfacet
  facet normal 0 0 -1
    outer loop
      vertex 16 23 0
      vertex 3.35 17 0
      vertex 3.35 23 0
    endloop
  endfacet
  facet normal 0 0 -1
    outer loop
      vertex 28 28 0
      vertex 3.35 17 0
      vertex 16 23 0
    endloop
  endfacet
  facet normal 0 0 -1
    outer loop
      vertex 16 26.5 0
      vertex 28 28 0
      vertex 16 23 0
    endloop
  endfacet
  facet normal 0.148851 -0.967403 0.204876
    outer loop
      vertex 35.036 25.5 0.321032
      vertex 19.36 23.02 0
      vertex 35.4779 25.5 0
    endloop
  endfacet
  facet normal 0.152053 -0.978844 0.136909
    outer loop
      vertex 33.6847 25.5 1.82184
      vertex 19.36 23.02 0
      vertex 35.036 25.5 0.321032
    endloop
  endfacet
  facet normal 0.158558 -0.983097 0.0915437
    outer loop
      vertex 32.6749 25.5 3.57082
      vertex 19.36 23.02 0
      vertex 33.6847 25.5 1.82184
    endloop
  endfacet
  facet normal 0.168614 -0.984158 0.054786
    outer loop
      vertex 32.0508 25.5 5.49152
      vertex 19.36 23.02 0
      vertex 32.6749 25.5 3.57082
    endloop
  endfacet
  facet normal 0.183699 -0.982793 0.0193076
    outer loop
      vertex 31.8397 25.5 7.5
      vertex 19.36 23.02 0
      vertex 32.0508 25.5 5.49152
    endloop
  endfacet
  facet normal 0.194911 -0.980821 0
    outer loop
      vertex 19.36 23.02 15
      vertex 19.36 23.02 0
      vertex 31.8397 25.5 7.5
    endloop
  endfacet
  facet normal 0.183699 -0.982793 -0.0193076
    outer loop
      vertex 19.36 23.02 15
      vertex 31.8397 25.5 7.5
      vertex 32.0508 25.5 9.50848
    endloop
  endfacet
  facet normal 0.168614 -0.984158 -0.054786
    outer loop
      vertex 19.36 23.02 15
      vertex 32.0508 25.5 9.50848
      vertex 32.6749 25.5 11.4292
    endloop
  endfacet
  facet normal 0.158558 -0.983097 -0.0915437
    outer loop
      vertex 19.36 23.02 15
      vertex 32.6749 25.5 11.4292
      vertex 33.6847 25.5 13.1782
    endloop
  endfacet
  facet normal 0.152053 -0.978844 -0.136909
    outer loop
      vertex 19.36 23.02 15
      vertex 33.6847 25.5 13.1782
      vertex 35.036 25.5 14.679
    endloop
  endfacet
  facet normal 0.148851 -0.967403 -0.204876
    outer loop
      vertex 19.36 23.02 15
      vertex 35.036 25.5 14.679
      vertex 35.4779 25.5 15
    endloop
  endfacet
  facet normal 0 0 1
    outer loop
      vertex 44.5 25.5 15
      vertex 44.5 28 15
      vertex 28 28 15
    endloop
  endfacet
  facet normal 0 0 1
    outer loop
      vertex 35.4779 25.5 15
      vertex 44.5 25.5 15
      vertex 16 26.5 15
    endloop
  endfacet
  facet normal 0 0 1
    outer loop
      vertex 16 26.5 15
      vertex 44.5 25.5 15
      vertex 28 28 15
    endloop
  endfacet
  facet normal 0 0 1
    outer loop
      vertex 3.35 17 15
      vertex 16 23 15
      vertex 3.35 23 15
    endloop
  endfacet
  facet normal 0 0 1
    outer loop
      vertex 19.36 23.02 15
      vertex 35.4779 25.5 15
      vertex 16 23 15
    endloop
  endfacet
  facet normal 0 0 1
    outer loop
      vertex 18.36 17.98 15
      vertex 18.36 22.02 15
      vertex 3.35 17 15
    endloop
  endfacet
  facet normal 0 0 1
    outer loop
      vertex 19.36 16.98 15
      vertex 18.36 17.98 15
      vertex 16 17 15
    endloop
  endfacet
  facet normal 0 0 1
    outer loop
      vertex 44.5 12 15
      vertex 44.5 14.5 15
      vertex 28 12 15
    endloop
  endfacet
  facet normal 0 0 1
    outer loop
      vertex 44.5 14.5 15
      vertex 35.4779 14.5 15
      vertex 28 12 15
    endloop
  endfacet
  facet normal 0 0 1
    outer loop
      vertex 16 13.5 15
      vertex 19.36 16.98 15
      vertex 16 17 15
    endloop
  endfacet
  facet normal 0 0 1
    outer loop
      vertex 16 17 15
      vertex 18.36 17.98 15
      vertex 3.35 17 15
    endloop
  endfacet
  facet normal 0 0 1
    outer loop
      vertex 3.35 17 15
      vertex 18.36 22.02 15
      vertex 16 23 15
    endloop
  endfacet
  facet normal 0 0 1
    outer loop
      vertex 18.36 22.02 15
      vertex 19.36 23.02 15
      vertex 16 23 15
    endloop
  endfacet
  facet normal 0 0 1
    outer loop
      vertex 16 23 15
      vertex 35.4779 25.5 15
      vertex 16 26.5 15
    endloop
  endfacet
  facet normal 0 0 1
    outer loop
      vertex 35.4779 14.5 15
      vertex 16 13.5 15
      vertex 28 12 15
    endloop
  endfacet
  facet normal 0 0 1
    outer loop
      vertex 35.4779 14.5 15
      vertex 19.36 16.98 15
      vertex 16 13.5 15
    endloop
  endfacet
  facet normal 0.497934 -6.09774e-17 0.867215
    outer loop
      vertex 46.25 25.5 13.9952
      vertex 46.25 28 13.9952
      vertex 44.5 28 15
    endloop
  endfacet
  facet normal 0.497934 -6.09774e-17 0.867215
    outer loop
      vertex 44.5 25.5 15
      vertex 46.25 25.5 13.9952
      vertex 44.5 28 15
    endloop
  endfacet
  facet normal 0.608762 -7.45493e-17 0.793353
    outer loop
      vertex 47.8033 25.5 12.8033
      vertex 47.8033 28 12.8033
      vertex 46.25 28 13.9952
    endloop
  endfacet
  facet normal 0.608762 -7.45493e-17 0.793353
    outer loop
      vertex 46.25 25.5 13.9952
      vertex 47.8033 25.5 12.8033
      vertex 46.25 28 13.9952
    endloop
  endfacet
  facet normal -0.707107 8.65927e-17 0.707107
    outer loop
      vertex 16 23 15
      vertex 16 26.5 15
      vertex 15 26.5 14
    endloop
  endfacet
  facet normal -0.707107 8.65927e-17 0.707107
    outer loop
      vertex 15 24 14
      vertex 16 23 15
      vertex 15 26.5 14
    endloop
  endfacet
  facet normal -0.57735 0.57735 0.57735
    outer loop
      vertex 16 26.5 15
      vertex 16 27.5 14
      vertex 15 26.5 14
    endloop
  endfacet
  facet normal -0.707107 0.707107 0
    outer loop
      vertex 16 27.5 1
      vertex 15 26.5 1
      vertex 16 27.5 14
    endloop
  endfacet
  facet normal -0.707107 0.707107 0
    outer loop
      vertex 16 27.5 14
      vertex 15 26.5 1
      vertex 15 26.5 14
    endloop
  endfacet
  facet normal -0.57735 0.57735 -0.57735
    outer loop
      vertex 15 26.5 1
      vertex 16 27.5 1
      vertex 16 26.5 0
    endloop
  endfacet
  facet normal -0.707107 8.65927e-17 -0.707107
    outer loop
      vertex 16 26.5 0
      vertex 16 23 0
      vertex 15 26.5 1
    endloop
  endfacet
  facet normal -0.707107 8.65927e-17 -0.707107
    outer loop
      vertex 15 26.5 1
      vertex 16 23 0
      vertex 15 24 1
    endloop
  endfacet
  facet normal 8.65927e-17 0.707107 -0.707107
    outer loop
      vertex 16 23 0
      vertex 3.35 23 0
      vertex 15 24 1
    endloop
  endfacet
  facet normal 8.65927e-17 0.707107 -0.707107
    outer loop
      vertex 15 24 1
      vertex 3.35 23 0
      vertex 3.35 24 1
    endloop
  endfacet
  facet normal -0.57735 0.57735 -0.57735
    outer loop
      vertex 2.35 23 1
      vertex 3.35 24 1
      vertex 3.35 23 0
    endloop
  endfacet
  facet normal -0.707107 8.65927e-17 -0.707107
    outer loop
      vertex 3.35 23 0
      vertex 3.35 17 0
      vertex 2.35 23 1
    endloop
  endfacet
  facet normal -0.707107 8.65927e-17 -0.707107
    outer loop
      vertex 2.35 23 1
      vertex 3.35 17 0
      vertex 2.35 17 1
    endloop
  endfacet
  facet normal -0.57735 -0.57735 -0.57735
    outer loop
      vertex 2.35 17 1
      vertex 3.35 17 0
      vertex 3.35 16 1
    endloop
  endfacet
  facet normal -8.65927e-17 -0.707107 -0.707107
    outer loop
      vertex 16 17 0
      vertex 15 16 1
      vertex 3.35 17 0
    endloop
  endfacet
  facet normal -8.65927e-17 -0.707107 -0.707107
    outer loop
      vertex 3.35 17 0
      vertex 15 16 1
      vertex 3.35 16 1
    endloop
  endfacet
  facet normal -0.707107 8.65927e-17 -0.707107
    outer loop
      vertex 16 17 0
      vertex 16 13.5 0
      vertex 15 16 1
    endloop
  endfacet
  facet normal -0.707107 8.65927e-17 -0.707107
    outer loop
      vertex 15 16 1
      vertex 16 13.5 0
      vertex 15 13.5 1
    endloop
  endfacet
  facet normal -0.0880451 -0.704361 -0.704361
    outer loop
      vertex 28 12 0
      vertex 28 11 1
      vertex 16 13.5 0
    endloop
  endfacet
  facet normal -0.0880451 -0.704361 -0.704361
    outer loop
      vertex 16 13.5 0
      vertex 28 11 1
      vertex 16 12.5 1
    endloop
  endfacet
  facet normal -0.57735 -0.57735 -0.57735
    outer loop
      vertex 15 13.5 1
      vertex 16 13.5 0
      vertex 16 12.5 1
    endloop
  endfacet
  facet normal -8.65927e-17 -0.707107 -0.707107
    outer loop
      vertex 44.5 12 0
      vertex 44.5 11 1
      vertex 28 12 0
    endloop
  endfacet
  facet normal -8.65927e-17 -0.707107 -0.707107
    outer loop
      vertex 28 12 0
      vertex 44.5 11 1
      vertex 28 11 1
    endloop
  endfacet
  facet normal 0.497934 -6.09774e-17 -0.867215
    outer loop
      vertex 46.25 14.5 1.00481
      vertex 46.25 12 1.00481
      vertex 44.5 14.5 0
    endloop
  endfacet
  facet normal 0.497934 -6.09774e-17 -0.867215
    outer loop
      vertex 44.5 14.5 0
      vertex 46.25 12 1.00481
      vertex 44.5 12 0
    endloop
  endfacet
  facet normal 0.376182 -0.655167 -0.655167
    outer loop
      vertex 44.5 12 0
      vertex 46.25 12 1.00481
      vertex 44.5 11 1
    endloop
  endfacet
  facet normal 1.22461e-16 1 0
    outer loop
      vertex 48.9952 14.5 3.75
      vertex 47.8033 14.5 2.1967
      vertex 49.7444 14.5 5.55886
    endloop
  endfacet
  facet normal 1.22461e-16 1 0
    outer loop
      vertex 49.7444 14.5 5.55886
      vertex 47.8033 14.5 2.1967
      vertex 46.25 14.5 1.00481
    endloop
  endfacet
  facet normal 1.22461e-16 1 0
    outer loop
      vertex 49.7444 14.5 5.55886
      vertex 46.25 14.5 1.00481
      vertex 44.5 14.5 0
    endloop
  endfacet
  facet normal 1.22461e-16 1 0
    outer loop
      vertex 49.7444 14.5 5.55886
      vertex 44.5 14.5 0
      vertex 35.4779 14.5 0
    endloop
  endfacet
  facet normal 1.22461e-16 1 0
    outer loop
      vertex 49.7444 14.5 5.55886
      vertex 35.4779 14.5 0
      vertex 35.036 14.5 0.321032
    endloop
  endfacet
  facet normal 1.22461e-16 1 0
    outer loop
      vertex 49.7444 14.5 5.55886
      vertex 35.036 14.5 0.321032
      vertex 33.6847 14.5 1.82184
    endloop
  endfacet
  facet normal 1.22461e-16 1 0
    outer loop
      vertex 49.7444 14.5 5.55886
      vertex 33.6847 14.5 1.82184
      vertex 32.6749 14.5 3.57082
    endloop
  endfacet
  facet normal 1.22461e-16 1 0
    outer loop
      vertex 41 14.5 5
      vertex 32.6749 14.5 3.57082
      vertex 32.0508 14.5 5.49152
    endloop
  endfacet
  facet normal 1.22461e-16 1 0
    outer loop
      vertex 39.2322 14.5 5.73223
      vertex 32.0508 14.5 5.49152
      vertex 31.8397 14.5 7.5
    endloop
  endfacet
  facet normal 1.22461e-16 1 0
    outer loop
      vertex 38.5 14.5 7.5
      vertex 31.8397 14.5 7.5
      vertex 32.0508 14.5 9.50848
    endloop
  endfacet
  facet normal 1.22461e-16 1 0
    outer loop
      vertex 39.2322 14.5 9.26777
      vertex 32.6749 14.5 11.4292
      vertex 33.6847 14.5 13.1782
    endloop
  endfacet
  facet normal 1.22461e-16 1 0
    outer loop
      vertex 42.7678 14.5 9.26777
      vertex 33.6847 14.5 13.1782
      vertex 35.036 14.5 14.679
    endloop
  endfacet
  facet normal 1.22461e-16 1 0
    outer loop
      vertex 49.7444 14.5 5.55886
      vertex 35.036 14.5 14.679
      vertex 35.4779 14.5 15
    endloop
  endfacet
  facet normal 1.22461e-16 1 0
    outer loop
      vertex 49.7444 14.5 5.55886
      vertex 35.4779 14.5 15
      vertex 44.5 14.5 15
    endloop
  endfacet
  facet normal 1.22461e-16 1 0
    outer loop
      vertex 49.7444 14.5 5.55886
      vertex 44.5 14.5 15
      vertex 46.25 14.5 13.9952
    endloop
  endfacet
  facet normal 1.22461e-16 1 0
    outer loop
      vertex 49.7444 14.5 5.55886
      vertex 46.25 14.5 13.9952
      vertex 47.8033 14.5 12.8033
    endloop
  endfacet
  facet normal 1.22461e-16 1 0
    outer loop
      vertex 49.7444 14.5 5.55886
      vertex 47.8033 14.5 12.8033
      vertex 48.9952 14.5 11.25
    endloop
  endfacet
  facet normal 1.22461e-16 1 0
    outer loop
      vertex 49.7444 14.5 5.55886
      vertex 48.9952 14.5 11.25
      vertex 49.7444 14.5 9.44114
    endloop
  endfacet
  facet normal 1.22461e-16 1 0
    outer loop
      vertex 49.7444 14.5 5.55886
      vertex 49.7444 14.5 9.44114
      vertex 50 14.5 7.5
    endloop
  endfacet
  facet normal 1.22461e-16 1 0
    outer loop
      vertex 42.7678 14.5 9.26777
      vertex 49.7444 14.5 5.55886
      vertex 43.5 14.5 7.5
    endloop
  endfacet
  facet normal 1.22461e-16 1 0
    outer loop
      vertex 41 14.5 10
      vertex 33.6847 14.5 13.1782
      vertex 42.7678 14.5 9.26777
    endloop
  endfacet
  facet normal 1.22461e-16 1 0
    outer loop
      vertex 49.7444 14.5 5.55886
      vertex 42.7678 14.5 9.26777
      vertex 35.036 14.5 14.679
    endloop
  endfacet
  facet normal 1.22461e-16 1 0
    outer loop
      vertex 39.2322 14.5 9.26777
      vertex 33.6847 14.5 13.1782
      vertex 41 14.5 10
    endloop
  endfacet
  facet normal 1.22461e-16 1 0
    outer loop
      vertex 38.5 14.5 7.5
      vertex 32.0508 14.5 9.50848
      vertex 32.6749 14.5 11.4292
    endloop
  endfacet
  facet normal 1.22461e-16 1 0
    outer loop
      vertex 41 14.5 5
      vertex 32.0508 14.5 5.49152
      vertex 39.2322 14.5 5.73223
    endloop
  endfacet
  facet normal 1.22461e-16 1 0
    outer loop
      vertex 49.7444 14.5 5.55886
      vertex 32.6749 14.5 3.57082
      vertex 41 14.5 5
    endloop
  endfacet
  facet normal 1.22461e-16 1 0
    outer loop
      vertex 42.7678 14.5 5.73223
      vertex 49.7444 14.5 5.55886
      vertex 41 14.5 5
    endloop
  endfacet
  facet normal 1.22461e-16 1 0
    outer loop
      vertex 38.5 14.5 7.5
      vertex 32.6749 14.5 11.4292
      vertex 39.2322 14.5 9.26777
    endloop
  endfacet
  facet normal 1.22461e-16 1 0
    outer loop
      vertex 43.5 14.5 7.5
      vertex 49.7444 14.5 5.55886
      vertex 42.7678 14.5 5.73223
    endloop
  endfacet
  facet normal 1.22461e-16 1 0
    outer loop
      vertex 39.2322 14.5 5.73223
      vertex 31.8397 14.5 7.5
      vertex 38.5 14.5 7.5
    endloop
  endfacet
  facet normal 0.148851 0.967403 0.204876
    outer loop
      vertex 19.36 16.98 0
      vertex 35.036 14.5 0.321032
      vertex 35.4779 14.5 0
    endloop
  endfacet
  facet normal 0.152053 0.978844 0.136909
    outer loop
      vertex 19.36 16.98 0
      vertex 33.6847 14.5 1.82184
      vertex 35.036 14.5 0.321032
    endloop
  endfacet
  facet normal 0.158558 0.983097 0.0915437
    outer loop
      vertex 19.36 16.98 0
      vertex 32.6749 14.5 3.57082
      vertex 33.6847 14.5 1.82184
    endloop
  endfacet
  facet normal 0.168614 0.984158 0.054786
    outer loop
      vertex 19.36 16.98 0
      vertex 32.0508 14.5 5.49152
      vertex 32.6749 14.5 3.57082
    endloop
  endfacet
  facet normal 0.183699 0.982793 0.0193076
    outer loop
      vertex 19.36 16.98 0
      vertex 31.8397 14.5 7.5
      vertex 32.0508 14.5 5.49152
    endloop
  endfacet
  facet normal 0.194911 0.980821 0
    outer loop
      vertex 19.36 16.98 0
      vertex 19.36 16.98 15
      vertex 31.8397 14.5 7.5
    endloop
  endfacet
  facet normal 0.707107 0.707107 0
    outer loop
      vertex 18.36 17.98 15
      vertex 19.36 16.98 15
      vertex 18.36 17.98 0
    endloop
  endfacet
  facet normal 0.707107 0.707107 0
    outer loop
      vertex 18.36 17.98 0
      vertex 19.36 16.98 15
      vertex 19.36 16.98 0
    endloop
  endfacet
  facet normal 1 -1.22461e-16 0
    outer loop
      vertex 18.36 18.5 7.5
      vertex 18.36 17.98 15
      vertex 18.36 17.98 0
    endloop
  endfacet
  facet normal 1 -1.22461e-16 0
    outer loop
      vertex 18.36 18.5 7.5
      vertex 18.36 19.25 8.79904
      vertex 18.36 17.98 15
    endloop
  endfacet
  facet normal 1 -1.22461e-16 0
    outer loop
      vertex 18.36 22.02 0
      vertex 18.36 21.5 7.5
      vertex 18.36 17.98 0
    endloop
  endfacet
  facet normal 1 -1.22461e-16 0
    outer loop
      vertex 18.36 22.02 0
      vertex 18.36 22.02 15
      vertex 18.36 21.5 7.5
    endloop
  endfacet
  facet normal 1 -1.22461e-16 0
    outer loop
      vertex 18.36 21.5 7.5
      vertex 18.36 20.75 6.20096
      vertex 18.36 17.98 0
    endloop
  endfacet
  facet normal 1 -1.22461e-16 0
    outer loop
      vertex 18.36 19.25 6.20096
      vertex 18.36 18.5 7.5
      vertex 18.36 17.98 0
    endloop
  endfacet
  facet normal 1 -1.22461e-16 0
    outer loop
      vertex 18.36 19.25 8.79904
      vertex 18.36 20.75 8.79904
      vertex 18.36 22.02 15
    endloop
  endfacet
  facet normal 1 -1.22461e-16 0
    outer loop
      vertex 18.36 22.02 15
      vertex 18.36 17.98 15
      vertex 18.36 19.25 8.79904
    endloop
  endfacet
  facet normal 1 -1.22461e-16 0
    outer loop
      vertex 18.36 20.75 8.79904
      vertex 18.36 21.5 7.5
      vertex 18.36 22.02 15
    endloop
  endfacet
  facet normal 1 -1.22461e-16 0
    outer loop
      vertex 18.36 20.75 6.20096
      vertex 18.36 19.25 6.20096
      vertex 18.36 17.98 0
    endloop
  endfacet
  facet normal 0.707107 -0.707107 0
    outer loop
      vertex 19.36 23.02 15
      vertex 18.36 22.02 15
      vertex 18.36 22.02 0
    endloop
  endfacet
  facet normal 0.707107 -0.707107 0
    outer loop
      vertex 19.36 23.02 0
      vertex 19.36 23.02 15
      vertex 18.36 22.02 0
    endloop
  endfacet
  facet normal 0.183699 0.982793 -0.0193076
    outer loop
      vertex 31.8397 14.5 7.5
      vertex 19.36 16.98 15
      vertex 32.0508 14.5 9.50848
    endloop
  endfacet
  facet normal 0.168614 0.984158 -0.054786
    outer loop
      vertex 32.0508 14.5 9.50848
      vertex 19.36 16.98 15
      vertex 32.6749 14.5 11.4292
    endloop
  endfacet
  facet normal 0.158558 0.983097 -0.0915437
    outer loop
      vertex 32.6749 14.5 11.4292
      vertex 19.36 16.98 15
      vertex 33.6847 14.5 13.1782
    endloop
  endfacet
  facet normal 0.152053 0.978844 -0.136909
    outer loop
      vertex 33.6847 14.5 13.1782
      vertex 19.36 16.98 15
      vertex 35.036 14.5 14.679
    endloop
  endfacet
  facet normal 0.148851 0.967403 -0.204876
    outer loop
      vertex 35.036 14.5 14.679
      vertex 19.36 16.98 15
      vertex 35.4779 14.5 15
    endloop
  endfacet
  facet normal 0.497934 -6.09774e-17 0.867215
    outer loop
      vertex 46.25 12 13.9952
      vertex 46.25 14.5 13.9952
      vertex 44.5 14.5 15
    endloop
  endfacet
  facet normal 0.497934 -6.09774e-17 0.867215
    outer loop
      vertex 44.5 12 15
      vertex 46.25 12 13.9952
      vertex 44.5 14.5 15
    endloop
  endfacet
  facet normal 0.376182 -0.655167 0.655167
    outer loop
      vertex 44.5 11 14
      vertex 46.25 12 13.9952
      vertex 44.5 12 15
    endloop
  endfacet
  facet normal -8.65927e-17 -0.707107 0.707107
    outer loop
      vertex 44.5 11 14
      vertex 44.5 12 15
      vertex 28 12 15
    endloop
  endfacet
  facet normal -8.65927e-17 -0.707107 0.707107
    outer loop
      vertex 28 11 14
      vertex 44.5 11 14
      vertex 28 12 15
    endloop
  endfacet
  facet normal -0.0880451 -0.704361 0.704361
    outer loop
      vertex 28 11 14
      vertex 28 12 15
      vertex 16 13.5 15
    endloop
  endfacet
  facet normal -0.0880451 -0.704361 0.704361
    outer loop
      vertex 16 12.5 14
      vertex 28 11 14
      vertex 16 13.5 15
    endloop
  endfacet
  facet normal -0.57735 -0.57735 0.57735
    outer loop
      vertex 16 12.5 14
      vertex 16 13.5 15
      vertex 15 13.5 14
    endloop
  endfacet
  facet normal -0.707107 8.65927e-17 0.707107
    outer loop
      vertex 16 13.5 15
      vertex 16 17 15
      vertex 15 16 14
    endloop
  endfacet
  facet normal -0.707107 8.65927e-17 0.707107
    outer loop
      vertex 15 13.5 14
      vertex 16 13.5 15
      vertex 15 16 14
    endloop
  endfacet
  facet normal -8.65927e-17 -0.707107 0.707107
    outer loop
      vertex 15 16 14
      vertex 16 17 15
      vertex 3.35 17 15
    endloop
  endfacet
  facet normal -8.65927e-17 -0.707107 0.707107
    outer loop
      vertex 3.35 16 14
      vertex 15 16 14
      vertex 3.35 17 15
    endloop
  endfacet
  facet normal -0.57735 -0.57735 0.57735
    outer loop
      vertex 3.35 16 14
      vertex 3.35 17 15
      vertex 2.35 17 14
    endloop
  endfacet
  facet normal -0.707107 8.65927e-17 0.707107
    outer loop
      vertex 3.35 17 15
      vertex 3.35 23 15
      vertex 2.35 23 14
    endloop
  endfacet
  facet normal -0.707107 8.65927e-17 0.707107
    outer loop
      vertex 2.35 17 14
      vertex 3.35 17 15
      vertex 2.35 23 14
    endloop
  endfacet
  facet normal 8.65927e-17 0.707107 0.707107
    outer loop
      vertex 3.35 23 15
      vertex 16 23 15
      vertex 15 24 14
    endloop
  endfacet
  facet normal 8.65927e-17 0.707107 0.707107
    outer loop
      vertex 3.35 24 14
      vertex 3.35 23 15
      vertex 15 24 14
    endloop
  endfacet
  facet normal -0.57735 0.57735 0.57735
    outer loop
      vertex 3.35 23 15
      vertex 3.35 24 14
      vertex 2.35 23 14
    endloop
  endfacet
  facet normal 1.22461e-16 1 0
    outer loop
      vertex 15 24 1
      vertex 3.35 24 1
      vertex 15 24 14
    endloop
  endfacet
  facet normal 1.22461e-16 1 0
    outer loop
      vertex 15 24 14
      vertex 3.35 24 1
      vertex 3.35 24 14
    endloop
  endfacet
  facet normal -1 1.22461e-16 0
    outer loop
      vertex 15 26.5 1
      vertex 15 24 1
      vertex 15 26.5 14
    endloop
  endfacet
  facet normal -1 1.22461e-16 0
    outer loop
      vertex 15 26.5 14
      vertex 15 24 1
      vertex 15 24 14
    endloop
  endfacet
  facet normal -0.707107 0.707107 0
    outer loop
      vertex 3.35 24 1
      vertex 2.35 23 1
      vertex 3.35 24 14
    endloop
  endfacet
  facet normal -0.707107 0.707107 0
    outer loop
      vertex 3.35 24 14
      vertex 2.35 23 1
      vertex 2.35 23 14
    endloop
  endfacet
  facet normal -1 1.22461e-16 0
    outer loop
      vertex 2.35 18.5 7.5
      vertex 2.35 17 1
      vertex 2.35 17 14
    endloop
  endfacet
  facet normal -1 1.22461e-16 0
    outer loop
      vertex 2.35 23 1
      vertex 2.35 21.5 7.5
      vertex 2.35 23 14
    endloop
  endfacet
  facet normal -1 1.22461e-16 0
    outer loop
      vertex 2.35 21.5 7.5
      vertex 2.35 20.75 8.79904
      vertex 2.35 23 14
    endloop
  endfacet
  facet normal -1 1.22461e-16 0
    outer loop
      vertex 2.35 20.75 6.20096
      vertex 2.35 17 1
      vertex 2.35 19.25 6.20096
    endloop
  endfacet
  facet normal -1 1.22461e-16 0
    outer loop
      vertex 2.35 23 14
      vertex 2.35 19.25 8.79904
      vertex 2.35 17 14
    endloop
  endfacet
  facet normal -1 1.22461e-16 0
    outer loop
      vertex 2.35 19.25 8.79904
      vertex 2.35 18.5 7.5
      vertex 2.35 17 14
    endloop
  endfacet
  facet normal -1 1.22461e-16 0
    outer loop
      vertex 2.35 19.25 6.20096
      vertex 2.35 17 1
      vertex 2.35 18.5 7.5
    endloop
  endfacet
  facet normal -1 1.22461e-16 0
    outer loop
      vertex 2.35 23 1
      vertex 2.35 17 1
      vertex 2.35 20.75 6.20096
    endloop
  endfacet
  facet normal -1 1.22461e-16 0
    outer loop
      vertex 2.35 23 1
      vertex 2.35 20.75 6.20096
      vertex 2.35 21.5 7.5
    endloop
  endfacet
  facet normal -1 1.22461e-16 0
    outer loop
      vertex 2.35 19.25 8.79904
      vertex 2.35 23 14
      vertex 2.35 20.75 8.79904
    endloop
  endfacet
  facet normal -0.707107 -0.707107 0
    outer loop
      vertex 3.35 16 1
      vertex 3.35 16 14
      vertex 2.35 17 1
    endloop
  endfacet
  facet normal -0.707107 -0.707107 0
    outer loop
      vertex 2.35 17 1
      vertex 3.35 16 14
      vertex 2.35 17 14
    endloop
  endfacet
  facet normal -1.22461e-16 -1 0
    outer loop
      vertex 12.035 16 10.4982
      vertex 15 16 1
      vertex 15 16 14
    endloop
  endfacet
  facet normal -1.22461e-16 -1 0
    outer loop
      vertex 9.535 16 4.50184
      vertex 9.535 16 10.4982
      vertex 3.35 16 1
    endloop
  endfacet
  facet normal -1.22461e-16 -1 0
    outer loop
      vertex 12.035 16 4.50184
      vertex 15 16 1
      vertex 12.035 16 10.4982
    endloop
  endfacet
  facet normal -1.22461e-16 -1 0
    outer loop
      vertex 3.35 16 1
      vertex 15 16 1
      vertex 12.035 16 4.50184
    endloop
  endfacet
  facet normal -1.22461e-16 -1 0
    outer loop
      vertex 3.35 16 1
      vertex 12.035 16 4.50184
      vertex 9.535 16 4.50184
    endloop
  endfacet
  facet normal -1.22461e-16 -1 0
    outer loop
      vertex 3.35 16 14
      vertex 9.535 16 10.4982
      vertex 15 16 14
    endloop
  endfacet
  facet normal -1.22461e-16 -1 0
    outer loop
      vertex 3.35 16 14
      vertex 3.35 16 1
      vertex 9.535 16 10.4982
    endloop
  endfacet
  facet normal -1.22461e-16 -1 0
    outer loop
      vertex 9.535 16 10.4982
      vertex 12.035 16 10.4982
      vertex 15 16 14
    endloop
  endfacet
  facet normal -1 1.22461e-16 0
    outer loop
      vertex 15 16 1
      vertex 15 13.5 1
      vertex 15 16 14
    endloop
  endfacet
  facet normal -1 1.22461e-16 0
    outer loop
      vertex 15 16 14
      vertex 15 13.5 1
      vertex 15 13.5 14
    endloop
  endfacet
  facet normal -0.707107 -0.707107 0
    outer loop
      vertex 16 12.5 1
      vertex 16 12.5 14
      vertex 15 13.5 1
    endloop
  endfacet
  facet normal -0.707107 -0.707107 0
    outer loop
      vertex 15 13.5 1
      vertex 16 12.5 14
      vertex 15 13.5 14
    endloop
  endfacet
  facet normal -0.124035 -0.992278 0
    outer loop
      vertex 16 12.5 1
      vertex 28 11 1
      vertex 28 11 14
    endloop
  endfacet
  facet normal -0.124035 -0.992278 0
    outer loop
      vertex 16 12.5 14
      vertex 16 12.5 1
      vertex 28 11 14
    endloop
  endfacet
  facet normal -1.22461e-16 -1 0
    outer loop
      vertex 48.3563 11 4.67976
      vertex 48.9274 11 6.53123
      vertex 48.9274 11 8.46877
    endloop
  endfacet
  facet normal -1.22461e-16 -1 0
    outer loop
      vertex 47.2648 11 11.9211
      vertex 48.3563 11 4.67976
      vertex 48.3563 11 10.3202
    endloop
  endfacet
  facet normal -1.22461e-16 -1 0
    outer loop
      vertex 48.3563 11 10.3202
      vertex 48.3563 11 4.67976
      vertex 48.9274 11 8.46877
    endloop
  endfacet
  facet normal -1.22461e-16 -1 0
    outer loop
      vertex 45.75 11 13.1292
      vertex 48.3563 11 4.67976
      vertex 47.2648 11 11.9211
    endloop
  endfacet
  facet normal -1.22461e-16 -1 0
    outer loop
      vertex 44.5 11 14
      vertex 48.3563 11 4.67976
      vertex 45.75 11 13.1292
    endloop
  endfacet
  facet normal -1.22461e-16 -1 0
    outer loop
      vertex 43.5 11 7.5
      vertex 48.3563 11 4.67976
      vertex 44.5 11 14
    endloop
  endfacet
  facet normal -1.22461e-16 -1 0
    outer loop
      vertex 44.5 11 1
      vertex 48.3563 11 4.67976
      vertex 28 11 1
    endloop
  endfacet
  facet normal -1.22461e-16 -1 0
    outer loop
      vertex 45.75 11 1.87084
      vertex 48.3563 11 4.67976
      vertex 44.5 11 1
    endloop
  endfacet
  facet normal -1.22461e-16 -1 0
    outer loop
      vertex 47.2648 11 3.07888
      vertex 48.3563 11 4.67976
      vertex 45.75 11 1.87084
    endloop
  endfacet
  facet normal -1.22461e-16 -1 0
    outer loop
      vertex 42.7678 11 9.26777
      vertex 43.5 11 7.5
      vertex 44.5 11 14
    endloop
  endfacet
  facet normal -1.22461e-16 -1 0
    outer loop
      vertex 39.2322 11 9.26777
      vertex 41 11 10
      vertex 28 11 14
    endloop
  endfacet
  facet normal -1.22461e-16 -1 0
    outer loop
      vertex 41 11 5
      vertex 48.3563 11 4.67976
      vertex 42.7678 11 5.73223
    endloop
  endfacet
  facet normal -1.22461e-16 -1 0
    outer loop
      vertex 38.5 11 7.5
      vertex 39.2322 11 9.26777
      vertex 28 11 14
    endloop
  endfacet
  facet normal -1.22461e-16 -1 0
    outer loop
      vertex 28 11 1
      vertex 48.3563 11 4.67976
      vertex 41 11 5
    endloop
  endfacet
  facet normal -1.22461e-16 -1 0
    outer loop
      vertex 28 11 1
      vertex 39.2322 11 5.73223
      vertex 28 11 14
    endloop
  endfacet
  facet normal -1.22461e-16 -1 0
    outer loop
      vertex 39.2322 11 5.73223
      vertex 38.5 11 7.5
      vertex 28 11 14
    endloop
  endfacet
  facet normal -1.22461e-16 -1 0
    outer loop
      vertex 41 11 5
      vertex 39.2322 11 5.73223
      vertex 28 11 1
    endloop
  endfacet
  facet normal -1.22461e-16 -1 0
    outer loop
      vertex 28 11 14
      vertex 41 11 10
      vertex 44.5 11 14
    endloop
  endfacet
  facet normal -1.22461e-16 -1 0
    outer loop
      vertex 41 11 10
      vertex 42.7678 11 9.26777
      vertex 44.5 11 14
    endloop
  endfacet
  facet normal -1.22461e-16 -1 0
    outer loop
      vertex 43.5 11 7.5
      vertex 42.7678 11 5.73223
      vertex 48.3563 11 4.67976
    endloop
  endfacet
  facet normal 0.404929 -0.70583 -0.581237
    outer loop
      vertex 44.5 11 1
      vertex 46.25 12 1.00481
      vertex 45.75 11 1.87084
    endloop
  endfacet
  facet normal 0.432305 -0.704063 -0.56339
    outer loop
      vertex 46.25 12 1.00481
      vertex 47.8033 12 2.1967
      vertex 45.75 11 1.87084
    endloop
  endfacet
  facet normal 0.608762 -7.45493e-17 -0.793353
    outer loop
      vertex 47.8033 14.5 2.1967
      vertex 47.8033 12 2.1967
      vertex 46.25 14.5 1.00481
    endloop
  endfacet
  facet normal 0.608762 -7.45493e-17 -0.793353
    outer loop
      vertex 46.25 14.5 1.00481
      vertex 47.8033 12 2.1967
      vertex 46.25 12 1.00481
    endloop
  endfacet
  facet normal 0.991445 -1.21413e-16 -0.130526
    outer loop
      vertex 49.7444 14.5 5.55886
      vertex 50 14.5 7.5
      vertex 50 12 7.5
    endloop
  endfacet
  facet normal 0.991445 -1.21413e-16 -0.130526
    outer loop
      vertex 49.7444 12 5.55886
      vertex 49.7444 14.5 5.55886
      vertex 50 12 7.5
    endloop
  endfacet
  facet normal 0.92388 -1.13139e-16 -0.382683
    outer loop
      vertex 48.9952 14.5 3.75
      vertex 49.7444 14.5 5.55886
      vertex 49.7444 12 5.55886
    endloop
  endfacet
  facet normal 0.92388 -1.13139e-16 -0.382683
    outer loop
      vertex 48.9952 12 3.75
      vertex 48.9952 14.5 3.75
      vertex 49.7444 12 5.55886
    endloop
  endfacet
  facet normal 0.991445 -1.21413e-16 0.130526
    outer loop
      vertex 50 12 7.5
      vertex 50 14.5 7.5
      vertex 49.7444 14.5 9.44114
    endloop
  endfacet
  facet normal 0.991445 -1.21413e-16 0.130526
    outer loop
      vertex 49.7444 12 9.44114
      vertex 50 12 7.5
      vertex 49.7444 14.5 9.44114
    endloop
  endfacet
  facet normal 0.92388 -1.13139e-16 0.382683
    outer loop
      vertex 49.7444 12 9.44114
      vertex 49.7444 14.5 9.44114
      vertex 48.9952 14.5 11.25
    endloop
  endfacet
  facet normal 0.92388 -1.13139e-16 0.382683
    outer loop
      vertex 48.9952 12 11.25
      vertex 49.7444 12 9.44114
      vertex 48.9952 14.5 11.25
    endloop
  endfacet
  facet normal 0.793353 -9.71545e-17 0.608762
    outer loop
      vertex 48.9952 12 11.25
      vertex 48.9952 14.5 11.25
      vertex 47.8033 14.5 12.8033
    endloop
  endfacet
  facet normal 0.793353 -9.71545e-17 0.608762
    outer loop
      vertex 47.8033 12 12.8033
      vertex 48.9952 12 11.25
      vertex 47.8033 14.5 12.8033
    endloop
  endfacet
  facet normal 0.608762 -7.45493e-17 0.793353
    outer loop
      vertex 47.8033 12 12.8033
      vertex 47.8033 14.5 12.8033
      vertex 46.25 14.5 13.9952
    endloop
  endfacet
  facet normal 0.608762 -7.45493e-17 0.793353
    outer loop
      vertex 46.25 12 13.9952
      vertex 47.8033 12 12.8033
      vertex 46.25 14.5 13.9952
    endloop
  endfacet
  facet normal 0.793353 -9.71545e-17 -0.608762
    outer loop
      vertex 47.8033 14.5 2.1967
      vertex 48.9952 14.5 3.75
      vertex 48.9952 12 3.75
    endloop
  endfacet
  facet normal 0.793353 -9.71545e-17 -0.608762
    outer loop
      vertex 47.8033 12 2.1967
      vertex 47.8033 14.5 2.1967
      vertex 48.9952 12 3.75
    endloop
  endfacet
  facet normal -0.92388 2.81661e-17 -0.382683
    outer loop
      vertex 42.7678 11 9.26777
      vertex 42.7678 14.5 9.26777
      vertex 43.5 11 7.5
    endloop
  endfacet
  facet normal -0.92388 2.81661e-17 -0.382683
    outer loop
      vertex 43.5 11 7.5
      vertex 42.7678 14.5 9.26777
      vertex 43.5 14.5 7.5
    endloop
  endfacet
  facet normal -0.92388 1.98112e-16 0.382683
    outer loop
      vertex 42.7678 11 5.73223
      vertex 43.5 11 7.5
      vertex 42.7678 14.5 5.73223
    endloop
  endfacet
  facet normal -0.92388 1.98112e-16 0.382683
    outer loop
      vertex 42.7678 14.5 5.73223
      vertex 43.5 11 7.5
      vertex 43.5 14.5 7.5
    endloop
  endfacet
  facet normal -0.382683 2.52006e-16 0.92388
    outer loop
      vertex 41 14.5 5
      vertex 41 11 5
      vertex 42.7678 11 5.73223
    endloop
  endfacet
  facet normal -0.382683 2.52006e-16 0.92388
    outer loop
      vertex 42.7678 14.5 5.73223
      vertex 41 14.5 5
      vertex 42.7678 11 5.73223
    endloop
  endfacet
  facet normal 0.382683 1.58279e-16 0.92388
    outer loop
      vertex 39.2322 14.5 5.73223
      vertex 39.2322 11 5.73223
      vertex 41 11 5
    endloop
  endfacet
  facet normal 0.382683 1.58279e-16 0.92388
    outer loop
      vertex 41 14.5 5
      vertex 39.2322 14.5 5.73223
      vertex 41 11 5
    endloop
  endfacet
  facet normal 0.92388 -2.81661e-17 0.382683
    outer loop
      vertex 38.5 14.5 7.5
      vertex 38.5 11 7.5
      vertex 39.2322 11 5.73223
    endloop
  endfacet
  facet normal 0.92388 -2.81661e-17 0.382683
    outer loop
      vertex 39.2322 14.5 5.73223
      vertex 38.5 14.5 7.5
      vertex 39.2322 11 5.73223
    endloop
  endfacet
  facet normal 0.92388 -1.98112e-16 -0.382683
    outer loop
      vertex 39.2322 11 9.26777
      vertex 38.5 11 7.5
      vertex 38.5 14.5 7.5
    endloop
  endfacet
  facet normal 0.92388 -1.98112e-16 -0.382683
    outer loop
      vertex 39.2322 14.5 9.26777
      vertex 39.2322 11 9.26777
      vertex 38.5 14.5 7.5
    endloop
  endfacet
  facet normal 0.382683 -2.52006e-16 -0.92388
    outer loop
      vertex 39.2322 11 9.26777
      vertex 39.2322 14.5 9.26777
      vertex 41 11 10
    endloop
  endfacet
  facet normal 0.382683 -2.52006e-16 -0.92388
    outer loop
      vertex 41 11 10
      vertex 39.2322 14.5 9.26777
      vertex 41 14.5 10
    endloop
  endfacet
  facet normal -0.382683 -1.58279e-16 -0.92388
    outer loop
      vertex 41 11 10
      vertex 41 14.5 10
      vertex 42.7678 11 9.26777
    endloop
  endfacet
  facet normal -0.382683 -1.58279e-16 -0.92388
    outer loop
      vertex 42.7678 11 9.26777
      vertex 41 14.5 10
      vertex 42.7678 14.5 9.26777
    endloop
  endfacet
  facet normal -2.17076e-16 -0.866025 -0.5
    outer loop
      vertex 18.36 20.75 8.79904
      vertex 12.035 20.75 8.79904
      vertex 12.035 21.5 7.5
    endloop
  endfacet
  facet normal -2.17076e-16 -0.866025 -0.5
    outer loop
      vertex 18.36 21.5 7.5
      vertex 18.36 20.75 8.79904
      vertex 12.035 21.5 7.5
    endloop
  endfacet
  facet normal 4.96828e-18 -0.866025 0.5
    outer loop
      vertex 12.035 21.5 7.5
      vertex 12.035 20.75 6.20096
      vertex 18.36 20.75 6.20096
    endloop
  endfacet
  facet normal 4.96828e-18 -0.866025 0.5
    outer loop
      vertex 18.36 21.5 7.5
      vertex 12.035 21.5 7.5
      vertex 18.36 20.75 6.20096
    endloop
  endfacet
  facet normal -2.22045e-16 3.52256e-08 -1
    outer loop
      vertex 12.035 19.25 8.79904
      vertex 12.035 20.75 8.79904
      vertex 18.36 19.25 8.79904
    endloop
  endfacet
  facet normal -2.22045e-16 3.52256e-08 -1
    outer loop
      vertex 18.36 19.25 8.79904
      vertex 12.035 20.75 8.79904
      vertex 18.36 20.75 8.79904
    endloop
  endfacet
  facet normal -4.96828e-18 0.866025 -0.5
    outer loop
      vertex 12.035 18.5 7.5
      vertex 12.035 19.25 8.79904
      vertex 18.36 18.5 7.5
    endloop
  endfacet
  facet normal -4.96828e-18 0.866025 -0.5
    outer loop
      vertex 18.36 18.5 7.5
      vertex 12.035 19.25 8.79904
      vertex 18.36 19.25 8.79904
    endloop
  endfacet
  facet normal 2.17076e-16 0.866025 0.5
    outer loop
      vertex 12.035 18.5 7.5
      vertex 18.36 18.5 7.5
      vertex 12.035 19.25 6.20096
    endloop
  endfacet
  facet normal 2.17076e-16 0.866025 0.5
    outer loop
      vertex 12.035 19.25 6.20096
      vertex 18.36 18.5 7.5
      vertex 18.36 19.25 6.20096
    endloop
  endfacet
  facet normal 2.22045e-16 -3.52256e-08 1
    outer loop
      vertex 12.035 20.75 6.20096
      vertex 12.035 19.25 6.20096
      vertex 18.36 19.25 6.20096
    endloop
  endfacet
  facet normal 2.22045e-16 -3.52256e-08 1
    outer loop
      vertex 18.36 20.75 6.20096
      vertex 12.035 20.75 6.20096
      vertex 18.36 19.25 6.20096
    endloop
  endfacet
  facet normal 0.404929 -0.70583 0.581237
    outer loop
      vertex 45.75 11 13.1292
      vertex 46.25 12 13.9952
      vertex 44.5 11 14
    endloop
  endfacet
  facet normal 0.432305 -0.704063 0.56339
    outer loop
      vertex 45.75 11 13.1292
      vertex 47.8033 12 12.8033
      vertex 46.25 12 13.9952
    endloop
  endfacet
  facet normal -2.17076e-16 -0.866025 -0.5
    outer loop
      vertex 9.535 20.75 8.79904
      vertex 2.35 20.75 8.79904
      vertex 2.35 21.5 7.5
    endloop
  endfacet
  facet normal -2.17076e-16 -0.866025 -0.5
    outer loop
      vertex 9.535 21.5 7.5
      vertex 9.535 20.75 8.79904
      vertex 2.35 21.5 7.5
    endloop
  endfacet
  facet normal 4.96828e-18 -0.866025 0.5
    outer loop
      vertex 2.35 21.5 7.5
      vertex 2.35 20.75 6.20096
      vertex 9.535 20.75 6.20096
    endloop
  endfacet
  facet normal 4.96828e-18 -0.866025 0.5
    outer loop
      vertex 9.535 21.5 7.5
      vertex 2.35 21.5 7.5
      vertex 9.535 20.75 6.20096
    endloop
  endfacet
  facet normal 2.22045e-16 -3.52256e-08 1
    outer loop
      vertex 2.35 20.75 6.20096
      vertex 2.35 19.25 6.20096
      vertex 9.535 19.25 6.20096
    endloop
  endfacet
  facet normal 2.22045e-16 -3.52256e-08 1
    outer loop
      vertex 9.535 20.75 6.20096
      vertex 2.35 20.75 6.20096
      vertex 9.535 19.25 6.20096
    endloop
  endfacet
  facet normal 2.17076e-16 0.866025 0.5
    outer loop
      vertex 2.35 18.5 7.5
      vertex 9.535 18.5 7.5
      vertex 2.35 19.25 6.20096
    endloop
  endfacet
  facet normal 2.17076e-16 0.866025 0.5
    outer loop
      vertex 2.35 19.25 6.20096
      vertex 9.535 18.5 7.5
      vertex 9.535 19.25 6.20096
    endloop
  endfacet
  facet normal -4.96828e-18 0.866025 -0.5
    outer loop
      vertex 2.35 18.5 7.5
      vertex 2.35 19.25 8.79904
      vertex 9.535 18.5 7.5
    endloop
  endfacet
  facet normal -4.96828e-18 0.866025 -0.5
    outer loop
      vertex 9.535 18.5 7.5
      vertex 2.35 19.25 8.79904
      vertex 9.535 19.25 8.79904
    endloop
  endfacet
  facet normal -2.22045e-16 3.52256e-08 -1
    outer loop
      vertex 2.35 19.25 8.79904
      vertex 2.35 20.75 8.79904
      vertex 9.535 19.25 8.79904
    endloop
  endfacet
  facet normal -2.22045e-16 3.52256e-08 -1
    outer loop
      vertex 9.535 19.25 8.79904
      vertex 2.35 20.75 8.79904
      vertex 9.535 20.75 8.79904
    endloop
  endfacet
  facet normal -5.43331e-18 -0.0443678 -0.999015
    outer loop
      vertex 9.535 16 10.4982
      vertex 9.535 21.5877 10.25
      vertex 12.035 16 10.4982
    endloop
  endfacet
  facet normal -5.43331e-18 -0.0443678 -0.999015
    outer loop
      vertex 12.035 16 10.4982
      vertex 9.535 21.5877 10.25
      vertex 12.035 21.5877 10.25
    endloop
  endfacet
  facet normal -1 1.22461e-16 0
    outer loop
      vertex 12.035 20.75 6.20096
      vertex 12.035 21.5877 4.75
      vertex 12.035 19.25 6.20096
    endloop
  endfacet
  facet normal -1 1.22461e-16 0
    outer loop
      vertex 12.035 20.75 8.79904
      vertex 12.035 16 10.4982
      vertex 12.035 21.5877 10.25
    endloop
  endfacet
  facet normal -1 1.22461e-16 0
    outer loop
      vertex 12.035 21.5877 4.75
      vertex 12.035 21.5877 10.25
      vertex 12.035 23.1754 7.5
    endloop
  endfacet
  facet normal -1 1.22461e-16 0
    outer loop
      vertex 12.035 19.25 8.79904
      vertex 12.035 16 10.4982
      vertex 12.035 20.75 8.79904
    endloop
  endfacet
  facet normal -1 1.22461e-16 0
    outer loop
      vertex 12.035 21.5 7.5
      vertex 12.035 20.75 8.79904
      vertex 12.035 21.5877 10.25
    endloop
  endfacet
  facet normal -1 1.22461e-16 0
    outer loop
      vertex 12.035 16 4.50184
      vertex 12.035 16 10.4982
      vertex 12.035 18.5 7.5
    endloop
  endfacet
  facet normal -1 1.22461e-16 0
    outer loop
      vertex 12.035 16 4.50184
      vertex 12.035 18.5 7.5
      vertex 12.035 19.25 6.20096
    endloop
  endfacet
  facet normal -1 1.22461e-16 0
    outer loop
      vertex 12.035 16 4.50184
      vertex 12.035 19.25 6.20096
      vertex 12.035 21.5877 4.75
    endloop
  endfacet
  facet normal -1 1.22461e-16 0
    outer loop
      vertex 12.035 21.5 7.5
      vertex 12.035 21.5877 4.75
      vertex 12.035 20.75 6.20096
    endloop
  endfacet
  facet normal -1 1.22461e-16 0
    outer loop
      vertex 12.035 21.5877 4.75
      vertex 12.035 21.5 7.5
      vertex 12.035 21.5877 10.25
    endloop
  endfacet
  facet normal -1 1.22461e-16 0
    outer loop
      vertex 12.035 18.5 7.5
      vertex 12.035 16 10.4982
      vertex 12.035 19.25 8.79904
    endloop
  endfacet
  facet normal 1 -1.22461e-16 0
    outer loop
      vertex 9.535 18.5 7.5
      vertex 9.535 16 10.4982
      vertex 9.535 16 4.50184
    endloop
  endfacet
  facet normal 1 -1.22461e-16 0
    outer loop
      vertex 9.535 23.1754 7.5
      vertex 9.535 21.5877 10.25
      vertex 9.535 21.5877 4.75
    endloop
  endfacet
  facet normal 1 -1.22461e-16 0
    outer loop
      vertex 9.535 19.25 8.79904
      vertex 9.535 20.75 8.79904
      vertex 9.535 21.5877 10.25
    endloop
  endfacet
  facet normal 1 -1.22461e-16 0
    outer loop
      vertex 9.535 21.5877 4.75
      vertex 9.535 21.5877 10.25
      vertex 9.535 21.5 7.5
    endloop
  endfacet
  facet normal 1 -1.22461e-16 0
    outer loop
      vertex 9.535 21.5877 4.75
      vertex 9.535 20.75 6.20096
      vertex 9.535 16 4.50184
    endloop
  endfacet
  facet normal 1 -1.22461e-16 0
    outer loop
      vertex 9.535 21.5877 4.75
      vertex 9.535 21.5 7.5
      vertex 9.535 20.75 6.20096
    endloop
  endfacet
  facet normal 1 -1.22461e-16 0
    outer loop
      vertex 9.535 20.75 6.20096
      vertex 9.535 19.25 6.20096
      vertex 9.535 16 4.50184
    endloop
  endfacet
  facet normal 1 -1.22461e-16 0
    outer loop
      vertex 9.535 19.25 8.79904
      vertex 9.535 16 10.4982
      vertex 9.535 18.5 7.5
    endloop
  endfacet
  facet normal 1 -1.22461e-16 0
    outer loop
      vertex 9.535 21.5877 10.25
      vertex 9.535 16 10.4982
      vertex 9.535 19.25 8.79904
    endloop
  endfacet
  facet normal 1 -1.22461e-16 0
    outer loop
      vertex 9.535 21.5 7.5
      vertex 9.535 21.5877 10.25
      vertex 9.535 20.75 8.79904
    endloop
  endfacet
  facet normal 1 -1.22461e-16 0
    outer loop
      vertex 9.535 19.25 6.20096
      vertex 9.535 18.5 7.5
      vertex 9.535 16 4.50184
    endloop
  endfacet
  facet normal -5.43331e-18 -0.0443678 0.999015
    outer loop
      vertex 9.535 21.5877 4.75
      vertex 9.535 16 4.50184
      vertex 12.035 16 4.50184
    endloop
  endfacet
  facet normal -5.43331e-18 -0.0443678 0.999015
    outer loop
      vertex 12.035 21.5877 4.75
      vertex 9.535 21.5877 4.75
      vertex 12.035 16 4.50184
    endloop
  endfacet
  facet normal 0.653331 -0.729757 -0.201526
    outer loop
      vertex 48.3563 11 4.67976
      vertex 49.7444 12 5.55886
      vertex 48.9274 11 6.53123
    endloop
  endfacet
  facet normal 0.67113 -0.687244 -0.277991
    outer loop
      vertex 48.9952 12 3.75
      vertex 49.7444 12 5.55886
      vertex 48.3563 11 4.67976
    endloop
  endfacet
  facet normal 0.569357 -0.724671 -0.388181
    outer loop
      vertex 47.2648 11 3.07888
      vertex 48.9952 12 3.75
      vertex 48.3563 11 4.67976
    endloop
  endfacet
  facet normal 0.571107 -0.694114 -0.438226
    outer loop
      vertex 47.8033 12 2.1967
      vertex 48.9952 12 3.75
      vertex 47.2648 11 3.07888
    endloop
  endfacet
  facet normal 0.435302 -0.715932 -0.545851
    outer loop
      vertex 45.75 11 1.87084
      vertex 47.8033 12 2.1967
      vertex 47.2648 11 3.07888
    endloop
  endfacet
  facet normal 0.435302 -0.715932 0.545851
    outer loop
      vertex 47.2648 11 11.9211
      vertex 47.8033 12 12.8033
      vertex 45.75 11 13.1292
    endloop
  endfacet
  facet normal 0.569357 -0.724671 0.388181
    outer loop
      vertex 48.3563 11 10.3202
      vertex 48.9952 12 11.25
      vertex 47.2648 11 11.9211
    endloop
  endfacet
  facet normal 0.571107 -0.694114 0.438226
    outer loop
      vertex 47.2648 11 11.9211
      vertex 48.9952 12 11.25
      vertex 47.8033 12 12.8033
    endloop
  endfacet
  facet normal 0.67113 -0.687244 0.277991
    outer loop
      vertex 48.3563 11 10.3202
      vertex 49.7444 12 9.44114
      vertex 48.9952 12 11.25
    endloop
  endfacet
  facet normal 0.653331 -0.729757 0.201526
    outer loop
      vertex 48.9274 11 8.46877
      vertex 49.7444 12 9.44114
      vertex 48.3563 11 10.3202
    endloop
  endfacet
  facet normal 0.68192 -0.731427 0
    outer loop
      vertex 48.9274 11 6.53123
      vertex 50 12 7.5
      vertex 48.9274 11 8.46877
    endloop
  endfacet
  facet normal 0.723486 -0.683737 0.0952486
    outer loop
      vertex 48.9274 11 8.46877
      vertex 50 12 7.5
      vertex 49.7444 12 9.44114
    endloop
  endfacet
  facet normal 0.723486 -0.683737 -0.0952486
    outer loop
      vertex 49.7444 12 5.55886
      vertex 50 12 7.5
      vertex 48.9274 11 6.53123
    endloop
  endfacet
  facet normal -1.06054e-16 -0.866025 -0.5
    outer loop
      vertex 12.035 21.5877 10.25
      vertex 9.535 21.5877 10.25
      vertex 9.535 23.1754 7.5
    endloop
  endfacet
  facet normal -1.06054e-16 -0.866025 -0.5
    outer loop
      vertex 12.035 23.1754 7.5
      vertex 12.035 21.5877 10.25
      vertex 9.535 23.1754 7.5
    endloop
  endfacet
  facet normal -1.06054e-16 -0.866025 0.5
    outer loop
      vertex 9.535 23.1754 7.5
      vertex 9.535 21.5877 4.75
      vertex 12.035 21.5877 4.75
    endloop
  endfacet
  facet normal -1.06054e-16 -0.866025 0.5
    outer loop
      vertex 12.035 23.1754 7.5
      vertex 9.535 23.1754 7.5
      vertex 12.035 21.5877 4.75
    endloop
  endfacet
endsolid OpenSCAD_Model
