solid OpenSCAD_Model
  facet normal 0.723486 0.683737 0.0952486
    outer loop
      vertex 48.2444 28 9.44114
      vertex 48.5 28 7.5
      vertex 47.4274 29 8.46877
    endloop
  endfacet
  facet normal 0.68192 0.731427 0
    outer loop
      vertex 47.4274 29 8.46877
      vertex 48.5 28 7.5
      vertex 47.4274 29 6.53123
    endloop
  endfacet
  facet normal 0.723486 0.683737 -0.0952486
    outer loop
      vertex 47.4274 29 6.53123
      vertex 48.5 28 7.5
      vertex 48.2444 28 5.55886
    endloop
  endfacet
  facet normal 0.991445 -1.21413e-16 -0.130526
    outer loop
      vertex 48.2444 28 5.55886
      vertex 48.5 28 7.5
      vertex 48.5 25.5 7.5
    endloop
  endfacet
  facet normal 0.991445 -1.21413e-16 -0.130526
    outer loop
      vertex 48.2444 25.5 5.55886
      vertex 48.2444 28 5.55886
      vertex 48.5 25.5 7.5
    endloop
  endfacet
  facet normal 0.991445 -1.21413e-16 0.130526
    outer loop
      vertex 48.5 25.5 7.5
      vertex 48.5 28 7.5
      vertex 48.2444 28 9.44114
    endloop
  endfacet
  facet normal 0.991445 -1.21413e-16 0.130526
    outer loop
      vertex 48.2444 25.5 9.44114
      vertex 48.5 25.5 7.5
      vertex 48.2444 28 9.44114
    endloop
  endfacet
  facet normal 0.92388 -1.13139e-16 0.382683
    outer loop
      vertex 48.2444 25.5 9.44114
      vertex 48.2444 28 9.44114
      vertex 47.4952 28 11.25
    endloop
  endfacet
  facet normal 0.92388 -1.13139e-16 0.382683
    outer loop
      vertex 47.4952 25.5 11.25
      vertex 48.2444 25.5 9.44114
      vertex 47.4952 28 11.25
    endloop
  endfacet
  facet normal 0.67113 0.687244 0.277991
    outer loop
      vertex 47.4952 28 11.25
      vertex 48.2444 28 9.44114
      vertex 46.8563 29 10.3202
    endloop
  endfacet
  facet normal 0.653331 0.729757 0.201526
    outer loop
      vertex 46.8563 29 10.3202
      vertex 48.2444 28 9.44114
      vertex 47.4274 29 8.46877
    endloop
  endfacet
  facet normal 1.22461e-16 1 0
    outer loop
      vertex 47.4274 29 6.53123
      vertex 46.8563 29 4.67976
      vertex 47.4274 29 8.46877
    endloop
  endfacet
  facet normal 1.22461e-16 1 0
    outer loop
      vertex 47.4274 29 8.46877
      vertex 46.8563 29 4.67976
      vertex 45.7648 29 3.07888
    endloop
  endfacet
  facet normal 1.22461e-16 1 0
    outer loop
      vertex 47.4274 29 8.46877
      vertex 45.7648 29 3.07888
      vertex 44.25 29 1.87084
    endloop
  endfacet
  facet normal 1.22461e-16 1 0
    outer loop
      vertex 47.4274 29 8.46877
      vertex 44.25 29 1.87084
      vertex 43 29 1
    endloop
  endfacet
  facet normal 1.22461e-16 1 0
    outer loop
      vertex 40.445 29 5.55014
      vertex 43 29 1
      vertex 28 29 1
    endloop
  endfacet
  facet normal 1.22461e-16 1 0
    outer loop
      vertex 38 29 7.5
      vertex 28 29 1
      vertex 28 29 14
    endloop
  endfacet
  facet normal 1.22461e-16 1 0
    outer loop
      vertex 47.4274 29 8.46877
      vertex 28 29 14
      vertex 43 29 14
    endloop
  endfacet
  facet normal 1.22461e-16 1 0
    outer loop
      vertex 47.4274 29 8.46877
      vertex 43 29 14
      vertex 44.25 29 13.1292
    endloop
  endfacet
  facet normal 1.22461e-16 1 0
    outer loop
      vertex 47.4274 29 8.46877
      vertex 44.25 29 13.1292
      vertex 45.7648 29 11.9211
    endloop
  endfacet
  facet normal 1.22461e-16 1 0
    outer loop
      vertex 47.4274 29 8.46877
      vertex 45.7648 29 11.9211
      vertex 46.8563 29 10.3202
    endloop
  endfacet
  facet normal 1.22461e-16 1 0
    outer loop
      vertex 38.753 29 9.06366
      vertex 28 29 14
      vertex 40.445 29 9.44986
    endloop
  endfacet
  facet normal 1.22461e-16 1 0
    outer loop
      vertex 47.4274 29 8.46877
      vertex 41.8019 29 6.63223
      vertex 41.8019 29 8.36777
    endloop
  endfacet
  facet normal 1.22461e-16 1 0
    outer loop
      vertex 47.4274 29 8.46877
      vertex 41.8019 29 8.36777
      vertex 40.445 29 9.44986
    endloop
  endfacet
  facet normal 1.22461e-16 1 0
    outer loop
      vertex 47.4274 29 8.46877
      vertex 40.445 29 9.44986
      vertex 28 29 14
    endloop
  endfacet
  facet normal 1.22461e-16 1 0
    outer loop
      vertex 38 29 7.5
      vertex 28 29 14
      vertex 38.753 29 9.06366
    endloop
  endfacet
  facet normal 1.22461e-16 1 0
    outer loop
      vertex 38.753 29 5.93634
      vertex 28 29 1
      vertex 38 29 7.5
    endloop
  endfacet
  facet normal 1.22461e-16 1 0
    outer loop
      vertex 40.445 29 5.55014
      vertex 28 29 1
      vertex 38.753 29 5.93634
    endloop
  endfacet
  facet normal 1.22461e-16 1 0
    outer loop
      vertex 47.4274 29 8.46877
      vertex 43 29 1
      vertex 40.445 29 5.55014
    endloop
  endfacet
  facet normal 1.22461e-16 1 0
    outer loop
      vertex 41.8019 29 6.63223
      vertex 47.4274 29 8.46877
      vertex 40.445 29 5.55014
    endloop
  endfacet
  facet normal 0.653331 0.729757 -0.201526
    outer loop
      vertex 47.4274 29 6.53123
      vertex 48.2444 28 5.55886
      vertex 46.8563 29 4.67976
    endloop
  endfacet
  facet normal 0.67113 0.687244 -0.277991
    outer loop
      vertex 46.8563 29 4.67976
      vertex 48.2444 28 5.55886
      vertex 47.4952 28 3.75
    endloop
  endfacet
  facet normal 0.92388 -1.13139e-16 -0.382683
    outer loop
      vertex 47.4952 28 3.75
      vertex 48.2444 28 5.55886
      vertex 48.2444 25.5 5.55886
    endloop
  endfacet
  facet normal 0.92388 -1.13139e-16 -0.382683
    outer loop
      vertex 47.4952 25.5 3.75
      vertex 47.4952 28 3.75
      vertex 48.2444 25.5 5.55886
    endloop
  endfacet
  facet normal -1.22461e-16 -1 0
    outer loop
      vertex 48.2444 25.5 9.44114
      vertex 47.4952 25.5 11.25
      vertex 46.3033 25.5 12.8033
    endloop
  endfacet
  facet normal -1.22461e-16 -1 0
    outer loop
      vertex 43 25.5 15
      vertex 48.2444 25.5 9.44114
      vertex 44.75 25.5 13.9952
    endloop
  endfacet
  facet normal -1.22461e-16 -1 0
    outer loop
      vertex 44.75 25.5 13.9952
      vertex 48.2444 25.5 9.44114
      vertex 46.3033 25.5 12.8033
    endloop
  endfacet
  facet normal -1.22461e-16 -1 0
    outer loop
      vertex 33.9779 25.5 15
      vertex 48.2444 25.5 9.44114
      vertex 43 25.5 15
    endloop
  endfacet
  facet normal -1.22461e-16 -1 0
    outer loop
      vertex 33.536 25.5 14.679
      vertex 48.2444 25.5 9.44114
      vertex 33.9779 25.5 15
    endloop
  endfacet
  facet normal -1.22461e-16 -1 0
    outer loop
      vertex 32.1847 25.5 13.1782
      vertex 48.2444 25.5 9.44114
      vertex 33.536 25.5 14.679
    endloop
  endfacet
  facet normal -1.22461e-16 -1 0
    outer loop
      vertex 31.1749 25.5 11.4292
      vertex 48.2444 25.5 9.44114
      vertex 32.1847 25.5 13.1782
    endloop
  endfacet
  facet normal -1.22461e-16 -1 0
    outer loop
      vertex 30.5508 25.5 9.50848
      vertex 48.2444 25.5 9.44114
      vertex 31.1749 25.5 11.4292
    endloop
  endfacet
  facet normal -1.22461e-16 -1 0
    outer loop
      vertex 40.445 25.5 9.44986
      vertex 48.2444 25.5 9.44114
      vertex 30.5508 25.5 9.50848
    endloop
  endfacet
  facet normal -1.22461e-16 -1 0
    outer loop
      vertex 40.445 25.5 9.44986
      vertex 41.8019 25.5 8.36777
      vertex 48.2444 25.5 9.44114
    endloop
  endfacet
  facet normal -1.22461e-16 -1 0
    outer loop
      vertex 40.445 25.5 5.55014
      vertex 38.753 25.5 5.93634
      vertex 31.1749 25.5 3.57082
    endloop
  endfacet
  facet normal -1.22461e-16 -1 0
    outer loop
      vertex 41.8019 25.5 6.63223
      vertex 40.445 25.5 5.55014
      vertex 48.2444 25.5 9.44114
    endloop
  endfacet
  facet normal -1.22461e-16 -1 0
    outer loop
      vertex 33.9779 25.5 0
      vertex 48.2444 25.5 9.44114
      vertex 33.536 25.5 0.321032
    endloop
  endfacet
  facet normal -1.22461e-16 -1 0
    outer loop
      vertex 43 25.5 0
      vertex 48.2444 25.5 9.44114
      vertex 33.9779 25.5 0
    endloop
  endfacet
  facet normal -1.22461e-16 -1 0
    outer loop
      vertex 44.75 25.5 1.00481
      vertex 48.2444 25.5 9.44114
      vertex 43 25.5 0
    endloop
  endfacet
  facet normal -1.22461e-16 -1 0
    outer loop
      vertex 46.3033 25.5 2.1967
      vertex 48.2444 25.5 9.44114
      vertex 44.75 25.5 1.00481
    endloop
  endfacet
  facet normal -1.22461e-16 -1 0
    outer loop
      vertex 47.4952 25.5 3.75
      vertex 48.2444 25.5 9.44114
      vertex 46.3033 25.5 2.1967
    endloop
  endfacet
  facet normal -1.22461e-16 -1 0
    outer loop
      vertex 48.2444 25.5 5.55886
      vertex 48.2444 25.5 9.44114
      vertex 47.4952 25.5 3.75
    endloop
  endfacet
  facet normal -1.22461e-16 -1 0
    outer loop
      vertex 48.5 25.5 7.5
      vertex 48.2444 25.5 9.44114
      vertex 48.2444 25.5 5.55886
    endloop
  endfacet
  facet normal -1.22461e-16 -1 0
    outer loop
      vertex 38.753 25.5 5.93634
      vertex 38 25.5 7.5
      vertex 30.5508 25.5 5.49152
    endloop
  endfacet
  facet normal -1.22461e-16 -1 0
    outer loop
      vertex 40.445 25.5 5.55014
      vertex 31.1749 25.5 3.57082
      vertex 32.1847 25.5 1.82184
    endloop
  endfacet
  facet normal -1.22461e-16 -1 0
    outer loop
      vertex 33.536 25.5 0.321032
      vertex 40.445 25.5 5.55014
      vertex 32.1847 25.5 1.82184
    endloop
  endfacet
  facet normal -1.22461e-16 -1 0
    outer loop
      vertex 33.536 25.5 0.321032
      vertex 48.2444 25.5 9.44114
      vertex 40.445 25.5 5.55014
    endloop
  endfacet
  facet normal -1.22461e-16 -1 0
    outer loop
      vertex 38 25.5 7.5
      vertex 38.753 25.5 9.06366
      vertex 30.3397 25.5 7.5
    endloop
  endfacet
  facet normal -1.22461e-16 -1 0
    outer loop
      vertex 30.5508 25.5 5.49152
      vertex 38 25.5 7.5
      vertex 30.3397 25.5 7.5
    endloop
  endfacet
  facet normal -1.22461e-16 -1 0
    outer loop
      vertex 30.3397 25.5 7.5
      vertex 38.753 25.5 9.06366
      vertex 30.5508 25.5 9.50848
    endloop
  endfacet
  facet normal -1.22461e-16 -1 0
    outer loop
      vertex 38.753 25.5 9.06366
      vertex 40.445 25.5 9.44986
      vertex 30.5508 25.5 9.50848
    endloop
  endfacet
  facet normal -1.22461e-16 -1 0
    outer loop
      vertex 38.753 25.5 5.93634
      vertex 30.5508 25.5 5.49152
      vertex 31.1749 25.5 3.57082
    endloop
  endfacet
  facet normal -1.22461e-16 -1 0
    outer loop
      vertex 41.8019 25.5 8.36777
      vertex 41.8019 25.5 6.63223
      vertex 48.2444 25.5 9.44114
    endloop
  endfacet
  facet normal 0.793353 -9.71545e-17 0.608762
    outer loop
      vertex 47.4952 25.5 11.25
      vertex 47.4952 28 11.25
      vertex 46.3033 28 12.8033
    endloop
  endfacet
  facet normal 0.793353 -9.71545e-17 0.608762
    outer loop
      vertex 46.3033 25.5 12.8033
      vertex 47.4952 25.5 11.25
      vertex 46.3033 28 12.8033
    endloop
  endfacet
  facet normal 0.571107 0.694114 0.438226
    outer loop
      vertex 46.3033 28 12.8033
      vertex 47.4952 28 11.25
      vertex 45.7648 29 11.9211
    endloop
  endfacet
  facet normal 0.569357 0.724671 0.388181
    outer loop
      vertex 45.7648 29 11.9211
      vertex 47.4952 28 11.25
      vertex 46.8563 29 10.3202
    endloop
  endfacet
  facet normal 0.435302 0.715932 0.545851
    outer loop
      vertex 44.25 29 13.1292
      vertex 46.3033 28 12.8033
      vertex 45.7648 29 11.9211
    endloop
  endfacet
  facet normal 0.404929 0.70583 0.581237
    outer loop
      vertex 43 29 14
      vertex 44.75 28 13.9952
      vertex 44.25 29 13.1292
    endloop
  endfacet
  facet normal 0.432305 0.704063 0.56339
    outer loop
      vertex 44.75 28 13.9952
      vertex 46.3033 28 12.8033
      vertex 44.25 29 13.1292
    endloop
  endfacet
  facet normal 0.376182 0.655167 0.655167
    outer loop
      vertex 43 28 15
      vertex 44.75 28 13.9952
      vertex 43 29 14
    endloop
  endfacet
  facet normal 8.65927e-17 0.707107 0.707107
    outer loop
      vertex 43 28 15
      vertex 43 29 14
      vertex 28 29 14
    endloop
  endfacet
  facet normal 8.65927e-17 0.707107 0.707107
    outer loop
      vertex 28 28 15
      vertex 43 28 15
      vertex 28 29 14
    endloop
  endfacet
  facet normal -0.0880451 0.704361 0.704361
    outer loop
      vertex 28 29 14
      vertex 16 27.5 14
      vertex 28 28 15
    endloop
  endfacet
  facet normal -0.0880451 0.704361 0.704361
    outer loop
      vertex 28 28 15
      vertex 16 27.5 14
      vertex 16 26.5 15
    endloop
  endfacet
  facet normal -0.124035 0.992278 0
    outer loop
      vertex 28 29 1
      vertex 16 27.5 1
      vertex 28 29 14
    endloop
  endfacet
  facet normal -0.124035 0.992278 0
    outer loop
      vertex 28 29 14
      vertex 16 27.5 1
      vertex 16 27.5 14
    endloop
  endfacet
  facet normal -0.0880451 0.704361 -0.704361
    outer loop
      vertex 28 29 1
      vertex 28 28 0
      vertex 16 27.5 1
    endloop
  endfacet
  facet normal -0.0880451 0.704361 -0.704361
    outer loop
      vertex 16 27.5 1
      vertex 28 28 0
      vertex 16 26.5 0
    endloop
  endfacet
  facet normal 8.65927e-17 0.707107 -0.707107
    outer loop
      vertex 43 29 1
      vertex 43 28 0
      vertex 28 29 1
    endloop
  endfacet
  facet normal 8.65927e-17 0.707107 -0.707107
    outer loop
      vertex 28 29 1
      vertex 43 28 0
      vertex 28 28 0
    endloop
  endfacet
  facet normal 0.376182 0.655167 -0.655167
    outer loop
      vertex 43 29 1
      vertex 44.75 28 1.00481
      vertex 43 28 0
    endloop
  endfacet
  facet normal 0.404929 0.70583 -0.581237
    outer loop
      vertex 44.25 29 1.87084
      vertex 44.75 28 1.00481
      vertex 43 29 1
    endloop
  endfacet
  facet normal 0.435302 0.715932 -0.545851
    outer loop
      vertex 45.7648 29 3.07888
      vertex 46.3033 28 2.1967
      vertex 44.25 29 1.87084
    endloop
  endfacet
  facet normal 0.432305 0.704063 -0.56339
    outer loop
      vertex 44.25 29 1.87084
      vertex 46.3033 28 2.1967
      vertex 44.75 28 1.00481
    endloop
  endfacet
  facet normal 0.571107 0.694114 -0.438226
    outer loop
      vertex 45.7648 29 3.07888
      vertex 47.4952 28 3.75
      vertex 46.3033 28 2.1967
    endloop
  endfacet
  facet normal 0.569357 0.724671 -0.388181
    outer loop
      vertex 46.8563 29 4.67976
      vertex 47.4952 28 3.75
      vertex 45.7648 29 3.07888
    endloop
  endfacet
  facet normal -0.62349 2.49954e-16 0.781831
    outer loop
      vertex 40.445 29 5.55014
      vertex 40.445 25.5 5.55014
      vertex 41.8019 25.5 6.63223
    endloop
  endfacet
  facet normal -0.62349 2.49954e-16 0.781831
    outer loop
      vertex 41.8019 29 6.63223
      vertex 40.445 29 5.55014
      vertex 41.8019 25.5 6.63223
    endloop
  endfacet
  facet normal -1 1.22461e-16 0
    outer loop
      vertex 41.8019 25.5 8.36777
      vertex 41.8019 29 8.36777
      vertex 41.8019 25.5 6.63223
    endloop
  endfacet
  facet normal -1 1.22461e-16 0
    outer loop
      vertex 41.8019 25.5 6.63223
      vertex 41.8019 29 8.36777
      vertex 41.8019 29 6.63223
    endloop
  endfacet
  facet normal 0.222521 1.89227e-16 0.974928
    outer loop
      vertex 38.753 29 5.93634
      vertex 38.753 25.5 5.93634
      vertex 40.445 25.5 5.55014
    endloop
  endfacet
  facet normal 0.222521 1.89227e-16 0.974928
    outer loop
      vertex 40.445 29 5.55014
      vertex 38.753 29 5.93634
      vertex 40.445 25.5 5.55014
    endloop
  endfacet
  facet normal 0.900969 -1.39917e-17 0.433884
    outer loop
      vertex 38 29 7.5
      vertex 38 25.5 7.5
      vertex 38.753 25.5 5.93634
    endloop
  endfacet
  facet normal 0.900969 -1.39917e-17 0.433884
    outer loop
      vertex 38.753 29 5.93634
      vertex 38 29 7.5
      vertex 38.753 25.5 5.93634
    endloop
  endfacet
  facet normal 0.900969 -2.06675e-16 -0.433884
    outer loop
      vertex 38.753 25.5 9.06366
      vertex 38 25.5 7.5
      vertex 38 29 7.5
    endloop
  endfacet
  facet normal 0.900969 -2.06675e-16 -0.433884
    outer loop
      vertex 38.753 29 9.06366
      vertex 38.753 25.5 9.06366
      vertex 38 29 7.5
    endloop
  endfacet
  facet normal 0.222521 -2.43728e-16 -0.974928
    outer loop
      vertex 38.753 25.5 9.06366
      vertex 38.753 29 9.06366
      vertex 40.445 25.5 9.44986
    endloop
  endfacet
  facet normal 0.222521 -2.43728e-16 -0.974928
    outer loop
      vertex 40.445 25.5 9.44986
      vertex 38.753 29 9.06366
      vertex 40.445 29 9.44986
    endloop
  endfacet
  facet normal -0.62349 -9.72484e-17 -0.781831
    outer loop
      vertex 40.445 25.5 9.44986
      vertex 40.445 29 9.44986
      vertex 41.8019 25.5 8.36777
    endloop
  endfacet
  facet normal -0.62349 -9.72484e-17 -0.781831
    outer loop
      vertex 41.8019 25.5 8.36777
      vertex 40.445 29 9.44986
      vertex 41.8019 29 8.36777
    endloop
  endfacet
  facet normal 0.793353 -9.71545e-17 -0.608762
    outer loop
      vertex 46.3033 28 2.1967
      vertex 47.4952 28 3.75
      vertex 47.4952 25.5 3.75
    endloop
  endfacet
  facet normal 0.793353 -9.71545e-17 -0.608762
    outer loop
      vertex 46.3033 25.5 2.1967
      vertex 46.3033 28 2.1967
      vertex 47.4952 25.5 3.75
    endloop
  endfacet
  facet normal 0.608762 -7.45493e-17 -0.793353
    outer loop
      vertex 46.3033 28 2.1967
      vertex 46.3033 25.5 2.1967
      vertex 44.75 28 1.00481
    endloop
  endfacet
  facet normal 0.608762 -7.45493e-17 -0.793353
    outer loop
      vertex 44.75 28 1.00481
      vertex 46.3033 25.5 2.1967
      vertex 44.75 25.5 1.00481
    endloop
  endfacet
  facet normal 0.497934 -6.09774e-17 -0.867215
    outer loop
      vertex 44.75 28 1.00481
      vertex 44.75 25.5 1.00481
      vertex 43 28 0
    endloop
  endfacet
  facet normal 0.497934 -6.09774e-17 -0.867215
    outer loop
      vertex 43 28 0
      vertex 44.75 25.5 1.00481
      vertex 43 25.5 0
    endloop
  endfacet
  facet normal 0 0 -1
    outer loop
      vertex 43 28 0
      vertex 43 25.5 0
      vertex 28 28 0
    endloop
  endfacet
  facet normal 0 0 -1
    outer loop
      vertex 28 28 0
      vertex 43 25.5 0
      vertex 33.9779 25.5 0
    endloop
  endfacet
  facet normal 0 0 -1
    outer loop
      vertex 28 28 0
      vertex 33.9779 25.5 0
      vertex 19.36 23.02 0
    endloop
  endfacet
  facet normal 0 0 -1
    outer loop
      vertex 19.36 23.02 0
      vertex 3.35 17 0
      vertex 28 28 0
    endloop
  endfacet
  facet normal 0 0 -1
    outer loop
      vertex 18.36 17.98 0
      vertex 16 13.5 0
      vertex 18.36 22.02 0
    endloop
  endfacet
  facet normal 0 0 -1
    outer loop
      vertex 33.9779 14.5 0
      vertex 43 14.5 0
      vertex 43 12 0
    endloop
  endfacet
  facet normal 0 0 -1
    outer loop
      vertex 33.9779 14.5 0
      vertex 43 12 0
      vertex 19.36 16.98 0
    endloop
  endfacet
  facet normal 0 0 -1
    outer loop
      vertex 19.36 16.98 0
      vertex 43 12 0
      vertex 28 12 0
    endloop
  endfacet
  facet normal 0 0 -1
    outer loop
      vertex 19.36 16.98 0
      vertex 28 12 0
      vertex 16 13.5 0
    endloop
  endfacet
  facet normal 0 0 -1
    outer loop
      vertex 19.36 16.98 0
      vertex 16 13.5 0
      vertex 18.36 17.98 0
    endloop
  endfacet
  facet normal 0 0 -1
    outer loop
      vertex 18.36 22.02 0
      vertex 16 13.5 0
      vertex 16 17 0
    endloop
  endfacet
  facet normal 0 0 -1
    outer loop
      vertex 18.36 22.02 0
      vertex 16 17 0
      vertex 3.35 17 0
    endloop
  endfacet
  facet normal 0 0 -1
    outer loop
      vertex 18.36 22.02 0
      vertex 3.35 17 0
      vertex 19.36 23.02 0
    endloop
  endfacet
  facet normal 0 0 -1
    outer loop
      vertex 16 23 0
      vertex 3.35 17 0
      vertex 3.35 23 0
    endloop
  endfacet
  facet normal 0 0 -1
    outer loop
      vertex 28 28 0
      vertex 3.35 17 0
      vertex 16 23 0
    endloop
  endfacet
  facet normal 0 0 -1
    outer loop
      vertex 16 26.5 0
      vertex 28 28 0
      vertex 16 23 0
    endloop
  endfacet
  facet normal 0.163001 -0.960779 0.224352
    outer loop
      vertex 33.536 25.5 0.321032
      vertex 19.36 23.02 0
      vertex 33.9779 25.5 0
    endloop
  endfacet
  facet normal 0.167059 -0.974405 0.150421
    outer loop
      vertex 32.1847 25.5 1.82184
      vertex 19.36 23.02 0
      vertex 33.536 25.5 0.321032
    endloop
  endfacet
  facet normal 0.175031 -0.979363 0.101054
    outer loop
      vertex 31.1749 25.5 3.57082
      vertex 19.36 23.02 0
      vertex 32.1847 25.5 1.82184
    endloop
  endfacet
  facet normal 0.187388 -0.980397 0.060886
    outer loop
      vertex 30.5508 25.5 5.49152
      vertex 19.36 23.02 0
      vertex 31.1749 25.5 3.57082
    endloop
  endfacet
  facet normal 0.206163 -0.978278 0.0216686
    outer loop
      vertex 30.3397 25.5 7.5
      vertex 19.36 23.02 0
      vertex 30.5508 25.5 5.49152
    endloop
  endfacet
  facet normal 0.22032 -0.975428 0
    outer loop
      vertex 19.36 23.02 15
      vertex 19.36 23.02 0
      vertex 30.3397 25.5 7.5
    endloop
  endfacet
  facet normal 0.206163 -0.978278 -0.0216686
    outer loop
      vertex 19.36 23.02 15
      vertex 30.3397 25.5 7.5
      vertex 30.5508 25.5 9.50848
    endloop
  endfacet
  facet normal 0.187388 -0.980397 -0.060886
    outer loop
      vertex 19.36 23.02 15
      vertex 30.5508 25.5 9.50848
      vertex 31.1749 25.5 11.4292
    endloop
  endfacet
  facet normal 0.175031 -0.979363 -0.101054
    outer loop
      vertex 19.36 23.02 15
      vertex 31.1749 25.5 11.4292
      vertex 32.1847 25.5 13.1782
    endloop
  endfacet
  facet normal 0.167059 -0.974405 -0.150421
    outer loop
      vertex 19.36 23.02 15
      vertex 32.1847 25.5 13.1782
      vertex 33.536 25.5 14.679
    endloop
  endfacet
  facet normal 0.163001 -0.960779 -0.224352
    outer loop
      vertex 19.36 23.02 15
      vertex 33.536 25.5 14.679
      vertex 33.9779 25.5 15
    endloop
  endfacet
  facet normal 0 0 1
    outer loop
      vertex 43 25.5 15
      vertex 43 28 15
      vertex 28 28 15
    endloop
  endfacet
  facet normal 0 0 1
    outer loop
      vertex 33.9779 25.5 15
      vertex 43 25.5 15
      vertex 16 26.5 15
    endloop
  endfacet
  facet normal 0 0 1
    outer loop
      vertex 16 26.5 15
      vertex 43 25.5 15
      vertex 28 28 15
    endloop
  endfacet
  facet normal 0 0 1
    outer loop
      vertex 3.35 17 15
      vertex 16 23 15
      vertex 3.35 23 15
    endloop
  endfacet
  facet normal 0 0 1
    outer loop
      vertex 19.36 23.02 15
      vertex 33.9779 25.5 15
      vertex 16 23 15
    endloop
  endfacet
  facet normal 0 0 1
    outer loop
      vertex 18.36 17.98 15
      vertex 18.36 22.02 15
      vertex 3.35 17 15
    endloop
  endfacet
  facet normal 0 0 1
    outer loop
      vertex 19.36 16.98 15
      vertex 18.36 17.98 15
      vertex 16 17 15
    endloop
  endfacet
  facet normal 0 0 1
    outer loop
      vertex 43 12 15
      vertex 43 14.5 15
      vertex 28 12 15
    endloop
  endfacet
  facet normal 0 0 1
    outer loop
      vertex 43 14.5 15
      vertex 33.9779 14.5 15
      vertex 28 12 15
    endloop
  endfacet
  facet normal 0 0 1
    outer loop
      vertex 16 13.5 15
      vertex 19.36 16.98 15
      vertex 16 17 15
    endloop
  endfacet
  facet normal 0 0 1
    outer loop
      vertex 16 17 15
      vertex 18.36 17.98 15
      vertex 3.35 17 15
    endloop
  endfacet
  facet normal 0 0 1
    outer loop
      vertex 3.35 17 15
      vertex 18.36 22.02 15
      vertex 16 23 15
    endloop
  endfacet
  facet normal 0 0 1
    outer loop
      vertex 18.36 22.02 15
      vertex 19.36 23.02 15
      vertex 16 23 15
    endloop
  endfacet
  facet normal 0 0 1
    outer loop
      vertex 16 23 15
      vertex 33.9779 25.5 15
      vertex 16 26.5 15
    endloop
  endfacet
  facet normal 0 0 1
    outer loop
      vertex 33.9779 14.5 15
      vertex 16 13.5 15
      vertex 28 12 15
    endloop
  endfacet
  facet normal 0 0 1
    outer loop
      vertex 33.9779 14.5 15
      vertex 19.36 16.98 15
      vertex 16 13.5 15
    endloop
  endfacet
  facet normal 0.497934 -6.09774e-17 0.867215
    outer loop
      vertex 44.75 25.5 13.9952
      vertex 44.75 28 13.9952
      vertex 43 28 15
    endloop
  endfacet
  facet normal 0.497934 -6.09774e-17 0.867215
    outer loop
      vertex 43 25.5 15
      vertex 44.75 25.5 13.9952
      vertex 43 28 15
    endloop
  endfacet
  facet normal 0.608762 -7.45493e-17 0.793353
    outer loop
      vertex 46.3033 25.5 12.8033
      vertex 46.3033 28 12.8033
      vertex 44.75 28 13.9952
    endloop
  endfacet
  facet normal 0.608762 -7.45493e-17 0.793353
    outer loop
      vertex 44.75 25.5 13.9952
      vertex 46.3033 25.5 12.8033
      vertex 44.75 28 13.9952
    endloop
  endfacet
  facet normal -0.707107 8.65927e-17 0.707107
    outer loop
      vertex 16 23 15
      vertex 16 26.5 15
      vertex 15 26.5 14
    endloop
  endfacet
  facet normal -0.707107 8.65927e-17 0.707107
    outer loop
      vertex 15 24 14
      vertex 16 23 15
      vertex 15 26.5 14
    endloop
  endfacet
  facet normal -0.57735 0.57735 0.57735
    outer loop
      vertex 16 26.5 15
      vertex 16 27.5 14
      vertex 15 26.5 14
    endloop
  endfacet
  facet normal -0.707107 0.707107 0
    outer loop
      vertex 16 27.5 1
      vertex 15 26.5 1
      vertex 16 27.5 14
    endloop
  endfacet
  facet normal -0.707107 0.707107 0
    outer loop
      vertex 16 27.5 14
      vertex 15 26.5 1
      vertex 15 26.5 14
    endloop
  endfacet
  facet normal -0.57735 0.57735 -0.57735
    outer loop
      vertex 15 26.5 1
      vertex 16 27.5 1
      vertex 16 26.5 0
    endloop
  endfacet
  facet normal -0.707107 8.65927e-17 -0.707107
    outer loop
      vertex 16 26.5 0
      vertex 16 23 0
      vertex 15 26.5 1
    endloop
  endfacet
  facet normal -0.707107 8.65927e-17 -0.707107
    outer loop
      vertex 15 26.5 1
      vertex 16 23 0
      vertex 15 24 1
    endloop
  endfacet
  facet normal 8.65927e-17 0.707107 -0.707107
    outer loop
      vertex 16 23 0
      vertex 3.35 23 0
      vertex 15 24 1
    endloop
  endfacet
  facet normal 8.65927e-17 0.707107 -0.707107
    outer loop
      vertex 15 24 1
      vertex 3.35 23 0
      vertex 3.35 24 1
    endloop
  endfacet
  facet normal -0.57735 0.57735 -0.57735
    outer loop
      vertex 2.35 23 1
      vertex 3.35 24 1
      vertex 3.35 23 0
    endloop
  endfacet
  facet normal -0.707107 8.65927e-17 -0.707107
    outer loop
      vertex 3.35 23 0
      vertex 3.35 17 0
      vertex 2.35 23 1
    endloop
  endfacet
  facet normal -0.707107 8.65927e-17 -0.707107
    outer loop
      vertex 2.35 23 1
      vertex 3.35 17 0
      vertex 2.35 17 1
    endloop
  endfacet
  facet normal -0.57735 -0.57735 -0.57735
    outer loop
      vertex 2.35 17 1
      vertex 3.35 17 0
      vertex 3.35 16 1
    endloop
  endfacet
  facet normal -8.65927e-17 -0.707107 -0.707107
    outer loop
      vertex 16 17 0
      vertex 15 16 1
      vertex 3.35 17 0
    endloop
  endfacet
  facet normal -8.65927e-17 -0.707107 -0.707107
    outer loop
      vertex 3.35 17 0
      vertex 15 16 1
      vertex 3.35 16 1
    endloop
  endfacet
  facet normal -0.707107 8.65927e-17 -0.707107
    outer loop
      vertex 16 17 0
      vertex 16 13.5 0
      vertex 15 16 1
    endloop
  endfacet
  facet normal -0.707107 8.65927e-17 -0.707107
    outer loop
      vertex 15 16 1
      vertex 16 13.5 0
      vertex 15 13.5 1
    endloop
  endfacet
  facet normal -0.0880451 -0.704361 -0.704361
    outer loop
      vertex 28 12 0
      vertex 28 11 1
      vertex 16 13.5 0
    endloop
  endfacet
  facet normal -0.0880451 -0.704361 -0.704361
    outer loop
      vertex 16 13.5 0
      vertex 28 11 1
      vertex 16 12.5 1
    endloop
  endfacet
  facet normal -0.57735 -0.57735 -0.57735
    outer loop
      vertex 15 13.5 1
      vertex 16 13.5 0
      vertex 16 12.5 1
    endloop
  endfacet
  facet normal -8.65927e-17 -0.707107 -0.707107
    outer loop
      vertex 43 12 0
      vertex 43 11 1
      vertex 28 12 0
    endloop
  endfacet
  facet normal -8.65927e-17 -0.707107 -0.707107
    outer loop
      vertex 28 12 0
      vertex 43 11 1
      vertex 28 11 1
    endloop
  endfacet
  facet normal 0.497934 -6.09774e-17 -0.867215
    outer loop
      vertex 44.75 14.5 1.00481
      vertex 44.75 12 1.00481
      vertex 43 14.5 0
    endloop
  endfacet
  facet normal 0.497934 -6.09774e-17 -0.867215
    outer loop
      vertex 43 14.5 0
      vertex 44.75 12 1.00481
      vertex 43 12 0
    endloop
  endfacet
  facet normal 0.376182 -0.655167 -0.655167
    outer loop
      vertex 43 12 0
      vertex 44.75 12 1.00481
      vertex 43 11 1
    endloop
  endfacet
  facet normal 1.22461e-16 1 0
    outer loop
      vertex 47.4952 14.5 3.75
      vertex 46.3033 14.5 2.1967
      vertex 48.2444 14.5 5.55886
    endloop
  endfacet
  facet normal 1.22461e-16 1 0
    outer loop
      vertex 48.2444 14.5 5.55886
      vertex 46.3033 14.5 2.1967
      vertex 44.75 14.5 1.00481
    endloop
  endfacet
  facet normal 1.22461e-16 1 0
    outer loop
      vertex 48.2444 14.5 5.55886
      vertex 44.75 14.5 1.00481
      vertex 43 14.5 0
    endloop
  endfacet
  facet normal 1.22461e-16 1 0
    outer loop
      vertex 48.2444 14.5 5.55886
      vertex 43 14.5 0
      vertex 33.9779 14.5 0
    endloop
  endfacet
  facet normal 1.22461e-16 1 0
    outer loop
      vertex 48.2444 14.5 5.55886
      vertex 33.9779 14.5 0
      vertex 33.536 14.5 0.321032
    endloop
  endfacet
  facet normal 1.22461e-16 1 0
    outer loop
      vertex 48.2444 14.5 5.55886
      vertex 33.536 14.5 0.321032
      vertex 32.1847 14.5 1.82184
    endloop
  endfacet
  facet normal 1.22461e-16 1 0
    outer loop
      vertex 48.2444 14.5 5.55886
      vertex 32.1847 14.5 1.82184
      vertex 31.1749 14.5 3.57082
    endloop
  endfacet
  facet normal 1.22461e-16 1 0
    outer loop
      vertex 48.2444 14.5 5.55886
      vertex 31.1749 14.5 3.57082
      vertex 30.5508 14.5 5.49152
    endloop
  endfacet
  facet normal 1.22461e-16 1 0
    outer loop
      vertex 38.753 14.5 5.93634
      vertex 30.5508 14.5 5.49152
      vertex 30.3397 14.5 7.5
    endloop
  endfacet
  facet normal 1.22461e-16 1 0
    outer loop
      vertex 38 14.5 7.5
      vertex 30.3397 14.5 7.5
      vertex 30.5508 14.5 9.50848
    endloop
  endfacet
  facet normal 1.22461e-16 1 0
    outer loop
      vertex 38 14.5 7.5
      vertex 31.1749 14.5 11.4292
      vertex 38.753 14.5 9.06366
    endloop
  endfacet
  facet normal 1.22461e-16 1 0
    outer loop
      vertex 40.445 14.5 9.44986
      vertex 32.1847 14.5 13.1782
      vertex 33.536 14.5 14.679
    endloop
  endfacet
  facet normal 1.22461e-16 1 0
    outer loop
      vertex 48.2444 14.5 5.55886
      vertex 33.536 14.5 14.679
      vertex 33.9779 14.5 15
    endloop
  endfacet
  facet normal 1.22461e-16 1 0
    outer loop
      vertex 48.2444 14.5 5.55886
      vertex 33.9779 14.5 15
      vertex 43 14.5 15
    endloop
  endfacet
  facet normal 1.22461e-16 1 0
    outer loop
      vertex 48.2444 14.5 5.55886
      vertex 43 14.5 15
      vertex 44.75 14.5 13.9952
    endloop
  endfacet
  facet normal 1.22461e-16 1 0
    outer loop
      vertex 48.2444 14.5 5.55886
      vertex 44.75 14.5 13.9952
      vertex 46.3033 14.5 12.8033
    endloop
  endfacet
  facet normal 1.22461e-16 1 0
    outer loop
      vertex 48.2444 14.5 5.55886
      vertex 46.3033 14.5 12.8033
      vertex 47.4952 14.5 11.25
    endloop
  endfacet
  facet normal 1.22461e-16 1 0
    outer loop
      vertex 48.2444 14.5 5.55886
      vertex 47.4952 14.5 11.25
      vertex 48.2444 14.5 9.44114
    endloop
  endfacet
  facet normal 1.22461e-16 1 0
    outer loop
      vertex 48.2444 14.5 5.55886
      vertex 48.2444 14.5 9.44114
      vertex 48.5 14.5 7.5
    endloop
  endfacet
  facet normal 1.22461e-16 1 0
    outer loop
      vertex 38 14.5 7.5
      vertex 30.5508 14.5 9.50848
      vertex 31.1749 14.5 11.4292
    endloop
  endfacet
  facet normal 1.22461e-16 1 0
    outer loop
      vertex 38.753 14.5 9.06366
      vertex 32.1847 14.5 13.1782
      vertex 40.445 14.5 9.44986
    endloop
  endfacet
  facet normal 1.22461e-16 1 0
    outer loop
      vertex 38.753 14.5 9.06366
      vertex 31.1749 14.5 11.4292
      vertex 32.1847 14.5 13.1782
    endloop
  endfacet
  facet normal 1.22461e-16 1 0
    outer loop
      vertex 48.2444 14.5 5.55886
      vertex 40.445 14.5 9.44986
      vertex 33.536 14.5 14.679
    endloop
  endfacet
  facet normal 1.22461e-16 1 0
    outer loop
      vertex 40.445 14.5 9.44986
      vertex 48.2444 14.5 5.55886
      vertex 41.8019 14.5 8.36777
    endloop
  endfacet
  facet normal 1.22461e-16 1 0
    outer loop
      vertex 40.445 14.5 5.55014
      vertex 30.5508 14.5 5.49152
      vertex 38.753 14.5 5.93634
    endloop
  endfacet
  facet normal 1.22461e-16 1 0
    outer loop
      vertex 41.8019 14.5 6.63223
      vertex 48.2444 14.5 5.55886
      vertex 40.445 14.5 5.55014
    endloop
  endfacet
  facet normal 1.22461e-16 1 0
    outer loop
      vertex 48.2444 14.5 5.55886
      vertex 30.5508 14.5 5.49152
      vertex 40.445 14.5 5.55014
    endloop
  endfacet
  facet normal 1.22461e-16 1 0
    outer loop
      vertex 41.8019 14.5 8.36777
      vertex 48.2444 14.5 5.55886
      vertex 41.8019 14.5 6.63223
    endloop
  endfacet
  facet normal 1.22461e-16 1 0
    outer loop
      vertex 38.753 14.5 5.93634
      vertex 30.3397 14.5 7.5
      vertex 38 14.5 7.5
    endloop
  endfacet
  facet normal 0.163001 0.960779 0.224352
    outer loop
      vertex 19.36 16.98 0
      vertex 33.536 14.5 0.321032
      vertex 33.9779 14.5 0
    endloop
  endfacet
  facet normal 0.167059 0.974405 0.150421
    outer loop
      vertex 19.36 16.98 0
      vertex 32.1847 14.5 1.82184
      vertex 33.536 14.5 0.321032
    endloop
  endfacet
  facet normal 0.175031 0.979363 0.101054
    outer loop
      vertex 19.36 16.98 0
      vertex 31.1749 14.5 3.57082
      vertex 32.1847 14.5 1.82184
    endloop
  endfacet
  facet normal 0.187388 0.980397 0.060886
    outer loop
      vertex 19.36 16.98 0
      vertex 30.5508 14.5 5.49152
      vertex 31.1749 14.5 3.57082
    endloop
  endfacet
  facet normal 0.206163 0.978278 0.0216686
    outer loop
      vertex 19.36 16.98 0
      vertex 30.3397 14.5 7.5
      vertex 30.5508 14.5 5.49152
    endloop
  endfacet
  facet normal 0.22032 0.975428 0
    outer loop
      vertex 19.36 16.98 0
      vertex 19.36 16.98 15
      vertex 30.3397 14.5 7.5
    endloop
  endfacet
  facet normal 0.707107 0.707107 0
    outer loop
      vertex 18.36 17.98 15
      vertex 19.36 16.98 15
      vertex 18.36 17.98 0
    endloop
  endfacet
  facet normal 0.707107 0.707107 0
    outer loop
      vertex 18.36 17.98 0
      vertex 19.36 16.98 15
      vertex 19.36 16.98 0
    endloop
  endfacet
  facet normal 1 -1.22461e-16 0
    outer loop
      vertex 18.36 18.5 7.5
      vertex 18.36 17.98 15
      vertex 18.36 17.98 0
    endloop
  endfacet
  facet normal 1 -1.22461e-16 0
    outer loop
      vertex 18.36 18.5 7.5
      vertex 18.36 19.25 8.79904
      vertex 18.36 17.98 15
    endloop
  endfacet
  facet normal 1 -1.22461e-16 0
    outer loop
      vertex 18.36 22.02 0
      vertex 18.36 21.5 7.5
      vertex 18.36 17.98 0
    endloop
  endfacet
  facet normal 1 -1.22461e-16 0
    outer loop
      vertex 18.36 22.02 0
      vertex 18.36 22.02 15
      vertex 18.36 21.5 7.5
    endloop
  endfacet
  facet normal 1 -1.22461e-16 0
    outer loop
      vertex 18.36 21.5 7.5
      vertex 18.36 20.75 6.20096
      vertex 18.36 17.98 0
    endloop
  endfacet
  facet normal 1 -1.22461e-16 0
    outer loop
      vertex 18.36 19.25 6.20096
      vertex 18.36 18.5 7.5
      vertex 18.36 17.98 0
    endloop
  endfacet
  facet normal 1 -1.22461e-16 0
    outer loop
      vertex 18.36 19.25 8.79904
      vertex 18.36 20.75 8.79904
      vertex 18.36 22.02 15
    endloop
  endfacet
  facet normal 1 -1.22461e-16 0
    outer loop
      vertex 18.36 22.02 15
      vertex 18.36 17.98 15
      vertex 18.36 19.25 8.79904
    endloop
  endfacet
  facet normal 1 -1.22461e-16 0
    outer loop
      vertex 18.36 20.75 8.79904
      vertex 18.36 21.5 7.5
      vertex 18.36 22.02 15
    endloop
  endfacet
  facet normal 1 -1.22461e-16 0
    outer loop
      vertex 18.36 20.75 6.20096
      vertex 18.36 19.25 6.20096
      vertex 18.36 17.98 0
    endloop
  endfacet
  facet normal 0.707107 -0.707107 0
    outer loop
      vertex 19.36 23.02 15
      vertex 18.36 22.02 15
      vertex 18.36 22.02 0
    endloop
  endfacet
  facet normal 0.707107 -0.707107 0
    outer loop
      vertex 19.36 23.02 0
      vertex 19.36 23.02 15
      vertex 18.36 22.02 0
    endloop
  endfacet
  facet normal 0.206163 0.978278 -0.0216686
    outer loop
      vertex 30.3397 14.5 7.5
      vertex 19.36 16.98 15
      vertex 30.5508 14.5 9.50848
    endloop
  endfacet
  facet normal 0.187388 0.980397 -0.060886
    outer loop
      vertex 30.5508 14.5 9.50848
      vertex 19.36 16.98 15
      vertex 31.1749 14.5 11.4292
    endloop
  endfacet
  facet normal 0.175031 0.979363 -0.101054
    outer loop
      vertex 31.1749 14.5 11.4292
      vertex 19.36 16.98 15
      vertex 32.1847 14.5 13.1782
    endloop
  endfacet
  facet normal 0.167059 0.974405 -0.150421
    outer loop
      vertex 32.1847 14.5 13.1782
      vertex 19.36 16.98 15
      vertex 33.536 14.5 14.679
    endloop
  endfacet
  facet normal 0.163001 0.960779 -0.224352
    outer loop
      vertex 33.536 14.5 14.679
      vertex 19.36 16.98 15
      vertex 33.9779 14.5 15
    endloop
  endfacet
  facet normal 0.497934 -6.09774e-17 0.867215
    outer loop
      vertex 44.75 12 13.9952
      vertex 44.75 14.5 13.9952
      vertex 43 14.5 15
    endloop
  endfacet
  facet normal 0.497934 -6.09774e-17 0.867215
    outer loop
      vertex 43 12 15
      vertex 44.75 12 13.9952
      vertex 43 14.5 15
    endloop
  endfacet
  facet normal 0.376182 -0.655167 0.655167
    outer loop
      vertex 43 11 14
      vertex 44.75 12 13.9952
      vertex 43 12 15
    endloop
  endfacet
  facet normal -8.65927e-17 -0.707107 0.707107
    outer loop
      vertex 43 11 14
      vertex 43 12 15
      vertex 28 12 15
    endloop
  endfacet
  facet normal -8.65927e-17 -0.707107 0.707107
    outer loop
      vertex 28 11 14
      vertex 43 11 14
      vertex 28 12 15
    endloop
  endfacet
  facet normal -0.0880451 -0.704361 0.704361
    outer loop
      vertex 28 11 14
      vertex 28 12 15
      vertex 16 13.5 15
    endloop
  endfacet
  facet normal -0.0880451 -0.704361 0.704361
    outer loop
      vertex 16 12.5 14
      vertex 28 11 14
      vertex 16 13.5 15
    endloop
  endfacet
  facet normal -0.57735 -0.57735 0.57735
    outer loop
      vertex 16 12.5 14
      vertex 16 13.5 15
      vertex 15 13.5 14
    endloop
  endfacet
  facet normal -0.707107 8.65927e-17 0.707107
    outer loop
      vertex 16 13.5 15
      vertex 16 17 15
      vertex 15 16 14
    endloop
  endfacet
  facet normal -0.707107 8.65927e-17 0.707107
    outer loop
      vertex 15 13.5 14
      vertex 16 13.5 15
      vertex 15 16 14
    endloop
  endfacet
  facet normal -8.65927e-17 -0.707107 0.707107
    outer loop
      vertex 15 16 14
      vertex 16 17 15
      vertex 3.35 17 15
    endloop
  endfacet
  facet normal -8.65927e-17 -0.707107 0.707107
    outer loop
      vertex 3.35 16 14
      vertex 15 16 14
      vertex 3.35 17 15
    endloop
  endfacet
  facet normal -0.57735 -0.57735 0.57735
    outer loop
      vertex 3.35 16 14
      vertex 3.35 17 15
      vertex 2.35 17 14
    endloop
  endfacet
  facet normal -0.707107 8.65927e-17 0.707107
    outer loop
      vertex 3.35 17 15
      vertex 3.35 23 15
      vertex 2.35 23 14
    endloop
  endfacet
  facet normal -0.707107 8.65927e-17 0.707107
    outer loop
      vertex 2.35 17 14
      vertex 3.35 17 15
      vertex 2.35 23 14
    endloop
  endfacet
  facet normal 8.65927e-17 0.707107 0.707107
    outer loop
      vertex 3.35 23 15
      vertex 16 23 15
      vertex 15 24 14
    endloop
  endfacet
  facet normal 8.65927e-17 0.707107 0.707107
    outer loop
      vertex 3.35 24 14
      vertex 3.35 23 15
      vertex 15 24 14
    endloop
  endfacet
  facet normal -0.57735 0.57735 0.57735
    outer loop
      vertex 3.35 23 15
      vertex 3.35 24 14
      vertex 2.35 23 14
    endloop
  endfacet
  facet normal 1.22461e-16 1 0
    outer loop
      vertex 15 24 1
      vertex 3.35 24 1
      vertex 15 24 14
    endloop
  endfacet
  facet normal 1.22461e-16 1 0
    outer loop
      vertex 15 24 14
      vertex 3.35 24 1
      vertex 3.35 24 14
    endloop
  endfacet
  facet normal -1 1.22461e-16 0
    outer loop
      vertex 15 26.5 1
      vertex 15 24 1
      vertex 15 26.5 14
    endloop
  endfacet
  facet normal -1 1.22461e-16 0
    outer loop
      vertex 15 26.5 14
      vertex 15 24 1
      vertex 15 24 14
    endloop
  endfacet
  facet normal -0.707107 0.707107 0
    outer loop
      vertex 3.35 24 1
      vertex 2.35 23 1
      vertex 3.35 24 14
    endloop
  endfacet
  facet normal -0.707107 0.707107 0
    outer loop
      vertex 3.35 24 14
      vertex 2.35 23 1
      vertex 2.35 23 14
    endloop
  endfacet
  facet normal -1 1.22461e-16 0
    outer loop
      vertex 2.35 18.5 7.5
      vertex 2.35 17 1
      vertex 2.35 17 14
    endloop
  endfacet
  facet normal -1 1.22461e-16 0
    outer loop
      vertex 2.35 23 1
      vertex 2.35 21.5 7.5
      vertex 2.35 23 14
    endloop
  endfacet
  facet normal -1 1.22461e-16 0
    outer loop
      vertex 2.35 21.5 7.5
      vertex 2.35 20.75 8.79904
      vertex 2.35 23 14
    endloop
  endfacet
  facet normal -1 1.22461e-16 0
    outer loop
      vertex 2.35 20.75 6.20096
      vertex 2.35 17 1
      vertex 2.35 19.25 6.20096
    endloop
  endfacet
  facet normal -1 1.22461e-16 0
    outer loop
      vertex 2.35 23 14
      vertex 2.35 19.25 8.79904
      vertex 2.35 17 14
    endloop
  endfacet
  facet normal -1 1.22461e-16 0
    outer loop
      vertex 2.35 19.25 8.79904
      vertex 2.35 18.5 7.5
      vertex 2.35 17 14
    endloop
  endfacet
  facet normal -1 1.22461e-16 0
    outer loop
      vertex 2.35 19.25 6.20096
      vertex 2.35 17 1
      vertex 2.35 18.5 7.5
    endloop
  endfacet
  facet normal -1 1.22461e-16 0
    outer loop
      vertex 2.35 23 1
      vertex 2.35 17 1
      vertex 2.35 20.75 6.20096
    endloop
  endfacet
  facet normal -1 1.22461e-16 0
    outer loop
      vertex 2.35 23 1
      vertex 2.35 20.75 6.20096
      vertex 2.35 21.5 7.5
    endloop
  endfacet
  facet normal -1 1.22461e-16 0
    outer loop
      vertex 2.35 19.25 8.79904
      vertex 2.35 23 14
      vertex 2.35 20.75 8.79904
    endloop
  endfacet
  facet normal -0.707107 -0.707107 0
    outer loop
      vertex 3.35 16 1
      vertex 3.35 16 14
      vertex 2.35 17 1
    endloop
  endfacet
  facet normal -0.707107 -0.707107 0
    outer loop
      vertex 2.35 17 1
      vertex 3.35 16 14
      vertex 2.35 17 14
    endloop
  endfacet
  facet normal -1.22461e-16 -1 0
    outer loop
      vertex 12.035 16 10.4982
      vertex 15 16 1
      vertex 15 16 14
    endloop
  endfacet
  facet normal -1.22461e-16 -1 0
    outer loop
      vertex 9.535 16 4.50184
      vertex 9.535 16 10.4982
      vertex 3.35 16 1
    endloop
  endfacet
  facet normal -1.22461e-16 -1 0
    outer loop
      vertex 12.035 16 4.50184
      vertex 15 16 1
      vertex 12.035 16 10.4982
    endloop
  endfacet
  facet normal -1.22461e-16 -1 0
    outer loop
      vertex 3.35 16 1
      vertex 15 16 1
      vertex 12.035 16 4.50184
    endloop
  endfacet
  facet normal -1.22461e-16 -1 0
    outer loop
      vertex 3.35 16 1
      vertex 12.035 16 4.50184
      vertex 9.535 16 4.50184
    endloop
  endfacet
  facet normal -1.22461e-16 -1 0
    outer loop
      vertex 3.35 16 14
      vertex 9.535 16 10.4982
      vertex 15 16 14
    endloop
  endfacet
  facet normal -1.22461e-16 -1 0
    outer loop
      vertex 3.35 16 14
      vertex 3.35 16 1
      vertex 9.535 16 10.4982
    endloop
  endfacet
  facet normal -1.22461e-16 -1 0
    outer loop
      vertex 9.535 16 10.4982
      vertex 12.035 16 10.4982
      vertex 15 16 14
    endloop
  endfacet
  facet normal -1 1.22461e-16 0
    outer loop
      vertex 15 16 1
      vertex 15 13.5 1
      vertex 15 16 14
    endloop
  endfacet
  facet normal -1 1.22461e-16 0
    outer loop
      vertex 15 16 14
      vertex 15 13.5 1
      vertex 15 13.5 14
    endloop
  endfacet
  facet normal -0.707107 -0.707107 0
    outer loop
      vertex 16 12.5 1
      vertex 16 12.5 14
      vertex 15 13.5 1
    endloop
  endfacet
  facet normal -0.707107 -0.707107 0
    outer loop
      vertex 15 13.5 1
      vertex 16 12.5 14
      vertex 15 13.5 14
    endloop
  endfacet
  facet normal -0.124035 -0.992278 0
    outer loop
      vertex 16 12.5 1
      vertex 28 11 1
      vertex 28 11 14
    endloop
  endfacet
  facet normal -0.124035 -0.992278 0
    outer loop
      vertex 16 12.5 14
      vertex 16 12.5 1
      vertex 28 11 14
    endloop
  endfacet
  facet normal -1.22461e-16 -1 0
    outer loop
      vertex 46.8563 11 4.67976
      vertex 47.4274 11 6.53123
      vertex 47.4274 11 8.46877
    endloop
  endfacet
  facet normal -1.22461e-16 -1 0
    outer loop
      vertex 45.7648 11 11.9211
      vertex 46.8563 11 4.67976
      vertex 46.8563 11 10.3202
    endloop
  endfacet
  facet normal -1.22461e-16 -1 0
    outer loop
      vertex 46.8563 11 10.3202
      vertex 46.8563 11 4.67976
      vertex 47.4274 11 8.46877
    endloop
  endfacet
  facet normal -1.22461e-16 -1 0
    outer loop
      vertex 44.25 11 13.1292
      vertex 46.8563 11 4.67976
      vertex 45.7648 11 11.9211
    endloop
  endfacet
  facet normal -1.22461e-16 -1 0
    outer loop
      vertex 43 11 14
      vertex 46.8563 11 4.67976
      vertex 44.25 11 13.1292
    endloop
  endfacet
  facet normal -1.22461e-16 -1 0
    outer loop
      vertex 41.8019 11 8.36777
      vertex 46.8563 11 4.67976
      vertex 43 11 14
    endloop
  endfacet
  facet normal -1.22461e-16 -1 0
    outer loop
      vertex 43 11 1
      vertex 46.8563 11 4.67976
      vertex 28 11 1
    endloop
  endfacet
  facet normal -1.22461e-16 -1 0
    outer loop
      vertex 44.25 11 1.87084
      vertex 46.8563 11 4.67976
      vertex 43 11 1
    endloop
  endfacet
  facet normal -1.22461e-16 -1 0
    outer loop
      vertex 45.7648 11 3.07888
      vertex 46.8563 11 4.67976
      vertex 44.25 11 1.87084
    endloop
  endfacet
  facet normal -1.22461e-16 -1 0
    outer loop
      vertex 40.445 11 9.44986
      vertex 41.8019 11 8.36777
      vertex 43 11 14
    endloop
  endfacet
  facet normal -1.22461e-16 -1 0
    outer loop
      vertex 38.753 11 9.06366
      vertex 40.445 11 9.44986
      vertex 28 11 14
    endloop
  endfacet
  facet normal -1.22461e-16 -1 0
    outer loop
      vertex 40.445 11 5.55014
      vertex 46.8563 11 4.67976
      vertex 41.8019 11 6.63223
    endloop
  endfacet
  facet normal -1.22461e-16 -1 0
    outer loop
      vertex 38 11 7.5
      vertex 38.753 11 9.06366
      vertex 28 11 14
    endloop
  endfacet
  facet normal -1.22461e-16 -1 0
    outer loop
      vertex 28 11 1
      vertex 46.8563 11 4.67976
      vertex 40.445 11 5.55014
    endloop
  endfacet
  facet normal -1.22461e-16 -1 0
    outer loop
      vertex 28 11 1
      vertex 38.753 11 5.93634
      vertex 28 11 14
    endloop
  endfacet
  facet normal -1.22461e-16 -1 0
    outer loop
      vertex 38.753 11 5.93634
      vertex 38 11 7.5
      vertex 28 11 14
    endloop
  endfacet
  facet normal -1.22461e-16 -1 0
    outer loop
      vertex 40.445 11 5.55014
      vertex 38.753 11 5.93634
      vertex 28 11 1
    endloop
  endfacet
  facet normal -1.22461e-16 -1 0
    outer loop
      vertex 28 11 14
      vertex 40.445 11 9.44986
      vertex 43 11 14
    endloop
  endfacet
  facet normal -1.22461e-16 -1 0
    outer loop
      vertex 41.8019 11 8.36777
      vertex 41.8019 11 6.63223
      vertex 46.8563 11 4.67976
    endloop
  endfacet
  facet normal 0.404929 -0.70583 -0.581237
    outer loop
      vertex 43 11 1
      vertex 44.75 12 1.00481
      vertex 44.25 11 1.87084
    endloop
  endfacet
  facet normal 0.432305 -0.704063 -0.56339
    outer loop
      vertex 44.75 12 1.00481
      vertex 46.3033 12 2.1967
      vertex 44.25 11 1.87084
    endloop
  endfacet
  facet normal 0.608762 -7.45493e-17 -0.793353
    outer loop
      vertex 46.3033 14.5 2.1967
      vertex 46.3033 12 2.1967
      vertex 44.75 14.5 1.00481
    endloop
  endfacet
  facet normal 0.608762 -7.45493e-17 -0.793353
    outer loop
      vertex 44.75 14.5 1.00481
      vertex 46.3033 12 2.1967
      vertex 44.75 12 1.00481
    endloop
  endfacet
  facet normal 0.991445 -1.21413e-16 -0.130526
    outer loop
      vertex 48.2444 14.5 5.55886
      vertex 48.5 14.5 7.5
      vertex 48.5 12 7.5
    endloop
  endfacet
  facet normal 0.991445 -1.21413e-16 -0.130526
    outer loop
      vertex 48.2444 12 5.55886
      vertex 48.2444 14.5 5.55886
      vertex 48.5 12 7.5
    endloop
  endfacet
  facet normal 0.92388 -1.13139e-16 -0.382683
    outer loop
      vertex 47.4952 14.5 3.75
      vertex 48.2444 14.5 5.55886
      vertex 48.2444 12 5.55886
    endloop
  endfacet
  facet normal 0.92388 -1.13139e-16 -0.382683
    outer loop
      vertex 47.4952 12 3.75
      vertex 47.4952 14.5 3.75
      vertex 48.2444 12 5.55886
    endloop
  endfacet
  facet normal 0.991445 -1.21413e-16 0.130526
    outer loop
      vertex 48.5 12 7.5
      vertex 48.5 14.5 7.5
      vertex 48.2444 14.5 9.44114
    endloop
  endfacet
  facet normal 0.991445 -1.21413e-16 0.130526
    outer loop
      vertex 48.2444 12 9.44114
      vertex 48.5 12 7.5
      vertex 48.2444 14.5 9.44114
    endloop
  endfacet
  facet normal 0.92388 -1.13139e-16 0.382683
    outer loop
      vertex 48.2444 12 9.44114
      vertex 48.2444 14.5 9.44114
      vertex 47.4952 14.5 11.25
    endloop
  endfacet
  facet normal 0.92388 -1.13139e-16 0.382683
    outer loop
      vertex 47.4952 12 11.25
      vertex 48.2444 12 9.44114
      vertex 47.4952 14.5 11.25
    endloop
  endfacet
  facet normal 0.793353 -9.71545e-17 0.608762
    outer loop
      vertex 47.4952 12 11.25
      vertex 47.4952 14.5 11.25
      vertex 46.3033 14.5 12.8033
    endloop
  endfacet
  facet normal 0.793353 -9.71545e-17 0.608762
    outer loop
      vertex 46.3033 12 12.8033
      vertex 47.4952 12 11.25
      vertex 46.3033 14.5 12.8033
    endloop
  endfacet
  facet normal 0.608762 -7.45493e-17 0.793353
    outer loop
      vertex 46.3033 12 12.8033
      vertex 46.3033 14.5 12.8033
      vertex 44.75 14.5 13.9952
    endloop
  endfacet
  facet normal 0.608762 -7.45493e-17 0.793353
    outer loop
      vertex 44.75 12 13.9952
      vertex 46.3033 12 12.8033
      vertex 44.75 14.5 13.9952
    endloop
  endfacet
  facet normal 0.793353 -9.71545e-17 -0.608762
    outer loop
      vertex 46.3033 14.5 2.1967
      vertex 47.4952 14.5 3.75
      vertex 47.4952 12 3.75
    endloop
  endfacet
  facet normal 0.793353 -9.71545e-17 -0.608762
    outer loop
      vertex 46.3033 12 2.1967
      vertex 46.3033 14.5 2.1967
      vertex 47.4952 12 3.75
    endloop
  endfacet
  facet normal -0.62349 -9.72484e-17 -0.781831
    outer loop
      vertex 40.445 11 9.44986
      vertex 40.445 14.5 9.44986
      vertex 41.8019 11 8.36777
    endloop
  endfacet
  facet normal -0.62349 -9.72484e-17 -0.781831
    outer loop
      vertex 41.8019 11 8.36777
      vertex 40.445 14.5 9.44986
      vertex 41.8019 14.5 8.36777
    endloop
  endfacet
  facet normal -1 1.22461e-16 0
    outer loop
      vertex 41.8019 11 8.36777
      vertex 41.8019 14.5 8.36777
      vertex 41.8019 11 6.63223
    endloop
  endfacet
  facet normal -1 1.22461e-16 0
    outer loop
      vertex 41.8019 11 6.63223
      vertex 41.8019 14.5 8.36777
      vertex 41.8019 14.5 6.63223
    endloop
  endfacet
  facet normal -0.62349 2.49954e-16 0.781831
    outer loop
      vertex 40.445 14.5 5.55014
      vertex 40.445 11 5.55014
      vertex 41.8019 11 6.63223
    endloop
  endfacet
  facet normal -0.62349 2.49954e-16 0.781831
    outer loop
      vertex 41.8019 14.5 6.63223
      vertex 40.445 14.5 5.55014
      vertex 41.8019 11 6.63223
    endloop
  endfacet
  facet normal 0.222521 1.89227e-16 0.974928
    outer loop
      vertex 38.753 14.5 5.93634
      vertex 38.753 11 5.93634
      vertex 40.445 11 5.55014
    endloop
  endfacet
  facet normal 0.222521 1.89227e-16 0.974928
    outer loop
      vertex 40.445 14.5 5.55014
      vertex 38.753 14.5 5.93634
      vertex 40.445 11 5.55014
    endloop
  endfacet
  facet normal 0.900969 -1.39917e-17 0.433884
    outer loop
      vertex 38 14.5 7.5
      vertex 38 11 7.5
      vertex 38.753 11 5.93634
    endloop
  endfacet
  facet normal 0.900969 -1.39917e-17 0.433884
    outer loop
      vertex 38.753 14.5 5.93634
      vertex 38 14.5 7.5
      vertex 38.753 11 5.93634
    endloop
  endfacet
  facet normal 0.900969 -2.06675e-16 -0.433884
    outer loop
      vertex 38.753 11 9.06366
      vertex 38 11 7.5
      vertex 38 14.5 7.5
    endloop
  endfacet
  facet normal 0.900969 -2.06675e-16 -0.433884
    outer loop
      vertex 38.753 14.5 9.06366
      vertex 38.753 11 9.06366
      vertex 38 14.5 7.5
    endloop
  endfacet
  facet normal 0.222521 -2.43728e-16 -0.974928
    outer loop
      vertex 38.753 11 9.06366
      vertex 38.753 14.5 9.06366
      vertex 40.445 11 9.44986
    endloop
  endfacet
  facet normal 0.222521 -2.43728e-16 -0.974928
    outer loop
      vertex 40.445 11 9.44986
      vertex 38.753 14.5 9.06366
      vertex 40.445 14.5 9.44986
    endloop
  endfacet
  facet normal -2.17076e-16 -0.866025 -0.5
    outer loop
      vertex 18.36 20.75 8.79904
      vertex 12.035 20.75 8.79904
      vertex 12.035 21.5 7.5
    endloop
  endfacet
  facet normal -2.17076e-16 -0.866025 -0.5
    outer loop
      vertex 18.36 21.5 7.5
      vertex 18.36 20.75 8.79904
      vertex 12.035 21.5 7.5
    endloop
  endfacet
  facet normal 4.96828e-18 -0.866025 0.5
    outer loop
      vertex 12.035 21.5 7.5
      vertex 12.035 20.75 6.20096
      vertex 18.36 20.75 6.20096
    endloop
  endfacet
  facet normal 4.96828e-18 -0.866025 0.5
    outer loop
      vertex 18.36 21.5 7.5
      vertex 12.035 21.5 7.5
      vertex 18.36 20.75 6.20096
    endloop
  endfacet
  facet normal -2.22045e-16 3.52256e-08 -1
    outer loop
      vertex 12.035 19.25 8.79904
      vertex 12.035 20.75 8.79904
      vertex 18.36 19.25 8.79904
    endloop
  endfacet
  facet normal -2.22045e-16 3.52256e-08 -1
    outer loop
      vertex 18.36 19.25 8.79904
      vertex 12.035 20.75 8.79904
      vertex 18.36 20.75 8.79904
    endloop
  endfacet
  facet normal -4.96828e-18 0.866025 -0.5
    outer loop
      vertex 12.035 18.5 7.5
      vertex 12.035 19.25 8.79904
      vertex 18.36 18.5 7.5
    endloop
  endfacet
  facet normal -4.96828e-18 0.866025 -0.5
    outer loop
      vertex 18.36 18.5 7.5
      vertex 12.035 19.25 8.79904
      vertex 18.36 19.25 8.79904
    endloop
  endfacet
  facet normal 2.17076e-16 0.866025 0.5
    outer loop
      vertex 12.035 18.5 7.5
      vertex 18.36 18.5 7.5
      vertex 12.035 19.25 6.20096
    endloop
  endfacet
  facet normal 2.17076e-16 0.866025 0.5
    outer loop
      vertex 12.035 19.25 6.20096
      vertex 18.36 18.5 7.5
      vertex 18.36 19.25 6.20096
    endloop
  endfacet
  facet normal 2.22045e-16 -3.52256e-08 1
    outer loop
      vertex 12.035 20.75 6.20096
      vertex 12.035 19.25 6.20096
      vertex 18.36 19.25 6.20096
    endloop
  endfacet
  facet normal 2.22045e-16 -3.52256e-08 1
    outer loop
      vertex 18.36 20.75 6.20096
      vertex 12.035 20.75 6.20096
      vertex 18.36 19.25 6.20096
    endloop
  endfacet
  facet normal 0.404929 -0.70583 0.581237
    outer loop
      vertex 44.25 11 13.1292
      vertex 44.75 12 13.9952
      vertex 43 11 14
    endloop
  endfacet
  facet normal 0.432305 -0.704063 0.56339
    outer loop
      vertex 44.25 11 13.1292
      vertex 46.3033 12 12.8033
      vertex 44.75 12 13.9952
    endloop
  endfacet
  facet normal -2.17076e-16 -0.866025 -0.5
    outer loop
      vertex 9.535 20.75 8.79904
      vertex 2.35 20.75 8.79904
      vertex 2.35 21.5 7.5
    endloop
  endfacet
  facet normal -2.17076e-16 -0.866025 -0.5
    outer loop
      vertex 9.535 21.5 7.5
      vertex 9.535 20.75 8.79904
      vertex 2.35 21.5 7.5
    endloop
  endfacet
  facet normal 4.96828e-18 -0.866025 0.5
    outer loop
      vertex 2.35 21.5 7.5
      vertex 2.35 20.75 6.20096
      vertex 9.535 20.75 6.20096
    endloop
  endfacet
  facet normal 4.96828e-18 -0.866025 0.5
    outer loop
      vertex 9.535 21.5 7.5
      vertex 2.35 21.5 7.5
      vertex 9.535 20.75 6.20096
    endloop
  endfacet
  facet normal 2.22045e-16 -3.52256e-08 1
    outer loop
      vertex 2.35 20.75 6.20096
      vertex 2.35 19.25 6.20096
      vertex 9.535 19.25 6.20096
    endloop
  endfacet
  facet normal 2.22045e-16 -3.52256e-08 1
    outer loop
      vertex 9.535 20.75 6.20096
      vertex 2.35 20.75 6.20096
      vertex 9.535 19.25 6.20096
    endloop
  endfacet
  facet normal 2.17076e-16 0.866025 0.5
    outer loop
      vertex 2.35 18.5 7.5
      vertex 9.535 18.5 7.5
      vertex 2.35 19.25 6.20096
    endloop
  endfacet
  facet normal 2.17076e-16 0.866025 0.5
    outer loop
      vertex 2.35 19.25 6.20096
      vertex 9.535 18.5 7.5
      vertex 9.535 19.25 6.20096
    endloop
  endfacet
  facet normal -4.96828e-18 0.866025 -0.5
    outer loop
      vertex 2.35 18.5 7.5
      vertex 2.35 19.25 8.79904
      vertex 9.535 18.5 7.5
    endloop
  endfacet
  facet normal -4.96828e-18 0.866025 -0.5
    outer loop
      vertex 9.535 18.5 7.5
      vertex 2.35 19.25 8.79904
      vertex 9.535 19.25 8.79904
    endloop
  endfacet
  facet normal -2.22045e-16 3.52256e-08 -1
    outer loop
      vertex 2.35 19.25 8.79904
      vertex 2.35 20.75 8.79904
      vertex 9.535 19.25 8.79904
    endloop
  endfacet
  facet normal -2.22045e-16 3.52256e-08 -1
    outer loop
      vertex 9.535 19.25 8.79904
      vertex 2.35 20.75 8.79904
      vertex 9.535 20.75 8.79904
    endloop
  endfacet
  facet normal -1 1.22461e-16 0
    outer loop
      vertex 12.035 20.75 6.20096
      vertex 12.035 21.5877 4.75
      vertex 12.035 19.25 6.20096
    endloop
  endfacet
  facet normal -1 1.22461e-16 0
    outer loop
      vertex 12.035 20.75 8.79904
      vertex 12.035 16 10.4982
      vertex 12.035 21.5877 10.25
    endloop
  endfacet
  facet normal -1 1.22461e-16 0
    outer loop
      vertex 12.035 21.5877 4.75
      vertex 12.035 21.5877 10.25
      vertex 12.035 23.1754 7.5
    endloop
  endfacet
  facet normal -1 1.22461e-16 0
    outer loop
      vertex 12.035 19.25 8.79904
      vertex 12.035 16 10.4982
      vertex 12.035 20.75 8.79904
    endloop
  endfacet
  facet normal -1 1.22461e-16 0
    outer loop
      vertex 12.035 21.5 7.5
      vertex 12.035 20.75 8.79904
      vertex 12.035 21.5877 10.25
    endloop
  endfacet
  facet normal -1 1.22461e-16 0
    outer loop
      vertex 12.035 16 4.50184
      vertex 12.035 16 10.4982
      vertex 12.035 18.5 7.5
    endloop
  endfacet
  facet normal -1 1.22461e-16 0
    outer loop
      vertex 12.035 16 4.50184
      vertex 12.035 18.5 7.5
      vertex 12.035 19.25 6.20096
    endloop
  endfacet
  facet normal -1 1.22461e-16 0
    outer loop
      vertex 12.035 16 4.50184
      vertex 12.035 19.25 6.20096
      vertex 12.035 21.5877 4.75
    endloop
  endfacet
  facet normal -1 1.22461e-16 0
    outer loop
      vertex 12.035 21.5 7.5
      vertex 12.035 21.5877 4.75
      vertex 12.035 20.75 6.20096
    endloop
  endfacet
  facet normal -1 1.22461e-16 0
    outer loop
      vertex 12.035 21.5877 4.75
      vertex 12.035 21.5 7.5
      vertex 12.035 21.5877 10.25
    endloop
  endfacet
  facet normal -1 1.22461e-16 0
    outer loop
      vertex 12.035 18.5 7.5
      vertex 12.035 16 10.4982
      vertex 12.035 19.25 8.79904
    endloop
  endfacet
  facet normal -5.43331e-18 -0.0443678 -0.999015
    outer loop
      vertex 9.535 16 10.4982
      vertex 9.535 21.5877 10.25
      vertex 12.035 16 10.4982
    endloop
  endfacet
  facet normal -5.43331e-18 -0.0443678 -0.999015
    outer loop
      vertex 12.035 16 10.4982
      vertex 9.535 21.5877 10.25
      vertex 12.035 21.5877 10.25
    endloop
  endfacet
  facet normal 1 -1.22461e-16 0
    outer loop
      vertex 9.535 18.5 7.5
      vertex 9.535 16 10.4982
      vertex 9.535 16 4.50184
    endloop
  endfacet
  facet normal 1 -1.22461e-16 0
    outer loop
      vertex 9.535 23.1754 7.5
      vertex 9.535 21.5877 10.25
      vertex 9.535 21.5877 4.75
    endloop
  endfacet
  facet normal 1 -1.22461e-16 0
    outer loop
      vertex 9.535 19.25 8.79904
      vertex 9.535 20.75 8.79904
      vertex 9.535 21.5877 10.25
    endloop
  endfacet
  facet normal 1 -1.22461e-16 0
    outer loop
      vertex 9.535 21.5877 4.75
      vertex 9.535 21.5877 10.25
      vertex 9.535 21.5 7.5
    endloop
  endfacet
  facet normal 1 -1.22461e-16 0
    outer loop
      vertex 9.535 21.5877 4.75
      vertex 9.535 20.75 6.20096
      vertex 9.535 16 4.50184
    endloop
  endfacet
  facet normal 1 -1.22461e-16 0
    outer loop
      vertex 9.535 21.5877 4.75
      vertex 9.535 21.5 7.5
      vertex 9.535 20.75 6.20096
    endloop
  endfacet
  facet normal 1 -1.22461e-16 0
    outer loop
      vertex 9.535 20.75 6.20096
      vertex 9.535 19.25 6.20096
      vertex 9.535 16 4.50184
    endloop
  endfacet
  facet normal 1 -1.22461e-16 0
    outer loop
      vertex 9.535 19.25 8.79904
      vertex 9.535 16 10.4982
      vertex 9.535 18.5 7.5
    endloop
  endfacet
  facet normal 1 -1.22461e-16 0
    outer loop
      vertex 9.535 21.5877 10.25
      vertex 9.535 16 10.4982
      vertex 9.535 19.25 8.79904
    endloop
  endfacet
  facet normal 1 -1.22461e-16 0
    outer loop
      vertex 9.535 21.5 7.5
      vertex 9.535 21.5877 10.25
      vertex 9.535 20.75 8.79904
    endloop
  endfacet
  facet normal 1 -1.22461e-16 0
    outer loop
      vertex 9.535 19.25 6.20096
      vertex 9.535 18.5 7.5
      vertex 9.535 16 4.50184
    endloop
  endfacet
  facet normal -5.43331e-18 -0.0443678 0.999015
    outer loop
      vertex 9.535 21.5877 4.75
      vertex 9.535 16 4.50184
      vertex 12.035 16 4.50184
    endloop
  endfacet
  facet normal -5.43331e-18 -0.0443678 0.999015
    outer loop
      vertex 12.035 21.5877 4.75
      vertex 9.535 21.5877 4.75
      vertex 12.035 16 4.50184
    endloop
  endfacet
  facet normal 0.653331 -0.729757 -0.201526
    outer loop
      vertex 46.8563 11 4.67976
      vertex 48.2444 12 5.55886
      vertex 47.4274 11 6.53123
    endloop
  endfacet
  facet normal 0.67113 -0.687244 -0.277991
    outer loop
      vertex 47.4952 12 3.75
      vertex 48.2444 12 5.55886
      vertex 46.8563 11 4.67976
    endloop
  endfacet
  facet normal 0.569357 -0.724671 -0.388181
    outer loop
      vertex 45.7648 11 3.07888
      vertex 47.4952 12 3.75
      vertex 46.8563 11 4.67976
    endloop
  endfacet
  facet normal 0.571107 -0.694114 -0.438226
    outer loop
      vertex 46.3033 12 2.1967
      vertex 47.4952 12 3.75
      vertex 45.7648 11 3.07888
    endloop
  endfacet
  facet normal 0.435302 -0.715932 -0.545851
    outer loop
      vertex 44.25 11 1.87084
      vertex 46.3033 12 2.1967
      vertex 45.7648 11 3.07888
    endloop
  endfacet
  facet normal 0.435302 -0.715932 0.545851
    outer loop
      vertex 45.7648 11 11.9211
      vertex 46.3033 12 12.8033
      vertex 44.25 11 13.1292
    endloop
  endfacet
  facet normal 0.569357 -0.724671 0.388181
    outer loop
      vertex 46.8563 11 10.3202
      vertex 47.4952 12 11.25
      vertex 45.7648 11 11.9211
    endloop
  endfacet
  facet normal 0.571107 -0.694114 0.438226
    outer loop
      vertex 45.7648 11 11.9211
      vertex 47.4952 12 11.25
      vertex 46.3033 12 12.8033
    endloop
  endfacet
  facet normal 0.67113 -0.687244 0.277991
    outer loop
      vertex 46.8563 11 10.3202
      vertex 48.2444 12 9.44114
      vertex 47.4952 12 11.25
    endloop
  endfacet
  facet normal 0.653331 -0.729757 0.201526
    outer loop
      vertex 47.4274 11 8.46877
      vertex 48.2444 12 9.44114
      vertex 46.8563 11 10.3202
    endloop
  endfacet
  facet normal 0.68192 -0.731427 0
    outer loop
      vertex 47.4274 11 6.53123
      vertex 48.5 12 7.5
      vertex 47.4274 11 8.46877
    endloop
  endfacet
  facet normal 0.723486 -0.683737 0.0952486
    outer loop
      vertex 47.4274 11 8.46877
      vertex 48.5 12 7.5
      vertex 48.2444 12 9.44114
    endloop
  endfacet
  facet normal 0.723486 -0.683737 -0.0952486
    outer loop
      vertex 48.2444 12 5.55886
      vertex 48.5 12 7.5
      vertex 47.4274 11 6.53123
    endloop
  endfacet
  facet normal -1.06054e-16 -0.866025 0.5
    outer loop
      vertex 9.535 23.1754 7.5
      vertex 9.535 21.5877 4.75
      vertex 12.035 21.5877 4.75
    endloop
  endfacet
  facet normal -1.06054e-16 -0.866025 0.5
    outer loop
      vertex 12.035 23.1754 7.5
      vertex 9.535 23.1754 7.5
      vertex 12.035 21.5877 4.75
    endloop
  endfacet
  facet normal -1.06054e-16 -0.866025 -0.5
    outer loop
      vertex 12.035 21.5877 10.25
      vertex 9.535 21.5877 10.25
      vertex 9.535 23.1754 7.5
    endloop
  endfacet
  facet normal -1.06054e-16 -0.866025 -0.5
    outer loop
      vertex 12.035 23.1754 7.5
      vertex 12.035 21.5877 10.25
      vertex 9.535 23.1754 7.5
    endloop
  endfacet
endsolid OpenSCAD_Model
