solid OpenSCAD_Model
  facet normal -4.32964e-17 -0.707107 -0.707107
    outer loop
      vertex -23.91 -22.45 1
      vertex -38.81 -22.45 1
      vertex -23.91 -21.45 0
    endloop
  endfacet
  facet normal -4.32964e-17 -0.707107 -0.707107
    outer loop
      vertex -23.91 -21.45 0
      vertex -38.81 -22.45 1
      vertex -38.81 -21.45 0
    endloop
  endfacet
  facet normal -6.12303e-17 -1 0
    outer loop
      vertex -38.81 -22.45 1
      vertex -23.91 -22.45 1
      vertex -23.91 -22.45 13
    endloop
  endfacet
  facet normal -6.12303e-17 -1 0
    outer loop
      vertex -38.81 -22.45 13
      vertex -38.81 -22.45 1
      vertex -23.91 -22.45 13
    endloop
  endfacet
  facet normal 1 -6.12303e-17 0
    outer loop
      vertex -23.91 -22.45 13
      vertex -23.91 -22.45 1
      vertex -23.91 -21.45 0
    endloop
  endfacet
  facet normal 1 -6.12303e-17 0
    outer loop
      vertex -23.91 -18.95 6.82315
      vertex -23.91 -22.45 13
      vertex -23.91 -21.45 0
    endloop
  endfacet
  facet normal 1 -6.12303e-17 0
    outer loop
      vertex -23.91 -9.69 3.21538
      vertex -23.91 -11.05 4
      vertex -23.91 -9.69 0
    endloop
  endfacet
  facet normal 1 -6.12303e-17 0
    outer loop
      vertex -23.91 -11.05 4
      vertex -23.91 -13.2931 4.48
      vertex -23.91 -9.69 0
    endloop
  endfacet
  facet normal 1 -6.12303e-17 0
    outer loop
      vertex -23.91 -9.69 0
      vertex -23.91 -16.6069 4.48
      vertex -23.91 -21.45 0
    endloop
  endfacet
  facet normal 1 -6.12303e-17 0
    outer loop
      vertex -23.91 -16.6069 4.48
      vertex -23.91 -18.95 6.82315
      vertex -23.91 -21.45 0
    endloop
  endfacet
  facet normal 1 -6.12303e-17 0
    outer loop
      vertex -23.91 -18.95 10.1369
      vertex -23.91 -16.6069 12.48
      vertex -23.91 -22.45 13
    endloop
  endfacet
  facet normal 1 -6.12303e-17 0
    outer loop
      vertex -23.91 -13.2931 4.48
      vertex -23.91 -16.6069 4.48
      vertex -23.91 -9.69 0
    endloop
  endfacet
  facet normal 1 -6.12303e-17 0
    outer loop
      vertex -23.91 -13.2931 12.48
      vertex -23.91 -22.45 13
      vertex -23.91 -16.6069 12.48
    endloop
  endfacet
  facet normal 1 -6.12303e-17 0
    outer loop
      vertex -23.91 -11.05 13.98
      vertex -23.91 -22.45 13
      vertex -23.91 -13.2931 12.48
    endloop
  endfacet
  facet normal 1 -6.12303e-17 0
    outer loop
      vertex -23.91 -11.05 13.98
      vertex -23.91 -13.2931 12.48
      vertex -23.91 -11.05 10.2369
    endloop
  endfacet
  facet normal 1 -6.12303e-17 0
    outer loop
      vertex -23.91 -21.45 14
      vertex -23.91 -22.45 13
      vertex -23.91 -11.05 13.98
    endloop
  endfacet
  facet normal 1 -6.12303e-17 0
    outer loop
      vertex -23.91 -8.45 14
      vertex -23.91 -11.05 13.98
      vertex -23.91 -10.05 13.98
    endloop
  endfacet
  facet normal 1 -6.12303e-17 0
    outer loop
      vertex -23.91 -7.45 13
      vertex -23.91 -10.05 13.98
      vertex -23.91 -7.45 12.4857
    endloop
  endfacet
  facet normal 1 -6.12303e-17 0
    outer loop
      vertex -23.91 -8.45 14
      vertex -23.91 -10.05 13.98
      vertex -23.91 -7.45 13
    endloop
  endfacet
  facet normal 1 -6.12303e-17 0
    outer loop
      vertex -23.91 -21.45 14
      vertex -23.91 -11.05 13.98
      vertex -23.91 -8.45 14
    endloop
  endfacet
  facet normal 1 -6.12303e-17 0
    outer loop
      vertex -23.91 -18.95 6.82315
      vertex -23.91 -18.95 10.1369
      vertex -23.91 -22.45 13
    endloop
  endfacet
  facet normal 1 -6.12303e-17 0
    outer loop
      vertex -23.91 -11.05 6.72315
      vertex -23.91 -13.2931 4.48
      vertex -23.91 -11.05 4
    endloop
  endfacet
  facet normal 0 0 -1
    outer loop
      vertex -23.91 -21.45 0
      vertex -38.81 -21.45 0
      vertex -23.91 -9.69 0
    endloop
  endfacet
  facet normal 0 0 -1
    outer loop
      vertex -23.91 -9.69 0
      vertex -38.81 -21.45 0
      vertex -38.81 -9.69 0
    endloop
  endfacet
  facet normal 0 0 -1
    outer loop
      vertex -38.81 -9.69 0
      vertex -46.26 -9.69 0
      vertex -46.26 -9.13 0
    endloop
  endfacet
  facet normal 0 0 -1
    outer loop
      vertex -38.81 -9.69 0
      vertex -46.26 -9.13 0
      vertex -23.91 -9.69 0
    endloop
  endfacet
  facet normal 0 0 -1
    outer loop
      vertex -23.91 -9.69 0
      vertex -46.26 -9.13 0
      vertex -44.7497 -7.61966 0
    endloop
  endfacet
  facet normal 0 0 -1
    outer loop
      vertex -23.91 -9.69 0
      vertex -44.7497 -7.61966 0
      vertex -46.0111 -6.48388 0
    endloop
  endfacet
  facet normal 0 0 -1
    outer loop
      vertex -42.535 -6.45189 0
      vertex -46.0111 -6.48388 0
      vertex -47.2018 -4.845 0
    endloop
  endfacet
  facet normal 0 0 -1
    outer loop
      vertex -42.535 -6.45189 0
      vertex -47.2018 -4.845 0
      vertex -44.0779 -5.26795 0
    endloop
  endfacet
  facet normal 0 0 -1
    outer loop
      vertex -46.0061 -1.9282 0
      vertex -48.0257 -2.99437 0
      vertex -48.4469 -1.01288 0
    endloop
  endfacet
  facet normal 0 0 -1
    outer loop
      vertex -46.26 4.56166e-16 0
      vertex -48.4469 -1.01288 0
      vertex -48.4469 1.01288 0
    endloop
  endfacet
  facet normal 0 0 -1
    outer loop
      vertex -46.0061 1.9282 0
      vertex -48.4469 1.01288 0
      vertex -48.0257 2.99438 0
    endloop
  endfacet
  facet normal 0 0 -1
    outer loop
      vertex -32.3581 -3.725 0
      vertex -23.91 -9.69 0
      vertex -33.5421 -5.26795 0
    endloop
  endfacet
  facet normal 0 0 -1
    outer loop
      vertex -45.2619 3.725 0
      vertex -47.2018 4.845 0
      vertex -46.0111 6.48388 0
    endloop
  endfacet
  facet normal 0 0 -1
    outer loop
      vertex -44.0779 5.26795 0
      vertex -46.0111 6.48388 0
      vertex -44.5056 7.83937 0
    endloop
  endfacet
  facet normal 0 0 -1
    outer loop
      vertex -42.535 6.45189 0
      vertex -44.5056 7.83937 0
      vertex -42.7513 8.85225 0
    endloop
  endfacet
  facet normal 0 0 -1
    outer loop
      vertex -40.7382 7.19615 0
      vertex -42.7513 8.85225 0
      vertex -40.8247 9.47825 0
    endloop
  endfacet
  facet normal 0 0 -1
    outer loop
      vertex -38.81 7.45 0
      vertex -40.8247 9.47825 0
      vertex -38.81 9.69 0
    endloop
  endfacet
  facet normal 0 0 -1
    outer loop
      vertex -35.085 6.45189 0
      vertex -38.81 9.69 0
      vertex -36.7953 9.47825 0
    endloop
  endfacet
  facet normal 0 0 -1
    outer loop
      vertex -33.5421 5.26795 0
      vertex -36.7953 9.47825 0
      vertex -34.8687 8.85225 0
    endloop
  endfacet
  facet normal 0 0 -1
    outer loop
      vertex -35.085 6.45189 0
      vertex -36.7953 9.47825 0
      vertex -33.5421 5.26795 0
    endloop
  endfacet
  facet normal 0 0 -1
    outer loop
      vertex -32.9721 4.5252 0
      vertex -33.5421 5.26795 0
      vertex -34.8687 8.85225 0
    endloop
  endfacet
  facet normal 0 0 -1
    outer loop
      vertex -36.8818 7.19615 0
      vertex -38.81 9.69 0
      vertex -35.085 6.45189 0
    endloop
  endfacet
  facet normal 0 0 -1
    outer loop
      vertex -38.81 7.45 0
      vertex -38.81 9.69 0
      vertex -36.8818 7.19615 0
    endloop
  endfacet
  facet normal 0 0 -1
    outer loop
      vertex -30.0092 3.92642 0
      vertex -29.5943 2.99437 0
      vertex -29.3996 2.07863 0
    endloop
  endfacet
  facet normal 0 0 -1
    outer loop
      vertex -40.7382 7.19615 0
      vertex -40.8247 9.47825 0
      vertex -38.81 7.45 0
    endloop
  endfacet
  facet normal 0 0 -1
    outer loop
      vertex -42.535 6.45189 0
      vertex -42.7513 8.85225 0
      vertex -40.7382 7.19615 0
    endloop
  endfacet
  facet normal 0 0 -1
    outer loop
      vertex -30.0092 3.92642 0
      vertex -29.3996 2.07863 0
      vertex -31.9721 2.79315 0
    endloop
  endfacet
  facet normal 0 0 -1
    outer loop
      vertex -44.0779 5.26795 0
      vertex -44.5056 7.83937 0
      vertex -42.535 6.45189 0
    endloop
  endfacet
  facet normal 0 0 -1
    outer loop
      vertex -45.2619 3.725 0
      vertex -46.0111 6.48388 0
      vertex -44.0779 5.26795 0
    endloop
  endfacet
  facet normal 0 0 -1
    outer loop
      vertex -46.0061 1.9282 0
      vertex -48.0257 2.99438 0
      vertex -47.2018 4.845 0
    endloop
  endfacet
  facet normal 0 0 -1
    outer loop
      vertex -46.26 4.56166e-16 0
      vertex -48.4469 1.01288 0
      vertex -46.0061 1.9282 0
    endloop
  endfacet
  facet normal 0 0 -1
    outer loop
      vertex -46.0061 -1.9282 0
      vertex -48.4469 -1.01288 0
      vertex -46.26 4.56166e-16 0
    endloop
  endfacet
  facet normal 0 0 -1
    outer loop
      vertex -45.2619 -3.725 0
      vertex -48.0257 -2.99437 0
      vertex -46.0061 -1.9282 0
    endloop
  endfacet
  facet normal 0 0 -1
    outer loop
      vertex -44.0779 -5.26795 0
      vertex -48.0257 -2.99437 0
      vertex -45.2619 -3.725 0
    endloop
  endfacet
  facet normal 0 0 -1
    outer loop
      vertex -47.2018 -4.845 0
      vertex -48.0257 -2.99437 0
      vertex -44.0779 -5.26795 0
    endloop
  endfacet
  facet normal 0 0 -1
    outer loop
      vertex -40.7382 -7.19615 0
      vertex -46.0111 -6.48388 0
      vertex -42.535 -6.45189 0
    endloop
  endfacet
  facet normal 0 0 -1
    outer loop
      vertex -36.8818 -7.19615 0
      vertex -23.91 -9.69 0
      vertex -38.81 -7.45 0
    endloop
  endfacet
  facet normal 0 0 -1
    outer loop
      vertex -23.91 -9.69 0
      vertex -46.0111 -6.48388 0
      vertex -40.7382 -7.19615 0
    endloop
  endfacet
  facet normal 0 0 -1
    outer loop
      vertex -23.91 -9.69 0
      vertex -40.7382 -7.19615 0
      vertex -38.81 -7.45 0
    endloop
  endfacet
  facet normal 0 0 -1
    outer loop
      vertex -35.085 -6.45189 0
      vertex -23.91 -9.69 0
      vertex -36.8818 -7.19615 0
    endloop
  endfacet
  facet normal 0 0 -1
    outer loop
      vertex -33.5421 -5.26795 0
      vertex -23.91 -9.69 0
      vertex -35.085 -6.45189 0
    endloop
  endfacet
  facet normal 0 0 -1
    outer loop
      vertex -31.6139 -1.9282 0
      vertex -23.91 -9.69 0
      vertex -32.3581 -3.725 0
    endloop
  endfacet
  facet normal 0 0 -1
    outer loop
      vertex -46.0061 1.9282 0
      vertex -47.2018 4.845 0
      vertex -45.2619 3.725 0
    endloop
  endfacet
  facet normal 0 0 -1
    outer loop
      vertex -31.36 -4.56166e-16 0
      vertex -23.91 -9.69 0
      vertex -31.6139 -1.9282 0
    endloop
  endfacet
  facet normal 0 0 -1
    outer loop
      vertex -31.6139 1.9282 0
      vertex -23.91 -9.69 0
      vertex -31.36 -4.56166e-16 0
    endloop
  endfacet
  facet normal 0 0 -1
    outer loop
      vertex -29.3996 2.07863 0
      vertex -23.91 -9.69 0
      vertex -31.9721 2.79315 0
    endloop
  endfacet
  facet normal 0 0 -1
    outer loop
      vertex -23.91 -9.69 0
      vertex -31.6139 1.9282 0
      vertex -31.9721 2.79315 0
    endloop
  endfacet
  facet normal 0 0 -1
    outer loop
      vertex -25.535 6.45189 0
      vertex -23.91 -9.69 0
      vertex -29.3996 2.07863 0
    endloop
  endfacet
  facet normal 0 0 -1
    outer loop
      vertex -20.56 -2.16506 0
      vertex -23.91 -9.69 0
      vertex -21.81 -2.5 0
    endloop
  endfacet
  facet normal 0 0 -1
    outer loop
      vertex -32.9721 4.5252 0
      vertex -33.1144 7.83937 0
      vertex -31.6089 6.48388 0
    endloop
  endfacet
  facet normal 0 0 -1
    outer loop
      vertex -23.9751 1.25 0
      vertex -25.535 6.45189 0
      vertex -23.06 2.16506 0
    endloop
  endfacet
  facet normal 0 0 -1
    outer loop
      vertex -23.06 -2.16506 0
      vertex -21.81 -2.5 0
      vertex -23.91 -9.69 0
    endloop
  endfacet
  facet normal 0 0 -1
    outer loop
      vertex -20.56 2.16506 0
      vertex -18.085 6.45189 0
      vertex -19.6449 1.25 0
    endloop
  endfacet
  facet normal 0 0 -1
    outer loop
      vertex -32.9721 4.5252 0
      vertex -34.8687 8.85225 0
      vertex -33.1144 7.83937 0
    endloop
  endfacet
  facet normal 0 0 -1
    outer loop
      vertex -19.31 -1.19399e-15 0
      vertex -14.36 -1.49708e-15 0
      vertex -19.6449 -1.25 0
    endloop
  endfacet
  facet normal 0 0 -1
    outer loop
      vertex -32.9721 4.5252 0
      vertex -31.6089 6.48388 0
      vertex -31.0092 5.65847 0
    endloop
  endfacet
  facet normal 0 0 -1
    outer loop
      vertex -18.085 6.45189 0
      vertex -14.36 -1.49708e-15 0
      vertex -19.31 -1.19399e-15 0
    endloop
  endfacet
  facet normal 0 0 -1
    outer loop
      vertex -19.6449 1.25 0
      vertex -18.085 6.45189 0
      vertex -19.31 -1.19399e-15 0
    endloop
  endfacet
  facet normal 0 0 -1
    outer loop
      vertex -25.535 6.45189 0
      vertex -18.085 6.45189 0
      vertex -20.56 2.16506 0
    endloop
  endfacet
  facet normal 0 0 -1
    outer loop
      vertex -25.535 6.45189 0
      vertex -20.56 2.16506 0
      vertex -21.81 2.5 0
    endloop
  endfacet
  facet normal 0 0 -1
    outer loop
      vertex -25.535 6.45189 0
      vertex -21.81 2.5 0
      vertex -23.06 2.16506 0
    endloop
  endfacet
  facet normal 0 0 -1
    outer loop
      vertex -23.06 -2.16506 0
      vertex -23.91 -9.69 0
      vertex -23.9751 -1.25 0
    endloop
  endfacet
  facet normal 0 0 -1
    outer loop
      vertex -25.535 6.45189 0
      vertex -23.9751 1.25 0
      vertex -24.31 -8.8784e-16 0
    endloop
  endfacet
  facet normal 0 0 -1
    outer loop
      vertex -25.535 6.45189 0
      vertex -24.31 -8.8784e-16 0
      vertex -23.91 -9.69 0
    endloop
  endfacet
  facet normal 0 0 -1
    outer loop
      vertex -24.31 -8.8784e-16 0
      vertex -23.9751 -1.25 0
      vertex -23.91 -9.69 0
    endloop
  endfacet
  facet normal 0 0 -1
    outer loop
      vertex -23.91 -9.69 0
      vertex -20.56 -2.16506 0
      vertex -19.6449 -1.25 0
    endloop
  endfacet
  facet normal 0 0 -1
    outer loop
      vertex -23.91 -9.69 0
      vertex -19.6449 -1.25 0
      vertex -14.36 -1.49708e-15 0
    endloop
  endfacet
  facet normal 0 0 -1
    outer loop
      vertex -23.91 -9.69 0
      vertex -14.36 -1.49708e-15 0
      vertex -11.26 -7.45 0
    endloop
  endfacet
  facet normal 0 0 -1
    outer loop
      vertex -23.91 -9.69 0
      vertex -11.26 -7.45 0
      vertex -11.26 -9.69 0
    endloop
  endfacet
  facet normal -1 6.12303e-17 0
    outer loop
      vertex -38.81 -22.45 1
      vertex -38.81 -22.45 13
      vertex -38.81 -21.45 0
    endloop
  endfacet
  facet normal -1 6.12303e-17 0
    outer loop
      vertex -38.81 -21.45 0
      vertex -38.81 -22.45 13
      vertex -38.81 -21.45 14
    endloop
  endfacet
  facet normal -1 6.12303e-17 0
    outer loop
      vertex -38.81 -16.6069 12.48
      vertex -38.81 -21.45 14
      vertex -38.81 -9.69 14
    endloop
  endfacet
  facet normal -1 6.12303e-17 0
    outer loop
      vertex -38.81 -10.95 6.82315
      vertex -38.81 -9.69 14
      vertex -38.81 -9.69 0
    endloop
  endfacet
  facet normal -1 6.12303e-17 0
    outer loop
      vertex -38.81 -21.45 0
      vertex -38.81 -21.45 14
      vertex -38.81 -18.95 10.1369
    endloop
  endfacet
  facet normal -1 6.12303e-17 0
    outer loop
      vertex -38.81 -21.45 0
      vertex -38.81 -18.95 10.1369
      vertex -38.81 -18.95 6.82315
    endloop
  endfacet
  facet normal -1 6.12303e-17 0
    outer loop
      vertex -38.81 -13.2931 12.48
      vertex -38.81 -9.69 14
      vertex -38.81 -10.95 10.1369
    endloop
  endfacet
  facet normal -1 6.12303e-17 0
    outer loop
      vertex -38.81 -21.45 0
      vertex -38.81 -16.6069 4.48
      vertex -38.81 -9.69 0
    endloop
  endfacet
  facet normal -1 6.12303e-17 0
    outer loop
      vertex -38.81 -16.6069 4.48
      vertex -38.81 -13.2931 4.48
      vertex -38.81 -9.69 0
    endloop
  endfacet
  facet normal -1 6.12303e-17 0
    outer loop
      vertex -38.81 -10.95 10.1369
      vertex -38.81 -9.69 14
      vertex -38.81 -10.95 6.82315
    endloop
  endfacet
  facet normal -1 6.12303e-17 0
    outer loop
      vertex -38.81 -13.2931 4.48
      vertex -38.81 -10.95 6.82315
      vertex -38.81 -9.69 0
    endloop
  endfacet
  facet normal -1 6.12303e-17 0
    outer loop
      vertex -38.81 -16.6069 12.48
      vertex -38.81 -9.69 14
      vertex -38.81 -13.2931 12.48
    endloop
  endfacet
  facet normal -1 6.12303e-17 0
    outer loop
      vertex -38.81 -18.95 10.1369
      vertex -38.81 -21.45 14
      vertex -38.81 -16.6069 12.48
    endloop
  endfacet
  facet normal -1 6.12303e-17 0
    outer loop
      vertex -38.81 -16.6069 4.48
      vertex -38.81 -21.45 0
      vertex -38.81 -18.95 6.82315
    endloop
  endfacet
  facet normal -4.32964e-17 -0.707107 0.707107
    outer loop
      vertex -38.81 -22.45 13
      vertex -23.91 -22.45 13
      vertex -23.91 -21.45 14
    endloop
  endfacet
  facet normal -4.32964e-17 -0.707107 0.707107
    outer loop
      vertex -38.81 -21.45 14
      vertex -38.81 -22.45 13
      vertex -23.91 -21.45 14
    endloop
  endfacet
  facet normal 0 0 1
    outer loop
      vertex -38.81 -21.45 14
      vertex -23.91 -21.45 14
      vertex -23.91 -8.45 14
    endloop
  endfacet
  facet normal 0 0 1
    outer loop
      vertex -31.36 -9.69 14
      vertex -38.81 -21.45 14
      vertex -23.91 -8.45 14
    endloop
  endfacet
  facet normal 0 0 1
    outer loop
      vertex -32.04 -8.45 14
      vertex -31.36 -9.13 14
      vertex -23.91 -8.45 14
    endloop
  endfacet
  facet normal 0 0 1
    outer loop
      vertex -31.36 -9.13 14
      vertex -31.36 -9.69 14
      vertex -23.91 -8.45 14
    endloop
  endfacet
  facet normal 0 0 1
    outer loop
      vertex -31.36 -9.69 14
      vertex -38.81 -9.69 14
      vertex -38.81 -21.45 14
    endloop
  endfacet
  facet normal 4.32964e-17 0.707107 0.707107
    outer loop
      vertex -32.04 -8.45 14
      vertex -23.91 -8.45 14
      vertex -23.91 -7.45 13
    endloop
  endfacet
  facet normal 4.32964e-17 0.707107 0.707107
    outer loop
      vertex -32.8703 -7.61966 13.1697
      vertex -32.04 -8.45 14
      vertex -32.6819 -7.45 13
    endloop
  endfacet
  facet normal 4.32964e-17 0.707107 0.707107
    outer loop
      vertex -32.6819 -7.45 13
      vertex -32.04 -8.45 14
      vertex -23.91 -7.45 13
    endloop
  endfacet
  facet normal 6.12303e-17 1 0
    outer loop
      vertex -32.6819 -7.45 9.98
      vertex -23.91 -7.45 12.4857
      vertex -23.91 -7.45 9.98
    endloop
  endfacet
  facet normal 6.12303e-17 1 0
    outer loop
      vertex -23.91 -7.45 13
      vertex -23.91 -7.45 12.4857
      vertex -32.6819 -7.45 9.98
    endloop
  endfacet
  facet normal 6.12303e-17 1 0
    outer loop
      vertex -23.91 -7.45 13
      vertex -32.6819 -7.45 9.98
      vertex -32.6819 -7.45 13
    endloop
  endfacet
  facet normal 1.13713e-16 -0.707107 -0.707107
    outer loop
      vertex -38.81 -10.95 10.1369
      vertex -23.91 -10.95 10.1369
      vertex -38.81 -13.2931 12.48
    endloop
  endfacet
  facet normal 1.13713e-16 -0.707107 -0.707107
    outer loop
      vertex -38.81 -13.2931 12.48
      vertex -23.91 -10.95 10.1369
      vertex -23.91 -11.05 10.2369
    endloop
  endfacet
  facet normal 1.13713e-16 -0.707107 -0.707107
    outer loop
      vertex -38.81 -13.2931 12.48
      vertex -23.91 -11.05 10.2369
      vertex -23.91 -13.2931 12.48
    endloop
  endfacet
  facet normal 2.22045e-16 -2.36383e-07 -1
    outer loop
      vertex -38.81 -13.2931 12.48
      vertex -23.91 -13.2931 12.48
      vertex -38.81 -16.6069 12.48
    endloop
  endfacet
  facet normal 2.22045e-16 -2.36383e-07 -1
    outer loop
      vertex -38.81 -16.6069 12.48
      vertex -23.91 -13.2931 12.48
      vertex -23.91 -16.6069 12.48
    endloop
  endfacet
  facet normal 2.00306e-16 0.707107 -0.707107
    outer loop
      vertex -38.81 -16.6069 12.48
      vertex -23.91 -16.6069 12.48
      vertex -38.81 -18.95 10.1369
    endloop
  endfacet
  facet normal 2.00306e-16 0.707107 -0.707107
    outer loop
      vertex -38.81 -18.95 10.1369
      vertex -23.91 -16.6069 12.48
      vertex -23.91 -18.95 10.1369
    endloop
  endfacet
  facet normal 6.12304e-17 1 -2.36383e-07
    outer loop
      vertex -38.81 -18.95 10.1369
      vertex -23.91 -18.95 10.1369
      vertex -38.81 -18.95 6.82315
    endloop
  endfacet
  facet normal 6.12304e-17 1 -2.36383e-07
    outer loop
      vertex -38.81 -18.95 6.82315
      vertex -23.91 -18.95 10.1369
      vertex -23.91 -18.95 6.82315
    endloop
  endfacet
  facet normal -1.13713e-16 0.707107 0.707107
    outer loop
      vertex -23.91 -16.6069 4.48
      vertex -38.81 -16.6069 4.48
      vertex -38.81 -18.95 6.82315
    endloop
  endfacet
  facet normal -1.13713e-16 0.707107 0.707107
    outer loop
      vertex -23.91 -18.95 6.82315
      vertex -23.91 -16.6069 4.48
      vertex -38.81 -18.95 6.82315
    endloop
  endfacet
  facet normal -2.22045e-16 2.36383e-07 1
    outer loop
      vertex -23.91 -13.2931 4.48
      vertex -38.81 -13.2931 4.48
      vertex -38.81 -16.6069 4.48
    endloop
  endfacet
  facet normal -2.22045e-16 2.36383e-07 1
    outer loop
      vertex -23.91 -16.6069 4.48
      vertex -23.91 -13.2931 4.48
      vertex -38.81 -16.6069 4.48
    endloop
  endfacet
  facet normal -2.00306e-16 -0.707107 0.707107
    outer loop
      vertex -38.81 -10.95 6.82315
      vertex -23.91 -11.05 6.72315
      vertex -23.91 -10.95 6.82315
    endloop
  endfacet
  facet normal -2.00306e-16 -0.707107 0.707107
    outer loop
      vertex -38.81 -13.2931 4.48
      vertex -23.91 -11.05 6.72315
      vertex -38.81 -10.95 6.82315
    endloop
  endfacet
  facet normal -2.00306e-16 -0.707107 0.707107
    outer loop
      vertex -23.91 -13.2931 4.48
      vertex -23.91 -11.05 6.72315
      vertex -38.81 -13.2931 4.48
    endloop
  endfacet
  facet normal 3.05982e-17 0.499722 0.866186
    outer loop
      vertex -23.91 -9.69 3.21538
      vertex -10.26 -9.69 3.21538
      vertex -10.26 -8.45 2.5
    endloop
  endfacet
  facet normal 3.05982e-17 0.499722 0.866186
    outer loop
      vertex -23.91 -11.05 4
      vertex -23.91 -9.69 3.21538
      vertex -23.91 -8.45 2.5
    endloop
  endfacet
  facet normal 3.05982e-17 0.499722 0.866186
    outer loop
      vertex -23.91 -8.45 2.5
      vertex -23.91 -9.69 3.21538
      vertex -10.26 -8.45 2.5
    endloop
  endfacet
  facet normal -6.12303e-17 -1 0
    outer loop
      vertex -11.26 -9.69 0
      vertex -10.26 -9.69 1
      vertex -10.26 -9.69 3.21538
    endloop
  endfacet
  facet normal -6.12303e-17 -1 0
    outer loop
      vertex -23.91 -9.69 0
      vertex -11.26 -9.69 0
      vertex -23.91 -9.69 3.21538
    endloop
  endfacet
  facet normal -6.12303e-17 -1 0
    outer loop
      vertex -23.91 -9.69 3.21538
      vertex -11.26 -9.69 0
      vertex -10.26 -9.69 3.21538
    endloop
  endfacet
  facet normal 0.707107 -4.32964e-17 -0.707107
    outer loop
      vertex -10.26 -9.69 1
      vertex -11.26 -9.69 0
      vertex -10.26 -7.45 1
    endloop
  endfacet
  facet normal 0.707107 -4.32964e-17 -0.707107
    outer loop
      vertex -10.26 -7.45 1
      vertex -11.26 -9.69 0
      vertex -11.26 -7.45 0
    endloop
  endfacet
  facet normal 0.678353 0.282268 -0.678353
    outer loop
      vertex -13.36 -1.55831e-15 1
      vertex -10.26 -7.45 1
      vertex -11.26 -7.45 0
    endloop
  endfacet
  facet normal 0.678353 0.282268 -0.678353
    outer loop
      vertex -14.36 -1.49708e-15 0
      vertex -13.36 -1.55831e-15 1
      vertex -11.26 -7.45 0
    endloop
  endfacet
  facet normal 0.654654 0.377964 -0.654654
    outer loop
      vertex -17.585 7.31791 1
      vertex -13.36 -1.55831e-15 1
      vertex -14.36 -1.49708e-15 0
    endloop
  endfacet
  facet normal 0.654654 0.377964 -0.654654
    outer loop
      vertex -17.585 7.31791 1
      vertex -14.36 -1.49708e-15 0
      vertex -18.085 6.45189 0
    endloop
  endfacet
  facet normal 4.62858e-17 0.755929 -0.654654
    outer loop
      vertex -18.085 6.45189 0
      vertex -25.535 6.45189 0
      vertex -17.585 7.31791 1
    endloop
  endfacet
  facet normal 4.62858e-17 0.755929 -0.654654
    outer loop
      vertex -17.585 7.31791 1
      vertex -25.535 6.45189 0
      vertex -26.035 7.31791 1
    endloop
  endfacet
  facet normal -0.543776 0.480531 -0.68804
    outer loop
      vertex -29.3996 2.07863 0
      vertex -29.5713 2.8865 0.699929
      vertex -25.535 6.45189 0
    endloop
  endfacet
  facet normal -0.543776 0.480531 -0.68804
    outer loop
      vertex -25.535 6.45189 0
      vertex -29.5713 2.8865 0.699929
      vertex -26.035 7.31791 1
    endloop
  endfacet
  facet normal 0.978148 0.207911 0
    outer loop
      vertex -29.5713 2.8865 0.699929
      vertex -29.3996 2.07863 0
      vertex -29.5943 2.99437 0
    endloop
  endfacet
  facet normal 0.978148 0.207911 0
    outer loop
      vertex -29.5943 2.99437 0.816252
      vertex -29.5713 2.8865 0.699929
      vertex -29.5943 2.99437 0
    endloop
  endfacet
  facet normal 0.913545 0.406737 0
    outer loop
      vertex -29.5943 2.99437 0.816252
      vertex -29.5943 2.99437 0
      vertex -30.0092 3.92642 0
    endloop
  endfacet
  facet normal 0.913545 0.406737 0
    outer loop
      vertex -29.6567 3.13454 1
      vertex -29.5943 2.99437 0.816252
      vertex -30.0092 3.92642 0
    endloop
  endfacet
  facet normal 0.913545 0.406737 0
    outer loop
      vertex -29.5943 2.99437 61.96
      vertex -29.5943 2.99437 9.16375
      vertex -30.0092 3.92642 61.96
    endloop
  endfacet
  facet normal 0.913545 0.406737 0
    outer loop
      vertex -30.0092 3.92642 61.96
      vertex -29.6567 3.13454 8.98
      vertex -30.0092 3.92642 0
    endloop
  endfacet
  facet normal 0.913545 0.406737 0
    outer loop
      vertex -29.6567 3.13454 8.98
      vertex -29.6567 3.13454 1
      vertex -30.0092 3.92642 0
    endloop
  endfacet
  facet normal 0.913545 0.406737 0
    outer loop
      vertex -29.5943 2.99437 9.16375
      vertex -29.6567 3.13454 8.98
      vertex -30.0092 3.92642 61.96
    endloop
  endfacet
  facet normal -0.5 0.866025 0
    outer loop
      vertex -30.0092 3.92642 61.96
      vertex -30.0092 3.92642 0
      vertex -31.9721 2.79315 61.96
    endloop
  endfacet
  facet normal -0.5 0.866025 0
    outer loop
      vertex -31.9721 2.79315 61.96
      vertex -30.0092 3.92642 0
      vertex -31.9721 2.79315 0
    endloop
  endfacet
  facet normal -0.92388 -0.382683 0
    outer loop
      vertex -31.9721 2.79315 61.96
      vertex -31.9721 2.79315 0
      vertex -31.6139 1.9282 61.96
    endloop
  endfacet
  facet normal -0.92388 -0.382683 0
    outer loop
      vertex -31.6139 1.9282 61.96
      vertex -31.9721 2.79315 0
      vertex -31.6139 1.9282 0
    endloop
  endfacet
  facet normal -0.991445 -0.130526 0
    outer loop
      vertex -31.6139 1.9282 61.96
      vertex -31.6139 1.9282 0
      vertex -31.36 -4.56166e-16 61.96
    endloop
  endfacet
  facet normal -0.991445 -0.130526 0
    outer loop
      vertex -31.36 -4.56166e-16 61.96
      vertex -31.6139 1.9282 0
      vertex -31.36 -4.56166e-16 0
    endloop
  endfacet
  facet normal -0.991445 0.130526 0
    outer loop
      vertex -31.36 -4.56166e-16 61.96
      vertex -31.36 -4.56166e-16 0
      vertex -31.6139 -1.9282 61.96
    endloop
  endfacet
  facet normal -0.991445 0.130526 0
    outer loop
      vertex -31.6139 -1.9282 61.96
      vertex -31.36 -4.56166e-16 0
      vertex -31.6139 -1.9282 0
    endloop
  endfacet
  facet normal -0.92388 0.382683 0
    outer loop
      vertex -31.6139 -1.9282 61.96
      vertex -31.6139 -1.9282 0
      vertex -32.3581 -3.725 61.96
    endloop
  endfacet
  facet normal -0.92388 0.382683 0
    outer loop
      vertex -32.3581 -3.725 61.96
      vertex -31.6139 -1.9282 0
      vertex -32.3581 -3.725 0
    endloop
  endfacet
  facet normal -0.793354 0.608761 0
    outer loop
      vertex -32.3581 -3.725 61.96
      vertex -32.3581 -3.725 0
      vertex -33.5421 -5.26795 61.96
    endloop
  endfacet
  facet normal -0.793354 0.608761 0
    outer loop
      vertex -33.5421 -5.26795 61.96
      vertex -32.3581 -3.725 0
      vertex -33.5421 -5.26795 0
    endloop
  endfacet
  facet normal -0.608761 0.793354 0
    outer loop
      vertex -33.5421 -5.26795 61.96
      vertex -33.5421 -5.26795 0
      vertex -35.085 -6.45189 61.96
    endloop
  endfacet
  facet normal -0.608761 0.793354 0
    outer loop
      vertex -35.085 -6.45189 61.96
      vertex -33.5421 -5.26795 0
      vertex -35.085 -6.45189 0
    endloop
  endfacet
  facet normal -0.382683 0.92388 0
    outer loop
      vertex -35.085 -6.45189 61.96
      vertex -35.085 -6.45189 0
      vertex -36.8818 -7.19615 61.96
    endloop
  endfacet
  facet normal -0.382683 0.92388 0
    outer loop
      vertex -36.8818 -7.19615 61.96
      vertex -35.085 -6.45189 0
      vertex -36.8818 -7.19615 0
    endloop
  endfacet
  facet normal -0.130526 0.991445 0
    outer loop
      vertex -36.8818 -7.19615 61.96
      vertex -36.8818 -7.19615 0
      vertex -38.81 -7.45 61.96
    endloop
  endfacet
  facet normal -0.130526 0.991445 0
    outer loop
      vertex -38.81 -7.45 61.96
      vertex -36.8818 -7.19615 0
      vertex -38.81 -7.45 0
    endloop
  endfacet
  facet normal 0.130526 0.991445 0
    outer loop
      vertex -40.7382 -7.19615 61.96
      vertex -38.81 -7.45 61.96
      vertex -40.7382 -7.19615 0
    endloop
  endfacet
  facet normal 0.130526 0.991445 0
    outer loop
      vertex -40.7382 -7.19615 0
      vertex -38.81 -7.45 61.96
      vertex -38.81 -7.45 0
    endloop
  endfacet
  facet normal 0.382683 0.92388 0
    outer loop
      vertex -42.535 -6.45189 61.96
      vertex -40.7382 -7.19615 61.96
      vertex -42.535 -6.45189 0
    endloop
  endfacet
  facet normal 0.382683 0.92388 0
    outer loop
      vertex -42.535 -6.45189 0
      vertex -40.7382 -7.19615 61.96
      vertex -40.7382 -7.19615 0
    endloop
  endfacet
  facet normal 0.608761 0.793354 0
    outer loop
      vertex -44.0779 -5.26795 61.96
      vertex -42.535 -6.45189 61.96
      vertex -44.0779 -5.26795 0
    endloop
  endfacet
  facet normal 0.608761 0.793354 0
    outer loop
      vertex -44.0779 -5.26795 0
      vertex -42.535 -6.45189 61.96
      vertex -42.535 -6.45189 0
    endloop
  endfacet
  facet normal 0.793354 0.608761 0
    outer loop
      vertex -45.2619 -3.725 0
      vertex -45.2619 -3.725 61.96
      vertex -44.0779 -5.26795 61.96
    endloop
  endfacet
  facet normal 0.793354 0.608761 0
    outer loop
      vertex -44.0779 -5.26795 0
      vertex -45.2619 -3.725 0
      vertex -44.0779 -5.26795 61.96
    endloop
  endfacet
  facet normal 0.92388 0.382683 0
    outer loop
      vertex -46.0061 -1.9282 0
      vertex -46.0061 -1.9282 61.96
      vertex -45.2619 -3.725 61.96
    endloop
  endfacet
  facet normal 0.92388 0.382683 0
    outer loop
      vertex -45.2619 -3.725 0
      vertex -46.0061 -1.9282 0
      vertex -45.2619 -3.725 61.96
    endloop
  endfacet
  facet normal 0.991445 0.130526 0
    outer loop
      vertex -46.26 4.56166e-16 0
      vertex -46.26 4.56166e-16 61.96
      vertex -46.0061 -1.9282 61.96
    endloop
  endfacet
  facet normal 0.991445 0.130526 0
    outer loop
      vertex -46.0061 -1.9282 0
      vertex -46.26 4.56166e-16 0
      vertex -46.0061 -1.9282 61.96
    endloop
  endfacet
  facet normal 0.991445 -0.130526 0
    outer loop
      vertex -46.0061 1.9282 0
      vertex -46.0061 1.9282 61.96
      vertex -46.26 4.56166e-16 61.96
    endloop
  endfacet
  facet normal 0.991445 -0.130526 0
    outer loop
      vertex -46.26 4.56166e-16 0
      vertex -46.0061 1.9282 0
      vertex -46.26 4.56166e-16 61.96
    endloop
  endfacet
  facet normal 0.92388 -0.382683 0
    outer loop
      vertex -45.2619 3.725 0
      vertex -45.2619 3.725 61.96
      vertex -46.0061 1.9282 61.96
    endloop
  endfacet
  facet normal 0.92388 -0.382683 0
    outer loop
      vertex -46.0061 1.9282 0
      vertex -45.2619 3.725 0
      vertex -46.0061 1.9282 61.96
    endloop
  endfacet
  facet normal 0.793354 -0.608761 0
    outer loop
      vertex -44.0779 5.26795 0
      vertex -44.0779 5.26795 61.96
      vertex -45.2619 3.725 61.96
    endloop
  endfacet
  facet normal 0.793354 -0.608761 0
    outer loop
      vertex -45.2619 3.725 0
      vertex -44.0779 5.26795 0
      vertex -45.2619 3.725 61.96
    endloop
  endfacet
  facet normal 0.608761 -0.793354 0
    outer loop
      vertex -42.535 6.45189 0
      vertex -42.535 6.45189 61.96
      vertex -44.0779 5.26795 61.96
    endloop
  endfacet
  facet normal 0.608761 -0.793354 0
    outer loop
      vertex -44.0779 5.26795 0
      vertex -42.535 6.45189 0
      vertex -44.0779 5.26795 61.96
    endloop
  endfacet
  facet normal 0.382683 -0.92388 0
    outer loop
      vertex -40.7382 7.19615 0
      vertex -40.7382 7.19615 61.96
      vertex -42.535 6.45189 61.96
    endloop
  endfacet
  facet normal 0.382683 -0.92388 0
    outer loop
      vertex -42.535 6.45189 0
      vertex -40.7382 7.19615 0
      vertex -42.535 6.45189 61.96
    endloop
  endfacet
  facet normal 0.130526 -0.991445 0
    outer loop
      vertex -38.81 7.45 0
      vertex -38.81 7.45 61.96
      vertex -40.7382 7.19615 61.96
    endloop
  endfacet
  facet normal 0.130526 -0.991445 0
    outer loop
      vertex -40.7382 7.19615 0
      vertex -38.81 7.45 0
      vertex -40.7382 7.19615 61.96
    endloop
  endfacet
  facet normal -0.130526 -0.991445 0
    outer loop
      vertex -36.8818 7.19615 61.96
      vertex -38.81 7.45 61.96
      vertex -38.81 7.45 0
    endloop
  endfacet
  facet normal -0.130526 -0.991445 0
    outer loop
      vertex -36.8818 7.19615 0
      vertex -36.8818 7.19615 61.96
      vertex -38.81 7.45 0
    endloop
  endfacet
  facet normal -0.382683 -0.92388 0
    outer loop
      vertex -35.085 6.45189 61.96
      vertex -36.8818 7.19615 61.96
      vertex -36.8818 7.19615 0
    endloop
  endfacet
  facet normal -0.382683 -0.92388 0
    outer loop
      vertex -35.085 6.45189 0
      vertex -35.085 6.45189 61.96
      vertex -36.8818 7.19615 0
    endloop
  endfacet
  facet normal -0.608761 -0.793354 0
    outer loop
      vertex -33.5421 5.26795 61.96
      vertex -35.085 6.45189 61.96
      vertex -35.085 6.45189 0
    endloop
  endfacet
  facet normal -0.608761 -0.793354 0
    outer loop
      vertex -33.5421 5.26795 0
      vertex -33.5421 5.26795 61.96
      vertex -35.085 6.45189 0
    endloop
  endfacet
  facet normal -0.793354 -0.608761 0
    outer loop
      vertex -33.5421 5.26795 61.96
      vertex -33.5421 5.26795 0
      vertex -32.9721 4.5252 61.96
    endloop
  endfacet
  facet normal -0.793354 -0.608761 0
    outer loop
      vertex -32.9721 4.5252 61.96
      vertex -33.5421 5.26795 0
      vertex -32.9721 4.5252 0
    endloop
  endfacet
  facet normal 0.5 -0.866025 0
    outer loop
      vertex -31.0092 5.65847 0
      vertex -31.0092 5.65847 61.96
      vertex -32.9721 4.5252 61.96
    endloop
  endfacet
  facet normal 0.5 -0.866025 0
    outer loop
      vertex -32.9721 4.5252 0
      vertex -31.0092 5.65847 0
      vertex -32.9721 4.5252 61.96
    endloop
  endfacet
  facet normal 0.809017 0.587785 0
    outer loop
      vertex -31.0092 5.65847 61.96
      vertex -31.0092 5.65847 0
      vertex -31.6089 6.48388 0
    endloop
  endfacet
  facet normal 0.809017 0.587785 0
    outer loop
      vertex -31.6089 6.48388 61.96
      vertex -31.0092 5.65847 61.96
      vertex -31.6089 6.48388 0
    endloop
  endfacet
  facet normal 0.669131 0.743145 0
    outer loop
      vertex -31.6089 6.48388 0
      vertex -33.1144 7.83937 0
      vertex -31.6089 6.48388 61.96
    endloop
  endfacet
  facet normal 0.669131 0.743145 0
    outer loop
      vertex -31.6089 6.48388 61.96
      vertex -33.1144 7.83937 0
      vertex -33.1144 7.83937 61.96
    endloop
  endfacet
  facet normal 0.5 0.866026 0
    outer loop
      vertex -33.1144 7.83937 0
      vertex -34.8687 8.85225 0
      vertex -33.1144 7.83937 61.96
    endloop
  endfacet
  facet normal 0.5 0.866026 0
    outer loop
      vertex -33.1144 7.83937 61.96
      vertex -34.8687 8.85225 0
      vertex -34.8687 8.85225 61.96
    endloop
  endfacet
  facet normal 0.309017 0.951056 0
    outer loop
      vertex -34.8687 8.85225 0
      vertex -36.7953 9.47825 0
      vertex -34.8687 8.85225 61.96
    endloop
  endfacet
  facet normal 0.309017 0.951056 0
    outer loop
      vertex -34.8687 8.85225 61.96
      vertex -36.7953 9.47825 0
      vertex -36.7953 9.47825 61.96
    endloop
  endfacet
  facet normal 0.104529 0.994522 0
    outer loop
      vertex -36.7953 9.47825 0
      vertex -38.81 9.69 0
      vertex -36.7953 9.47825 61.96
    endloop
  endfacet
  facet normal 0.104529 0.994522 0
    outer loop
      vertex -36.7953 9.47825 61.96
      vertex -38.81 9.69 0
      vertex -38.81 9.69 61.96
    endloop
  endfacet
  facet normal -0.104529 0.994522 0
    outer loop
      vertex -40.8247 9.47825 0
      vertex -40.8247 9.47825 61.96
      vertex -38.81 9.69 0
    endloop
  endfacet
  facet normal -0.104529 0.994522 0
    outer loop
      vertex -38.81 9.69 0
      vertex -40.8247 9.47825 61.96
      vertex -38.81 9.69 61.96
    endloop
  endfacet
  facet normal -0.309017 0.951056 0
    outer loop
      vertex -42.7513 8.85225 0
      vertex -42.7513 8.85225 61.96
      vertex -40.8247 9.47825 0
    endloop
  endfacet
  facet normal -0.309017 0.951056 0
    outer loop
      vertex -40.8247 9.47825 0
      vertex -42.7513 8.85225 61.96
      vertex -40.8247 9.47825 61.96
    endloop
  endfacet
  facet normal -0.5 0.866026 0
    outer loop
      vertex -44.5056 7.83937 0
      vertex -44.5056 7.83937 61.96
      vertex -42.7513 8.85225 0
    endloop
  endfacet
  facet normal -0.5 0.866026 0
    outer loop
      vertex -42.7513 8.85225 0
      vertex -44.5056 7.83937 61.96
      vertex -42.7513 8.85225 61.96
    endloop
  endfacet
  facet normal -0.669131 0.743145 0
    outer loop
      vertex -46.0111 6.48388 0
      vertex -46.0111 6.48388 61.96
      vertex -44.5056 7.83937 0
    endloop
  endfacet
  facet normal -0.669131 0.743145 0
    outer loop
      vertex -44.5056 7.83937 0
      vertex -46.0111 6.48388 61.96
      vertex -44.5056 7.83937 61.96
    endloop
  endfacet
  facet normal -0.809017 0.587785 0
    outer loop
      vertex -47.2018 4.845 0
      vertex -47.2018 4.845 61.96
      vertex -46.0111 6.48388 0
    endloop
  endfacet
  facet normal -0.809017 0.587785 0
    outer loop
      vertex -46.0111 6.48388 0
      vertex -47.2018 4.845 61.96
      vertex -46.0111 6.48388 61.96
    endloop
  endfacet
  facet normal -0.913545 0.406737 0
    outer loop
      vertex -48.0257 2.99438 0
      vertex -48.0257 2.99438 61.96
      vertex -47.2018 4.845 0
    endloop
  endfacet
  facet normal -0.913545 0.406737 0
    outer loop
      vertex -47.2018 4.845 0
      vertex -48.0257 2.99438 61.96
      vertex -47.2018 4.845 61.96
    endloop
  endfacet
  facet normal -0.978148 0.207911 0
    outer loop
      vertex -48.4469 1.01288 0
      vertex -48.4469 1.01288 61.96
      vertex -48.0257 2.99438 0
    endloop
  endfacet
  facet normal -0.978148 0.207911 0
    outer loop
      vertex -48.0257 2.99438 0
      vertex -48.4469 1.01288 61.96
      vertex -48.0257 2.99438 61.96
    endloop
  endfacet
  facet normal -1 6.12303e-17 0
    outer loop
      vertex -48.4469 -1.01288 0
      vertex -48.4469 -1.01288 61.96
      vertex -48.4469 1.01288 0
    endloop
  endfacet
  facet normal -1 6.12303e-17 0
    outer loop
      vertex -48.4469 1.01288 0
      vertex -48.4469 -1.01288 61.96
      vertex -48.4469 1.01288 61.96
    endloop
  endfacet
  facet normal -0.978148 -0.207911 0
    outer loop
      vertex -48.0257 -2.99437 0
      vertex -48.0257 -2.99437 61.96
      vertex -48.4469 -1.01288 0
    endloop
  endfacet
  facet normal -0.978148 -0.207911 0
    outer loop
      vertex -48.4469 -1.01288 0
      vertex -48.0257 -2.99437 61.96
      vertex -48.4469 -1.01288 61.96
    endloop
  endfacet
  facet normal -0.913545 -0.406737 0
    outer loop
      vertex -47.2018 -4.845 0
      vertex -47.2018 -4.845 61.96
      vertex -48.0257 -2.99437 0
    endloop
  endfacet
  facet normal -0.913545 -0.406737 0
    outer loop
      vertex -48.0257 -2.99437 0
      vertex -47.2018 -4.845 61.96
      vertex -48.0257 -2.99437 61.96
    endloop
  endfacet
  facet normal -0.809017 -0.587785 0
    outer loop
      vertex -46.0111 -6.48388 0
      vertex -46.0111 -6.48388 61.96
      vertex -47.2018 -4.845 0
    endloop
  endfacet
  facet normal -0.809017 -0.587785 0
    outer loop
      vertex -47.2018 -4.845 0
      vertex -46.0111 -6.48388 61.96
      vertex -47.2018 -4.845 61.96
    endloop
  endfacet
  facet normal -0.669131 -0.743145 0
    outer loop
      vertex -46.0111 -6.48388 0
      vertex -44.7497 -7.61966 0
      vertex -44.7497 -7.61966 61.96
    endloop
  endfacet
  facet normal -0.669131 -0.743145 0
    outer loop
      vertex -46.0111 -6.48388 61.96
      vertex -46.0111 -6.48388 0
      vertex -44.7497 -7.61966 61.96
    endloop
  endfacet
  facet normal -0.707107 0.707107 0
    outer loop
      vertex -46.26 -9.13 0
      vertex -46.26 -9.13 61.96
      vertex -44.7497 -7.61966 0
    endloop
  endfacet
  facet normal -0.707107 0.707107 0
    outer loop
      vertex -44.7497 -7.61966 0
      vertex -46.26 -9.13 61.96
      vertex -44.7497 -7.61966 61.96
    endloop
  endfacet
  facet normal -1 6.12303e-17 0
    outer loop
      vertex -46.26 -9.69 0
      vertex -46.26 -9.69 61.96
      vertex -46.26 -9.13 0
    endloop
  endfacet
  facet normal -1 6.12303e-17 0
    outer loop
      vertex -46.26 -9.13 0
      vertex -46.26 -9.69 61.96
      vertex -46.26 -9.13 61.96
    endloop
  endfacet
  facet normal -6.12303e-17 -1 0
    outer loop
      vertex -38.81 -9.69 14
      vertex -31.36 -9.69 14
      vertex -31.36 -9.69 61.96
    endloop
  endfacet
  facet normal -6.12303e-17 -1 0
    outer loop
      vertex -46.26 -9.69 0
      vertex -38.81 -9.69 14
      vertex -46.26 -9.69 61.96
    endloop
  endfacet
  facet normal -6.12303e-17 -1 0
    outer loop
      vertex -46.26 -9.69 61.96
      vertex -38.81 -9.69 14
      vertex -31.36 -9.69 61.96
    endloop
  endfacet
  facet normal -6.12303e-17 -1 0
    outer loop
      vertex -38.81 -9.69 0
      vertex -38.81 -9.69 14
      vertex -46.26 -9.69 0
    endloop
  endfacet
  facet normal -0.258819 0.965926 0
    outer loop
      vertex -20.56 -2.16506 4.98
      vertex -20.56 -2.16506 0
      vertex -21.81 -2.5 4.98
    endloop
  endfacet
  facet normal -0.258819 0.965926 0
    outer loop
      vertex -21.81 -2.5 4.98
      vertex -20.56 -2.16506 0
      vertex -21.81 -2.5 0
    endloop
  endfacet
  facet normal 0.258819 0.965926 0
    outer loop
      vertex -23.06 -2.16506 4.98
      vertex -21.81 -2.5 4.98
      vertex -23.06 -2.16506 0
    endloop
  endfacet
  facet normal 0.258819 0.965926 0
    outer loop
      vertex -23.06 -2.16506 0
      vertex -21.81 -2.5 4.98
      vertex -21.81 -2.5 0
    endloop
  endfacet
  facet normal 0.707107 0.707107 0
    outer loop
      vertex -23.9751 -1.25 0
      vertex -23.9751 -1.25 4.98
      vertex -23.06 -2.16506 4.98
    endloop
  endfacet
  facet normal 0.707107 0.707107 0
    outer loop
      vertex -23.06 -2.16506 0
      vertex -23.9751 -1.25 0
      vertex -23.06 -2.16506 4.98
    endloop
  endfacet
  facet normal 0.965926 0.258819 0
    outer loop
      vertex -24.31 -8.8784e-16 0
      vertex -24.31 -8.8784e-16 4.98
      vertex -23.9751 -1.25 4.98
    endloop
  endfacet
  facet normal 0.965926 0.258819 0
    outer loop
      vertex -23.9751 -1.25 0
      vertex -24.31 -8.8784e-16 0
      vertex -23.9751 -1.25 4.98
    endloop
  endfacet
  facet normal 0.965926 -0.258819 0
    outer loop
      vertex -23.9751 1.25 0
      vertex -23.9751 1.25 4.98
      vertex -24.31 -8.8784e-16 4.98
    endloop
  endfacet
  facet normal 0.965926 -0.258819 0
    outer loop
      vertex -24.31 -8.8784e-16 0
      vertex -23.9751 1.25 0
      vertex -24.31 -8.8784e-16 4.98
    endloop
  endfacet
  facet normal 0.707107 -0.707107 0
    outer loop
      vertex -23.06 2.16506 0
      vertex -23.06 2.16506 4.98
      vertex -23.9751 1.25 4.98
    endloop
  endfacet
  facet normal 0.707107 -0.707107 0
    outer loop
      vertex -23.9751 1.25 0
      vertex -23.06 2.16506 0
      vertex -23.9751 1.25 4.98
    endloop
  endfacet
  facet normal 0.258819 -0.965926 0
    outer loop
      vertex -21.81 2.5 0
      vertex -21.81 2.5 4.98
      vertex -23.06 2.16506 4.98
    endloop
  endfacet
  facet normal 0.258819 -0.965926 0
    outer loop
      vertex -23.06 2.16506 0
      vertex -21.81 2.5 0
      vertex -23.06 2.16506 4.98
    endloop
  endfacet
  facet normal -0.258819 -0.965926 0
    outer loop
      vertex -20.56 2.16506 4.98
      vertex -21.81 2.5 4.98
      vertex -21.81 2.5 0
    endloop
  endfacet
  facet normal -0.258819 -0.965926 0
    outer loop
      vertex -20.56 2.16506 0
      vertex -20.56 2.16506 4.98
      vertex -21.81 2.5 0
    endloop
  endfacet
  facet normal -0.707107 -0.707107 0
    outer loop
      vertex -20.56 2.16506 4.98
      vertex -20.56 2.16506 0
      vertex -19.6449 1.25 4.98
    endloop
  endfacet
  facet normal -0.707107 -0.707107 0
    outer loop
      vertex -19.6449 1.25 4.98
      vertex -20.56 2.16506 0
      vertex -19.6449 1.25 0
    endloop
  endfacet
  facet normal -0.965926 -0.258819 0
    outer loop
      vertex -19.6449 1.25 4.98
      vertex -19.6449 1.25 0
      vertex -19.31 -1.19399e-15 4.98
    endloop
  endfacet
  facet normal -0.965926 -0.258819 0
    outer loop
      vertex -19.31 -1.19399e-15 4.98
      vertex -19.6449 1.25 0
      vertex -19.31 -1.19399e-15 0
    endloop
  endfacet
  facet normal -0.965926 0.258819 0
    outer loop
      vertex -19.31 -1.19399e-15 4.98
      vertex -19.31 -1.19399e-15 0
      vertex -19.6449 -1.25 4.98
    endloop
  endfacet
  facet normal -0.965926 0.258819 0
    outer loop
      vertex -19.6449 -1.25 4.98
      vertex -19.31 -1.19399e-15 0
      vertex -19.6449 -1.25 0
    endloop
  endfacet
  facet normal -0.707107 0.707107 0
    outer loop
      vertex -19.6449 -1.25 4.98
      vertex -19.6449 -1.25 0
      vertex -20.56 -2.16506 4.98
    endloop
  endfacet
  facet normal -0.707107 0.707107 0
    outer loop
      vertex -20.56 -2.16506 4.98
      vertex -19.6449 -1.25 0
      vertex -20.56 -2.16506 0
    endloop
  endfacet
  facet normal -6.12304e-17 -1 2.36383e-07
    outer loop
      vertex -23.91 -10.95 10.1369
      vertex -38.81 -10.95 10.1369
      vertex -38.81 -10.95 6.82315
    endloop
  endfacet
  facet normal -6.12304e-17 -1 2.36383e-07
    outer loop
      vertex -23.91 -10.95 6.82315
      vertex -23.91 -10.95 10.1369
      vertex -38.81 -10.95 6.82315
    endloop
  endfacet
  facet normal 1 -6.12303e-17 0
    outer loop
      vertex -31.36 -9.69 61.96
      vertex -31.36 -9.69 14
      vertex -31.36 -9.13 14
    endloop
  endfacet
  facet normal 1 -6.12303e-17 0
    outer loop
      vertex -31.36 -9.13 61.96
      vertex -31.36 -9.69 61.96
      vertex -31.36 -9.13 14
    endloop
  endfacet
  facet normal 0.707107 0.707107 0
    outer loop
      vertex -31.36 -9.13 61.96
      vertex -31.36 -9.13 14
      vertex -32.04 -8.45 14
    endloop
  endfacet
  facet normal 0.707107 0.707107 0
    outer loop
      vertex -32.8703 -7.61966 13.1697
      vertex -31.36 -9.13 61.96
      vertex -32.04 -8.45 14
    endloop
  endfacet
  facet normal 0.707107 0.707107 0
    outer loop
      vertex -32.8703 -7.61966 13.1697
      vertex -32.8703 -7.61966 61.96
      vertex -31.36 -9.13 61.96
    endloop
  endfacet
  facet normal 0.669131 -0.743145 0
    outer loop
      vertex -32.8703 -7.61966 61.96
      vertex -32.8703 -7.61966 13.1697
      vertex -32.6819 -7.45 13
    endloop
  endfacet
  facet normal 0.669131 -0.743145 0
    outer loop
      vertex -31.6089 -6.48388 9.98
      vertex -32.8703 -7.61966 61.96
      vertex -32.6819 -7.45 13
    endloop
  endfacet
  facet normal 0.669131 -0.743145 0
    outer loop
      vertex -32.6819 -7.45 9.98
      vertex -31.6089 -6.48388 9.98
      vertex -32.6819 -7.45 13
    endloop
  endfacet
  facet normal 0.669131 -0.743145 0
    outer loop
      vertex -31.6089 -6.48388 9.98
      vertex -31.6089 -6.48388 61.96
      vertex -32.8703 -7.61966 61.96
    endloop
  endfacet
  facet normal 0 0 1
    outer loop
      vertex -32.6819 -7.45 9.98
      vertex -23.91 -7.45 9.98
      vertex -23.91 -7.44 9.98
    endloop
  endfacet
  facet normal 0 0 1
    outer loop
      vertex -24.1771 -4.1 9.98
      vertex -32.6819 -7.45 9.98
      vertex -23.91 -7.44 9.98
    endloop
  endfacet
  facet normal 0 0 1
    outer loop
      vertex -19.4429 -4.1 9.98
      vertex -24.1771 -4.1 9.98
      vertex -23.91 -7.44 9.98
    endloop
  endfacet
  facet normal 0 0 1
    outer loop
      vertex -25.535 6.45189 9.98
      vertex -29.3996 2.07863 9.98
      vertex -29.1731 1.01288 9.98
    endloop
  endfacet
  facet normal 0 0 1
    outer loop
      vertex -24.1771 4.1 9.98
      vertex -25.535 6.45189 9.98
      vertex -29.1731 -1.01288 9.98
    endloop
  endfacet
  facet normal 0 0 1
    outer loop
      vertex -26.5443 -8.97873e-08 9.98
      vertex -29.1731 -1.01288 9.98
      vertex -29.5943 -2.99438 9.98
    endloop
  endfacet
  facet normal 0 0 1
    outer loop
      vertex -24.1771 -4.1 9.98
      vertex -31.6089 -6.48388 9.98
      vertex -32.6819 -7.45 9.98
    endloop
  endfacet
  facet normal 0 0 1
    outer loop
      vertex -26.5443 -8.97873e-08 9.98
      vertex -24.1771 4.1 9.98
      vertex -29.1731 -1.01288 9.98
    endloop
  endfacet
  facet normal 0 0 1
    outer loop
      vertex -24.1771 -4.1 9.98
      vertex -30.4182 -4.845 9.98
      vertex -31.6089 -6.48388 9.98
    endloop
  endfacet
  facet normal 0 0 1
    outer loop
      vertex -11.2642 -7.44 9.98
      vertex -19.4429 -4.1 9.98
      vertex -23.91 -7.44 9.98
    endloop
  endfacet
  facet normal 0 0 1
    outer loop
      vertex -11.2642 -7.44 9.98
      vertex -14.36 -1.49708e-15 9.98
      vertex -19.4429 -4.1 9.98
    endloop
  endfacet
  facet normal 0 0 1
    outer loop
      vertex -24.1771 4.1 9.98
      vertex -19.4429 4.1 9.98
      vertex -18.085 6.45189 9.98
    endloop
  endfacet
  facet normal 0 0 1
    outer loop
      vertex -18.085 6.45189 9.98
      vertex -25.535 6.45189 9.98
      vertex -24.1771 4.1 9.98
    endloop
  endfacet
  facet normal 0 0 1
    outer loop
      vertex -14.36 -1.49708e-15 9.98
      vertex -18.085 6.45189 9.98
      vertex -19.4429 4.1 9.98
    endloop
  endfacet
  facet normal 0 0 1
    outer loop
      vertex -24.1771 -4.1 9.98
      vertex -29.5943 -2.99438 9.98
      vertex -30.4182 -4.845 9.98
    endloop
  endfacet
  facet normal 0 0 1
    outer loop
      vertex -14.36 -1.49708e-15 9.98
      vertex -19.4429 4.1 9.98
      vertex -17.0757 8.97873e-08 9.98
    endloop
  endfacet
  facet normal 0 0 1
    outer loop
      vertex -29.1731 1.01288 9.98
      vertex -29.1731 -1.01288 9.98
      vertex -25.535 6.45189 9.98
    endloop
  endfacet
  facet normal 0 0 1
    outer loop
      vertex -17.0757 8.97873e-08 9.98
      vertex -19.4429 -4.1 9.98
      vertex -14.36 -1.49708e-15 9.98
    endloop
  endfacet
  facet normal 0 0 1
    outer loop
      vertex -24.1771 -4.1 9.98
      vertex -26.5443 -8.97873e-08 9.98
      vertex -29.5943 -2.99438 9.98
    endloop
  endfacet
  facet normal 1 -6.12303e-17 0
    outer loop
      vertex -23.91 -8.45 2.5
      vertex -23.91 -7.44 2.5
      vertex -23.91 -7.44 9.98
    endloop
  endfacet
  facet normal 1 -6.12303e-17 0
    outer loop
      vertex -23.91 -7.45 12.4857
      vertex -23.91 -8.45 2.5
      vertex -23.91 -7.45 9.98
    endloop
  endfacet
  facet normal 1 -6.12303e-17 0
    outer loop
      vertex -23.91 -7.45 9.98
      vertex -23.91 -8.45 2.5
      vertex -23.91 -7.44 9.98
    endloop
  endfacet
  facet normal 1 -6.12303e-17 0
    outer loop
      vertex -23.91 -10.05 13.98
      vertex -23.91 -8.45 2.5
      vertex -23.91 -7.45 12.4857
    endloop
  endfacet
  facet normal 1 -6.12303e-17 0
    outer loop
      vertex -23.91 -11.05 13.98
      vertex -23.91 -8.45 2.5
      vertex -23.91 -10.05 13.98
    endloop
  endfacet
  facet normal 1 -6.12303e-17 0
    outer loop
      vertex -23.91 -10.95 10.1369
      vertex -23.91 -8.45 2.5
      vertex -23.91 -11.05 13.98
    endloop
  endfacet
  facet normal 1 -6.12303e-17 0
    outer loop
      vertex -23.91 -11.05 10.2369
      vertex -23.91 -10.95 10.1369
      vertex -23.91 -11.05 13.98
    endloop
  endfacet
  facet normal 1 -6.12303e-17 0
    outer loop
      vertex -23.91 -11.05 6.72315
      vertex -23.91 -8.45 2.5
      vertex -23.91 -10.95 6.82315
    endloop
  endfacet
  facet normal 1 -6.12303e-17 0
    outer loop
      vertex -23.91 -11.05 4
      vertex -23.91 -8.45 2.5
      vertex -23.91 -11.05 6.72315
    endloop
  endfacet
  facet normal 1 -6.12303e-17 0
    outer loop
      vertex -23.91 -10.95 10.1369
      vertex -23.91 -10.95 6.82315
      vertex -23.91 -8.45 2.5
    endloop
  endfacet
  facet normal 0 0 1
    outer loop
      vertex -10.26 -7.45 2.5
      vertex -10.2642 -7.44 2.5
      vertex -23.91 -7.44 2.5
    endloop
  endfacet
  facet normal 0 0 1
    outer loop
      vertex -10.26 -8.45 2.5
      vertex -10.26 -7.45 2.5
      vertex -23.91 -8.45 2.5
    endloop
  endfacet
  facet normal 0 0 1
    outer loop
      vertex -23.91 -8.45 2.5
      vertex -10.26 -7.45 2.5
      vertex -23.91 -7.44 2.5
    endloop
  endfacet
  facet normal 1 -6.12303e-17 0
    outer loop
      vertex -10.26 -9.69 3.21538
      vertex -10.26 -9.69 1
      vertex -10.26 -7.45 1
    endloop
  endfacet
  facet normal 1 -6.12303e-17 0
    outer loop
      vertex -10.26 -8.45 2.5
      vertex -10.26 -9.69 3.21538
      vertex -10.26 -7.45 1
    endloop
  endfacet
  facet normal 1 -6.12303e-17 0
    outer loop
      vertex -10.26 -7.45 2.5
      vertex -10.26 -8.45 2.5
      vertex -10.26 -7.45 1
    endloop
  endfacet
  facet normal 0.92326 0.384175 0
    outer loop
      vertex -10.26 -7.45 2.5
      vertex -10.26 -7.45 1
      vertex -13.36 -1.55831e-15 1
    endloop
  endfacet
  facet normal 0.92326 0.384175 0
    outer loop
      vertex -10.2642 -7.44 2.5
      vertex -10.26 -7.45 2.5
      vertex -13.36 -1.55831e-15 1
    endloop
  endfacet
  facet normal 0.92326 0.384175 0
    outer loop
      vertex -13.36 -1.55831e-15 8.98
      vertex -10.2642 -7.44 2.5
      vertex -13.36 -1.55831e-15 1
    endloop
  endfacet
  facet normal 0.92326 0.384175 0
    outer loop
      vertex -10.2642 -7.44 8.98
      vertex -10.2642 -7.44 2.5
      vertex -13.36 -1.55831e-15 8.98
    endloop
  endfacet
  facet normal 0.866025 0.5 0
    outer loop
      vertex -13.36 -1.55831e-15 8.98
      vertex -13.36 -1.55831e-15 1
      vertex -17.585 7.31791 1
    endloop
  endfacet
  facet normal 0.866025 0.5 0
    outer loop
      vertex -17.585 7.31791 8.98
      vertex -13.36 -1.55831e-15 8.98
      vertex -17.585 7.31791 1
    endloop
  endfacet
  facet normal 6.12303e-17 1 0
    outer loop
      vertex -17.585 7.31791 1
      vertex -26.035 7.31791 1
      vertex -17.585 7.31791 8.98
    endloop
  endfacet
  facet normal 6.12303e-17 1 0
    outer loop
      vertex -17.585 7.31791 8.98
      vertex -26.035 7.31791 1
      vertex -26.035 7.31791 8.98
    endloop
  endfacet
  facet normal -0.603079 0.522103 -0.603079
    outer loop
      vertex -29.5713 2.8865 0.699929
      vertex -29.5943 2.99437 0.816252
      vertex -26.035 7.31791 1
    endloop
  endfacet
  facet normal -0.603079 0.522103 -0.603079
    outer loop
      vertex -26.035 7.31791 1
      vertex -29.5943 2.99437 0.816252
      vertex -29.6567 3.13454 1
    endloop
  endfacet
  facet normal -0.75604 0.654525 0
    outer loop
      vertex -29.6567 3.13454 1
      vertex -29.6567 3.13454 8.98
      vertex -26.035 7.31791 1
    endloop
  endfacet
  facet normal -0.75604 0.654525 0
    outer loop
      vertex -26.035 7.31791 1
      vertex -29.6567 3.13454 8.98
      vertex -26.035 7.31791 8.98
    endloop
  endfacet
  facet normal -0.603079 0.522103 0.603079
    outer loop
      vertex -29.5943 2.99437 9.16375
      vertex -29.5713 2.8865 9.28007
      vertex -26.035 7.31791 8.98
    endloop
  endfacet
  facet normal -0.603079 0.522103 0.603079
    outer loop
      vertex -29.6567 3.13454 8.98
      vertex -29.5943 2.99437 9.16375
      vertex -26.035 7.31791 8.98
    endloop
  endfacet
  facet normal 0.978148 0.207911 0
    outer loop
      vertex -29.1731 1.01288 61.96
      vertex -29.1731 1.01288 9.98
      vertex -29.3996 2.07863 9.98
    endloop
  endfacet
  facet normal 0.978148 0.207911 0
    outer loop
      vertex -29.5713 2.8865 9.28007
      vertex -29.1731 1.01288 61.96
      vertex -29.3996 2.07863 9.98
    endloop
  endfacet
  facet normal 0.978148 0.207911 0
    outer loop
      vertex -29.5713 2.8865 9.28007
      vertex -29.5943 2.99437 9.16375
      vertex -29.1731 1.01288 61.96
    endloop
  endfacet
  facet normal 0.978148 0.207911 0
    outer loop
      vertex -29.5943 2.99437 9.16375
      vertex -29.5943 2.99437 61.96
      vertex -29.1731 1.01288 61.96
    endloop
  endfacet
  facet normal 0 0 1
    outer loop
      vertex -44.7497 -7.61966 61.96
      vertex -46.26 -9.13 61.96
      vertex -46.26 -9.69 61.96
    endloop
  endfacet
  facet normal 0 0 1
    outer loop
      vertex -46.26 -9.69 61.96
      vertex -31.36 -9.69 61.96
      vertex -31.36 -9.13 61.96
    endloop
  endfacet
  facet normal 0 0 1
    outer loop
      vertex -31.6089 -6.48388 61.96
      vertex -46.26 -9.69 61.96
      vertex -32.8703 -7.61966 61.96
    endloop
  endfacet
  facet normal 0 0 1
    outer loop
      vertex -32.8703 -7.61966 61.96
      vertex -46.26 -9.69 61.96
      vertex -31.36 -9.13 61.96
    endloop
  endfacet
  facet normal 0 0 1
    outer loop
      vertex -36.8818 -7.19615 61.96
      vertex -46.26 -9.69 61.96
      vertex -31.6089 -6.48388 61.96
    endloop
  endfacet
  facet normal 0 0 1
    outer loop
      vertex -38.81 -7.45 61.96
      vertex -40.7382 -7.19615 61.96
      vertex -46.26 -9.69 61.96
    endloop
  endfacet
  facet normal 0 0 1
    outer loop
      vertex -32.3581 -3.725 61.96
      vertex -33.5421 -5.26795 61.96
      vertex -29.5943 -2.99438 61.96
    endloop
  endfacet
  facet normal 0 0 1
    outer loop
      vertex -47.2018 -4.845 61.96
      vertex -47.2018 4.845 61.96
      vertex -48.0257 2.99438 61.96
    endloop
  endfacet
  facet normal 0 0 1
    outer loop
      vertex -42.535 -6.45189 61.96
      vertex -44.0779 -5.26795 61.96
      vertex -44.7497 -7.61966 61.96
    endloop
  endfacet
  facet normal 0 0 1
    outer loop
      vertex -42.535 -6.45189 61.96
      vertex -44.7497 -7.61966 61.96
      vertex -46.26 -9.69 61.96
    endloop
  endfacet
  facet normal 0 0 1
    outer loop
      vertex -48.0257 -2.99437 61.96
      vertex -48.4469 1.01288 61.96
      vertex -48.4469 -1.01288 61.96
    endloop
  endfacet
  facet normal 0 0 1
    outer loop
      vertex -46.0111 -6.48388 61.96
      vertex -44.7497 -7.61966 61.96
      vertex -44.0779 -5.26795 61.96
    endloop
  endfacet
  facet normal 0 0 1
    outer loop
      vertex -31.36 -4.56166e-16 61.96
      vertex -31.6139 -1.9282 61.96
      vertex -29.1731 1.01288 61.96
    endloop
  endfacet
  facet normal 0 0 1
    outer loop
      vertex -29.5943 2.99437 61.96
      vertex -30.0092 3.92642 61.96
      vertex -31.6139 1.9282 61.96
    endloop
  endfacet
  facet normal 0 0 1
    outer loop
      vertex -29.1731 1.01288 61.96
      vertex -29.5943 2.99437 61.96
      vertex -31.36 -4.56166e-16 61.96
    endloop
  endfacet
  facet normal 0 0 1
    outer loop
      vertex -33.5421 -5.26795 61.96
      vertex -35.085 -6.45189 61.96
      vertex -30.4182 -4.845 61.96
    endloop
  endfacet
  facet normal 0 0 1
    outer loop
      vertex -29.1731 -1.01288 61.96
      vertex -29.1731 1.01288 61.96
      vertex -31.6139 -1.9282 61.96
    endloop
  endfacet
  facet normal 0 0 1
    outer loop
      vertex -29.5943 -2.99438 61.96
      vertex -29.1731 -1.01288 61.96
      vertex -32.3581 -3.725 61.96
    endloop
  endfacet
  facet normal 0 0 1
    outer loop
      vertex -29.5943 -2.99438 61.96
      vertex -33.5421 -5.26795 61.96
      vertex -30.4182 -4.845 61.96
    endloop
  endfacet
  facet normal 0 0 1
    outer loop
      vertex -30.4182 -4.845 61.96
      vertex -35.085 -6.45189 61.96
      vertex -31.6089 -6.48388 61.96
    endloop
  endfacet
  facet normal 0 0 1
    outer loop
      vertex -35.085 -6.45189 61.96
      vertex -36.8818 -7.19615 61.96
      vertex -31.6089 -6.48388 61.96
    endloop
  endfacet
  facet normal 0 0 1
    outer loop
      vertex -36.8818 -7.19615 61.96
      vertex -38.81 -7.45 61.96
      vertex -46.26 -9.69 61.96
    endloop
  endfacet
  facet normal 0 0 1
    outer loop
      vertex -31.6139 1.9282 61.96
      vertex -31.36 -4.56166e-16 61.96
      vertex -29.5943 2.99437 61.96
    endloop
  endfacet
  facet normal 0 0 1
    outer loop
      vertex -31.6139 -1.9282 61.96
      vertex -32.3581 -3.725 61.96
      vertex -29.1731 -1.01288 61.96
    endloop
  endfacet
  facet normal 0 0 1
    outer loop
      vertex -46.0061 1.9282 61.96
      vertex -46.0111 6.48388 61.96
      vertex -46.26 4.56166e-16 61.96
    endloop
  endfacet
  facet normal 0 0 1
    outer loop
      vertex -45.2619 3.725 61.96
      vertex -44.5056 7.83937 61.96
      vertex -46.0061 1.9282 61.96
    endloop
  endfacet
  facet normal 0 0 1
    outer loop
      vertex -44.0779 5.26795 61.96
      vertex -42.7513 8.85225 61.96
      vertex -45.2619 3.725 61.96
    endloop
  endfacet
  facet normal 0 0 1
    outer loop
      vertex -42.535 6.45189 61.96
      vertex -38.81 9.69 61.96
      vertex -44.0779 5.26795 61.96
    endloop
  endfacet
  facet normal 0 0 1
    outer loop
      vertex -40.7382 7.19615 61.96
      vertex -36.7953 9.47825 61.96
      vertex -42.535 6.45189 61.96
    endloop
  endfacet
  facet normal 0 0 1
    outer loop
      vertex -38.81 7.45 61.96
      vertex -34.8687 8.85225 61.96
      vertex -40.7382 7.19615 61.96
    endloop
  endfacet
  facet normal 0 0 1
    outer loop
      vertex -36.8818 7.19615 61.96
      vertex -33.1144 7.83937 61.96
      vertex -38.81 7.45 61.96
    endloop
  endfacet
  facet normal 0 0 1
    outer loop
      vertex -48.0257 -2.99437 61.96
      vertex -47.2018 -4.845 61.96
      vertex -48.4469 1.01288 61.96
    endloop
  endfacet
  facet normal 0 0 1
    outer loop
      vertex -35.085 6.45189 61.96
      vertex -31.0092 5.65847 61.96
      vertex -36.8818 7.19615 61.96
    endloop
  endfacet
  facet normal 0 0 1
    outer loop
      vertex -32.9721 4.5252 61.96
      vertex -31.0092 5.65847 61.96
      vertex -33.5421 5.26795 61.96
    endloop
  endfacet
  facet normal 0 0 1
    outer loop
      vertex -33.5421 5.26795 61.96
      vertex -31.0092 5.65847 61.96
      vertex -35.085 6.45189 61.96
    endloop
  endfacet
  facet normal 0 0 1
    outer loop
      vertex -31.0092 5.65847 61.96
      vertex -31.6089 6.48388 61.96
      vertex -36.8818 7.19615 61.96
    endloop
  endfacet
  facet normal 0 0 1
    outer loop
      vertex -31.6089 6.48388 61.96
      vertex -33.1144 7.83937 61.96
      vertex -36.8818 7.19615 61.96
    endloop
  endfacet
  facet normal 0 0 1
    outer loop
      vertex -33.1144 7.83937 61.96
      vertex -34.8687 8.85225 61.96
      vertex -38.81 7.45 61.96
    endloop
  endfacet
  facet normal 0 0 1
    outer loop
      vertex -34.8687 8.85225 61.96
      vertex -36.7953 9.47825 61.96
      vertex -40.7382 7.19615 61.96
    endloop
  endfacet
  facet normal 0 0 1
    outer loop
      vertex -36.7953 9.47825 61.96
      vertex -38.81 9.69 61.96
      vertex -42.535 6.45189 61.96
    endloop
  endfacet
  facet normal 0 0 1
    outer loop
      vertex -38.81 9.69 61.96
      vertex -40.8247 9.47825 61.96
      vertex -44.0779 5.26795 61.96
    endloop
  endfacet
  facet normal 0 0 1
    outer loop
      vertex -40.8247 9.47825 61.96
      vertex -42.7513 8.85225 61.96
      vertex -44.0779 5.26795 61.96
    endloop
  endfacet
  facet normal 0 0 1
    outer loop
      vertex -42.7513 8.85225 61.96
      vertex -44.5056 7.83937 61.96
      vertex -45.2619 3.725 61.96
    endloop
  endfacet
  facet normal 0 0 1
    outer loop
      vertex -44.5056 7.83937 61.96
      vertex -46.0111 6.48388 61.96
      vertex -46.0061 1.9282 61.96
    endloop
  endfacet
  facet normal 0 0 1
    outer loop
      vertex -46.0111 6.48388 61.96
      vertex -47.2018 4.845 61.96
      vertex -46.26 4.56166e-16 61.96
    endloop
  endfacet
  facet normal 0 0 1
    outer loop
      vertex -48.0257 2.99438 61.96
      vertex -48.4469 1.01288 61.96
      vertex -47.2018 -4.845 61.96
    endloop
  endfacet
  facet normal 0 0 1
    outer loop
      vertex -45.2619 -3.725 61.96
      vertex -46.0061 -1.9282 61.96
      vertex -46.0111 -6.48388 61.96
    endloop
  endfacet
  facet normal 0 0 1
    outer loop
      vertex -46.0111 -6.48388 61.96
      vertex -44.0779 -5.26795 61.96
      vertex -45.2619 -3.725 61.96
    endloop
  endfacet
  facet normal 0 0 1
    outer loop
      vertex -31.9721 2.79315 61.96
      vertex -31.6139 1.9282 61.96
      vertex -30.0092 3.92642 61.96
    endloop
  endfacet
  facet normal 0 0 1
    outer loop
      vertex -40.7382 -7.19615 61.96
      vertex -42.535 -6.45189 61.96
      vertex -46.26 -9.69 61.96
    endloop
  endfacet
  facet normal 0 0 1
    outer loop
      vertex -47.2018 -4.845 61.96
      vertex -46.26 4.56166e-16 61.96
      vertex -47.2018 4.845 61.96
    endloop
  endfacet
  facet normal 0 0 1
    outer loop
      vertex -47.2018 -4.845 61.96
      vertex -46.0061 -1.9282 61.96
      vertex -46.26 4.56166e-16 61.96
    endloop
  endfacet
  facet normal 0 0 1
    outer loop
      vertex -47.2018 -4.845 61.96
      vertex -46.0111 -6.48388 61.96
      vertex -46.0061 -1.9282 61.96
    endloop
  endfacet
  facet normal 0 0 1
    outer loop
      vertex -19.31 -1.19399e-15 4.98
      vertex -17.0757 8.97873e-08 4.98
      vertex -19.4429 4.1 4.98
    endloop
  endfacet
  facet normal 0 0 1
    outer loop
      vertex -19.6449 1.25 4.98
      vertex -19.31 -1.19399e-15 4.98
      vertex -19.4429 4.1 4.98
    endloop
  endfacet
  facet normal 0 0 1
    outer loop
      vertex -19.31 -1.19399e-15 4.98
      vertex -19.6449 -1.25 4.98
      vertex -19.4429 -4.1 4.98
    endloop
  endfacet
  facet normal 0 0 1
    outer loop
      vertex -19.6449 -1.25 4.98
      vertex -20.56 -2.16506 4.98
      vertex -19.4429 -4.1 4.98
    endloop
  endfacet
  facet normal 0 0 1
    outer loop
      vertex -23.06 -2.16506 4.98
      vertex -23.9751 -1.25 4.98
      vertex -26.5443 -8.97873e-08 4.98
    endloop
  endfacet
  facet normal 0 0 1
    outer loop
      vertex -24.1771 -4.1 4.98
      vertex -23.06 -2.16506 4.98
      vertex -26.5443 -8.97873e-08 4.98
    endloop
  endfacet
  facet normal 0 0 1
    outer loop
      vertex -24.1771 -4.1 4.98
      vertex -19.4429 -4.1 4.98
      vertex -23.06 -2.16506 4.98
    endloop
  endfacet
  facet normal 0 0 1
    outer loop
      vertex -26.5443 -8.97873e-08 4.98
      vertex -24.31 -8.8784e-16 4.98
      vertex -24.1771 4.1 4.98
    endloop
  endfacet
  facet normal 0 0 1
    outer loop
      vertex -26.5443 -8.97873e-08 4.98
      vertex -23.9751 -1.25 4.98
      vertex -24.31 -8.8784e-16 4.98
    endloop
  endfacet
  facet normal 0 0 1
    outer loop
      vertex -24.1771 4.1 4.98
      vertex -23.06 2.16506 4.98
      vertex -19.4429 4.1 4.98
    endloop
  endfacet
  facet normal 0 0 1
    outer loop
      vertex -23.06 2.16506 4.98
      vertex -21.81 2.5 4.98
      vertex -19.4429 4.1 4.98
    endloop
  endfacet
  facet normal 0 0 1
    outer loop
      vertex -21.81 2.5 4.98
      vertex -20.56 2.16506 4.98
      vertex -19.4429 4.1 4.98
    endloop
  endfacet
  facet normal 0 0 1
    outer loop
      vertex -20.56 2.16506 4.98
      vertex -19.6449 1.25 4.98
      vertex -19.4429 4.1 4.98
    endloop
  endfacet
  facet normal 0 0 1
    outer loop
      vertex -19.4429 -4.1 4.98
      vertex -17.0757 8.97873e-08 4.98
      vertex -19.31 -1.19399e-15 4.98
    endloop
  endfacet
  facet normal 0 0 1
    outer loop
      vertex -21.81 -2.5 4.98
      vertex -19.4429 -4.1 4.98
      vertex -20.56 -2.16506 4.98
    endloop
  endfacet
  facet normal 0 0 1
    outer loop
      vertex -24.31 -8.8784e-16 4.98
      vertex -23.9751 1.25 4.98
      vertex -24.1771 4.1 4.98
    endloop
  endfacet
  facet normal 0 0 1
    outer loop
      vertex -21.81 -2.5 4.98
      vertex -23.06 -2.16506 4.98
      vertex -19.4429 -4.1 4.98
    endloop
  endfacet
  facet normal 0 0 1
    outer loop
      vertex -23.9751 1.25 4.98
      vertex -23.06 2.16506 4.98
      vertex -24.1771 4.1 4.98
    endloop
  endfacet
  facet normal 0.809017 -0.587785 0
    outer loop
      vertex -31.6089 -6.48388 61.96
      vertex -31.6089 -6.48388 9.98
      vertex -30.4182 -4.845 9.98
    endloop
  endfacet
  facet normal 0.809017 -0.587785 0
    outer loop
      vertex -30.4182 -4.845 61.96
      vertex -31.6089 -6.48388 61.96
      vertex -30.4182 -4.845 9.98
    endloop
  endfacet
  facet normal 0.913545 -0.406737 0
    outer loop
      vertex -30.4182 -4.845 61.96
      vertex -30.4182 -4.845 9.98
      vertex -29.5943 -2.99438 9.98
    endloop
  endfacet
  facet normal 0.913545 -0.406737 0
    outer loop
      vertex -29.5943 -2.99438 61.96
      vertex -30.4182 -4.845 61.96
      vertex -29.5943 -2.99438 9.98
    endloop
  endfacet
  facet normal 0.978148 -0.207911 0
    outer loop
      vertex -29.5943 -2.99438 61.96
      vertex -29.5943 -2.99438 9.98
      vertex -29.1731 -1.01288 9.98
    endloop
  endfacet
  facet normal 0.978148 -0.207911 0
    outer loop
      vertex -29.1731 -1.01288 61.96
      vertex -29.5943 -2.99438 61.96
      vertex -29.1731 -1.01288 9.98
    endloop
  endfacet
  facet normal 1 -6.12303e-17 0
    outer loop
      vertex -29.1731 -1.01288 61.96
      vertex -29.1731 -1.01288 9.98
      vertex -29.1731 1.01288 9.98
    endloop
  endfacet
  facet normal 1 -6.12303e-17 0
    outer loop
      vertex -29.1731 1.01288 61.96
      vertex -29.1731 -1.01288 61.96
      vertex -29.1731 1.01288 9.98
    endloop
  endfacet
  facet normal -0.543776 0.480531 0.68804
    outer loop
      vertex -29.5713 2.8865 9.28007
      vertex -29.3996 2.07863 9.98
      vertex -25.535 6.45189 9.98
    endloop
  endfacet
  facet normal -0.543776 0.480531 0.68804
    outer loop
      vertex -26.035 7.31791 8.98
      vertex -29.5713 2.8865 9.28007
      vertex -25.535 6.45189 9.98
    endloop
  endfacet
  facet normal 4.62858e-17 0.755929 0.654654
    outer loop
      vertex -18.085 6.45189 9.98
      vertex -17.585 7.31791 8.98
      vertex -25.535 6.45189 9.98
    endloop
  endfacet
  facet normal 4.62858e-17 0.755929 0.654654
    outer loop
      vertex -25.535 6.45189 9.98
      vertex -17.585 7.31791 8.98
      vertex -26.035 7.31791 8.98
    endloop
  endfacet
  facet normal 0.654654 0.377964 0.654654
    outer loop
      vertex -18.085 6.45189 9.98
      vertex -14.36 -1.49708e-15 9.98
      vertex -17.585 7.31791 8.98
    endloop
  endfacet
  facet normal 0.654654 0.377964 0.654654
    outer loop
      vertex -14.36 -1.49708e-15 9.98
      vertex -13.36 -1.55831e-15 8.98
      vertex -17.585 7.31791 8.98
    endloop
  endfacet
  facet normal 0.678353 0.282268 0.678353
    outer loop
      vertex -11.2642 -7.44 9.98
      vertex -10.2642 -7.44 8.98
      vertex -13.36 -1.55831e-15 8.98
    endloop
  endfacet
  facet normal 0.678353 0.282268 0.678353
    outer loop
      vertex -14.36 -1.49708e-15 9.98
      vertex -11.2642 -7.44 9.98
      vertex -13.36 -1.55831e-15 8.98
    endloop
  endfacet
  facet normal -6.12303e-17 -1 0
    outer loop
      vertex -10.2642 -7.44 8.98
      vertex -11.2642 -7.44 9.98
      vertex -23.91 -7.44 9.98
    endloop
  endfacet
  facet normal -6.12303e-17 -1 0
    outer loop
      vertex -10.2642 -7.44 2.5
      vertex -10.2642 -7.44 8.98
      vertex -23.91 -7.44 2.5
    endloop
  endfacet
  facet normal -6.12303e-17 -1 0
    outer loop
      vertex -23.91 -7.44 2.5
      vertex -10.2642 -7.44 8.98
      vertex -23.91 -7.44 9.98
    endloop
  endfacet
  facet normal -1.89654e-08 1 0
    outer loop
      vertex -19.4429 -4.1 9.98
      vertex -19.4429 -4.1 4.98
      vertex -24.1771 -4.1 9.98
    endloop
  endfacet
  facet normal -1.89654e-08 1 0
    outer loop
      vertex -24.1771 -4.1 9.98
      vertex -19.4429 -4.1 4.98
      vertex -24.1771 -4.1 4.98
    endloop
  endfacet
  facet normal -0.866025 0.5 0
    outer loop
      vertex -17.0757 8.97873e-08 9.98
      vertex -17.0757 8.97873e-08 4.98
      vertex -19.4429 -4.1 9.98
    endloop
  endfacet
  facet normal -0.866025 0.5 0
    outer loop
      vertex -19.4429 -4.1 9.98
      vertex -17.0757 8.97873e-08 4.98
      vertex -19.4429 -4.1 4.98
    endloop
  endfacet
  facet normal -0.866025 -0.5 0
    outer loop
      vertex -19.4429 4.1 9.98
      vertex -19.4429 4.1 4.98
      vertex -17.0757 8.97873e-08 9.98
    endloop
  endfacet
  facet normal -0.866025 -0.5 0
    outer loop
      vertex -17.0757 8.97873e-08 9.98
      vertex -19.4429 4.1 4.98
      vertex -17.0757 8.97873e-08 4.98
    endloop
  endfacet
  facet normal 1.89654e-08 -1 0
    outer loop
      vertex -19.4429 4.1 4.98
      vertex -19.4429 4.1 9.98
      vertex -24.1771 4.1 9.98
    endloop
  endfacet
  facet normal 1.89654e-08 -1 0
    outer loop
      vertex -24.1771 4.1 4.98
      vertex -19.4429 4.1 4.98
      vertex -24.1771 4.1 9.98
    endloop
  endfacet
  facet normal 0.866025 -0.5 0
    outer loop
      vertex -24.1771 4.1 4.98
      vertex -24.1771 4.1 9.98
      vertex -26.5443 -8.97873e-08 9.98
    endloop
  endfacet
  facet normal 0.866025 -0.5 0
    outer loop
      vertex -26.5443 -8.97873e-08 4.98
      vertex -24.1771 4.1 4.98
      vertex -26.5443 -8.97873e-08 9.98
    endloop
  endfacet
  facet normal 0.866025 0.5 0
    outer loop
      vertex -26.5443 -8.97873e-08 4.98
      vertex -26.5443 -8.97873e-08 9.98
      vertex -24.1771 -4.1 9.98
    endloop
  endfacet
  facet normal 0.866025 0.5 0
    outer loop
      vertex -24.1771 -4.1 4.98
      vertex -26.5443 -8.97873e-08 4.98
      vertex -24.1771 -4.1 9.98
    endloop
  endfacet
endsolid OpenSCAD_Model
