solid solidname
 facet normal 0 -1 -7.33596e-008
  outer loop
    vertex -2.65 10.35 26
    vertex -23.35 10.35 26
    vertex -2.65 10.35 3.65674e-006
  endloop
 endfacet
 facet normal 0 -1 -7.33596e-008
  outer loop
    vertex -2.65 10.35 3.65674e-006
    vertex -23.35 10.35 26
    vertex -23.35 10.35 3.65674e-006
  endloop
 endfacet
 facet normal -1 0 0
  outer loop
    vertex -2.65 -10.35 26
    vertex -2.65 10.35 26
    vertex -2.65 -10.35 2.42293e-006
  endloop
 endfacet
 facet normal -1 0 -0
  outer loop
    vertex -2.65 -10.35 2.42293e-006
    vertex -2.65 10.35 26
    vertex -2.65 10.35 3.65674e-006
  endloop
 endfacet
 facet normal 0 1 7.33596e-008
  outer loop
    vertex -23.35 -10.35 26
    vertex -2.65 -10.35 26
    vertex -23.35 -10.35 2.42293e-006
  endloop
 endfacet
 facet normal 0 1 7.33596e-008
  outer loop
    vertex -23.35 -10.35 2.42293e-006
    vertex -2.65 -10.35 26
    vertex -2.65 -10.35 2.42293e-006
  endloop
 endfacet
 facet normal 1 -0 0
  outer loop
    vertex -23.35 10.35 26
    vertex -23.35 -10.35 26
    vertex -23.35 10.35 3.65674e-006
  endloop
 endfacet
 facet normal 1 0 0
  outer loop
    vertex -23.35 10.35 3.65674e-006
    vertex -23.35 -10.35 26
    vertex -23.35 -10.35 2.42293e-006
  endloop
 endfacet
 facet normal 0 -1 0
  outer loop
    vertex -10.5 -14 2.65
    vertex -15.5 -14 2.65
    vertex -10.5 -14 2.20537e-006
  endloop
 endfacet
 facet normal 0 -1 0
  outer loop
    vertex -10.5 -14 2.20537e-006
    vertex -15.5 -14 2.65
    vertex -15.5 -14 2.20537e-006
  endloop
 endfacet
 facet normal 0 -1 0
  outer loop
    vertex -15.5 -14 23.35
    vertex -10.5 -14 23.35
    vertex -15.5 -14 26
  endloop
 endfacet
 facet normal 0 -1 0
  outer loop
    vertex -15.5 -14 26
    vertex -10.5 -14 23.35
    vertex -10.5 -14 26
  endloop
 endfacet
 facet normal -1 0 0
  outer loop
    vertex -10.5 -39 2.65
    vertex -10.5 -14 2.65
    vertex -10.5 -39 7.15256e-007
  endloop
 endfacet
 facet normal -1 0 -0
  outer loop
    vertex -10.5 -39 7.15256e-007
    vertex -10.5 -14 2.65
    vertex -10.5 -14 2.20537e-006
  endloop
 endfacet
 facet normal 1 -0 0
  outer loop
    vertex -15.5 -14 2.65
    vertex -15.5 -39 2.65
    vertex -15.5 -14 2.20537e-006
  endloop
 endfacet
 facet normal 1 0 0
  outer loop
    vertex -15.5 -14 2.20537e-006
    vertex -15.5 -39 2.65
    vertex -15.5 -39 7.15256e-007
  endloop
 endfacet
 facet normal 1 0 0
  outer loop
    vertex -15.5 -39 23.35
    vertex -15.5 -14 23.35
    vertex -15.5 -39 26
  endloop
 endfacet
 facet normal 1 0 -0
  outer loop
    vertex -15.5 -39 26
    vertex -15.5 -14 23.35
    vertex -15.5 -14 26
  endloop
 endfacet
 facet normal -1 0 0
  outer loop
    vertex -10.5 -14 23.35
    vertex -10.5 -39 23.35
    vertex -10.5 -14 26
  endloop
 endfacet
 facet normal -1 0 0
  outer loop
    vertex -10.5 -14 26
    vertex -10.5 -39 23.35
    vertex -10.5 -39 26
  endloop
 endfacet
 facet normal 0 0 -1
  outer loop
    vertex -2.65 -39 23.35
    vertex -10.5 -39 23.35
    vertex -2.65 -13 23.35
  endloop
 endfacet
 facet normal 0 0 -1
  outer loop
    vertex -2.65 -13 23.35
    vertex -10.5 -39 23.35
    vertex -10.5 -14 23.35
  endloop
 endfacet
 facet normal 0 0 -1
  outer loop
    vertex -15.5 -14 23.35
    vertex -2.65 -13 23.35
    vertex -10.5 -14 23.35
  endloop
 endfacet
 facet normal 0 0 -1
  outer loop
    vertex -15.5 -14 23.35
    vertex -23.35 -13 23.35
    vertex -2.65 -13 23.35
  endloop
 endfacet
 facet normal 0 0 -1
  outer loop
    vertex -15.5 -14 23.35
    vertex -23.35 -39 23.35
    vertex -23.35 -13 23.35
  endloop
 endfacet
 facet normal 0 0 -1
  outer loop
    vertex -15.5 -14 23.35
    vertex -15.5 -39 23.35
    vertex -23.35 -39 23.35
  endloop
 endfacet
 facet normal 0 -1 -0
  outer loop
    vertex -15.5 -39 23.35
    vertex -15.5 -39 26
    vertex -23.35 -39 23.35
  endloop
 endfacet
 facet normal -0 -1 0
  outer loop
    vertex -23.35 -39 23.35
    vertex -15.5 -39 26
    vertex -26 -39 26
  endloop
 endfacet
 facet normal -0 -1 0
  outer loop
    vertex -26 -39 15.5
    vertex -23.35 -39 23.35
    vertex -26 -39 26
  endloop
 endfacet
 facet normal 0 -1 0
  outer loop
    vertex -26 -39 15.5
    vertex -23.35 -39 15.5
    vertex -23.35 -39 23.35
  endloop
 endfacet
 facet normal 0 -1 0
  outer loop
    vertex -15.5 -39 2.65
    vertex -23.35 -39 2.65
    vertex -15.5 -39 7.15256e-007
  endloop
 endfacet
 facet normal 0 -1 -0
  outer loop
    vertex -15.5 -39 7.15256e-007
    vertex -23.35 -39 2.65
    vertex -26 -39 7.15256e-007
  endloop
 endfacet
 facet normal -0 -1 0
  outer loop
    vertex -26 -39 7.15256e-007
    vertex -23.35 -39 2.65
    vertex -26 -39 10.5
  endloop
 endfacet
 facet normal 0 -1 0
  outer loop
    vertex -26 -39 10.5
    vertex -23.35 -39 2.65
    vertex -23.35 -39 10.5
  endloop
 endfacet
 facet normal 0 -7.62939e-008 1
  outer loop
    vertex -23.35 -39 10.5
    vertex -23.35 -14 10.5
    vertex -26 -39 10.5
  endloop
 endfacet
 facet normal 0 -7.62939e-008 1
  outer loop
    vertex -26 -39 10.5
    vertex -23.35 -14 10.5
    vertex -26 -14 10.5
  endloop
 endfacet
 facet normal 0 -7.62939e-008 1
  outer loop
    vertex -2.65 -14 10.5
    vertex -2.65 -39 10.5
    vertex 0 -14 10.5
  endloop
 endfacet
 facet normal 0 -7.62939e-008 1
  outer loop
    vertex 0 -14 10.5
    vertex -2.65 -39 10.5
    vertex 0 -39 10.5
  endloop
 endfacet
 facet normal 0 -1 -1.90735e-007
  outer loop
    vertex -23.35 -14 10.5
    vertex -23.35 -14 15.5
    vertex -26 -14 10.5
  endloop
 endfacet
 facet normal -0 -1 -1.90735e-007
  outer loop
    vertex -26 -14 10.5
    vertex -23.35 -14 15.5
    vertex -26 -14 15.5
  endloop
 endfacet
 facet normal 0 -1 -1.90735e-007
  outer loop
    vertex -2.65 -14 15.5
    vertex -2.65 -14 10.5
    vertex 0 -14 15.5
  endloop
 endfacet
 facet normal 0 -1 -1.90735e-007
  outer loop
    vertex 0 -14 15.5
    vertex -2.65 -14 10.5
    vertex 0 -14 10.5
  endloop
 endfacet
 facet normal 0 3.8147e-008 -1
  outer loop
    vertex -23.35 -14 15.5
    vertex -23.35 -39 15.5
    vertex -26 -14 15.5
  endloop
 endfacet
 facet normal 0 3.8147e-008 -1
  outer loop
    vertex -26 -14 15.5
    vertex -23.35 -39 15.5
    vertex -26 -39 15.5
  endloop
 endfacet
 facet normal 0 3.8147e-008 -1
  outer loop
    vertex -2.65 -39 15.5
    vertex -2.65 -14 15.5
    vertex 0 -39 15.5
  endloop
 endfacet
 facet normal 0 3.8147e-008 -1
  outer loop
    vertex 0 -39 15.5
    vertex -2.65 -14 15.5
    vertex 0 -14 15.5
  endloop
 endfacet
 facet normal -1 0 0
  outer loop
    vertex -2.65 -39 2.65
    vertex -2.65 -39 10.5
    vertex -2.65 -13 2.65
  endloop
 endfacet
 facet normal -1 0 0
  outer loop
    vertex -2.65 -13 2.65
    vertex -2.65 -39 10.5
    vertex -2.65 -14 10.5
  endloop
 endfacet
 facet normal -1 0 0
  outer loop
    vertex -2.65 -14 15.5
    vertex -2.65 -13 2.65
    vertex -2.65 -14 10.5
  endloop
 endfacet
 facet normal -1 0 -0
  outer loop
    vertex -2.65 -14 15.5
    vertex -2.65 -13 23.35
    vertex -2.65 -13 2.65
  endloop
 endfacet
 facet normal -1 0 0
  outer loop
    vertex -2.65 -14 15.5
    vertex -2.65 -39 23.35
    vertex -2.65 -13 23.35
  endloop
 endfacet
 facet normal -1 0 0
  outer loop
    vertex -2.65 -14 15.5
    vertex -2.65 -39 15.5
    vertex -2.65 -39 23.35
  endloop
 endfacet
 facet normal -1 0 0
  outer loop
    vertex -26 39 10.5
    vertex -26 39 5.36442e-006
    vertex -26 14 10.5
  endloop
 endfacet
 facet normal -1 -0 0
  outer loop
    vertex -26 14 10.5
    vertex -26 39 5.36442e-006
    vertex -26 -39 7.15256e-007
  endloop
 endfacet
 facet normal -1 0 0
  outer loop
    vertex -26 -14 10.5
    vertex -26 -39 7.15256e-007
    vertex -26 -39 10.5
  endloop
 endfacet
 facet normal -1 0 0
  outer loop
    vertex -26 -14 10.5
    vertex -26 14 10.5
    vertex -26 -39 7.15256e-007
  endloop
 endfacet
 facet normal -1 0 0
  outer loop
    vertex -26 -14 10.5
    vertex -26 -14 15.5
    vertex -26 14 10.5
  endloop
 endfacet
 facet normal -1 0 0
  outer loop
    vertex -26 14 10.5
    vertex -26 -14 15.5
    vertex -26 14 15.5
  endloop
 endfacet
 facet normal -1 0 0
  outer loop
    vertex -26 14 15.5
    vertex -26 -14 15.5
    vertex -26 -39 26
  endloop
 endfacet
 facet normal -1 0 0
  outer loop
    vertex -26 39 26
    vertex -26 14 15.5
    vertex -26 -39 26
  endloop
 endfacet
 facet normal -1 -0 0
  outer loop
    vertex -26 39 26
    vertex -26 39 15.5
    vertex -26 14 15.5
  endloop
 endfacet
 facet normal -1 0 0
  outer loop
    vertex -26 -14 15.5
    vertex -26 -39 15.5
    vertex -26 -39 26
  endloop
 endfacet
 facet normal 0 -1 0
  outer loop
    vertex -10.5 -39 23.35
    vertex -2.65 -39 23.35
    vertex -10.5 -39 26
  endloop
 endfacet
 facet normal 0 -1 0
  outer loop
    vertex -10.5 -39 26
    vertex -2.65 -39 23.35
    vertex 0 -39 26
  endloop
 endfacet
 facet normal 0 -1 0
  outer loop
    vertex 0 -39 26
    vertex -2.65 -39 23.35
    vertex 0 -39 15.5
  endloop
 endfacet
 facet normal 0 -1 0
  outer loop
    vertex 0 -39 15.5
    vertex -2.65 -39 23.35
    vertex -2.65 -39 15.5
  endloop
 endfacet
 facet normal 0 -1 0
  outer loop
    vertex -10.5 -39 2.65
    vertex -10.5 -39 7.15256e-007
    vertex -2.65 -39 2.65
  endloop
 endfacet
 facet normal 0 -1 0
  outer loop
    vertex -2.65 -39 2.65
    vertex -10.5 -39 7.15256e-007
    vertex 0 -39 7.15256e-007
  endloop
 endfacet
 facet normal 0 -1 0
  outer loop
    vertex 0 -39 10.5
    vertex -2.65 -39 2.65
    vertex 0 -39 7.15256e-007
  endloop
 endfacet
 facet normal 0 -1 0
  outer loop
    vertex 0 -39 10.5
    vertex -2.65 -39 10.5
    vertex -2.65 -39 2.65
  endloop
 endfacet
 facet normal 1 0 0
  outer loop
    vertex 0 -39 10.5
    vertex 0 -39 7.15256e-007
    vertex 0 -14 10.5
  endloop
 endfacet
 facet normal 1 0 0
  outer loop
    vertex 0 -14 10.5
    vertex 0 -39 7.15256e-007
    vertex 0 -13 2.26498e-006
  endloop
 endfacet
 facet normal 1 -0 0
  outer loop
    vertex 0 -13 26
    vertex 0 -14 10.5
    vertex 0 -13 2.26498e-006
  endloop
 endfacet
 facet normal 1 -0 0
  outer loop
    vertex 0 -13 26
    vertex 0 -14 15.5
    vertex 0 -14 10.5
  endloop
 endfacet
 facet normal 1 0 0
  outer loop
    vertex 0 -13 26
    vertex 0 -39 15.5
    vertex 0 -14 15.5
  endloop
 endfacet
 facet normal 1 -0 0
  outer loop
    vertex 0 -13 26
    vertex 0 -39 26
    vertex 0 -39 15.5
  endloop
 endfacet
 facet normal 0 -6.67572e-008 1
  outer loop
    vertex -10.5 -39 2.65
    vertex -2.65 -39 2.65
    vertex -10.5 -14 2.65
  endloop
 endfacet
 facet normal 8.17702e-009 -6.41896e-008 1
  outer loop
    vertex -10.5 -14 2.65
    vertex -2.65 -39 2.65
    vertex -2.65 -13 2.65
  endloop
 endfacet
 facet normal 0 -0 1
  outer loop
    vertex -23.35 -13 2.65
    vertex -10.5 -14 2.65
    vertex -2.65 -13 2.65
  endloop
 endfacet
 facet normal 0 -0 1
  outer loop
    vertex -23.35 -13 2.65
    vertex -15.5 -14 2.65
    vertex -10.5 -14 2.65
  endloop
 endfacet
 facet normal -8.5041e-009 -6.67572e-008 1
  outer loop
    vertex -23.35 -13 2.65
    vertex -15.5 -39 2.65
    vertex -15.5 -14 2.65
  endloop
 endfacet
 facet normal 0 -6.41896e-008 1
  outer loop
    vertex -23.35 -13 2.65
    vertex -23.35 -39 2.65
    vertex -15.5 -39 2.65
  endloop
 endfacet
 facet normal 1 0 0
  outer loop
    vertex -23.35 -39 10.5
    vertex -23.35 -39 2.65
    vertex -23.35 -14 10.5
  endloop
 endfacet
 facet normal 1 0 0
  outer loop
    vertex -23.35 -14 10.5
    vertex -23.35 -39 2.65
    vertex -23.35 -13 2.65
  endloop
 endfacet
 facet normal 1 -0 0
  outer loop
    vertex -23.35 -13 23.35
    vertex -23.35 -14 10.5
    vertex -23.35 -13 2.65
  endloop
 endfacet
 facet normal 1 -0 0
  outer loop
    vertex -23.35 -13 23.35
    vertex -23.35 -14 15.5
    vertex -23.35 -14 10.5
  endloop
 endfacet
 facet normal 1 0 0
  outer loop
    vertex -23.35 -13 23.35
    vertex -23.35 -39 15.5
    vertex -23.35 -14 15.5
  endloop
 endfacet
 facet normal 1 -0 0
  outer loop
    vertex -23.35 -13 23.35
    vertex -23.35 -39 23.35
    vertex -23.35 -39 15.5
  endloop
 endfacet
 facet normal -0 -1 -4.60712e-008
  outer loop
    vertex -23.35 -13 2.65
    vertex -2.65 -13 2.65
    vertex -23.35 -13 23.35
  endloop
 endfacet
 facet normal 0 -1 -4.60712e-008
  outer loop
    vertex -23.35 -13 23.35
    vertex -2.65 -13 2.65
    vertex -2.65 -13 23.35
  endloop
 endfacet
 facet normal 0 1 8.97555e-008
  outer loop
    vertex 1 -2.5 2.65631
    vertex 26 -2.5 2.65631
    vertex 1 -2.5 2.89083e-006
  endloop
 endfacet
 facet normal 0 1 8.97555e-008
  outer loop
    vertex 1 -2.5 2.89083e-006
    vertex 26 -2.5 2.65631
    vertex 26 -2.5 2.89083e-006
  endloop
 endfacet
 facet normal 1 -0 0
  outer loop
    vertex 1 2.5 2.65631
    vertex 1 -2.5 2.65631
    vertex 1 2.5 3.18885e-006
  endloop
 endfacet
 facet normal 1 0 0
  outer loop
    vertex 1 2.5 3.18885e-006
    vertex 1 -2.5 2.65631
    vertex 1 -2.5 2.89083e-006
  endloop
 endfacet
 facet normal 0 -1 -8.97555e-008
  outer loop
    vertex 26 2.5 2.65631
    vertex 1 2.5 2.65631
    vertex 26 2.5 3.18885e-006
  endloop
 endfacet
 facet normal 0 -1 -8.97555e-008
  outer loop
    vertex 26 2.5 3.18885e-006
    vertex 1 2.5 2.65631
    vertex 1 2.5 3.18885e-006
  endloop
 endfacet
 facet normal -0 -1 -9.01841e-008
  outer loop
    vertex 1 2.5 23.3563
    vertex 26 2.5 23.3563
    vertex 1 2.5 26
  endloop
 endfacet
 facet normal 0 -1 -9.01841e-008
  outer loop
    vertex 1 2.5 26
    vertex 26 2.5 23.3563
    vertex 26 2.5 26
  endloop
 endfacet
 facet normal 1 0 0
  outer loop
    vertex 1 -2.5 23.3563
    vertex 1 2.5 23.3563
    vertex 1 -2.5 26
  endloop
 endfacet
 facet normal 1 0 0
  outer loop
    vertex 1 -2.5 26
    vertex 1 2.5 23.3563
    vertex 1 2.5 26
  endloop
 endfacet
 facet normal -0 1 9.01841e-008
  outer loop
    vertex 26 -2.5 23.3563
    vertex 1 -2.5 23.3563
    vertex 26 -2.5 26
  endloop
 endfacet
 facet normal 0 1 9.01841e-008
  outer loop
    vertex 26 -2.5 26
    vertex 1 -2.5 23.3563
    vertex 1 -2.5 26
  endloop
 endfacet
 facet normal 1 0 0
  outer loop
    vertex -15.5 14 23.35
    vertex -15.5 39 23.35
    vertex -15.5 14 26
  endloop
 endfacet
 facet normal 1 0 -0
  outer loop
    vertex -15.5 14 26
    vertex -15.5 39 23.35
    vertex -15.5 39 26
  endloop
 endfacet
 facet normal 0 1 0
  outer loop
    vertex -10.5 14 23.35
    vertex -15.5 14 23.35
    vertex -10.5 14 26
  endloop
 endfacet
 facet normal 0 1 0
  outer loop
    vertex -10.5 14 26
    vertex -15.5 14 23.35
    vertex -15.5 14 26
  endloop
 endfacet
 facet normal 0 1 0
  outer loop
    vertex -15.5 14 2.65
    vertex -10.5 14 2.65
    vertex -15.5 14 3.8743e-006
  endloop
 endfacet
 facet normal 0 1 0
  outer loop
    vertex -15.5 14 3.8743e-006
    vertex -10.5 14 2.65
    vertex -10.5 14 3.8743e-006
  endloop
 endfacet
 facet normal -1 0 0
  outer loop
    vertex -10.5 39 23.35
    vertex -10.5 14 23.35
    vertex -10.5 39 26
  endloop
 endfacet
 facet normal -1 0 0
  outer loop
    vertex -10.5 39 26
    vertex -10.5 14 23.35
    vertex -10.5 14 26
  endloop
 endfacet
 facet normal -1 0 0
  outer loop
    vertex -10.5 14 2.65
    vertex -10.5 39 2.65
    vertex -10.5 14 3.8743e-006
  endloop
 endfacet
 facet normal -1 0 -0
  outer loop
    vertex -10.5 14 3.8743e-006
    vertex -10.5 39 2.65
    vertex -10.5 39 5.36442e-006
  endloop
 endfacet
 facet normal 1 -0 0
  outer loop
    vertex -15.5 39 2.65
    vertex -15.5 14 2.65
    vertex -15.5 39 5.36442e-006
  endloop
 endfacet
 facet normal 1 0 0
  outer loop
    vertex -15.5 39 5.36442e-006
    vertex -15.5 14 2.65
    vertex -15.5 14 3.8743e-006
  endloop
 endfacet
 facet normal 1 0 0
  outer loop
    vertex 26 2.5 23.3563
    vertex 26 10.35 23.3563
    vertex 26 2.5 26
  endloop
 endfacet
 facet normal 1 0 -0
  outer loop
    vertex 26 2.5 26
    vertex 26 10.35 23.3563
    vertex 26 13 26
  endloop
 endfacet
 facet normal 1 -0 0
  outer loop
    vertex 26 13 26
    vertex 26 10.35 23.3563
    vertex 26 13 15.5
  endloop
 endfacet
 facet normal 1 0 0
  outer loop
    vertex 26 13 15.5
    vertex 26 10.35 23.3563
    vertex 26 10.35 15.5
  endloop
 endfacet
 facet normal 1 0 -0
  outer loop
    vertex 26 2.5 2.65631
    vertex 26 2.5 3.18885e-006
    vertex 26 10.35 2.65631
  endloop
 endfacet
 facet normal 1 0 0
  outer loop
    vertex 26 10.35 2.65631
    vertex 26 2.5 3.18885e-006
    vertex 26 13 3.8147e-006
  endloop
 endfacet
 facet normal 1 -0 0
  outer loop
    vertex 26 13 10.5
    vertex 26 10.35 2.65631
    vertex 26 13 3.8147e-006
  endloop
 endfacet
 facet normal 1 -0 0
  outer loop
    vertex 26 13 10.5
    vertex 26 10.35 10.5
    vertex 26 10.35 2.65631
  endloop
 endfacet
 facet normal 1 -0 0
  outer loop
    vertex 26 -2.5 2.65631
    vertex 26 -10.35 2.65631
    vertex 26 -2.5 2.89083e-006
  endloop
 endfacet
 facet normal 1 0 0
  outer loop
    vertex 26 -2.5 2.89083e-006
    vertex 26 -10.35 2.65631
    vertex 26 -13 2.26498e-006
  endloop
 endfacet
 facet normal 1 0 0
  outer loop
    vertex 26 -13 2.26498e-006
    vertex 26 -10.35 2.65631
    vertex 26 -13 10.5
  endloop
 endfacet
 facet normal 1 0 0
  outer loop
    vertex 26 -13 10.5
    vertex 26 -10.35 2.65631
    vertex 26 -10.35 10.5
  endloop
 endfacet
 facet normal 0 -6.07436e-008 1
  outer loop
    vertex 26 -2.5 2.65631
    vertex 1 -2.5 2.65631
    vertex 26 -10.35 2.65631
  endloop
 endfacet
 facet normal 0 -6.07436e-008 1
  outer loop
    vertex 26 -10.35 2.65631
    vertex 1 -2.5 2.65631
    vertex 0 -10.35 2.65631
  endloop
 endfacet
 facet normal 2.71797e-007 -9.53674e-008 1
  outer loop
    vertex 0 -10.35 2.65631
    vertex 1 -2.5 2.65631
    vertex 1 2.5 2.65631
  endloop
 endfacet
 facet normal 0 -6.07436e-008 1
  outer loop
    vertex 0 10.35 2.65631
    vertex 1 2.5 2.65631
    vertex 26 10.35 2.65631
  endloop
 endfacet
 facet normal -6.56515e-008 -6.91068e-008 1
  outer loop
    vertex 0 10.35 2.65631
    vertex 0 -10.35 2.65631
    vertex 1 2.5 2.65631
  endloop
 endfacet
 facet normal 0 -6.07436e-008 1
  outer loop
    vertex 1 2.5 2.65631
    vertex 26 2.5 2.65631
    vertex 26 10.35 2.65631
  endloop
 endfacet
 facet normal 0 1 -0
  outer loop
    vertex -15.5 39 2.65
    vertex -15.5 39 5.36442e-006
    vertex -23.35 39 2.65
  endloop
 endfacet
 facet normal 0 1 0
  outer loop
    vertex -23.35 39 2.65
    vertex -15.5 39 5.36442e-006
    vertex -26 39 5.36442e-006
  endloop
 endfacet
 facet normal 0 1 0
  outer loop
    vertex -26 39 10.5
    vertex -23.35 39 2.65
    vertex -26 39 5.36442e-006
  endloop
 endfacet
 facet normal 0 1 0
  outer loop
    vertex -26 39 10.5
    vertex -23.35 39 10.5
    vertex -23.35 39 2.65
  endloop
 endfacet
 facet normal 0 1 0
  outer loop
    vertex -10.5 39 2.65
    vertex -2.65 39 2.65
    vertex -10.5 39 5.36442e-006
  endloop
 endfacet
 facet normal 0 1 0
  outer loop
    vertex -10.5 39 5.36442e-006
    vertex -2.65 39 2.65
    vertex 0 39 5.36442e-006
  endloop
 endfacet
 facet normal -0 1 0
  outer loop
    vertex 0 39 5.36442e-006
    vertex -2.65 39 2.65
    vertex 0 39 10.5
  endloop
 endfacet
 facet normal 0 1 0
  outer loop
    vertex 0 39 10.5
    vertex -2.65 39 2.65
    vertex -2.65 39 10.5
  endloop
 endfacet
 facet normal 0 -6.41896e-008 1
  outer loop
    vertex -2.65 39 2.65
    vertex -10.5 39 2.65
    vertex -2.65 13 2.65
  endloop
 endfacet
 facet normal 2.30826e-008 -5.72205e-008 1
  outer loop
    vertex -2.65 13 2.65
    vertex -10.5 39 2.65
    vertex -10.5 14 2.65
  endloop
 endfacet
 facet normal 0 -2.38419e-007 1
  outer loop
    vertex -15.5 14 2.65
    vertex -2.65 13 2.65
    vertex -10.5 14 2.65
  endloop
 endfacet
 facet normal 0 -2.38419e-007 1
  outer loop
    vertex -15.5 14 2.65
    vertex -23.35 13 2.65
    vertex -2.65 13 2.65
  endloop
 endfacet
 facet normal -2.21948e-008 -6.41896e-008 1
  outer loop
    vertex -15.5 14 2.65
    vertex -23.35 39 2.65
    vertex -23.35 13 2.65
  endloop
 endfacet
 facet normal 0 -5.72205e-008 1
  outer loop
    vertex -15.5 14 2.65
    vertex -15.5 39 2.65
    vertex -23.35 39 2.65
  endloop
 endfacet
 facet normal 0 7.33596e-008 -1
  outer loop
    vertex -23.35 39 23.35
    vertex -15.5 39 23.35
    vertex -23.35 13 23.35
  endloop
 endfacet
 facet normal -9.71897e-009 7.6294e-008 -1
  outer loop
    vertex -23.35 13 23.35
    vertex -15.5 39 23.35
    vertex -15.5 14 23.35
  endloop
 endfacet
 facet normal 0 0 -1
  outer loop
    vertex -10.5 14 23.35
    vertex -23.35 13 23.35
    vertex -15.5 14 23.35
  endloop
 endfacet
 facet normal 0 0 -1
  outer loop
    vertex -10.5 14 23.35
    vertex -2.65 13 23.35
    vertex -23.35 13 23.35
  endloop
 endfacet
 facet normal 9.34517e-009 7.33596e-008 -1
  outer loop
    vertex -10.5 14 23.35
    vertex -2.65 39 23.35
    vertex -2.65 13 23.35
  endloop
 endfacet
 facet normal 0 7.6294e-008 -1
  outer loop
    vertex -10.5 14 23.35
    vertex -10.5 39 23.35
    vertex -2.65 39 23.35
  endloop
 endfacet
 facet normal 0 -7.33596e-008 1
  outer loop
    vertex 0 39 26
    vertex -10.5 39 26
    vertex 0 13 26
  endloop
 endfacet
 facet normal -7.26609e-009 -7.6294e-008 1
  outer loop
    vertex 0 13 26
    vertex -10.5 39 26
    vertex -10.5 14 26
  endloop
 endfacet
 facet normal 0 0 1
  outer loop
    vertex -2.65 10.35 26
    vertex -10.5 14 26
    vertex -15.5 14 26
  endloop
 endfacet
 facet normal 2.96784e-008 -6.3829e-008 1
  outer loop
    vertex -23.35 10.35 26
    vertex -15.5 14 26
    vertex -26 39 26
  endloop
 endfacet
 facet normal 1.91012e-007 -4.89064e-008 1
  outer loop
    vertex -26 -39 26
    vertex -23.35 10.35 26
    vertex -26 39 26
  endloop
 endfacet
 facet normal 9.96182e-007 -9.21425e-008 1
  outer loop
    vertex -26 -39 26
    vertex -23.35 -10.35 26
    vertex -23.35 10.35 26
  endloop
 endfacet
 facet normal 0 0 1
  outer loop
    vertex -26 -39 26
    vertex -15.5 -14 26
    vertex -23.35 -10.35 26
  endloop
 endfacet
 facet normal 0 -0 1
  outer loop
    vertex -26 -39 26
    vertex -15.5 -39 26
    vertex -15.5 -14 26
  endloop
 endfacet
 facet normal -1.65856e-007 -1.65856e-007 1
  outer loop
    vertex 0 -13 26
    vertex 1 -2.5 26
    vertex -2.65 -10.35 26
  endloop
 endfacet
 facet normal 0 0 1
  outer loop
    vertex -10.5 -14 26
    vertex -2.65 -10.35 26
    vertex -23.35 -10.35 26
  endloop
 endfacet
 facet normal 0 0 1
  outer loop
    vertex -15.5 -14 26
    vertex -10.5 -14 26
    vertex -23.35 -10.35 26
  endloop
 endfacet
 facet normal 0 0 1
  outer loop
    vertex -10.5 -39 26
    vertex 0 -39 26
    vertex -10.5 -14 26
  endloop
 endfacet
 facet normal 0 -0 1
  outer loop
    vertex -10.5 -14 26
    vertex 0 -39 26
    vertex 0 -13 26
  endloop
 endfacet
 facet normal 0 0 1
  outer loop
    vertex -2.65 -10.35 26
    vertex -10.5 -14 26
    vertex 0 -13 26
  endloop
 endfacet
 facet normal 0 -1.81652e-007 1
  outer loop
    vertex 0 -13 26
    vertex 26 -13 26
    vertex 1 -2.5 26
  endloop
 endfacet
 facet normal 0 -1.81652e-007 1
  outer loop
    vertex 1 -2.5 26
    vertex 26 -13 26
    vertex 26 -2.5 26
  endloop
 endfacet
 facet normal -5.22561e-007 0 1
  outer loop
    vertex 1 -2.5 26
    vertex 1 2.5 26
    vertex -2.65 -10.35 26
  endloop
 endfacet
 facet normal -1.98169e-007 -9.21425e-008 1
  outer loop
    vertex -2.65 -10.35 26
    vertex 1 2.5 26
    vertex -2.65 10.35 26
  endloop
 endfacet
 facet normal 0 0 1
  outer loop
    vertex -2.65 10.35 26
    vertex 1 2.5 26
    vertex 0 13 26
  endloop
 endfacet
 facet normal 0 -0 1
  outer loop
    vertex -10.5 14 26
    vertex -2.65 10.35 26
    vertex 0 13 26
  endloop
 endfacet
 facet normal 0 0 1
  outer loop
    vertex 1 2.5 26
    vertex 26 2.5 26
    vertex 0 13 26
  endloop
 endfacet
 facet normal 0 -0 1
  outer loop
    vertex 0 13 26
    vertex 26 2.5 26
    vertex 26 13 26
  endloop
 endfacet
 facet normal 0 -7.6294e-008 1
  outer loop
    vertex -15.5 14 26
    vertex -15.5 39 26
    vertex -26 39 26
  endloop
 endfacet
 facet normal 0 0 1
  outer loop
    vertex -2.65 10.35 26
    vertex -15.5 14 26
    vertex -23.35 10.35 26
  endloop
 endfacet
 facet normal 0 1 0
  outer loop
    vertex -10.5 39 23.35
    vertex -10.5 39 26
    vertex -2.65 39 23.35
  endloop
 endfacet
 facet normal -0 1 0
  outer loop
    vertex -2.65 39 23.35
    vertex -10.5 39 26
    vertex 0 39 26
  endloop
 endfacet
 facet normal -0 1 0
  outer loop
    vertex 0 39 15.5
    vertex -2.65 39 23.35
    vertex 0 39 26
  endloop
 endfacet
 facet normal 0 1 0
  outer loop
    vertex 0 39 15.5
    vertex -2.65 39 15.5
    vertex -2.65 39 23.35
  endloop
 endfacet
 facet normal 0 1 -0
  outer loop
    vertex -23.35 14 15.5
    vertex -23.35 14 10.5
    vertex -26 14 15.5
  endloop
 endfacet
 facet normal 0 1 0
  outer loop
    vertex -26 14 15.5
    vertex -23.35 14 10.5
    vertex -26 14 10.5
  endloop
 endfacet
 facet normal 0 -7.6294e-008 1
  outer loop
    vertex -23.35 14 10.5
    vertex -23.35 39 10.5
    vertex -26 14 10.5
  endloop
 endfacet
 facet normal 0 -7.6294e-008 1
  outer loop
    vertex -26 14 10.5
    vertex -23.35 39 10.5
    vertex -26 39 10.5
  endloop
 endfacet
 facet normal 0 7.6294e-008 -1
  outer loop
    vertex -23.35 39 15.5
    vertex -23.35 14 15.5
    vertex -26 39 15.5
  endloop
 endfacet
 facet normal 0 7.6294e-008 -1
  outer loop
    vertex -26 39 15.5
    vertex -23.35 14 15.5
    vertex -26 14 15.5
  endloop
 endfacet
 facet normal 0 7.6294e-008 -1
  outer loop
    vertex -2.65 14 15.5
    vertex -2.65 39 15.5
    vertex 0 14 15.5
  endloop
 endfacet
 facet normal 0 7.6294e-008 -1
  outer loop
    vertex 0 14 15.5
    vertex -2.65 39 15.5
    vertex 0 39 15.5
  endloop
 endfacet
 facet normal 0 1 0
  outer loop
    vertex -2.65 14 10.5
    vertex -2.65 14 15.5
    vertex 0 14 10.5
  endloop
 endfacet
 facet normal -0 1 0
  outer loop
    vertex 0 14 10.5
    vertex -2.65 14 15.5
    vertex 0 14 15.5
  endloop
 endfacet
 facet normal 0 -7.6294e-008 1
  outer loop
    vertex -2.65 39 10.5
    vertex -2.65 14 10.5
    vertex 0 39 10.5
  endloop
 endfacet
 facet normal 0 -7.6294e-008 1
  outer loop
    vertex 0 39 10.5
    vertex -2.65 14 10.5
    vertex 0 14 10.5
  endloop
 endfacet
 facet normal 1 0 0
  outer loop
    vertex 0 39 5.36442e-006
    vertex 0 39 10.5
    vertex 0 13 3.8147e-006
  endloop
 endfacet
 facet normal 1 0 0
  outer loop
    vertex 0 13 3.8147e-006
    vertex 0 39 10.5
    vertex 0 14 10.5
  endloop
 endfacet
 facet normal 1 0 0
  outer loop
    vertex 0 14 15.5
    vertex 0 13 3.8147e-006
    vertex 0 14 10.5
  endloop
 endfacet
 facet normal 1 0 0
  outer loop
    vertex 0 14 15.5
    vertex 0 13 26
    vertex 0 13 3.8147e-006
  endloop
 endfacet
 facet normal 1 0 0
  outer loop
    vertex 0 14 15.5
    vertex 0 39 26
    vertex 0 13 26
  endloop
 endfacet
 facet normal 1 0 -0
  outer loop
    vertex 0 14 15.5
    vertex 0 39 15.5
    vertex 0 39 26
  endloop
 endfacet
 facet normal 1 0 0
  outer loop
    vertex -23.35 39 2.65
    vertex -23.35 39 10.5
    vertex -23.35 13 2.65
  endloop
 endfacet
 facet normal 1 0 0
  outer loop
    vertex -23.35 13 2.65
    vertex -23.35 39 10.5
    vertex -23.35 14 10.5
  endloop
 endfacet
 facet normal 1 0 0
  outer loop
    vertex -23.35 14 15.5
    vertex -23.35 13 2.65
    vertex -23.35 14 10.5
  endloop
 endfacet
 facet normal 1 0 0
  outer loop
    vertex -23.35 14 15.5
    vertex -23.35 13 23.35
    vertex -23.35 13 2.65
  endloop
 endfacet
 facet normal 1 0 0
  outer loop
    vertex -23.35 14 15.5
    vertex -23.35 39 23.35
    vertex -23.35 13 23.35
  endloop
 endfacet
 facet normal 1 0 -0
  outer loop
    vertex -23.35 14 15.5
    vertex -23.35 39 15.5
    vertex -23.35 39 23.35
  endloop
 endfacet
 facet normal 0 1 0
  outer loop
    vertex -15.5 39 23.35
    vertex -23.35 39 23.35
    vertex -15.5 39 26
  endloop
 endfacet
 facet normal 0 1 -0
  outer loop
    vertex -15.5 39 26
    vertex -23.35 39 23.35
    vertex -26 39 26
  endloop
 endfacet
 facet normal 0 1 0
  outer loop
    vertex -26 39 26
    vertex -23.35 39 23.35
    vertex -26 39 15.5
  endloop
 endfacet
 facet normal 0 1 0
  outer loop
    vertex -26 39 15.5
    vertex -23.35 39 23.35
    vertex -23.35 39 15.5
  endloop
 endfacet
 facet normal -1 0 0
  outer loop
    vertex -2.65 39 10.5
    vertex -2.65 39 2.65
    vertex -2.65 14 10.5
  endloop
 endfacet
 facet normal -1 -0 0
  outer loop
    vertex -2.65 14 10.5
    vertex -2.65 39 2.65
    vertex -2.65 13 2.65
  endloop
 endfacet
 facet normal -1 -0 0
  outer loop
    vertex -2.65 13 23.35
    vertex -2.65 14 10.5
    vertex -2.65 13 2.65
  endloop
 endfacet
 facet normal -1 -0 -0
  outer loop
    vertex -2.65 13 23.35
    vertex -2.65 14 15.5
    vertex -2.65 14 10.5
  endloop
 endfacet
 facet normal -1 -0 0
  outer loop
    vertex -2.65 13 23.35
    vertex -2.65 39 15.5
    vertex -2.65 14 15.5
  endloop
 endfacet
 facet normal -1 0 -0
  outer loop
    vertex -2.65 13 23.35
    vertex -2.65 39 23.35
    vertex -2.65 39 15.5
  endloop
 endfacet
 facet normal 0 1 9.21425e-008
  outer loop
    vertex -23.35 13 23.35
    vertex -2.65 13 23.35
    vertex -23.35 13 2.65
  endloop
 endfacet
 facet normal 0 1 9.21425e-008
  outer loop
    vertex -23.35 13 2.65
    vertex -2.65 13 23.35
    vertex -2.65 13 2.65
  endloop
 endfacet
 facet normal 0 1 9.08261e-008
  outer loop
    vertex 26 13 26
    vertex 1 13 15.5
    vertex 0 13 26
  endloop
 endfacet
 facet normal 0 1 9.08261e-008
  outer loop
    vertex 26 13 26
    vertex 26 13 15.5
    vertex 1 13 15.5
  endloop
 endfacet
 facet normal -9.53674e-007 1 0
  outer loop
    vertex 1 13 15.5
    vertex 1 13 10.5
    vertex 0 13 26
  endloop
 endfacet
 facet normal 1.83399e-007 1 7.33596e-008
  outer loop
    vertex 0 13 26
    vertex 1 13 10.5
    vertex 0 13 3.8147e-006
  endloop
 endfacet
 facet normal -0 1 9.08261e-008
  outer loop
    vertex 0 13 3.8147e-006
    vertex 1 13 10.5
    vertex 26 13 10.5
  endloop
 endfacet
 facet normal -0 1 9.08261e-008
  outer loop
    vertex 26 13 3.8147e-006
    vertex 0 13 3.8147e-006
    vertex 26 13 10.5
  endloop
 endfacet
 facet normal 0 -1 -1.2139e-007
  outer loop
    vertex 26 10.35 15.5
    vertex 26 10.35 23.3563
    vertex 1 10.35 15.5
  endloop
 endfacet
 facet normal -0 -1 -1.2139e-007
  outer loop
    vertex 1 10.35 15.5
    vertex 26 10.35 23.3563
    vertex 0 10.35 23.3563
  endloop
 endfacet
 facet normal 2.29775e-007 -1 -9.21425e-008
  outer loop
    vertex 0 10.35 2.65631
    vertex 1 10.35 15.5
    vertex 0 10.35 23.3563
  endloop
 endfacet
 facet normal -9.53674e-007 -1 0
  outer loop
    vertex 0 10.35 2.65631
    vertex 1 10.35 10.5
    vertex 1 10.35 15.5
  endloop
 endfacet
 facet normal -0 -1 -1.21585e-007
  outer loop
    vertex 0 10.35 2.65631
    vertex 26 10.35 2.65631
    vertex 1 10.35 10.5
  endloop
 endfacet
 facet normal 0 -1 -1.21585e-007
  outer loop
    vertex 1 10.35 10.5
    vertex 26 10.35 2.65631
    vertex 26 10.35 10.5
  endloop
 endfacet
 facet normal 0 0 -1
  outer loop
    vertex 26 -2.5 23.3563
    vertex 26 -10.35 23.3563
    vertex 1 -2.5 23.3563
  endloop
 endfacet
 facet normal 0 0 -1
  outer loop
    vertex 1 -2.5 23.3563
    vertex 26 -10.35 23.3563
    vertex 0 -10.35 23.3563
  endloop
 endfacet
 facet normal -0 0 -1
  outer loop
    vertex 0 10.35 23.3563
    vertex 1 -2.5 23.3563
    vertex 0 -10.35 23.3563
  endloop
 endfacet
 facet normal -0 -0 -1
  outer loop
    vertex 0 10.35 23.3563
    vertex 1 2.5 23.3563
    vertex 1 -2.5 23.3563
  endloop
 endfacet
 facet normal -0 0 -1
  outer loop
    vertex 0 10.35 23.3563
    vertex 26 10.35 23.3563
    vertex 1 2.5 23.3563
  endloop
 endfacet
 facet normal 0 -0 -1
  outer loop
    vertex 1 2.5 23.3563
    vertex 26 10.35 23.3563
    vertex 26 2.5 23.3563
  endloop
 endfacet
 facet normal -0 1 1.2139e-007
  outer loop
    vertex 26 -10.35 15.5
    vertex 1 -10.35 15.5
    vertex 26 -10.35 23.3563
  endloop
 endfacet
 facet normal 0 1 1.2139e-007
  outer loop
    vertex 26 -10.35 23.3563
    vertex 1 -10.35 15.5
    vertex 0 -10.35 23.3563
  endloop
 endfacet
 facet normal -9.53674e-007 1 0
  outer loop
    vertex 0 -10.35 23.3563
    vertex 1 -10.35 15.5
    vertex 1 -10.35 10.5
  endloop
 endfacet
 facet normal 0 1 1.21585e-007
  outer loop
    vertex 0 -10.35 2.65631
    vertex 1 -10.35 10.5
    vertex 26 -10.35 2.65631
  endloop
 endfacet
 facet normal 2.30938e-007 1 9.21424e-008
  outer loop
    vertex 0 -10.35 2.65631
    vertex 0 -10.35 23.3563
    vertex 1 -10.35 10.5
  endloop
 endfacet
 facet normal 0 1 1.21585e-007
  outer loop
    vertex 1 -10.35 10.5
    vertex 26 -10.35 10.5
    vertex 26 -10.35 2.65631
  endloop
 endfacet
 facet normal 1 -0 0
  outer loop
    vertex 0 10.35 23.3563
    vertex 0 -10.35 23.3563
    vertex 0 10.35 2.65631
  endloop
 endfacet
 facet normal 1 0 0
  outer loop
    vertex 0 10.35 2.65631
    vertex 0 -10.35 23.3563
    vertex 0 -10.35 2.65631
  endloop
 endfacet
 facet normal 0 3.59877e-007 -1
  outer loop
    vertex 1 -10.35 15.5
    vertex 26 -10.35 15.5
    vertex 1 -13 15.5
  endloop
 endfacet
 facet normal 0 3.59877e-007 -1
  outer loop
    vertex 1 -13 15.5
    vertex 26 -10.35 15.5
    vertex 26 -13 15.5
  endloop
 endfacet
 facet normal 0 0 -1
  outer loop
    vertex 26 10.35 15.5
    vertex 1 10.35 15.5
    vertex 26 13 15.5
  endloop
 endfacet
 facet normal 0 0 -1
  outer loop
    vertex 26 13 15.5
    vertex 1 10.35 15.5
    vertex 1 13 15.5
  endloop
 endfacet
 facet normal 1 0 0
  outer loop
    vertex 1 -10.35 10.5
    vertex 1 -10.35 15.5
    vertex 1 -13 10.5
  endloop
 endfacet
 facet normal 1 0 0
  outer loop
    vertex 1 -13 10.5
    vertex 1 -10.35 15.5
    vertex 1 -13 15.5
  endloop
 endfacet
 facet normal 1 0 0
  outer loop
    vertex 1 10.35 15.5
    vertex 1 10.35 10.5
    vertex 1 13 15.5
  endloop
 endfacet
 facet normal 1 0 0
  outer loop
    vertex 1 13 15.5
    vertex 1 10.35 10.5
    vertex 1 13 10.5
  endloop
 endfacet
 facet normal -0 0 1
  outer loop
    vertex 26 -10.35 10.5
    vertex 1 -10.35 10.5
    vertex 26 -13 10.5
  endloop
 endfacet
 facet normal 0 0 1
  outer loop
    vertex 26 -13 10.5
    vertex 1 -10.35 10.5
    vertex 1 -13 10.5
  endloop
 endfacet
 facet normal 0 0 1
  outer loop
    vertex 1 10.35 10.5
    vertex 26 10.35 10.5
    vertex 1 13 10.5
  endloop
 endfacet
 facet normal 0 -0 1
  outer loop
    vertex 1 13 10.5
    vertex 26 10.35 10.5
    vertex 26 13 10.5
  endloop
 endfacet
 facet normal 9.4628e-015 5.96047e-008 -1
  outer loop
    vertex -26 39 5.36442e-006
    vertex -15.5 14 3.8743e-006
    vertex -23.35 10.35 3.65674e-006
  endloop
 endfacet
 facet normal 8.08274e-014 5.96046e-008 -1
  outer loop
    vertex -26 -39 7.15256e-007
    vertex -23.35 10.35 3.65674e-006
    vertex -23.35 -10.35 2.42293e-006
  endloop
 endfacet
 facet normal 0 5.96047e-008 -1
  outer loop
    vertex -15.5 -14 2.20537e-006
    vertex -23.35 -10.35 2.42293e-006
    vertex -2.65 -10.35 2.42293e-006
  endloop
 endfacet
 facet normal -1.86525e-015 5.96047e-008 -1
  outer loop
    vertex -10.5 -14 2.20537e-006
    vertex -2.65 -10.35 2.42293e-006
    vertex 0 -13 2.26498e-006
  endloop
 endfacet
 facet normal 0 5.96046e-008 -1
  outer loop
    vertex 0 -39 7.15256e-007
    vertex -10.5 -14 2.20537e-006
    vertex 0 -13 2.26498e-006
  endloop
 endfacet
 facet normal 0 5.96046e-008 -1
  outer loop
    vertex 0 -39 7.15256e-007
    vertex -10.5 -39 7.15256e-007
    vertex -10.5 -14 2.20537e-006
  endloop
 endfacet
 facet normal 0 5.96047e-008 -1
  outer loop
    vertex -10.5 39 5.36442e-006
    vertex 0 39 5.36442e-006
    vertex -10.5 14 3.8743e-006
  endloop
 endfacet
 facet normal 6.24653e-016 5.96047e-008 -1
  outer loop
    vertex -10.5 14 3.8743e-006
    vertex 0 39 5.36442e-006
    vertex 0 13 3.8147e-006
  endloop
 endfacet
 facet normal 3.66987e-014 5.96047e-008 -1
  outer loop
    vertex -2.65 10.35 3.65674e-006
    vertex 0 13 3.8147e-006
    vertex 1 2.5 3.18885e-006
  endloop
 endfacet
 facet normal -1.77928e-014 5.96046e-008 -1
  outer loop
    vertex -2.65 -10.35 2.42293e-006
    vertex 1 2.5 3.18885e-006
    vertex 1 -2.5 2.89083e-006
  endloop
 endfacet
 facet normal 0 5.96046e-008 -1
  outer loop
    vertex 0 -13 2.26498e-006
    vertex 1 -2.5 2.89083e-006
    vertex 26 -13 2.26498e-006
  endloop
 endfacet
 facet normal -1.83494e-014 5.96046e-008 -1
  outer loop
    vertex 0 -13 2.26498e-006
    vertex -2.65 -10.35 2.42293e-006
    vertex 1 -2.5 2.89083e-006
  endloop
 endfacet
 facet normal 0 5.96046e-008 -1
  outer loop
    vertex 1 -2.5 2.89083e-006
    vertex 26 -2.5 2.89083e-006
    vertex 26 -13 2.26498e-006
  endloop
 endfacet
 facet normal 0 5.96047e-008 -1
  outer loop
    vertex -10.5 -14 2.20537e-006
    vertex -15.5 -14 2.20537e-006
    vertex -2.65 -10.35 2.42293e-006
  endloop
 endfacet
 facet normal 0 5.96046e-008 -1
  outer loop
    vertex -15.5 -39 7.15256e-007
    vertex -26 -39 7.15256e-007
    vertex -15.5 -14 2.20537e-006
  endloop
 endfacet
 facet normal -6.05813e-015 5.96046e-008 -1
  outer loop
    vertex -15.5 -14 2.20537e-006
    vertex -26 -39 7.15256e-007
    vertex -23.35 -10.35 2.42293e-006
  endloop
 endfacet
 facet normal -7.57362e-014 5.96046e-008 -1
  outer loop
    vertex -26 -39 7.15256e-007
    vertex -26 39 5.36442e-006
    vertex -23.35 10.35 3.65674e-006
  endloop
 endfacet
 facet normal 0 5.96047e-008 -1
  outer loop
    vertex -26 39 5.36442e-006
    vertex -15.5 39 5.36442e-006
    vertex -15.5 14 3.8743e-006
  endloop
 endfacet
 facet normal 0 5.96047e-008 -1
  outer loop
    vertex -15.5 14 3.8743e-006
    vertex -10.5 14 3.8743e-006
    vertex -23.35 10.35 3.65674e-006
  endloop
 endfacet
 facet normal 0 5.96047e-008 -1
  outer loop
    vertex -23.35 10.35 3.65674e-006
    vertex -10.5 14 3.8743e-006
    vertex -2.65 10.35 3.65674e-006
  endloop
 endfacet
 facet normal 3.7305e-015 5.96047e-008 -1
  outer loop
    vertex -2.65 10.35 3.65674e-006
    vertex -10.5 14 3.8743e-006
    vertex 0 13 3.8147e-006
  endloop
 endfacet
 facet normal 0 5.96046e-008 -1
  outer loop
    vertex 0 13 3.8147e-006
    vertex 26 13 3.8147e-006
    vertex 1 2.5 3.18885e-006
  endloop
 endfacet
 facet normal 0 5.96046e-008 -1
  outer loop
    vertex 1 2.5 3.18885e-006
    vertex 26 13 3.8147e-006
    vertex 26 2.5 3.18885e-006
  endloop
 endfacet
 facet normal 1.15485e-014 5.96046e-008 -1
  outer loop
    vertex -2.65 10.35 3.65674e-006
    vertex 1 2.5 3.18885e-006
    vertex -2.65 -10.35 2.42293e-006
  endloop
 endfacet
 facet normal 1 0 0
  outer loop
    vertex 26 -2.5 23.3563
    vertex 26 -2.5 26
    vertex 26 -10.35 23.3563
  endloop
 endfacet
 facet normal 1 0 0
  outer loop
    vertex 26 -10.35 23.3563
    vertex 26 -2.5 26
    vertex 26 -13 26
  endloop
 endfacet
 facet normal 1 0 0
  outer loop
    vertex 26 -13 15.5
    vertex 26 -10.35 23.3563
    vertex 26 -13 26
  endloop
 endfacet
 facet normal 1 0 0
  outer loop
    vertex 26 -13 15.5
    vertex 26 -10.35 15.5
    vertex 26 -10.35 23.3563
  endloop
 endfacet
 facet normal 3.85138e-007 -1 -3.66798e-008
  outer loop
    vertex 0 -13 2.26498e-006
    vertex 1 -13 10.5
    vertex 0 -13 26
  endloop
 endfacet
 facet normal 0 -1 0
  outer loop
    vertex 0 -13 2.26498e-006
    vertex 26 -13 2.26498e-006
    vertex 1 -13 10.5
  endloop
 endfacet
 facet normal 0 -1 0
  outer loop
    vertex 1 -13 10.5
    vertex 26 -13 2.26498e-006
    vertex 26 -13 10.5
  endloop
 endfacet
 facet normal -2.00272e-006 -1 -1.90735e-007
  outer loop
    vertex 1 -13 10.5
    vertex 1 -13 15.5
    vertex 0 -13 26
  endloop
 endfacet
 facet normal 0 -1 0
  outer loop
    vertex 0 -13 26
    vertex 1 -13 15.5
    vertex 26 -13 15.5
  endloop
 endfacet
 facet normal 0 -1 0
  outer loop
    vertex 26 -13 26
    vertex 0 -13 26
    vertex 26 -13 15.5
  endloop
 endfacet
endsolid solidname
