solid solidname
 facet normal 0 1 -3.59877e-007
  outer loop
    vertex -10.5 14 23.35
    vertex -15.5 14 23.35
    vertex -10.5 14 26
  endloop
 endfacet
 facet normal 0 1 -3.59877e-007
  outer loop
    vertex -10.5 14 26
    vertex -15.5 14 23.35
    vertex -15.5 14 26
  endloop
 endfacet
 facet normal 0 1 -3.59877e-007
  outer loop
    vertex -15.5 14 2.65001
    vertex -10.5 14 2.65001
    vertex -15.5 14 5.2976e-006
  endloop
 endfacet
 facet normal -2.47247e-016 1 -3.59877e-007
  outer loop
    vertex -15.5 14 5.2976e-006
    vertex -10.5 14 2.65001
    vertex -10.5 14 5.29416e-006
  endloop
 endfacet
 facet normal -1 0 0
  outer loop
    vertex -10.5 39 23.35
    vertex -10.5 14 23.35
    vertex -10.5 39 26
  endloop
 endfacet
 facet normal -1 0 0
  outer loop
    vertex -10.5 39 26
    vertex -10.5 14 23.35
    vertex -10.5 14 26
  endloop
 endfacet
 facet normal 1 0 0
  outer loop
    vertex -15.5 14 23.35
    vertex -15.5 39 23.35
    vertex -15.5 14 26
  endloop
 endfacet
 facet normal 1 0 -0
  outer loop
    vertex -15.5 14 26
    vertex -15.5 39 23.35
    vertex -15.5 39 26
  endloop
 endfacet
 facet normal 1 0 0
  outer loop
    vertex -15.5 39 2.65
    vertex -15.5 14 2.65001
    vertex -15.5 39 8.27251e-007
  endloop
 endfacet
 facet normal 1 0 0
  outer loop
    vertex -15.5 39 8.27251e-007
    vertex -15.5 14 2.65001
    vertex -15.5 14 5.2976e-006
  endloop
 endfacet
 facet normal -1 -0 0
  outer loop
    vertex -10.5 14 2.65001
    vertex -10.5 39 2.65
    vertex -10.5 14 5.29416e-006
  endloop
 endfacet
 facet normal -1 0 -0
  outer loop
    vertex -10.5 14 5.29416e-006
    vertex -10.5 39 2.65
    vertex -10.5 39 8.23816e-007
  endloop
 endfacet
 facet normal -0 1.83399e-007 1
  outer loop
    vertex -2.65 39 2.65
    vertex -10.5 39 2.65
    vertex -2.65 13 2.65001
  endloop
 endfacet
 facet normal -7.28922e-009 1.81198e-007 1
  outer loop
    vertex -2.65 13 2.65001
    vertex -10.5 39 2.65
    vertex -10.5 14 2.65001
  endloop
 endfacet
 facet normal 0 2.38419e-007 1
  outer loop
    vertex -15.5 14 2.65001
    vertex -2.65 13 2.65001
    vertex -10.5 14 2.65001
  endloop
 endfacet
 facet normal -0 2.38419e-007 1
  outer loop
    vertex -15.5 14 2.65001
    vertex -23.35 13 2.65001
    vertex -2.65 13 2.65001
  endloop
 endfacet
 facet normal 8.17702e-009 1.74229e-007 1
  outer loop
    vertex -15.5 14 2.65001
    vertex -23.35 39 2.65
    vertex -23.35 13 2.65001
  endloop
 endfacet
 facet normal 3.03718e-008 1.81198e-007 1
  outer loop
    vertex -15.5 14 2.65001
    vertex -15.5 39 2.65
    vertex -23.35 39 2.65
  endloop
 endfacet
 facet normal 0 1 -0
  outer loop
    vertex -15.5 39 2.65
    vertex -15.5 39 8.27251e-007
    vertex -23.35 39 2.65
  endloop
 endfacet
 facet normal 0 1 0
  outer loop
    vertex -23.35 39 2.65
    vertex -15.5 39 8.27251e-007
    vertex -26 39 8.34465e-007
  endloop
 endfacet
 facet normal 3.63305e-007 1 -3.63305e-007
  outer loop
    vertex -26 39 10.5
    vertex -23.35 39 2.65
    vertex -26 39 8.34465e-007
  endloop
 endfacet
 facet normal 0 1 -4.85949e-007
  outer loop
    vertex -26 39 10.5
    vertex -23.35 39 10.5
    vertex -23.35 39 2.65
  endloop
 endfacet
 facet normal -0 1.46719e-007 1
  outer loop
    vertex -1.78633e-008 39 26
    vertex -10.5 39 26
    vertex -1.78634e-008 13 26
  endloop
 endfacet
 facet normal 1.45322e-008 1.52588e-007 1
  outer loop
    vertex -1.78634e-008 13 26
    vertex -10.5 39 26
    vertex -10.5 14 26
  endloop
 endfacet
 facet normal 0 0 1
  outer loop
    vertex -15.5 14 26
    vertex -1.78634e-008 13 26
    vertex -10.5 14 26
  endloop
 endfacet
 facet normal 0 0 1
  outer loop
    vertex -15.5 14 26
    vertex -26 13 26
    vertex -1.78634e-008 13 26
  endloop
 endfacet
 facet normal -1.39733e-008 1.46719e-007 1
  outer loop
    vertex -15.5 14 26
    vertex -26 39 26
    vertex -26 13 26
  endloop
 endfacet
 facet normal 0 1.52588e-007 1
  outer loop
    vertex -15.5 14 26
    vertex -15.5 39 26
    vertex -26 39 26
  endloop
 endfacet
 facet normal 0 1 -1.43951e-006
  outer loop
    vertex -15.5 39 23.35
    vertex -23.35 39 23.35
    vertex -15.5 39 26
  endloop
 endfacet
 facet normal 0 1 -1.43951e-006
  outer loop
    vertex -15.5 39 26
    vertex -23.35 39 23.35
    vertex -26 39 26
  endloop
 endfacet
 facet normal 1.0762e-006 1 -3.63305e-007
  outer loop
    vertex -26 39 26
    vertex -23.35 39 23.35
    vertex -26 39 15.5
  endloop
 endfacet
 facet normal 0 1 0
  outer loop
    vertex -26 39 15.5
    vertex -23.35 39 23.35
    vertex -23.35 39 15.5
  endloop
 endfacet
 facet normal 0 -1.90735e-007 -1
  outer loop
    vertex -23.35 39 15.5
    vertex -23.35 14 15.5
    vertex -26 39 15.5
  endloop
 endfacet
 facet normal -0 -1.90735e-007 -1
  outer loop
    vertex -26 39 15.5
    vertex -23.35 14 15.5
    vertex -26 14 15.5
  endloop
 endfacet
 facet normal 0 -1.90735e-007 -1
  outer loop
    vertex -2.65 14 15.5
    vertex -2.65 39 15.5
    vertex -2.50774e-008 14 15.5
  endloop
 endfacet
 facet normal 0 -1.90735e-007 -1
  outer loop
    vertex -2.50774e-008 14 15.5
    vertex -2.65 39 15.5
    vertex -2.50774e-008 39 15.5
  endloop
 endfacet
 facet normal 0 1 -1.90735e-007
  outer loop
    vertex -23.35 14 15.5
    vertex -23.35 14 10.5
    vertex -26 14 15.5
  endloop
 endfacet
 facet normal 0 1 -1.90735e-007
  outer loop
    vertex -26 14 15.5
    vertex -23.35 14 10.5
    vertex -26 14 10.5
  endloop
 endfacet
 facet normal 0 1 -1.90735e-007
  outer loop
    vertex -2.65 14 10.5
    vertex -2.65 14 15.5
    vertex -2.85127e-008 14 10.5
  endloop
 endfacet
 facet normal 0 1 -1.90735e-007
  outer loop
    vertex -2.85127e-008 14 10.5
    vertex -2.65 14 15.5
    vertex -2.50774e-008 14 15.5
  endloop
 endfacet
 facet normal 0 1.90735e-007 1
  outer loop
    vertex -23.35 14 10.5
    vertex -23.35 39 10.5
    vertex -26 14 10.5
  endloop
 endfacet
 facet normal 0 1.90735e-007 1
  outer loop
    vertex -26 14 10.5
    vertex -23.35 39 10.5
    vertex -26 39 10.5
  endloop
 endfacet
 facet normal 0 1.90735e-007 1
  outer loop
    vertex -2.65 39 10.5
    vertex -2.65 14 10.5
    vertex -2.85126e-008 39 10.5
  endloop
 endfacet
 facet normal -0 1.90735e-007 1
  outer loop
    vertex -2.85126e-008 39 10.5
    vertex -2.65 14 10.5
    vertex -2.85127e-008 14 10.5
  endloop
 endfacet
 facet normal -1 0 0
  outer loop
    vertex -2.65 39 23.35
    vertex -2.65 39 15.5
    vertex -2.65 13 23.35
  endloop
 endfacet
 facet normal -1 0 0
  outer loop
    vertex -2.65 13 23.35
    vertex -2.65 39 15.5
    vertex -2.65 14 15.5
  endloop
 endfacet
 facet normal -1 0 0
  outer loop
    vertex -2.65 14 10.5
    vertex -2.65 13 23.35
    vertex -2.65 14 15.5
  endloop
 endfacet
 facet normal -1 0 0
  outer loop
    vertex -2.65 14 10.5
    vertex -2.65 13 2.65001
    vertex -2.65 13 23.35
  endloop
 endfacet
 facet normal -1 0 0
  outer loop
    vertex -2.65 14 10.5
    vertex -2.65 39 2.65
    vertex -2.65 13 2.65001
  endloop
 endfacet
 facet normal -1 -0 0
  outer loop
    vertex -2.65 14 10.5
    vertex -2.65 39 10.5
    vertex -2.65 39 2.65
  endloop
 endfacet
 facet normal -1 0 0
  outer loop
    vertex -26 39 15.5
    vertex -26 14 15.5
    vertex -26 39 26
  endloop
 endfacet
 facet normal -1 0 0
  outer loop
    vertex -26 39 26
    vertex -26 14 15.5
    vertex -26 13 26
  endloop
 endfacet
 facet normal -1 0 0
  outer loop
    vertex -26 13 26
    vertex -26 14 15.5
    vertex -26 2.5 27
  endloop
 endfacet
 facet normal -1 0 0
  outer loop
    vertex -26 2.50001 52
    vertex -26 13 26
    vertex -26 2.5 27
  endloop
 endfacet
 facet normal -1 -0 0
  outer loop
    vertex -26 2.50001 52
    vertex -26 13 52
    vertex -26 13 26
  endloop
 endfacet
 facet normal -1 0 0
  outer loop
    vertex -26 2.5 27
    vertex -26 14 15.5
    vertex -26 -14 15.5
  endloop
 endfacet
 facet normal -1 0 0
  outer loop
    vertex -26 -2.5 27
    vertex -26 -14 15.5
    vertex -26 -13 26
  endloop
 endfacet
 facet normal -1 -0 0
  outer loop
    vertex -26 -13 52
    vertex -26 -2.5 27
    vertex -26 -13 26
  endloop
 endfacet
 facet normal -1 -0 0
  outer loop
    vertex -26 -13 52
    vertex -26 -2.49999 52
    vertex -26 -2.5 27
  endloop
 endfacet
 facet normal -1 0 0
  outer loop
    vertex -26 39 10.5
    vertex -26 39 8.34465e-007
    vertex -26 14 10.5
  endloop
 endfacet
 facet normal -1 0 0
  outer loop
    vertex -26 14 10.5
    vertex -26 39 8.34465e-007
    vertex -26 -14 10.5
  endloop
 endfacet
 facet normal -1 0 0
  outer loop
    vertex -26 -14 15.5
    vertex -26 14 10.5
    vertex -26 -14 10.5
  endloop
 endfacet
 facet normal -1 -0 0
  outer loop
    vertex -26 -14 15.5
    vertex -26 14 15.5
    vertex -26 14 10.5
  endloop
 endfacet
 facet normal -1 0 0
  outer loop
    vertex -26 39 8.34465e-007
    vertex -26 -39 1.4782e-005
    vertex -26 -14 10.5
  endloop
 endfacet
 facet normal -1 0 0
  outer loop
    vertex -26 -14 10.5
    vertex -26 -39 1.4782e-005
    vertex -26 -39 10.5
  endloop
 endfacet
 facet normal -1 0 0
  outer loop
    vertex -26 -39 15.5
    vertex -26 -39 26
    vertex -26 -14 15.5
  endloop
 endfacet
 facet normal -1 0 0
  outer loop
    vertex -26 -14 15.5
    vertex -26 -39 26
    vertex -26 -13 26
  endloop
 endfacet
 facet normal -1 -0 0
  outer loop
    vertex -26 -2.5 27
    vertex -26 2.5 27
    vertex -26 -14 15.5
  endloop
 endfacet
 facet normal 0 1 0
  outer loop
    vertex -10.5 39 2.65
    vertex -2.65 39 2.65
    vertex -10.5 39 8.23816e-007
  endloop
 endfacet
 facet normal 0 1 0
  outer loop
    vertex -10.5 39 8.23816e-007
    vertex -2.65 39 2.65
    vertex -3.57267e-008 39 8.16602e-007
  endloop
 endfacet
 facet normal -3.63305e-007 1 -3.63305e-007
  outer loop
    vertex -3.57267e-008 39 8.16602e-007
    vertex -2.65 39 2.65
    vertex -2.85126e-008 39 10.5
  endloop
 endfacet
 facet normal 0 1 -4.85949e-007
  outer loop
    vertex -2.85126e-008 39 10.5
    vertex -2.65 39 2.65
    vertex -2.65 39 10.5
  endloop
 endfacet
 facet normal 0 1 -1.43951e-006
  outer loop
    vertex -10.5 39 23.35
    vertex -10.5 39 26
    vertex -2.65 39 23.35
  endloop
 endfacet
 facet normal 0 1 -1.43951e-006
  outer loop
    vertex -2.65 39 23.35
    vertex -10.5 39 26
    vertex -1.78633e-008 39 26
  endloop
 endfacet
 facet normal -1.0762e-006 1 -3.63305e-007
  outer loop
    vertex -2.50774e-008 39 15.5
    vertex -2.65 39 23.35
    vertex -1.78633e-008 39 26
  endloop
 endfacet
 facet normal 0 1 0
  outer loop
    vertex -2.50774e-008 39 15.5
    vertex -2.65 39 15.5
    vertex -2.65 39 23.35
  endloop
 endfacet
 facet normal 1 -7.70533e-016 -6.87052e-010
  outer loop
    vertex -2.50774e-008 39 15.5
    vertex -1.78633e-008 39 26
    vertex -2.50774e-008 14 15.5
  endloop
 endfacet
 facet normal 1 -7.15697e-016 -6.87052e-010
  outer loop
    vertex -2.50774e-008 14 15.5
    vertex -1.78633e-008 39 26
    vertex -1.78634e-008 13 26
  endloop
 endfacet
 facet normal 1 1.1665e-015 -6.87052e-010
  outer loop
    vertex -3.57267e-008 13 5.46576e-006
    vertex -2.50774e-008 14 15.5
    vertex -1.78634e-008 13 26
  endloop
 endfacet
 facet normal 1 -3.48875e-015 -6.87052e-010
  outer loop
    vertex -3.57267e-008 13 5.46576e-006
    vertex -2.85127e-008 14 10.5
    vertex -2.50774e-008 14 15.5
  endloop
 endfacet
 facet normal 1 -6.99479e-016 -6.87052e-010
  outer loop
    vertex -3.57267e-008 13 5.46576e-006
    vertex -2.85126e-008 39 10.5
    vertex -2.85127e-008 14 10.5
  endloop
 endfacet
 facet normal 1 -6.69426e-016 -6.87052e-010
  outer loop
    vertex -3.57267e-008 13 5.46576e-006
    vertex -3.57267e-008 39 8.16602e-007
    vertex -2.85126e-008 39 10.5
  endloop
 endfacet
 facet normal -0 -2.28882e-007 -1
  outer loop
    vertex -10.5 39 23.35
    vertex -2.65 39 23.35
    vertex -10.5 14 23.35
  endloop
 endfacet
 facet normal -2.80355e-008 -2.20079e-007 -1
  outer loop
    vertex -10.5 14 23.35
    vertex -2.65 39 23.35
    vertex -2.65 13 23.35
  endloop
 endfacet
 facet normal 0 -0 -1
  outer loop
    vertex -23.35 13 23.35
    vertex -10.5 14 23.35
    vertex -2.65 13 23.35
  endloop
 endfacet
 facet normal 0 -0 -1
  outer loop
    vertex -23.35 13 23.35
    vertex -15.5 14 23.35
    vertex -10.5 14 23.35
  endloop
 endfacet
 facet normal 2.91569e-008 -2.28882e-007 -1
  outer loop
    vertex -23.35 13 23.35
    vertex -15.5 39 23.35
    vertex -15.5 14 23.35
  endloop
 endfacet
 facet normal 0 -2.20079e-007 -1
  outer loop
    vertex -23.35 13 23.35
    vertex -23.35 39 23.35
    vertex -15.5 39 23.35
  endloop
 endfacet
 facet normal 1 0 0
  outer loop
    vertex -23.35 39 15.5
    vertex -23.35 39 23.35
    vertex -23.35 14 15.5
  endloop
 endfacet
 facet normal 1 0 0
  outer loop
    vertex -23.35 14 15.5
    vertex -23.35 39 23.35
    vertex -23.35 13 23.35
  endloop
 endfacet
 facet normal 1 0 0
  outer loop
    vertex -23.35 13 2.65001
    vertex -23.35 14 15.5
    vertex -23.35 13 23.35
  endloop
 endfacet
 facet normal 1 0 -0
  outer loop
    vertex -23.35 13 2.65001
    vertex -23.35 14 10.5
    vertex -23.35 14 15.5
  endloop
 endfacet
 facet normal 1 0 0
  outer loop
    vertex -23.35 13 2.65001
    vertex -23.35 39 10.5
    vertex -23.35 14 10.5
  endloop
 endfacet
 facet normal 1 0 -0
  outer loop
    vertex -23.35 13 2.65001
    vertex -23.35 39 2.65
    vertex -23.35 39 10.5
  endloop
 endfacet
 facet normal 0 1 -1.84285e-007
  outer loop
    vertex -23.35 13 23.35
    vertex -2.65 13 23.35
    vertex -23.35 13 2.65001
  endloop
 endfacet
 facet normal 0 1 -1.84285e-007
  outer loop
    vertex -23.35 13 2.65001
    vertex -2.65 13 23.35
    vertex -2.65 13 2.65001
  endloop
 endfacet
 facet normal -1.74666e-008 1 -1.83399e-007
  outer loop
    vertex 0 13 52
    vertex -1.78634e-008 13 26
    vertex -10.5 13 27
  endloop
 endfacet
 facet normal 0 1 -1.90735e-007
  outer loop
    vertex -10.5 13 52
    vertex 0 13 52
    vertex -10.5 13 27
  endloop
 endfacet
 facet normal 0 1 -1.83399e-007
  outer loop
    vertex -26 13 52
    vertex -15.5 13 52
    vertex -26 13 26
  endloop
 endfacet
 facet normal 1.81652e-008 1 -1.90735e-007
  outer loop
    vertex -26 13 26
    vertex -15.5 13 52
    vertex -15.5 13 27
  endloop
 endfacet
 facet normal 0 1 0
  outer loop
    vertex -10.5 13 27
    vertex -26 13 26
    vertex -15.5 13 27
  endloop
 endfacet
 facet normal 0 1 0
  outer loop
    vertex -10.5 13 27
    vertex -1.78634e-008 13 26
    vertex -26 13 26
  endloop
 endfacet
 facet normal 0 -1 1.79511e-007
  outer loop
    vertex 1 2.5 23.3437
    vertex 26 2.5 23.3437
    vertex 1 2.5 26
  endloop
 endfacet
 facet normal 0 -1 1.79511e-007
  outer loop
    vertex 1 2.5 26
    vertex 26 2.5 23.3437
    vertex 26 2.5 26
  endloop
 endfacet
 facet normal 1 0 0
  outer loop
    vertex 1 -2.5 23.3437
    vertex 1 2.5 23.3437
    vertex 1 -2.5 26
  endloop
 endfacet
 facet normal 1 0 -0
  outer loop
    vertex 1 -2.5 26
    vertex 1 2.5 23.3437
    vertex 1 2.5 26
  endloop
 endfacet
 facet normal 0 1 -1.79511e-007
  outer loop
    vertex 26 -2.5 23.3437
    vertex 1 -2.5 23.3437
    vertex 26 -2.5 26
  endloop
 endfacet
 facet normal 0 1 -1.79511e-007
  outer loop
    vertex 26 -2.5 26
    vertex 1 -2.5 23.3437
    vertex 1 -2.5 26
  endloop
 endfacet
 facet normal -1.72012e-015 1 -1.80368e-007
  outer loop
    vertex 1 -2.5 2.6437
    vertex 26 -2.5 2.6437
    vertex 1 -2.5 8.23669e-006
  endloop
 endfacet
 facet normal -1.23925e-016 1 -1.80368e-007
  outer loop
    vertex 1 -2.5 8.23669e-006
    vertex 26 -2.5 2.6437
    vertex 26 -2.5 8.21952e-006
  endloop
 endfacet
 facet normal 1 0 0
  outer loop
    vertex 1 2.5 2.6437
    vertex 1 -2.5 2.6437
    vertex 1 2.5 7.34262e-006
  endloop
 endfacet
 facet normal 1 0 0
  outer loop
    vertex 1 2.5 7.34262e-006
    vertex 1 -2.5 2.6437
    vertex 1 -2.5 8.23669e-006
  endloop
 endfacet
 facet normal 0 -1 1.80368e-007
  outer loop
    vertex 26 2.5 2.6437
    vertex 1 2.5 2.6437
    vertex 26 2.5 7.32545e-006
  endloop
 endfacet
 facet normal 1.23922e-016 -1 1.80368e-007
  outer loop
    vertex 26 2.5 7.32545e-006
    vertex 1 2.5 2.6437
    vertex 1 2.5 7.34262e-006
  endloop
 endfacet
 facet normal 1 0 0
  outer loop
    vertex -15.5 -14 2.65001
    vertex -15.5 -39 2.65002
    vertex -15.5 -14 1.03044e-005
  endloop
 endfacet
 facet normal 1 0 0
  outer loop
    vertex -15.5 -14 1.03044e-005
    vertex -15.5 -39 2.65002
    vertex -15.5 -39 1.47747e-005
  endloop
 endfacet
 facet normal 0 -1 3.59877e-007
  outer loop
    vertex -10.5 -14 2.65001
    vertex -15.5 -14 2.65001
    vertex -10.5 -14 1.0301e-005
  endloop
 endfacet
 facet normal 2.47247e-016 -1 3.59877e-007
  outer loop
    vertex -10.5 -14 1.0301e-005
    vertex -15.5 -14 2.65001
    vertex -15.5 -14 1.03044e-005
  endloop
 endfacet
 facet normal 0 -1 0
  outer loop
    vertex -15.5 -14 23.35
    vertex -10.5 -14 23.35
    vertex -15.5 -14 26
  endloop
 endfacet
 facet normal 0 -1 0
  outer loop
    vertex -15.5 -14 26
    vertex -10.5 -14 23.35
    vertex -10.5 -14 26
  endloop
 endfacet
 facet normal -1 -0 0
  outer loop
    vertex -10.5 -39 2.65002
    vertex -10.5 -14 2.65001
    vertex -10.5 -39 1.47713e-005
  endloop
 endfacet
 facet normal -1 0 0
  outer loop
    vertex -10.5 -39 1.47713e-005
    vertex -10.5 -14 2.65001
    vertex -10.5 -14 1.0301e-005
  endloop
 endfacet
 facet normal -1 0 0
  outer loop
    vertex -10.5 -14 23.35
    vertex -10.5 -39 23.35
    vertex -10.5 -14 26
  endloop
 endfacet
 facet normal -1 0 0
  outer loop
    vertex -10.5 -14 26
    vertex -10.5 -39 23.35
    vertex -10.5 -39 26
  endloop
 endfacet
 facet normal 1 0 0
  outer loop
    vertex -15.5 -39 23.35
    vertex -15.5 -14 23.35
    vertex -15.5 -39 26
  endloop
 endfacet
 facet normal 1 0 -0
  outer loop
    vertex -15.5 -39 26
    vertex -15.5 -14 23.35
    vertex -15.5 -14 26
  endloop
 endfacet
 facet normal 1 0 0
  outer loop
    vertex 26 -2.5 2.6437
    vertex 26 -10.35 2.6437
    vertex 26 -2.5 8.21952e-006
  endloop
 endfacet
 facet normal 1 0 0
  outer loop
    vertex 26 -2.5 8.21952e-006
    vertex 26 -10.35 2.6437
    vertex 26 -13 1.00971e-005
  endloop
 endfacet
 facet normal 1 0 0
  outer loop
    vertex 26 -13 1.00971e-005
    vertex 26 -10.35 2.6437
    vertex 26 -13 10.5
  endloop
 endfacet
 facet normal 1 0 -0
  outer loop
    vertex 26 -13 10.5
    vertex 26 -10.35 2.6437
    vertex 26 -10.35 10.5
  endloop
 endfacet
 facet normal 1 0 0
  outer loop
    vertex 26 -2.5 23.3437
    vertex 26 -2.5 26
    vertex 26 -10.35 23.3437
  endloop
 endfacet
 facet normal 1 0 0
  outer loop
    vertex 26 -10.35 23.3437
    vertex 26 -2.5 26
    vertex 26 -13 26
  endloop
 endfacet
 facet normal 1 0 0
  outer loop
    vertex 26 -13 15.5
    vertex 26 -10.35 23.3437
    vertex 26 -13 26
  endloop
 endfacet
 facet normal 1 0 -0
  outer loop
    vertex 26 -13 15.5
    vertex 26 -10.35 15.5
    vertex 26 -10.35 23.3437
  endloop
 endfacet
 facet normal 1 0 0
  outer loop
    vertex 26 2.5 23.3437
    vertex 26 10.35 23.3437
    vertex 26 2.5 26
  endloop
 endfacet
 facet normal 1 0 -0
  outer loop
    vertex 26 2.5 26
    vertex 26 10.35 23.3437
    vertex 26 13 26
  endloop
 endfacet
 facet normal 1 -0 0
  outer loop
    vertex 26 13 26
    vertex 26 10.35 23.3437
    vertex 26 13 15.5
  endloop
 endfacet
 facet normal 1 0 0
  outer loop
    vertex 26 13 15.5
    vertex 26 10.35 23.3437
    vertex 26 10.35 15.5
  endloop
 endfacet
 facet normal 0 -2.42974e-007 -1
  outer loop
    vertex 26 2.5 23.3437
    vertex 1 2.5 23.3437
    vertex 26 10.35 23.3437
  endloop
 endfacet
 facet normal 0 -2.42974e-007 -1
  outer loop
    vertex 26 10.35 23.3437
    vertex 1 2.5 23.3437
    vertex -1.96884e-008 10.35 23.3437
  endloop
 endfacet
 facet normal 1.90735e-006 0 -1
  outer loop
    vertex -1.96884e-008 10.35 23.3437
    vertex 1 2.5 23.3437
    vertex 1 -2.5 23.3437
  endloop
 endfacet
 facet normal 0 -2.42974e-007 -1
  outer loop
    vertex -1.96884e-008 -10.35 23.3437
    vertex 1 -2.5 23.3437
    vertex 26 -10.35 23.3437
  endloop
 endfacet
 facet normal -4.60712e-007 -1.84285e-007 -1
  outer loop
    vertex -1.96884e-008 -10.35 23.3437
    vertex -1.96884e-008 10.35 23.3437
    vertex 1 -2.5 23.3437
  endloop
 endfacet
 facet normal -0 -2.42974e-007 -1
  outer loop
    vertex 1 -2.5 23.3437
    vertex 26 -2.5 23.3437
    vertex 26 -10.35 23.3437
  endloop
 endfacet
 facet normal 0 -1 -0
  outer loop
    vertex -15.5 -39 23.35
    vertex -15.5 -39 26
    vertex -23.35 -39 23.35
  endloop
 endfacet
 facet normal -0 -1 0
  outer loop
    vertex -23.35 -39 23.35
    vertex -15.5 -39 26
    vertex -26 -39 26
  endloop
 endfacet
 facet normal -0 -1 0
  outer loop
    vertex -26 -39 15.5
    vertex -23.35 -39 23.35
    vertex -26 -39 26
  endloop
 endfacet
 facet normal 0 -1 0
  outer loop
    vertex -26 -39 15.5
    vertex -23.35 -39 15.5
    vertex -23.35 -39 23.35
  endloop
 endfacet
 facet normal 0 -1 0
  outer loop
    vertex -10.5 -39 23.35
    vertex -2.65 -39 23.35
    vertex -10.5 -39 26
  endloop
 endfacet
 facet normal 0 -1 0
  outer loop
    vertex -10.5 -39 26
    vertex -2.65 -39 23.35
    vertex -1.78634e-008 -39 26
  endloop
 endfacet
 facet normal 0 -1 0
  outer loop
    vertex -1.78634e-008 -39 26
    vertex -2.65 -39 23.35
    vertex -2.50774e-008 -39 15.5
  endloop
 endfacet
 facet normal 0 -1 0
  outer loop
    vertex -2.50774e-008 -39 15.5
    vertex -2.65 -39 23.35
    vertex -2.65 -39 15.5
  endloop
 endfacet
 facet normal 0 -2.20079e-007 -1
  outer loop
    vertex -2.65 -39 23.35
    vertex -10.5 -39 23.35
    vertex -2.65 -13 23.35
  endloop
 endfacet
 facet normal 2.91569e-008 -2.28882e-007 -1
  outer loop
    vertex -2.65 -13 23.35
    vertex -10.5 -39 23.35
    vertex -10.5 -14 23.35
  endloop
 endfacet
 facet normal 0 0 -1
  outer loop
    vertex -15.5 -14 23.35
    vertex -2.65 -13 23.35
    vertex -10.5 -14 23.35
  endloop
 endfacet
 facet normal 0 0 -1
  outer loop
    vertex -15.5 -14 23.35
    vertex -23.35 -13 23.35
    vertex -2.65 -13 23.35
  endloop
 endfacet
 facet normal -2.80355e-008 -2.20079e-007 -1
  outer loop
    vertex -15.5 -14 23.35
    vertex -23.35 -39 23.35
    vertex -23.35 -13 23.35
  endloop
 endfacet
 facet normal -0 -2.28882e-007 -1
  outer loop
    vertex -15.5 -14 23.35
    vertex -15.5 -39 23.35
    vertex -23.35 -39 23.35
  endloop
 endfacet
 facet normal 0 1.74229e-007 1
  outer loop
    vertex -23.35 -39 2.65002
    vertex -15.5 -39 2.65002
    vertex -23.35 -13 2.65001
  endloop
 endfacet
 facet normal 2.30826e-008 1.81198e-007 1
  outer loop
    vertex -23.35 -13 2.65001
    vertex -15.5 -39 2.65002
    vertex -15.5 -14 2.65001
  endloop
 endfacet
 facet normal 0 0 1
  outer loop
    vertex -10.5 -14 2.65001
    vertex -23.35 -13 2.65001
    vertex -15.5 -14 2.65001
  endloop
 endfacet
 facet normal 1.15178e-008 1.48004e-007 1
  outer loop
    vertex -10.5 -14 2.65001
    vertex -2.65 -13 2.65001
    vertex -23.35 -13 2.65001
  endloop
 endfacet
 facet normal 7.00887e-009 1.83399e-007 1
  outer loop
    vertex -10.5 -14 2.65001
    vertex -2.65 -39 2.65002
    vertex -2.65 -13 2.65001
  endloop
 endfacet
 facet normal -0 1.81198e-007 1
  outer loop
    vertex -10.5 -14 2.65001
    vertex -10.5 -39 2.65002
    vertex -2.65 -39 2.65002
  endloop
 endfacet
 facet normal -6.87047e-010 -1.78814e-007 -1
  outer loop
    vertex -10.5 39 8.23816e-007
    vertex -3.57267e-008 39 8.16602e-007
    vertex -10.5 14 5.29416e-006
  endloop
 endfacet
 facet normal -6.87062e-010 -1.78814e-007 -1
  outer loop
    vertex -10.5 14 5.29416e-006
    vertex -3.57267e-008 39 8.16602e-007
    vertex -3.57267e-008 13 5.46576e-006
  endloop
 endfacet
 facet normal -6.87053e-010 -1.78814e-007 -1
  outer loop
    vertex 1 2.5 7.34262e-006
    vertex -3.57267e-008 13 5.46576e-006
    vertex 26 13 5.4479e-006
  endloop
 endfacet
 facet normal -6.8705e-010 -1.78814e-007 -1
  outer loop
    vertex 26 2.5 7.32545e-006
    vertex 1 2.5 7.34262e-006
    vertex 26 13 5.4479e-006
  endloop
 endfacet
 facet normal -6.87061e-010 -1.78814e-007 -1
  outer loop
    vertex -3.57267e-008 13 5.46576e-006
    vertex 1 2.5 7.34262e-006
    vertex -10.5 14 5.29416e-006
  endloop
 endfacet
 facet normal -6.87156e-010 -1.78814e-007 -1
  outer loop
    vertex -10.5 14 5.29416e-006
    vertex 1 2.5 7.34262e-006
    vertex 1 -2.5 8.23669e-006
  endloop
 endfacet
 facet normal -6.87059e-010 -1.78814e-007 -1
  outer loop
    vertex -10.5 -14 1.0301e-005
    vertex 1 -2.5 8.23669e-006
    vertex -3.57267e-008 -13 1.01149e-005
  endloop
 endfacet
 facet normal -6.87058e-010 -1.78814e-007 -1
  outer loop
    vertex -10.5 -39 1.47713e-005
    vertex -3.57267e-008 -13 1.01149e-005
    vertex -3.57267e-008 -39 1.47641e-005
  endloop
 endfacet
 facet normal -6.87055e-010 -1.78814e-007 -1
  outer loop
    vertex -10.5 -39 1.47713e-005
    vertex -10.5 -14 1.0301e-005
    vertex -3.57267e-008 -13 1.01149e-005
  endloop
 endfacet
 facet normal -6.87069e-010 -1.78814e-007 -1
  outer loop
    vertex 1 -2.5 8.23669e-006
    vertex 26 -2.5 8.21952e-006
    vertex -3.57267e-008 -13 1.01149e-005
  endloop
 endfacet
 facet normal -6.87053e-010 -1.78814e-007 -1
  outer loop
    vertex -3.57267e-008 -13 1.01149e-005
    vertex 26 -2.5 8.21952e-006
    vertex 26 -13 1.00971e-005
  endloop
 endfacet
 facet normal -6.8702e-010 -1.78814e-007 -1
  outer loop
    vertex 1 -2.5 8.23669e-006
    vertex -10.5 -14 1.0301e-005
    vertex -10.5 14 5.29416e-006
  endloop
 endfacet
 facet normal -6.87032e-010 -1.78814e-007 -1
  outer loop
    vertex -10.5 14 5.29416e-006
    vertex -10.5 -14 1.0301e-005
    vertex -15.5 -14 1.03044e-005
  endloop
 endfacet
 facet normal -6.87033e-010 -1.78814e-007 -1
  outer loop
    vertex -15.5 14 5.2976e-006
    vertex -15.5 -14 1.03044e-005
    vertex -26 39 8.34465e-007
  endloop
 endfacet
 facet normal -6.87053e-010 -1.78814e-007 -1
  outer loop
    vertex -15.5 39 8.27251e-007
    vertex -15.5 14 5.2976e-006
    vertex -26 39 8.34465e-007
  endloop
 endfacet
 facet normal -6.87058e-010 -1.78814e-007 -1
  outer loop
    vertex -15.5 -39 1.47747e-005
    vertex -26 -39 1.4782e-005
    vertex -15.5 -14 1.03044e-005
  endloop
 endfacet
 facet normal -6.87056e-010 -1.78814e-007 -1
  outer loop
    vertex -15.5 -14 1.03044e-005
    vertex -26 -39 1.4782e-005
    vertex -26 39 8.34465e-007
  endloop
 endfacet
 facet normal -6.87032e-010 -1.78814e-007 -1
  outer loop
    vertex -15.5 14 5.2976e-006
    vertex -10.5 14 5.29416e-006
    vertex -15.5 -14 1.03044e-005
  endloop
 endfacet
 facet normal 0 -1 0
  outer loop
    vertex -10.5 -39 2.65002
    vertex -10.5 -39 1.47713e-005
    vertex -2.65 -39 2.65002
  endloop
 endfacet
 facet normal 0 -1 0
  outer loop
    vertex -2.65 -39 2.65002
    vertex -10.5 -39 1.47713e-005
    vertex -3.57267e-008 -39 1.47641e-005
  endloop
 endfacet
 facet normal 0 -1 0
  outer loop
    vertex -2.85127e-008 -39 10.5
    vertex -2.65 -39 2.65002
    vertex -3.57267e-008 -39 1.47641e-005
  endloop
 endfacet
 facet normal 0 -1 0
  outer loop
    vertex -2.85127e-008 -39 10.5
    vertex -2.65 -39 10.5
    vertex -2.65 -39 2.65002
  endloop
 endfacet
 facet normal 0 -1 1.90735e-007
  outer loop
    vertex -23.35 -14 10.5
    vertex -23.35 -14 15.5
    vertex -26 -14 10.5
  endloop
 endfacet
 facet normal 0 -1 1.90735e-007
  outer loop
    vertex -26 -14 10.5
    vertex -23.35 -14 15.5
    vertex -26 -14 15.5
  endloop
 endfacet
 facet normal 0 -1.90735e-007 -1
  outer loop
    vertex -23.35 -14 15.5
    vertex -23.35 -39 15.5
    vertex -26 -14 15.5
  endloop
 endfacet
 facet normal -0 -1.90735e-007 -1
  outer loop
    vertex -26 -14 15.5
    vertex -23.35 -39 15.5
    vertex -26 -39 15.5
  endloop
 endfacet
 facet normal 0 1.90735e-007 1
  outer loop
    vertex -23.35 -39 10.5
    vertex -23.35 -14 10.5
    vertex -26 -39 10.5
  endloop
 endfacet
 facet normal 0 1.90735e-007 1
  outer loop
    vertex -26 -39 10.5
    vertex -23.35 -14 10.5
    vertex -26 -14 10.5
  endloop
 endfacet
 facet normal 0 1.90735e-007 1
  outer loop
    vertex -2.65 -14 10.5
    vertex -2.65 -39 10.5
    vertex -2.85127e-008 -14 10.5
  endloop
 endfacet
 facet normal -0 1.90735e-007 1
  outer loop
    vertex -2.85127e-008 -14 10.5
    vertex -2.65 -39 10.5
    vertex -2.85127e-008 -39 10.5
  endloop
 endfacet
 facet normal 0 -1 1.90735e-007
  outer loop
    vertex -2.65 -14 15.5
    vertex -2.65 -14 10.5
    vertex -2.50774e-008 -14 15.5
  endloop
 endfacet
 facet normal 0 -1 1.90735e-007
  outer loop
    vertex -2.50774e-008 -14 15.5
    vertex -2.65 -14 10.5
    vertex -2.85127e-008 -14 10.5
  endloop
 endfacet
 facet normal 0 -1.90735e-007 -1
  outer loop
    vertex -2.65 -39 15.5
    vertex -2.65 -14 15.5
    vertex -2.50774e-008 -39 15.5
  endloop
 endfacet
 facet normal 0 -1.90735e-007 -1
  outer loop
    vertex -2.50774e-008 -39 15.5
    vertex -2.65 -14 15.5
    vertex -2.50774e-008 -14 15.5
  endloop
 endfacet
 facet normal 0 3.8147e-007 1
  outer loop
    vertex -23.35 -2.5 27
    vertex -23.35 2.5 27
    vertex -26 -2.5 27
  endloop
 endfacet
 facet normal 0 3.8147e-007 1
  outer loop
    vertex -26 -2.5 27
    vertex -23.35 2.5 27
    vertex -26 2.5 27
  endloop
 endfacet
 facet normal 0 3.8147e-007 1
  outer loop
    vertex -2.65 2.5 27
    vertex -2.65 -2.5 27
    vertex -1.71763e-008 2.5 27
  endloop
 endfacet
 facet normal -0 3.8147e-007 1
  outer loop
    vertex -1.71763e-008 2.5 27
    vertex -2.65 -2.5 27
    vertex -1.71763e-008 -2.5 27
  endloop
 endfacet
 facet normal 0 -1 1.81198e-007
  outer loop
    vertex -23.35 2.5 27
    vertex -23.35 2.50001 52
    vertex -26 2.5 27
  endloop
 endfacet
 facet normal 0 -1 1.81198e-007
  outer loop
    vertex -26 2.5 27
    vertex -23.35 2.50001 52
    vertex -26 2.50001 52
  endloop
 endfacet
 facet normal 0 -1 1.81198e-007
  outer loop
    vertex -2.65 2.50001 52
    vertex -2.65 2.5 27
    vertex -6.49654e-015 2.50001 52
  endloop
 endfacet
 facet normal 0 -1 1.81198e-007
  outer loop
    vertex -6.49654e-015 2.50001 52
    vertex -2.65 2.5 27
    vertex -1.71763e-008 2.5 27
  endloop
 endfacet
 facet normal 0 1 -1.81198e-007
  outer loop
    vertex -23.35 -2.49999 52
    vertex -23.35 -2.5 27
    vertex -26 -2.49999 52
  endloop
 endfacet
 facet normal 0 1 -1.81198e-007
  outer loop
    vertex -26 -2.49999 52
    vertex -23.35 -2.5 27
    vertex -26 -2.5 27
  endloop
 endfacet
 facet normal 0 1 -1.81198e-007
  outer loop
    vertex -2.65 -2.5 27
    vertex -2.65 -2.49999 52
    vertex -1.71763e-008 -2.5 27
  endloop
 endfacet
 facet normal 0 1 -1.81198e-007
  outer loop
    vertex -1.71763e-008 -2.5 27
    vertex -2.65 -2.49999 52
    vertex -9.58955e-015 -2.49999 52
  endloop
 endfacet
 facet normal 1 -7.15697e-016 -6.87052e-010
  outer loop
    vertex -1.78634e-008 -39 26
    vertex -2.50774e-008 -39 15.5
    vertex -1.78634e-008 -13 26
  endloop
 endfacet
 facet normal 1 -7.70533e-016 -6.87052e-010
  outer loop
    vertex -1.78634e-008 -13 26
    vertex -2.50774e-008 -39 15.5
    vertex -2.50774e-008 -14 15.5
  endloop
 endfacet
 facet normal 1 6.55224e-017 -6.87052e-010
  outer loop
    vertex -2.85127e-008 -14 10.5
    vertex -1.78634e-008 -13 26
    vertex -2.50774e-008 -14 15.5
  endloop
 endfacet
 facet normal 1 -1.66398e-016 -6.87052e-010
  outer loop
    vertex -2.85127e-008 -14 10.5
    vertex -3.57267e-008 -13 1.01149e-005
    vertex -1.78634e-008 -13 26
  endloop
 endfacet
 facet normal 1 -6.69426e-016 -6.87052e-010
  outer loop
    vertex -2.85127e-008 -14 10.5
    vertex -3.57267e-008 -39 1.47641e-005
    vertex -3.57267e-008 -13 1.01149e-005
  endloop
 endfacet
 facet normal 1 -7.70533e-016 -6.87052e-010
  outer loop
    vertex -2.85127e-008 -14 10.5
    vertex -2.85127e-008 -39 10.5
    vertex -3.57267e-008 -39 1.47641e-005
  endloop
 endfacet
 facet normal 1 0 0
  outer loop
    vertex -23.35 -39 23.35
    vertex -23.35 -39 15.5
    vertex -23.35 -13 23.35
  endloop
 endfacet
 facet normal 1 -0 0
  outer loop
    vertex -23.35 -13 23.35
    vertex -23.35 -39 15.5
    vertex -23.35 -14 15.5
  endloop
 endfacet
 facet normal 1 0 0
  outer loop
    vertex -23.35 -14 10.5
    vertex -23.35 -13 23.35
    vertex -23.35 -14 15.5
  endloop
 endfacet
 facet normal 1 0 -0
  outer loop
    vertex -23.35 -14 10.5
    vertex -23.35 -13 2.65001
    vertex -23.35 -13 23.35
  endloop
 endfacet
 facet normal 1 -0 0
  outer loop
    vertex -23.35 -14 10.5
    vertex -23.35 -39 2.65002
    vertex -23.35 -13 2.65001
  endloop
 endfacet
 facet normal 1 0 0
  outer loop
    vertex -23.35 -14 10.5
    vertex -23.35 -39 10.5
    vertex -23.35 -39 2.65002
  endloop
 endfacet
 facet normal 0 -1 0
  outer loop
    vertex -15.5 -39 2.65002
    vertex -23.35 -39 2.65002
    vertex -15.5 -39 1.47747e-005
  endloop
 endfacet
 facet normal 0 -1 -0
  outer loop
    vertex -15.5 -39 1.47747e-005
    vertex -23.35 -39 2.65002
    vertex -26 -39 1.4782e-005
  endloop
 endfacet
 facet normal -0 -1 0
  outer loop
    vertex -26 -39 1.4782e-005
    vertex -23.35 -39 2.65002
    vertex -26 -39 10.5
  endloop
 endfacet
 facet normal 0 -1 0
  outer loop
    vertex -26 -39 10.5
    vertex -23.35 -39 2.65002
    vertex -23.35 -39 10.5
  endloop
 endfacet
 facet normal -1 0 0
  outer loop
    vertex -2.65 -2.49999 52
    vertex -2.65 -2.5 27
    vertex -2.65 -10.35 52
  endloop
 endfacet
 facet normal -1 -0 0
  outer loop
    vertex -2.65 -10.35 52
    vertex -2.65 -2.5 27
    vertex -2.65 -10.35 26
  endloop
 endfacet
 facet normal -1 0 -0
  outer loop
    vertex -2.65 -10.35 26
    vertex -2.65 -2.5 27
    vertex -2.65 2.5 27
  endloop
 endfacet
 facet normal -1 0 0
  outer loop
    vertex -2.65 10.35 26
    vertex -2.65 2.5 27
    vertex -2.65 10.35 52
  endloop
 endfacet
 facet normal -1 0 0
  outer loop
    vertex -2.65 10.35 26
    vertex -2.65 -10.35 26
    vertex -2.65 2.5 27
  endloop
 endfacet
 facet normal -1 0 -0
  outer loop
    vertex -2.65 2.5 27
    vertex -2.65 2.50001 52
    vertex -2.65 10.35 52
  endloop
 endfacet
 facet normal 0 0 1
  outer loop
    vertex -2.65 2.50001 52
    vertex -6.49654e-015 2.50001 52
    vertex -2.65 10.35 52
  endloop
 endfacet
 facet normal 0 -0 1
  outer loop
    vertex -2.65 10.35 52
    vertex -6.49654e-015 2.50001 52
    vertex 0 13 52
  endloop
 endfacet
 facet normal 0 -0 1
  outer loop
    vertex -10.5 13 52
    vertex -2.65 10.35 52
    vertex 0 13 52
  endloop
 endfacet
 facet normal 0 0 1
  outer loop
    vertex -10.5 13 52
    vertex -10.5 10.35 52
    vertex -2.65 10.35 52
  endloop
 endfacet
 facet normal 1 0 0
  outer loop
    vertex -23.35 2.50001 52
    vertex -23.35 2.5 27
    vertex -23.35 10.35 52
  endloop
 endfacet
 facet normal 1 -0 0
  outer loop
    vertex -23.35 10.35 52
    vertex -23.35 2.5 27
    vertex -23.35 10.35 26
  endloop
 endfacet
 facet normal 1 0 0
  outer loop
    vertex -23.35 10.35 26
    vertex -23.35 2.5 27
    vertex -23.35 -2.5 27
  endloop
 endfacet
 facet normal 1 0 0
  outer loop
    vertex -23.35 -10.35 26
    vertex -23.35 -2.5 27
    vertex -23.35 -10.35 52
  endloop
 endfacet
 facet normal 1 0 0
  outer loop
    vertex -23.35 -10.35 26
    vertex -23.35 10.35 26
    vertex -23.35 -2.5 27
  endloop
 endfacet
 facet normal 1 0 0
  outer loop
    vertex -23.35 -2.5 27
    vertex -23.35 -2.49999 52
    vertex -23.35 -10.35 52
  endloop
 endfacet
 facet normal -0 0 1
  outer loop
    vertex -23.35 -2.49999 52
    vertex -26 -2.49999 52
    vertex -23.35 -10.35 52
  endloop
 endfacet
 facet normal 0 0 1
  outer loop
    vertex -23.35 -10.35 52
    vertex -26 -2.49999 52
    vertex -26 -13 52
  endloop
 endfacet
 facet normal 0 0 1
  outer loop
    vertex -15.5 -13 52
    vertex -23.35 -10.35 52
    vertex -26 -13 52
  endloop
 endfacet
 facet normal 0 0 1
  outer loop
    vertex -15.5 -13 52
    vertex -15.5 -10.35 52
    vertex -23.35 -10.35 52
  endloop
 endfacet
 facet normal 0 1.52588e-007 1
  outer loop
    vertex -10.5 -39 26
    vertex -1.78634e-008 -39 26
    vertex -10.5 -14 26
  endloop
 endfacet
 facet normal -1.39733e-008 1.46719e-007 1
  outer loop
    vertex -10.5 -14 26
    vertex -1.78634e-008 -39 26
    vertex -1.78634e-008 -13 26
  endloop
 endfacet
 facet normal 0 -0 1
  outer loop
    vertex -26 -13 26
    vertex -10.5 -14 26
    vertex -1.78634e-008 -13 26
  endloop
 endfacet
 facet normal 0 -0 1
  outer loop
    vertex -26 -13 26
    vertex -15.5 -14 26
    vertex -10.5 -14 26
  endloop
 endfacet
 facet normal 1.45322e-008 1.52588e-007 1
  outer loop
    vertex -26 -13 26
    vertex -15.5 -39 26
    vertex -15.5 -14 26
  endloop
 endfacet
 facet normal -0 1.46719e-007 1
  outer loop
    vertex -26 -13 26
    vertex -26 -39 26
    vertex -15.5 -39 26
  endloop
 endfacet
 facet normal -1 0 0
  outer loop
    vertex -2.65 -39 15.5
    vertex -2.65 -39 23.35
    vertex -2.65 -14 15.5
  endloop
 endfacet
 facet normal -1 0 0
  outer loop
    vertex -2.65 -14 15.5
    vertex -2.65 -39 23.35
    vertex -2.65 -13 23.35
  endloop
 endfacet
 facet normal -1 0 0
  outer loop
    vertex -2.65 -13 2.65001
    vertex -2.65 -14 15.5
    vertex -2.65 -13 23.35
  endloop
 endfacet
 facet normal -1 0 0
  outer loop
    vertex -2.65 -13 2.65001
    vertex -2.65 -14 10.5
    vertex -2.65 -14 15.5
  endloop
 endfacet
 facet normal -1 0 0
  outer loop
    vertex -2.65 -13 2.65001
    vertex -2.65 -39 10.5
    vertex -2.65 -14 10.5
  endloop
 endfacet
 facet normal -1 0 0
  outer loop
    vertex -2.65 -13 2.65001
    vertex -2.65 -39 2.65002
    vertex -2.65 -39 10.5
  endloop
 endfacet
 facet normal 2.12256e-015 -1 1.84285e-007
  outer loop
    vertex -23.35 -13 2.65001
    vertex -2.65 -13 2.65001
    vertex -23.35 -13 23.35
  endloop
 endfacet
 facet normal 0 -1 1.84285e-007
  outer loop
    vertex -23.35 -13 23.35
    vertex -2.65 -13 2.65001
    vertex -2.65 -13 23.35
  endloop
 endfacet
 facet normal 1.24805e-016 -1 1.81652e-007
  outer loop
    vertex 26 -13 1.00971e-005
    vertex 1 -13 10.5
    vertex -3.57267e-008 -13 1.01149e-005
  endloop
 endfacet
 facet normal 0 -1 1.81652e-007
  outer loop
    vertex 26 -13 1.00971e-005
    vertex 26 -13 10.5
    vertex 1 -13 10.5
  endloop
 endfacet
 facet normal -9.53675e-008 -1 1.90735e-007
  outer loop
    vertex 1 -13 10.5
    vertex 1 -13 15.5
    vertex -3.57267e-008 -13 1.01149e-005
  endloop
 endfacet
 facet normal 1.83399e-008 -1 1.83399e-007
  outer loop
    vertex -3.57267e-008 -13 1.01149e-005
    vertex 1 -13 15.5
    vertex -1.78634e-008 -13 26
  endloop
 endfacet
 facet normal 0 -1 1.81652e-007
  outer loop
    vertex -1.78634e-008 -13 26
    vertex 1 -13 15.5
    vertex 26 -13 15.5
  endloop
 endfacet
 facet normal 0 -1 1.81652e-007
  outer loop
    vertex 26 -13 26
    vertex -1.78634e-008 -13 26
    vertex 26 -13 15.5
  endloop
 endfacet
 facet normal -1.74666e-008 -1 1.83399e-007
  outer loop
    vertex -26 -13 52
    vertex -26 -13 26
    vertex -15.5 -13 27
  endloop
 endfacet
 facet normal 0 -1 1.90735e-007
  outer loop
    vertex -15.5 -13 52
    vertex -26 -13 52
    vertex -15.5 -13 27
  endloop
 endfacet
 facet normal 0 -1 1.83399e-007
  outer loop
    vertex -1.60844e-014 -13 52
    vertex -10.5 -13 52
    vertex -1.78634e-008 -13 26
  endloop
 endfacet
 facet normal 1.81652e-008 -1 1.90735e-007
  outer loop
    vertex -1.78634e-008 -13 26
    vertex -10.5 -13 52
    vertex -10.5 -13 27
  endloop
 endfacet
 facet normal 0 -1 0
  outer loop
    vertex -15.5 -13 27
    vertex -1.78634e-008 -13 26
    vertex -10.5 -13 27
  endloop
 endfacet
 facet normal 0 -1 0
  outer loop
    vertex -15.5 -13 27
    vertex -26 -13 26
    vertex -1.78634e-008 -13 26
  endloop
 endfacet
 facet normal 0 1 -2.42779e-007
  outer loop
    vertex 26 -10.35 10.5
    vertex 26 -10.35 2.6437
    vertex 1 -10.35 10.5
  endloop
 endfacet
 facet normal 0 1 -2.42779e-007
  outer loop
    vertex 1 -10.35 10.5
    vertex 26 -10.35 2.6437
    vertex -3.39104e-008 -10.35 2.6437
  endloop
 endfacet
 facet normal -4.59549e-007 1 -1.84285e-007
  outer loop
    vertex -1.96884e-008 -10.35 23.3437
    vertex 1 -10.35 10.5
    vertex -3.39104e-008 -10.35 2.6437
  endloop
 endfacet
 facet normal -5.42391e-007 1 -1.90735e-007
  outer loop
    vertex -1.96884e-008 -10.35 23.3437
    vertex 1 -10.35 15.5
    vertex 1 -10.35 10.5
  endloop
 endfacet
 facet normal 0 1 -1.21585e-007
  outer loop
    vertex -1.96884e-008 -10.35 23.3437
    vertex 26 -10.35 23.3437
    vertex 1 -10.35 15.5
  endloop
 endfacet
 facet normal 0 1 -1.21585e-007
  outer loop
    vertex 1 -10.35 15.5
    vertex 26 -10.35 23.3437
    vertex 26 -10.35 15.5
  endloop
 endfacet
 facet normal 0 1.82231e-007 1
  outer loop
    vertex 26 2.5 2.6437
    vertex 26 10.35 2.64369
    vertex 1 2.5 2.6437
  endloop
 endfacet
 facet normal 0 1.82231e-007 1
  outer loop
    vertex 1 2.5 2.6437
    vertex 26 10.35 2.64369
    vertex -3.39104e-008 10.35 2.64369
  endloop
 endfacet
 facet normal -7.42899e-008 1.72767e-007 1
  outer loop
    vertex -3.39104e-008 -10.35 2.6437
    vertex 1 2.5 2.6437
    vertex -3.39104e-008 10.35 2.64369
  endloop
 endfacet
 facet normal -3.05176e-007 1.90735e-007 1
  outer loop
    vertex -3.39104e-008 -10.35 2.6437
    vertex 1 -2.5 2.6437
    vertex 1 2.5 2.6437
  endloop
 endfacet
 facet normal 0 1.51859e-007 1
  outer loop
    vertex -3.39104e-008 -10.35 2.6437
    vertex 26 -10.35 2.6437
    vertex 1 -2.5 2.6437
  endloop
 endfacet
 facet normal 9.53674e-009 1.82231e-007 1
  outer loop
    vertex 1 -2.5 2.6437
    vertex 26 -10.35 2.6437
    vertex 26 -2.5 2.6437
  endloop
 endfacet
 facet normal 0 -1 1.2139e-007
  outer loop
    vertex 26 10.35 10.5
    vertex 1 10.35 10.5
    vertex 26 10.35 2.64369
  endloop
 endfacet
 facet normal 0 -1 1.2139e-007
  outer loop
    vertex 26 10.35 2.64369
    vertex 1 10.35 10.5
    vertex -3.39104e-008 10.35 2.64369
  endloop
 endfacet
 facet normal -5.44798e-007 -1 1.90735e-007
  outer loop
    vertex -3.39104e-008 10.35 2.64369
    vertex 1 10.35 10.5
    vertex 1 10.35 15.5
  endloop
 endfacet
 facet normal 0 -1 2.4317e-007
  outer loop
    vertex -1.96884e-008 10.35 23.3437
    vertex 1 10.35 15.5
    vertex 26 10.35 23.3437
  endloop
 endfacet
 facet normal -4.61875e-007 -1 1.84285e-007
  outer loop
    vertex -1.96884e-008 10.35 23.3437
    vertex -3.39104e-008 10.35 2.64369
    vertex 1 10.35 15.5
  endloop
 endfacet
 facet normal 0 -1 2.4317e-007
  outer loop
    vertex 1 10.35 15.5
    vertex 26 10.35 15.5
    vertex 26 10.35 23.3437
  endloop
 endfacet
 facet normal 1 -8.05215e-016 -6.87052e-010
  outer loop
    vertex -3.39104e-008 -10.35 2.6437
    vertex -3.39104e-008 10.35 2.64369
    vertex -1.96884e-008 -10.35 23.3437
  endloop
 endfacet
 facet normal 1 -8.13128e-016 -6.87052e-010
  outer loop
    vertex -1.96884e-008 -10.35 23.3437
    vertex -3.39104e-008 10.35 2.64369
    vertex -1.96884e-008 10.35 23.3437
  endloop
 endfacet
 facet normal 0 0 1
  outer loop
    vertex 1 10.35 10.5
    vertex 26 10.35 10.5
    vertex 1 13 10.5
  endloop
 endfacet
 facet normal 0 -0 1
  outer loop
    vertex 1 13 10.5
    vertex 26 10.35 10.5
    vertex 26 13 10.5
  endloop
 endfacet
 facet normal -0 3.59877e-007 1
  outer loop
    vertex 26 -10.35 10.5
    vertex 1 -10.35 10.5
    vertex 26 -13 10.5
  endloop
 endfacet
 facet normal 0 3.59877e-007 1
  outer loop
    vertex 26 -13 10.5
    vertex 1 -10.35 10.5
    vertex 1 -13 10.5
  endloop
 endfacet
 facet normal 1 0 0
  outer loop
    vertex 1 10.35 15.5
    vertex 1 10.35 10.5
    vertex 1 13 15.5
  endloop
 endfacet
 facet normal 1 0 0
  outer loop
    vertex 1 13 15.5
    vertex 1 10.35 10.5
    vertex 1 13 10.5
  endloop
 endfacet
 facet normal 1 0 0
  outer loop
    vertex 1 -10.35 10.5
    vertex 1 -10.35 15.5
    vertex 1 -13 10.5
  endloop
 endfacet
 facet normal 1 0 0
  outer loop
    vertex 1 -13 10.5
    vertex 1 -10.35 15.5
    vertex 1 -13 15.5
  endloop
 endfacet
 facet normal 0 0 -1
  outer loop
    vertex 26 10.35 15.5
    vertex 1 10.35 15.5
    vertex 26 13 15.5
  endloop
 endfacet
 facet normal 0 0 -1
  outer loop
    vertex 26 13 15.5
    vertex 1 10.35 15.5
    vertex 1 13 15.5
  endloop
 endfacet
 facet normal -0 -3.59877e-007 -1
  outer loop
    vertex 1 -10.35 15.5
    vertex 26 -10.35 15.5
    vertex 1 -13 15.5
  endloop
 endfacet
 facet normal 0 -3.59877e-007 -1
  outer loop
    vertex 1 -13 15.5
    vertex 26 -10.35 15.5
    vertex 26 -13 15.5
  endloop
 endfacet
 facet normal 0 1 -1.52588e-007
  outer loop
    vertex -10.5 -10.35 52
    vertex -2.65 -10.35 52
    vertex -10.5 -10.35 27
  endloop
 endfacet
 facet normal -1.86903e-008 1 -1.46719e-007
  outer loop
    vertex -10.5 -10.35 27
    vertex -2.65 -10.35 52
    vertex -2.65 -10.35 26
  endloop
 endfacet
 facet normal 0 1 0
  outer loop
    vertex -23.35 -10.35 26
    vertex -10.5 -10.35 27
    vertex -2.65 -10.35 26
  endloop
 endfacet
 facet normal -0 1 0
  outer loop
    vertex -23.35 -10.35 26
    vertex -15.5 -10.35 27
    vertex -10.5 -10.35 27
  endloop
 endfacet
 facet normal 1.86903e-008 1 -1.46719e-007
  outer loop
    vertex -23.35 -10.35 26
    vertex -23.35 -10.35 52
    vertex -15.5 -10.35 27
  endloop
 endfacet
 facet normal 0 1 -1.52588e-007
  outer loop
    vertex -15.5 -10.35 27
    vertex -23.35 -10.35 52
    vertex -15.5 -10.35 52
  endloop
 endfacet
 facet normal 0 -1 1.90735e-007
  outer loop
    vertex -10.5 10.35 52
    vertex -10.5 10.35 27
    vertex -2.65 10.35 52
  endloop
 endfacet
 facet normal 2.33629e-008 -1 1.83399e-007
  outer loop
    vertex -2.65 10.35 52
    vertex -10.5 10.35 27
    vertex -2.65 10.35 26
  endloop
 endfacet
 facet normal -0 -1 -0
  outer loop
    vertex -2.65 10.35 26
    vertex -10.5 10.35 27
    vertex -15.5 10.35 27
  endloop
 endfacet
 facet normal -2.33629e-008 -1 1.83399e-007
  outer loop
    vertex -23.35 10.35 26
    vertex -15.5 10.35 27
    vertex -23.35 10.35 52
  endloop
 endfacet
 facet normal 0 -1 0
  outer loop
    vertex -23.35 10.35 26
    vertex -2.65 10.35 26
    vertex -15.5 10.35 27
  endloop
 endfacet
 facet normal 0 -1 1.90735e-007
  outer loop
    vertex -15.5 10.35 27
    vertex -15.5 10.35 52
    vertex -23.35 10.35 52
  endloop
 endfacet
 facet normal 0 1.84285e-007 1
  outer loop
    vertex -23.35 10.35 26
    vertex -23.35 -10.35 26
    vertex -2.65 10.35 26
  endloop
 endfacet
 facet normal -0 1.84285e-007 1
  outer loop
    vertex -2.65 10.35 26
    vertex -23.35 -10.35 26
    vertex -2.65 -10.35 26
  endloop
 endfacet
 facet normal 0 0 1
  outer loop
    vertex -2.65 -2.49999 52
    vertex -2.65 -10.35 52
    vertex -9.58955e-015 -2.49999 52
  endloop
 endfacet
 facet normal -0 0 1
  outer loop
    vertex -9.58955e-015 -2.49999 52
    vertex -2.65 -10.35 52
    vertex -1.60844e-014 -13 52
  endloop
 endfacet
 facet normal 0 0 1
  outer loop
    vertex -1.60844e-014 -13 52
    vertex -2.65 -10.35 52
    vertex -10.5 -13 52
  endloop
 endfacet
 facet normal 0 0 1
  outer loop
    vertex -10.5 -13 52
    vertex -2.65 -10.35 52
    vertex -10.5 -10.35 52
  endloop
 endfacet
 facet normal -1 0 0
  outer loop
    vertex -10.5 -10.35 52
    vertex -10.5 -10.35 27
    vertex -10.5 -13 52
  endloop
 endfacet
 facet normal -1 0 0
  outer loop
    vertex -10.5 -13 52
    vertex -10.5 -10.35 27
    vertex -10.5 -13 27
  endloop
 endfacet
 facet normal -0 0 1
  outer loop
    vertex -10.5 -10.35 27
    vertex -15.5 -10.35 27
    vertex -10.5 -13 27
  endloop
 endfacet
 facet normal 0 0 1
  outer loop
    vertex -10.5 -13 27
    vertex -15.5 -10.35 27
    vertex -15.5 -13 27
  endloop
 endfacet
 facet normal 1 0 0
  outer loop
    vertex -15.5 -10.35 27
    vertex -15.5 -10.35 52
    vertex -15.5 -13 27
  endloop
 endfacet
 facet normal 1 0 0
  outer loop
    vertex -15.5 -13 27
    vertex -15.5 -10.35 52
    vertex -15.5 -13 52
  endloop
 endfacet
 facet normal 0 0 1
  outer loop
    vertex -23.35 2.50001 52
    vertex -23.35 10.35 52
    vertex -26 2.50001 52
  endloop
 endfacet
 facet normal 0 0 1
  outer loop
    vertex -26 2.50001 52
    vertex -23.35 10.35 52
    vertex -26 13 52
  endloop
 endfacet
 facet normal 0 -0 1
  outer loop
    vertex -26 13 52
    vertex -23.35 10.35 52
    vertex -15.5 13 52
  endloop
 endfacet
 facet normal 0 0 1
  outer loop
    vertex -15.5 13 52
    vertex -23.35 10.35 52
    vertex -15.5 10.35 52
  endloop
 endfacet
 facet normal 1 0 0
  outer loop
    vertex -15.5 10.35 52
    vertex -15.5 10.35 27
    vertex -15.5 13 52
  endloop
 endfacet
 facet normal 1 -0 0
  outer loop
    vertex -15.5 13 52
    vertex -15.5 10.35 27
    vertex -15.5 13 27
  endloop
 endfacet
 facet normal 0 7.19754e-007 1
  outer loop
    vertex -15.5 10.35 27
    vertex -10.5 10.35 27
    vertex -15.5 13 27
  endloop
 endfacet
 facet normal 0 7.19754e-007 1
  outer loop
    vertex -15.5 13 27
    vertex -10.5 10.35 27
    vertex -10.5 13 27
  endloop
 endfacet
 facet normal -1 0 -0
  outer loop
    vertex -10.5 10.35 27
    vertex -10.5 10.35 52
    vertex -10.5 13 27
  endloop
 endfacet
 facet normal -1 0 0
  outer loop
    vertex -10.5 13 27
    vertex -10.5 10.35 52
    vertex -10.5 13 52
  endloop
 endfacet
 facet normal 1 -6.25047e-016 -6.87052e-010
  outer loop
    vertex -9.58955e-015 -2.49999 52
    vertex -1.78634e-008 -13 26
    vertex -1.71763e-008 -2.5 27
  endloop
 endfacet
 facet normal 1 -6.18553e-016 -6.87052e-010
  outer loop
    vertex -9.58955e-015 -2.49999 52
    vertex -1.60844e-014 -13 52
    vertex -1.78634e-008 -13 26
  endloop
 endfacet
 facet normal 1 -7.66098e-016 -6.87051e-010
  outer loop
    vertex -1.78634e-008 -13 26
    vertex -1.78634e-008 13 26
    vertex -1.71763e-008 -2.5 27
  endloop
 endfacet
 facet normal 1 -9.72633e-016 -6.87054e-010
  outer loop
    vertex -1.71763e-008 -2.5 27
    vertex -1.78634e-008 13 26
    vertex -1.71763e-008 2.5 27
  endloop
 endfacet
 facet normal 1 -8.04606e-016 -6.87052e-010
  outer loop
    vertex -1.71763e-008 2.5 27
    vertex -1.78634e-008 13 26
    vertex 0 13 52
  endloop
 endfacet
 facet normal 1 -6.18718e-016 -6.87052e-010
  outer loop
    vertex -6.49654e-015 2.50001 52
    vertex -1.71763e-008 2.5 27
    vertex 0 13 52
  endloop
 endfacet
 facet normal 2.09808e-006 3.8147e-007 1
  outer loop
    vertex 1 -2.5 26
    vertex 1 2.5 26
    vertex -1.78634e-008 13 26
  endloop
 endfacet
 facet normal -4.03478e-007 2.20079e-007 1
  outer loop
    vertex -1.78634e-008 -13 26
    vertex 1 -2.5 26
    vertex -1.78634e-008 13 26
  endloop
 endfacet
 facet normal 0 1.81652e-007 1
  outer loop
    vertex -1.78634e-008 -13 26
    vertex 26 -13 26
    vertex 1 -2.5 26
  endloop
 endfacet
 facet normal 0 1.81652e-007 1
  outer loop
    vertex 1 -2.5 26
    vertex 26 -13 26
    vertex 26 -2.5 26
  endloop
 endfacet
 facet normal -0 1.81652e-007 1
  outer loop
    vertex 26 13 26
    vertex -1.78634e-008 13 26
    vertex 26 2.5 26
  endloop
 endfacet
 facet normal 0 1.81652e-007 1
  outer loop
    vertex 26 2.5 26
    vertex -1.78634e-008 13 26
    vertex 1 2.5 26
  endloop
 endfacet
 facet normal 1 0 0
  outer loop
    vertex 26 2.5 2.6437
    vertex 26 2.5 7.32545e-006
    vertex 26 10.35 2.64369
  endloop
 endfacet
 facet normal 1 -0 0
  outer loop
    vertex 26 10.35 2.64369
    vertex 26 2.5 7.32545e-006
    vertex 26 13 5.4479e-006
  endloop
 endfacet
 facet normal 1 -0 0
  outer loop
    vertex 26 13 10.5
    vertex 26 10.35 2.64369
    vertex 26 13 5.4479e-006
  endloop
 endfacet
 facet normal 1 -0 0
  outer loop
    vertex 26 13 10.5
    vertex 26 10.35 10.5
    vertex 26 10.35 2.64369
  endloop
 endfacet
 facet normal -1.83398e-008 1 -1.83399e-007
  outer loop
    vertex -1.78634e-008 13 26
    vertex 1 13 15.5
    vertex -3.57267e-008 13 5.46576e-006
  endloop
 endfacet
 facet normal 0 1 -1.81652e-007
  outer loop
    vertex -1.78634e-008 13 26
    vertex 26 13 26
    vertex 1 13 15.5
  endloop
 endfacet
 facet normal 0 1 -1.81652e-007
  outer loop
    vertex 1 13 15.5
    vertex 26 13 26
    vertex 26 13 15.5
  endloop
 endfacet
 facet normal 9.53675e-008 1 -1.90735e-007
  outer loop
    vertex 1 13 15.5
    vertex 1 13 10.5
    vertex -3.57267e-008 13 5.46576e-006
  endloop
 endfacet
 facet normal 0 1 -1.81652e-007
  outer loop
    vertex -3.57267e-008 13 5.46576e-006
    vertex 1 13 10.5
    vertex 26 13 10.5
  endloop
 endfacet
 facet normal -1.24805e-016 1 -1.81652e-007
  outer loop
    vertex 26 13 5.4479e-006
    vertex -3.57267e-008 13 5.46576e-006
    vertex 26 13 10.5
  endloop
 endfacet
endsolid solidname
